<?xml version="1.0" standalone="no"?>
 <!DOCTYPE svg PUBLIC "-//W3C//DTD SVG 1.1//EN" 
 "http://www.w3.org/Graphics/SVG/1.1/DTD/svg11.dtd"> 
<svg
  xmlns:svg="http://www.w3.org/2000/svg"
  xmlns="http://www.w3.org/2000/svg"
  xmlns:xlink="http://www.w3.org/1999/xlink"
  version="1.1"
  width="297.0022mm" height="210.0072mm" viewBox="0.0000 0.0000 297.0022 210.0072">
<title>SVG Image created as EL6170_Pro_Max_Plus-F_Courtyard.svg date 2024/10/12 10:51:59 </title>
  <desc>Image generated by PCBNEW </desc>
<g style="fill:#000000; fill-opacity:1.0000;stroke:#000000; stroke-opacity:1.0000;
stroke-linecap:round; stroke-linejoin:round;"
 transform="translate(0 0) scale(1 1)">
</g>
<g style="fill:none; 
stroke:#000000; stroke-width:0.1500; stroke-opacity:1; 
stroke-linecap:round; stroke-linejoin:round;">
<path d="M177.0022 166.0072
L285.0022 166.0072
L285.0022 198.0072
L177.0022 198.0072
L177.0022 166.0072
" />
</g>
<g style="fill:none; 
stroke:#000000; stroke-width:0.1500; stroke-opacity:1; 
stroke-linecap:round; stroke-linejoin:round;">
<path d="M10.0000 10.0000
L287.0022 10.0000
L287.0022 200.0072
L10.0000 200.0072
L10.0000 10.0000
" />
</g>
<g style="fill:none; 
stroke:#000000; stroke-width:0.1500; stroke-opacity:1; 
stroke-linecap:round; stroke-linejoin:round;">
<path d="M12.0000 12.0000
L285.0022 12.0000
L285.0022 198.0072
L12.0000 198.0072
L12.0000 12.0000
" />
</g>
<g style="fill:none; 
stroke:#000000; stroke-width:0.1500; stroke-opacity:1; 
stroke-linecap:round; stroke-linejoin:round;">
<path d="M60.0000 12.0000
L60.0000 10.0000
" />
</g>
<g style="fill:none; 
stroke:#000000; stroke-width:0.1500; stroke-opacity:1; 
stroke-linecap:round; stroke-linejoin:round;">
<path d="M110.0000 12.0000
L110.0000 10.0000
" />
</g>
<g style="fill:none; 
stroke:#000000; stroke-width:0.1500; stroke-opacity:1; 
stroke-linecap:round; stroke-linejoin:round;">
<path d="M160.0000 12.0000
L160.0000 10.0000
" />
</g>
<g style="fill:none; 
stroke:#000000; stroke-width:0.1500; stroke-opacity:1; 
stroke-linecap:round; stroke-linejoin:round;">
<path d="M210.0000 12.0000
L210.0000 10.0000
" />
</g>
<g style="fill:none; 
stroke:#000000; stroke-width:0.1500; stroke-opacity:1; 
stroke-linecap:round; stroke-linejoin:round;">
<path d="M260.0000 12.0000
L260.0000 10.0000
" />
</g>
<g style="fill:none; 
stroke:#000000; stroke-width:0.1500; stroke-opacity:1; 
stroke-linecap:round; stroke-linejoin:round;">
<text x="35.0000" y="11.6500"
textLength="1.4281" font-size="1.7333" lengthAdjust="spacingAndGlyphs"
text-anchor="start" opacity="0" stroke-opacity="0">1</text>
<g class="stroked-text"><desc>1</desc>
<path d="M36.0892 11.5936
L35.3463 11.5936
" />
<path d="M35.7177 11.5936
L35.7177 10.2936
" />
<path d="M35.7177 10.2936
L35.5939 10.4793
" />
<path d="M35.5939 10.4793
L35.4701 10.6031
" />
<path d="M35.4701 10.6031
L35.3463 10.6650
" />
</g></g>
<g style="fill:none; 
stroke:#000000; stroke-width:0.1500; stroke-opacity:1; 
stroke-linecap:round; stroke-linejoin:round;">
<text x="85.0000" y="11.6500"
textLength="1.4281" font-size="1.7333" lengthAdjust="spacingAndGlyphs"
text-anchor="start" opacity="0" stroke-opacity="0">2</text>
<g class="stroked-text"><desc>2</desc>
<path d="M85.3463 10.4174
L85.4082 10.3555
" />
<path d="M85.4082 10.3555
L85.5320 10.2936
" />
<path d="M85.5320 10.2936
L85.8415 10.2936
" />
<path d="M85.8415 10.2936
L85.9654 10.3555
" />
<path d="M85.9654 10.3555
L86.0273 10.4174
" />
<path d="M86.0273 10.4174
L86.0892 10.5412
" />
<path d="M86.0892 10.5412
L86.0892 10.6650
" />
<path d="M86.0892 10.6650
L86.0273 10.8507
" />
<path d="M86.0273 10.8507
L85.2844 11.5936
" />
<path d="M85.2844 11.5936
L86.0892 11.5936
" />
</g></g>
<g style="fill:none; 
stroke:#000000; stroke-width:0.1500; stroke-opacity:1; 
stroke-linecap:round; stroke-linejoin:round;">
<text x="135.0000" y="11.6500"
textLength="1.4281" font-size="1.7333" lengthAdjust="spacingAndGlyphs"
text-anchor="start" opacity="0" stroke-opacity="0">3</text>
<g class="stroked-text"><desc>3</desc>
<path d="M135.2844 10.2936
L136.0892 10.2936
" />
<path d="M136.0892 10.2936
L135.6558 10.7888
" />
<path d="M135.6558 10.7888
L135.8415 10.7888
" />
<path d="M135.8415 10.7888
L135.9654 10.8507
" />
<path d="M135.9654 10.8507
L136.0273 10.9127
" />
<path d="M136.0273 10.9127
L136.0892 11.0365
" />
<path d="M136.0892 11.0365
L136.0892 11.3460
" />
<path d="M136.0892 11.3460
L136.0273 11.4698
" />
<path d="M136.0273 11.4698
L135.9654 11.5317
" />
<path d="M135.9654 11.5317
L135.8415 11.5936
" />
<path d="M135.8415 11.5936
L135.4701 11.5936
" />
<path d="M135.4701 11.5936
L135.3463 11.5317
" />
<path d="M135.3463 11.5317
L135.2844 11.4698
" />
</g></g>
<g style="fill:none; 
stroke:#000000; stroke-width:0.1500; stroke-opacity:1; 
stroke-linecap:round; stroke-linejoin:round;">
<text x="185.0000" y="11.6500"
textLength="1.4281" font-size="1.7333" lengthAdjust="spacingAndGlyphs"
text-anchor="start" opacity="0" stroke-opacity="0">4</text>
<g class="stroked-text"><desc>4</desc>
<path d="M185.9654 10.7269
L185.9654 11.5936
" />
<path d="M185.6558 10.2317
L185.3463 11.1603
" />
<path d="M185.3463 11.1603
L186.1511 11.1603
" />
</g></g>
<g style="fill:none; 
stroke:#000000; stroke-width:0.1500; stroke-opacity:1; 
stroke-linecap:round; stroke-linejoin:round;">
<text x="235.0000" y="11.6500"
textLength="1.4281" font-size="1.7333" lengthAdjust="spacingAndGlyphs"
text-anchor="start" opacity="0" stroke-opacity="0">5</text>
<g class="stroked-text"><desc>5</desc>
<path d="M236.0273 10.2936
L235.4082 10.2936
" />
<path d="M235.4082 10.2936
L235.3463 10.9127
" />
<path d="M235.3463 10.9127
L235.4082 10.8507
" />
<path d="M235.4082 10.8507
L235.5320 10.7888
" />
<path d="M235.5320 10.7888
L235.8415 10.7888
" />
<path d="M235.8415 10.7888
L235.9654 10.8507
" />
<path d="M235.9654 10.8507
L236.0273 10.9127
" />
<path d="M236.0273 10.9127
L236.0892 11.0365
" />
<path d="M236.0892 11.0365
L236.0892 11.3460
" />
<path d="M236.0892 11.3460
L236.0273 11.4698
" />
<path d="M236.0273 11.4698
L235.9654 11.5317
" />
<path d="M235.9654 11.5317
L235.8415 11.5936
" />
<path d="M235.8415 11.5936
L235.5320 11.5936
" />
<path d="M235.5320 11.5936
L235.4082 11.5317
" />
<path d="M235.4082 11.5317
L235.3463 11.4698
" />
</g></g>
<g style="fill:none; 
stroke:#000000; stroke-width:0.1500; stroke-opacity:1; 
stroke-linecap:round; stroke-linejoin:round;">
<text x="285.0000" y="11.6500"
textLength="1.4281" font-size="1.7333" lengthAdjust="spacingAndGlyphs"
text-anchor="start" opacity="0" stroke-opacity="0">6</text>
<g class="stroked-text"><desc>6</desc>
<path d="M285.9654 10.2936
L285.7177 10.2936
" />
<path d="M285.7177 10.2936
L285.5939 10.3555
" />
<path d="M285.5939 10.3555
L285.5320 10.4174
" />
<path d="M285.5320 10.4174
L285.4082 10.6031
" />
<path d="M285.4082 10.6031
L285.3463 10.8507
" />
<path d="M285.3463 10.8507
L285.3463 11.3460
" />
<path d="M285.3463 11.3460
L285.4082 11.4698
" />
<path d="M285.4082 11.4698
L285.4701 11.5317
" />
<path d="M285.4701 11.5317
L285.5939 11.5936
" />
<path d="M285.5939 11.5936
L285.8415 11.5936
" />
<path d="M285.8415 11.5936
L285.9654 11.5317
" />
<path d="M285.9654 11.5317
L286.0273 11.4698
" />
<path d="M286.0273 11.4698
L286.0892 11.3460
" />
<path d="M286.0892 11.3460
L286.0892 11.0365
" />
<path d="M286.0892 11.0365
L286.0273 10.9127
" />
<path d="M286.0273 10.9127
L285.9654 10.8507
" />
<path d="M285.9654 10.8507
L285.8415 10.7888
" />
<path d="M285.8415 10.7888
L285.5939 10.7888
" />
<path d="M285.5939 10.7888
L285.4701 10.8507
" />
<path d="M285.4701 10.8507
L285.4082 10.9127
" />
<path d="M285.4082 10.9127
L285.3463 11.0365
" />
</g></g>
<g style="fill:none; 
stroke:#000000; stroke-width:0.1500; stroke-opacity:1; 
stroke-linecap:round; stroke-linejoin:round;">
<path d="M60.0000 198.0072
L60.0000 200.0072
" />
</g>
<g style="fill:none; 
stroke:#000000; stroke-width:0.1500; stroke-opacity:1; 
stroke-linecap:round; stroke-linejoin:round;">
<path d="M110.0000 198.0072
L110.0000 200.0072
" />
</g>
<g style="fill:none; 
stroke:#000000; stroke-width:0.1500; stroke-opacity:1; 
stroke-linecap:round; stroke-linejoin:round;">
<path d="M160.0000 198.0072
L160.0000 200.0072
" />
</g>
<g style="fill:none; 
stroke:#000000; stroke-width:0.1500; stroke-opacity:1; 
stroke-linecap:round; stroke-linejoin:round;">
<path d="M210.0000 198.0072
L210.0000 200.0072
" />
</g>
<g style="fill:none; 
stroke:#000000; stroke-width:0.1500; stroke-opacity:1; 
stroke-linecap:round; stroke-linejoin:round;">
<path d="M260.0000 198.0072
L260.0000 200.0072
" />
</g>
<g style="fill:none; 
stroke:#000000; stroke-width:0.1500; stroke-opacity:1; 
stroke-linecap:round; stroke-linejoin:round;">
<text x="35.0000" y="199.6572"
textLength="1.4281" font-size="1.7333" lengthAdjust="spacingAndGlyphs"
text-anchor="start" opacity="0" stroke-opacity="0">1</text>
<g class="stroked-text"><desc>1</desc>
<path d="M36.0892 199.6008
L35.3463 199.6008
" />
<path d="M35.7177 199.6008
L35.7177 198.3008
" />
<path d="M35.7177 198.3008
L35.5939 198.4865
" />
<path d="M35.5939 198.4865
L35.4701 198.6103
" />
<path d="M35.4701 198.6103
L35.3463 198.6722
" />
</g></g>
<g style="fill:none; 
stroke:#000000; stroke-width:0.1500; stroke-opacity:1; 
stroke-linecap:round; stroke-linejoin:round;">
<text x="85.0000" y="199.6572"
textLength="1.4281" font-size="1.7333" lengthAdjust="spacingAndGlyphs"
text-anchor="start" opacity="0" stroke-opacity="0">2</text>
<g class="stroked-text"><desc>2</desc>
<path d="M85.3463 198.4246
L85.4082 198.3627
" />
<path d="M85.4082 198.3627
L85.5320 198.3008
" />
<path d="M85.5320 198.3008
L85.8415 198.3008
" />
<path d="M85.8415 198.3008
L85.9654 198.3627
" />
<path d="M85.9654 198.3627
L86.0273 198.4246
" />
<path d="M86.0273 198.4246
L86.0892 198.5484
" />
<path d="M86.0892 198.5484
L86.0892 198.6722
" />
<path d="M86.0892 198.6722
L86.0273 198.8579
" />
<path d="M86.0273 198.8579
L85.2844 199.6008
" />
<path d="M85.2844 199.6008
L86.0892 199.6008
" />
</g></g>
<g style="fill:none; 
stroke:#000000; stroke-width:0.1500; stroke-opacity:1; 
stroke-linecap:round; stroke-linejoin:round;">
<text x="135.0000" y="199.6572"
textLength="1.4281" font-size="1.7333" lengthAdjust="spacingAndGlyphs"
text-anchor="start" opacity="0" stroke-opacity="0">3</text>
<g class="stroked-text"><desc>3</desc>
<path d="M135.2844 198.3008
L136.0892 198.3008
" />
<path d="M136.0892 198.3008
L135.6558 198.7960
" />
<path d="M135.6558 198.7960
L135.8415 198.7960
" />
<path d="M135.8415 198.7960
L135.9654 198.8579
" />
<path d="M135.9654 198.8579
L136.0273 198.9199
" />
<path d="M136.0273 198.9199
L136.0892 199.0437
" />
<path d="M136.0892 199.0437
L136.0892 199.3532
" />
<path d="M136.0892 199.3532
L136.0273 199.4770
" />
<path d="M136.0273 199.4770
L135.9654 199.5389
" />
<path d="M135.9654 199.5389
L135.8415 199.6008
" />
<path d="M135.8415 199.6008
L135.4701 199.6008
" />
<path d="M135.4701 199.6008
L135.3463 199.5389
" />
<path d="M135.3463 199.5389
L135.2844 199.4770
" />
</g></g>
<g style="fill:none; 
stroke:#000000; stroke-width:0.1500; stroke-opacity:1; 
stroke-linecap:round; stroke-linejoin:round;">
<text x="185.0000" y="199.6572"
textLength="1.4281" font-size="1.7333" lengthAdjust="spacingAndGlyphs"
text-anchor="start" opacity="0" stroke-opacity="0">4</text>
<g class="stroked-text"><desc>4</desc>
<path d="M185.9654 198.7341
L185.9654 199.6008
" />
<path d="M185.6558 198.2389
L185.3463 199.1675
" />
<path d="M185.3463 199.1675
L186.1511 199.1675
" />
</g></g>
<g style="fill:none; 
stroke:#000000; stroke-width:0.1500; stroke-opacity:1; 
stroke-linecap:round; stroke-linejoin:round;">
<text x="235.0000" y="199.6572"
textLength="1.4281" font-size="1.7333" lengthAdjust="spacingAndGlyphs"
text-anchor="start" opacity="0" stroke-opacity="0">5</text>
<g class="stroked-text"><desc>5</desc>
<path d="M236.0273 198.3008
L235.4082 198.3008
" />
<path d="M235.4082 198.3008
L235.3463 198.9199
" />
<path d="M235.3463 198.9199
L235.4082 198.8579
" />
<path d="M235.4082 198.8579
L235.5320 198.7960
" />
<path d="M235.5320 198.7960
L235.8415 198.7960
" />
<path d="M235.8415 198.7960
L235.9654 198.8579
" />
<path d="M235.9654 198.8579
L236.0273 198.9199
" />
<path d="M236.0273 198.9199
L236.0892 199.0437
" />
<path d="M236.0892 199.0437
L236.0892 199.3532
" />
<path d="M236.0892 199.3532
L236.0273 199.4770
" />
<path d="M236.0273 199.4770
L235.9654 199.5389
" />
<path d="M235.9654 199.5389
L235.8415 199.6008
" />
<path d="M235.8415 199.6008
L235.5320 199.6008
" />
<path d="M235.5320 199.6008
L235.4082 199.5389
" />
<path d="M235.4082 199.5389
L235.3463 199.4770
" />
</g></g>
<g style="fill:none; 
stroke:#000000; stroke-width:0.1500; stroke-opacity:1; 
stroke-linecap:round; stroke-linejoin:round;">
<text x="285.0000" y="199.6572"
textLength="1.4281" font-size="1.7333" lengthAdjust="spacingAndGlyphs"
text-anchor="start" opacity="0" stroke-opacity="0">6</text>
<g class="stroked-text"><desc>6</desc>
<path d="M285.9654 198.3008
L285.7177 198.3008
" />
<path d="M285.7177 198.3008
L285.5939 198.3627
" />
<path d="M285.5939 198.3627
L285.5320 198.4246
" />
<path d="M285.5320 198.4246
L285.4082 198.6103
" />
<path d="M285.4082 198.6103
L285.3463 198.8579
" />
<path d="M285.3463 198.8579
L285.3463 199.3532
" />
<path d="M285.3463 199.3532
L285.4082 199.4770
" />
<path d="M285.4082 199.4770
L285.4701 199.5389
" />
<path d="M285.4701 199.5389
L285.5939 199.6008
" />
<path d="M285.5939 199.6008
L285.8415 199.6008
" />
<path d="M285.8415 199.6008
L285.9654 199.5389
" />
<path d="M285.9654 199.5389
L286.0273 199.4770
" />
<path d="M286.0273 199.4770
L286.0892 199.3532
" />
<path d="M286.0892 199.3532
L286.0892 199.0437
" />
<path d="M286.0892 199.0437
L286.0273 198.9199
" />
<path d="M286.0273 198.9199
L285.9654 198.8579
" />
<path d="M285.9654 198.8579
L285.8415 198.7960
" />
<path d="M285.8415 198.7960
L285.5939 198.7960
" />
<path d="M285.5939 198.7960
L285.4701 198.8579
" />
<path d="M285.4701 198.8579
L285.4082 198.9199
" />
<path d="M285.4082 198.9199
L285.3463 199.0437
" />
</g></g>
<g style="fill:none; 
stroke:#000000; stroke-width:0.1500; stroke-opacity:1; 
stroke-linecap:round; stroke-linejoin:round;">
<path d="M10.0000 60.0000
L12.0000 60.0000
" />
</g>
<g style="fill:none; 
stroke:#000000; stroke-width:0.1500; stroke-opacity:1; 
stroke-linecap:round; stroke-linejoin:round;">
<path d="M10.0000 110.0000
L12.0000 110.0000
" />
</g>
<g style="fill:none; 
stroke:#000000; stroke-width:0.1500; stroke-opacity:1; 
stroke-linecap:round; stroke-linejoin:round;">
<path d="M10.0000 160.0000
L12.0000 160.0000
" />
</g>
<g style="fill:none; 
stroke:#000000; stroke-width:0.1500; stroke-opacity:1; 
stroke-linecap:round; stroke-linejoin:round;">
<text x="11.0000" y="35.6500"
textLength="1.3043" font-size="1.7333" lengthAdjust="spacingAndGlyphs"
text-anchor="middle" opacity="0" stroke-opacity="0">A</text>
<g class="stroked-text"><desc>A</desc>
<path d="M10.6905 35.2222
L11.3095 35.2222
" />
<path d="M10.5667 35.5936
L11.0000 34.2936
" />
<path d="M11.0000 34.2936
L11.4333 35.5936
" />
</g></g>
<g style="fill:none; 
stroke:#000000; stroke-width:0.1500; stroke-opacity:1; 
stroke-linecap:round; stroke-linejoin:round;">
<text x="11.0000" y="85.6500"
textLength="1.4900" font-size="1.7333" lengthAdjust="spacingAndGlyphs"
text-anchor="middle" opacity="0" stroke-opacity="0">B</text>
<g class="stroked-text"><desc>B</desc>
<path d="M11.0929 84.9127
L11.2786 84.9746
" />
<path d="M11.2786 84.9746
L11.3405 85.0365
" />
<path d="M11.3405 85.0365
L11.4024 85.1603
" />
<path d="M11.4024 85.1603
L11.4024 85.3460
" />
<path d="M11.4024 85.3460
L11.3405 85.4698
" />
<path d="M11.3405 85.4698
L11.2786 85.5317
" />
<path d="M11.2786 85.5317
L11.1548 85.5936
" />
<path d="M11.1548 85.5936
L10.6595 85.5936
" />
<path d="M10.6595 85.5936
L10.6595 84.2936
" />
<path d="M10.6595 84.2936
L11.0929 84.2936
" />
<path d="M11.0929 84.2936
L11.2167 84.3555
" />
<path d="M11.2167 84.3555
L11.2786 84.4174
" />
<path d="M11.2786 84.4174
L11.3405 84.5412
" />
<path d="M11.3405 84.5412
L11.3405 84.6650
" />
<path d="M11.3405 84.6650
L11.2786 84.7888
" />
<path d="M11.2786 84.7888
L11.2167 84.8507
" />
<path d="M11.2167 84.8507
L11.0929 84.9127
" />
<path d="M11.0929 84.9127
L10.6595 84.9127
" />
</g></g>
<g style="fill:none; 
stroke:#000000; stroke-width:0.1500; stroke-opacity:1; 
stroke-linecap:round; stroke-linejoin:round;">
<text x="11.0000" y="135.6500"
textLength="1.4900" font-size="1.7333" lengthAdjust="spacingAndGlyphs"
text-anchor="middle" opacity="0" stroke-opacity="0">C</text>
<g class="stroked-text"><desc>C</desc>
<path d="M11.4024 135.4698
L11.3405 135.5317
" />
<path d="M11.3405 135.5317
L11.1548 135.5936
" />
<path d="M11.1548 135.5936
L11.0310 135.5936
" />
<path d="M11.0310 135.5936
L10.8452 135.5317
" />
<path d="M10.8452 135.5317
L10.7214 135.4079
" />
<path d="M10.7214 135.4079
L10.6595 135.2841
" />
<path d="M10.6595 135.2841
L10.5976 135.0365
" />
<path d="M10.5976 135.0365
L10.5976 134.8507
" />
<path d="M10.5976 134.8507
L10.6595 134.6031
" />
<path d="M10.6595 134.6031
L10.7214 134.4793
" />
<path d="M10.7214 134.4793
L10.8452 134.3555
" />
<path d="M10.8452 134.3555
L11.0310 134.2936
" />
<path d="M11.0310 134.2936
L11.1548 134.2936
" />
<path d="M11.1548 134.2936
L11.3405 134.3555
" />
<path d="M11.3405 134.3555
L11.4024 134.4174
" />
</g></g>
<g style="fill:none; 
stroke:#000000; stroke-width:0.1500; stroke-opacity:1; 
stroke-linecap:round; stroke-linejoin:round;">
<text x="11.0000" y="185.6500"
textLength="1.4900" font-size="1.7333" lengthAdjust="spacingAndGlyphs"
text-anchor="middle" opacity="0" stroke-opacity="0">D</text>
<g class="stroked-text"><desc>D</desc>
<path d="M10.6595 185.5936
L10.6595 184.2936
" />
<path d="M10.6595 184.2936
L10.9690 184.2936
" />
<path d="M10.9690 184.2936
L11.1548 184.3555
" />
<path d="M11.1548 184.3555
L11.2786 184.4793
" />
<path d="M11.2786 184.4793
L11.3405 184.6031
" />
<path d="M11.3405 184.6031
L11.4024 184.8507
" />
<path d="M11.4024 184.8507
L11.4024 185.0365
" />
<path d="M11.4024 185.0365
L11.3405 185.2841
" />
<path d="M11.3405 185.2841
L11.2786 185.4079
" />
<path d="M11.2786 185.4079
L11.1548 185.5317
" />
<path d="M11.1548 185.5317
L10.9690 185.5936
" />
<path d="M10.9690 185.5936
L10.6595 185.5936
" />
</g></g>
<g style="fill:none; 
stroke:#000000; stroke-width:0.1500; stroke-opacity:1; 
stroke-linecap:round; stroke-linejoin:round;">
<path d="M287.0022 60.0000
L285.0022 60.0000
" />
</g>
<g style="fill:none; 
stroke:#000000; stroke-width:0.1500; stroke-opacity:1; 
stroke-linecap:round; stroke-linejoin:round;">
<path d="M287.0022 110.0000
L285.0022 110.0000
" />
</g>
<g style="fill:none; 
stroke:#000000; stroke-width:0.1500; stroke-opacity:1; 
stroke-linecap:round; stroke-linejoin:round;">
<path d="M287.0022 160.0000
L285.0022 160.0000
" />
</g>
<g style="fill:none; 
stroke:#000000; stroke-width:0.1500; stroke-opacity:1; 
stroke-linecap:round; stroke-linejoin:round;">
<text x="286.0022" y="35.6500"
textLength="1.3043" font-size="1.7333" lengthAdjust="spacingAndGlyphs"
text-anchor="middle" opacity="0" stroke-opacity="0">A</text>
<g class="stroked-text"><desc>A</desc>
<path d="M285.6927 35.2222
L286.3117 35.2222
" />
<path d="M285.5689 35.5936
L286.0022 34.2936
" />
<path d="M286.0022 34.2936
L286.4355 35.5936
" />
</g></g>
<g style="fill:none; 
stroke:#000000; stroke-width:0.1500; stroke-opacity:1; 
stroke-linecap:round; stroke-linejoin:round;">
<text x="286.0022" y="85.6500"
textLength="1.4900" font-size="1.7333" lengthAdjust="spacingAndGlyphs"
text-anchor="middle" opacity="0" stroke-opacity="0">B</text>
<g class="stroked-text"><desc>B</desc>
<path d="M286.0951 84.9127
L286.2808 84.9746
" />
<path d="M286.2808 84.9746
L286.3427 85.0365
" />
<path d="M286.3427 85.0365
L286.4046 85.1603
" />
<path d="M286.4046 85.1603
L286.4046 85.3460
" />
<path d="M286.4046 85.3460
L286.3427 85.4698
" />
<path d="M286.3427 85.4698
L286.2808 85.5317
" />
<path d="M286.2808 85.5317
L286.1570 85.5936
" />
<path d="M286.1570 85.5936
L285.6617 85.5936
" />
<path d="M285.6617 85.5936
L285.6617 84.2936
" />
<path d="M285.6617 84.2936
L286.0951 84.2936
" />
<path d="M286.0951 84.2936
L286.2189 84.3555
" />
<path d="M286.2189 84.3555
L286.2808 84.4174
" />
<path d="M286.2808 84.4174
L286.3427 84.5412
" />
<path d="M286.3427 84.5412
L286.3427 84.6650
" />
<path d="M286.3427 84.6650
L286.2808 84.7888
" />
<path d="M286.2808 84.7888
L286.2189 84.8507
" />
<path d="M286.2189 84.8507
L286.0951 84.9127
" />
<path d="M286.0951 84.9127
L285.6617 84.9127
" />
</g></g>
<g style="fill:none; 
stroke:#000000; stroke-width:0.1500; stroke-opacity:1; 
stroke-linecap:round; stroke-linejoin:round;">
<text x="286.0022" y="135.6500"
textLength="1.4900" font-size="1.7333" lengthAdjust="spacingAndGlyphs"
text-anchor="middle" opacity="0" stroke-opacity="0">C</text>
<g class="stroked-text"><desc>C</desc>
<path d="M286.4046 135.4698
L286.3427 135.5317
" />
<path d="M286.3427 135.5317
L286.1570 135.5936
" />
<path d="M286.1570 135.5936
L286.0332 135.5936
" />
<path d="M286.0332 135.5936
L285.8474 135.5317
" />
<path d="M285.8474 135.5317
L285.7236 135.4079
" />
<path d="M285.7236 135.4079
L285.6617 135.2841
" />
<path d="M285.6617 135.2841
L285.5998 135.0365
" />
<path d="M285.5998 135.0365
L285.5998 134.8507
" />
<path d="M285.5998 134.8507
L285.6617 134.6031
" />
<path d="M285.6617 134.6031
L285.7236 134.4793
" />
<path d="M285.7236 134.4793
L285.8474 134.3555
" />
<path d="M285.8474 134.3555
L286.0332 134.2936
" />
<path d="M286.0332 134.2936
L286.1570 134.2936
" />
<path d="M286.1570 134.2936
L286.3427 134.3555
" />
<path d="M286.3427 134.3555
L286.4046 134.4174
" />
</g></g>
<g style="fill:none; 
stroke:#000000; stroke-width:0.1500; stroke-opacity:1; 
stroke-linecap:round; stroke-linejoin:round;">
<text x="286.0022" y="185.6500"
textLength="1.4900" font-size="1.7333" lengthAdjust="spacingAndGlyphs"
text-anchor="middle" opacity="0" stroke-opacity="0">D</text>
<g class="stroked-text"><desc>D</desc>
<path d="M285.6617 185.5936
L285.6617 184.2936
" />
<path d="M285.6617 184.2936
L285.9712 184.2936
" />
<path d="M285.9712 184.2936
L286.1570 184.3555
" />
<path d="M286.1570 184.3555
L286.2808 184.4793
" />
<path d="M286.2808 184.4793
L286.3427 184.6031
" />
<path d="M286.3427 184.6031
L286.4046 184.8507
" />
<path d="M286.4046 184.8507
L286.4046 185.0365
" />
<path d="M286.4046 185.0365
L286.3427 185.2841
" />
<path d="M286.3427 185.2841
L286.2808 185.4079
" />
<path d="M286.2808 185.4079
L286.1570 185.5317
" />
<path d="M286.1570 185.5317
L285.9712 185.5936
" />
<path d="M285.9712 185.5936
L285.6617 185.5936
" />
</g></g>
<g style="fill:none; 
stroke:#000000; stroke-width:0.1500; stroke-opacity:1; 
stroke-linecap:round; stroke-linejoin:round;">
<text x="200.0022" y="193.8572"
textLength="7.0071" font-size="2.0000" lengthAdjust="spacingAndGlyphs"
text-anchor="start" opacity="0" stroke-opacity="0">Date: </text>
<g class="stroked-text"><desc>Date: </desc>
<path d="M200.4580 193.7933
L200.4580 192.2933
" />
<path d="M200.4580 192.2933
L200.8152 192.2933
" />
<path d="M200.8152 192.2933
L201.0295 192.3648
" />
<path d="M201.0295 192.3648
L201.1723 192.5076
" />
<path d="M201.1723 192.5076
L201.2437 192.6505
" />
<path d="M201.2437 192.6505
L201.3152 192.9362
" />
<path d="M201.3152 192.9362
L201.3152 193.1505
" />
<path d="M201.3152 193.1505
L201.2437 193.4362
" />
<path d="M201.2437 193.4362
L201.1723 193.5790
" />
<path d="M201.1723 193.5790
L201.0295 193.7219
" />
<path d="M201.0295 193.7219
L200.8152 193.7933
" />
<path d="M200.8152 193.7933
L200.4580 193.7933
" />
<path d="M202.6009 193.7933
L202.6009 193.0076
" />
<path d="M202.6009 193.0076
L202.5295 192.8648
" />
<path d="M202.5295 192.8648
L202.3866 192.7933
" />
<path d="M202.3866 192.7933
L202.1009 192.7933
" />
<path d="M202.1009 192.7933
L201.9580 192.8648
" />
<path d="M202.6009 193.7219
L202.4580 193.7933
" />
<path d="M202.4580 193.7933
L202.1009 193.7933
" />
<path d="M202.1009 193.7933
L201.9580 193.7219
" />
<path d="M201.9580 193.7219
L201.8866 193.5790
" />
<path d="M201.8866 193.5790
L201.8866 193.4362
" />
<path d="M201.8866 193.4362
L201.9580 193.2933
" />
<path d="M201.9580 193.2933
L202.1009 193.2219
" />
<path d="M202.1009 193.2219
L202.4580 193.2219
" />
<path d="M202.4580 193.2219
L202.6009 193.1505
" />
<path d="M203.1009 192.7933
L203.6723 192.7933
" />
<path d="M203.3152 192.2933
L203.3152 193.5790
" />
<path d="M203.3152 193.5790
L203.3866 193.7219
" />
<path d="M203.3866 193.7219
L203.5295 193.7933
" />
<path d="M203.5295 193.7933
L203.6723 193.7933
" />
<path d="M204.7437 193.7219
L204.6009 193.7933
" />
<path d="M204.6009 193.7933
L204.3152 193.7933
" />
<path d="M204.3152 193.7933
L204.1723 193.7219
" />
<path d="M204.1723 193.7219
L204.1009 193.5790
" />
<path d="M204.1009 193.5790
L204.1009 193.0076
" />
<path d="M204.1009 193.0076
L204.1723 192.8648
" />
<path d="M204.1723 192.8648
L204.3152 192.7933
" />
<path d="M204.3152 192.7933
L204.6009 192.7933
" />
<path d="M204.6009 192.7933
L204.7437 192.8648
" />
<path d="M204.7437 192.8648
L204.8152 193.0076
" />
<path d="M204.8152 193.0076
L204.8152 193.1505
" />
<path d="M204.8152 193.1505
L204.1009 193.2933
" />
<path d="M205.4580 193.6505
L205.5295 193.7219
" />
<path d="M205.5295 193.7219
L205.4580 193.7933
" />
<path d="M205.4580 193.7933
L205.3866 193.7219
" />
<path d="M205.3866 193.7219
L205.4580 193.6505
" />
<path d="M205.4580 193.6505
L205.4580 193.7933
" />
<path d="M205.4580 192.8648
L205.5295 192.9362
" />
<path d="M205.5295 192.9362
L205.4580 193.0076
" />
<path d="M205.4580 193.0076
L205.3866 192.9362
" />
<path d="M205.3866 192.9362
L205.4580 192.8648
" />
<path d="M205.4580 192.8648
L205.4580 193.0076
" />
</g></g>
<g style="fill:none; 
stroke:#000000; stroke-width:0.1500; stroke-opacity:1; 
stroke-linecap:round; stroke-linejoin:round;">
<path d="M177.0022 194.5072
L285.0022 194.5072
" />
</g>
<g style="fill:none; 
stroke:#000000; stroke-width:0.1500; stroke-opacity:1; 
stroke-linecap:round; stroke-linejoin:round;">
<text x="178.0022" y="196.6572"
textLength="20.8643" font-size="2.0000" lengthAdjust="spacingAndGlyphs"
text-anchor="start" opacity="0" stroke-opacity="0">KiCad E.D.A. 8.0.5</text>
<g class="stroked-text"><desc>KiCad E.D.A. 8.0.5</desc>
<path d="M178.4580 196.5933
L178.4580 195.0933
" />
<path d="M179.3152 196.5933
L178.6723 195.7362
" />
<path d="M179.3152 195.0933
L178.4580 195.9505
" />
<path d="M179.9580 196.5933
L179.9580 195.5933
" />
<path d="M179.9580 195.0933
L179.8866 195.1648
" />
<path d="M179.8866 195.1648
L179.9580 195.2362
" />
<path d="M179.9580 195.2362
L180.0295 195.1648
" />
<path d="M180.0295 195.1648
L179.9580 195.0933
" />
<path d="M179.9580 195.0933
L179.9580 195.2362
" />
<path d="M181.5295 196.4505
L181.4580 196.5219
" />
<path d="M181.4580 196.5219
L181.2437 196.5933
" />
<path d="M181.2437 196.5933
L181.1009 196.5933
" />
<path d="M181.1009 196.5933
L180.8866 196.5219
" />
<path d="M180.8866 196.5219
L180.7437 196.3790
" />
<path d="M180.7437 196.3790
L180.6723 196.2362
" />
<path d="M180.6723 196.2362
L180.6009 195.9505
" />
<path d="M180.6009 195.9505
L180.6009 195.7362
" />
<path d="M180.6009 195.7362
L180.6723 195.4505
" />
<path d="M180.6723 195.4505
L180.7437 195.3076
" />
<path d="M180.7437 195.3076
L180.8866 195.1648
" />
<path d="M180.8866 195.1648
L181.1009 195.0933
" />
<path d="M181.1009 195.0933
L181.2437 195.0933
" />
<path d="M181.2437 195.0933
L181.4580 195.1648
" />
<path d="M181.4580 195.1648
L181.5295 195.2362
" />
<path d="M182.8152 196.5933
L182.8152 195.8076
" />
<path d="M182.8152 195.8076
L182.7437 195.6648
" />
<path d="M182.7437 195.6648
L182.6009 195.5933
" />
<path d="M182.6009 195.5933
L182.3152 195.5933
" />
<path d="M182.3152 195.5933
L182.1723 195.6648
" />
<path d="M182.8152 196.5219
L182.6723 196.5933
" />
<path d="M182.6723 196.5933
L182.3152 196.5933
" />
<path d="M182.3152 196.5933
L182.1723 196.5219
" />
<path d="M182.1723 196.5219
L182.1009 196.3790
" />
<path d="M182.1009 196.3790
L182.1009 196.2362
" />
<path d="M182.1009 196.2362
L182.1723 196.0933
" />
<path d="M182.1723 196.0933
L182.3152 196.0219
" />
<path d="M182.3152 196.0219
L182.6723 196.0219
" />
<path d="M182.6723 196.0219
L182.8152 195.9505
" />
<path d="M184.1723 196.5933
L184.1723 195.0933
" />
<path d="M184.1723 196.5219
L184.0295 196.5933
" />
<path d="M184.0295 196.5933
L183.7437 196.5933
" />
<path d="M183.7437 196.5933
L183.6009 196.5219
" />
<path d="M183.6009 196.5219
L183.5295 196.4505
" />
<path d="M183.5295 196.4505
L183.4580 196.3076
" />
<path d="M183.4580 196.3076
L183.4580 195.8790
" />
<path d="M183.4580 195.8790
L183.5295 195.7362
" />
<path d="M183.5295 195.7362
L183.6009 195.6648
" />
<path d="M183.6009 195.6648
L183.7437 195.5933
" />
<path d="M183.7437 195.5933
L184.0295 195.5933
" />
<path d="M184.0295 195.5933
L184.1723 195.6648
" />
<path d="M186.0295 195.8076
L186.5295 195.8076
" />
<path d="M186.7437 196.5933
L186.0295 196.5933
" />
<path d="M186.0295 196.5933
L186.0295 195.0933
" />
<path d="M186.0295 195.0933
L186.7437 195.0933
" />
<path d="M187.3866 196.4505
L187.4580 196.5219
" />
<path d="M187.4580 196.5219
L187.3866 196.5933
" />
<path d="M187.3866 196.5933
L187.3152 196.5219
" />
<path d="M187.3152 196.5219
L187.3866 196.4505
" />
<path d="M187.3866 196.4505
L187.3866 196.5933
" />
<path d="M188.1009 196.5933
L188.1009 195.0933
" />
<path d="M188.1009 195.0933
L188.4580 195.0933
" />
<path d="M188.4580 195.0933
L188.6723 195.1648
" />
<path d="M188.6723 195.1648
L188.8152 195.3076
" />
<path d="M188.8152 195.3076
L188.8866 195.4505
" />
<path d="M188.8866 195.4505
L188.9580 195.7362
" />
<path d="M188.9580 195.7362
L188.9580 195.9505
" />
<path d="M188.9580 195.9505
L188.8866 196.2362
" />
<path d="M188.8866 196.2362
L188.8152 196.3790
" />
<path d="M188.8152 196.3790
L188.6723 196.5219
" />
<path d="M188.6723 196.5219
L188.4580 196.5933
" />
<path d="M188.4580 196.5933
L188.1009 196.5933
" />
<path d="M189.6009 196.4505
L189.6723 196.5219
" />
<path d="M189.6723 196.5219
L189.6009 196.5933
" />
<path d="M189.6009 196.5933
L189.5295 196.5219
" />
<path d="M189.5295 196.5219
L189.6009 196.4505
" />
<path d="M189.6009 196.4505
L189.6009 196.5933
" />
<path d="M190.2437 196.1648
L190.9580 196.1648
" />
<path d="M190.1009 196.5933
L190.6009 195.0933
" />
<path d="M190.6009 195.0933
L191.1009 196.5933
" />
<path d="M191.6009 196.4505
L191.6723 196.5219
" />
<path d="M191.6723 196.5219
L191.6009 196.5933
" />
<path d="M191.6009 196.5933
L191.5295 196.5219
" />
<path d="M191.5295 196.5219
L191.6009 196.4505
" />
<path d="M191.6009 196.4505
L191.6009 196.5933
" />
<path d="M193.6723 195.7362
L193.5295 195.6648
" />
<path d="M193.5295 195.6648
L193.4580 195.5933
" />
<path d="M193.4580 195.5933
L193.3866 195.4505
" />
<path d="M193.3866 195.4505
L193.3866 195.3790
" />
<path d="M193.3866 195.3790
L193.4580 195.2362
" />
<path d="M193.4580 195.2362
L193.5295 195.1648
" />
<path d="M193.5295 195.1648
L193.6723 195.0933
" />
<path d="M193.6723 195.0933
L193.9580 195.0933
" />
<path d="M193.9580 195.0933
L194.1009 195.1648
" />
<path d="M194.1009 195.1648
L194.1723 195.2362
" />
<path d="M194.1723 195.2362
L194.2437 195.3790
" />
<path d="M194.2437 195.3790
L194.2437 195.4505
" />
<path d="M194.2437 195.4505
L194.1723 195.5933
" />
<path d="M194.1723 195.5933
L194.1009 195.6648
" />
<path d="M194.1009 195.6648
L193.9580 195.7362
" />
<path d="M193.9580 195.7362
L193.6723 195.7362
" />
<path d="M193.6723 195.7362
L193.5295 195.8076
" />
<path d="M193.5295 195.8076
L193.4580 195.8790
" />
<path d="M193.4580 195.8790
L193.3866 196.0219
" />
<path d="M193.3866 196.0219
L193.3866 196.3076
" />
<path d="M193.3866 196.3076
L193.4580 196.4505
" />
<path d="M193.4580 196.4505
L193.5295 196.5219
" />
<path d="M193.5295 196.5219
L193.6723 196.5933
" />
<path d="M193.6723 196.5933
L193.9580 196.5933
" />
<path d="M193.9580 196.5933
L194.1009 196.5219
" />
<path d="M194.1009 196.5219
L194.1723 196.4505
" />
<path d="M194.1723 196.4505
L194.2437 196.3076
" />
<path d="M194.2437 196.3076
L194.2437 196.0219
" />
<path d="M194.2437 196.0219
L194.1723 195.8790
" />
<path d="M194.1723 195.8790
L194.1009 195.8076
" />
<path d="M194.1009 195.8076
L193.9580 195.7362
" />
<path d="M194.8866 196.4505
L194.9580 196.5219
" />
<path d="M194.9580 196.5219
L194.8866 196.5933
" />
<path d="M194.8866 196.5933
L194.8152 196.5219
" />
<path d="M194.8152 196.5219
L194.8866 196.4505
" />
<path d="M194.8866 196.4505
L194.8866 196.5933
" />
<path d="M195.8866 195.0933
L196.0295 195.0933
" />
<path d="M196.0295 195.0933
L196.1723 195.1648
" />
<path d="M196.1723 195.1648
L196.2437 195.2362
" />
<path d="M196.2437 195.2362
L196.3152 195.3790
" />
<path d="M196.3152 195.3790
L196.3866 195.6648
" />
<path d="M196.3866 195.6648
L196.3866 196.0219
" />
<path d="M196.3866 196.0219
L196.3152 196.3076
" />
<path d="M196.3152 196.3076
L196.2437 196.4505
" />
<path d="M196.2437 196.4505
L196.1723 196.5219
" />
<path d="M196.1723 196.5219
L196.0295 196.5933
" />
<path d="M196.0295 196.5933
L195.8866 196.5933
" />
<path d="M195.8866 196.5933
L195.7437 196.5219
" />
<path d="M195.7437 196.5219
L195.6723 196.4505
" />
<path d="M195.6723 196.4505
L195.6009 196.3076
" />
<path d="M195.6009 196.3076
L195.5295 196.0219
" />
<path d="M195.5295 196.0219
L195.5295 195.6648
" />
<path d="M195.5295 195.6648
L195.6009 195.3790
" />
<path d="M195.6009 195.3790
L195.6723 195.2362
" />
<path d="M195.6723 195.2362
L195.7437 195.1648
" />
<path d="M195.7437 195.1648
L195.8866 195.0933
" />
<path d="M197.0295 196.4505
L197.1009 196.5219
" />
<path d="M197.1009 196.5219
L197.0295 196.5933
" />
<path d="M197.0295 196.5933
L196.9580 196.5219
" />
<path d="M196.9580 196.5219
L197.0295 196.4505
" />
<path d="M197.0295 196.4505
L197.0295 196.5933
" />
<path d="M198.4580 195.0933
L197.7437 195.0933
" />
<path d="M197.7437 195.0933
L197.6723 195.8076
" />
<path d="M197.6723 195.8076
L197.7437 195.7362
" />
<path d="M197.7437 195.7362
L197.8866 195.6648
" />
<path d="M197.8866 195.6648
L198.2437 195.6648
" />
<path d="M198.2437 195.6648
L198.3866 195.7362
" />
<path d="M198.3866 195.7362
L198.4580 195.8076
" />
<path d="M198.4580 195.8076
L198.5295 195.9505
" />
<path d="M198.5295 195.9505
L198.5295 196.3076
" />
<path d="M198.5295 196.3076
L198.4580 196.4505
" />
<path d="M198.4580 196.4505
L198.3866 196.5219
" />
<path d="M198.3866 196.5219
L198.2437 196.5933
" />
<path d="M198.2437 196.5933
L197.8866 196.5933
" />
<path d="M197.8866 196.5933
L197.7437 196.5219
" />
<path d="M197.7437 196.5219
L197.6723 196.4505
" />
</g></g>
<g style="fill:none; 
stroke:#000000; stroke-width:0.1500; stroke-opacity:1; 
stroke-linecap:round; stroke-linejoin:round;">
<path d="M177.0022 191.5072
L285.0022 191.5072
" />
</g>
<g style="fill:none; 
stroke:#000000; stroke-width:0.3000; stroke-opacity:1; 
stroke-linecap:round; stroke-linejoin:round;">
<text x="263.0022" y="193.8572"
textLength="6.3857" font-size="2.0000" lengthAdjust="spacingAndGlyphs"
text-anchor="start" opacity="0" stroke-opacity="0">Rev: </text>
<g class="stroked-text"><desc>Rev: </desc>
<path d="M264.4139 193.7855
L263.9139 193.0712
" />
<path d="M263.5567 193.7855
L263.5567 192.2855
" />
<path d="M263.5567 192.2855
L264.1281 192.2855
" />
<path d="M264.1281 192.2855
L264.2710 192.3570
" />
<path d="M264.2710 192.3570
L264.3424 192.4284
" />
<path d="M264.3424 192.4284
L264.4139 192.5712
" />
<path d="M264.4139 192.5712
L264.4139 192.7855
" />
<path d="M264.4139 192.7855
L264.3424 192.9284
" />
<path d="M264.3424 192.9284
L264.2710 192.9998
" />
<path d="M264.2710 192.9998
L264.1281 193.0712
" />
<path d="M264.1281 193.0712
L263.5567 193.0712
" />
<path d="M265.6281 193.7141
L265.4853 193.7855
" />
<path d="M265.4853 193.7855
L265.1996 193.7855
" />
<path d="M265.1996 193.7855
L265.0567 193.7141
" />
<path d="M265.0567 193.7141
L264.9853 193.5712
" />
<path d="M264.9853 193.5712
L264.9853 192.9998
" />
<path d="M264.9853 192.9998
L265.0567 192.8570
" />
<path d="M265.0567 192.8570
L265.1996 192.7855
" />
<path d="M265.1996 192.7855
L265.4853 192.7855
" />
<path d="M265.4853 192.7855
L265.6281 192.8570
" />
<path d="M265.6281 192.8570
L265.6996 192.9998
" />
<path d="M265.6996 192.9998
L265.6996 193.1427
" />
<path d="M265.6996 193.1427
L264.9853 193.2855
" />
<path d="M266.1996 192.7855
L266.5567 193.7855
" />
<path d="M266.5567 193.7855
L266.9139 192.7855
" />
<path d="M267.4853 193.6427
L267.5567 193.7141
" />
<path d="M267.5567 193.7141
L267.4853 193.7855
" />
<path d="M267.4853 193.7855
L267.4139 193.7141
" />
<path d="M267.4139 193.7141
L267.4853 193.6427
" />
<path d="M267.4853 193.6427
L267.4853 193.7855
" />
<path d="M267.4853 192.8570
L267.5567 192.9284
" />
<path d="M267.5567 192.9284
L267.4853 192.9998
" />
<path d="M267.4853 192.9998
L267.4139 192.9284
" />
<path d="M267.4139 192.9284
L267.4853 192.8570
" />
<path d="M267.4853 192.8570
L267.4853 192.9998
" />
</g></g>
<g style="fill:none; 
stroke:#000000; stroke-width:0.1500; stroke-opacity:1; 
stroke-linecap:round; stroke-linejoin:round;">
<text x="178.0022" y="193.8572"
textLength="9.3643" font-size="2.0000" lengthAdjust="spacingAndGlyphs"
text-anchor="start" opacity="0" stroke-opacity="0">Size: A4</text>
<g class="stroked-text"><desc>Size: A4</desc>
<path d="M178.3866 193.7219
L178.6009 193.7933
" />
<path d="M178.6009 193.7933
L178.9580 193.7933
" />
<path d="M178.9580 193.7933
L179.1009 193.7219
" />
<path d="M179.1009 193.7219
L179.1723 193.6505
" />
<path d="M179.1723 193.6505
L179.2437 193.5076
" />
<path d="M179.2437 193.5076
L179.2437 193.3648
" />
<path d="M179.2437 193.3648
L179.1723 193.2219
" />
<path d="M179.1723 193.2219
L179.1009 193.1505
" />
<path d="M179.1009 193.1505
L178.9580 193.0790
" />
<path d="M178.9580 193.0790
L178.6723 193.0076
" />
<path d="M178.6723 193.0076
L178.5295 192.9362
" />
<path d="M178.5295 192.9362
L178.4580 192.8648
" />
<path d="M178.4580 192.8648
L178.3866 192.7219
" />
<path d="M178.3866 192.7219
L178.3866 192.5790
" />
<path d="M178.3866 192.5790
L178.4580 192.4362
" />
<path d="M178.4580 192.4362
L178.5295 192.3648
" />
<path d="M178.5295 192.3648
L178.6723 192.2933
" />
<path d="M178.6723 192.2933
L179.0295 192.2933
" />
<path d="M179.0295 192.2933
L179.2437 192.3648
" />
<path d="M179.8866 193.7933
L179.8866 192.7933
" />
<path d="M179.8866 192.2933
L179.8152 192.3648
" />
<path d="M179.8152 192.3648
L179.8866 192.4362
" />
<path d="M179.8866 192.4362
L179.9580 192.3648
" />
<path d="M179.9580 192.3648
L179.8866 192.2933
" />
<path d="M179.8866 192.2933
L179.8866 192.4362
" />
<path d="M180.4580 192.7933
L181.2437 192.7933
" />
<path d="M181.2437 192.7933
L180.4580 193.7933
" />
<path d="M180.4580 193.7933
L181.2437 193.7933
" />
<path d="M182.3866 193.7219
L182.2437 193.7933
" />
<path d="M182.2437 193.7933
L181.9580 193.7933
" />
<path d="M181.9580 193.7933
L181.8152 193.7219
" />
<path d="M181.8152 193.7219
L181.7437 193.5790
" />
<path d="M181.7437 193.5790
L181.7437 193.0076
" />
<path d="M181.7437 193.0076
L181.8152 192.8648
" />
<path d="M181.8152 192.8648
L181.9580 192.7933
" />
<path d="M181.9580 192.7933
L182.2437 192.7933
" />
<path d="M182.2437 192.7933
L182.3866 192.8648
" />
<path d="M182.3866 192.8648
L182.4580 193.0076
" />
<path d="M182.4580 193.0076
L182.4580 193.1505
" />
<path d="M182.4580 193.1505
L181.7437 193.2933
" />
<path d="M183.1009 193.6505
L183.1723 193.7219
" />
<path d="M183.1723 193.7219
L183.1009 193.7933
" />
<path d="M183.1009 193.7933
L183.0295 193.7219
" />
<path d="M183.0295 193.7219
L183.1009 193.6505
" />
<path d="M183.1009 193.6505
L183.1009 193.7933
" />
<path d="M183.1009 192.8648
L183.1723 192.9362
" />
<path d="M183.1723 192.9362
L183.1009 193.0076
" />
<path d="M183.1009 193.0076
L183.0295 192.9362
" />
<path d="M183.0295 192.9362
L183.1009 192.8648
" />
<path d="M183.1009 192.8648
L183.1009 193.0076
" />
<path d="M184.8866 193.3648
L185.6009 193.3648
" />
<path d="M184.7437 193.7933
L185.2437 192.2933
" />
<path d="M185.2437 192.2933
L185.7437 193.7933
" />
<path d="M186.8866 192.7933
L186.8866 193.7933
" />
<path d="M186.5295 192.2219
L186.1723 193.2933
" />
<path d="M186.1723 193.2933
L187.1009 193.2933
" />
</g></g>
<g style="fill:none; 
stroke:#000000; stroke-width:0.1500; stroke-opacity:1; 
stroke-linecap:round; stroke-linejoin:round;">
<text x="263.0022" y="196.6572"
textLength="8.5071" font-size="2.0000" lengthAdjust="spacingAndGlyphs"
text-anchor="start" opacity="0" stroke-opacity="0">Id: 1/1</text>
<g class="stroked-text"><desc>Id: 1/1</desc>
<path d="M263.4580 196.5933
L263.4580 195.0933
" />
<path d="M264.8152 196.5933
L264.8152 195.0933
" />
<path d="M264.8152 196.5219
L264.6723 196.5933
" />
<path d="M264.6723 196.5933
L264.3866 196.5933
" />
<path d="M264.3866 196.5933
L264.2437 196.5219
" />
<path d="M264.2437 196.5219
L264.1723 196.4505
" />
<path d="M264.1723 196.4505
L264.1009 196.3076
" />
<path d="M264.1009 196.3076
L264.1009 195.8790
" />
<path d="M264.1009 195.8790
L264.1723 195.7362
" />
<path d="M264.1723 195.7362
L264.2437 195.6648
" />
<path d="M264.2437 195.6648
L264.3866 195.5933
" />
<path d="M264.3866 195.5933
L264.6723 195.5933
" />
<path d="M264.6723 195.5933
L264.8152 195.6648
" />
<path d="M265.5295 196.4505
L265.6009 196.5219
" />
<path d="M265.6009 196.5219
L265.5295 196.5933
" />
<path d="M265.5295 196.5933
L265.4580 196.5219
" />
<path d="M265.4580 196.5219
L265.5295 196.4505
" />
<path d="M265.5295 196.4505
L265.5295 196.5933
" />
<path d="M265.5295 195.6648
L265.6009 195.7362
" />
<path d="M265.6009 195.7362
L265.5295 195.8076
" />
<path d="M265.5295 195.8076
L265.4580 195.7362
" />
<path d="M265.4580 195.7362
L265.5295 195.6648
" />
<path d="M265.5295 195.6648
L265.5295 195.8076
" />
<path d="M268.1723 196.5933
L267.3152 196.5933
" />
<path d="M267.7437 196.5933
L267.7437 195.0933
" />
<path d="M267.7437 195.0933
L267.6009 195.3076
" />
<path d="M267.6009 195.3076
L267.4580 195.4505
" />
<path d="M267.4580 195.4505
L267.3152 195.5219
" />
<path d="M269.8866 195.0219
L268.6009 196.9505
" />
<path d="M271.1723 196.5933
L270.3152 196.5933
" />
<path d="M270.7437 196.5933
L270.7437 195.0933
" />
<path d="M270.7437 195.0933
L270.6009 195.3076
" />
<path d="M270.6009 195.3076
L270.4580 195.4505
" />
<path d="M270.4580 195.4505
L270.3152 195.5219
" />
</g></g>
<g style="fill:none; 
stroke:#000000; stroke-width:0.1500; stroke-opacity:1; 
stroke-linecap:round; stroke-linejoin:round;">
<path d="M177.0022 187.5072
L285.0022 187.5072
" />
</g>
<g style="fill:none; 
stroke:#000000; stroke-width:0.4000; stroke-opacity:1; 
stroke-linecap:round; stroke-linejoin:round;">
<text x="178.0022" y="190.3072"
textLength="9.6571" font-size="2.6667" lengthAdjust="spacingAndGlyphs"
text-anchor="start" opacity="0" stroke-opacity="0">Title: </text>
<g class="stroked-text"><desc>Title: </desc>
<path d="M178.6939 188.2116
L179.8368 188.2116
" />
<path d="M179.0154 190.2116
L179.2654 188.2116
" />
<path d="M180.2535 190.2116
L180.4201 188.8783
" />
<path d="M180.5035 188.2116
L180.3963 188.3069
" />
<path d="M180.3963 188.3069
L180.4796 188.4021
" />
<path d="M180.4796 188.4021
L180.5868 188.3069
" />
<path d="M180.5868 188.3069
L180.5035 188.2116
" />
<path d="M180.5035 188.2116
L180.4796 188.4021
" />
<path d="M181.0868 188.8783
L181.8487 188.8783
" />
<path d="M181.4558 188.2116
L181.2415 189.9259
" />
<path d="M181.2415 189.9259
L181.3130 190.1164
" />
<path d="M181.3130 190.1164
L181.4915 190.2116
" />
<path d="M181.4915 190.2116
L181.6820 190.2116
" />
<path d="M182.6344 190.2116
L182.4558 190.1164
" />
<path d="M182.4558 190.1164
L182.3844 189.9259
" />
<path d="M182.3844 189.9259
L182.5987 188.2116
" />
<path d="M184.1701 190.1164
L183.9677 190.2116
" />
<path d="M183.9677 190.2116
L183.5868 190.2116
" />
<path d="M183.5868 190.2116
L183.4082 190.1164
" />
<path d="M183.4082 190.1164
L183.3368 189.9259
" />
<path d="M183.3368 189.9259
L183.4320 189.1640
" />
<path d="M183.4320 189.1640
L183.5511 188.9735
" />
<path d="M183.5511 188.9735
L183.7535 188.8783
" />
<path d="M183.7535 188.8783
L184.1344 188.8783
" />
<path d="M184.1344 188.8783
L184.3130 188.9735
" />
<path d="M184.3130 188.9735
L184.3844 189.1640
" />
<path d="M184.3844 189.1640
L184.3606 189.3545
" />
<path d="M184.3606 189.3545
L183.3844 189.5450
" />
<path d="M185.1344 190.0212
L185.2177 190.1164
" />
<path d="M185.2177 190.1164
L185.1106 190.2116
" />
<path d="M185.1106 190.2116
L185.0273 190.1164
" />
<path d="M185.0273 190.1164
L185.1344 190.0212
" />
<path d="M185.1344 190.0212
L185.1106 190.2116
" />
<path d="M185.2654 188.9735
L185.3487 189.0688
" />
<path d="M185.3487 189.0688
L185.2415 189.1640
" />
<path d="M185.2415 189.1640
L185.1582 189.0688
" />
<path d="M185.1582 189.0688
L185.2654 188.9735
" />
<path d="M185.2654 188.9735
L185.2415 189.1640
" />
</g></g>
<g style="fill:none; 
stroke:#000000; stroke-width:0.1500; stroke-opacity:1; 
stroke-linecap:round; stroke-linejoin:round;">
<text x="178.0022" y="186.4572"
textLength="42.5071" font-size="2.0000" lengthAdjust="spacingAndGlyphs"
text-anchor="start" opacity="0" stroke-opacity="0">File: EL6170_Pro_Max_Plus.kicad_pcb</text>
<g class="stroked-text"><desc>File: EL6170_Pro_Max_Plus.kicad_pcb</desc>
<path d="M178.9580 185.6076
L178.4580 185.6076
" />
<path d="M178.4580 186.3933
L178.4580 184.8933
" />
<path d="M178.4580 184.8933
L179.1723 184.8933
" />
<path d="M179.7437 186.3933
L179.7437 185.3933
" />
<path d="M179.7437 184.8933
L179.6723 184.9648
" />
<path d="M179.6723 184.9648
L179.7437 185.0362
" />
<path d="M179.7437 185.0362
L179.8152 184.9648
" />
<path d="M179.8152 184.9648
L179.7437 184.8933
" />
<path d="M179.7437 184.8933
L179.7437 185.0362
" />
<path d="M180.6723 186.3933
L180.5295 186.3219
" />
<path d="M180.5295 186.3219
L180.4580 186.1790
" />
<path d="M180.4580 186.1790
L180.4580 184.8933
" />
<path d="M181.8152 186.3219
L181.6723 186.3933
" />
<path d="M181.6723 186.3933
L181.3866 186.3933
" />
<path d="M181.3866 186.3933
L181.2437 186.3219
" />
<path d="M181.2437 186.3219
L181.1723 186.1790
" />
<path d="M181.1723 186.1790
L181.1723 185.6076
" />
<path d="M181.1723 185.6076
L181.2437 185.4648
" />
<path d="M181.2437 185.4648
L181.3866 185.3933
" />
<path d="M181.3866 185.3933
L181.6723 185.3933
" />
<path d="M181.6723 185.3933
L181.8152 185.4648
" />
<path d="M181.8152 185.4648
L181.8866 185.6076
" />
<path d="M181.8866 185.6076
L181.8866 185.7505
" />
<path d="M181.8866 185.7505
L181.1723 185.8933
" />
<path d="M182.5295 186.2505
L182.6009 186.3219
" />
<path d="M182.6009 186.3219
L182.5295 186.3933
" />
<path d="M182.5295 186.3933
L182.4580 186.3219
" />
<path d="M182.4580 186.3219
L182.5295 186.2505
" />
<path d="M182.5295 186.2505
L182.5295 186.3933
" />
<path d="M182.5295 185.4648
L182.6009 185.5362
" />
<path d="M182.6009 185.5362
L182.5295 185.6076
" />
<path d="M182.5295 185.6076
L182.4580 185.5362
" />
<path d="M182.4580 185.5362
L182.5295 185.4648
" />
<path d="M182.5295 185.4648
L182.5295 185.6076
" />
<path d="M184.3866 185.6076
L184.8866 185.6076
" />
<path d="M185.1009 186.3933
L184.3866 186.3933
" />
<path d="M184.3866 186.3933
L184.3866 184.8933
" />
<path d="M184.3866 184.8933
L185.1009 184.8933
" />
<path d="M186.4580 186.3933
L185.7437 186.3933
" />
<path d="M185.7437 186.3933
L185.7437 184.8933
" />
<path d="M187.6009 184.8933
L187.3152 184.8933
" />
<path d="M187.3152 184.8933
L187.1723 184.9648
" />
<path d="M187.1723 184.9648
L187.1009 185.0362
" />
<path d="M187.1009 185.0362
L186.9580 185.2505
" />
<path d="M186.9580 185.2505
L186.8866 185.5362
" />
<path d="M186.8866 185.5362
L186.8866 186.1076
" />
<path d="M186.8866 186.1076
L186.9580 186.2505
" />
<path d="M186.9580 186.2505
L187.0295 186.3219
" />
<path d="M187.0295 186.3219
L187.1723 186.3933
" />
<path d="M187.1723 186.3933
L187.4580 186.3933
" />
<path d="M187.4580 186.3933
L187.6009 186.3219
" />
<path d="M187.6009 186.3219
L187.6723 186.2505
" />
<path d="M187.6723 186.2505
L187.7437 186.1076
" />
<path d="M187.7437 186.1076
L187.7437 185.7505
" />
<path d="M187.7437 185.7505
L187.6723 185.6076
" />
<path d="M187.6723 185.6076
L187.6009 185.5362
" />
<path d="M187.6009 185.5362
L187.4580 185.4648
" />
<path d="M187.4580 185.4648
L187.1723 185.4648
" />
<path d="M187.1723 185.4648
L187.0295 185.5362
" />
<path d="M187.0295 185.5362
L186.9580 185.6076
" />
<path d="M186.9580 185.6076
L186.8866 185.7505
" />
<path d="M189.1723 186.3933
L188.3152 186.3933
" />
<path d="M188.7437 186.3933
L188.7437 184.8933
" />
<path d="M188.7437 184.8933
L188.6009 185.1076
" />
<path d="M188.6009 185.1076
L188.4580 185.2505
" />
<path d="M188.4580 185.2505
L188.3152 185.3219
" />
<path d="M189.6723 184.8933
L190.6723 184.8933
" />
<path d="M190.6723 184.8933
L190.0295 186.3933
" />
<path d="M191.5295 184.8933
L191.6723 184.8933
" />
<path d="M191.6723 184.8933
L191.8152 184.9648
" />
<path d="M191.8152 184.9648
L191.8866 185.0362
" />
<path d="M191.8866 185.0362
L191.9580 185.1790
" />
<path d="M191.9580 185.1790
L192.0295 185.4648
" />
<path d="M192.0295 185.4648
L192.0295 185.8219
" />
<path d="M192.0295 185.8219
L191.9580 186.1076
" />
<path d="M191.9580 186.1076
L191.8866 186.2505
" />
<path d="M191.8866 186.2505
L191.8152 186.3219
" />
<path d="M191.8152 186.3219
L191.6723 186.3933
" />
<path d="M191.6723 186.3933
L191.5295 186.3933
" />
<path d="M191.5295 186.3933
L191.3866 186.3219
" />
<path d="M191.3866 186.3219
L191.3152 186.2505
" />
<path d="M191.3152 186.2505
L191.2437 186.1076
" />
<path d="M191.2437 186.1076
L191.1723 185.8219
" />
<path d="M191.1723 185.8219
L191.1723 185.4648
" />
<path d="M191.1723 185.4648
L191.2437 185.1790
" />
<path d="M191.2437 185.1790
L191.3152 185.0362
" />
<path d="M191.3152 185.0362
L191.3866 184.9648
" />
<path d="M191.3866 184.9648
L191.5295 184.8933
" />
<path d="M192.3152 186.5362
L193.4580 186.5362
" />
<path d="M193.8152 186.3933
L193.8152 184.8933
" />
<path d="M193.8152 184.8933
L194.3866 184.8933
" />
<path d="M194.3866 184.8933
L194.5295 184.9648
" />
<path d="M194.5295 184.9648
L194.6009 185.0362
" />
<path d="M194.6009 185.0362
L194.6723 185.1790
" />
<path d="M194.6723 185.1790
L194.6723 185.3933
" />
<path d="M194.6723 185.3933
L194.6009 185.5362
" />
<path d="M194.6009 185.5362
L194.5295 185.6076
" />
<path d="M194.5295 185.6076
L194.3866 185.6790
" />
<path d="M194.3866 185.6790
L193.8152 185.6790
" />
<path d="M195.3152 186.3933
L195.3152 185.3933
" />
<path d="M195.3152 185.6790
L195.3866 185.5362
" />
<path d="M195.3866 185.5362
L195.4580 185.4648
" />
<path d="M195.4580 185.4648
L195.6009 185.3933
" />
<path d="M195.6009 185.3933
L195.7437 185.3933
" />
<path d="M196.4580 186.3933
L196.3152 186.3219
" />
<path d="M196.3152 186.3219
L196.2437 186.2505
" />
<path d="M196.2437 186.2505
L196.1723 186.1076
" />
<path d="M196.1723 186.1076
L196.1723 185.6790
" />
<path d="M196.1723 185.6790
L196.2437 185.5362
" />
<path d="M196.2437 185.5362
L196.3152 185.4648
" />
<path d="M196.3152 185.4648
L196.4580 185.3933
" />
<path d="M196.4580 185.3933
L196.6723 185.3933
" />
<path d="M196.6723 185.3933
L196.8152 185.4648
" />
<path d="M196.8152 185.4648
L196.8866 185.5362
" />
<path d="M196.8866 185.5362
L196.9580 185.6790
" />
<path d="M196.9580 185.6790
L196.9580 186.1076
" />
<path d="M196.9580 186.1076
L196.8866 186.2505
" />
<path d="M196.8866 186.2505
L196.8152 186.3219
" />
<path d="M196.8152 186.3219
L196.6723 186.3933
" />
<path d="M196.6723 186.3933
L196.4580 186.3933
" />
<path d="M197.2437 186.5362
L198.3866 186.5362
" />
<path d="M198.7437 186.3933
L198.7437 184.8933
" />
<path d="M198.7437 184.8933
L199.2437 185.9648
" />
<path d="M199.2437 185.9648
L199.7437 184.8933
" />
<path d="M199.7437 184.8933
L199.7437 186.3933
" />
<path d="M201.1009 186.3933
L201.1009 185.6076
" />
<path d="M201.1009 185.6076
L201.0295 185.4648
" />
<path d="M201.0295 185.4648
L200.8866 185.3933
" />
<path d="M200.8866 185.3933
L200.6009 185.3933
" />
<path d="M200.6009 185.3933
L200.4580 185.4648
" />
<path d="M201.1009 186.3219
L200.9580 186.3933
" />
<path d="M200.9580 186.3933
L200.6009 186.3933
" />
<path d="M200.6009 186.3933
L200.4580 186.3219
" />
<path d="M200.4580 186.3219
L200.3866 186.1790
" />
<path d="M200.3866 186.1790
L200.3866 186.0362
" />
<path d="M200.3866 186.0362
L200.4580 185.8933
" />
<path d="M200.4580 185.8933
L200.6009 185.8219
" />
<path d="M200.6009 185.8219
L200.9580 185.8219
" />
<path d="M200.9580 185.8219
L201.1009 185.7505
" />
<path d="M201.6723 186.3933
L202.4580 185.3933
" />
<path d="M201.6723 185.3933
L202.4580 186.3933
" />
<path d="M202.6723 186.5362
L203.8152 186.5362
" />
<path d="M204.1723 186.3933
L204.1723 184.8933
" />
<path d="M204.1723 184.8933
L204.7437 184.8933
" />
<path d="M204.7437 184.8933
L204.8866 184.9648
" />
<path d="M204.8866 184.9648
L204.9580 185.0362
" />
<path d="M204.9580 185.0362
L205.0295 185.1790
" />
<path d="M205.0295 185.1790
L205.0295 185.3933
" />
<path d="M205.0295 185.3933
L204.9580 185.5362
" />
<path d="M204.9580 185.5362
L204.8866 185.6076
" />
<path d="M204.8866 185.6076
L204.7437 185.6790
" />
<path d="M204.7437 185.6790
L204.1723 185.6790
" />
<path d="M205.8866 186.3933
L205.7437 186.3219
" />
<path d="M205.7437 186.3219
L205.6723 186.1790
" />
<path d="M205.6723 186.1790
L205.6723 184.8933
" />
<path d="M207.1009 185.3933
L207.1009 186.3933
" />
<path d="M206.4580 185.3933
L206.4580 186.1790
" />
<path d="M206.4580 186.1790
L206.5295 186.3219
" />
<path d="M206.5295 186.3219
L206.6723 186.3933
" />
<path d="M206.6723 186.3933
L206.8866 186.3933
" />
<path d="M206.8866 186.3933
L207.0295 186.3219
" />
<path d="M207.0295 186.3219
L207.1009 186.2505
" />
<path d="M207.7437 186.3219
L207.8866 186.3933
" />
<path d="M207.8866 186.3933
L208.1723 186.3933
" />
<path d="M208.1723 186.3933
L208.3152 186.3219
" />
<path d="M208.3152 186.3219
L208.3866 186.1790
" />
<path d="M208.3866 186.1790
L208.3866 186.1076
" />
<path d="M208.3866 186.1076
L208.3152 185.9648
" />
<path d="M208.3152 185.9648
L208.1723 185.8933
" />
<path d="M208.1723 185.8933
L207.9580 185.8933
" />
<path d="M207.9580 185.8933
L207.8152 185.8219
" />
<path d="M207.8152 185.8219
L207.7437 185.6790
" />
<path d="M207.7437 185.6790
L207.7437 185.6076
" />
<path d="M207.7437 185.6076
L207.8152 185.4648
" />
<path d="M207.8152 185.4648
L207.9580 185.3933
" />
<path d="M207.9580 185.3933
L208.1723 185.3933
" />
<path d="M208.1723 185.3933
L208.3152 185.4648
" />
<path d="M209.0295 186.2505
L209.1009 186.3219
" />
<path d="M209.1009 186.3219
L209.0295 186.3933
" />
<path d="M209.0295 186.3933
L208.9580 186.3219
" />
<path d="M208.9580 186.3219
L209.0295 186.2505
" />
<path d="M209.0295 186.2505
L209.0295 186.3933
" />
<path d="M209.7437 186.3933
L209.7437 184.8933
" />
<path d="M209.8866 185.8219
L210.3152 186.3933
" />
<path d="M210.3152 185.3933
L209.7437 185.9648
" />
<path d="M210.9580 186.3933
L210.9580 185.3933
" />
<path d="M210.9580 184.8933
L210.8866 184.9648
" />
<path d="M210.8866 184.9648
L210.9580 185.0362
" />
<path d="M210.9580 185.0362
L211.0295 184.9648
" />
<path d="M211.0295 184.9648
L210.9580 184.8933
" />
<path d="M210.9580 184.8933
L210.9580 185.0362
" />
<path d="M212.3152 186.3219
L212.1723 186.3933
" />
<path d="M212.1723 186.3933
L211.8866 186.3933
" />
<path d="M211.8866 186.3933
L211.7437 186.3219
" />
<path d="M211.7437 186.3219
L211.6723 186.2505
" />
<path d="M211.6723 186.2505
L211.6009 186.1076
" />
<path d="M211.6009 186.1076
L211.6009 185.6790
" />
<path d="M211.6009 185.6790
L211.6723 185.5362
" />
<path d="M211.6723 185.5362
L211.7437 185.4648
" />
<path d="M211.7437 185.4648
L211.8866 185.3933
" />
<path d="M211.8866 185.3933
L212.1723 185.3933
" />
<path d="M212.1723 185.3933
L212.3152 185.4648
" />
<path d="M213.6009 186.3933
L213.6009 185.6076
" />
<path d="M213.6009 185.6076
L213.5295 185.4648
" />
<path d="M213.5295 185.4648
L213.3866 185.3933
" />
<path d="M213.3866 185.3933
L213.1009 185.3933
" />
<path d="M213.1009 185.3933
L212.9580 185.4648
" />
<path d="M213.6009 186.3219
L213.4580 186.3933
" />
<path d="M213.4580 186.3933
L213.1009 186.3933
" />
<path d="M213.1009 186.3933
L212.9580 186.3219
" />
<path d="M212.9580 186.3219
L212.8866 186.1790
" />
<path d="M212.8866 186.1790
L212.8866 186.0362
" />
<path d="M212.8866 186.0362
L212.9580 185.8933
" />
<path d="M212.9580 185.8933
L213.1009 185.8219
" />
<path d="M213.1009 185.8219
L213.4580 185.8219
" />
<path d="M213.4580 185.8219
L213.6009 185.7505
" />
<path d="M214.9580 186.3933
L214.9580 184.8933
" />
<path d="M214.9580 186.3219
L214.8152 186.3933
" />
<path d="M214.8152 186.3933
L214.5295 186.3933
" />
<path d="M214.5295 186.3933
L214.3866 186.3219
" />
<path d="M214.3866 186.3219
L214.3152 186.2505
" />
<path d="M214.3152 186.2505
L214.2437 186.1076
" />
<path d="M214.2437 186.1076
L214.2437 185.6790
" />
<path d="M214.2437 185.6790
L214.3152 185.5362
" />
<path d="M214.3152 185.5362
L214.3866 185.4648
" />
<path d="M214.3866 185.4648
L214.5295 185.3933
" />
<path d="M214.5295 185.3933
L214.8152 185.3933
" />
<path d="M214.8152 185.3933
L214.9580 185.4648
" />
<path d="M215.3152 186.5362
L216.4580 186.5362
" />
<path d="M216.8152 185.3933
L216.8152 186.8933
" />
<path d="M216.8152 185.4648
L216.9580 185.3933
" />
<path d="M216.9580 185.3933
L217.2437 185.3933
" />
<path d="M217.2437 185.3933
L217.3866 185.4648
" />
<path d="M217.3866 185.4648
L217.4580 185.5362
" />
<path d="M217.4580 185.5362
L217.5295 185.6790
" />
<path d="M217.5295 185.6790
L217.5295 186.1076
" />
<path d="M217.5295 186.1076
L217.4580 186.2505
" />
<path d="M217.4580 186.2505
L217.3866 186.3219
" />
<path d="M217.3866 186.3219
L217.2437 186.3933
" />
<path d="M217.2437 186.3933
L216.9580 186.3933
" />
<path d="M216.9580 186.3933
L216.8152 186.3219
" />
<path d="M218.8152 186.3219
L218.6723 186.3933
" />
<path d="M218.6723 186.3933
L218.3866 186.3933
" />
<path d="M218.3866 186.3933
L218.2437 186.3219
" />
<path d="M218.2437 186.3219
L218.1723 186.2505
" />
<path d="M218.1723 186.2505
L218.1009 186.1076
" />
<path d="M218.1009 186.1076
L218.1009 185.6790
" />
<path d="M218.1009 185.6790
L218.1723 185.5362
" />
<path d="M218.1723 185.5362
L218.2437 185.4648
" />
<path d="M218.2437 185.4648
L218.3866 185.3933
" />
<path d="M218.3866 185.3933
L218.6723 185.3933
" />
<path d="M218.6723 185.3933
L218.8152 185.4648
" />
<path d="M219.4580 186.3933
L219.4580 184.8933
" />
<path d="M219.4580 185.4648
L219.6009 185.3933
" />
<path d="M219.6009 185.3933
L219.8866 185.3933
" />
<path d="M219.8866 185.3933
L220.0295 185.4648
" />
<path d="M220.0295 185.4648
L220.1009 185.5362
" />
<path d="M220.1009 185.5362
L220.1723 185.6790
" />
<path d="M220.1723 185.6790
L220.1723 186.1076
" />
<path d="M220.1723 186.1076
L220.1009 186.2505
" />
<path d="M220.1009 186.2505
L220.0295 186.3219
" />
<path d="M220.0295 186.3219
L219.8866 186.3933
" />
<path d="M219.8866 186.3933
L219.6009 186.3933
" />
<path d="M219.6009 186.3933
L219.4580 186.3219
" />
</g></g>
<g style="fill:none; 
stroke:#000000; stroke-width:0.1500; stroke-opacity:1; 
stroke-linecap:round; stroke-linejoin:round;">
<path d="M177.0022 181.5072
L285.0022 181.5072
" />
</g>
<g style="fill:none; 
stroke:#000000; stroke-width:0.1500; stroke-opacity:1; 
stroke-linecap:round; stroke-linejoin:round;">
<text x="178.0022" y="183.7572"
textLength="8.2214" font-size="2.0000" lengthAdjust="spacingAndGlyphs"
text-anchor="start" opacity="0" stroke-opacity="0">Sheet: </text>
<g class="stroked-text"><desc>Sheet: </desc>
<path d="M178.3866 183.6219
L178.6009 183.6933
" />
<path d="M178.6009 183.6933
L178.9580 183.6933
" />
<path d="M178.9580 183.6933
L179.1009 183.6219
" />
<path d="M179.1009 183.6219
L179.1723 183.5505
" />
<path d="M179.1723 183.5505
L179.2437 183.4076
" />
<path d="M179.2437 183.4076
L179.2437 183.2648
" />
<path d="M179.2437 183.2648
L179.1723 183.1219
" />
<path d="M179.1723 183.1219
L179.1009 183.0505
" />
<path d="M179.1009 183.0505
L178.9580 182.9790
" />
<path d="M178.9580 182.9790
L178.6723 182.9076
" />
<path d="M178.6723 182.9076
L178.5295 182.8362
" />
<path d="M178.5295 182.8362
L178.4580 182.7648
" />
<path d="M178.4580 182.7648
L178.3866 182.6219
" />
<path d="M178.3866 182.6219
L178.3866 182.4790
" />
<path d="M178.3866 182.4790
L178.4580 182.3362
" />
<path d="M178.4580 182.3362
L178.5295 182.2648
" />
<path d="M178.5295 182.2648
L178.6723 182.1933
" />
<path d="M178.6723 182.1933
L179.0295 182.1933
" />
<path d="M179.0295 182.1933
L179.2437 182.2648
" />
<path d="M179.8866 183.6933
L179.8866 182.1933
" />
<path d="M180.5295 183.6933
L180.5295 182.9076
" />
<path d="M180.5295 182.9076
L180.4580 182.7648
" />
<path d="M180.4580 182.7648
L180.3152 182.6933
" />
<path d="M180.3152 182.6933
L180.1009 182.6933
" />
<path d="M180.1009 182.6933
L179.9580 182.7648
" />
<path d="M179.9580 182.7648
L179.8866 182.8362
" />
<path d="M181.8152 183.6219
L181.6723 183.6933
" />
<path d="M181.6723 183.6933
L181.3866 183.6933
" />
<path d="M181.3866 183.6933
L181.2437 183.6219
" />
<path d="M181.2437 183.6219
L181.1723 183.4790
" />
<path d="M181.1723 183.4790
L181.1723 182.9076
" />
<path d="M181.1723 182.9076
L181.2437 182.7648
" />
<path d="M181.2437 182.7648
L181.3866 182.6933
" />
<path d="M181.3866 182.6933
L181.6723 182.6933
" />
<path d="M181.6723 182.6933
L181.8152 182.7648
" />
<path d="M181.8152 182.7648
L181.8866 182.9076
" />
<path d="M181.8866 182.9076
L181.8866 183.0505
" />
<path d="M181.8866 183.0505
L181.1723 183.1933
" />
<path d="M183.1009 183.6219
L182.9580 183.6933
" />
<path d="M182.9580 183.6933
L182.6723 183.6933
" />
<path d="M182.6723 183.6933
L182.5295 183.6219
" />
<path d="M182.5295 183.6219
L182.4580 183.4790
" />
<path d="M182.4580 183.4790
L182.4580 182.9076
" />
<path d="M182.4580 182.9076
L182.5295 182.7648
" />
<path d="M182.5295 182.7648
L182.6723 182.6933
" />
<path d="M182.6723 182.6933
L182.9580 182.6933
" />
<path d="M182.9580 182.6933
L183.1009 182.7648
" />
<path d="M183.1009 182.7648
L183.1723 182.9076
" />
<path d="M183.1723 182.9076
L183.1723 183.0505
" />
<path d="M183.1723 183.0505
L182.4580 183.1933
" />
<path d="M183.6009 182.6933
L184.1723 182.6933
" />
<path d="M183.8152 182.1933
L183.8152 183.4790
" />
<path d="M183.8152 183.4790
L183.8866 183.6219
" />
<path d="M183.8866 183.6219
L184.0295 183.6933
" />
<path d="M184.0295 183.6933
L184.1723 183.6933
" />
<path d="M184.6723 183.5505
L184.7437 183.6219
" />
<path d="M184.7437 183.6219
L184.6723 183.6933
" />
<path d="M184.6723 183.6933
L184.6009 183.6219
" />
<path d="M184.6009 183.6219
L184.6723 183.5505
" />
<path d="M184.6723 183.5505
L184.6723 183.6933
" />
<path d="M184.6723 182.7648
L184.7437 182.8362
" />
<path d="M184.7437 182.8362
L184.6723 182.9076
" />
<path d="M184.6723 182.9076
L184.6009 182.8362
" />
<path d="M184.6009 182.8362
L184.6723 182.7648
" />
<path d="M184.6723 182.7648
L184.6723 182.9076
" />
</g></g>
<g style="fill:none; 
stroke:#000000; stroke-width:0.3000; stroke-opacity:1; 
stroke-linecap:round; stroke-linejoin:round;">
<text x="178.0022" y="180.7572"
textLength="0.9000" font-size="2.0000" lengthAdjust="spacingAndGlyphs"
text-anchor="start" opacity="0" stroke-opacity="0"></text>
<g class="stroked-text"><desc></desc>
</g></g>
<g style="fill:none; 
stroke:#000000; stroke-width:0.1500; stroke-opacity:1; 
stroke-linecap:round; stroke-linejoin:round;">
<text x="178.0022" y="177.7572"
textLength="0.4500" font-size="2.0000" lengthAdjust="spacingAndGlyphs"
text-anchor="start" opacity="0" stroke-opacity="0"></text>
<g class="stroked-text"><desc></desc>
</g></g>
<g style="fill:none; 
stroke:#000000; stroke-width:0.1500; stroke-opacity:1; 
stroke-linecap:round; stroke-linejoin:round;">
<text x="178.0022" y="174.7572"
textLength="0.4500" font-size="2.0000" lengthAdjust="spacingAndGlyphs"
text-anchor="start" opacity="0" stroke-opacity="0"></text>
<g class="stroked-text"><desc></desc>
</g></g>
<g style="fill:none; 
stroke:#000000; stroke-width:0.1500; stroke-opacity:1; 
stroke-linecap:round; stroke-linejoin:round;">
<text x="178.0022" y="171.7572"
textLength="0.4500" font-size="2.0000" lengthAdjust="spacingAndGlyphs"
text-anchor="start" opacity="0" stroke-opacity="0"></text>
<g class="stroked-text"><desc></desc>
</g></g>
<g style="fill:none; 
stroke:#000000; stroke-width:0.1500; stroke-opacity:1; 
stroke-linecap:round; stroke-linejoin:round;">
<text x="178.0022" y="168.7572"
textLength="0.4500" font-size="2.0000" lengthAdjust="spacingAndGlyphs"
text-anchor="start" opacity="0" stroke-opacity="0"></text>
<g class="stroked-text"><desc></desc>
</g></g>
<g style="fill:none; 
stroke:#000000; stroke-width:0.1500; stroke-opacity:1; 
stroke-linecap:round; stroke-linejoin:round;">
<path d="M197.0022 191.5072
L197.0022 194.5072
" />
</g>
<g style="fill:none; 
stroke:#000000; stroke-width:0.1500; stroke-opacity:1; 
stroke-linecap:round; stroke-linejoin:round;">
<path d="M261.0022 191.5072
L261.0022 198.0072
" />
</g>
<g style="fill:none; 
stroke:#C2C2C2; stroke-width:0.0500; stroke-opacity:1; 
stroke-linecap:round; stroke-linejoin:round;">
<path d="M157.3900 101.2400
L159.2100 101.2400
" />
<path d="M157.3900 102.1600
L157.3900 101.2400
" />
<path d="M159.2100 101.2400
L159.2100 102.1600
" />
<path d="M159.2100 102.1600
L157.3900 102.1600
" />
<path d="M159.8700 115.0800
L161.7300 115.0800
" />
<path d="M159.8700 116.0200
L159.8700 115.0800
" />
<path d="M161.7300 115.0800
L161.7300 116.0200
" />
<path d="M161.7300 116.0200
L159.8700 116.0200
" />
<path d="M198.5200 116.2700
L201.4800 116.2700
" />
<path d="M198.5200 117.7300
L198.5200 116.2700
" />
<path d="M201.4800 116.2700
L201.4800 117.7300
" />
<path d="M201.4800 117.7300
L198.5200 117.7300
" />
<path d="M157.3900 103.8400
L159.2100 103.8400
" />
<path d="M157.3900 104.7600
L157.3900 103.8400
" />
<path d="M159.2100 103.8400
L159.2100 104.7600
" />
<path d="M159.2100 104.7600
L157.3900 104.7600
" />
<path d="M193.2813 100.5318
L193.9318 99.8813
" />
<path d="M193.9318 99.8813
L195.2187 101.1682
" />
<path d="M194.5682 101.8187
L193.2813 100.5318
" />
<path d="M195.2187 101.1682
L194.5682 101.8187
" />
<path d="M160.2700 106.2800
L162.1300 106.2800
" />
<path d="M160.2700 107.2200
L160.2700 106.2800
" />
<path d="M162.1300 106.2800
L162.1300 107.2200
" />
<path d="M162.1300 107.2200
L160.2700 107.2200
" />
<path d="M203.3500 102.3800
L203.3500 106.2200
" />
<path d="M203.3500 106.2200
L206.7500 106.2200
" />
<path d="M206.7500 102.3800
L203.3500 102.3800
" />
<path d="M206.7500 106.2200
L206.7500 102.3800
" />
<path d="M122.7200 78.1200
L125.6800 78.1200
" />
<path d="M122.7200 79.5800
L122.7200 78.1200
" />
<path d="M125.6800 78.1200
L125.6800 79.5800
" />
<path d="M125.6800 79.5800
L122.7200 79.5800
" />
<path d="M152.0400 113.8900
L152.9600 113.8900
" />
<path d="M152.0400 115.7100
L152.0400 113.8900
" />
<path d="M152.9600 113.8900
L152.9600 115.7100
" />
<path d="M152.9600 115.7100
L152.0400 115.7100
" />
<path d="M102.5700 113.3450
L104.0300 113.3450
" />
<path d="M102.5700 116.3050
L102.5700 113.3450
" />
<path d="M104.0300 113.3450
L104.0300 116.3050
" />
<path d="M104.0300 116.3050
L102.5700 116.3050
" />
<path d="M106.1500 103.2000
L106.1500 110.2000
" />
<path d="M106.1500 110.2000
L113.8500 110.2000
" />
<path d="M113.8500 103.2000
L106.1500 103.2000
" />
<path d="M113.8500 110.2000
L113.8500 103.2000
" />
<path d="M132.7450 86.5450
L135.7050 86.5450
" />
<path d="M132.7450 88.0050
L132.7450 86.5450
" />
<path d="M135.7050 86.5450
L135.7050 88.0050
" />
<path d="M135.7050 88.0050
L132.7450 88.0050
" />
<path d="M119.5300 72.5700
L120.4700 72.5700
" />
<path d="M119.5300 74.4300
L119.5300 72.5700
" />
<path d="M120.4700 72.5700
L120.4700 74.4300
" />
<path d="M120.4700 74.4300
L119.5300 74.4300
" />
<path d="M132.7450 84.8700
L135.7050 84.8700
" />
<path d="M132.7450 86.3300
L132.7450 84.8700
" />
<path d="M135.7050 84.8700
L135.7050 86.3300
" />
<path d="M135.7050 86.3300
L132.7450 86.3300
" />
<path d="M99.3325 109.8950
L100.7925 109.8950
" />
<path d="M99.3325 112.8550
L99.3325 109.8950
" />
<path d="M100.7925 109.8950
L100.7925 112.8550
" />
<path d="M100.7925 112.8550
L99.3325 112.8550
" />
<path d="M124.7700 111.5400
L126.5900 111.5400
" />
<path d="M124.7700 112.4600
L124.7700 111.5400
" />
<path d="M126.5900 111.5400
L126.5900 112.4600
" />
<path d="M126.5900 112.4600
L124.7700 112.4600
" />
<path d="M213.6700 117.9200
L215.1300 117.9200
" />
<path d="M213.6700 120.8800
L213.6700 117.9200
" />
<path d="M215.1300 117.9200
L215.1300 120.8800
" />
<path d="M215.1300 120.8800
L213.6700 120.8800
" />
<path d="M163.2000 100.5500
L175.5000 100.5500
" />
<path d="M163.2000 117.5500
L163.2000 100.5500
" />
<path d="M175.5000 100.5500
L175.5000 101.7500
" />
<path d="M175.5000 101.7500
L178.8000 101.7500
" />
<path d="M175.5000 116.3500
L175.5000 117.5500
" />
<path d="M175.5000 117.5500
L163.2000 117.5500
" />
<path d="M178.8000 101.7500
L178.8000 104.4500
" />
<path d="M178.8000 104.4500
L191.2000 104.4500
" />
<path d="M178.8000 115.5500
L178.8000 116.3500
" />
<path d="M178.8000 116.3500
L175.5000 116.3500
" />
<path d="M191.2000 104.4500
L191.2000 115.5500
" />
<path d="M191.2000 115.5500
L178.8000 115.5500
" />
<path d="M195.4200 102.4950
L196.8800 102.4950
" />
<path d="M195.4200 105.4550
L195.4200 102.4950
" />
<path d="M196.8800 102.4950
L196.8800 105.4550
" />
<path d="M196.8800 105.4550
L195.4200 105.4550
" />
<path d="M120.3200 108.6500
L123.2800 108.6500
" />
<path d="M120.3200 110.1100
L120.3200 108.6500
" />
<path d="M123.2800 108.6500
L123.2800 110.1100
" />
<path d="M123.2800 110.1100
L120.3200 110.1100
" />
<path d="M125.6700 114.9300
L127.5300 114.9300
" />
<path d="M125.6700 115.8700
L125.6700 114.9300
" />
<path d="M127.5300 114.9300
L127.5300 115.8700
" />
<path d="M127.5300 115.8700
L125.6700 115.8700
" />
<path d="M148.9900 124.2400
L150.8100 124.2400
" />
<path d="M148.9900 125.1600
L148.9900 124.2400
" />
<path d="M150.8100 124.2400
L150.8100 125.1600
" />
<path d="M150.8100 125.1600
L148.9900 125.1600
" />
<path d="M127.2825 83.0700
L130.2425 83.0700
" />
<path d="M127.2825 84.5300
L127.2825 83.0700
" />
<path d="M130.2425 83.0700
L130.2425 84.5300
" />
<path d="M130.2425 84.5300
L127.2825 84.5300
" />
<path d="M96.7700 109.8950
L98.2300 109.8950
" />
<path d="M96.7700 112.8550
L96.7700 109.8950
" />
<path d="M98.2300 109.8950
L98.2300 112.8550
" />
<path d="M98.2300 112.8550
L96.7700 112.8550
" />
<path d="M211.8700 117.9200
L213.3300 117.9200
" />
<path d="M211.8700 120.8800
L211.8700 117.9200
" />
<path d="M213.3300 117.9200
L213.3300 120.8800
" />
<path d="M213.3300 120.8800
L211.8700 120.8800
" />
<path d="M158.0000 111.7500
L159.2000 111.7500
" />
<path d="M158.0000 113.3500
L158.0000 111.7500
" />
<path d="M158.0000 113.3500
L159.2000 113.3500
" />
<path d="M159.2000 111.7500
L159.2000 113.3500
" />
<path d="M148.2000 118.0000
L148.2000 122.1000
" />
<path d="M148.2000 122.1000
L151.6000 122.1000
" />
<path d="M151.6000 118.0000
L148.2000 118.0000
" />
<path d="M151.6000 122.1000
L151.6000 118.0000
" />
<path d="M137.6300 122.9700
L138.5700 122.9700
" />
<path d="M137.6300 124.8300
L137.6300 122.9700
" />
<path d="M138.5700 122.9700
L138.5700 124.8300
" />
<path d="M138.5700 124.8300
L137.6300 124.8300
" />
<path d="M97.5700 103.5200
L99.0300 103.5200
" />
<path d="M97.5700 106.4800
L97.5700 103.5200
" />
<path d="M99.0300 103.5200
L99.0300 106.4800
" />
<path d="M99.0300 106.4800
L97.5700 106.4800
" />
<path d="M132.6101 118.4747
L133.2747 117.8101
" />
<path d="M133.2747 117.8101
L134.5899 119.1253
" />
<path d="M133.9253 119.7899
L132.6101 118.4747
" />
<path d="M134.5899 119.1253
L133.9253 119.7899
" />
<path d="M118.4300 72.5700
L119.3700 72.5700
" />
<path d="M118.4300 74.4300
L118.4300 72.5700
" />
<path d="M119.3700 72.5700
L119.3700 74.4300
" />
<path d="M119.3700 74.4300
L118.4300 74.4300
" />
<path d="M95.2020 118.0233
L95.2020 121.4233
" />
<path d="M95.2020 121.4233
L99.3020 121.4233
" />
<path d="M99.3020 118.0233
L95.2020 118.0233
" />
<path d="M99.3020 121.4233
L99.3020 118.0233
" />
<path d="M129.5600 120.6300
L131.4200 120.6300
" />
<path d="M129.5600 121.5700
L129.5600 120.6300
" />
<path d="M131.4200 120.6300
L131.4200 121.5700
" />
<path d="M131.4200 121.5700
L129.5600 121.5700
" />
<path d="M210.0700 117.9200
L211.5300 117.9200
" />
<path d="M210.0700 120.8800
L210.0700 117.9200
" />
<path d="M211.5300 117.9200
L211.5300 120.8800
" />
<path d="M211.5300 120.8800
L210.0700 120.8800
" />
<path d="M161.6000 105.6000
L161.6000 104.0000
" />
<path d="M162.8000 104.0000
L161.6000 104.0000
" />
<path d="M162.8000 104.0000
L162.8000 105.6000
" />
<path d="M162.8000 105.6000
L161.6000 105.6000
" />
<path d="M158.0000 109.8500
L159.2000 109.8500
" />
<path d="M158.0000 111.4500
L158.0000 109.8500
" />
<path d="M158.0000 111.4500
L159.2000 111.4500
" />
<path d="M159.2000 109.8500
L159.2000 111.4500
" />
<path d="M135.6300 122.9700
L136.5700 122.9700
" />
<path d="M135.6300 124.8300
L135.6300 122.9700
" />
<path d="M136.5700 122.9700
L136.5700 124.8300
" />
<path d="M136.5700 124.8300
L135.6300 124.8300
" />
<path d="M125.7000 86.2500
L132.7000 86.2500
" />
<path d="M125.7000 89.7500
L125.7000 86.2500
" />
<path d="M132.7000 86.2500
L132.7000 89.7500
" />
<path d="M132.7000 89.7500
L125.7000 89.7500
" />
<path d="M103.8200 91.0700
L106.7800 91.0700
" />
<path d="M103.8200 92.5300
L103.8200 91.0700
" />
<path d="M106.7800 91.0700
L106.7800 92.5300
" />
<path d="M106.7800 92.5300
L103.8200 92.5300
" />
<path d="M192.3313 101.4818
L192.9818 100.8313
" />
<path d="M192.9818 100.8313
L194.2687 102.1182
" />
<path d="M193.6182 102.7687
L192.3313 101.4818
" />
<path d="M194.2687 102.1182
L193.6182 102.7687
" />
<path d="M197.9000 107.0800
L197.9000 110.9200
" />
<path d="M197.9000 110.9200
L201.3000 110.9200
" />
<path d="M201.3000 107.0800
L197.9000 107.0800
" />
<path d="M201.3000 110.9200
L201.3000 107.0800
" />
<path d="M212.5700 105.1200
L214.0300 105.1200
" />
<path d="M212.5700 108.0800
L212.5700 105.1200
" />
<path d="M214.0300 105.1200
L214.0300 108.0800
" />
<path d="M214.0300 108.0800
L212.5700 108.0800
" />
<path d="M160.2700 109.0800
L162.1300 109.0800
" />
<path d="M160.2700 110.0200
L160.2700 109.0800
" />
<path d="M162.1300 109.0800
L162.1300 110.0200
" />
<path d="M162.1300 110.0200
L160.2700 110.0200
" />
<path d="M123.7700 76.8300
L125.6300 76.8300
" />
<path d="M123.7700 77.7700
L123.7700 76.8300
" />
<path d="M125.6300 76.8300
L125.6300 77.7700
" />
<path d="M125.6300 77.7700
L123.7700 77.7700
" />
<path d="M197.9800 103.3000
L197.9800 106.7000
" />
<path d="M197.9800 106.7000
L201.8200 106.7000
" />
<path d="M201.8200 103.3000
L197.9800 103.3000
" />
<path d="M201.8200 106.7000
L201.8200 103.3000
" />
<path d="M147.3400 115.5100
L148.2600 115.5100
" />
<path d="M147.3400 117.3300
L147.3400 115.5100
" />
<path d="M148.2600 115.5100
L148.2600 117.3300
" />
<path d="M148.2600 117.3300
L147.3400 117.3300
" />
<path d="M96.1200 92.9700
L99.0800 92.9700
" />
<path d="M96.1200 94.4300
L96.1200 92.9700
" />
<path d="M99.0800 92.9700
L99.0800 94.4300
" />
<path d="M99.0800 94.4300
L96.1200 94.4300
" />
<path d="M203.0000 119.3000
L203.0000 122.3000
" />
<path d="M203.0000 119.3000
L206.0000 119.3000
" />
<path d="M206.0000 122.3000
L203.0000 122.3000
" />
<path d="M206.0000 122.3000
L206.0000 119.3000
" />
<path d="M198.5200 114.4700
L201.4800 114.4700
" />
<path d="M198.5200 115.9300
L198.5200 114.4700
" />
<path d="M201.4800 114.4700
L201.4800 115.9300
" />
<path d="M201.4800 115.9300
L198.5200 115.9300
" />
<path d="M153.2400 113.8900
L154.1600 113.8900
" />
<path d="M153.2400 115.7100
L153.2400 113.8900
" />
<path d="M154.1600 113.8900
L154.1600 115.7100
" />
<path d="M154.1600 115.7100
L153.2400 115.7100
" />
<path d="M122.8200 71.2200
L125.7800 71.2200
" />
<path d="M122.8200 72.6800
L122.8200 71.2200
" />
<path d="M125.7800 71.2200
L125.7800 72.6800
" />
<path d="M125.7800 72.6800
L122.8200 72.6800
" />
<path d="M103.8200 89.3700
L106.7800 89.3700
" />
<path d="M103.8200 90.8300
L103.8200 89.3700
" />
<path d="M106.7800 89.3700
L106.7800 90.8300
" />
<path d="M106.7800 90.8300
L103.8200 90.8300
" />
<path d="M159.8700 112.5800
L161.7300 112.5800
" />
<path d="M159.8700 113.5200
L159.8700 112.5800
" />
<path d="M161.7300 112.5800
L161.7300 113.5200
" />
<path d="M161.7300 113.5200
L159.8700 113.5200
" />
<path d="M94.0200 102.5700
L96.9800 102.5700
" />
<path d="M94.0200 104.0300
L94.0200 102.5700
" />
<path d="M96.9800 102.5700
L96.9800 104.0300
" />
<path d="M96.9800 104.0300
L94.0200 104.0300
" />
<path d="M120.3200 106.9500
L123.2800 106.9500
" />
<path d="M120.3200 108.4100
L120.3200 106.9500
" />
<path d="M123.2800 106.9500
L123.2800 108.4100
" />
<path d="M123.2800 108.4100
L120.3200 108.4100
" />
<path d="M122.7200 79.7700
L125.6800 79.7700
" />
<path d="M122.7200 81.2300
L122.7200 79.7700
" />
<path d="M125.6800 79.7700
L125.6800 81.2300
" />
<path d="M125.6800 81.2300
L122.7200 81.2300
" />
<path d="M135.0800 116.0000
L135.0800 121.4000
" />
<path d="M135.0800 121.4000
L142.5200 121.4000
" />
<path d="M142.5200 116.0000
L135.0800 116.0000
" />
<path d="M142.5200 121.4000
L142.5200 116.0000
" />
<path d="M195.9875 95.1000
L195.9875 100.5000
" />
<path d="M195.9875 100.5000
L203.3875 100.5000
" />
<path d="M203.3875 95.1000
L195.9875 95.1000
" />
<path d="M203.3875 100.5000
L203.3875 95.1000
" />
<path d="M104.4700 115.0200
L105.9300 115.0200
" />
<path d="M104.4700 117.9800
L104.4700 115.0200
" />
<path d="M105.9300 115.0200
L105.9300 117.9800
" />
<path d="M105.9300 117.9800
L104.4700 117.9800
" />
<path d="M148.9900 122.7400
L150.8100 122.7400
" />
<path d="M148.9900 123.6600
L148.9900 122.7400
" />
<path d="M150.8100 122.7400
L150.8100 123.6600
" />
<path d="M150.8100 123.6600
L148.9900 123.6600
" />
<path d="M154.9706 89.8585
L156.4306 89.8585
" />
<path d="M154.9706 92.8185
L154.9706 89.8585
" />
<path d="M156.4306 89.8585
L156.4306 92.8185
" />
<path d="M156.4306 92.8185
L154.9706 92.8185
" />
<path d="M202.5500 106.4500
L209.5500 106.4500
" />
<path d="M202.5500 109.9500
L202.5500 106.4500
" />
<path d="M209.5500 106.4500
L209.5500 109.9500
" />
<path d="M209.5500 109.9500
L202.5500 109.9500
" />
<path d="M122.8200 72.8700
L125.7800 72.8700
" />
<path d="M122.8200 74.3300
L122.8200 72.8700
" />
<path d="M125.7800 72.8700
L125.7800 74.3300
" />
<path d="M125.7800 74.3300
L122.8200 74.3300
" />
<path d="M117.6700 71.4300
L119.5300 71.4300
" />
<path d="M117.6700 72.3700
L117.6700 71.4300
" />
<path d="M119.5300 71.4300
L119.5300 72.3700
" />
<path d="M119.5300 72.3700
L117.6700 72.3700
" />
<path style="fill:none; 
stroke:#C2C2C2; stroke-width:0.0500; stroke-opacity:1; 
stroke-linecap:round; stroke-linejoin:round;fill:none"
d="M 119.9000,87.4000
125.5000,87.4000
125.5000,93.0000
119.9000,93.0000
Z" /> 
<path d="M120.3200 105.2500
L123.2800 105.2500
" />
<path d="M120.3200 106.7100
L120.3200 105.2500
" />
<path d="M123.2800 105.2500
L123.2800 106.7100
" />
<path d="M123.2800 106.7100
L120.3200 106.7100
" />
<path d="M107.2500 72.0000
L107.2500 81.0000
" />
<path d="M107.2500 72.0000
L116.7500 72.0000
" />
<path d="M107.2500 81.0000
L116.7500 81.0000
" />
<path d="M116.7500 72.0000
L116.7500 81.0000
" />
<path d="M199.6700 101.6700
L202.6300 101.6700
" />
<path d="M199.6700 103.1300
L199.6700 101.6700
" />
<path d="M202.6300 101.6700
L202.6300 103.1300
" />
<path d="M202.6300 103.1300
L199.6700 103.1300
" />
<path d="M114.5200 103.1700
L117.4800 103.1700
" />
<path d="M114.5200 104.6300
L114.5200 103.1700
" />
<path d="M117.4800 103.1700
L117.4800 104.6300
" />
<path d="M117.4800 104.6300
L114.5200 104.6300
" />
<path d="M114.5200 104.8700
L117.4800 104.8700
" />
<path d="M114.5200 106.3300
L114.5200 104.8700
" />
<path d="M117.4800 104.8700
L117.4800 106.3300
" />
<path d="M117.4800 106.3300
L114.5200 106.3300
" />
<path d="M159.9000 105.6000
L159.9000 104.0000
" />
<path d="M161.1000 104.0000
L159.9000 104.0000
" />
<path d="M161.1000 104.0000
L161.1000 105.6000
" />
<path d="M161.1000 105.6000
L159.9000 105.6000
" />
<path d="M155.0200 87.3700
L157.9800 87.3700
" />
<path d="M155.0200 88.8300
L155.0200 87.3700
" />
<path d="M157.9800 87.3700
L157.9800 88.8300
" />
<path d="M157.9800 88.8300
L155.0200 88.8300
" />
<path d="M129.2456 113.9600
L129.2456 93.8100
" />
<path d="M129.2456 113.9600
L148.7456 113.9600
" />
<path d="M148.7456 93.8100
L129.2456 93.8100
" />
<path d="M148.7456 93.8100
L148.7456 113.9600
" />
<path d="M148.4400 115.5100
L149.3600 115.5100
" />
<path d="M148.4400 117.3300
L148.4400 115.5100
" />
<path d="M149.3600 115.5100
L149.3600 117.3300
" />
<path d="M149.3600 117.3300
L148.4400 117.3300
" />
<path d="M151.0300 102.0700
L151.9700 102.0700
" />
<path d="M151.0300 103.9300
L151.0300 102.0700
" />
<path d="M151.9700 102.0700
L151.9700 103.9300
" />
<path d="M151.9700 103.9300
L151.0300 103.9300
" />
<path d="M206.3580 119.2625
L209.3180 119.2625
" />
<path d="M206.3580 120.7225
L206.3580 119.2625
" />
<path d="M209.3180 119.2625
L209.3180 120.7225
" />
<path d="M209.3180 120.7225
L206.3580 120.7225
" />
<path d="M123.0000 115.9800
L123.0000 119.8200
" />
<path d="M123.0000 119.8200
L126.4000 119.8200
" />
<path d="M126.4000 115.9800
L123.0000 115.9800
" />
<path d="M126.4000 119.8200
L126.4000 115.9800
" />
<path d="M153.4800 110.4950
L154.9400 110.4950
" />
<path d="M153.4800 113.4550
L153.4800 110.4950
" />
<path d="M154.9400 110.4950
L154.9400 113.4550
" />
<path d="M154.9400 113.4550
L153.4800 113.4550
" />
<path d="M96.1200 94.6700
L99.0800 94.6700
" />
<path d="M96.1200 96.1300
L96.1200 94.6700
" />
<path d="M99.0800 94.6700
L99.0800 96.1300
" />
<path d="M99.0800 96.1300
L96.1200 96.1300
" />
<path d="M208.7700 101.2200
L210.2300 101.2200
" />
<path d="M208.7700 104.1800
L208.7700 101.2200
" />
<path d="M210.2300 101.2200
L210.2300 104.1800
" />
<path d="M210.2300 104.1800
L208.7700 104.1800
" />
<path d="M122.7200 81.4200
L125.6800 81.4200
" />
<path d="M122.7200 82.8800
L122.7200 81.4200
" />
<path d="M125.6800 81.4200
L125.6800 82.8800
" />
<path d="M125.6800 82.8800
L122.7200 82.8800
" />
<path d="M121.4125 83.8000
L121.4125 87.2000
" />
<path d="M121.4125 87.2000
L125.5125 87.2000
" />
<path d="M125.5125 83.8000
L121.4125 83.8000
" />
<path d="M125.5125 87.2000
L125.5125 83.8000
" />
<path d="M127.8900 84.8400
L129.7100 84.8400
" />
<path d="M127.8900 85.7600
L127.8900 84.8400
" />
<path d="M129.7100 84.8400
L129.7100 85.7600
" />
<path d="M129.7100 85.7600
L127.8900 85.7600
" />
<path d="M160.2700 107.7800
L162.1300 107.7800
" />
<path d="M160.2700 108.7200
L160.2700 107.7800
" />
<path d="M162.1300 107.7800
L162.1300 108.7200
" />
<path d="M162.1300 108.7200
L160.2700 108.7200
" />
<path d="M127.0000 115.9800
L127.0000 119.8200
" />
<path d="M127.0000 119.8200
L130.4000 119.8200
" />
<path d="M130.4000 115.9800
L127.0000 115.9800
" />
<path d="M130.4000 119.8200
L130.4000 115.9800
" />
<path d="M202.7000 111.6200
L206.1000 111.6200
" />
<path d="M202.7000 113.5800
L202.7000 111.6200
" />
<path d="M206.1000 111.6200
L206.1000 113.5800
" />
<path d="M206.1000 113.5800
L202.7000 113.5800
" />
<path d="M158.0000 108.0000
L159.2000 108.0000
" />
<path d="M158.0000 109.6000
L158.0000 108.0000
" />
<path d="M158.0000 109.6000
L159.2000 109.6000
" />
<path d="M159.2000 108.0000
L159.2000 109.6000
" />
<path d="M95.4470 126.0933
L98.4070 126.0933
" />
<path d="M95.4470 127.5533
L95.4470 126.0933
" />
<path d="M98.4070 126.0933
L98.4070 127.5533
" />
<path d="M98.4070 127.5533
L95.4470 127.5533
" />
<path d="M203.0200 110.0700
L205.9800 110.0700
" />
<path d="M203.0200 111.5300
L203.0200 110.0700
" />
<path d="M205.9800 110.0700
L205.9800 111.5300
" />
<path d="M205.9800 111.5300
L203.0200 111.5300
" />
<path d="M150.9700 110.4950
L152.4300 110.4950
" />
<path d="M150.9700 113.4550
L150.9700 110.4950
" />
<path d="M152.4300 110.4950
L152.4300 113.4550
" />
<path d="M152.4300 113.4550
L150.9700 113.4550
" />
<path d="M125.6700 83.1200
L127.1300 83.1200
" />
<path d="M125.6700 86.0800
L125.6700 83.1200
" />
<path d="M127.1300 83.1200
L127.1300 86.0800
" />
<path d="M127.1300 86.0800
L125.6700 86.0800
" />
<path d="M132.9900 120.9400
L134.8100 120.9400
" />
<path d="M132.9900 121.8600
L132.9900 120.9400
" />
<path d="M134.8100 120.9400
L134.8100 121.8600
" />
<path d="M134.8100 121.8600
L132.9900 121.8600
" />
<path d="M94.0200 105.7700
L96.9800 105.7700
" />
<path d="M94.0200 107.2300
L94.0200 105.7700
" />
<path d="M96.9800 105.7700
L96.9800 107.2300
" />
<path d="M96.9800 107.2300
L94.0200 107.2300
" />
<path d="M101.0220 118.0433
L102.4820 118.0433
" />
<path d="M101.0220 121.0033
L101.0220 118.0433
" />
<path d="M102.4820 118.0433
L102.4820 121.0033
" />
<path d="M102.4820 121.0033
L101.0220 121.0033
" />
<path style="fill:none; 
stroke:#C2C2C2; stroke-width:0.0500; stroke-opacity:1; 
stroke-linecap:round; stroke-linejoin:round;fill:none"
d="M 153.5000,101.1000
155.7000,101.1000
155.7000,104.9000
153.5000,104.9000
Z" /> 
<path d="M159.8700 110.7800
L161.7300 110.7800
" />
<path d="M159.8700 111.7200
L159.8700 110.7800
" />
<path d="M161.7300 110.7800
L161.7300 111.7200
" />
<path d="M161.7300 111.7200
L159.8700 111.7200
" />
<path d="M215.2500 114.9000
L215.2500 117.9000
" />
<path d="M215.2500 114.9000
L218.2500 114.9000
" />
<path d="M218.2500 117.9000
L215.2500 117.9000
" />
<path d="M218.2500 117.9000
L218.2500 114.9000
" />
<path d="M157.1000 113.6500
L158.3000 113.6500
" />
<path d="M157.1000 115.2500
L157.1000 113.6500
" />
<path d="M157.1000 115.2500
L158.3000 115.2500
" />
<path d="M158.3000 113.6500
L158.3000 115.2500
" />
<path d="M159.8700 113.9800
L161.7300 113.9800
" />
<path d="M159.8700 114.9200
L159.8700 113.9800
" />
<path d="M161.7300 113.9800
L161.7300 114.9200
" />
<path d="M161.7300 114.9200
L159.8700 114.9200
" />
<path d="M194.9800 116.7200
L195.9200 116.7200
" />
<path d="M194.9800 118.5800
L194.9800 116.7200
" />
<path d="M195.9200 116.7200
L195.9200 118.5800
" />
<path d="M195.9200 118.5800
L194.9800 118.5800
" />
</g>
<g style="fill:none; 
stroke:#C2C200; stroke-width:0.0500; stroke-opacity:1; 
stroke-linecap:round; stroke-linejoin:round;">
<path d="M93.8000 124.6000
L92.9000 124.6000
" />
<path d="M215.5000 133.0000
L94.9000 133.0000
" />
<path d="M92.0000 127.1000
L92.0000 130.1000
" />
<path d="M152.2000 86.5000
L219.2000 86.5000
" />
<circle cx="200.0000" cy="113.0000" r="1.0000" /> 
<path d="M151.4000 63.3000
L151.6000 63.5000
" />
<path d="M150.0000 62.5000
L150.0000 63.3000
" />
<path d="M92.9000 116.1000
L92.0000 116.1000
" />
<circle cx="181.0000" cy="123.8000" r="1.0000" /> 
<circle cx="95.0000" cy="65.5000" r="1.0000" /> 
<path d="M219.0000 125.0000
L219.0000 129.5000
" />
<path d="M151.6000 85.9000 A0.6000 0.6000 0.0 0 0 152.2000 86.5000" />
<circle cx="144.2000" cy="65.3000" r="1.0000" /> 
<path d="M92.9000 122.6000
L92.9000 116.1000
" />
<path d="M118.0000 62.5000
L93.0000 62.5000
" />
<path d="M220.0000 92.5000
L219.0000 92.5000
" />
<circle cx="206.0000" cy="131.5000" r="0.9000" /> 
<path d="M219.0000 92.5000
L219.0000 122.0000
" />
<circle cx="99.0000" cy="66.5000" r="1.0000" /> 
<circle cx="124.5000" cy="114.1000" r="1.0000" /> 
<path d="M93.8000 124.6000 A1.0000 1.0000 0.0 0 0 93.8000 122.6000" />
<circle cx="112.0000" cy="125.6000" r="0.9000" /> 
<path d="M94.9000 133.0000
L92.0000 130.1000
" />
<path d="M92.0000 63.5000
L92.0000 69.5000
" />
<circle cx="208.0000" cy="126.0000" r="1.0000" /> 
<circle cx="131.0000" cy="123.6000" r="1.0000" /> 
<path d="M93.8000 122.6000
L92.9000 122.6000
" />
<path d="M92.9000 124.6000
L92.9000 127.1000
" />
<circle cx="206.0000" cy="94.5000" r="2.0000" /> 
<path d="M219.0000 122.0000 A1.5000 1.5000 0.0 0 0 219.0000 125.0000" />
<circle cx="129.2000" cy="65.3000" r="1.0000" /> 
<path d="M92.0000 69.5000
L92.9000 69.5000
" />
<path d="M92.0000 116.1000
L92.0000 80.5000
" />
<circle cx="180.5000" cy="120.8000" r="0.9000" /> 
<circle cx="93.8000" cy="110.0000" r="1.0000" /> 
<path d="M92.9000 69.5000
L92.9000 80.5000
" />
<circle cx="93.8000" cy="95.0000" r="1.0000" /> 
<path d="M150.0000 63.3000
L151.4000 63.3000
" />
<path d="M92.9000 80.5000
L92.0000 80.5000
" />
<path d="M219.0000 129.5000
L215.5000 133.0000
" />
<path d="M150.0000 62.5000
L122.0000 62.5000
" />
<circle cx="106.0000" cy="123.6000" r="1.0000" /> 
<path d="M118.0000 64.9000 A2.0000 2.0000 0.0 0 0 122.0000 64.9000" />
<path d="M92.0000 127.1000
L92.9000 127.1000
" />
<path d="M92.0000 63.5000
L93.0000 62.5000
" />
<circle cx="156.0000" cy="123.6000" r="1.0000" /> 
<circle cx="167.5000" cy="120.8000" r="0.9000" /> 
<circle cx="195.5000" cy="125.9000" r="0.9000" /> 
<path d="M151.6000 66.1000
L151.6000 85.9000
" />
<path d="M151.6000 63.5000
L151.6000 64.5000
" />
<path d="M118.0000 64.9000
L118.0000 62.5000
" />
<path d="M219.2000 86.5000
L220.0000 87.3000
" />
<path d="M122.0000 64.9000
L122.0000 62.5000
" />
<circle cx="216.2000" cy="110.0000" r="2.0000" /> 
<path d="M220.0000 87.3000
L220.0000 92.5000
" />
<path d="M151.6000 64.5000 A1.0000 1.0000 0.0 0 0 151.6000 66.1000" />
</g> 
</svg>
