%TF.GenerationSoftware,KiCad,Pcbnew,8.0.5-unknown-202409261835~48b9027842~ubuntu24.04.1*%
%TF.CreationDate,2024-09-28T03:00:05+08:00*%
%TF.ProjectId,EL6170_Pro_Max_Plus,454c3631-3730-45f5-9072-6f5f4d61785f,rev?*%
%TF.SameCoordinates,Original*%
%TF.FileFunction,Soldermask,Top*%
%TF.FilePolarity,Negative*%
%FSLAX46Y46*%
G04 Gerber Fmt 4.6, Leading zero omitted, Abs format (unit mm)*
G04 Created by KiCad (PCBNEW 8.0.5-unknown-202409261835~48b9027842~ubuntu24.04.1) date 2024-09-28 03:00:05*
%MOMM*%
%LPD*%
G01*
G04 APERTURE LIST*
G04 Aperture macros list*
%AMRoundRect*
0 Rectangle with rounded corners*
0 $1 Rounding radius*
0 $2 $3 $4 $5 $6 $7 $8 $9 X,Y pos of 4 corners*
0 Add a 4 corners polygon primitive as box body*
4,1,4,$2,$3,$4,$5,$6,$7,$8,$9,$2,$3,0*
0 Add four circle primitives for the rounded corners*
1,1,$1+$1,$2,$3*
1,1,$1+$1,$4,$5*
1,1,$1+$1,$6,$7*
1,1,$1+$1,$8,$9*
0 Add four rect primitives between the rounded corners*
20,1,$1+$1,$2,$3,$4,$5,0*
20,1,$1+$1,$4,$5,$6,$7,0*
20,1,$1+$1,$6,$7,$8,$9,0*
20,1,$1+$1,$8,$9,$2,$3,0*%
G04 Aperture macros list end*
%ADD10C,2.550000*%
%ADD11RoundRect,0.200000X0.200000X0.275000X-0.200000X0.275000X-0.200000X-0.275000X0.200000X-0.275000X0*%
%ADD12RoundRect,0.112500X0.187500X0.112500X-0.187500X0.112500X-0.187500X-0.112500X0.187500X-0.112500X0*%
%ADD13R,1.800000X3.000000*%
%ADD14C,1.100000*%
%ADD15RoundRect,0.135000X0.135000X0.185000X-0.135000X0.185000X-0.135000X-0.185000X0.135000X-0.185000X0*%
%ADD16RoundRect,0.112500X-0.187500X-0.112500X0.187500X-0.112500X0.187500X0.112500X-0.187500X0.112500X0*%
%ADD17RoundRect,0.140000X0.170000X-0.140000X0.170000X0.140000X-0.170000X0.140000X-0.170000X-0.140000X0*%
%ADD18RoundRect,0.150000X-0.587500X-0.150000X0.587500X-0.150000X0.587500X0.150000X-0.587500X0.150000X0*%
%ADD19RoundRect,0.225000X0.225000X0.250000X-0.225000X0.250000X-0.225000X-0.250000X0.225000X-0.250000X0*%
%ADD20RoundRect,0.147500X-0.147500X-0.172500X0.147500X-0.172500X0.147500X0.172500X-0.147500X0.172500X0*%
%ADD21RoundRect,0.218750X0.218750X0.256250X-0.218750X0.256250X-0.218750X-0.256250X0.218750X-0.256250X0*%
%ADD22RoundRect,0.100000X-0.637500X-0.100000X0.637500X-0.100000X0.637500X0.100000X-0.637500X0.100000X0*%
%ADD23RoundRect,0.225000X-0.250000X0.225000X-0.250000X-0.225000X0.250000X-0.225000X0.250000X0.225000X0*%
%ADD24RoundRect,0.147500X-0.172500X0.147500X-0.172500X-0.147500X0.172500X-0.147500X0.172500X0.147500X0*%
%ADD25RoundRect,0.135000X-0.185000X0.135000X-0.185000X-0.135000X0.185000X-0.135000X0.185000X0.135000X0*%
%ADD26RoundRect,0.140000X-0.140000X-0.170000X0.140000X-0.170000X0.140000X0.170000X-0.140000X0.170000X0*%
%ADD27RoundRect,0.225000X0.250000X-0.225000X0.250000X0.225000X-0.250000X0.225000X-0.250000X-0.225000X0*%
%ADD28C,1.000000*%
%ADD29RoundRect,0.101600X-0.800000X-0.350000X0.800000X-0.350000X0.800000X0.350000X-0.800000X0.350000X0*%
%ADD30RoundRect,0.101600X-0.800000X0.600000X-0.800000X-0.600000X0.800000X-0.600000X0.800000X0.600000X0*%
%ADD31RoundRect,0.101600X-1.100000X0.600000X-1.100000X-0.600000X1.100000X-0.600000X1.100000X0.600000X0*%
%ADD32RoundRect,0.101600X-0.700000X0.800000X-0.700000X-0.800000X0.700000X-0.800000X0.700000X0.800000X0*%
%ADD33RoundRect,0.225000X-0.225000X-0.250000X0.225000X-0.250000X0.225000X0.250000X-0.225000X0.250000X0*%
%ADD34RoundRect,0.200000X-0.200000X-0.275000X0.200000X-0.275000X0.200000X0.275000X-0.200000X0.275000X0*%
%ADD35RoundRect,0.140000X-0.170000X0.140000X-0.170000X-0.140000X0.170000X-0.140000X0.170000X0.140000X0*%
%ADD36RoundRect,0.050000X-0.300000X0.150000X-0.300000X-0.150000X0.300000X-0.150000X0.300000X0.150000X0*%
%ADD37RoundRect,0.150000X-0.512500X-0.150000X0.512500X-0.150000X0.512500X0.150000X-0.512500X0.150000X0*%
%ADD38RoundRect,0.150000X-0.825000X-0.150000X0.825000X-0.150000X0.825000X0.150000X-0.825000X0.150000X0*%
%ADD39RoundRect,0.140000X0.140000X0.170000X-0.140000X0.170000X-0.140000X-0.170000X0.140000X-0.170000X0*%
%ADD40RoundRect,0.135000X-0.135000X-0.185000X0.135000X-0.185000X0.135000X0.185000X-0.135000X0.185000X0*%
%ADD41RoundRect,0.135000X0.185000X-0.135000X0.185000X0.135000X-0.185000X0.135000X-0.185000X-0.135000X0*%
%ADD42R,2.400000X4.300000*%
%ADD43C,0.650000*%
%ADD44RoundRect,0.070000X-0.500000X0.150000X-0.500000X-0.150000X0.500000X-0.150000X0.500000X0.150000X0*%
%ADD45RoundRect,0.070000X0.500000X-0.150000X0.500000X0.150000X-0.500000X0.150000X-0.500000X-0.150000X0*%
%ADD46RoundRect,0.070000X-0.500000X0.300000X-0.500000X-0.300000X0.500000X-0.300000X0.500000X0.300000X0*%
%ADD47RoundRect,0.070000X0.500000X-0.300000X0.500000X0.300000X-0.500000X0.300000X-0.500000X-0.300000X0*%
%ADD48O,1.600000X1.000000*%
%ADD49O,2.100000X1.000000*%
%ADD50RoundRect,0.250000X0.650000X-1.000000X0.650000X1.000000X-0.650000X1.000000X-0.650000X-1.000000X0*%
%ADD51RoundRect,0.218750X-0.218750X-0.256250X0.218750X-0.256250X0.218750X0.256250X-0.218750X0.256250X0*%
%ADD52R,2.000000X2.000000*%
%ADD53RoundRect,0.200000X0.275000X-0.200000X0.275000X0.200000X-0.275000X0.200000X-0.275000X-0.200000X0*%
%ADD54R,1.000000X0.900000*%
%ADD55RoundRect,0.150000X-0.687500X-0.150000X0.687500X-0.150000X0.687500X0.150000X-0.687500X0.150000X0*%
%ADD56R,2.100000X3.300000*%
%ADD57RoundRect,0.100000X-0.712500X-0.100000X0.712500X-0.100000X0.712500X0.100000X-0.712500X0.100000X0*%
%ADD58RoundRect,0.200000X-0.275000X0.200000X-0.275000X-0.200000X0.275000X-0.200000X0.275000X0.200000X0*%
%ADD59RoundRect,0.101600X0.950000X-2.650000X0.950000X2.650000X-0.950000X2.650000X-0.950000X-2.650000X0*%
%ADD60R,1.750000X0.450000*%
%ADD61RoundRect,0.150000X-0.650000X-0.150000X0.650000X-0.150000X0.650000X0.150000X-0.650000X0.150000X0*%
%ADD62R,1.200000X1.100000*%
%ADD63R,1.800000X0.400000*%
%ADD64R,0.600000X1.200000*%
%ADD65R,3.300000X2.400000*%
%ADD66RoundRect,0.250000X-0.250000X-0.475000X0.250000X-0.475000X0.250000X0.475000X-0.250000X0.475000X0*%
%ADD67R,1.000000X2.000000*%
%ADD68RoundRect,0.050000X-0.350000X-0.050000X0.350000X-0.050000X0.350000X0.050000X-0.350000X0.050000X0*%
%ADD69RoundRect,0.050000X-0.050000X-0.350000X0.050000X-0.350000X0.050000X0.350000X-0.050000X0.350000X0*%
%ADD70R,4.000000X4.000000*%
G04 APERTURE END LIST*
%TO.C,SWRST1*%
D10*
X127275000Y-128000000D02*
G75*
G02*
X124725000Y-128000000I-1275000J0D01*
G01*
X124725000Y-128000000D02*
G75*
G02*
X127275000Y-128000000I1275000J0D01*
G01*
%TO.C,SWBOOT1*%
X142275000Y-128000000D02*
G75*
G02*
X139725000Y-128000000I-1275000J0D01*
G01*
X139725000Y-128000000D02*
G75*
G02*
X142275000Y-128000000I1275000J0D01*
G01*
%TD*%
D11*
%TO.C,R20*%
X123425000Y-98500000D03*
X121775000Y-98500000D03*
%TD*%
D12*
%TO.C,D41*%
X155650000Y-119000000D03*
X153550000Y-119000000D03*
%TD*%
D13*
%TO.C,CN1*%
X93570000Y-83770000D03*
X97170000Y-83770000D03*
X94570000Y-91830000D03*
X103070000Y-83770000D03*
X101470000Y-91830000D03*
D14*
X94970000Y-87850000D03*
X100970000Y-87850000D03*
%TD*%
D15*
%TO.C,R24*%
X149910000Y-101000000D03*
X148890000Y-101000000D03*
%TD*%
D16*
%TO.C,D54*%
X191350000Y-126600000D03*
X193450000Y-126600000D03*
%TD*%
D11*
%TO.C,R23*%
X205225000Y-123500000D03*
X203575000Y-123500000D03*
%TD*%
D17*
%TO.C,C25*%
X103500000Y-131560000D03*
X103500000Y-130600000D03*
%TD*%
D15*
%TO.C,R30*%
X149910000Y-109800000D03*
X148890000Y-109800000D03*
%TD*%
D18*
%TO.C,Q3*%
X196062500Y-100850000D03*
X196062500Y-102750000D03*
X197937500Y-101800000D03*
%TD*%
D19*
%TO.C,C7*%
X129275000Y-78800000D03*
X127725000Y-78800000D03*
%TD*%
D16*
%TO.C,D50*%
X126550000Y-116000000D03*
X128650000Y-116000000D03*
%TD*%
D20*
%TO.C,L2*%
X149230000Y-121300000D03*
X150200000Y-121300000D03*
%TD*%
D12*
%TO.C,D32*%
X176650000Y-90000000D03*
X174550000Y-90000000D03*
%TD*%
%TO.C,D31*%
X183600000Y-90000000D03*
X181500000Y-90000000D03*
%TD*%
D17*
%TO.C,C44*%
X106000000Y-131580000D03*
X106000000Y-130620000D03*
%TD*%
D21*
%TO.C,D4*%
X120587500Y-83600000D03*
X119012500Y-83600000D03*
%TD*%
D16*
%TO.C,D14*%
X130000000Y-89200000D03*
X132100000Y-89200000D03*
%TD*%
D11*
%TO.C,R18*%
X106325000Y-102800000D03*
X104675000Y-102800000D03*
%TD*%
D22*
%TO.C,U9*%
X108375000Y-85575000D03*
X108375000Y-86225000D03*
X108375000Y-86875000D03*
X108375000Y-87525000D03*
X108375000Y-88175000D03*
X108375000Y-88825000D03*
X108375000Y-89475000D03*
X108375000Y-90125000D03*
X108375000Y-90775000D03*
X108375000Y-91425000D03*
X114100000Y-91425000D03*
X114100000Y-90775000D03*
X114100000Y-90125000D03*
X114100000Y-89475000D03*
X114100000Y-88825000D03*
X114100000Y-88175000D03*
X114100000Y-87525000D03*
X114100000Y-86875000D03*
X114100000Y-86225000D03*
X114100000Y-85575000D03*
%TD*%
D23*
%TO.C,C4*%
X127700000Y-69725000D03*
X127700000Y-71275000D03*
%TD*%
D24*
%TO.C,L1*%
X145500000Y-121415000D03*
X145500000Y-122385000D03*
%TD*%
D16*
%TO.C,D20*%
X185400000Y-95000000D03*
X187500000Y-95000000D03*
%TD*%
D25*
%TO.C,R25*%
X170500000Y-102990000D03*
X170500000Y-104010000D03*
%TD*%
D19*
%TO.C,C22*%
X154375000Y-115000000D03*
X152825000Y-115000000D03*
%TD*%
%TO.C,C3*%
X127975000Y-73500000D03*
X126425000Y-73500000D03*
%TD*%
D12*
%TO.C,D33*%
X194650000Y-92000000D03*
X192550000Y-92000000D03*
%TD*%
D23*
%TO.C,C34*%
X95300000Y-100225000D03*
X95300000Y-101775000D03*
%TD*%
D26*
%TO.C,C20*%
X133920000Y-125000000D03*
X134880000Y-125000000D03*
%TD*%
D27*
%TO.C,C40*%
X204500000Y-116875000D03*
X204500000Y-115325000D03*
%TD*%
D28*
%TO.C,J2*%
X135500000Y-102550000D03*
X135500000Y-110550000D03*
D29*
X146000000Y-109750000D03*
X146000000Y-108650000D03*
X146000000Y-107550000D03*
X146000000Y-106450000D03*
X146000000Y-105350000D03*
X146000000Y-104250000D03*
X146000000Y-103150000D03*
X146000000Y-102050000D03*
X146000000Y-100950000D03*
D30*
X145400000Y-99750000D03*
D31*
X135900000Y-99750000D03*
X135900000Y-115250000D03*
D32*
X145500000Y-114350000D03*
%TD*%
D16*
%TO.C,D42*%
X162550000Y-119000000D03*
X164650000Y-119000000D03*
%TD*%
%TO.C,D39*%
X163400000Y-129600000D03*
X165500000Y-129600000D03*
%TD*%
D33*
%TO.C,C46*%
X167725000Y-116700000D03*
X169275000Y-116700000D03*
%TD*%
D34*
%TO.C,R17*%
X118675000Y-120700000D03*
X120325000Y-120700000D03*
%TD*%
D25*
%TO.C,R9*%
X151500000Y-89480000D03*
X151500000Y-90500000D03*
%TD*%
D16*
%TO.C,D63*%
X193550000Y-119800000D03*
X195650000Y-119800000D03*
%TD*%
D35*
%TO.C,C9*%
X96400000Y-125420000D03*
X96400000Y-126380000D03*
%TD*%
D26*
%TO.C,C16*%
X115440000Y-129400000D03*
X116400000Y-129400000D03*
%TD*%
D34*
%TO.C,R12*%
X126225000Y-84550000D03*
X127875000Y-84550000D03*
%TD*%
D27*
%TO.C,C35*%
X117000000Y-86275000D03*
X117000000Y-84725000D03*
%TD*%
D33*
%TO.C,C41*%
X211125000Y-113400000D03*
X212675000Y-113400000D03*
%TD*%
D12*
%TO.C,D15*%
X124600000Y-81700000D03*
X122500000Y-81700000D03*
%TD*%
D36*
%TO.C,D8*%
X152300000Y-102750000D03*
X152300000Y-103450000D03*
%TD*%
D17*
%TO.C,C10*%
X96400000Y-129380000D03*
X96400000Y-128420000D03*
%TD*%
D37*
%TO.C,U5*%
X170962500Y-119750000D03*
X170962500Y-120700000D03*
X170962500Y-121650000D03*
X173237500Y-121650000D03*
X173237500Y-119750000D03*
%TD*%
D25*
%TO.C,R6*%
X145500000Y-124490000D03*
X145500000Y-125510000D03*
%TD*%
D23*
%TO.C,C29*%
X106000000Y-86125000D03*
X106000000Y-87675000D03*
%TD*%
D12*
%TO.C,D26*%
X125600000Y-94900000D03*
X123500000Y-94900000D03*
%TD*%
D15*
%TO.C,R7*%
X174110000Y-105500000D03*
X173090000Y-105500000D03*
%TD*%
D16*
%TO.C,D44*%
X109050000Y-104200000D03*
X111150000Y-104200000D03*
%TD*%
D38*
%TO.C,U3*%
X163525000Y-89895000D03*
X163525000Y-91165000D03*
X163525000Y-92435000D03*
X163525000Y-93705000D03*
X168475000Y-93705000D03*
X168475000Y-92435000D03*
X168475000Y-91165000D03*
X168475000Y-89895000D03*
%TD*%
D16*
%TO.C,D61*%
X193600000Y-113900000D03*
X195700000Y-113900000D03*
%TD*%
D39*
%TO.C,C14*%
X99360000Y-129100000D03*
X98400000Y-129100000D03*
%TD*%
D16*
%TO.C,D38*%
X199850000Y-107500000D03*
X201950000Y-107500000D03*
%TD*%
D40*
%TO.C,R32*%
X167290000Y-103800000D03*
X168310000Y-103800000D03*
%TD*%
D12*
%TO.C,D24*%
X142700000Y-95000000D03*
X140600000Y-95000000D03*
%TD*%
D37*
%TO.C,U10*%
X96662500Y-70750000D03*
X96662500Y-71700000D03*
X96662500Y-72650000D03*
X98937500Y-72650000D03*
X98937500Y-70750000D03*
%TD*%
D41*
%TO.C,R8*%
X151500000Y-93610000D03*
X151500000Y-92590000D03*
%TD*%
D23*
%TO.C,C42*%
X208100000Y-112625000D03*
X208100000Y-114175000D03*
%TD*%
D42*
%TO.C,L6*%
X211400000Y-127900000D03*
X214800000Y-127900000D03*
%TD*%
D12*
%TO.C,D35*%
X107950000Y-78300000D03*
X105850000Y-78300000D03*
%TD*%
D36*
%TO.C,D10*%
X152300000Y-111550000D03*
X152300000Y-112250000D03*
%TD*%
D12*
%TO.C,D21*%
X177100000Y-95000000D03*
X175000000Y-95000000D03*
%TD*%
D36*
%TO.C,D7*%
X152300000Y-104950000D03*
X152300000Y-105650000D03*
%TD*%
D25*
%TO.C,R5*%
X127500000Y-122390000D03*
X127500000Y-123410000D03*
%TD*%
D43*
%TO.C,J1*%
X213938750Y-103590000D03*
X213938750Y-97810000D03*
D44*
X212833750Y-101950000D03*
X212833750Y-100950000D03*
D45*
X212833750Y-100450000D03*
X212833750Y-99450000D03*
X212833750Y-98950000D03*
X212833750Y-99950000D03*
D44*
X212833750Y-101450000D03*
X212833750Y-102450000D03*
D46*
X212833750Y-103925000D03*
D47*
X212833750Y-97475000D03*
D48*
X217588750Y-105018000D03*
D49*
X213408750Y-105018000D03*
X213408750Y-96382000D03*
D48*
X217588750Y-96382000D03*
D46*
X212833750Y-103150000D03*
D47*
X212833750Y-98250000D03*
%TD*%
D50*
%TO.C,D3*%
X124800000Y-70500000D03*
X124800000Y-66500000D03*
%TD*%
D40*
%TO.C,R2*%
X214290000Y-107300000D03*
X215310000Y-107300000D03*
%TD*%
D12*
%TO.C,D22*%
X177100000Y-101000000D03*
X175000000Y-101000000D03*
%TD*%
D34*
%TO.C,R13*%
X95975000Y-97400000D03*
X97625000Y-97400000D03*
%TD*%
D16*
%TO.C,D57*%
X175650000Y-129600000D03*
X177750000Y-129600000D03*
%TD*%
%TO.C,D43*%
X113650000Y-107200000D03*
X115750000Y-107200000D03*
%TD*%
D39*
%TO.C,C24*%
X99380000Y-124800000D03*
X98420000Y-124800000D03*
%TD*%
D16*
%TO.C,D56*%
X183550000Y-123000000D03*
X185650000Y-123000000D03*
%TD*%
D18*
%TO.C,Q4*%
X185862500Y-128350000D03*
X185862500Y-130250000D03*
X187737500Y-129300000D03*
%TD*%
D12*
%TO.C,D16*%
X112850000Y-79800000D03*
X110750000Y-79800000D03*
%TD*%
D16*
%TO.C,D47*%
X104550000Y-116000000D03*
X106650000Y-116000000D03*
%TD*%
D11*
%TO.C,R34*%
X200025000Y-119200000D03*
X198375000Y-119200000D03*
%TD*%
D15*
%TO.C,R26*%
X149910000Y-107500000D03*
X148890000Y-107500000D03*
%TD*%
D33*
%TO.C,C23*%
X158425000Y-112500000D03*
X159975000Y-112500000D03*
%TD*%
D51*
%TO.C,D1*%
X118725000Y-124700000D03*
X120300000Y-124700000D03*
%TD*%
D40*
%TO.C,R1*%
X127490000Y-81000000D03*
X128510000Y-81000000D03*
%TD*%
D12*
%TO.C,D29*%
X202650000Y-98000000D03*
X200550000Y-98000000D03*
%TD*%
D18*
%TO.C,Q5*%
X196962500Y-128350000D03*
X196962500Y-130250000D03*
X198837500Y-129300000D03*
%TD*%
D17*
%TO.C,C18*%
X106000000Y-128480000D03*
X106000000Y-127520000D03*
%TD*%
D19*
%TO.C,C28*%
X96175000Y-80700000D03*
X94625000Y-80700000D03*
%TD*%
D52*
%TO.C,BAT-1*%
X204500000Y-113100000D03*
%TD*%
D53*
%TO.C,R21*%
X159500000Y-122325000D03*
X159500000Y-120675000D03*
%TD*%
D26*
%TO.C,C13*%
X97120000Y-131000000D03*
X98080000Y-131000000D03*
%TD*%
D17*
%TO.C,C45*%
X103500000Y-128460000D03*
X103500000Y-127500000D03*
%TD*%
D23*
%TO.C,C1*%
X102800000Y-119725000D03*
X102800000Y-121275000D03*
%TD*%
D16*
%TO.C,D48*%
X183550000Y-119000000D03*
X185650000Y-119000000D03*
%TD*%
D28*
%TO.C,SWRST1*%
X124300000Y-129700000D03*
X127700000Y-126300000D03*
%TD*%
D17*
%TO.C,C12*%
X101300000Y-129380000D03*
X101300000Y-128420000D03*
%TD*%
D19*
%TO.C,C27*%
X99275000Y-94600000D03*
X97725000Y-94600000D03*
%TD*%
D16*
%TO.C,D36*%
X109050000Y-108200000D03*
X111150000Y-108200000D03*
%TD*%
%TO.C,D40*%
X192550000Y-107500000D03*
X194650000Y-107500000D03*
%TD*%
%TO.C,D64*%
X190350000Y-122700000D03*
X192450000Y-122700000D03*
%TD*%
%TO.C,D46*%
X98550000Y-113000000D03*
X100650000Y-113000000D03*
%TD*%
D15*
%TO.C,R28*%
X149910000Y-103200000D03*
X148890000Y-103200000D03*
%TD*%
D16*
%TO.C,D51*%
X126550000Y-119000000D03*
X128650000Y-119000000D03*
%TD*%
D27*
%TO.C,C31*%
X94000000Y-105475000D03*
X94000000Y-103925000D03*
%TD*%
D40*
%TO.C,R4*%
X133580000Y-128100000D03*
X134600000Y-128100000D03*
%TD*%
D54*
%TO.C,X2*%
X210080000Y-108920000D03*
X211920000Y-108920000D03*
X211920000Y-110480000D03*
X210080000Y-110480000D03*
%TD*%
D34*
%TO.C,R16*%
X125675000Y-87700000D03*
X127325000Y-87700000D03*
%TD*%
D19*
%TO.C,C6*%
X100175000Y-116800000D03*
X98625000Y-116800000D03*
%TD*%
D55*
%TO.C,U6*%
X183662500Y-98700000D03*
X183662500Y-99700000D03*
X183662500Y-100700000D03*
X183662500Y-101700000D03*
X183662500Y-102700000D03*
X188937500Y-102700000D03*
X188937500Y-101700000D03*
X188937500Y-100700000D03*
X188937500Y-99700000D03*
X188937500Y-98700000D03*
D56*
X186300000Y-100700000D03*
%TD*%
D12*
%TO.C,D49*%
X178650000Y-119000000D03*
X176550000Y-119000000D03*
%TD*%
D57*
%TO.C,U8*%
X204025000Y-101455000D03*
X204025000Y-102090000D03*
X204025000Y-102725000D03*
X204025000Y-103360000D03*
X204025000Y-103995000D03*
X204025000Y-104630000D03*
X204025000Y-105265000D03*
X204025000Y-105900000D03*
X209300000Y-105900000D03*
X209300000Y-105265000D03*
X209300000Y-104630000D03*
X209300000Y-103995000D03*
X209300000Y-103360000D03*
X209300000Y-102725000D03*
X209300000Y-102090000D03*
X209300000Y-101455000D03*
%TD*%
D53*
%TO.C,R19*%
X96700000Y-107225000D03*
X96700000Y-105575000D03*
%TD*%
D26*
%TO.C,C17*%
X112620000Y-129400000D03*
X113580000Y-129400000D03*
%TD*%
D58*
%TO.C,R10*%
X173000000Y-109075000D03*
X173000000Y-110725000D03*
%TD*%
D50*
%TO.C,D5*%
X216100000Y-119500000D03*
X216100000Y-115500000D03*
%TD*%
D33*
%TO.C,C2*%
X108725000Y-129200000D03*
X110275000Y-129200000D03*
%TD*%
D12*
%TO.C,D27*%
X120050000Y-93000000D03*
X117950000Y-93000000D03*
%TD*%
D16*
%TO.C,D59*%
X163550000Y-126000000D03*
X165650000Y-126000000D03*
%TD*%
D41*
%TO.C,R33*%
X173000000Y-115010000D03*
X173000000Y-113990000D03*
%TD*%
D59*
%TO.C,L5*%
X110300000Y-74600000D03*
X113700000Y-74600000D03*
%TD*%
D12*
%TO.C,D13*%
X138650000Y-89100000D03*
X136550000Y-89100000D03*
%TD*%
D34*
%TO.C,R15*%
X127675000Y-97700000D03*
X129325000Y-97700000D03*
%TD*%
D12*
%TO.C,D17*%
X100150000Y-78000000D03*
X98050000Y-78000000D03*
%TD*%
D16*
%TO.C,D23*%
X145350000Y-88600000D03*
X147450000Y-88600000D03*
%TD*%
D60*
%TO.C,U12*%
X177500000Y-106650000D03*
X177500000Y-107300000D03*
X177500000Y-107950000D03*
X177500000Y-108600000D03*
X177500000Y-109250000D03*
X177500000Y-109900000D03*
X177500000Y-110550000D03*
X177500000Y-111200000D03*
X177500000Y-111850000D03*
X177500000Y-112500000D03*
X177500000Y-113150000D03*
X177500000Y-113800000D03*
X184700000Y-113800000D03*
X184700000Y-113150000D03*
X184700000Y-112500000D03*
X184700000Y-111850000D03*
X184700000Y-111200000D03*
X184700000Y-110550000D03*
X184700000Y-109900000D03*
X184700000Y-109250000D03*
X184700000Y-108600000D03*
X184700000Y-107950000D03*
X184700000Y-107300000D03*
X184700000Y-106650000D03*
%TD*%
D61*
%TO.C,U4*%
X162400000Y-97795000D03*
X162400000Y-99065000D03*
X162400000Y-100335000D03*
X162400000Y-101605000D03*
X169600000Y-101605000D03*
X169600000Y-100335000D03*
X169600000Y-99065000D03*
X169600000Y-97795000D03*
%TD*%
D34*
%TO.C,R22*%
X191675000Y-130100000D03*
X193325000Y-130100000D03*
%TD*%
D23*
%TO.C,C32*%
X95500000Y-113925000D03*
X95500000Y-115475000D03*
%TD*%
D12*
%TO.C,D19*%
X202100000Y-91400000D03*
X200000000Y-91400000D03*
%TD*%
D19*
%TO.C,C33*%
X99175000Y-120700000D03*
X97625000Y-120700000D03*
%TD*%
D16*
%TO.C,D62*%
X190550000Y-116700000D03*
X192650000Y-116700000D03*
%TD*%
D62*
%TO.C,X1*%
X158250000Y-116150000D03*
X160150000Y-116150000D03*
X160150000Y-114650000D03*
X158250000Y-114650000D03*
%TD*%
D12*
%TO.C,D25*%
X133800000Y-95000000D03*
X131700000Y-95000000D03*
%TD*%
D36*
%TO.C,D11*%
X152300000Y-109400000D03*
X152300000Y-110100000D03*
%TD*%
D51*
%TO.C,D2*%
X157912500Y-105500000D03*
X159487500Y-105500000D03*
%TD*%
D17*
%TO.C,C11*%
X101400000Y-126380000D03*
X101400000Y-125420000D03*
%TD*%
D26*
%TO.C,C19*%
X99820000Y-131000000D03*
X100780000Y-131000000D03*
%TD*%
D16*
%TO.C,D53*%
X180550000Y-127000000D03*
X182650000Y-127000000D03*
%TD*%
D63*
%TO.C,SH1*%
X132150000Y-83800000D03*
X132150000Y-83100000D03*
X132150000Y-82400000D03*
X132150000Y-81700000D03*
X132150000Y-81000000D03*
X132150000Y-80300000D03*
X132150000Y-79600000D03*
X132150000Y-78900000D03*
X132150000Y-78200000D03*
X132150000Y-77500000D03*
X132150000Y-76800000D03*
X132150000Y-76100000D03*
X132150000Y-75400000D03*
X132150000Y-74700000D03*
X132150000Y-74000000D03*
X132150000Y-73300000D03*
X132150000Y-72600000D03*
X132150000Y-71900000D03*
X132150000Y-71200000D03*
X132150000Y-70500000D03*
X132150000Y-69800000D03*
X132150000Y-69100000D03*
X132150000Y-68400000D03*
X132150000Y-67700000D03*
%TD*%
D19*
%TO.C,C43*%
X177250000Y-124700000D03*
X175700000Y-124700000D03*
%TD*%
D16*
%TO.C,D58*%
X169550000Y-126000000D03*
X171650000Y-126000000D03*
%TD*%
D26*
%TO.C,C8*%
X146520000Y-119500000D03*
X147480000Y-119500000D03*
%TD*%
D64*
%TO.C,U11*%
X208515000Y-121910000D03*
X209785000Y-121910000D03*
X211065000Y-121910000D03*
X212335000Y-121910000D03*
X212335000Y-116090000D03*
X211065000Y-116090000D03*
X209785000Y-116090000D03*
X208515000Y-116090000D03*
D65*
X210425000Y-119000000D03*
%TD*%
D18*
%TO.C,Q1*%
X154162500Y-89250000D03*
X154162500Y-91150000D03*
X156037500Y-90200000D03*
%TD*%
D34*
%TO.C,R14*%
X99350000Y-81400000D03*
X101000000Y-81400000D03*
%TD*%
D16*
%TO.C,D12*%
X123550000Y-77000000D03*
X125650000Y-77000000D03*
%TD*%
D11*
%TO.C,R35*%
X200225000Y-116700000D03*
X198575000Y-116700000D03*
%TD*%
D16*
%TO.C,D45*%
X115550000Y-116000000D03*
X117650000Y-116000000D03*
%TD*%
D19*
%TO.C,C5*%
X131275000Y-85800000D03*
X129725000Y-85800000D03*
%TD*%
D12*
%TO.C,D37*%
X106800000Y-107200000D03*
X104700000Y-107200000D03*
%TD*%
D41*
%TO.C,R3*%
X210800000Y-99520000D03*
X210800000Y-98500000D03*
%TD*%
D37*
%TO.C,U2*%
X119900000Y-86750000D03*
X119900000Y-87700000D03*
X119900000Y-88650000D03*
X122175000Y-88650000D03*
X122175000Y-86750000D03*
%TD*%
D12*
%TO.C,D34*%
X118450000Y-77900000D03*
X116350000Y-77900000D03*
%TD*%
D28*
%TO.C,SWBOOT1*%
X139300000Y-129700000D03*
X142700000Y-126300000D03*
%TD*%
D26*
%TO.C,C26*%
X123420000Y-73500000D03*
X124380000Y-73500000D03*
%TD*%
D20*
%TO.C,L4*%
X158215000Y-108900000D03*
X159185000Y-108900000D03*
%TD*%
D15*
%TO.C,R31*%
X149910000Y-108700000D03*
X148890000Y-108700000D03*
%TD*%
D18*
%TO.C,Q2*%
X154162500Y-95050000D03*
X154162500Y-96950000D03*
X156037500Y-96000000D03*
%TD*%
D66*
%TO.C,C39*%
X197500000Y-123500000D03*
X199400000Y-123500000D03*
%TD*%
D36*
%TO.C,D6*%
X152300000Y-107200000D03*
X152300000Y-107900000D03*
%TD*%
D33*
%TO.C,C36*%
X139725000Y-123000000D03*
X141275000Y-123000000D03*
%TD*%
D16*
%TO.C,D52*%
X169550000Y-129600000D03*
X171650000Y-129600000D03*
%TD*%
%TO.C,D60*%
X190600000Y-110900000D03*
X192700000Y-110900000D03*
%TD*%
D67*
%TO.C,U7*%
X154600000Y-130200000D03*
X149200000Y-130200000D03*
%TD*%
D23*
%TO.C,C38*%
X181700000Y-129625000D03*
X181700000Y-131175000D03*
%TD*%
D68*
%TO.C,U1*%
X162550000Y-106400000D03*
X162550000Y-106800000D03*
X162550000Y-107200000D03*
X162550000Y-107600000D03*
X162550000Y-108000000D03*
X162550000Y-108400000D03*
X162550000Y-108800000D03*
X162550000Y-109200000D03*
X162550000Y-109600000D03*
X162550000Y-110000000D03*
X162550000Y-110400000D03*
X162550000Y-110800000D03*
X162550000Y-111200000D03*
X162550000Y-111600000D03*
D69*
X163400000Y-112450000D03*
X163800000Y-112450000D03*
X164200000Y-112450000D03*
X164600000Y-112450000D03*
X165000000Y-112450000D03*
X165400000Y-112450000D03*
X165800000Y-112450000D03*
X166200000Y-112450000D03*
X166600000Y-112450000D03*
X167000000Y-112450000D03*
X167400000Y-112450000D03*
X167800000Y-112450000D03*
X168200000Y-112450000D03*
X168600000Y-112450000D03*
D68*
X169450000Y-111600000D03*
X169450000Y-111200000D03*
X169450000Y-110800000D03*
X169450000Y-110400000D03*
X169450000Y-110000000D03*
X169450000Y-109600000D03*
X169450000Y-109200000D03*
X169450000Y-108800000D03*
X169450000Y-108400000D03*
X169450000Y-108000000D03*
X169450000Y-107600000D03*
X169450000Y-107200000D03*
X169450000Y-106800000D03*
X169450000Y-106400000D03*
D69*
X168600000Y-105550000D03*
X168200000Y-105550000D03*
X167800000Y-105550000D03*
X167400000Y-105550000D03*
X167000000Y-105550000D03*
X166600000Y-105550000D03*
X166200000Y-105550000D03*
X165800000Y-105550000D03*
X165400000Y-105550000D03*
X165000000Y-105550000D03*
X164600000Y-105550000D03*
X164200000Y-105550000D03*
X163800000Y-105550000D03*
X163400000Y-105550000D03*
D70*
X166000000Y-109000000D03*
%TD*%
D58*
%TO.C,R11*%
X117500000Y-88975000D03*
X117500000Y-90625000D03*
%TD*%
D16*
%TO.C,D18*%
X207250000Y-91400000D03*
X209350000Y-91400000D03*
%TD*%
D26*
%TO.C,C21*%
X98400000Y-126900000D03*
X99360000Y-126900000D03*
%TD*%
D23*
%TO.C,C30*%
X106000000Y-90025000D03*
X106000000Y-91575000D03*
%TD*%
D16*
%TO.C,D28*%
X206950000Y-98000000D03*
X209050000Y-98000000D03*
%TD*%
D27*
%TO.C,C37*%
X106100000Y-75275000D03*
X106100000Y-73725000D03*
%TD*%
D20*
%TO.C,L3*%
X135515000Y-121500000D03*
X136485000Y-121500000D03*
%TD*%
D17*
%TO.C,C15*%
X172500000Y-97480000D03*
X172500000Y-96520000D03*
%TD*%
D15*
%TO.C,R27*%
X149910000Y-105300000D03*
X148890000Y-105300000D03*
%TD*%
D12*
%TO.C,D30*%
X194550000Y-98000000D03*
X192450000Y-98000000D03*
%TD*%
D52*
%TO.C,BAT+1*%
X204500000Y-119100000D03*
%TD*%
D16*
%TO.C,D55*%
X203150000Y-126900000D03*
X205250000Y-126900000D03*
%TD*%
D36*
%TO.C,D9*%
X152300000Y-100550000D03*
X152300000Y-101250000D03*
%TD*%
D15*
%TO.C,R29*%
X149910000Y-102100000D03*
X148890000Y-102100000D03*
%TD*%
M02*
