M48
; DRILL file {KiCad 8.0.5-unknown-202409261835~48b9027842~ubuntu24.04.1} date 2024-10-03T20:36:13+0800
; FORMAT={-:-/ absolute / inch / decimal}
; #@! TF.CreationDate,2024-10-03T20:36:13+08:00
; #@! TF.GenerationSoftware,Kicad,Pcbnew,8.0.5-unknown-202409261835~48b9027842~ubuntu24.04.1
; #@! TF.FileFunction,Plated,2,4,Blind
FMAT,2
INCH
; #@! TA.AperFunction,Plated,Buried,ViaDrill
T1C0.0118
%
G90
G05
T1
X4.0984Y-4.7638
X4.1339Y-4.6496
X4.1378Y-4.9335
X4.4291Y-3.4409
X4.5669Y-3.6811
X4.6614Y-3.5472
X4.7126Y-3.5748
X4.7835Y-3.2402
X4.7992Y-3.8386
X4.8976Y-3.4331
X4.9646Y-3.6866
X5.2402Y-3.6575
X5.3306Y-4.5906
X5.5Y-3.2756
X5.5315Y-2.9134
X5.8346Y-4.9744
X6.122Y-3.9567
X6.122Y-4.0394
X6.252Y-3.6929
X6.2835Y-3.8425
X6.3976Y-3.6614
X6.5394Y-4.9055
X6.7096Y-4.5945
X6.9055Y-3.4567
X6.9764Y-4.8268
X7.0827Y-4.9488
X7.122Y-4.685
X7.1969Y-4.9488
X7.4449Y-3.8189
X7.4764Y-4.0748
M30
