%TF.GenerationSoftware,KiCad,Pcbnew,8.0.5-8.0.5-0~ubuntu24.04.1*%
%TF.CreationDate,2024-10-12T02:18:59+08:00*%
%TF.ProjectId,EL6170_Pro_Max_Plus,454c3631-3730-45f5-9072-6f5f4d61785f,rev?*%
%TF.SameCoordinates,Original*%
%TF.FileFunction,Drillmap*%
%TF.FilePolarity,Positive*%
%FSLAX45Y45*%
G04 Gerber Fmt 4.5, Leading zero omitted, Abs format (unit mm)*
G04 Created by KiCad (PCBNEW 8.0.5-8.0.5-0~ubuntu24.04.1) date 2024-10-12 02:18:59*
%MOMM*%
%LPD*%
G01*
G04 APERTURE LIST*
%ADD10C,0.050000*%
%ADD11C,0.200000*%
%ADD12C,0.100000*%
%ADD13C,0.130000*%
G04 APERTURE END LIST*
D10*
X9380000Y-12460000D02*
X9290000Y-12460000D01*
X21550000Y-13300000D02*
X9490000Y-13300000D01*
X9200000Y-12710000D02*
X9200000Y-13010000D01*
X15220000Y-8650000D02*
X21920000Y-8650000D01*
X20100000Y-11300000D02*
G75*
G02*
X19900000Y-11300000I-100000J0D01*
G01*
X19900000Y-11300000D02*
G75*
G02*
X20100000Y-11300000I100000J0D01*
G01*
X15140000Y-6330000D02*
X15160000Y-6350000D01*
X15000000Y-6250000D02*
X15000000Y-6330000D01*
X9290000Y-11610000D02*
X9200000Y-11610000D01*
X18200000Y-12380000D02*
G75*
G02*
X18000000Y-12380000I-100000J0D01*
G01*
X18000000Y-12380000D02*
G75*
G02*
X18200000Y-12380000I100000J0D01*
G01*
X9600000Y-6550000D02*
G75*
G02*
X9400000Y-6550000I-100000J0D01*
G01*
X9400000Y-6550000D02*
G75*
G02*
X9600000Y-6550000I100000J0D01*
G01*
X21900000Y-12500000D02*
X21900000Y-12950000D01*
X15220000Y-8650000D02*
G75*
G02*
X15160000Y-8590000I0J60000D01*
G01*
X14520000Y-6530000D02*
G75*
G02*
X14320000Y-6530000I-100000J0D01*
G01*
X14320000Y-6530000D02*
G75*
G02*
X14520000Y-6530000I100000J0D01*
G01*
X9290000Y-12260000D02*
X9290000Y-11610000D01*
X11800000Y-6250000D02*
X9300000Y-6250000D01*
X22000000Y-9250000D02*
X21900000Y-9250000D01*
X20690000Y-13150000D02*
G75*
G02*
X20510000Y-13150000I-90000J0D01*
G01*
X20510000Y-13150000D02*
G75*
G02*
X20690000Y-13150000I90000J0D01*
G01*
X21900000Y-9250000D02*
X21900000Y-12200000D01*
X10000000Y-6650000D02*
G75*
G02*
X9800000Y-6650000I-100000J0D01*
G01*
X9800000Y-6650000D02*
G75*
G02*
X10000000Y-6650000I100000J0D01*
G01*
X12550000Y-11410000D02*
G75*
G02*
X12350000Y-11410000I-100000J0D01*
G01*
X12350000Y-11410000D02*
G75*
G02*
X12550000Y-11410000I100000J0D01*
G01*
X9380000Y-12260000D02*
G75*
G02*
X9380000Y-12460000I0J-100000D01*
G01*
X11290000Y-12560000D02*
G75*
G02*
X11110000Y-12560000I-90000J0D01*
G01*
X11110000Y-12560000D02*
G75*
G02*
X11290000Y-12560000I90000J0D01*
G01*
X9490000Y-13300000D02*
X9200000Y-13010000D01*
X9200000Y-6350000D02*
X9200000Y-6950000D01*
X20900000Y-12600000D02*
G75*
G02*
X20700000Y-12600000I-100000J0D01*
G01*
X20700000Y-12600000D02*
G75*
G02*
X20900000Y-12600000I100000J0D01*
G01*
X13200000Y-12360000D02*
G75*
G02*
X13000000Y-12360000I-100000J0D01*
G01*
X13000000Y-12360000D02*
G75*
G02*
X13200000Y-12360000I100000J0D01*
G01*
X9380000Y-12260000D02*
X9290000Y-12260000D01*
X9290000Y-12460000D02*
X9290000Y-12710000D01*
X20800000Y-9450000D02*
G75*
G02*
X20400000Y-9450000I-200000J0D01*
G01*
X20400000Y-9450000D02*
G75*
G02*
X20800000Y-9450000I200000J0D01*
G01*
X21900000Y-12500000D02*
G75*
G02*
X21900000Y-12200000I0J150000D01*
G01*
X13020000Y-6530000D02*
G75*
G02*
X12820000Y-6530000I-100000J0D01*
G01*
X12820000Y-6530000D02*
G75*
G02*
X13020000Y-6530000I100000J0D01*
G01*
X9200000Y-6950000D02*
X9290000Y-6950000D01*
X9200000Y-11610000D02*
X9200000Y-8050000D01*
X18140000Y-12080000D02*
G75*
G02*
X17960000Y-12080000I-90000J0D01*
G01*
X17960000Y-12080000D02*
G75*
G02*
X18140000Y-12080000I90000J0D01*
G01*
X9480000Y-11000000D02*
G75*
G02*
X9280000Y-11000000I-100000J0D01*
G01*
X9280000Y-11000000D02*
G75*
G02*
X9480000Y-11000000I100000J0D01*
G01*
X9290000Y-6950000D02*
X9290000Y-8050000D01*
X9480000Y-9500000D02*
G75*
G02*
X9280000Y-9500000I-100000J0D01*
G01*
X9280000Y-9500000D02*
G75*
G02*
X9480000Y-9500000I100000J0D01*
G01*
X15000000Y-6330000D02*
X15140000Y-6330000D01*
X9290000Y-8050000D02*
X9200000Y-8050000D01*
X21900000Y-12950000D02*
X21550000Y-13300000D01*
X15000000Y-6250000D02*
X12200000Y-6250000D01*
X10700000Y-12360000D02*
G75*
G02*
X10500000Y-12360000I-100000J0D01*
G01*
X10500000Y-12360000D02*
G75*
G02*
X10700000Y-12360000I100000J0D01*
G01*
X12200000Y-6490000D02*
G75*
G02*
X11800000Y-6490000I-200000J0D01*
G01*
X9200000Y-12710000D02*
X9290000Y-12710000D01*
X9200000Y-6350000D02*
X9300000Y-6250000D01*
X15700000Y-12360000D02*
G75*
G02*
X15500000Y-12360000I-100000J0D01*
G01*
X15500000Y-12360000D02*
G75*
G02*
X15700000Y-12360000I100000J0D01*
G01*
X16840000Y-12080000D02*
G75*
G02*
X16660000Y-12080000I-90000J0D01*
G01*
X16660000Y-12080000D02*
G75*
G02*
X16840000Y-12080000I90000J0D01*
G01*
X19640000Y-12590000D02*
G75*
G02*
X19460000Y-12590000I-90000J0D01*
G01*
X19460000Y-12590000D02*
G75*
G02*
X19640000Y-12590000I90000J0D01*
G01*
X15160000Y-6610000D02*
X15160000Y-8590000D01*
X15160000Y-6350000D02*
X15160000Y-6450000D01*
X11800000Y-6490000D02*
X11800000Y-6250000D01*
X21920000Y-8650000D02*
X22000000Y-8730000D01*
X12200000Y-6490000D02*
X12200000Y-6250000D01*
X21820000Y-11000000D02*
G75*
G02*
X21420000Y-11000000I-200000J0D01*
G01*
X21420000Y-11000000D02*
G75*
G02*
X21820000Y-11000000I200000J0D01*
G01*
X22000000Y-8730000D02*
X22000000Y-9250000D01*
X15160000Y-6610000D02*
G75*
G02*
X15160000Y-6450000I60000J80000D01*
G01*
D11*
D12*
X13899561Y-10400000D02*
X13919561Y-10420000D01*
X13919561Y-10400000D02*
X13899561Y-10420000D01*
X13899561Y-10540000D02*
X13919561Y-10560000D01*
X13919561Y-10540000D02*
X13899561Y-10560000D01*
X13969561Y-10330000D02*
X13989561Y-10350000D01*
X13989561Y-10330000D02*
X13969561Y-10350000D01*
X13969561Y-10470000D02*
X13989561Y-10490000D01*
X13989561Y-10470000D02*
X13969561Y-10490000D01*
X13969561Y-10610000D02*
X13989561Y-10630000D01*
X13989561Y-10610000D02*
X13969561Y-10630000D01*
X14039561Y-10400000D02*
X14059561Y-10420000D01*
X14059561Y-10400000D02*
X14039561Y-10420000D01*
X14039561Y-10540000D02*
X14059561Y-10560000D01*
X14059561Y-10540000D02*
X14039561Y-10560000D01*
X14109561Y-10330000D02*
X14129561Y-10350000D01*
X14129561Y-10330000D02*
X14109561Y-10350000D01*
X14109561Y-10470000D02*
X14129561Y-10490000D01*
X14129561Y-10470000D02*
X14109561Y-10490000D01*
X14109561Y-10610000D02*
X14129561Y-10630000D01*
X14129561Y-10610000D02*
X14109561Y-10630000D01*
X14179561Y-10400000D02*
X14199561Y-10420000D01*
X14199561Y-10400000D02*
X14179561Y-10420000D01*
X14179561Y-10540000D02*
X14199561Y-10560000D01*
X14199561Y-10540000D02*
X14179561Y-10560000D01*
X9340000Y-6395000D02*
G75*
G02*
X9310000Y-6395000I-15000J0D01*
G01*
X9310000Y-6395000D02*
G75*
G02*
X9340000Y-6395000I15000J0D01*
G01*
X9400000Y-12160000D02*
G75*
G02*
X9370000Y-12160000I-15000J0D01*
G01*
X9370000Y-12160000D02*
G75*
G02*
X9400000Y-12160000I15000J0D01*
G01*
X9415000Y-11600000D02*
G75*
G02*
X9385000Y-11600000I-15000J0D01*
G01*
X9385000Y-11600000D02*
G75*
G02*
X9415000Y-11600000I15000J0D01*
G01*
X9455000Y-12080000D02*
G75*
G02*
X9425000Y-12080000I-15000J0D01*
G01*
X9425000Y-12080000D02*
G75*
G02*
X9455000Y-12080000I15000J0D01*
G01*
X9475000Y-11970000D02*
G75*
G02*
X9445000Y-11970000I-15000J0D01*
G01*
X9445000Y-11970000D02*
G75*
G02*
X9475000Y-11970000I15000J0D01*
G01*
X9540000Y-6865000D02*
G75*
G02*
X9510000Y-6865000I-15000J0D01*
G01*
X9510000Y-6865000D02*
G75*
G02*
X9540000Y-6865000I15000J0D01*
G01*
X9605000Y-7550000D02*
G75*
G02*
X9575000Y-7550000I-15000J0D01*
G01*
X9575000Y-7550000D02*
G75*
G02*
X9605000Y-7550000I15000J0D01*
G01*
X9605000Y-7750000D02*
G75*
G02*
X9575000Y-7750000I-15000J0D01*
G01*
X9575000Y-7750000D02*
G75*
G02*
X9605000Y-7750000I15000J0D01*
G01*
X9605000Y-12190000D02*
G75*
G02*
X9575000Y-12190000I-15000J0D01*
G01*
X9575000Y-12190000D02*
G75*
G02*
X9605000Y-12190000I15000J0D01*
G01*
X9605000Y-12265000D02*
G75*
G02*
X9575000Y-12265000I-15000J0D01*
G01*
X9575000Y-12265000D02*
G75*
G02*
X9605000Y-12265000I15000J0D01*
G01*
X9710000Y-6595000D02*
G75*
G02*
X9680000Y-6595000I-15000J0D01*
G01*
X9680000Y-6595000D02*
G75*
G02*
X9710000Y-6595000I15000J0D01*
G01*
X9715000Y-11700000D02*
G75*
G02*
X9685000Y-11700000I-15000J0D01*
G01*
X9685000Y-11700000D02*
G75*
G02*
X9715000Y-11700000I15000J0D01*
G01*
X9800000Y-12475000D02*
G75*
G02*
X9770000Y-12475000I-15000J0D01*
G01*
X9770000Y-12475000D02*
G75*
G02*
X9800000Y-12475000I15000J0D01*
G01*
X9805000Y-10920000D02*
G75*
G02*
X9775000Y-10920000I-15000J0D01*
G01*
X9775000Y-10920000D02*
G75*
G02*
X9805000Y-10920000I15000J0D01*
G01*
X9945000Y-12425000D02*
G75*
G02*
X9915000Y-12425000I-15000J0D01*
G01*
X9915000Y-12425000D02*
G75*
G02*
X9945000Y-12425000I15000J0D01*
G01*
X10015000Y-12300000D02*
G75*
G02*
X9985000Y-12300000I-15000J0D01*
G01*
X9985000Y-12300000D02*
G75*
G02*
X10015000Y-12300000I15000J0D01*
G01*
X10045000Y-10920000D02*
G75*
G02*
X10015000Y-10920000I-15000J0D01*
G01*
X10015000Y-10920000D02*
G75*
G02*
X10045000Y-10920000I15000J0D01*
G01*
X10045000Y-11330000D02*
G75*
G02*
X10015000Y-11330000I-15000J0D01*
G01*
X10015000Y-11330000D02*
G75*
G02*
X10045000Y-11330000I15000J0D01*
G01*
X10100000Y-12470000D02*
G75*
G02*
X10070000Y-12470000I-15000J0D01*
G01*
X10070000Y-12470000D02*
G75*
G02*
X10100000Y-12470000I15000J0D01*
G01*
X10135000Y-8200000D02*
G75*
G02*
X10105000Y-8200000I-15000J0D01*
G01*
X10105000Y-8200000D02*
G75*
G02*
X10135000Y-8200000I15000J0D01*
G01*
X10195000Y-11130000D02*
G75*
G02*
X10165000Y-11130000I-15000J0D01*
G01*
X10165000Y-11130000D02*
G75*
G02*
X10195000Y-11130000I15000J0D01*
G01*
X10205000Y-11330000D02*
G75*
G02*
X10175000Y-11330000I-15000J0D01*
G01*
X10175000Y-11330000D02*
G75*
G02*
X10205000Y-11330000I15000J0D01*
G01*
X10265000Y-7250000D02*
G75*
G02*
X10235000Y-7250000I-15000J0D01*
G01*
X10235000Y-7250000D02*
G75*
G02*
X10265000Y-7250000I15000J0D01*
G01*
X10275000Y-8100000D02*
G75*
G02*
X10245000Y-8100000I-15000J0D01*
G01*
X10245000Y-8100000D02*
G75*
G02*
X10275000Y-8100000I15000J0D01*
G01*
X10275000Y-8200000D02*
G75*
G02*
X10245000Y-8200000I-15000J0D01*
G01*
X10245000Y-8200000D02*
G75*
G02*
X10275000Y-8200000I15000J0D01*
G01*
X10275000Y-8360000D02*
G75*
G02*
X10245000Y-8360000I-15000J0D01*
G01*
X10245000Y-8360000D02*
G75*
G02*
X10275000Y-8360000I15000J0D01*
G01*
X10335000Y-7290000D02*
G75*
G02*
X10305000Y-7290000I-15000J0D01*
G01*
X10305000Y-7290000D02*
G75*
G02*
X10335000Y-7290000I15000J0D01*
G01*
X10445000Y-8800000D02*
G75*
G02*
X10415000Y-8800000I-15000J0D01*
G01*
X10415000Y-8800000D02*
G75*
G02*
X10445000Y-8800000I15000J0D01*
G01*
X10465000Y-7730000D02*
G75*
G02*
X10435000Y-7730000I-15000J0D01*
G01*
X10435000Y-7730000D02*
G75*
G02*
X10465000Y-7730000I15000J0D01*
G01*
X10545000Y-7120000D02*
G75*
G02*
X10515000Y-7120000I-15000J0D01*
G01*
X10515000Y-7120000D02*
G75*
G02*
X10545000Y-7120000I15000J0D01*
G01*
X10565000Y-7552500D02*
G75*
G02*
X10535000Y-7552500I-15000J0D01*
G01*
X10535000Y-7552500D02*
G75*
G02*
X10565000Y-7552500I15000J0D01*
G01*
X10565568Y-7690779D02*
G75*
G02*
X10535568Y-7690779I-15000J0D01*
G01*
X10535568Y-7690779D02*
G75*
G02*
X10565568Y-7690779I15000J0D01*
G01*
X10575000Y-12020000D02*
G75*
G02*
X10545000Y-12020000I-15000J0D01*
G01*
X10545000Y-12020000D02*
G75*
G02*
X10575000Y-12020000I15000J0D01*
G01*
X10595000Y-7015000D02*
G75*
G02*
X10565000Y-7015000I-15000J0D01*
G01*
X10565000Y-7015000D02*
G75*
G02*
X10595000Y-7015000I15000J0D01*
G01*
X10605000Y-7280000D02*
G75*
G02*
X10575000Y-7280000I-15000J0D01*
G01*
X10575000Y-7280000D02*
G75*
G02*
X10605000Y-7280000I15000J0D01*
G01*
X10615000Y-8200000D02*
G75*
G02*
X10585000Y-8200000I-15000J0D01*
G01*
X10585000Y-8200000D02*
G75*
G02*
X10615000Y-8200000I15000J0D01*
G01*
X10635000Y-7480000D02*
G75*
G02*
X10605000Y-7480000I-15000J0D01*
G01*
X10605000Y-7480000D02*
G75*
G02*
X10635000Y-7480000I15000J0D01*
G01*
X10645000Y-8850000D02*
G75*
G02*
X10615000Y-8850000I-15000J0D01*
G01*
X10615000Y-8850000D02*
G75*
G02*
X10645000Y-8850000I15000J0D01*
G01*
X10675000Y-8270000D02*
G75*
G02*
X10645000Y-8270000I-15000J0D01*
G01*
X10645000Y-8270000D02*
G75*
G02*
X10675000Y-8270000I15000J0D01*
G01*
X10685000Y-7058542D02*
G75*
G02*
X10655000Y-7058542I-15000J0D01*
G01*
X10655000Y-7058542D02*
G75*
G02*
X10685000Y-7058542I15000J0D01*
G01*
X10705000Y-8780000D02*
G75*
G02*
X10675000Y-8780000I-15000J0D01*
G01*
X10675000Y-8780000D02*
G75*
G02*
X10705000Y-8780000I15000J0D01*
G01*
X10715000Y-7820000D02*
G75*
G02*
X10685000Y-7820000I-15000J0D01*
G01*
X10685000Y-7820000D02*
G75*
G02*
X10715000Y-7820000I15000J0D01*
G01*
X10725000Y-12100000D02*
G75*
G02*
X10695000Y-12100000I-15000J0D01*
G01*
X10695000Y-12100000D02*
G75*
G02*
X10725000Y-12100000I15000J0D01*
G01*
X10733477Y-7481640D02*
G75*
G02*
X10703477Y-7481640I-15000J0D01*
G01*
X10703477Y-7481640D02*
G75*
G02*
X10733477Y-7481640I15000J0D01*
G01*
X10735000Y-7370000D02*
G75*
G02*
X10705000Y-7370000I-15000J0D01*
G01*
X10705000Y-7370000D02*
G75*
G02*
X10735000Y-7370000I15000J0D01*
G01*
X10745000Y-8080000D02*
G75*
G02*
X10715000Y-8080000I-15000J0D01*
G01*
X10715000Y-8080000D02*
G75*
G02*
X10745000Y-8080000I15000J0D01*
G01*
X10745000Y-8170000D02*
G75*
G02*
X10715000Y-8170000I-15000J0D01*
G01*
X10715000Y-8170000D02*
G75*
G02*
X10745000Y-8170000I15000J0D01*
G01*
X10745000Y-8340000D02*
G75*
G02*
X10715000Y-8340000I-15000J0D01*
G01*
X10715000Y-8340000D02*
G75*
G02*
X10745000Y-8340000I15000J0D01*
G01*
X10795000Y-8410000D02*
G75*
G02*
X10765000Y-8410000I-15000J0D01*
G01*
X10765000Y-8410000D02*
G75*
G02*
X10795000Y-8410000I15000J0D01*
G01*
X10815000Y-9610000D02*
G75*
G02*
X10785000Y-9610000I-15000J0D01*
G01*
X10785000Y-9610000D02*
G75*
G02*
X10815000Y-9610000I15000J0D01*
G01*
X10815000Y-11900000D02*
G75*
G02*
X10785000Y-11900000I-15000J0D01*
G01*
X10785000Y-11900000D02*
G75*
G02*
X10815000Y-11900000I15000J0D01*
G01*
X10835000Y-10380000D02*
G75*
G02*
X10805000Y-10380000I-15000J0D01*
G01*
X10805000Y-10380000D02*
G75*
G02*
X10835000Y-10380000I15000J0D01*
G01*
X10845000Y-8170000D02*
G75*
G02*
X10815000Y-8170000I-15000J0D01*
G01*
X10815000Y-8170000D02*
G75*
G02*
X10845000Y-8170000I15000J0D01*
G01*
X10855000Y-8480000D02*
G75*
G02*
X10825000Y-8480000I-15000J0D01*
G01*
X10825000Y-8480000D02*
G75*
G02*
X10855000Y-8480000I15000J0D01*
G01*
X10870000Y-7125000D02*
G75*
G02*
X10840000Y-7125000I-15000J0D01*
G01*
X10840000Y-7125000D02*
G75*
G02*
X10870000Y-7125000I15000J0D01*
G01*
X10895000Y-8080000D02*
G75*
G02*
X10865000Y-8080000I-15000J0D01*
G01*
X10865000Y-8080000D02*
G75*
G02*
X10895000Y-8080000I15000J0D01*
G01*
X10915000Y-11700000D02*
G75*
G02*
X10885000Y-11700000I-15000J0D01*
G01*
X10885000Y-11700000D02*
G75*
G02*
X10915000Y-11700000I15000J0D01*
G01*
X10935000Y-10770000D02*
G75*
G02*
X10905000Y-10770000I-15000J0D01*
G01*
X10905000Y-10770000D02*
G75*
G02*
X10935000Y-10770000I15000J0D01*
G01*
X11015000Y-8190000D02*
G75*
G02*
X10985000Y-8190000I-15000J0D01*
G01*
X10985000Y-8190000D02*
G75*
G02*
X11015000Y-8190000I15000J0D01*
G01*
X11015000Y-11500000D02*
G75*
G02*
X10985000Y-11500000I-15000J0D01*
G01*
X10985000Y-11500000D02*
G75*
G02*
X11015000Y-11500000I15000J0D01*
G01*
X11035000Y-9620000D02*
G75*
G02*
X11005000Y-9620000I-15000J0D01*
G01*
X11005000Y-9620000D02*
G75*
G02*
X11035000Y-9620000I15000J0D01*
G01*
X11065000Y-12330000D02*
G75*
G02*
X11035000Y-12330000I-15000J0D01*
G01*
X11035000Y-12330000D02*
G75*
G02*
X11065000Y-12330000I15000J0D01*
G01*
X11075000Y-7130000D02*
G75*
G02*
X11045000Y-7130000I-15000J0D01*
G01*
X11045000Y-7130000D02*
G75*
G02*
X11075000Y-7130000I15000J0D01*
G01*
X11100000Y-6925000D02*
G75*
G02*
X11070000Y-6925000I-15000J0D01*
G01*
X11070000Y-6925000D02*
G75*
G02*
X11100000Y-6925000I15000J0D01*
G01*
X11125000Y-7950000D02*
G75*
G02*
X11095000Y-7950000I-15000J0D01*
G01*
X11095000Y-7950000D02*
G75*
G02*
X11125000Y-7950000I15000J0D01*
G01*
X11145000Y-8080000D02*
G75*
G02*
X11115000Y-8080000I-15000J0D01*
G01*
X11115000Y-8080000D02*
G75*
G02*
X11145000Y-8080000I15000J0D01*
G01*
X11145000Y-8200000D02*
G75*
G02*
X11115000Y-8200000I-15000J0D01*
G01*
X11115000Y-8200000D02*
G75*
G02*
X11145000Y-8200000I15000J0D01*
G01*
X11195000Y-10380000D02*
G75*
G02*
X11165000Y-10380000I-15000J0D01*
G01*
X11165000Y-10380000D02*
G75*
G02*
X11195000Y-10380000I15000J0D01*
G01*
X11195000Y-10570000D02*
G75*
G02*
X11165000Y-10570000I-15000J0D01*
G01*
X11165000Y-10570000D02*
G75*
G02*
X11195000Y-10570000I15000J0D01*
G01*
X11215000Y-9600000D02*
G75*
G02*
X11185000Y-9600000I-15000J0D01*
G01*
X11185000Y-9600000D02*
G75*
G02*
X11215000Y-9600000I15000J0D01*
G01*
X11235000Y-8270000D02*
G75*
G02*
X11205000Y-8270000I-15000J0D01*
G01*
X11205000Y-8270000D02*
G75*
G02*
X11235000Y-8270000I15000J0D01*
G01*
X11265000Y-12800000D02*
G75*
G02*
X11235000Y-12800000I-15000J0D01*
G01*
X11235000Y-12800000D02*
G75*
G02*
X11265000Y-12800000I15000J0D01*
G01*
X11275000Y-7125000D02*
G75*
G02*
X11245000Y-7125000I-15000J0D01*
G01*
X11245000Y-7125000D02*
G75*
G02*
X11275000Y-7125000I15000J0D01*
G01*
X11415000Y-12510000D02*
G75*
G02*
X11385000Y-12510000I-15000J0D01*
G01*
X11385000Y-12510000D02*
G75*
G02*
X11415000Y-12510000I15000J0D01*
G01*
X11435000Y-8080000D02*
G75*
G02*
X11405000Y-8080000I-15000J0D01*
G01*
X11405000Y-8080000D02*
G75*
G02*
X11435000Y-8080000I15000J0D01*
G01*
X11485000Y-8470000D02*
G75*
G02*
X11455000Y-8470000I-15000J0D01*
G01*
X11455000Y-8470000D02*
G75*
G02*
X11485000Y-8470000I15000J0D01*
G01*
X11515000Y-9500000D02*
G75*
G02*
X11485000Y-9500000I-15000J0D01*
G01*
X11485000Y-9500000D02*
G75*
G02*
X11515000Y-9500000I15000J0D01*
G01*
X11515000Y-11000000D02*
G75*
G02*
X11485000Y-11000000I-15000J0D01*
G01*
X11485000Y-11000000D02*
G75*
G02*
X11515000Y-11000000I15000J0D01*
G01*
X11565000Y-8520000D02*
G75*
G02*
X11535000Y-8520000I-15000J0D01*
G01*
X11535000Y-8520000D02*
G75*
G02*
X11565000Y-8520000I15000J0D01*
G01*
X11565000Y-8710000D02*
G75*
G02*
X11535000Y-8710000I-15000J0D01*
G01*
X11535000Y-8710000D02*
G75*
G02*
X11565000Y-8710000I15000J0D01*
G01*
X11577450Y-9550000D02*
G75*
G02*
X11547450Y-9550000I-15000J0D01*
G01*
X11547450Y-9550000D02*
G75*
G02*
X11577450Y-9550000I15000J0D01*
G01*
X11605000Y-10270000D02*
G75*
G02*
X11575000Y-10270000I-15000J0D01*
G01*
X11575000Y-10270000D02*
G75*
G02*
X11605000Y-10270000I15000J0D01*
G01*
X11635000Y-11400000D02*
G75*
G02*
X11605000Y-11400000I-15000J0D01*
G01*
X11605000Y-11400000D02*
G75*
G02*
X11635000Y-11400000I15000J0D01*
G01*
X11645000Y-9990000D02*
G75*
G02*
X11615000Y-9990000I-15000J0D01*
G01*
X11615000Y-9990000D02*
G75*
G02*
X11645000Y-9990000I15000J0D01*
G01*
X11655000Y-10190000D02*
G75*
G02*
X11625000Y-10190000I-15000J0D01*
G01*
X11625000Y-10190000D02*
G75*
G02*
X11655000Y-10190000I15000J0D01*
G01*
X11655000Y-11940000D02*
G75*
G02*
X11625000Y-11940000I-15000J0D01*
G01*
X11625000Y-11940000D02*
G75*
G02*
X11655000Y-11940000I15000J0D01*
G01*
X11655000Y-12100000D02*
G75*
G02*
X11625000Y-12100000I-15000J0D01*
G01*
X11625000Y-12100000D02*
G75*
G02*
X11655000Y-12100000I15000J0D01*
G01*
X11705000Y-8600000D02*
G75*
G02*
X11675000Y-8600000I-15000J0D01*
G01*
X11675000Y-8600000D02*
G75*
G02*
X11705000Y-8600000I15000J0D01*
G01*
X11707426Y-8157573D02*
G75*
G02*
X11677426Y-8157573I-15000J0D01*
G01*
X11677426Y-8157573D02*
G75*
G02*
X11707426Y-8157573I15000J0D01*
G01*
X11715000Y-7620000D02*
G75*
G02*
X11685000Y-7620000I-15000J0D01*
G01*
X11685000Y-7620000D02*
G75*
G02*
X11715000Y-7620000I15000J0D01*
G01*
X11715000Y-8250000D02*
G75*
G02*
X11685000Y-8250000I-15000J0D01*
G01*
X11685000Y-8250000D02*
G75*
G02*
X11715000Y-8250000I15000J0D01*
G01*
X11715000Y-8340000D02*
G75*
G02*
X11685000Y-8340000I-15000J0D01*
G01*
X11685000Y-8340000D02*
G75*
G02*
X11715000Y-8340000I15000J0D01*
G01*
X11715000Y-8480000D02*
G75*
G02*
X11685000Y-8480000I-15000J0D01*
G01*
X11685000Y-8480000D02*
G75*
G02*
X11715000Y-8480000I15000J0D01*
G01*
X11715000Y-10120000D02*
G75*
G02*
X11685000Y-10120000I-15000J0D01*
G01*
X11685000Y-10120000D02*
G75*
G02*
X11715000Y-10120000I15000J0D01*
G01*
X11730000Y-11555000D02*
G75*
G02*
X11700000Y-11555000I-15000J0D01*
G01*
X11700000Y-11555000D02*
G75*
G02*
X11730000Y-11555000I15000J0D01*
G01*
X11765000Y-9840000D02*
G75*
G02*
X11735000Y-9840000I-15000J0D01*
G01*
X11735000Y-9840000D02*
G75*
G02*
X11765000Y-9840000I15000J0D01*
G01*
X11807500Y-7292500D02*
G75*
G02*
X11777500Y-7292500I-15000J0D01*
G01*
X11777500Y-7292500D02*
G75*
G02*
X11807500Y-7292500I15000J0D01*
G01*
X11855000Y-9500000D02*
G75*
G02*
X11825000Y-9500000I-15000J0D01*
G01*
X11825000Y-9500000D02*
G75*
G02*
X11855000Y-9500000I15000J0D01*
G01*
X11870000Y-6895000D02*
G75*
G02*
X11840000Y-6895000I-15000J0D01*
G01*
X11840000Y-6895000D02*
G75*
G02*
X11870000Y-6895000I15000J0D01*
G01*
X11895000Y-7682500D02*
G75*
G02*
X11865000Y-7682500I-15000J0D01*
G01*
X11865000Y-7682500D02*
G75*
G02*
X11895000Y-7682500I15000J0D01*
G01*
X11895000Y-8340000D02*
G75*
G02*
X11865000Y-8340000I-15000J0D01*
G01*
X11865000Y-8340000D02*
G75*
G02*
X11895000Y-8340000I15000J0D01*
G01*
X11915000Y-7550000D02*
G75*
G02*
X11885000Y-7550000I-15000J0D01*
G01*
X11885000Y-7550000D02*
G75*
G02*
X11915000Y-7550000I15000J0D01*
G01*
X11915000Y-7960000D02*
G75*
G02*
X11885000Y-7960000I-15000J0D01*
G01*
X11885000Y-7960000D02*
G75*
G02*
X11915000Y-7960000I15000J0D01*
G01*
X11915000Y-8430000D02*
G75*
G02*
X11885000Y-8430000I-15000J0D01*
G01*
X11885000Y-8430000D02*
G75*
G02*
X11915000Y-8430000I15000J0D01*
G01*
X11945000Y-7880000D02*
G75*
G02*
X11915000Y-7880000I-15000J0D01*
G01*
X11915000Y-7880000D02*
G75*
G02*
X11945000Y-7880000I15000J0D01*
G01*
X11945000Y-8530000D02*
G75*
G02*
X11915000Y-8530000I-15000J0D01*
G01*
X11915000Y-8530000D02*
G75*
G02*
X11945000Y-8530000I15000J0D01*
G01*
X11945000Y-8710000D02*
G75*
G02*
X11915000Y-8710000I-15000J0D01*
G01*
X11915000Y-8710000D02*
G75*
G02*
X11945000Y-8710000I15000J0D01*
G01*
X11945000Y-9520000D02*
G75*
G02*
X11915000Y-9520000I-15000J0D01*
G01*
X11915000Y-9520000D02*
G75*
G02*
X11945000Y-9520000I15000J0D01*
G01*
X11954567Y-7740000D02*
G75*
G02*
X11924567Y-7740000I-15000J0D01*
G01*
X11924567Y-7740000D02*
G75*
G02*
X11954567Y-7740000I15000J0D01*
G01*
X11959853Y-9610000D02*
G75*
G02*
X11929853Y-9610000I-15000J0D01*
G01*
X11929853Y-9610000D02*
G75*
G02*
X11959853Y-9610000I15000J0D01*
G01*
X11985000Y-8270000D02*
G75*
G02*
X11955000Y-8270000I-15000J0D01*
G01*
X11955000Y-8270000D02*
G75*
G02*
X11985000Y-8270000I15000J0D01*
G01*
X12005000Y-10190000D02*
G75*
G02*
X11975000Y-10190000I-15000J0D01*
G01*
X11975000Y-10190000D02*
G75*
G02*
X12005000Y-10190000I15000J0D01*
G01*
X12015000Y-7120000D02*
G75*
G02*
X11985000Y-7120000I-15000J0D01*
G01*
X11985000Y-7120000D02*
G75*
G02*
X12015000Y-7120000I15000J0D01*
G01*
X12015000Y-11440000D02*
G75*
G02*
X11985000Y-11440000I-15000J0D01*
G01*
X11985000Y-11440000D02*
G75*
G02*
X12015000Y-11440000I15000J0D01*
G01*
X12015000Y-11700000D02*
G75*
G02*
X11985000Y-11700000I-15000J0D01*
G01*
X11985000Y-11700000D02*
G75*
G02*
X12015000Y-11700000I15000J0D01*
G01*
X12035000Y-9370000D02*
G75*
G02*
X12005000Y-9370000I-15000J0D01*
G01*
X12005000Y-9370000D02*
G75*
G02*
X12035000Y-9370000I15000J0D01*
G01*
X12039000Y-7732000D02*
G75*
G02*
X12009000Y-7732000I-15000J0D01*
G01*
X12009000Y-7732000D02*
G75*
G02*
X12039000Y-7732000I15000J0D01*
G01*
X12039814Y-9607499D02*
G75*
G02*
X12009814Y-9607499I-15000J0D01*
G01*
X12009814Y-9607499D02*
G75*
G02*
X12039814Y-9607499I15000J0D01*
G01*
X12065000Y-6960000D02*
G75*
G02*
X12035000Y-6960000I-15000J0D01*
G01*
X12035000Y-6960000D02*
G75*
G02*
X12065000Y-6960000I15000J0D01*
G01*
X12076458Y-7068785D02*
G75*
G02*
X12046458Y-7068785I-15000J0D01*
G01*
X12046458Y-7068785D02*
G75*
G02*
X12076458Y-7068785I15000J0D01*
G01*
X12115000Y-9500000D02*
G75*
G02*
X12085000Y-9500000I-15000J0D01*
G01*
X12085000Y-9500000D02*
G75*
G02*
X12115000Y-9500000I15000J0D01*
G01*
X12115000Y-12450000D02*
G75*
G02*
X12085000Y-12450000I-15000J0D01*
G01*
X12085000Y-12450000D02*
G75*
G02*
X12115000Y-12450000I15000J0D01*
G01*
X12125000Y-11305000D02*
G75*
G02*
X12095000Y-11305000I-15000J0D01*
G01*
X12095000Y-11305000D02*
G75*
G02*
X12125000Y-11305000I15000J0D01*
G01*
X12145000Y-7000000D02*
G75*
G02*
X12115000Y-7000000I-15000J0D01*
G01*
X12115000Y-7000000D02*
G75*
G02*
X12145000Y-7000000I15000J0D01*
G01*
X12155000Y-6920000D02*
G75*
G02*
X12125000Y-6920000I-15000J0D01*
G01*
X12125000Y-6920000D02*
G75*
G02*
X12155000Y-6920000I15000J0D01*
G01*
X12179000Y-7701000D02*
G75*
G02*
X12149000Y-7701000I-15000J0D01*
G01*
X12149000Y-7701000D02*
G75*
G02*
X12179000Y-7701000I15000J0D01*
G01*
X12195000Y-7780000D02*
G75*
G02*
X12165000Y-7780000I-15000J0D01*
G01*
X12165000Y-7780000D02*
G75*
G02*
X12195000Y-7780000I15000J0D01*
G01*
X12195000Y-8120000D02*
G75*
G02*
X12165000Y-8120000I-15000J0D01*
G01*
X12165000Y-8120000D02*
G75*
G02*
X12195000Y-8120000I15000J0D01*
G01*
X12195000Y-8330000D02*
G75*
G02*
X12165000Y-8330000I-15000J0D01*
G01*
X12165000Y-8330000D02*
G75*
G02*
X12195000Y-8330000I15000J0D01*
G01*
X12195000Y-9660000D02*
G75*
G02*
X12165000Y-9660000I-15000J0D01*
G01*
X12165000Y-9660000D02*
G75*
G02*
X12195000Y-9660000I15000J0D01*
G01*
X12200000Y-11205000D02*
G75*
G02*
X12170000Y-11205000I-15000J0D01*
G01*
X12170000Y-11205000D02*
G75*
G02*
X12200000Y-11205000I15000J0D01*
G01*
X12202573Y-10292427D02*
G75*
G02*
X12172573Y-10292427I-15000J0D01*
G01*
X12172573Y-10292427D02*
G75*
G02*
X12202573Y-10292427I15000J0D01*
G01*
X12270000Y-11045000D02*
G75*
G02*
X12240000Y-11045000I-15000J0D01*
G01*
X12240000Y-11045000D02*
G75*
G02*
X12270000Y-11045000I15000J0D01*
G01*
X12275000Y-11486250D02*
G75*
G02*
X12245000Y-11486250I-15000J0D01*
G01*
X12245000Y-11486250D02*
G75*
G02*
X12275000Y-11486250I15000J0D01*
G01*
X12295000Y-6760000D02*
G75*
G02*
X12265000Y-6760000I-15000J0D01*
G01*
X12265000Y-6760000D02*
G75*
G02*
X12295000Y-6760000I15000J0D01*
G01*
X12315000Y-9450000D02*
G75*
G02*
X12285000Y-9450000I-15000J0D01*
G01*
X12285000Y-9450000D02*
G75*
G02*
X12315000Y-9450000I15000J0D01*
G01*
X12335000Y-9570000D02*
G75*
G02*
X12305000Y-9570000I-15000J0D01*
G01*
X12305000Y-9570000D02*
G75*
G02*
X12335000Y-9570000I15000J0D01*
G01*
X12335000Y-10340000D02*
G75*
G02*
X12305000Y-10340000I-15000J0D01*
G01*
X12305000Y-10340000D02*
G75*
G02*
X12335000Y-10340000I15000J0D01*
G01*
X12355000Y-11050000D02*
G75*
G02*
X12325000Y-11050000I-15000J0D01*
G01*
X12325000Y-11050000D02*
G75*
G02*
X12355000Y-11050000I15000J0D01*
G01*
X12385000Y-7600000D02*
G75*
G02*
X12355000Y-7600000I-15000J0D01*
G01*
X12355000Y-7600000D02*
G75*
G02*
X12385000Y-7600000I15000J0D01*
G01*
X12415000Y-12450000D02*
G75*
G02*
X12385000Y-12450000I-15000J0D01*
G01*
X12385000Y-12450000D02*
G75*
G02*
X12415000Y-12450000I15000J0D01*
G01*
X12445000Y-11180000D02*
G75*
G02*
X12415000Y-11180000I-15000J0D01*
G01*
X12415000Y-11180000D02*
G75*
G02*
X12445000Y-11180000I15000J0D01*
G01*
X12465000Y-6710000D02*
G75*
G02*
X12435000Y-6710000I-15000J0D01*
G01*
X12435000Y-6710000D02*
G75*
G02*
X12465000Y-6710000I15000J0D01*
G01*
X12465000Y-9550000D02*
G75*
G02*
X12435000Y-9550000I-15000J0D01*
G01*
X12435000Y-9550000D02*
G75*
G02*
X12465000Y-9550000I15000J0D01*
G01*
X12485000Y-10920000D02*
G75*
G02*
X12455000Y-10920000I-15000J0D01*
G01*
X12455000Y-10920000D02*
G75*
G02*
X12485000Y-10920000I15000J0D01*
G01*
X12508586Y-12346414D02*
G75*
G02*
X12478586Y-12346414I-15000J0D01*
G01*
X12478586Y-12346414D02*
G75*
G02*
X12508586Y-12346414I15000J0D01*
G01*
X12635000Y-6610000D02*
G75*
G02*
X12605000Y-6610000I-15000J0D01*
G01*
X12605000Y-6610000D02*
G75*
G02*
X12635000Y-6610000I15000J0D01*
G01*
X12640000Y-10890000D02*
G75*
G02*
X12610000Y-10890000I-15000J0D01*
G01*
X12610000Y-10890000D02*
G75*
G02*
X12640000Y-10890000I15000J0D01*
G01*
X12665000Y-9450000D02*
G75*
G02*
X12635000Y-9450000I-15000J0D01*
G01*
X12635000Y-9450000D02*
G75*
G02*
X12665000Y-9450000I15000J0D01*
G01*
X12665000Y-10760000D02*
G75*
G02*
X12635000Y-10760000I-15000J0D01*
G01*
X12635000Y-10760000D02*
G75*
G02*
X12665000Y-10760000I15000J0D01*
G01*
X12665000Y-11050000D02*
G75*
G02*
X12635000Y-11050000I-15000J0D01*
G01*
X12635000Y-11050000D02*
G75*
G02*
X12665000Y-11050000I15000J0D01*
G01*
X12715000Y-10950000D02*
G75*
G02*
X12685000Y-10950000I-15000J0D01*
G01*
X12685000Y-10950000D02*
G75*
G02*
X12715000Y-10950000I15000J0D01*
G01*
X12745000Y-6720000D02*
G75*
G02*
X12715000Y-6720000I-15000J0D01*
G01*
X12715000Y-6720000D02*
G75*
G02*
X12745000Y-6720000I15000J0D01*
G01*
X12745000Y-7580000D02*
G75*
G02*
X12715000Y-7580000I-15000J0D01*
G01*
X12715000Y-7580000D02*
G75*
G02*
X12745000Y-7580000I15000J0D01*
G01*
X12755000Y-11300000D02*
G75*
G02*
X12725000Y-11300000I-15000J0D01*
G01*
X12725000Y-11300000D02*
G75*
G02*
X12755000Y-11300000I15000J0D01*
G01*
X12765000Y-12250000D02*
G75*
G02*
X12735000Y-12250000I-15000J0D01*
G01*
X12735000Y-12250000D02*
G75*
G02*
X12765000Y-12250000I15000J0D01*
G01*
X12855000Y-11400000D02*
G75*
G02*
X12825000Y-11400000I-15000J0D01*
G01*
X12825000Y-11400000D02*
G75*
G02*
X12855000Y-11400000I15000J0D01*
G01*
X12895000Y-9500000D02*
G75*
G02*
X12865000Y-9500000I-15000J0D01*
G01*
X12865000Y-9500000D02*
G75*
G02*
X12895000Y-9500000I15000J0D01*
G01*
X12905000Y-10040000D02*
G75*
G02*
X12875000Y-10040000I-15000J0D01*
G01*
X12875000Y-10040000D02*
G75*
G02*
X12905000Y-10040000I15000J0D01*
G01*
X12915000Y-12040000D02*
G75*
G02*
X12885000Y-12040000I-15000J0D01*
G01*
X12885000Y-12040000D02*
G75*
G02*
X12915000Y-12040000I15000J0D01*
G01*
X12945000Y-8640000D02*
G75*
G02*
X12915000Y-8640000I-15000J0D01*
G01*
X12915000Y-8640000D02*
G75*
G02*
X12945000Y-8640000I15000J0D01*
G01*
X12985000Y-7590000D02*
G75*
G02*
X12955000Y-7590000I-15000J0D01*
G01*
X12955000Y-7590000D02*
G75*
G02*
X12985000Y-7590000I15000J0D01*
G01*
X12985000Y-9420000D02*
G75*
G02*
X12955000Y-9420000I-15000J0D01*
G01*
X12955000Y-9420000D02*
G75*
G02*
X12985000Y-9420000I15000J0D01*
G01*
X13035000Y-9140000D02*
G75*
G02*
X13005000Y-9140000I-15000J0D01*
G01*
X13005000Y-9140000D02*
G75*
G02*
X13035000Y-9140000I15000J0D01*
G01*
X13035000Y-9260000D02*
G75*
G02*
X13005000Y-9260000I-15000J0D01*
G01*
X13005000Y-9260000D02*
G75*
G02*
X13035000Y-9260000I15000J0D01*
G01*
X13045000Y-7720000D02*
G75*
G02*
X13015000Y-7720000I-15000J0D01*
G01*
X13015000Y-7720000D02*
G75*
G02*
X13045000Y-7720000I15000J0D01*
G01*
X13045000Y-11680000D02*
G75*
G02*
X13015000Y-11680000I-15000J0D01*
G01*
X13015000Y-11680000D02*
G75*
G02*
X13045000Y-11680000I15000J0D01*
G01*
X13095000Y-7190000D02*
G75*
G02*
X13065000Y-7190000I-15000J0D01*
G01*
X13065000Y-7190000D02*
G75*
G02*
X13095000Y-7190000I15000J0D01*
G01*
X13175000Y-9040000D02*
G75*
G02*
X13145000Y-9040000I-15000J0D01*
G01*
X13145000Y-9040000D02*
G75*
G02*
X13175000Y-9040000I15000J0D01*
G01*
X13175000Y-11580000D02*
G75*
G02*
X13145000Y-11580000I-15000J0D01*
G01*
X13145000Y-11580000D02*
G75*
G02*
X13175000Y-11580000I15000J0D01*
G01*
X13195000Y-9240000D02*
G75*
G02*
X13165000Y-9240000I-15000J0D01*
G01*
X13165000Y-9240000D02*
G75*
G02*
X13195000Y-9240000I15000J0D01*
G01*
X13215000Y-9920000D02*
G75*
G02*
X13185000Y-9920000I-15000J0D01*
G01*
X13185000Y-9920000D02*
G75*
G02*
X13215000Y-9920000I15000J0D01*
G01*
X13225000Y-8970000D02*
G75*
G02*
X13195000Y-8970000I-15000J0D01*
G01*
X13195000Y-8970000D02*
G75*
G02*
X13225000Y-8970000I15000J0D01*
G01*
X13225000Y-11360000D02*
G75*
G02*
X13195000Y-11360000I-15000J0D01*
G01*
X13195000Y-11360000D02*
G75*
G02*
X13225000Y-11360000I15000J0D01*
G01*
X13235000Y-9770000D02*
G75*
G02*
X13205000Y-9770000I-15000J0D01*
G01*
X13205000Y-9770000D02*
G75*
G02*
X13235000Y-9770000I15000J0D01*
G01*
X13245000Y-9140000D02*
G75*
G02*
X13215000Y-9140000I-15000J0D01*
G01*
X13215000Y-9140000D02*
G75*
G02*
X13245000Y-9140000I15000J0D01*
G01*
X13245000Y-10480000D02*
G75*
G02*
X13215000Y-10480000I-15000J0D01*
G01*
X13215000Y-10480000D02*
G75*
G02*
X13245000Y-10480000I15000J0D01*
G01*
X13265000Y-11280000D02*
G75*
G02*
X13235000Y-11280000I-15000J0D01*
G01*
X13235000Y-11280000D02*
G75*
G02*
X13265000Y-11280000I15000J0D01*
G01*
X13345000Y-9590000D02*
G75*
G02*
X13315000Y-9590000I-15000J0D01*
G01*
X13315000Y-9590000D02*
G75*
G02*
X13345000Y-9590000I15000J0D01*
G01*
X13345000Y-9730000D02*
G75*
G02*
X13315000Y-9730000I-15000J0D01*
G01*
X13315000Y-9730000D02*
G75*
G02*
X13345000Y-9730000I15000J0D01*
G01*
X13365000Y-6650000D02*
G75*
G02*
X13335000Y-6650000I-15000J0D01*
G01*
X13335000Y-6650000D02*
G75*
G02*
X13365000Y-6650000I15000J0D01*
G01*
X13372426Y-9992574D02*
G75*
G02*
X13342426Y-9992574I-15000J0D01*
G01*
X13342426Y-9992574D02*
G75*
G02*
X13372426Y-9992574I15000J0D01*
G01*
X13435000Y-12350000D02*
G75*
G02*
X13405000Y-12350000I-15000J0D01*
G01*
X13405000Y-12350000D02*
G75*
G02*
X13435000Y-12350000I15000J0D01*
G01*
X13455000Y-7570000D02*
G75*
G02*
X13425000Y-7570000I-15000J0D01*
G01*
X13425000Y-7570000D02*
G75*
G02*
X13455000Y-7570000I15000J0D01*
G01*
X13455000Y-7660000D02*
G75*
G02*
X13425000Y-7660000I-15000J0D01*
G01*
X13425000Y-7660000D02*
G75*
G02*
X13455000Y-7660000I15000J0D01*
G01*
X13455000Y-11565000D02*
G75*
G02*
X13425000Y-11565000I-15000J0D01*
G01*
X13425000Y-11565000D02*
G75*
G02*
X13455000Y-11565000I15000J0D01*
G01*
X13455000Y-11565000D02*
G75*
G02*
X13425000Y-11565000I-15000J0D01*
G01*
X13425000Y-11565000D02*
G75*
G02*
X13455000Y-11565000I15000J0D01*
G01*
X13465000Y-8650000D02*
G75*
G02*
X13435000Y-8650000I-15000J0D01*
G01*
X13435000Y-8650000D02*
G75*
G02*
X13465000Y-8650000I15000J0D01*
G01*
X13505000Y-9760000D02*
G75*
G02*
X13475000Y-9760000I-15000J0D01*
G01*
X13475000Y-9760000D02*
G75*
G02*
X13505000Y-9760000I15000J0D01*
G01*
X13545000Y-12170000D02*
G75*
G02*
X13515000Y-12170000I-15000J0D01*
G01*
X13515000Y-12170000D02*
G75*
G02*
X13545000Y-12170000I15000J0D01*
G01*
X13555000Y-12440000D02*
G75*
G02*
X13525000Y-12440000I-15000J0D01*
G01*
X13525000Y-12440000D02*
G75*
G02*
X13555000Y-12440000I15000J0D01*
G01*
X13565000Y-8480000D02*
G75*
G02*
X13535000Y-8480000I-15000J0D01*
G01*
X13535000Y-8480000D02*
G75*
G02*
X13565000Y-8480000I15000J0D01*
G01*
X13585000Y-10730000D02*
G75*
G02*
X13555000Y-10730000I-15000J0D01*
G01*
X13555000Y-10730000D02*
G75*
G02*
X13585000Y-10730000I15000J0D01*
G01*
X13595000Y-8580000D02*
G75*
G02*
X13565000Y-8580000I-15000J0D01*
G01*
X13565000Y-8580000D02*
G75*
G02*
X13595000Y-8580000I15000J0D01*
G01*
X13635000Y-10420000D02*
G75*
G02*
X13605000Y-10420000I-15000J0D01*
G01*
X13605000Y-10420000D02*
G75*
G02*
X13635000Y-10420000I15000J0D01*
G01*
X13655000Y-8510000D02*
G75*
G02*
X13625000Y-8510000I-15000J0D01*
G01*
X13625000Y-8510000D02*
G75*
G02*
X13655000Y-8510000I15000J0D01*
G01*
X13755000Y-7570000D02*
G75*
G02*
X13725000Y-7570000I-15000J0D01*
G01*
X13725000Y-7570000D02*
G75*
G02*
X13755000Y-7570000I15000J0D01*
G01*
X13765000Y-10570000D02*
G75*
G02*
X13735000Y-10570000I-15000J0D01*
G01*
X13735000Y-10570000D02*
G75*
G02*
X13765000Y-10570000I15000J0D01*
G01*
X13765000Y-12750000D02*
G75*
G02*
X13735000Y-12750000I-15000J0D01*
G01*
X13735000Y-12750000D02*
G75*
G02*
X13765000Y-12750000I15000J0D01*
G01*
X13805000Y-8660000D02*
G75*
G02*
X13775000Y-8660000I-15000J0D01*
G01*
X13775000Y-8660000D02*
G75*
G02*
X13805000Y-8660000I15000J0D01*
G01*
X13825000Y-7500000D02*
G75*
G02*
X13795000Y-7500000I-15000J0D01*
G01*
X13795000Y-7500000D02*
G75*
G02*
X13825000Y-7500000I15000J0D01*
G01*
X13825000Y-12530000D02*
G75*
G02*
X13795000Y-12530000I-15000J0D01*
G01*
X13795000Y-12530000D02*
G75*
G02*
X13825000Y-12530000I15000J0D01*
G01*
X13865000Y-7660000D02*
G75*
G02*
X13835000Y-7660000I-15000J0D01*
G01*
X13835000Y-7660000D02*
G75*
G02*
X13865000Y-7660000I15000J0D01*
G01*
X13885000Y-12219000D02*
G75*
G02*
X13855000Y-12219000I-15000J0D01*
G01*
X13855000Y-12219000D02*
G75*
G02*
X13885000Y-12219000I15000J0D01*
G01*
X13910000Y-11055000D02*
G75*
G02*
X13880000Y-11055000I-15000J0D01*
G01*
X13880000Y-11055000D02*
G75*
G02*
X13910000Y-11055000I15000J0D01*
G01*
X13935000Y-11575000D02*
G75*
G02*
X13905000Y-11575000I-15000J0D01*
G01*
X13905000Y-11575000D02*
G75*
G02*
X13935000Y-11575000I15000J0D01*
G01*
X13965000Y-11210000D02*
G75*
G02*
X13935000Y-11210000I-15000J0D01*
G01*
X13935000Y-11210000D02*
G75*
G02*
X13965000Y-11210000I15000J0D01*
G01*
X14015000Y-11490000D02*
G75*
G02*
X13985000Y-11490000I-15000J0D01*
G01*
X13985000Y-11490000D02*
G75*
G02*
X14015000Y-11490000I15000J0D01*
G01*
X14015000Y-12150000D02*
G75*
G02*
X13985000Y-12150000I-15000J0D01*
G01*
X13985000Y-12150000D02*
G75*
G02*
X14015000Y-12150000I15000J0D01*
G01*
X14020000Y-11590000D02*
G75*
G02*
X13990000Y-11590000I-15000J0D01*
G01*
X13990000Y-11590000D02*
G75*
G02*
X14020000Y-11590000I15000J0D01*
G01*
X14045000Y-8161011D02*
G75*
G02*
X14015000Y-8161011I-15000J0D01*
G01*
X14015000Y-8161011D02*
G75*
G02*
X14045000Y-8161011I15000J0D01*
G01*
X14075000Y-11230000D02*
G75*
G02*
X14045000Y-11230000I-15000J0D01*
G01*
X14045000Y-11230000D02*
G75*
G02*
X14075000Y-11230000I15000J0D01*
G01*
X14115000Y-11570000D02*
G75*
G02*
X14085000Y-11570000I-15000J0D01*
G01*
X14085000Y-11570000D02*
G75*
G02*
X14115000Y-11570000I15000J0D01*
G01*
X14165000Y-6985000D02*
G75*
G02*
X14135000Y-6985000I-15000J0D01*
G01*
X14135000Y-6985000D02*
G75*
G02*
X14165000Y-6985000I15000J0D01*
G01*
X14165000Y-8540000D02*
G75*
G02*
X14135000Y-8540000I-15000J0D01*
G01*
X14135000Y-8540000D02*
G75*
G02*
X14165000Y-8540000I15000J0D01*
G01*
X14225000Y-11360000D02*
G75*
G02*
X14195000Y-11360000I-15000J0D01*
G01*
X14195000Y-11360000D02*
G75*
G02*
X14225000Y-11360000I15000J0D01*
G01*
X14232061Y-9700000D02*
G75*
G02*
X14202061Y-9700000I-15000J0D01*
G01*
X14202061Y-9700000D02*
G75*
G02*
X14232061Y-9700000I15000J0D01*
G01*
X14255000Y-8730000D02*
G75*
G02*
X14225000Y-8730000I-15000J0D01*
G01*
X14225000Y-8730000D02*
G75*
G02*
X14255000Y-8730000I15000J0D01*
G01*
X14255000Y-10060000D02*
G75*
G02*
X14225000Y-10060000I-15000J0D01*
G01*
X14225000Y-10060000D02*
G75*
G02*
X14255000Y-10060000I15000J0D01*
G01*
X14275000Y-11490000D02*
G75*
G02*
X14245000Y-11490000I-15000J0D01*
G01*
X14245000Y-11490000D02*
G75*
G02*
X14275000Y-11490000I15000J0D01*
G01*
X14295000Y-11770000D02*
G75*
G02*
X14265000Y-11770000I-15000J0D01*
G01*
X14265000Y-11770000D02*
G75*
G02*
X14295000Y-11770000I15000J0D01*
G01*
X14315000Y-12200000D02*
G75*
G02*
X14285000Y-12200000I-15000J0D01*
G01*
X14285000Y-12200000D02*
G75*
G02*
X14315000Y-12200000I15000J0D01*
G01*
X14325000Y-11915000D02*
G75*
G02*
X14295000Y-11915000I-15000J0D01*
G01*
X14295000Y-11915000D02*
G75*
G02*
X14325000Y-11915000I15000J0D01*
G01*
X14335000Y-10400000D02*
G75*
G02*
X14305000Y-10400000I-15000J0D01*
G01*
X14305000Y-10400000D02*
G75*
G02*
X14335000Y-10400000I15000J0D01*
G01*
X14395000Y-11865000D02*
G75*
G02*
X14365000Y-11865000I-15000J0D01*
G01*
X14365000Y-11865000D02*
G75*
G02*
X14395000Y-11865000I15000J0D01*
G01*
X14405000Y-11620000D02*
G75*
G02*
X14375000Y-11620000I-15000J0D01*
G01*
X14375000Y-11620000D02*
G75*
G02*
X14405000Y-11620000I15000J0D01*
G01*
X14415000Y-8540000D02*
G75*
G02*
X14385000Y-8540000I-15000J0D01*
G01*
X14385000Y-8540000D02*
G75*
G02*
X14415000Y-8540000I15000J0D01*
G01*
X14415000Y-9900000D02*
G75*
G02*
X14385000Y-9900000I-15000J0D01*
G01*
X14385000Y-9900000D02*
G75*
G02*
X14415000Y-9900000I15000J0D01*
G01*
X14415000Y-10497320D02*
G75*
G02*
X14385000Y-10497320I-15000J0D01*
G01*
X14385000Y-10497320D02*
G75*
G02*
X14415000Y-10497320I15000J0D01*
G01*
X14415000Y-11977500D02*
G75*
G02*
X14385000Y-11977500I-15000J0D01*
G01*
X14385000Y-11977500D02*
G75*
G02*
X14415000Y-11977500I15000J0D01*
G01*
X14415000Y-12062500D02*
G75*
G02*
X14385000Y-12062500I-15000J0D01*
G01*
X14385000Y-12062500D02*
G75*
G02*
X14415000Y-12062500I15000J0D01*
G01*
X14435000Y-8730000D02*
G75*
G02*
X14405000Y-8730000I-15000J0D01*
G01*
X14405000Y-8730000D02*
G75*
G02*
X14435000Y-8730000I15000J0D01*
G01*
X14515000Y-11730000D02*
G75*
G02*
X14485000Y-11730000I-15000J0D01*
G01*
X14485000Y-11730000D02*
G75*
G02*
X14515000Y-11730000I15000J0D01*
G01*
X14515000Y-12350000D02*
G75*
G02*
X14485000Y-12350000I-15000J0D01*
G01*
X14485000Y-12350000D02*
G75*
G02*
X14515000Y-12350000I15000J0D01*
G01*
X14565000Y-9800000D02*
G75*
G02*
X14535000Y-9800000I-15000J0D01*
G01*
X14535000Y-9800000D02*
G75*
G02*
X14565000Y-9800000I15000J0D01*
G01*
X14587573Y-10377427D02*
G75*
G02*
X14557573Y-10377427I-15000J0D01*
G01*
X14557573Y-10377427D02*
G75*
G02*
X14587573Y-10377427I15000J0D01*
G01*
X14615000Y-8500000D02*
G75*
G02*
X14585000Y-8500000I-15000J0D01*
G01*
X14585000Y-8500000D02*
G75*
G02*
X14615000Y-8500000I15000J0D01*
G01*
X14635000Y-12340000D02*
G75*
G02*
X14605000Y-12340000I-15000J0D01*
G01*
X14605000Y-12340000D02*
G75*
G02*
X14635000Y-12340000I15000J0D01*
G01*
X14665000Y-12600000D02*
G75*
G02*
X14635000Y-12600000I-15000J0D01*
G01*
X14635000Y-12600000D02*
G75*
G02*
X14665000Y-12600000I15000J0D01*
G01*
X14705000Y-11560000D02*
G75*
G02*
X14675000Y-11560000I-15000J0D01*
G01*
X14675000Y-11560000D02*
G75*
G02*
X14705000Y-11560000I15000J0D01*
G01*
X14735000Y-11470000D02*
G75*
G02*
X14705000Y-11470000I-15000J0D01*
G01*
X14705000Y-11470000D02*
G75*
G02*
X14735000Y-11470000I15000J0D01*
G01*
X14735000Y-12420000D02*
G75*
G02*
X14705000Y-12420000I-15000J0D01*
G01*
X14705000Y-12420000D02*
G75*
G02*
X14735000Y-12420000I15000J0D01*
G01*
X14815000Y-11370000D02*
G75*
G02*
X14785000Y-11370000I-15000J0D01*
G01*
X14785000Y-11370000D02*
G75*
G02*
X14815000Y-11370000I15000J0D01*
G01*
X14815000Y-12650000D02*
G75*
G02*
X14785000Y-12650000I-15000J0D01*
G01*
X14785000Y-12650000D02*
G75*
G02*
X14815000Y-12650000I15000J0D01*
G01*
X14825000Y-8600000D02*
G75*
G02*
X14795000Y-8600000I-15000J0D01*
G01*
X14795000Y-8600000D02*
G75*
G02*
X14825000Y-8600000I15000J0D01*
G01*
X14925000Y-11119000D02*
G75*
G02*
X14895000Y-11119000I-15000J0D01*
G01*
X14895000Y-11119000D02*
G75*
G02*
X14925000Y-11119000I15000J0D01*
G01*
X14955000Y-11540000D02*
G75*
G02*
X14925000Y-11540000I-15000J0D01*
G01*
X14925000Y-11540000D02*
G75*
G02*
X14955000Y-11540000I15000J0D01*
G01*
X14965000Y-12900000D02*
G75*
G02*
X14935000Y-12900000I-15000J0D01*
G01*
X14935000Y-12900000D02*
G75*
G02*
X14965000Y-12900000I15000J0D01*
G01*
X15015000Y-8610000D02*
G75*
G02*
X14985000Y-8610000I-15000J0D01*
G01*
X14985000Y-8610000D02*
G75*
G02*
X15015000Y-8610000I15000J0D01*
G01*
X15065000Y-7600000D02*
G75*
G02*
X15035000Y-7600000I-15000J0D01*
G01*
X15035000Y-7600000D02*
G75*
G02*
X15065000Y-7600000I15000J0D01*
G01*
X15075000Y-11040000D02*
G75*
G02*
X15045000Y-11040000I-15000J0D01*
G01*
X15045000Y-11040000D02*
G75*
G02*
X15075000Y-11040000I15000J0D01*
G01*
X15085000Y-8730000D02*
G75*
G02*
X15055000Y-8730000I-15000J0D01*
G01*
X15055000Y-8730000D02*
G75*
G02*
X15085000Y-8730000I15000J0D01*
G01*
X15155000Y-12440000D02*
G75*
G02*
X15125000Y-12440000I-15000J0D01*
G01*
X15125000Y-12440000D02*
G75*
G02*
X15155000Y-12440000I15000J0D01*
G01*
X15215000Y-10510000D02*
G75*
G02*
X15185000Y-10510000I-15000J0D01*
G01*
X15185000Y-10510000D02*
G75*
G02*
X15215000Y-10510000I15000J0D01*
G01*
X15215000Y-10646277D02*
G75*
G02*
X15185000Y-10646277I-15000J0D01*
G01*
X15185000Y-10646277D02*
G75*
G02*
X15215000Y-10646277I15000J0D01*
G01*
X15225000Y-9380000D02*
G75*
G02*
X15195000Y-9380000I-15000J0D01*
G01*
X15195000Y-9380000D02*
G75*
G02*
X15225000Y-9380000I15000J0D01*
G01*
X15225000Y-12422500D02*
G75*
G02*
X15195000Y-12422500I-15000J0D01*
G01*
X15195000Y-12422500D02*
G75*
G02*
X15225000Y-12422500I15000J0D01*
G01*
X15275000Y-11040000D02*
G75*
G02*
X15245000Y-11040000I-15000J0D01*
G01*
X15245000Y-11040000D02*
G75*
G02*
X15275000Y-11040000I15000J0D01*
G01*
X15285000Y-10570000D02*
G75*
G02*
X15255000Y-10570000I-15000J0D01*
G01*
X15255000Y-10570000D02*
G75*
G02*
X15285000Y-10570000I15000J0D01*
G01*
X15305000Y-11270000D02*
G75*
G02*
X15275000Y-11270000I-15000J0D01*
G01*
X15275000Y-11270000D02*
G75*
G02*
X15305000Y-11270000I15000J0D01*
G01*
X15335000Y-10760000D02*
G75*
G02*
X15305000Y-10760000I-15000J0D01*
G01*
X15305000Y-10760000D02*
G75*
G02*
X15335000Y-10760000I15000J0D01*
G01*
X15355000Y-12030000D02*
G75*
G02*
X15325000Y-12030000I-15000J0D01*
G01*
X15325000Y-12030000D02*
G75*
G02*
X15355000Y-12030000I15000J0D01*
G01*
X15385000Y-11630000D02*
G75*
G02*
X15355000Y-11630000I-15000J0D01*
G01*
X15355000Y-11630000D02*
G75*
G02*
X15385000Y-11630000I15000J0D01*
G01*
X15385948Y-9610948D02*
G75*
G02*
X15355948Y-9610948I-15000J0D01*
G01*
X15355948Y-9610948D02*
G75*
G02*
X15385948Y-9610948I15000J0D01*
G01*
X15395000Y-11910000D02*
G75*
G02*
X15365000Y-11910000I-15000J0D01*
G01*
X15365000Y-11910000D02*
G75*
G02*
X15395000Y-11910000I15000J0D01*
G01*
X15415000Y-9500000D02*
G75*
G02*
X15385000Y-9500000I-15000J0D01*
G01*
X15385000Y-9500000D02*
G75*
G02*
X15415000Y-9500000I15000J0D01*
G01*
X15445000Y-11720000D02*
G75*
G02*
X15415000Y-11720000I-15000J0D01*
G01*
X15415000Y-11720000D02*
G75*
G02*
X15445000Y-11720000I15000J0D01*
G01*
X15446052Y-9671052D02*
G75*
G02*
X15416052Y-9671052I-15000J0D01*
G01*
X15416052Y-9671052D02*
G75*
G02*
X15446052Y-9671052I15000J0D01*
G01*
X15465000Y-8770000D02*
G75*
G02*
X15435000Y-8770000I-15000J0D01*
G01*
X15435000Y-8770000D02*
G75*
G02*
X15465000Y-8770000I15000J0D01*
G01*
X15465000Y-10650000D02*
G75*
G02*
X15435000Y-10650000I-15000J0D01*
G01*
X15435000Y-10650000D02*
G75*
G02*
X15465000Y-10650000I15000J0D01*
G01*
X15475000Y-11910000D02*
G75*
G02*
X15445000Y-11910000I-15000J0D01*
G01*
X15445000Y-11910000D02*
G75*
G02*
X15475000Y-11910000I15000J0D01*
G01*
X15495000Y-10000000D02*
G75*
G02*
X15465000Y-10000000I-15000J0D01*
G01*
X15465000Y-10000000D02*
G75*
G02*
X15495000Y-10000000I15000J0D01*
G01*
X15515000Y-9300000D02*
G75*
G02*
X15485000Y-9300000I-15000J0D01*
G01*
X15485000Y-9300000D02*
G75*
G02*
X15515000Y-9300000I15000J0D01*
G01*
X15545000Y-11400000D02*
G75*
G02*
X15515000Y-11400000I-15000J0D01*
G01*
X15515000Y-11400000D02*
G75*
G02*
X15545000Y-11400000I15000J0D01*
G01*
X15545000Y-11680000D02*
G75*
G02*
X15515000Y-11680000I-15000J0D01*
G01*
X15515000Y-11680000D02*
G75*
G02*
X15545000Y-11680000I15000J0D01*
G01*
X15603750Y-11888750D02*
G75*
G02*
X15573750Y-11888750I-15000J0D01*
G01*
X15573750Y-11888750D02*
G75*
G02*
X15603750Y-11888750I15000J0D01*
G01*
X15655000Y-11650000D02*
G75*
G02*
X15625000Y-11650000I-15000J0D01*
G01*
X15625000Y-11650000D02*
G75*
G02*
X15655000Y-11650000I15000J0D01*
G01*
X15665000Y-9500000D02*
G75*
G02*
X15635000Y-9500000I-15000J0D01*
G01*
X15635000Y-9500000D02*
G75*
G02*
X15665000Y-9500000I15000J0D01*
G01*
X15665000Y-11450000D02*
G75*
G02*
X15635000Y-11450000I-15000J0D01*
G01*
X15635000Y-11450000D02*
G75*
G02*
X15665000Y-11450000I15000J0D01*
G01*
X15705000Y-10000000D02*
G75*
G02*
X15675000Y-10000000I-15000J0D01*
G01*
X15675000Y-10000000D02*
G75*
G02*
X15705000Y-10000000I15000J0D01*
G01*
X15800000Y-9475000D02*
G75*
G02*
X15770000Y-9475000I-15000J0D01*
G01*
X15770000Y-9475000D02*
G75*
G02*
X15800000Y-9475000I15000J0D01*
G01*
X15835000Y-10060000D02*
G75*
G02*
X15805000Y-10060000I-15000J0D01*
G01*
X15805000Y-10060000D02*
G75*
G02*
X15835000Y-10060000I15000J0D01*
G01*
X15856866Y-11345942D02*
G75*
G02*
X15826866Y-11345942I-15000J0D01*
G01*
X15826866Y-11345942D02*
G75*
G02*
X15856866Y-11345942I15000J0D01*
G01*
X15865000Y-9630000D02*
G75*
G02*
X15835000Y-9630000I-15000J0D01*
G01*
X15835000Y-9630000D02*
G75*
G02*
X15865000Y-9630000I15000J0D01*
G01*
X15865000Y-12440000D02*
G75*
G02*
X15835000Y-12440000I-15000J0D01*
G01*
X15835000Y-12440000D02*
G75*
G02*
X15865000Y-12440000I15000J0D01*
G01*
X15875000Y-11480000D02*
G75*
G02*
X15845000Y-11480000I-15000J0D01*
G01*
X15845000Y-11480000D02*
G75*
G02*
X15875000Y-11480000I15000J0D01*
G01*
X15900000Y-9480000D02*
G75*
G02*
X15870000Y-9480000I-15000J0D01*
G01*
X15870000Y-9480000D02*
G75*
G02*
X15900000Y-9480000I15000J0D01*
G01*
X15925000Y-10670000D02*
G75*
G02*
X15895000Y-10670000I-15000J0D01*
G01*
X15895000Y-10670000D02*
G75*
G02*
X15925000Y-10670000I15000J0D01*
G01*
X15935000Y-11340000D02*
G75*
G02*
X15905000Y-11340000I-15000J0D01*
G01*
X15905000Y-11340000D02*
G75*
G02*
X15935000Y-11340000I15000J0D01*
G01*
X15940000Y-9705000D02*
G75*
G02*
X15910000Y-9705000I-15000J0D01*
G01*
X15910000Y-9705000D02*
G75*
G02*
X15940000Y-9705000I15000J0D01*
G01*
X15945000Y-11540000D02*
G75*
G02*
X15915000Y-11540000I-15000J0D01*
G01*
X15915000Y-11540000D02*
G75*
G02*
X15945000Y-11540000I15000J0D01*
G01*
X15955000Y-12100000D02*
G75*
G02*
X15925000Y-12100000I-15000J0D01*
G01*
X15925000Y-12100000D02*
G75*
G02*
X15955000Y-12100000I15000J0D01*
G01*
X15965000Y-13050000D02*
G75*
G02*
X15935000Y-13050000I-15000J0D01*
G01*
X15935000Y-13050000D02*
G75*
G02*
X15965000Y-13050000I15000J0D01*
G01*
X15975000Y-10220000D02*
G75*
G02*
X15945000Y-10220000I-15000J0D01*
G01*
X15945000Y-10220000D02*
G75*
G02*
X15975000Y-10220000I15000J0D01*
G01*
X15994591Y-9785778D02*
G75*
G02*
X15964591Y-9785778I-15000J0D01*
G01*
X15964591Y-9785778D02*
G75*
G02*
X15994591Y-9785778I15000J0D01*
G01*
X15995000Y-10790000D02*
G75*
G02*
X15965000Y-10790000I-15000J0D01*
G01*
X15965000Y-10790000D02*
G75*
G02*
X15995000Y-10790000I15000J0D01*
G01*
X16005000Y-10990000D02*
G75*
G02*
X15975000Y-10990000I-15000J0D01*
G01*
X15975000Y-10990000D02*
G75*
G02*
X16005000Y-10990000I15000J0D01*
G01*
X16015000Y-9632000D02*
G75*
G02*
X15985000Y-9632000I-15000J0D01*
G01*
X15985000Y-9632000D02*
G75*
G02*
X16015000Y-9632000I15000J0D01*
G01*
X16015000Y-12170000D02*
G75*
G02*
X15985000Y-12170000I-15000J0D01*
G01*
X15985000Y-12170000D02*
G75*
G02*
X16015000Y-12170000I15000J0D01*
G01*
X16045000Y-11210000D02*
G75*
G02*
X16015000Y-11210000I-15000J0D01*
G01*
X16015000Y-11210000D02*
G75*
G02*
X16045000Y-11210000I15000J0D01*
G01*
X16065000Y-10360000D02*
G75*
G02*
X16035000Y-10360000I-15000J0D01*
G01*
X16035000Y-10360000D02*
G75*
G02*
X16065000Y-10360000I15000J0D01*
G01*
X16125000Y-9370000D02*
G75*
G02*
X16095000Y-9370000I-15000J0D01*
G01*
X16095000Y-9370000D02*
G75*
G02*
X16125000Y-9370000I15000J0D01*
G01*
X16125000Y-12440000D02*
G75*
G02*
X16095000Y-12440000I-15000J0D01*
G01*
X16095000Y-12440000D02*
G75*
G02*
X16125000Y-12440000I15000J0D01*
G01*
X16225000Y-10360000D02*
G75*
G02*
X16195000Y-10360000I-15000J0D01*
G01*
X16195000Y-10360000D02*
G75*
G02*
X16225000Y-10360000I15000J0D01*
G01*
X16235000Y-11130000D02*
G75*
G02*
X16205000Y-11130000I-15000J0D01*
G01*
X16205000Y-11130000D02*
G75*
G02*
X16235000Y-11130000I15000J0D01*
G01*
X16235000Y-11310000D02*
G75*
G02*
X16205000Y-11310000I-15000J0D01*
G01*
X16205000Y-11310000D02*
G75*
G02*
X16235000Y-11310000I15000J0D01*
G01*
X16235000Y-11460000D02*
G75*
G02*
X16205000Y-11460000I-15000J0D01*
G01*
X16205000Y-11460000D02*
G75*
G02*
X16235000Y-11460000I15000J0D01*
G01*
X16265000Y-8800000D02*
G75*
G02*
X16235000Y-8800000I-15000J0D01*
G01*
X16235000Y-8800000D02*
G75*
G02*
X16265000Y-8800000I15000J0D01*
G01*
X16275000Y-10680000D02*
G75*
G02*
X16245000Y-10680000I-15000J0D01*
G01*
X16245000Y-10680000D02*
G75*
G02*
X16275000Y-10680000I15000J0D01*
G01*
X16275000Y-10830000D02*
G75*
G02*
X16245000Y-10830000I-15000J0D01*
G01*
X16245000Y-10830000D02*
G75*
G02*
X16275000Y-10830000I15000J0D01*
G01*
X16275000Y-10960000D02*
G75*
G02*
X16245000Y-10960000I-15000J0D01*
G01*
X16245000Y-10960000D02*
G75*
G02*
X16275000Y-10960000I15000J0D01*
G01*
X16385000Y-12440000D02*
G75*
G02*
X16355000Y-12440000I-15000J0D01*
G01*
X16355000Y-12440000D02*
G75*
G02*
X16385000Y-12440000I15000J0D01*
G01*
X16475000Y-10360000D02*
G75*
G02*
X16445000Y-10360000I-15000J0D01*
G01*
X16445000Y-10360000D02*
G75*
G02*
X16475000Y-10360000I15000J0D01*
G01*
X16481722Y-12133785D02*
G75*
G02*
X16451722Y-12133785I-15000J0D01*
G01*
X16451722Y-12133785D02*
G75*
G02*
X16481722Y-12133785I15000J0D01*
G01*
X16505000Y-13150000D02*
G75*
G02*
X16475000Y-13150000I-15000J0D01*
G01*
X16475000Y-13150000D02*
G75*
G02*
X16505000Y-13150000I15000J0D01*
G01*
X16645000Y-10360000D02*
G75*
G02*
X16615000Y-10360000I-15000J0D01*
G01*
X16615000Y-10360000D02*
G75*
G02*
X16645000Y-10360000I15000J0D01*
G01*
X16650000Y-9930000D02*
G75*
G02*
X16620000Y-9930000I-15000J0D01*
G01*
X16620000Y-9930000D02*
G75*
G02*
X16650000Y-9930000I15000J0D01*
G01*
X16685000Y-10170000D02*
G75*
G02*
X16655000Y-10170000I-15000J0D01*
G01*
X16655000Y-10170000D02*
G75*
G02*
X16685000Y-10170000I15000J0D01*
G01*
X16710000Y-13055000D02*
G75*
G02*
X16680000Y-13055000I-15000J0D01*
G01*
X16680000Y-13055000D02*
G75*
G02*
X16710000Y-13055000I15000J0D01*
G01*
X16715000Y-12450000D02*
G75*
G02*
X16685000Y-12450000I-15000J0D01*
G01*
X16685000Y-12450000D02*
G75*
G02*
X16715000Y-12450000I15000J0D01*
G01*
X16765000Y-9680000D02*
G75*
G02*
X16735000Y-9680000I-15000J0D01*
G01*
X16735000Y-9680000D02*
G75*
G02*
X16765000Y-9680000I15000J0D01*
G01*
X16815000Y-10600000D02*
G75*
G02*
X16785000Y-10600000I-15000J0D01*
G01*
X16785000Y-10600000D02*
G75*
G02*
X16815000Y-10600000I15000J0D01*
G01*
X16825000Y-10170000D02*
G75*
G02*
X16795000Y-10170000I-15000J0D01*
G01*
X16795000Y-10170000D02*
G75*
G02*
X16825000Y-10170000I15000J0D01*
G01*
X16825000Y-10360000D02*
G75*
G02*
X16795000Y-10360000I-15000J0D01*
G01*
X16795000Y-10360000D02*
G75*
G02*
X16825000Y-10360000I15000J0D01*
G01*
X16855000Y-9845000D02*
G75*
G02*
X16825000Y-9845000I-15000J0D01*
G01*
X16825000Y-9845000D02*
G75*
G02*
X16855000Y-9845000I15000J0D01*
G01*
X16875000Y-9490000D02*
G75*
G02*
X16845000Y-9490000I-15000J0D01*
G01*
X16845000Y-9490000D02*
G75*
G02*
X16875000Y-9490000I15000J0D01*
G01*
X16900000Y-9680000D02*
G75*
G02*
X16870000Y-9680000I-15000J0D01*
G01*
X16870000Y-9680000D02*
G75*
G02*
X16900000Y-9680000I15000J0D01*
G01*
X16975000Y-9890000D02*
G75*
G02*
X16945000Y-9890000I-15000J0D01*
G01*
X16945000Y-9890000D02*
G75*
G02*
X16975000Y-9890000I15000J0D01*
G01*
X17015000Y-9350000D02*
G75*
G02*
X16985000Y-9350000I-15000J0D01*
G01*
X16985000Y-9350000D02*
G75*
G02*
X17015000Y-9350000I15000J0D01*
G01*
X17015000Y-10340000D02*
G75*
G02*
X16985000Y-10340000I-15000J0D01*
G01*
X16985000Y-10340000D02*
G75*
G02*
X17015000Y-10340000I15000J0D01*
G01*
X17015000Y-10520000D02*
G75*
G02*
X16985000Y-10520000I-15000J0D01*
G01*
X16985000Y-10520000D02*
G75*
G02*
X17015000Y-10520000I15000J0D01*
G01*
X17055000Y-10010000D02*
G75*
G02*
X17025000Y-10010000I-15000J0D01*
G01*
X17025000Y-10010000D02*
G75*
G02*
X17055000Y-10010000I15000J0D01*
G01*
X17065000Y-12800000D02*
G75*
G02*
X17035000Y-12800000I-15000J0D01*
G01*
X17035000Y-12800000D02*
G75*
G02*
X17065000Y-12800000I15000J0D01*
G01*
X17115000Y-9750000D02*
G75*
G02*
X17085000Y-9750000I-15000J0D01*
G01*
X17085000Y-9750000D02*
G75*
G02*
X17115000Y-9750000I15000J0D01*
G01*
X17115000Y-11650000D02*
G75*
G02*
X17085000Y-11650000I-15000J0D01*
G01*
X17085000Y-11650000D02*
G75*
G02*
X17115000Y-11650000I15000J0D01*
G01*
X17165000Y-11882000D02*
G75*
G02*
X17135000Y-11882000I-15000J0D01*
G01*
X17135000Y-11882000D02*
G75*
G02*
X17165000Y-11882000I15000J0D01*
G01*
X17175000Y-10340000D02*
G75*
G02*
X17145000Y-10340000I-15000J0D01*
G01*
X17145000Y-10340000D02*
G75*
G02*
X17175000Y-10340000I15000J0D01*
G01*
X17215000Y-10520000D02*
G75*
G02*
X17185000Y-10520000I-15000J0D01*
G01*
X17185000Y-10520000D02*
G75*
G02*
X17215000Y-10520000I15000J0D01*
G01*
X17515000Y-8800000D02*
G75*
G02*
X17485000Y-8800000I-15000J0D01*
G01*
X17485000Y-8800000D02*
G75*
G02*
X17515000Y-8800000I15000J0D01*
G01*
X17665000Y-10700000D02*
G75*
G02*
X17635000Y-10700000I-15000J0D01*
G01*
X17635000Y-10700000D02*
G75*
G02*
X17665000Y-10700000I15000J0D01*
G01*
X17715000Y-11390000D02*
G75*
G02*
X17685000Y-11390000I-15000J0D01*
G01*
X17685000Y-11390000D02*
G75*
G02*
X17715000Y-11390000I15000J0D01*
G01*
X17715000Y-11620000D02*
G75*
G02*
X17685000Y-11620000I-15000J0D01*
G01*
X17685000Y-11620000D02*
G75*
G02*
X17715000Y-11620000I15000J0D01*
G01*
X17735000Y-12440000D02*
G75*
G02*
X17705000Y-12440000I-15000J0D01*
G01*
X17705000Y-12440000D02*
G75*
G02*
X17735000Y-12440000I15000J0D01*
G01*
X17835000Y-11650000D02*
G75*
G02*
X17805000Y-11650000I-15000J0D01*
G01*
X17805000Y-11650000D02*
G75*
G02*
X17835000Y-11650000I15000J0D01*
G01*
X17935000Y-11650000D02*
G75*
G02*
X17905000Y-11650000I-15000J0D01*
G01*
X17905000Y-11650000D02*
G75*
G02*
X17935000Y-11650000I15000J0D01*
G01*
X17995000Y-9790000D02*
G75*
G02*
X17965000Y-9790000I-15000J0D01*
G01*
X17965000Y-9790000D02*
G75*
G02*
X17995000Y-9790000I15000J0D01*
G01*
X18015000Y-10000000D02*
G75*
G02*
X17985000Y-10000000I-15000J0D01*
G01*
X17985000Y-10000000D02*
G75*
G02*
X18015000Y-10000000I15000J0D01*
G01*
X18100000Y-11395000D02*
G75*
G02*
X18070000Y-11395000I-15000J0D01*
G01*
X18070000Y-11395000D02*
G75*
G02*
X18100000Y-11395000I15000J0D01*
G01*
X18155000Y-9270000D02*
G75*
G02*
X18125000Y-9270000I-15000J0D01*
G01*
X18125000Y-9270000D02*
G75*
G02*
X18155000Y-9270000I15000J0D01*
G01*
X18215125Y-11942000D02*
G75*
G02*
X18185125Y-11942000I-15000J0D01*
G01*
X18185125Y-11942000D02*
G75*
G02*
X18215125Y-11942000I15000J0D01*
G01*
X18220000Y-11415000D02*
G75*
G02*
X18190000Y-11415000I-15000J0D01*
G01*
X18190000Y-11415000D02*
G75*
G02*
X18220000Y-11415000I15000J0D01*
G01*
X18265000Y-9500000D02*
G75*
G02*
X18235000Y-9500000I-15000J0D01*
G01*
X18235000Y-9500000D02*
G75*
G02*
X18265000Y-9500000I15000J0D01*
G01*
X18285000Y-10010000D02*
G75*
G02*
X18255000Y-10010000I-15000J0D01*
G01*
X18255000Y-10010000D02*
G75*
G02*
X18285000Y-10010000I15000J0D01*
G01*
X18295000Y-12060000D02*
G75*
G02*
X18265000Y-12060000I-15000J0D01*
G01*
X18265000Y-12060000D02*
G75*
G02*
X18295000Y-12060000I15000J0D01*
G01*
X18390000Y-12145000D02*
G75*
G02*
X18360000Y-12145000I-15000J0D01*
G01*
X18360000Y-12145000D02*
G75*
G02*
X18390000Y-12145000I15000J0D01*
G01*
X18415000Y-12000000D02*
G75*
G02*
X18385000Y-12000000I-15000J0D01*
G01*
X18385000Y-12000000D02*
G75*
G02*
X18415000Y-12000000I15000J0D01*
G01*
X18440000Y-12285000D02*
G75*
G02*
X18410000Y-12285000I-15000J0D01*
G01*
X18410000Y-12285000D02*
G75*
G02*
X18440000Y-12285000I15000J0D01*
G01*
X18485000Y-11520000D02*
G75*
G02*
X18455000Y-11520000I-15000J0D01*
G01*
X18455000Y-11520000D02*
G75*
G02*
X18485000Y-11520000I15000J0D01*
G01*
X18530000Y-11245000D02*
G75*
G02*
X18500000Y-11245000I-15000J0D01*
G01*
X18500000Y-11245000D02*
G75*
G02*
X18530000Y-11245000I15000J0D01*
G01*
X18560000Y-9390000D02*
G75*
G02*
X18530000Y-9390000I-15000J0D01*
G01*
X18530000Y-9390000D02*
G75*
G02*
X18560000Y-9390000I15000J0D01*
G01*
X18620000Y-11135000D02*
G75*
G02*
X18590000Y-11135000I-15000J0D01*
G01*
X18590000Y-11135000D02*
G75*
G02*
X18620000Y-11135000I15000J0D01*
G01*
X18635000Y-11370000D02*
G75*
G02*
X18605000Y-11370000I-15000J0D01*
G01*
X18605000Y-11370000D02*
G75*
G02*
X18635000Y-11370000I15000J0D01*
G01*
X18705000Y-10635000D02*
G75*
G02*
X18675000Y-10635000I-15000J0D01*
G01*
X18675000Y-10635000D02*
G75*
G02*
X18705000Y-10635000I15000J0D01*
G01*
X18715000Y-10800000D02*
G75*
G02*
X18685000Y-10800000I-15000J0D01*
G01*
X18685000Y-10800000D02*
G75*
G02*
X18715000Y-10800000I15000J0D01*
G01*
X18765000Y-8800000D02*
G75*
G02*
X18735000Y-8800000I-15000J0D01*
G01*
X18735000Y-8800000D02*
G75*
G02*
X18765000Y-8800000I15000J0D01*
G01*
X18765000Y-9300000D02*
G75*
G02*
X18735000Y-9300000I-15000J0D01*
G01*
X18735000Y-9300000D02*
G75*
G02*
X18765000Y-9300000I15000J0D01*
G01*
X18840000Y-10565000D02*
G75*
G02*
X18810000Y-10565000I-15000J0D01*
G01*
X18810000Y-10565000D02*
G75*
G02*
X18840000Y-10565000I15000J0D01*
G01*
X18895000Y-11370000D02*
G75*
G02*
X18865000Y-11370000I-15000J0D01*
G01*
X18865000Y-11370000D02*
G75*
G02*
X18895000Y-11370000I15000J0D01*
G01*
X18965000Y-10350000D02*
G75*
G02*
X18935000Y-10350000I-15000J0D01*
G01*
X18935000Y-10350000D02*
G75*
G02*
X18965000Y-10350000I15000J0D01*
G01*
X18965000Y-10800000D02*
G75*
G02*
X18935000Y-10800000I-15000J0D01*
G01*
X18935000Y-10800000D02*
G75*
G02*
X18965000Y-10800000I15000J0D01*
G01*
X18965000Y-12300000D02*
G75*
G02*
X18935000Y-12300000I-15000J0D01*
G01*
X18935000Y-12300000D02*
G75*
G02*
X18965000Y-12300000I15000J0D01*
G01*
X19015000Y-10240000D02*
G75*
G02*
X18985000Y-10240000I-15000J0D01*
G01*
X18985000Y-10240000D02*
G75*
G02*
X19015000Y-10240000I15000J0D01*
G01*
X19035000Y-11220000D02*
G75*
G02*
X19005000Y-11220000I-15000J0D01*
G01*
X19005000Y-11220000D02*
G75*
G02*
X19035000Y-11220000I15000J0D01*
G01*
X19115000Y-9720000D02*
G75*
G02*
X19085000Y-9720000I-15000J0D01*
G01*
X19085000Y-9720000D02*
G75*
G02*
X19115000Y-9720000I15000J0D01*
G01*
X19120000Y-11380000D02*
G75*
G02*
X19090000Y-11380000I-15000J0D01*
G01*
X19090000Y-11380000D02*
G75*
G02*
X19120000Y-11380000I15000J0D01*
G01*
X19145000Y-10580000D02*
G75*
G02*
X19115000Y-10580000I-15000J0D01*
G01*
X19115000Y-10580000D02*
G75*
G02*
X19145000Y-10580000I15000J0D01*
G01*
X19170000Y-11940000D02*
G75*
G02*
X19140000Y-11940000I-15000J0D01*
G01*
X19140000Y-11940000D02*
G75*
G02*
X19170000Y-11940000I15000J0D01*
G01*
X19215000Y-9495000D02*
G75*
G02*
X19185000Y-9495000I-15000J0D01*
G01*
X19185000Y-9495000D02*
G75*
G02*
X19215000Y-9495000I15000J0D01*
G01*
X19225000Y-11425000D02*
G75*
G02*
X19195000Y-11425000I-15000J0D01*
G01*
X19195000Y-11425000D02*
G75*
G02*
X19225000Y-11425000I15000J0D01*
G01*
X19275000Y-9430000D02*
G75*
G02*
X19245000Y-9430000I-15000J0D01*
G01*
X19245000Y-9430000D02*
G75*
G02*
X19275000Y-9430000I15000J0D01*
G01*
X19365000Y-9460000D02*
G75*
G02*
X19335000Y-9460000I-15000J0D01*
G01*
X19335000Y-9460000D02*
G75*
G02*
X19365000Y-9460000I15000J0D01*
G01*
X19365000Y-9915000D02*
G75*
G02*
X19335000Y-9915000I-15000J0D01*
G01*
X19335000Y-9915000D02*
G75*
G02*
X19365000Y-9915000I15000J0D01*
G01*
X19420000Y-9260000D02*
G75*
G02*
X19390000Y-9260000I-15000J0D01*
G01*
X19390000Y-9260000D02*
G75*
G02*
X19420000Y-9260000I15000J0D01*
G01*
X19445000Y-9955000D02*
G75*
G02*
X19415000Y-9955000I-15000J0D01*
G01*
X19415000Y-9955000D02*
G75*
G02*
X19445000Y-9955000I15000J0D01*
G01*
X19445000Y-11750000D02*
G75*
G02*
X19415000Y-11750000I-15000J0D01*
G01*
X19415000Y-11750000D02*
G75*
G02*
X19445000Y-11750000I15000J0D01*
G01*
X19465000Y-12750000D02*
G75*
G02*
X19435000Y-12750000I-15000J0D01*
G01*
X19435000Y-12750000D02*
G75*
G02*
X19465000Y-12750000I15000J0D01*
G01*
X19480000Y-9180000D02*
G75*
G02*
X19450000Y-9180000I-15000J0D01*
G01*
X19450000Y-9180000D02*
G75*
G02*
X19480000Y-9180000I15000J0D01*
G01*
X19505000Y-10320000D02*
G75*
G02*
X19475000Y-10320000I-15000J0D01*
G01*
X19475000Y-10320000D02*
G75*
G02*
X19505000Y-10320000I15000J0D01*
G01*
X19505000Y-11660000D02*
G75*
G02*
X19475000Y-11660000I-15000J0D01*
G01*
X19475000Y-11660000D02*
G75*
G02*
X19505000Y-11660000I15000J0D01*
G01*
X19515000Y-8850000D02*
G75*
G02*
X19485000Y-8850000I-15000J0D01*
G01*
X19485000Y-8850000D02*
G75*
G02*
X19515000Y-8850000I15000J0D01*
G01*
X19519383Y-10215617D02*
G75*
G02*
X19489383Y-10215617I-15000J0D01*
G01*
X19489383Y-10215617D02*
G75*
G02*
X19519383Y-10215617I15000J0D01*
G01*
X19525000Y-12250000D02*
G75*
G02*
X19495000Y-12250000I-15000J0D01*
G01*
X19495000Y-12250000D02*
G75*
G02*
X19525000Y-12250000I15000J0D01*
G01*
X19535000Y-9495000D02*
G75*
G02*
X19505000Y-9495000I-15000J0D01*
G01*
X19505000Y-9495000D02*
G75*
G02*
X19535000Y-9495000I15000J0D01*
G01*
X19558119Y-11280119D02*
G75*
G02*
X19528119Y-11280119I-15000J0D01*
G01*
X19528119Y-11280119D02*
G75*
G02*
X19558119Y-11280119I15000J0D01*
G01*
X19615000Y-9400000D02*
G75*
G02*
X19585000Y-9400000I-15000J0D01*
G01*
X19585000Y-9400000D02*
G75*
G02*
X19615000Y-9400000I15000J0D01*
G01*
X19675000Y-10180000D02*
G75*
G02*
X19645000Y-10180000I-15000J0D01*
G01*
X19645000Y-10180000D02*
G75*
G02*
X19675000Y-10180000I15000J0D01*
G01*
X19688119Y-12049881D02*
G75*
G02*
X19658119Y-12049881I-15000J0D01*
G01*
X19658119Y-12049881D02*
G75*
G02*
X19688119Y-12049881I15000J0D01*
G01*
X19715000Y-11430000D02*
G75*
G02*
X19685000Y-11430000I-15000J0D01*
G01*
X19685000Y-11430000D02*
G75*
G02*
X19715000Y-11430000I15000J0D01*
G01*
X19785000Y-12510000D02*
G75*
G02*
X19755000Y-12510000I-15000J0D01*
G01*
X19755000Y-12510000D02*
G75*
G02*
X19785000Y-12510000I15000J0D01*
G01*
X19865000Y-9650000D02*
G75*
G02*
X19835000Y-9650000I-15000J0D01*
G01*
X19835000Y-9650000D02*
G75*
G02*
X19865000Y-9650000I15000J0D01*
G01*
X19905000Y-9510000D02*
G75*
G02*
X19875000Y-9510000I-15000J0D01*
G01*
X19875000Y-9510000D02*
G75*
G02*
X19905000Y-9510000I15000J0D01*
G01*
X20385000Y-9755000D02*
G75*
G02*
X20355000Y-9755000I-15000J0D01*
G01*
X20355000Y-9755000D02*
G75*
G02*
X20385000Y-9755000I15000J0D01*
G01*
X20425000Y-9810000D02*
G75*
G02*
X20395000Y-9810000I-15000J0D01*
G01*
X20395000Y-9810000D02*
G75*
G02*
X20425000Y-9810000I15000J0D01*
G01*
X20445000Y-11910000D02*
G75*
G02*
X20415000Y-11910000I-15000J0D01*
G01*
X20415000Y-11910000D02*
G75*
G02*
X20445000Y-11910000I15000J0D01*
G01*
X20475000Y-10015000D02*
G75*
G02*
X20445000Y-10015000I-15000J0D01*
G01*
X20445000Y-10015000D02*
G75*
G02*
X20475000Y-10015000I15000J0D01*
G01*
X20475000Y-11330000D02*
G75*
G02*
X20445000Y-11330000I-15000J0D01*
G01*
X20445000Y-11330000D02*
G75*
G02*
X20475000Y-11330000I15000J0D01*
G01*
X20525000Y-11530000D02*
G75*
G02*
X20495000Y-11530000I-15000J0D01*
G01*
X20495000Y-11530000D02*
G75*
G02*
X20525000Y-11530000I15000J0D01*
G01*
X20525000Y-11740000D02*
G75*
G02*
X20495000Y-11740000I-15000J0D01*
G01*
X20495000Y-11740000D02*
G75*
G02*
X20525000Y-11740000I15000J0D01*
G01*
X20535000Y-10490000D02*
G75*
G02*
X20505000Y-10490000I-15000J0D01*
G01*
X20505000Y-10490000D02*
G75*
G02*
X20535000Y-10490000I15000J0D01*
G01*
X20555000Y-11910000D02*
G75*
G02*
X20525000Y-11910000I-15000J0D01*
G01*
X20525000Y-11910000D02*
G75*
G02*
X20555000Y-11910000I15000J0D01*
G01*
X20585000Y-11635000D02*
G75*
G02*
X20555000Y-11635000I-15000J0D01*
G01*
X20555000Y-11635000D02*
G75*
G02*
X20585000Y-11635000I15000J0D01*
G01*
X20630000Y-10015000D02*
G75*
G02*
X20600000Y-10015000I-15000J0D01*
G01*
X20600000Y-10015000D02*
G75*
G02*
X20630000Y-10015000I15000J0D01*
G01*
X20645000Y-10320000D02*
G75*
G02*
X20615000Y-10320000I-15000J0D01*
G01*
X20615000Y-10320000D02*
G75*
G02*
X20645000Y-10320000I15000J0D01*
G01*
X20645000Y-11530000D02*
G75*
G02*
X20615000Y-11530000I-15000J0D01*
G01*
X20615000Y-11530000D02*
G75*
G02*
X20645000Y-11530000I15000J0D01*
G01*
X20645000Y-11740000D02*
G75*
G02*
X20615000Y-11740000I-15000J0D01*
G01*
X20615000Y-11740000D02*
G75*
G02*
X20645000Y-11740000I15000J0D01*
G01*
X20655000Y-11320000D02*
G75*
G02*
X20625000Y-11320000I-15000J0D01*
G01*
X20625000Y-11320000D02*
G75*
G02*
X20655000Y-11320000I15000J0D01*
G01*
X20655000Y-11910000D02*
G75*
G02*
X20625000Y-11910000I-15000J0D01*
G01*
X20625000Y-11910000D02*
G75*
G02*
X20655000Y-11910000I15000J0D01*
G01*
X20685000Y-10460000D02*
G75*
G02*
X20655000Y-10460000I-15000J0D01*
G01*
X20655000Y-10460000D02*
G75*
G02*
X20685000Y-10460000I15000J0D01*
G01*
X20695000Y-12290000D02*
G75*
G02*
X20665000Y-12290000I-15000J0D01*
G01*
X20665000Y-12290000D02*
G75*
G02*
X20695000Y-12290000I15000J0D01*
G01*
X20735000Y-10390000D02*
G75*
G02*
X20705000Y-10390000I-15000J0D01*
G01*
X20705000Y-10390000D02*
G75*
G02*
X20735000Y-10390000I15000J0D01*
G01*
X20765000Y-12220000D02*
G75*
G02*
X20735000Y-12220000I-15000J0D01*
G01*
X20735000Y-12220000D02*
G75*
G02*
X20765000Y-12220000I15000J0D01*
G01*
X20785000Y-10320000D02*
G75*
G02*
X20755000Y-10320000I-15000J0D01*
G01*
X20755000Y-10320000D02*
G75*
G02*
X20785000Y-10320000I15000J0D01*
G01*
X20825000Y-10460000D02*
G75*
G02*
X20795000Y-10460000I-15000J0D01*
G01*
X20795000Y-10460000D02*
G75*
G02*
X20825000Y-10460000I15000J0D01*
G01*
X20895000Y-9390000D02*
G75*
G02*
X20865000Y-9390000I-15000J0D01*
G01*
X20865000Y-9390000D02*
G75*
G02*
X20895000Y-9390000I15000J0D01*
G01*
X20915000Y-10550000D02*
G75*
G02*
X20885000Y-10550000I-15000J0D01*
G01*
X20885000Y-10550000D02*
G75*
G02*
X20915000Y-10550000I15000J0D01*
G01*
X20995000Y-12160000D02*
G75*
G02*
X20965000Y-12160000I-15000J0D01*
G01*
X20965000Y-12160000D02*
G75*
G02*
X20995000Y-12160000I15000J0D01*
G01*
X21090000Y-9680000D02*
G75*
G02*
X21060000Y-9680000I-15000J0D01*
G01*
X21060000Y-9680000D02*
G75*
G02*
X21090000Y-9680000I15000J0D01*
G01*
X21405000Y-9560000D02*
G75*
G02*
X21375000Y-9560000I-15000J0D01*
G01*
X21375000Y-9560000D02*
G75*
G02*
X21405000Y-9560000I15000J0D01*
G01*
X21540000Y-9630000D02*
G75*
G02*
X21510000Y-9630000I-15000J0D01*
G01*
X21510000Y-9630000D02*
G75*
G02*
X21540000Y-9630000I15000J0D01*
G01*
X21565000Y-12250000D02*
G75*
G02*
X21535000Y-12250000I-15000J0D01*
G01*
X21535000Y-12250000D02*
G75*
G02*
X21565000Y-12250000I15000J0D01*
G01*
X21585000Y-12080000D02*
G75*
G02*
X21555000Y-12080000I-15000J0D01*
G01*
X21555000Y-12080000D02*
G75*
G02*
X21585000Y-12080000I15000J0D01*
G01*
X21665000Y-10600000D02*
G75*
G02*
X21635000Y-10600000I-15000J0D01*
G01*
X21635000Y-10600000D02*
G75*
G02*
X21665000Y-10600000I15000J0D01*
G01*
X21745000Y-11850000D02*
G75*
G02*
X21715000Y-11850000I-15000J0D01*
G01*
X21715000Y-11850000D02*
G75*
G02*
X21745000Y-11850000I15000J0D01*
G01*
X21745000Y-12000000D02*
G75*
G02*
X21715000Y-12000000I-15000J0D01*
G01*
X21715000Y-12000000D02*
G75*
G02*
X21745000Y-12000000I15000J0D01*
G01*
X21800383Y-12140000D02*
G75*
G02*
X21770383Y-12140000I-15000J0D01*
G01*
X21770383Y-12140000D02*
G75*
G02*
X21800383Y-12140000I15000J0D01*
G01*
X19350000Y-12040000D02*
X19350000Y-12080000D01*
X19330000Y-12060000D02*
X19370000Y-12060000D01*
X19470000Y-11430000D02*
X19470000Y-11470000D01*
X19450000Y-11450000D02*
X19490000Y-11450000D01*
X19850000Y-11080000D02*
X19850000Y-11120000D01*
X19830000Y-11100000D02*
X19870000Y-11100000D01*
X20861283Y-12087434D02*
X20861283Y-12127434D01*
X20841283Y-12107434D02*
X20881283Y-12107434D01*
X21130000Y-10410000D02*
X21130000Y-10450000D01*
X21110000Y-10430000D02*
X21150000Y-10430000D01*
X21330000Y-10960000D02*
X21330000Y-11000000D01*
X21310000Y-10980000D02*
X21350000Y-10980000D01*
X21670049Y-11260477D02*
X21670049Y-11300477D01*
X21650049Y-11280477D02*
X21690049Y-11280477D01*
X21572750Y-9840750D02*
X21572750Y-9791250D01*
X21523250Y-9791250D01*
X21523250Y-9840750D01*
X21572750Y-9840750D01*
X21572750Y-10324750D02*
X21572750Y-10275250D01*
X21523250Y-10275250D01*
X21523250Y-10324750D01*
X21572750Y-10324750D01*
X21837750Y-9719750D02*
X21837750Y-9670250D01*
X21788250Y-9670250D01*
X21788250Y-9719750D01*
X21837750Y-9719750D01*
X21833000Y-9659999D02*
X21793000Y-9659999D01*
X21793000Y-9730001D02*
G75*
G02*
X21793000Y-9659999I0J35001D01*
G01*
X21793000Y-9730001D02*
X21833000Y-9730001D01*
X21833000Y-9730001D02*
G75*
G03*
X21833000Y-9659999I0J35001D01*
G01*
X21837750Y-10445750D02*
X21837750Y-10396250D01*
X21788250Y-10396250D01*
X21788250Y-10445750D01*
X21837750Y-10445750D01*
X21833000Y-10385999D02*
X21793000Y-10385999D01*
X21793000Y-10456001D02*
G75*
G02*
X21793000Y-10385999I0J35001D01*
G01*
X21793000Y-10456001D02*
X21833000Y-10456001D01*
X21833000Y-10456001D02*
G75*
G03*
X21833000Y-10385999I0J35001D01*
G01*
D13*
X9400000Y-8845000D02*
X9465000Y-8780000D01*
X9400000Y-8715000D01*
X9335000Y-8780000D01*
X9400000Y-8845000D01*
X10000000Y-8845000D02*
X10065000Y-8780000D01*
X10000000Y-8715000D01*
X9935000Y-8780000D01*
X10000000Y-8845000D01*
D11*
X9458277Y-13613984D02*
X9458277Y-13413984D01*
X9458277Y-13413984D02*
X9505896Y-13413984D01*
X9505896Y-13413984D02*
X9534467Y-13423508D01*
X9534467Y-13423508D02*
X9553515Y-13442555D01*
X9553515Y-13442555D02*
X9563039Y-13461603D01*
X9563039Y-13461603D02*
X9572563Y-13499698D01*
X9572563Y-13499698D02*
X9572563Y-13528269D01*
X9572563Y-13528269D02*
X9563039Y-13566365D01*
X9563039Y-13566365D02*
X9553515Y-13585412D01*
X9553515Y-13585412D02*
X9534467Y-13604460D01*
X9534467Y-13604460D02*
X9505896Y-13613984D01*
X9505896Y-13613984D02*
X9458277Y-13613984D01*
X9658277Y-13613984D02*
X9658277Y-13480650D01*
X9658277Y-13518746D02*
X9667801Y-13499698D01*
X9667801Y-13499698D02*
X9677324Y-13490174D01*
X9677324Y-13490174D02*
X9696372Y-13480650D01*
X9696372Y-13480650D02*
X9715420Y-13480650D01*
X9782086Y-13613984D02*
X9782086Y-13480650D01*
X9782086Y-13413984D02*
X9772563Y-13423508D01*
X9772563Y-13423508D02*
X9782086Y-13433031D01*
X9782086Y-13433031D02*
X9791610Y-13423508D01*
X9791610Y-13423508D02*
X9782086Y-13413984D01*
X9782086Y-13413984D02*
X9782086Y-13433031D01*
X9905896Y-13613984D02*
X9886848Y-13604460D01*
X9886848Y-13604460D02*
X9877324Y-13585412D01*
X9877324Y-13585412D02*
X9877324Y-13413984D01*
X10010658Y-13613984D02*
X9991610Y-13604460D01*
X9991610Y-13604460D02*
X9982086Y-13585412D01*
X9982086Y-13585412D02*
X9982086Y-13413984D01*
X10239229Y-13613984D02*
X10239229Y-13413984D01*
X10239229Y-13413984D02*
X10305896Y-13556841D01*
X10305896Y-13556841D02*
X10372563Y-13413984D01*
X10372563Y-13413984D02*
X10372563Y-13613984D01*
X10553515Y-13613984D02*
X10553515Y-13509222D01*
X10553515Y-13509222D02*
X10543991Y-13490174D01*
X10543991Y-13490174D02*
X10524944Y-13480650D01*
X10524944Y-13480650D02*
X10486848Y-13480650D01*
X10486848Y-13480650D02*
X10467801Y-13490174D01*
X10553515Y-13604460D02*
X10534467Y-13613984D01*
X10534467Y-13613984D02*
X10486848Y-13613984D01*
X10486848Y-13613984D02*
X10467801Y-13604460D01*
X10467801Y-13604460D02*
X10458277Y-13585412D01*
X10458277Y-13585412D02*
X10458277Y-13566365D01*
X10458277Y-13566365D02*
X10467801Y-13547317D01*
X10467801Y-13547317D02*
X10486848Y-13537793D01*
X10486848Y-13537793D02*
X10534467Y-13537793D01*
X10534467Y-13537793D02*
X10553515Y-13528269D01*
X10648753Y-13480650D02*
X10648753Y-13680650D01*
X10648753Y-13490174D02*
X10667801Y-13480650D01*
X10667801Y-13480650D02*
X10705896Y-13480650D01*
X10705896Y-13480650D02*
X10724944Y-13490174D01*
X10724944Y-13490174D02*
X10734467Y-13499698D01*
X10734467Y-13499698D02*
X10743991Y-13518746D01*
X10743991Y-13518746D02*
X10743991Y-13575888D01*
X10743991Y-13575888D02*
X10734467Y-13594936D01*
X10734467Y-13594936D02*
X10724944Y-13604460D01*
X10724944Y-13604460D02*
X10705896Y-13613984D01*
X10705896Y-13613984D02*
X10667801Y-13613984D01*
X10667801Y-13613984D02*
X10648753Y-13604460D01*
X10829705Y-13594936D02*
X10839229Y-13604460D01*
X10839229Y-13604460D02*
X10829705Y-13613984D01*
X10829705Y-13613984D02*
X10820182Y-13604460D01*
X10820182Y-13604460D02*
X10829705Y-13594936D01*
X10829705Y-13594936D02*
X10829705Y-13613984D01*
X10829705Y-13490174D02*
X10839229Y-13499698D01*
X10839229Y-13499698D02*
X10829705Y-13509222D01*
X10829705Y-13509222D02*
X10820182Y-13499698D01*
X10820182Y-13499698D02*
X10829705Y-13490174D01*
X10829705Y-13490174D02*
X10829705Y-13509222D01*
D12*
X9177500Y-13932500D02*
X9197500Y-13952500D01*
X9197500Y-13932500D02*
X9177500Y-13952500D01*
D11*
X9496372Y-13833984D02*
X9515420Y-13833984D01*
X9515420Y-13833984D02*
X9534467Y-13843508D01*
X9534467Y-13843508D02*
X9543991Y-13853031D01*
X9543991Y-13853031D02*
X9553515Y-13872079D01*
X9553515Y-13872079D02*
X9563039Y-13910174D01*
X9563039Y-13910174D02*
X9563039Y-13957793D01*
X9563039Y-13957793D02*
X9553515Y-13995888D01*
X9553515Y-13995888D02*
X9543991Y-14014936D01*
X9543991Y-14014936D02*
X9534467Y-14024460D01*
X9534467Y-14024460D02*
X9515420Y-14033984D01*
X9515420Y-14033984D02*
X9496372Y-14033984D01*
X9496372Y-14033984D02*
X9477324Y-14024460D01*
X9477324Y-14024460D02*
X9467801Y-14014936D01*
X9467801Y-14014936D02*
X9458277Y-13995888D01*
X9458277Y-13995888D02*
X9448753Y-13957793D01*
X9448753Y-13957793D02*
X9448753Y-13910174D01*
X9448753Y-13910174D02*
X9458277Y-13872079D01*
X9458277Y-13872079D02*
X9467801Y-13853031D01*
X9467801Y-13853031D02*
X9477324Y-13843508D01*
X9477324Y-13843508D02*
X9496372Y-13833984D01*
X9648753Y-14014936D02*
X9658277Y-14024460D01*
X9658277Y-14024460D02*
X9648753Y-14033984D01*
X9648753Y-14033984D02*
X9639229Y-14024460D01*
X9639229Y-14024460D02*
X9648753Y-14014936D01*
X9648753Y-14014936D02*
X9648753Y-14033984D01*
X9734467Y-13853031D02*
X9743991Y-13843508D01*
X9743991Y-13843508D02*
X9763039Y-13833984D01*
X9763039Y-13833984D02*
X9810658Y-13833984D01*
X9810658Y-13833984D02*
X9829705Y-13843508D01*
X9829705Y-13843508D02*
X9839229Y-13853031D01*
X9839229Y-13853031D02*
X9848753Y-13872079D01*
X9848753Y-13872079D02*
X9848753Y-13891127D01*
X9848753Y-13891127D02*
X9839229Y-13919698D01*
X9839229Y-13919698D02*
X9724944Y-14033984D01*
X9724944Y-14033984D02*
X9848753Y-14033984D01*
X9972563Y-13833984D02*
X9991610Y-13833984D01*
X9991610Y-13833984D02*
X10010658Y-13843508D01*
X10010658Y-13843508D02*
X10020182Y-13853031D01*
X10020182Y-13853031D02*
X10029705Y-13872079D01*
X10029705Y-13872079D02*
X10039229Y-13910174D01*
X10039229Y-13910174D02*
X10039229Y-13957793D01*
X10039229Y-13957793D02*
X10029705Y-13995888D01*
X10029705Y-13995888D02*
X10020182Y-14014936D01*
X10020182Y-14014936D02*
X10010658Y-14024460D01*
X10010658Y-14024460D02*
X9991610Y-14033984D01*
X9991610Y-14033984D02*
X9972563Y-14033984D01*
X9972563Y-14033984D02*
X9953515Y-14024460D01*
X9953515Y-14024460D02*
X9943991Y-14014936D01*
X9943991Y-14014936D02*
X9934467Y-13995888D01*
X9934467Y-13995888D02*
X9924944Y-13957793D01*
X9924944Y-13957793D02*
X9924944Y-13910174D01*
X9924944Y-13910174D02*
X9934467Y-13872079D01*
X9934467Y-13872079D02*
X9943991Y-13853031D01*
X9943991Y-13853031D02*
X9953515Y-13843508D01*
X9953515Y-13843508D02*
X9972563Y-13833984D01*
X10163039Y-13833984D02*
X10182086Y-13833984D01*
X10182086Y-13833984D02*
X10201134Y-13843508D01*
X10201134Y-13843508D02*
X10210658Y-13853031D01*
X10210658Y-13853031D02*
X10220182Y-13872079D01*
X10220182Y-13872079D02*
X10229705Y-13910174D01*
X10229705Y-13910174D02*
X10229705Y-13957793D01*
X10229705Y-13957793D02*
X10220182Y-13995888D01*
X10220182Y-13995888D02*
X10210658Y-14014936D01*
X10210658Y-14014936D02*
X10201134Y-14024460D01*
X10201134Y-14024460D02*
X10182086Y-14033984D01*
X10182086Y-14033984D02*
X10163039Y-14033984D01*
X10163039Y-14033984D02*
X10143991Y-14024460D01*
X10143991Y-14024460D02*
X10134467Y-14014936D01*
X10134467Y-14014936D02*
X10124944Y-13995888D01*
X10124944Y-13995888D02*
X10115420Y-13957793D01*
X10115420Y-13957793D02*
X10115420Y-13910174D01*
X10115420Y-13910174D02*
X10124944Y-13872079D01*
X10124944Y-13872079D02*
X10134467Y-13853031D01*
X10134467Y-13853031D02*
X10143991Y-13843508D01*
X10143991Y-13843508D02*
X10163039Y-13833984D01*
X10315420Y-14033984D02*
X10315420Y-13900650D01*
X10315420Y-13919698D02*
X10324944Y-13910174D01*
X10324944Y-13910174D02*
X10343991Y-13900650D01*
X10343991Y-13900650D02*
X10372563Y-13900650D01*
X10372563Y-13900650D02*
X10391610Y-13910174D01*
X10391610Y-13910174D02*
X10401134Y-13929222D01*
X10401134Y-13929222D02*
X10401134Y-14033984D01*
X10401134Y-13929222D02*
X10410658Y-13910174D01*
X10410658Y-13910174D02*
X10429705Y-13900650D01*
X10429705Y-13900650D02*
X10458277Y-13900650D01*
X10458277Y-13900650D02*
X10477325Y-13910174D01*
X10477325Y-13910174D02*
X10486848Y-13929222D01*
X10486848Y-13929222D02*
X10486848Y-14033984D01*
X10582086Y-14033984D02*
X10582086Y-13900650D01*
X10582086Y-13919698D02*
X10591610Y-13910174D01*
X10591610Y-13910174D02*
X10610658Y-13900650D01*
X10610658Y-13900650D02*
X10639229Y-13900650D01*
X10639229Y-13900650D02*
X10658277Y-13910174D01*
X10658277Y-13910174D02*
X10667801Y-13929222D01*
X10667801Y-13929222D02*
X10667801Y-14033984D01*
X10667801Y-13929222D02*
X10677325Y-13910174D01*
X10677325Y-13910174D02*
X10696372Y-13900650D01*
X10696372Y-13900650D02*
X10724944Y-13900650D01*
X10724944Y-13900650D02*
X10743991Y-13910174D01*
X10743991Y-13910174D02*
X10753515Y-13929222D01*
X10753515Y-13929222D02*
X10753515Y-14033984D01*
X11143991Y-13824460D02*
X10972563Y-14081603D01*
X11401134Y-13833984D02*
X11420182Y-13833984D01*
X11420182Y-13833984D02*
X11439229Y-13843508D01*
X11439229Y-13843508D02*
X11448753Y-13853031D01*
X11448753Y-13853031D02*
X11458277Y-13872079D01*
X11458277Y-13872079D02*
X11467801Y-13910174D01*
X11467801Y-13910174D02*
X11467801Y-13957793D01*
X11467801Y-13957793D02*
X11458277Y-13995888D01*
X11458277Y-13995888D02*
X11448753Y-14014936D01*
X11448753Y-14014936D02*
X11439229Y-14024460D01*
X11439229Y-14024460D02*
X11420182Y-14033984D01*
X11420182Y-14033984D02*
X11401134Y-14033984D01*
X11401134Y-14033984D02*
X11382086Y-14024460D01*
X11382086Y-14024460D02*
X11372563Y-14014936D01*
X11372563Y-14014936D02*
X11363039Y-13995888D01*
X11363039Y-13995888D02*
X11353515Y-13957793D01*
X11353515Y-13957793D02*
X11353515Y-13910174D01*
X11353515Y-13910174D02*
X11363039Y-13872079D01*
X11363039Y-13872079D02*
X11372563Y-13853031D01*
X11372563Y-13853031D02*
X11382086Y-13843508D01*
X11382086Y-13843508D02*
X11401134Y-13833984D01*
X11553515Y-14014936D02*
X11563039Y-14024460D01*
X11563039Y-14024460D02*
X11553515Y-14033984D01*
X11553515Y-14033984D02*
X11543991Y-14024460D01*
X11543991Y-14024460D02*
X11553515Y-14014936D01*
X11553515Y-14014936D02*
X11553515Y-14033984D01*
X11686848Y-13833984D02*
X11705896Y-13833984D01*
X11705896Y-13833984D02*
X11724944Y-13843508D01*
X11724944Y-13843508D02*
X11734467Y-13853031D01*
X11734467Y-13853031D02*
X11743991Y-13872079D01*
X11743991Y-13872079D02*
X11753515Y-13910174D01*
X11753515Y-13910174D02*
X11753515Y-13957793D01*
X11753515Y-13957793D02*
X11743991Y-13995888D01*
X11743991Y-13995888D02*
X11734467Y-14014936D01*
X11734467Y-14014936D02*
X11724944Y-14024460D01*
X11724944Y-14024460D02*
X11705896Y-14033984D01*
X11705896Y-14033984D02*
X11686848Y-14033984D01*
X11686848Y-14033984D02*
X11667801Y-14024460D01*
X11667801Y-14024460D02*
X11658277Y-14014936D01*
X11658277Y-14014936D02*
X11648753Y-13995888D01*
X11648753Y-13995888D02*
X11639229Y-13957793D01*
X11639229Y-13957793D02*
X11639229Y-13910174D01*
X11639229Y-13910174D02*
X11648753Y-13872079D01*
X11648753Y-13872079D02*
X11658277Y-13853031D01*
X11658277Y-13853031D02*
X11667801Y-13843508D01*
X11667801Y-13843508D02*
X11686848Y-13833984D01*
X11877325Y-13833984D02*
X11896372Y-13833984D01*
X11896372Y-13833984D02*
X11915420Y-13843508D01*
X11915420Y-13843508D02*
X11924944Y-13853031D01*
X11924944Y-13853031D02*
X11934467Y-13872079D01*
X11934467Y-13872079D02*
X11943991Y-13910174D01*
X11943991Y-13910174D02*
X11943991Y-13957793D01*
X11943991Y-13957793D02*
X11934467Y-13995888D01*
X11934467Y-13995888D02*
X11924944Y-14014936D01*
X11924944Y-14014936D02*
X11915420Y-14024460D01*
X11915420Y-14024460D02*
X11896372Y-14033984D01*
X11896372Y-14033984D02*
X11877325Y-14033984D01*
X11877325Y-14033984D02*
X11858277Y-14024460D01*
X11858277Y-14024460D02*
X11848753Y-14014936D01*
X11848753Y-14014936D02*
X11839229Y-13995888D01*
X11839229Y-13995888D02*
X11829706Y-13957793D01*
X11829706Y-13957793D02*
X11829706Y-13910174D01*
X11829706Y-13910174D02*
X11839229Y-13872079D01*
X11839229Y-13872079D02*
X11848753Y-13853031D01*
X11848753Y-13853031D02*
X11858277Y-13843508D01*
X11858277Y-13843508D02*
X11877325Y-13833984D01*
X12010658Y-13833984D02*
X12143991Y-13833984D01*
X12143991Y-13833984D02*
X12058277Y-14033984D01*
X12229706Y-14033984D02*
X12267801Y-14033984D01*
X12267801Y-14033984D02*
X12286848Y-14024460D01*
X12286848Y-14024460D02*
X12296372Y-14014936D01*
X12296372Y-14014936D02*
X12315420Y-13986365D01*
X12315420Y-13986365D02*
X12324944Y-13948269D01*
X12324944Y-13948269D02*
X12324944Y-13872079D01*
X12324944Y-13872079D02*
X12315420Y-13853031D01*
X12315420Y-13853031D02*
X12305896Y-13843508D01*
X12305896Y-13843508D02*
X12286848Y-13833984D01*
X12286848Y-13833984D02*
X12248753Y-13833984D01*
X12248753Y-13833984D02*
X12229706Y-13843508D01*
X12229706Y-13843508D02*
X12220182Y-13853031D01*
X12220182Y-13853031D02*
X12210658Y-13872079D01*
X12210658Y-13872079D02*
X12210658Y-13919698D01*
X12210658Y-13919698D02*
X12220182Y-13938746D01*
X12220182Y-13938746D02*
X12229706Y-13948269D01*
X12229706Y-13948269D02*
X12248753Y-13957793D01*
X12248753Y-13957793D02*
X12286848Y-13957793D01*
X12286848Y-13957793D02*
X12305896Y-13948269D01*
X12305896Y-13948269D02*
X12315420Y-13938746D01*
X12315420Y-13938746D02*
X12324944Y-13919698D01*
X12401134Y-13833984D02*
X12401134Y-13872079D01*
X12477325Y-13833984D02*
X12477325Y-13872079D01*
X12772563Y-14110174D02*
X12763039Y-14100650D01*
X12763039Y-14100650D02*
X12743991Y-14072079D01*
X12743991Y-14072079D02*
X12734468Y-14053031D01*
X12734468Y-14053031D02*
X12724944Y-14024460D01*
X12724944Y-14024460D02*
X12715420Y-13976841D01*
X12715420Y-13976841D02*
X12715420Y-13938746D01*
X12715420Y-13938746D02*
X12724944Y-13891127D01*
X12724944Y-13891127D02*
X12734468Y-13862555D01*
X12734468Y-13862555D02*
X12743991Y-13843508D01*
X12743991Y-13843508D02*
X12763039Y-13814936D01*
X12763039Y-13814936D02*
X12772563Y-13805412D01*
X12953515Y-14033984D02*
X12839229Y-14033984D01*
X12896372Y-14033984D02*
X12896372Y-13833984D01*
X12896372Y-13833984D02*
X12877325Y-13862555D01*
X12877325Y-13862555D02*
X12858277Y-13881603D01*
X12858277Y-13881603D02*
X12839229Y-13891127D01*
X13029706Y-13853031D02*
X13039229Y-13843508D01*
X13039229Y-13843508D02*
X13058277Y-13833984D01*
X13058277Y-13833984D02*
X13105896Y-13833984D01*
X13105896Y-13833984D02*
X13124944Y-13843508D01*
X13124944Y-13843508D02*
X13134468Y-13853031D01*
X13134468Y-13853031D02*
X13143991Y-13872079D01*
X13143991Y-13872079D02*
X13143991Y-13891127D01*
X13143991Y-13891127D02*
X13134468Y-13919698D01*
X13134468Y-13919698D02*
X13020182Y-14033984D01*
X13020182Y-14033984D02*
X13143991Y-14033984D01*
X13382087Y-14033984D02*
X13382087Y-13833984D01*
X13467801Y-14033984D02*
X13467801Y-13929222D01*
X13467801Y-13929222D02*
X13458277Y-13910174D01*
X13458277Y-13910174D02*
X13439230Y-13900650D01*
X13439230Y-13900650D02*
X13410658Y-13900650D01*
X13410658Y-13900650D02*
X13391610Y-13910174D01*
X13391610Y-13910174D02*
X13382087Y-13919698D01*
X13591610Y-14033984D02*
X13572563Y-14024460D01*
X13572563Y-14024460D02*
X13563039Y-14014936D01*
X13563039Y-14014936D02*
X13553515Y-13995888D01*
X13553515Y-13995888D02*
X13553515Y-13938746D01*
X13553515Y-13938746D02*
X13563039Y-13919698D01*
X13563039Y-13919698D02*
X13572563Y-13910174D01*
X13572563Y-13910174D02*
X13591610Y-13900650D01*
X13591610Y-13900650D02*
X13620182Y-13900650D01*
X13620182Y-13900650D02*
X13639230Y-13910174D01*
X13639230Y-13910174D02*
X13648753Y-13919698D01*
X13648753Y-13919698D02*
X13658277Y-13938746D01*
X13658277Y-13938746D02*
X13658277Y-13995888D01*
X13658277Y-13995888D02*
X13648753Y-14014936D01*
X13648753Y-14014936D02*
X13639230Y-14024460D01*
X13639230Y-14024460D02*
X13620182Y-14033984D01*
X13620182Y-14033984D02*
X13591610Y-14033984D01*
X13772563Y-14033984D02*
X13753515Y-14024460D01*
X13753515Y-14024460D02*
X13743991Y-14005412D01*
X13743991Y-14005412D02*
X13743991Y-13833984D01*
X13924944Y-14024460D02*
X13905896Y-14033984D01*
X13905896Y-14033984D02*
X13867801Y-14033984D01*
X13867801Y-14033984D02*
X13848753Y-14024460D01*
X13848753Y-14024460D02*
X13839230Y-14005412D01*
X13839230Y-14005412D02*
X13839230Y-13929222D01*
X13839230Y-13929222D02*
X13848753Y-13910174D01*
X13848753Y-13910174D02*
X13867801Y-13900650D01*
X13867801Y-13900650D02*
X13905896Y-13900650D01*
X13905896Y-13900650D02*
X13924944Y-13910174D01*
X13924944Y-13910174D02*
X13934468Y-13929222D01*
X13934468Y-13929222D02*
X13934468Y-13948269D01*
X13934468Y-13948269D02*
X13839230Y-13967317D01*
X14010658Y-14024460D02*
X14029706Y-14033984D01*
X14029706Y-14033984D02*
X14067801Y-14033984D01*
X14067801Y-14033984D02*
X14086849Y-14024460D01*
X14086849Y-14024460D02*
X14096372Y-14005412D01*
X14096372Y-14005412D02*
X14096372Y-13995888D01*
X14096372Y-13995888D02*
X14086849Y-13976841D01*
X14086849Y-13976841D02*
X14067801Y-13967317D01*
X14067801Y-13967317D02*
X14039230Y-13967317D01*
X14039230Y-13967317D02*
X14020182Y-13957793D01*
X14020182Y-13957793D02*
X14010658Y-13938746D01*
X14010658Y-13938746D02*
X14010658Y-13929222D01*
X14010658Y-13929222D02*
X14020182Y-13910174D01*
X14020182Y-13910174D02*
X14039230Y-13900650D01*
X14039230Y-13900650D02*
X14067801Y-13900650D01*
X14067801Y-13900650D02*
X14086849Y-13910174D01*
X14163039Y-14110174D02*
X14172563Y-14100650D01*
X14172563Y-14100650D02*
X14191611Y-14072079D01*
X14191611Y-14072079D02*
X14201134Y-14053031D01*
X14201134Y-14053031D02*
X14210658Y-14024460D01*
X14210658Y-14024460D02*
X14220182Y-13976841D01*
X14220182Y-13976841D02*
X14220182Y-13938746D01*
X14220182Y-13938746D02*
X14210658Y-13891127D01*
X14210658Y-13891127D02*
X14201134Y-13862555D01*
X14201134Y-13862555D02*
X14191611Y-13843508D01*
X14191611Y-13843508D02*
X14172563Y-13814936D01*
X14172563Y-13814936D02*
X14163039Y-13805412D01*
D12*
X9197500Y-14206500D02*
G75*
G02*
X9167500Y-14206500I-15000J0D01*
G01*
X9167500Y-14206500D02*
G75*
G02*
X9197500Y-14206500I15000J0D01*
G01*
D11*
X9496372Y-14097984D02*
X9515420Y-14097984D01*
X9515420Y-14097984D02*
X9534467Y-14107508D01*
X9534467Y-14107508D02*
X9543991Y-14117031D01*
X9543991Y-14117031D02*
X9553515Y-14136079D01*
X9553515Y-14136079D02*
X9563039Y-14174174D01*
X9563039Y-14174174D02*
X9563039Y-14221793D01*
X9563039Y-14221793D02*
X9553515Y-14259888D01*
X9553515Y-14259888D02*
X9543991Y-14278936D01*
X9543991Y-14278936D02*
X9534467Y-14288460D01*
X9534467Y-14288460D02*
X9515420Y-14297984D01*
X9515420Y-14297984D02*
X9496372Y-14297984D01*
X9496372Y-14297984D02*
X9477324Y-14288460D01*
X9477324Y-14288460D02*
X9467801Y-14278936D01*
X9467801Y-14278936D02*
X9458277Y-14259888D01*
X9458277Y-14259888D02*
X9448753Y-14221793D01*
X9448753Y-14221793D02*
X9448753Y-14174174D01*
X9448753Y-14174174D02*
X9458277Y-14136079D01*
X9458277Y-14136079D02*
X9467801Y-14117031D01*
X9467801Y-14117031D02*
X9477324Y-14107508D01*
X9477324Y-14107508D02*
X9496372Y-14097984D01*
X9648753Y-14278936D02*
X9658277Y-14288460D01*
X9658277Y-14288460D02*
X9648753Y-14297984D01*
X9648753Y-14297984D02*
X9639229Y-14288460D01*
X9639229Y-14288460D02*
X9648753Y-14278936D01*
X9648753Y-14278936D02*
X9648753Y-14297984D01*
X9724944Y-14097984D02*
X9848753Y-14097984D01*
X9848753Y-14097984D02*
X9782086Y-14174174D01*
X9782086Y-14174174D02*
X9810658Y-14174174D01*
X9810658Y-14174174D02*
X9829705Y-14183698D01*
X9829705Y-14183698D02*
X9839229Y-14193222D01*
X9839229Y-14193222D02*
X9848753Y-14212269D01*
X9848753Y-14212269D02*
X9848753Y-14259888D01*
X9848753Y-14259888D02*
X9839229Y-14278936D01*
X9839229Y-14278936D02*
X9829705Y-14288460D01*
X9829705Y-14288460D02*
X9810658Y-14297984D01*
X9810658Y-14297984D02*
X9753515Y-14297984D01*
X9753515Y-14297984D02*
X9734467Y-14288460D01*
X9734467Y-14288460D02*
X9724944Y-14278936D01*
X9972563Y-14097984D02*
X9991610Y-14097984D01*
X9991610Y-14097984D02*
X10010658Y-14107508D01*
X10010658Y-14107508D02*
X10020182Y-14117031D01*
X10020182Y-14117031D02*
X10029705Y-14136079D01*
X10029705Y-14136079D02*
X10039229Y-14174174D01*
X10039229Y-14174174D02*
X10039229Y-14221793D01*
X10039229Y-14221793D02*
X10029705Y-14259888D01*
X10029705Y-14259888D02*
X10020182Y-14278936D01*
X10020182Y-14278936D02*
X10010658Y-14288460D01*
X10010658Y-14288460D02*
X9991610Y-14297984D01*
X9991610Y-14297984D02*
X9972563Y-14297984D01*
X9972563Y-14297984D02*
X9953515Y-14288460D01*
X9953515Y-14288460D02*
X9943991Y-14278936D01*
X9943991Y-14278936D02*
X9934467Y-14259888D01*
X9934467Y-14259888D02*
X9924944Y-14221793D01*
X9924944Y-14221793D02*
X9924944Y-14174174D01*
X9924944Y-14174174D02*
X9934467Y-14136079D01*
X9934467Y-14136079D02*
X9943991Y-14117031D01*
X9943991Y-14117031D02*
X9953515Y-14107508D01*
X9953515Y-14107508D02*
X9972563Y-14097984D01*
X10163039Y-14097984D02*
X10182086Y-14097984D01*
X10182086Y-14097984D02*
X10201134Y-14107508D01*
X10201134Y-14107508D02*
X10210658Y-14117031D01*
X10210658Y-14117031D02*
X10220182Y-14136079D01*
X10220182Y-14136079D02*
X10229705Y-14174174D01*
X10229705Y-14174174D02*
X10229705Y-14221793D01*
X10229705Y-14221793D02*
X10220182Y-14259888D01*
X10220182Y-14259888D02*
X10210658Y-14278936D01*
X10210658Y-14278936D02*
X10201134Y-14288460D01*
X10201134Y-14288460D02*
X10182086Y-14297984D01*
X10182086Y-14297984D02*
X10163039Y-14297984D01*
X10163039Y-14297984D02*
X10143991Y-14288460D01*
X10143991Y-14288460D02*
X10134467Y-14278936D01*
X10134467Y-14278936D02*
X10124944Y-14259888D01*
X10124944Y-14259888D02*
X10115420Y-14221793D01*
X10115420Y-14221793D02*
X10115420Y-14174174D01*
X10115420Y-14174174D02*
X10124944Y-14136079D01*
X10124944Y-14136079D02*
X10134467Y-14117031D01*
X10134467Y-14117031D02*
X10143991Y-14107508D01*
X10143991Y-14107508D02*
X10163039Y-14097984D01*
X10315420Y-14297984D02*
X10315420Y-14164650D01*
X10315420Y-14183698D02*
X10324944Y-14174174D01*
X10324944Y-14174174D02*
X10343991Y-14164650D01*
X10343991Y-14164650D02*
X10372563Y-14164650D01*
X10372563Y-14164650D02*
X10391610Y-14174174D01*
X10391610Y-14174174D02*
X10401134Y-14193222D01*
X10401134Y-14193222D02*
X10401134Y-14297984D01*
X10401134Y-14193222D02*
X10410658Y-14174174D01*
X10410658Y-14174174D02*
X10429705Y-14164650D01*
X10429705Y-14164650D02*
X10458277Y-14164650D01*
X10458277Y-14164650D02*
X10477325Y-14174174D01*
X10477325Y-14174174D02*
X10486848Y-14193222D01*
X10486848Y-14193222D02*
X10486848Y-14297984D01*
X10582086Y-14297984D02*
X10582086Y-14164650D01*
X10582086Y-14183698D02*
X10591610Y-14174174D01*
X10591610Y-14174174D02*
X10610658Y-14164650D01*
X10610658Y-14164650D02*
X10639229Y-14164650D01*
X10639229Y-14164650D02*
X10658277Y-14174174D01*
X10658277Y-14174174D02*
X10667801Y-14193222D01*
X10667801Y-14193222D02*
X10667801Y-14297984D01*
X10667801Y-14193222D02*
X10677325Y-14174174D01*
X10677325Y-14174174D02*
X10696372Y-14164650D01*
X10696372Y-14164650D02*
X10724944Y-14164650D01*
X10724944Y-14164650D02*
X10743991Y-14174174D01*
X10743991Y-14174174D02*
X10753515Y-14193222D01*
X10753515Y-14193222D02*
X10753515Y-14297984D01*
X11143991Y-14088460D02*
X10972563Y-14345603D01*
X11401134Y-14097984D02*
X11420182Y-14097984D01*
X11420182Y-14097984D02*
X11439229Y-14107508D01*
X11439229Y-14107508D02*
X11448753Y-14117031D01*
X11448753Y-14117031D02*
X11458277Y-14136079D01*
X11458277Y-14136079D02*
X11467801Y-14174174D01*
X11467801Y-14174174D02*
X11467801Y-14221793D01*
X11467801Y-14221793D02*
X11458277Y-14259888D01*
X11458277Y-14259888D02*
X11448753Y-14278936D01*
X11448753Y-14278936D02*
X11439229Y-14288460D01*
X11439229Y-14288460D02*
X11420182Y-14297984D01*
X11420182Y-14297984D02*
X11401134Y-14297984D01*
X11401134Y-14297984D02*
X11382086Y-14288460D01*
X11382086Y-14288460D02*
X11372563Y-14278936D01*
X11372563Y-14278936D02*
X11363039Y-14259888D01*
X11363039Y-14259888D02*
X11353515Y-14221793D01*
X11353515Y-14221793D02*
X11353515Y-14174174D01*
X11353515Y-14174174D02*
X11363039Y-14136079D01*
X11363039Y-14136079D02*
X11372563Y-14117031D01*
X11372563Y-14117031D02*
X11382086Y-14107508D01*
X11382086Y-14107508D02*
X11401134Y-14097984D01*
X11553515Y-14278936D02*
X11563039Y-14288460D01*
X11563039Y-14288460D02*
X11553515Y-14297984D01*
X11553515Y-14297984D02*
X11543991Y-14288460D01*
X11543991Y-14288460D02*
X11553515Y-14278936D01*
X11553515Y-14278936D02*
X11553515Y-14297984D01*
X11686848Y-14097984D02*
X11705896Y-14097984D01*
X11705896Y-14097984D02*
X11724944Y-14107508D01*
X11724944Y-14107508D02*
X11734467Y-14117031D01*
X11734467Y-14117031D02*
X11743991Y-14136079D01*
X11743991Y-14136079D02*
X11753515Y-14174174D01*
X11753515Y-14174174D02*
X11753515Y-14221793D01*
X11753515Y-14221793D02*
X11743991Y-14259888D01*
X11743991Y-14259888D02*
X11734467Y-14278936D01*
X11734467Y-14278936D02*
X11724944Y-14288460D01*
X11724944Y-14288460D02*
X11705896Y-14297984D01*
X11705896Y-14297984D02*
X11686848Y-14297984D01*
X11686848Y-14297984D02*
X11667801Y-14288460D01*
X11667801Y-14288460D02*
X11658277Y-14278936D01*
X11658277Y-14278936D02*
X11648753Y-14259888D01*
X11648753Y-14259888D02*
X11639229Y-14221793D01*
X11639229Y-14221793D02*
X11639229Y-14174174D01*
X11639229Y-14174174D02*
X11648753Y-14136079D01*
X11648753Y-14136079D02*
X11658277Y-14117031D01*
X11658277Y-14117031D02*
X11667801Y-14107508D01*
X11667801Y-14107508D02*
X11686848Y-14097984D01*
X11943991Y-14297984D02*
X11829706Y-14297984D01*
X11886848Y-14297984D02*
X11886848Y-14097984D01*
X11886848Y-14097984D02*
X11867801Y-14126555D01*
X11867801Y-14126555D02*
X11848753Y-14145603D01*
X11848753Y-14145603D02*
X11829706Y-14155127D01*
X12134467Y-14297984D02*
X12020182Y-14297984D01*
X12077325Y-14297984D02*
X12077325Y-14097984D01*
X12077325Y-14097984D02*
X12058277Y-14126555D01*
X12058277Y-14126555D02*
X12039229Y-14145603D01*
X12039229Y-14145603D02*
X12020182Y-14155127D01*
X12248753Y-14183698D02*
X12229706Y-14174174D01*
X12229706Y-14174174D02*
X12220182Y-14164650D01*
X12220182Y-14164650D02*
X12210658Y-14145603D01*
X12210658Y-14145603D02*
X12210658Y-14136079D01*
X12210658Y-14136079D02*
X12220182Y-14117031D01*
X12220182Y-14117031D02*
X12229706Y-14107508D01*
X12229706Y-14107508D02*
X12248753Y-14097984D01*
X12248753Y-14097984D02*
X12286848Y-14097984D01*
X12286848Y-14097984D02*
X12305896Y-14107508D01*
X12305896Y-14107508D02*
X12315420Y-14117031D01*
X12315420Y-14117031D02*
X12324944Y-14136079D01*
X12324944Y-14136079D02*
X12324944Y-14145603D01*
X12324944Y-14145603D02*
X12315420Y-14164650D01*
X12315420Y-14164650D02*
X12305896Y-14174174D01*
X12305896Y-14174174D02*
X12286848Y-14183698D01*
X12286848Y-14183698D02*
X12248753Y-14183698D01*
X12248753Y-14183698D02*
X12229706Y-14193222D01*
X12229706Y-14193222D02*
X12220182Y-14202746D01*
X12220182Y-14202746D02*
X12210658Y-14221793D01*
X12210658Y-14221793D02*
X12210658Y-14259888D01*
X12210658Y-14259888D02*
X12220182Y-14278936D01*
X12220182Y-14278936D02*
X12229706Y-14288460D01*
X12229706Y-14288460D02*
X12248753Y-14297984D01*
X12248753Y-14297984D02*
X12286848Y-14297984D01*
X12286848Y-14297984D02*
X12305896Y-14288460D01*
X12305896Y-14288460D02*
X12315420Y-14278936D01*
X12315420Y-14278936D02*
X12324944Y-14259888D01*
X12324944Y-14259888D02*
X12324944Y-14221793D01*
X12324944Y-14221793D02*
X12315420Y-14202746D01*
X12315420Y-14202746D02*
X12305896Y-14193222D01*
X12305896Y-14193222D02*
X12286848Y-14183698D01*
X12401134Y-14097984D02*
X12401134Y-14136079D01*
X12477325Y-14097984D02*
X12477325Y-14136079D01*
X12772563Y-14374174D02*
X12763039Y-14364650D01*
X12763039Y-14364650D02*
X12743991Y-14336079D01*
X12743991Y-14336079D02*
X12734468Y-14317031D01*
X12734468Y-14317031D02*
X12724944Y-14288460D01*
X12724944Y-14288460D02*
X12715420Y-14240841D01*
X12715420Y-14240841D02*
X12715420Y-14202746D01*
X12715420Y-14202746D02*
X12724944Y-14155127D01*
X12724944Y-14155127D02*
X12734468Y-14126555D01*
X12734468Y-14126555D02*
X12743991Y-14107508D01*
X12743991Y-14107508D02*
X12763039Y-14078936D01*
X12763039Y-14078936D02*
X12772563Y-14069412D01*
X12934468Y-14164650D02*
X12934468Y-14297984D01*
X12886848Y-14088460D02*
X12839229Y-14231317D01*
X12839229Y-14231317D02*
X12963039Y-14231317D01*
X13020182Y-14097984D02*
X13143991Y-14097984D01*
X13143991Y-14097984D02*
X13077325Y-14174174D01*
X13077325Y-14174174D02*
X13105896Y-14174174D01*
X13105896Y-14174174D02*
X13124944Y-14183698D01*
X13124944Y-14183698D02*
X13134468Y-14193222D01*
X13134468Y-14193222D02*
X13143991Y-14212269D01*
X13143991Y-14212269D02*
X13143991Y-14259888D01*
X13143991Y-14259888D02*
X13134468Y-14278936D01*
X13134468Y-14278936D02*
X13124944Y-14288460D01*
X13124944Y-14288460D02*
X13105896Y-14297984D01*
X13105896Y-14297984D02*
X13048753Y-14297984D01*
X13048753Y-14297984D02*
X13029706Y-14288460D01*
X13029706Y-14288460D02*
X13020182Y-14278936D01*
X13324944Y-14097984D02*
X13229706Y-14097984D01*
X13229706Y-14097984D02*
X13220182Y-14193222D01*
X13220182Y-14193222D02*
X13229706Y-14183698D01*
X13229706Y-14183698D02*
X13248753Y-14174174D01*
X13248753Y-14174174D02*
X13296372Y-14174174D01*
X13296372Y-14174174D02*
X13315420Y-14183698D01*
X13315420Y-14183698D02*
X13324944Y-14193222D01*
X13324944Y-14193222D02*
X13334468Y-14212269D01*
X13334468Y-14212269D02*
X13334468Y-14259888D01*
X13334468Y-14259888D02*
X13324944Y-14278936D01*
X13324944Y-14278936D02*
X13315420Y-14288460D01*
X13315420Y-14288460D02*
X13296372Y-14297984D01*
X13296372Y-14297984D02*
X13248753Y-14297984D01*
X13248753Y-14297984D02*
X13229706Y-14288460D01*
X13229706Y-14288460D02*
X13220182Y-14278936D01*
X13572563Y-14297984D02*
X13572563Y-14097984D01*
X13658277Y-14297984D02*
X13658277Y-14193222D01*
X13658277Y-14193222D02*
X13648753Y-14174174D01*
X13648753Y-14174174D02*
X13629706Y-14164650D01*
X13629706Y-14164650D02*
X13601134Y-14164650D01*
X13601134Y-14164650D02*
X13582087Y-14174174D01*
X13582087Y-14174174D02*
X13572563Y-14183698D01*
X13782087Y-14297984D02*
X13763039Y-14288460D01*
X13763039Y-14288460D02*
X13753515Y-14278936D01*
X13753515Y-14278936D02*
X13743991Y-14259888D01*
X13743991Y-14259888D02*
X13743991Y-14202746D01*
X13743991Y-14202746D02*
X13753515Y-14183698D01*
X13753515Y-14183698D02*
X13763039Y-14174174D01*
X13763039Y-14174174D02*
X13782087Y-14164650D01*
X13782087Y-14164650D02*
X13810658Y-14164650D01*
X13810658Y-14164650D02*
X13829706Y-14174174D01*
X13829706Y-14174174D02*
X13839230Y-14183698D01*
X13839230Y-14183698D02*
X13848753Y-14202746D01*
X13848753Y-14202746D02*
X13848753Y-14259888D01*
X13848753Y-14259888D02*
X13839230Y-14278936D01*
X13839230Y-14278936D02*
X13829706Y-14288460D01*
X13829706Y-14288460D02*
X13810658Y-14297984D01*
X13810658Y-14297984D02*
X13782087Y-14297984D01*
X13963039Y-14297984D02*
X13943991Y-14288460D01*
X13943991Y-14288460D02*
X13934468Y-14269412D01*
X13934468Y-14269412D02*
X13934468Y-14097984D01*
X14115420Y-14288460D02*
X14096372Y-14297984D01*
X14096372Y-14297984D02*
X14058277Y-14297984D01*
X14058277Y-14297984D02*
X14039230Y-14288460D01*
X14039230Y-14288460D02*
X14029706Y-14269412D01*
X14029706Y-14269412D02*
X14029706Y-14193222D01*
X14029706Y-14193222D02*
X14039230Y-14174174D01*
X14039230Y-14174174D02*
X14058277Y-14164650D01*
X14058277Y-14164650D02*
X14096372Y-14164650D01*
X14096372Y-14164650D02*
X14115420Y-14174174D01*
X14115420Y-14174174D02*
X14124944Y-14193222D01*
X14124944Y-14193222D02*
X14124944Y-14212269D01*
X14124944Y-14212269D02*
X14029706Y-14231317D01*
X14201134Y-14288460D02*
X14220182Y-14297984D01*
X14220182Y-14297984D02*
X14258277Y-14297984D01*
X14258277Y-14297984D02*
X14277325Y-14288460D01*
X14277325Y-14288460D02*
X14286849Y-14269412D01*
X14286849Y-14269412D02*
X14286849Y-14259888D01*
X14286849Y-14259888D02*
X14277325Y-14240841D01*
X14277325Y-14240841D02*
X14258277Y-14231317D01*
X14258277Y-14231317D02*
X14229706Y-14231317D01*
X14229706Y-14231317D02*
X14210658Y-14221793D01*
X14210658Y-14221793D02*
X14201134Y-14202746D01*
X14201134Y-14202746D02*
X14201134Y-14193222D01*
X14201134Y-14193222D02*
X14210658Y-14174174D01*
X14210658Y-14174174D02*
X14229706Y-14164650D01*
X14229706Y-14164650D02*
X14258277Y-14164650D01*
X14258277Y-14164650D02*
X14277325Y-14174174D01*
X14353515Y-14374174D02*
X14363039Y-14364650D01*
X14363039Y-14364650D02*
X14382087Y-14336079D01*
X14382087Y-14336079D02*
X14391611Y-14317031D01*
X14391611Y-14317031D02*
X14401134Y-14288460D01*
X14401134Y-14288460D02*
X14410658Y-14240841D01*
X14410658Y-14240841D02*
X14410658Y-14202746D01*
X14410658Y-14202746D02*
X14401134Y-14155127D01*
X14401134Y-14155127D02*
X14391611Y-14126555D01*
X14391611Y-14126555D02*
X14382087Y-14107508D01*
X14382087Y-14107508D02*
X14363039Y-14078936D01*
X14363039Y-14078936D02*
X14353515Y-14069412D01*
D12*
X9177500Y-14450500D02*
X9177500Y-14490500D01*
X9157500Y-14470500D02*
X9197500Y-14470500D01*
D11*
X9496372Y-14361984D02*
X9515420Y-14361984D01*
X9515420Y-14361984D02*
X9534467Y-14371508D01*
X9534467Y-14371508D02*
X9543991Y-14381031D01*
X9543991Y-14381031D02*
X9553515Y-14400079D01*
X9553515Y-14400079D02*
X9563039Y-14438174D01*
X9563039Y-14438174D02*
X9563039Y-14485793D01*
X9563039Y-14485793D02*
X9553515Y-14523888D01*
X9553515Y-14523888D02*
X9543991Y-14542936D01*
X9543991Y-14542936D02*
X9534467Y-14552460D01*
X9534467Y-14552460D02*
X9515420Y-14561984D01*
X9515420Y-14561984D02*
X9496372Y-14561984D01*
X9496372Y-14561984D02*
X9477324Y-14552460D01*
X9477324Y-14552460D02*
X9467801Y-14542936D01*
X9467801Y-14542936D02*
X9458277Y-14523888D01*
X9458277Y-14523888D02*
X9448753Y-14485793D01*
X9448753Y-14485793D02*
X9448753Y-14438174D01*
X9448753Y-14438174D02*
X9458277Y-14400079D01*
X9458277Y-14400079D02*
X9467801Y-14381031D01*
X9467801Y-14381031D02*
X9477324Y-14371508D01*
X9477324Y-14371508D02*
X9496372Y-14361984D01*
X9648753Y-14542936D02*
X9658277Y-14552460D01*
X9658277Y-14552460D02*
X9648753Y-14561984D01*
X9648753Y-14561984D02*
X9639229Y-14552460D01*
X9639229Y-14552460D02*
X9648753Y-14542936D01*
X9648753Y-14542936D02*
X9648753Y-14561984D01*
X9829705Y-14428650D02*
X9829705Y-14561984D01*
X9782086Y-14352460D02*
X9734467Y-14495317D01*
X9734467Y-14495317D02*
X9858277Y-14495317D01*
X9972563Y-14361984D02*
X9991610Y-14361984D01*
X9991610Y-14361984D02*
X10010658Y-14371508D01*
X10010658Y-14371508D02*
X10020182Y-14381031D01*
X10020182Y-14381031D02*
X10029705Y-14400079D01*
X10029705Y-14400079D02*
X10039229Y-14438174D01*
X10039229Y-14438174D02*
X10039229Y-14485793D01*
X10039229Y-14485793D02*
X10029705Y-14523888D01*
X10029705Y-14523888D02*
X10020182Y-14542936D01*
X10020182Y-14542936D02*
X10010658Y-14552460D01*
X10010658Y-14552460D02*
X9991610Y-14561984D01*
X9991610Y-14561984D02*
X9972563Y-14561984D01*
X9972563Y-14561984D02*
X9953515Y-14552460D01*
X9953515Y-14552460D02*
X9943991Y-14542936D01*
X9943991Y-14542936D02*
X9934467Y-14523888D01*
X9934467Y-14523888D02*
X9924944Y-14485793D01*
X9924944Y-14485793D02*
X9924944Y-14438174D01*
X9924944Y-14438174D02*
X9934467Y-14400079D01*
X9934467Y-14400079D02*
X9943991Y-14381031D01*
X9943991Y-14381031D02*
X9953515Y-14371508D01*
X9953515Y-14371508D02*
X9972563Y-14361984D01*
X10163039Y-14361984D02*
X10182086Y-14361984D01*
X10182086Y-14361984D02*
X10201134Y-14371508D01*
X10201134Y-14371508D02*
X10210658Y-14381031D01*
X10210658Y-14381031D02*
X10220182Y-14400079D01*
X10220182Y-14400079D02*
X10229705Y-14438174D01*
X10229705Y-14438174D02*
X10229705Y-14485793D01*
X10229705Y-14485793D02*
X10220182Y-14523888D01*
X10220182Y-14523888D02*
X10210658Y-14542936D01*
X10210658Y-14542936D02*
X10201134Y-14552460D01*
X10201134Y-14552460D02*
X10182086Y-14561984D01*
X10182086Y-14561984D02*
X10163039Y-14561984D01*
X10163039Y-14561984D02*
X10143991Y-14552460D01*
X10143991Y-14552460D02*
X10134467Y-14542936D01*
X10134467Y-14542936D02*
X10124944Y-14523888D01*
X10124944Y-14523888D02*
X10115420Y-14485793D01*
X10115420Y-14485793D02*
X10115420Y-14438174D01*
X10115420Y-14438174D02*
X10124944Y-14400079D01*
X10124944Y-14400079D02*
X10134467Y-14381031D01*
X10134467Y-14381031D02*
X10143991Y-14371508D01*
X10143991Y-14371508D02*
X10163039Y-14361984D01*
X10315420Y-14561984D02*
X10315420Y-14428650D01*
X10315420Y-14447698D02*
X10324944Y-14438174D01*
X10324944Y-14438174D02*
X10343991Y-14428650D01*
X10343991Y-14428650D02*
X10372563Y-14428650D01*
X10372563Y-14428650D02*
X10391610Y-14438174D01*
X10391610Y-14438174D02*
X10401134Y-14457222D01*
X10401134Y-14457222D02*
X10401134Y-14561984D01*
X10401134Y-14457222D02*
X10410658Y-14438174D01*
X10410658Y-14438174D02*
X10429705Y-14428650D01*
X10429705Y-14428650D02*
X10458277Y-14428650D01*
X10458277Y-14428650D02*
X10477325Y-14438174D01*
X10477325Y-14438174D02*
X10486848Y-14457222D01*
X10486848Y-14457222D02*
X10486848Y-14561984D01*
X10582086Y-14561984D02*
X10582086Y-14428650D01*
X10582086Y-14447698D02*
X10591610Y-14438174D01*
X10591610Y-14438174D02*
X10610658Y-14428650D01*
X10610658Y-14428650D02*
X10639229Y-14428650D01*
X10639229Y-14428650D02*
X10658277Y-14438174D01*
X10658277Y-14438174D02*
X10667801Y-14457222D01*
X10667801Y-14457222D02*
X10667801Y-14561984D01*
X10667801Y-14457222D02*
X10677325Y-14438174D01*
X10677325Y-14438174D02*
X10696372Y-14428650D01*
X10696372Y-14428650D02*
X10724944Y-14428650D01*
X10724944Y-14428650D02*
X10743991Y-14438174D01*
X10743991Y-14438174D02*
X10753515Y-14457222D01*
X10753515Y-14457222D02*
X10753515Y-14561984D01*
X11143991Y-14352460D02*
X10972563Y-14609603D01*
X11401134Y-14361984D02*
X11420182Y-14361984D01*
X11420182Y-14361984D02*
X11439229Y-14371508D01*
X11439229Y-14371508D02*
X11448753Y-14381031D01*
X11448753Y-14381031D02*
X11458277Y-14400079D01*
X11458277Y-14400079D02*
X11467801Y-14438174D01*
X11467801Y-14438174D02*
X11467801Y-14485793D01*
X11467801Y-14485793D02*
X11458277Y-14523888D01*
X11458277Y-14523888D02*
X11448753Y-14542936D01*
X11448753Y-14542936D02*
X11439229Y-14552460D01*
X11439229Y-14552460D02*
X11420182Y-14561984D01*
X11420182Y-14561984D02*
X11401134Y-14561984D01*
X11401134Y-14561984D02*
X11382086Y-14552460D01*
X11382086Y-14552460D02*
X11372563Y-14542936D01*
X11372563Y-14542936D02*
X11363039Y-14523888D01*
X11363039Y-14523888D02*
X11353515Y-14485793D01*
X11353515Y-14485793D02*
X11353515Y-14438174D01*
X11353515Y-14438174D02*
X11363039Y-14400079D01*
X11363039Y-14400079D02*
X11372563Y-14381031D01*
X11372563Y-14381031D02*
X11382086Y-14371508D01*
X11382086Y-14371508D02*
X11401134Y-14361984D01*
X11553515Y-14542936D02*
X11563039Y-14552460D01*
X11563039Y-14552460D02*
X11553515Y-14561984D01*
X11553515Y-14561984D02*
X11543991Y-14552460D01*
X11543991Y-14552460D02*
X11553515Y-14542936D01*
X11553515Y-14542936D02*
X11553515Y-14561984D01*
X11686848Y-14361984D02*
X11705896Y-14361984D01*
X11705896Y-14361984D02*
X11724944Y-14371508D01*
X11724944Y-14371508D02*
X11734467Y-14381031D01*
X11734467Y-14381031D02*
X11743991Y-14400079D01*
X11743991Y-14400079D02*
X11753515Y-14438174D01*
X11753515Y-14438174D02*
X11753515Y-14485793D01*
X11753515Y-14485793D02*
X11743991Y-14523888D01*
X11743991Y-14523888D02*
X11734467Y-14542936D01*
X11734467Y-14542936D02*
X11724944Y-14552460D01*
X11724944Y-14552460D02*
X11705896Y-14561984D01*
X11705896Y-14561984D02*
X11686848Y-14561984D01*
X11686848Y-14561984D02*
X11667801Y-14552460D01*
X11667801Y-14552460D02*
X11658277Y-14542936D01*
X11658277Y-14542936D02*
X11648753Y-14523888D01*
X11648753Y-14523888D02*
X11639229Y-14485793D01*
X11639229Y-14485793D02*
X11639229Y-14438174D01*
X11639229Y-14438174D02*
X11648753Y-14400079D01*
X11648753Y-14400079D02*
X11658277Y-14381031D01*
X11658277Y-14381031D02*
X11667801Y-14371508D01*
X11667801Y-14371508D02*
X11686848Y-14361984D01*
X11943991Y-14561984D02*
X11829706Y-14561984D01*
X11886848Y-14561984D02*
X11886848Y-14361984D01*
X11886848Y-14361984D02*
X11867801Y-14390555D01*
X11867801Y-14390555D02*
X11848753Y-14409603D01*
X11848753Y-14409603D02*
X11829706Y-14419127D01*
X12124944Y-14361984D02*
X12029706Y-14361984D01*
X12029706Y-14361984D02*
X12020182Y-14457222D01*
X12020182Y-14457222D02*
X12029706Y-14447698D01*
X12029706Y-14447698D02*
X12048753Y-14438174D01*
X12048753Y-14438174D02*
X12096372Y-14438174D01*
X12096372Y-14438174D02*
X12115420Y-14447698D01*
X12115420Y-14447698D02*
X12124944Y-14457222D01*
X12124944Y-14457222D02*
X12134467Y-14476269D01*
X12134467Y-14476269D02*
X12134467Y-14523888D01*
X12134467Y-14523888D02*
X12124944Y-14542936D01*
X12124944Y-14542936D02*
X12115420Y-14552460D01*
X12115420Y-14552460D02*
X12096372Y-14561984D01*
X12096372Y-14561984D02*
X12048753Y-14561984D01*
X12048753Y-14561984D02*
X12029706Y-14552460D01*
X12029706Y-14552460D02*
X12020182Y-14542936D01*
X12201134Y-14361984D02*
X12334467Y-14361984D01*
X12334467Y-14361984D02*
X12248753Y-14561984D01*
X12401134Y-14361984D02*
X12401134Y-14400079D01*
X12477325Y-14361984D02*
X12477325Y-14400079D01*
X12772563Y-14638174D02*
X12763039Y-14628650D01*
X12763039Y-14628650D02*
X12743991Y-14600079D01*
X12743991Y-14600079D02*
X12734468Y-14581031D01*
X12734468Y-14581031D02*
X12724944Y-14552460D01*
X12724944Y-14552460D02*
X12715420Y-14504841D01*
X12715420Y-14504841D02*
X12715420Y-14466746D01*
X12715420Y-14466746D02*
X12724944Y-14419127D01*
X12724944Y-14419127D02*
X12734468Y-14390555D01*
X12734468Y-14390555D02*
X12743991Y-14371508D01*
X12743991Y-14371508D02*
X12763039Y-14342936D01*
X12763039Y-14342936D02*
X12772563Y-14333412D01*
X12829706Y-14361984D02*
X12963039Y-14361984D01*
X12963039Y-14361984D02*
X12877325Y-14561984D01*
X13191610Y-14561984D02*
X13191610Y-14361984D01*
X13277325Y-14561984D02*
X13277325Y-14457222D01*
X13277325Y-14457222D02*
X13267801Y-14438174D01*
X13267801Y-14438174D02*
X13248753Y-14428650D01*
X13248753Y-14428650D02*
X13220182Y-14428650D01*
X13220182Y-14428650D02*
X13201134Y-14438174D01*
X13201134Y-14438174D02*
X13191610Y-14447698D01*
X13401134Y-14561984D02*
X13382087Y-14552460D01*
X13382087Y-14552460D02*
X13372563Y-14542936D01*
X13372563Y-14542936D02*
X13363039Y-14523888D01*
X13363039Y-14523888D02*
X13363039Y-14466746D01*
X13363039Y-14466746D02*
X13372563Y-14447698D01*
X13372563Y-14447698D02*
X13382087Y-14438174D01*
X13382087Y-14438174D02*
X13401134Y-14428650D01*
X13401134Y-14428650D02*
X13429706Y-14428650D01*
X13429706Y-14428650D02*
X13448753Y-14438174D01*
X13448753Y-14438174D02*
X13458277Y-14447698D01*
X13458277Y-14447698D02*
X13467801Y-14466746D01*
X13467801Y-14466746D02*
X13467801Y-14523888D01*
X13467801Y-14523888D02*
X13458277Y-14542936D01*
X13458277Y-14542936D02*
X13448753Y-14552460D01*
X13448753Y-14552460D02*
X13429706Y-14561984D01*
X13429706Y-14561984D02*
X13401134Y-14561984D01*
X13582087Y-14561984D02*
X13563039Y-14552460D01*
X13563039Y-14552460D02*
X13553515Y-14533412D01*
X13553515Y-14533412D02*
X13553515Y-14361984D01*
X13734468Y-14552460D02*
X13715420Y-14561984D01*
X13715420Y-14561984D02*
X13677325Y-14561984D01*
X13677325Y-14561984D02*
X13658277Y-14552460D01*
X13658277Y-14552460D02*
X13648753Y-14533412D01*
X13648753Y-14533412D02*
X13648753Y-14457222D01*
X13648753Y-14457222D02*
X13658277Y-14438174D01*
X13658277Y-14438174D02*
X13677325Y-14428650D01*
X13677325Y-14428650D02*
X13715420Y-14428650D01*
X13715420Y-14428650D02*
X13734468Y-14438174D01*
X13734468Y-14438174D02*
X13743991Y-14457222D01*
X13743991Y-14457222D02*
X13743991Y-14476269D01*
X13743991Y-14476269D02*
X13648753Y-14495317D01*
X13820182Y-14552460D02*
X13839230Y-14561984D01*
X13839230Y-14561984D02*
X13877325Y-14561984D01*
X13877325Y-14561984D02*
X13896372Y-14552460D01*
X13896372Y-14552460D02*
X13905896Y-14533412D01*
X13905896Y-14533412D02*
X13905896Y-14523888D01*
X13905896Y-14523888D02*
X13896372Y-14504841D01*
X13896372Y-14504841D02*
X13877325Y-14495317D01*
X13877325Y-14495317D02*
X13848753Y-14495317D01*
X13848753Y-14495317D02*
X13829706Y-14485793D01*
X13829706Y-14485793D02*
X13820182Y-14466746D01*
X13820182Y-14466746D02*
X13820182Y-14457222D01*
X13820182Y-14457222D02*
X13829706Y-14438174D01*
X13829706Y-14438174D02*
X13848753Y-14428650D01*
X13848753Y-14428650D02*
X13877325Y-14428650D01*
X13877325Y-14428650D02*
X13896372Y-14438174D01*
X13972563Y-14638174D02*
X13982087Y-14628650D01*
X13982087Y-14628650D02*
X14001134Y-14600079D01*
X14001134Y-14600079D02*
X14010658Y-14581031D01*
X14010658Y-14581031D02*
X14020182Y-14552460D01*
X14020182Y-14552460D02*
X14029706Y-14504841D01*
X14029706Y-14504841D02*
X14029706Y-14466746D01*
X14029706Y-14466746D02*
X14020182Y-14419127D01*
X14020182Y-14419127D02*
X14010658Y-14390555D01*
X14010658Y-14390555D02*
X14001134Y-14371508D01*
X14001134Y-14371508D02*
X13982087Y-14342936D01*
X13982087Y-14342936D02*
X13972563Y-14333412D01*
D12*
X9187249Y-14759250D02*
X9187249Y-14709750D01*
X9137749Y-14709750D01*
X9137749Y-14759250D01*
X9187249Y-14759250D01*
D11*
X9496372Y-14625984D02*
X9515420Y-14625984D01*
X9515420Y-14625984D02*
X9534467Y-14635508D01*
X9534467Y-14635508D02*
X9543991Y-14645031D01*
X9543991Y-14645031D02*
X9553515Y-14664079D01*
X9553515Y-14664079D02*
X9563039Y-14702174D01*
X9563039Y-14702174D02*
X9563039Y-14749793D01*
X9563039Y-14749793D02*
X9553515Y-14787888D01*
X9553515Y-14787888D02*
X9543991Y-14806936D01*
X9543991Y-14806936D02*
X9534467Y-14816460D01*
X9534467Y-14816460D02*
X9515420Y-14825984D01*
X9515420Y-14825984D02*
X9496372Y-14825984D01*
X9496372Y-14825984D02*
X9477324Y-14816460D01*
X9477324Y-14816460D02*
X9467801Y-14806936D01*
X9467801Y-14806936D02*
X9458277Y-14787888D01*
X9458277Y-14787888D02*
X9448753Y-14749793D01*
X9448753Y-14749793D02*
X9448753Y-14702174D01*
X9448753Y-14702174D02*
X9458277Y-14664079D01*
X9458277Y-14664079D02*
X9467801Y-14645031D01*
X9467801Y-14645031D02*
X9477324Y-14635508D01*
X9477324Y-14635508D02*
X9496372Y-14625984D01*
X9648753Y-14806936D02*
X9658277Y-14816460D01*
X9658277Y-14816460D02*
X9648753Y-14825984D01*
X9648753Y-14825984D02*
X9639229Y-14816460D01*
X9639229Y-14816460D02*
X9648753Y-14806936D01*
X9648753Y-14806936D02*
X9648753Y-14825984D01*
X9724944Y-14625984D02*
X9858277Y-14625984D01*
X9858277Y-14625984D02*
X9772563Y-14825984D01*
X9972563Y-14625984D02*
X9991610Y-14625984D01*
X9991610Y-14625984D02*
X10010658Y-14635508D01*
X10010658Y-14635508D02*
X10020182Y-14645031D01*
X10020182Y-14645031D02*
X10029705Y-14664079D01*
X10029705Y-14664079D02*
X10039229Y-14702174D01*
X10039229Y-14702174D02*
X10039229Y-14749793D01*
X10039229Y-14749793D02*
X10029705Y-14787888D01*
X10029705Y-14787888D02*
X10020182Y-14806936D01*
X10020182Y-14806936D02*
X10010658Y-14816460D01*
X10010658Y-14816460D02*
X9991610Y-14825984D01*
X9991610Y-14825984D02*
X9972563Y-14825984D01*
X9972563Y-14825984D02*
X9953515Y-14816460D01*
X9953515Y-14816460D02*
X9943991Y-14806936D01*
X9943991Y-14806936D02*
X9934467Y-14787888D01*
X9934467Y-14787888D02*
X9924944Y-14749793D01*
X9924944Y-14749793D02*
X9924944Y-14702174D01*
X9924944Y-14702174D02*
X9934467Y-14664079D01*
X9934467Y-14664079D02*
X9943991Y-14645031D01*
X9943991Y-14645031D02*
X9953515Y-14635508D01*
X9953515Y-14635508D02*
X9972563Y-14625984D01*
X10163039Y-14625984D02*
X10182086Y-14625984D01*
X10182086Y-14625984D02*
X10201134Y-14635508D01*
X10201134Y-14635508D02*
X10210658Y-14645031D01*
X10210658Y-14645031D02*
X10220182Y-14664079D01*
X10220182Y-14664079D02*
X10229705Y-14702174D01*
X10229705Y-14702174D02*
X10229705Y-14749793D01*
X10229705Y-14749793D02*
X10220182Y-14787888D01*
X10220182Y-14787888D02*
X10210658Y-14806936D01*
X10210658Y-14806936D02*
X10201134Y-14816460D01*
X10201134Y-14816460D02*
X10182086Y-14825984D01*
X10182086Y-14825984D02*
X10163039Y-14825984D01*
X10163039Y-14825984D02*
X10143991Y-14816460D01*
X10143991Y-14816460D02*
X10134467Y-14806936D01*
X10134467Y-14806936D02*
X10124944Y-14787888D01*
X10124944Y-14787888D02*
X10115420Y-14749793D01*
X10115420Y-14749793D02*
X10115420Y-14702174D01*
X10115420Y-14702174D02*
X10124944Y-14664079D01*
X10124944Y-14664079D02*
X10134467Y-14645031D01*
X10134467Y-14645031D02*
X10143991Y-14635508D01*
X10143991Y-14635508D02*
X10163039Y-14625984D01*
X10315420Y-14825984D02*
X10315420Y-14692650D01*
X10315420Y-14711698D02*
X10324944Y-14702174D01*
X10324944Y-14702174D02*
X10343991Y-14692650D01*
X10343991Y-14692650D02*
X10372563Y-14692650D01*
X10372563Y-14692650D02*
X10391610Y-14702174D01*
X10391610Y-14702174D02*
X10401134Y-14721222D01*
X10401134Y-14721222D02*
X10401134Y-14825984D01*
X10401134Y-14721222D02*
X10410658Y-14702174D01*
X10410658Y-14702174D02*
X10429705Y-14692650D01*
X10429705Y-14692650D02*
X10458277Y-14692650D01*
X10458277Y-14692650D02*
X10477325Y-14702174D01*
X10477325Y-14702174D02*
X10486848Y-14721222D01*
X10486848Y-14721222D02*
X10486848Y-14825984D01*
X10582086Y-14825984D02*
X10582086Y-14692650D01*
X10582086Y-14711698D02*
X10591610Y-14702174D01*
X10591610Y-14702174D02*
X10610658Y-14692650D01*
X10610658Y-14692650D02*
X10639229Y-14692650D01*
X10639229Y-14692650D02*
X10658277Y-14702174D01*
X10658277Y-14702174D02*
X10667801Y-14721222D01*
X10667801Y-14721222D02*
X10667801Y-14825984D01*
X10667801Y-14721222D02*
X10677325Y-14702174D01*
X10677325Y-14702174D02*
X10696372Y-14692650D01*
X10696372Y-14692650D02*
X10724944Y-14692650D01*
X10724944Y-14692650D02*
X10743991Y-14702174D01*
X10743991Y-14702174D02*
X10753515Y-14721222D01*
X10753515Y-14721222D02*
X10753515Y-14825984D01*
X11143991Y-14616460D02*
X10972563Y-14873603D01*
X11401134Y-14625984D02*
X11420182Y-14625984D01*
X11420182Y-14625984D02*
X11439229Y-14635508D01*
X11439229Y-14635508D02*
X11448753Y-14645031D01*
X11448753Y-14645031D02*
X11458277Y-14664079D01*
X11458277Y-14664079D02*
X11467801Y-14702174D01*
X11467801Y-14702174D02*
X11467801Y-14749793D01*
X11467801Y-14749793D02*
X11458277Y-14787888D01*
X11458277Y-14787888D02*
X11448753Y-14806936D01*
X11448753Y-14806936D02*
X11439229Y-14816460D01*
X11439229Y-14816460D02*
X11420182Y-14825984D01*
X11420182Y-14825984D02*
X11401134Y-14825984D01*
X11401134Y-14825984D02*
X11382086Y-14816460D01*
X11382086Y-14816460D02*
X11372563Y-14806936D01*
X11372563Y-14806936D02*
X11363039Y-14787888D01*
X11363039Y-14787888D02*
X11353515Y-14749793D01*
X11353515Y-14749793D02*
X11353515Y-14702174D01*
X11353515Y-14702174D02*
X11363039Y-14664079D01*
X11363039Y-14664079D02*
X11372563Y-14645031D01*
X11372563Y-14645031D02*
X11382086Y-14635508D01*
X11382086Y-14635508D02*
X11401134Y-14625984D01*
X11553515Y-14806936D02*
X11563039Y-14816460D01*
X11563039Y-14816460D02*
X11553515Y-14825984D01*
X11553515Y-14825984D02*
X11543991Y-14816460D01*
X11543991Y-14816460D02*
X11553515Y-14806936D01*
X11553515Y-14806936D02*
X11553515Y-14825984D01*
X11686848Y-14625984D02*
X11705896Y-14625984D01*
X11705896Y-14625984D02*
X11724944Y-14635508D01*
X11724944Y-14635508D02*
X11734467Y-14645031D01*
X11734467Y-14645031D02*
X11743991Y-14664079D01*
X11743991Y-14664079D02*
X11753515Y-14702174D01*
X11753515Y-14702174D02*
X11753515Y-14749793D01*
X11753515Y-14749793D02*
X11743991Y-14787888D01*
X11743991Y-14787888D02*
X11734467Y-14806936D01*
X11734467Y-14806936D02*
X11724944Y-14816460D01*
X11724944Y-14816460D02*
X11705896Y-14825984D01*
X11705896Y-14825984D02*
X11686848Y-14825984D01*
X11686848Y-14825984D02*
X11667801Y-14816460D01*
X11667801Y-14816460D02*
X11658277Y-14806936D01*
X11658277Y-14806936D02*
X11648753Y-14787888D01*
X11648753Y-14787888D02*
X11639229Y-14749793D01*
X11639229Y-14749793D02*
X11639229Y-14702174D01*
X11639229Y-14702174D02*
X11648753Y-14664079D01*
X11648753Y-14664079D02*
X11658277Y-14645031D01*
X11658277Y-14645031D02*
X11667801Y-14635508D01*
X11667801Y-14635508D02*
X11686848Y-14625984D01*
X11829706Y-14645031D02*
X11839229Y-14635508D01*
X11839229Y-14635508D02*
X11858277Y-14625984D01*
X11858277Y-14625984D02*
X11905896Y-14625984D01*
X11905896Y-14625984D02*
X11924944Y-14635508D01*
X11924944Y-14635508D02*
X11934467Y-14645031D01*
X11934467Y-14645031D02*
X11943991Y-14664079D01*
X11943991Y-14664079D02*
X11943991Y-14683127D01*
X11943991Y-14683127D02*
X11934467Y-14711698D01*
X11934467Y-14711698D02*
X11820182Y-14825984D01*
X11820182Y-14825984D02*
X11943991Y-14825984D01*
X12010658Y-14625984D02*
X12143991Y-14625984D01*
X12143991Y-14625984D02*
X12058277Y-14825984D01*
X12305896Y-14625984D02*
X12267801Y-14625984D01*
X12267801Y-14625984D02*
X12248753Y-14635508D01*
X12248753Y-14635508D02*
X12239229Y-14645031D01*
X12239229Y-14645031D02*
X12220182Y-14673603D01*
X12220182Y-14673603D02*
X12210658Y-14711698D01*
X12210658Y-14711698D02*
X12210658Y-14787888D01*
X12210658Y-14787888D02*
X12220182Y-14806936D01*
X12220182Y-14806936D02*
X12229706Y-14816460D01*
X12229706Y-14816460D02*
X12248753Y-14825984D01*
X12248753Y-14825984D02*
X12286848Y-14825984D01*
X12286848Y-14825984D02*
X12305896Y-14816460D01*
X12305896Y-14816460D02*
X12315420Y-14806936D01*
X12315420Y-14806936D02*
X12324944Y-14787888D01*
X12324944Y-14787888D02*
X12324944Y-14740269D01*
X12324944Y-14740269D02*
X12315420Y-14721222D01*
X12315420Y-14721222D02*
X12305896Y-14711698D01*
X12305896Y-14711698D02*
X12286848Y-14702174D01*
X12286848Y-14702174D02*
X12248753Y-14702174D01*
X12248753Y-14702174D02*
X12229706Y-14711698D01*
X12229706Y-14711698D02*
X12220182Y-14721222D01*
X12220182Y-14721222D02*
X12210658Y-14740269D01*
X12401134Y-14625984D02*
X12401134Y-14664079D01*
X12477325Y-14625984D02*
X12477325Y-14664079D01*
X12772563Y-14902174D02*
X12763039Y-14892650D01*
X12763039Y-14892650D02*
X12743991Y-14864079D01*
X12743991Y-14864079D02*
X12734468Y-14845031D01*
X12734468Y-14845031D02*
X12724944Y-14816460D01*
X12724944Y-14816460D02*
X12715420Y-14768841D01*
X12715420Y-14768841D02*
X12715420Y-14730746D01*
X12715420Y-14730746D02*
X12724944Y-14683127D01*
X12724944Y-14683127D02*
X12734468Y-14654555D01*
X12734468Y-14654555D02*
X12743991Y-14635508D01*
X12743991Y-14635508D02*
X12763039Y-14606936D01*
X12763039Y-14606936D02*
X12772563Y-14597412D01*
X12839229Y-14645031D02*
X12848753Y-14635508D01*
X12848753Y-14635508D02*
X12867801Y-14625984D01*
X12867801Y-14625984D02*
X12915420Y-14625984D01*
X12915420Y-14625984D02*
X12934468Y-14635508D01*
X12934468Y-14635508D02*
X12943991Y-14645031D01*
X12943991Y-14645031D02*
X12953515Y-14664079D01*
X12953515Y-14664079D02*
X12953515Y-14683127D01*
X12953515Y-14683127D02*
X12943991Y-14711698D01*
X12943991Y-14711698D02*
X12829706Y-14825984D01*
X12829706Y-14825984D02*
X12953515Y-14825984D01*
X13191610Y-14825984D02*
X13191610Y-14625984D01*
X13277325Y-14825984D02*
X13277325Y-14721222D01*
X13277325Y-14721222D02*
X13267801Y-14702174D01*
X13267801Y-14702174D02*
X13248753Y-14692650D01*
X13248753Y-14692650D02*
X13220182Y-14692650D01*
X13220182Y-14692650D02*
X13201134Y-14702174D01*
X13201134Y-14702174D02*
X13191610Y-14711698D01*
X13401134Y-14825984D02*
X13382087Y-14816460D01*
X13382087Y-14816460D02*
X13372563Y-14806936D01*
X13372563Y-14806936D02*
X13363039Y-14787888D01*
X13363039Y-14787888D02*
X13363039Y-14730746D01*
X13363039Y-14730746D02*
X13372563Y-14711698D01*
X13372563Y-14711698D02*
X13382087Y-14702174D01*
X13382087Y-14702174D02*
X13401134Y-14692650D01*
X13401134Y-14692650D02*
X13429706Y-14692650D01*
X13429706Y-14692650D02*
X13448753Y-14702174D01*
X13448753Y-14702174D02*
X13458277Y-14711698D01*
X13458277Y-14711698D02*
X13467801Y-14730746D01*
X13467801Y-14730746D02*
X13467801Y-14787888D01*
X13467801Y-14787888D02*
X13458277Y-14806936D01*
X13458277Y-14806936D02*
X13448753Y-14816460D01*
X13448753Y-14816460D02*
X13429706Y-14825984D01*
X13429706Y-14825984D02*
X13401134Y-14825984D01*
X13582087Y-14825984D02*
X13563039Y-14816460D01*
X13563039Y-14816460D02*
X13553515Y-14797412D01*
X13553515Y-14797412D02*
X13553515Y-14625984D01*
X13734468Y-14816460D02*
X13715420Y-14825984D01*
X13715420Y-14825984D02*
X13677325Y-14825984D01*
X13677325Y-14825984D02*
X13658277Y-14816460D01*
X13658277Y-14816460D02*
X13648753Y-14797412D01*
X13648753Y-14797412D02*
X13648753Y-14721222D01*
X13648753Y-14721222D02*
X13658277Y-14702174D01*
X13658277Y-14702174D02*
X13677325Y-14692650D01*
X13677325Y-14692650D02*
X13715420Y-14692650D01*
X13715420Y-14692650D02*
X13734468Y-14702174D01*
X13734468Y-14702174D02*
X13743991Y-14721222D01*
X13743991Y-14721222D02*
X13743991Y-14740269D01*
X13743991Y-14740269D02*
X13648753Y-14759317D01*
X13820182Y-14816460D02*
X13839230Y-14825984D01*
X13839230Y-14825984D02*
X13877325Y-14825984D01*
X13877325Y-14825984D02*
X13896372Y-14816460D01*
X13896372Y-14816460D02*
X13905896Y-14797412D01*
X13905896Y-14797412D02*
X13905896Y-14787888D01*
X13905896Y-14787888D02*
X13896372Y-14768841D01*
X13896372Y-14768841D02*
X13877325Y-14759317D01*
X13877325Y-14759317D02*
X13848753Y-14759317D01*
X13848753Y-14759317D02*
X13829706Y-14749793D01*
X13829706Y-14749793D02*
X13820182Y-14730746D01*
X13820182Y-14730746D02*
X13820182Y-14721222D01*
X13820182Y-14721222D02*
X13829706Y-14702174D01*
X13829706Y-14702174D02*
X13848753Y-14692650D01*
X13848753Y-14692650D02*
X13877325Y-14692650D01*
X13877325Y-14692650D02*
X13896372Y-14702174D01*
X14143992Y-14749793D02*
X14296373Y-14749793D01*
X14220182Y-14825984D02*
X14220182Y-14673603D01*
X14534468Y-14645031D02*
X14543992Y-14635508D01*
X14543992Y-14635508D02*
X14563039Y-14625984D01*
X14563039Y-14625984D02*
X14610658Y-14625984D01*
X14610658Y-14625984D02*
X14629706Y-14635508D01*
X14629706Y-14635508D02*
X14639230Y-14645031D01*
X14639230Y-14645031D02*
X14648753Y-14664079D01*
X14648753Y-14664079D02*
X14648753Y-14683127D01*
X14648753Y-14683127D02*
X14639230Y-14711698D01*
X14639230Y-14711698D02*
X14524944Y-14825984D01*
X14524944Y-14825984D02*
X14648753Y-14825984D01*
X14877325Y-14816460D02*
X14896373Y-14825984D01*
X14896373Y-14825984D02*
X14934468Y-14825984D01*
X14934468Y-14825984D02*
X14953515Y-14816460D01*
X14953515Y-14816460D02*
X14963039Y-14797412D01*
X14963039Y-14797412D02*
X14963039Y-14787888D01*
X14963039Y-14787888D02*
X14953515Y-14768841D01*
X14953515Y-14768841D02*
X14934468Y-14759317D01*
X14934468Y-14759317D02*
X14905896Y-14759317D01*
X14905896Y-14759317D02*
X14886849Y-14749793D01*
X14886849Y-14749793D02*
X14877325Y-14730746D01*
X14877325Y-14730746D02*
X14877325Y-14721222D01*
X14877325Y-14721222D02*
X14886849Y-14702174D01*
X14886849Y-14702174D02*
X14905896Y-14692650D01*
X14905896Y-14692650D02*
X14934468Y-14692650D01*
X14934468Y-14692650D02*
X14953515Y-14702174D01*
X15077325Y-14825984D02*
X15058277Y-14816460D01*
X15058277Y-14816460D02*
X15048754Y-14797412D01*
X15048754Y-14797412D02*
X15048754Y-14625984D01*
X15182087Y-14825984D02*
X15163039Y-14816460D01*
X15163039Y-14816460D02*
X15153515Y-14806936D01*
X15153515Y-14806936D02*
X15143992Y-14787888D01*
X15143992Y-14787888D02*
X15143992Y-14730746D01*
X15143992Y-14730746D02*
X15153515Y-14711698D01*
X15153515Y-14711698D02*
X15163039Y-14702174D01*
X15163039Y-14702174D02*
X15182087Y-14692650D01*
X15182087Y-14692650D02*
X15210658Y-14692650D01*
X15210658Y-14692650D02*
X15229706Y-14702174D01*
X15229706Y-14702174D02*
X15239230Y-14711698D01*
X15239230Y-14711698D02*
X15248754Y-14730746D01*
X15248754Y-14730746D02*
X15248754Y-14787888D01*
X15248754Y-14787888D02*
X15239230Y-14806936D01*
X15239230Y-14806936D02*
X15229706Y-14816460D01*
X15229706Y-14816460D02*
X15210658Y-14825984D01*
X15210658Y-14825984D02*
X15182087Y-14825984D01*
X15305896Y-14692650D02*
X15382087Y-14692650D01*
X15334468Y-14625984D02*
X15334468Y-14797412D01*
X15334468Y-14797412D02*
X15343992Y-14816460D01*
X15343992Y-14816460D02*
X15363039Y-14825984D01*
X15363039Y-14825984D02*
X15382087Y-14825984D01*
X15439230Y-14816460D02*
X15458277Y-14825984D01*
X15458277Y-14825984D02*
X15496373Y-14825984D01*
X15496373Y-14825984D02*
X15515420Y-14816460D01*
X15515420Y-14816460D02*
X15524944Y-14797412D01*
X15524944Y-14797412D02*
X15524944Y-14787888D01*
X15524944Y-14787888D02*
X15515420Y-14768841D01*
X15515420Y-14768841D02*
X15496373Y-14759317D01*
X15496373Y-14759317D02*
X15467801Y-14759317D01*
X15467801Y-14759317D02*
X15448754Y-14749793D01*
X15448754Y-14749793D02*
X15439230Y-14730746D01*
X15439230Y-14730746D02*
X15439230Y-14721222D01*
X15439230Y-14721222D02*
X15448754Y-14702174D01*
X15448754Y-14702174D02*
X15467801Y-14692650D01*
X15467801Y-14692650D02*
X15496373Y-14692650D01*
X15496373Y-14692650D02*
X15515420Y-14702174D01*
X15591611Y-14902174D02*
X15601135Y-14892650D01*
X15601135Y-14892650D02*
X15620182Y-14864079D01*
X15620182Y-14864079D02*
X15629706Y-14845031D01*
X15629706Y-14845031D02*
X15639230Y-14816460D01*
X15639230Y-14816460D02*
X15648754Y-14768841D01*
X15648754Y-14768841D02*
X15648754Y-14730746D01*
X15648754Y-14730746D02*
X15639230Y-14683127D01*
X15639230Y-14683127D02*
X15629706Y-14654555D01*
X15629706Y-14654555D02*
X15620182Y-14635508D01*
X15620182Y-14635508D02*
X15601135Y-14606936D01*
X15601135Y-14606936D02*
X15591611Y-14597412D01*
D13*
X9132500Y-15063500D02*
X9197500Y-14998500D01*
X9132500Y-14933500D01*
X9067500Y-14998500D01*
X9132500Y-15063500D01*
D11*
X9563039Y-15089984D02*
X9448753Y-15089984D01*
X9505896Y-15089984D02*
X9505896Y-14889984D01*
X9505896Y-14889984D02*
X9486848Y-14918555D01*
X9486848Y-14918555D02*
X9467801Y-14937603D01*
X9467801Y-14937603D02*
X9448753Y-14947127D01*
X9648753Y-15070936D02*
X9658277Y-15080460D01*
X9658277Y-15080460D02*
X9648753Y-15089984D01*
X9648753Y-15089984D02*
X9639229Y-15080460D01*
X9639229Y-15080460D02*
X9648753Y-15070936D01*
X9648753Y-15070936D02*
X9648753Y-15089984D01*
X9724944Y-14889984D02*
X9848753Y-14889984D01*
X9848753Y-14889984D02*
X9782086Y-14966174D01*
X9782086Y-14966174D02*
X9810658Y-14966174D01*
X9810658Y-14966174D02*
X9829705Y-14975698D01*
X9829705Y-14975698D02*
X9839229Y-14985222D01*
X9839229Y-14985222D02*
X9848753Y-15004269D01*
X9848753Y-15004269D02*
X9848753Y-15051888D01*
X9848753Y-15051888D02*
X9839229Y-15070936D01*
X9839229Y-15070936D02*
X9829705Y-15080460D01*
X9829705Y-15080460D02*
X9810658Y-15089984D01*
X9810658Y-15089984D02*
X9753515Y-15089984D01*
X9753515Y-15089984D02*
X9734467Y-15080460D01*
X9734467Y-15080460D02*
X9724944Y-15070936D01*
X9972563Y-14889984D02*
X9991610Y-14889984D01*
X9991610Y-14889984D02*
X10010658Y-14899508D01*
X10010658Y-14899508D02*
X10020182Y-14909031D01*
X10020182Y-14909031D02*
X10029705Y-14928079D01*
X10029705Y-14928079D02*
X10039229Y-14966174D01*
X10039229Y-14966174D02*
X10039229Y-15013793D01*
X10039229Y-15013793D02*
X10029705Y-15051888D01*
X10029705Y-15051888D02*
X10020182Y-15070936D01*
X10020182Y-15070936D02*
X10010658Y-15080460D01*
X10010658Y-15080460D02*
X9991610Y-15089984D01*
X9991610Y-15089984D02*
X9972563Y-15089984D01*
X9972563Y-15089984D02*
X9953515Y-15080460D01*
X9953515Y-15080460D02*
X9943991Y-15070936D01*
X9943991Y-15070936D02*
X9934467Y-15051888D01*
X9934467Y-15051888D02*
X9924944Y-15013793D01*
X9924944Y-15013793D02*
X9924944Y-14966174D01*
X9924944Y-14966174D02*
X9934467Y-14928079D01*
X9934467Y-14928079D02*
X9943991Y-14909031D01*
X9943991Y-14909031D02*
X9953515Y-14899508D01*
X9953515Y-14899508D02*
X9972563Y-14889984D01*
X10163039Y-14889984D02*
X10182086Y-14889984D01*
X10182086Y-14889984D02*
X10201134Y-14899508D01*
X10201134Y-14899508D02*
X10210658Y-14909031D01*
X10210658Y-14909031D02*
X10220182Y-14928079D01*
X10220182Y-14928079D02*
X10229705Y-14966174D01*
X10229705Y-14966174D02*
X10229705Y-15013793D01*
X10229705Y-15013793D02*
X10220182Y-15051888D01*
X10220182Y-15051888D02*
X10210658Y-15070936D01*
X10210658Y-15070936D02*
X10201134Y-15080460D01*
X10201134Y-15080460D02*
X10182086Y-15089984D01*
X10182086Y-15089984D02*
X10163039Y-15089984D01*
X10163039Y-15089984D02*
X10143991Y-15080460D01*
X10143991Y-15080460D02*
X10134467Y-15070936D01*
X10134467Y-15070936D02*
X10124944Y-15051888D01*
X10124944Y-15051888D02*
X10115420Y-15013793D01*
X10115420Y-15013793D02*
X10115420Y-14966174D01*
X10115420Y-14966174D02*
X10124944Y-14928079D01*
X10124944Y-14928079D02*
X10134467Y-14909031D01*
X10134467Y-14909031D02*
X10143991Y-14899508D01*
X10143991Y-14899508D02*
X10163039Y-14889984D01*
X10315420Y-15089984D02*
X10315420Y-14956650D01*
X10315420Y-14975698D02*
X10324944Y-14966174D01*
X10324944Y-14966174D02*
X10343991Y-14956650D01*
X10343991Y-14956650D02*
X10372563Y-14956650D01*
X10372563Y-14956650D02*
X10391610Y-14966174D01*
X10391610Y-14966174D02*
X10401134Y-14985222D01*
X10401134Y-14985222D02*
X10401134Y-15089984D01*
X10401134Y-14985222D02*
X10410658Y-14966174D01*
X10410658Y-14966174D02*
X10429705Y-14956650D01*
X10429705Y-14956650D02*
X10458277Y-14956650D01*
X10458277Y-14956650D02*
X10477325Y-14966174D01*
X10477325Y-14966174D02*
X10486848Y-14985222D01*
X10486848Y-14985222D02*
X10486848Y-15089984D01*
X10582086Y-15089984D02*
X10582086Y-14956650D01*
X10582086Y-14975698D02*
X10591610Y-14966174D01*
X10591610Y-14966174D02*
X10610658Y-14956650D01*
X10610658Y-14956650D02*
X10639229Y-14956650D01*
X10639229Y-14956650D02*
X10658277Y-14966174D01*
X10658277Y-14966174D02*
X10667801Y-14985222D01*
X10667801Y-14985222D02*
X10667801Y-15089984D01*
X10667801Y-14985222D02*
X10677325Y-14966174D01*
X10677325Y-14966174D02*
X10696372Y-14956650D01*
X10696372Y-14956650D02*
X10724944Y-14956650D01*
X10724944Y-14956650D02*
X10743991Y-14966174D01*
X10743991Y-14966174D02*
X10753515Y-14985222D01*
X10753515Y-14985222D02*
X10753515Y-15089984D01*
X11143991Y-14880460D02*
X10972563Y-15137603D01*
X11401134Y-14889984D02*
X11420182Y-14889984D01*
X11420182Y-14889984D02*
X11439229Y-14899508D01*
X11439229Y-14899508D02*
X11448753Y-14909031D01*
X11448753Y-14909031D02*
X11458277Y-14928079D01*
X11458277Y-14928079D02*
X11467801Y-14966174D01*
X11467801Y-14966174D02*
X11467801Y-15013793D01*
X11467801Y-15013793D02*
X11458277Y-15051888D01*
X11458277Y-15051888D02*
X11448753Y-15070936D01*
X11448753Y-15070936D02*
X11439229Y-15080460D01*
X11439229Y-15080460D02*
X11420182Y-15089984D01*
X11420182Y-15089984D02*
X11401134Y-15089984D01*
X11401134Y-15089984D02*
X11382086Y-15080460D01*
X11382086Y-15080460D02*
X11372563Y-15070936D01*
X11372563Y-15070936D02*
X11363039Y-15051888D01*
X11363039Y-15051888D02*
X11353515Y-15013793D01*
X11353515Y-15013793D02*
X11353515Y-14966174D01*
X11353515Y-14966174D02*
X11363039Y-14928079D01*
X11363039Y-14928079D02*
X11372563Y-14909031D01*
X11372563Y-14909031D02*
X11382086Y-14899508D01*
X11382086Y-14899508D02*
X11401134Y-14889984D01*
X11553515Y-15070936D02*
X11563039Y-15080460D01*
X11563039Y-15080460D02*
X11553515Y-15089984D01*
X11553515Y-15089984D02*
X11543991Y-15080460D01*
X11543991Y-15080460D02*
X11553515Y-15070936D01*
X11553515Y-15070936D02*
X11553515Y-15089984D01*
X11686848Y-14889984D02*
X11705896Y-14889984D01*
X11705896Y-14889984D02*
X11724944Y-14899508D01*
X11724944Y-14899508D02*
X11734467Y-14909031D01*
X11734467Y-14909031D02*
X11743991Y-14928079D01*
X11743991Y-14928079D02*
X11753515Y-14966174D01*
X11753515Y-14966174D02*
X11753515Y-15013793D01*
X11753515Y-15013793D02*
X11743991Y-15051888D01*
X11743991Y-15051888D02*
X11734467Y-15070936D01*
X11734467Y-15070936D02*
X11724944Y-15080460D01*
X11724944Y-15080460D02*
X11705896Y-15089984D01*
X11705896Y-15089984D02*
X11686848Y-15089984D01*
X11686848Y-15089984D02*
X11667801Y-15080460D01*
X11667801Y-15080460D02*
X11658277Y-15070936D01*
X11658277Y-15070936D02*
X11648753Y-15051888D01*
X11648753Y-15051888D02*
X11639229Y-15013793D01*
X11639229Y-15013793D02*
X11639229Y-14966174D01*
X11639229Y-14966174D02*
X11648753Y-14928079D01*
X11648753Y-14928079D02*
X11658277Y-14909031D01*
X11658277Y-14909031D02*
X11667801Y-14899508D01*
X11667801Y-14899508D02*
X11686848Y-14889984D01*
X11934467Y-14889984D02*
X11839229Y-14889984D01*
X11839229Y-14889984D02*
X11829706Y-14985222D01*
X11829706Y-14985222D02*
X11839229Y-14975698D01*
X11839229Y-14975698D02*
X11858277Y-14966174D01*
X11858277Y-14966174D02*
X11905896Y-14966174D01*
X11905896Y-14966174D02*
X11924944Y-14975698D01*
X11924944Y-14975698D02*
X11934467Y-14985222D01*
X11934467Y-14985222D02*
X11943991Y-15004269D01*
X11943991Y-15004269D02*
X11943991Y-15051888D01*
X11943991Y-15051888D02*
X11934467Y-15070936D01*
X11934467Y-15070936D02*
X11924944Y-15080460D01*
X11924944Y-15080460D02*
X11905896Y-15089984D01*
X11905896Y-15089984D02*
X11858277Y-15089984D01*
X11858277Y-15089984D02*
X11839229Y-15080460D01*
X11839229Y-15080460D02*
X11829706Y-15070936D01*
X12134467Y-15089984D02*
X12020182Y-15089984D01*
X12077325Y-15089984D02*
X12077325Y-14889984D01*
X12077325Y-14889984D02*
X12058277Y-14918555D01*
X12058277Y-14918555D02*
X12039229Y-14937603D01*
X12039229Y-14937603D02*
X12020182Y-14947127D01*
X12210658Y-14909031D02*
X12220182Y-14899508D01*
X12220182Y-14899508D02*
X12239229Y-14889984D01*
X12239229Y-14889984D02*
X12286848Y-14889984D01*
X12286848Y-14889984D02*
X12305896Y-14899508D01*
X12305896Y-14899508D02*
X12315420Y-14909031D01*
X12315420Y-14909031D02*
X12324944Y-14928079D01*
X12324944Y-14928079D02*
X12324944Y-14947127D01*
X12324944Y-14947127D02*
X12315420Y-14975698D01*
X12315420Y-14975698D02*
X12201134Y-15089984D01*
X12201134Y-15089984D02*
X12324944Y-15089984D01*
X12401134Y-14889984D02*
X12401134Y-14928079D01*
X12477325Y-14889984D02*
X12477325Y-14928079D01*
X12772563Y-15166174D02*
X12763039Y-15156650D01*
X12763039Y-15156650D02*
X12743991Y-15128079D01*
X12743991Y-15128079D02*
X12734468Y-15109031D01*
X12734468Y-15109031D02*
X12724944Y-15080460D01*
X12724944Y-15080460D02*
X12715420Y-15032841D01*
X12715420Y-15032841D02*
X12715420Y-14994746D01*
X12715420Y-14994746D02*
X12724944Y-14947127D01*
X12724944Y-14947127D02*
X12734468Y-14918555D01*
X12734468Y-14918555D02*
X12743991Y-14899508D01*
X12743991Y-14899508D02*
X12763039Y-14870936D01*
X12763039Y-14870936D02*
X12772563Y-14861412D01*
X12839229Y-14909031D02*
X12848753Y-14899508D01*
X12848753Y-14899508D02*
X12867801Y-14889984D01*
X12867801Y-14889984D02*
X12915420Y-14889984D01*
X12915420Y-14889984D02*
X12934468Y-14899508D01*
X12934468Y-14899508D02*
X12943991Y-14909031D01*
X12943991Y-14909031D02*
X12953515Y-14928079D01*
X12953515Y-14928079D02*
X12953515Y-14947127D01*
X12953515Y-14947127D02*
X12943991Y-14975698D01*
X12943991Y-14975698D02*
X12829706Y-15089984D01*
X12829706Y-15089984D02*
X12953515Y-15089984D01*
X13191610Y-15089984D02*
X13191610Y-14889984D01*
X13277325Y-15089984D02*
X13277325Y-14985222D01*
X13277325Y-14985222D02*
X13267801Y-14966174D01*
X13267801Y-14966174D02*
X13248753Y-14956650D01*
X13248753Y-14956650D02*
X13220182Y-14956650D01*
X13220182Y-14956650D02*
X13201134Y-14966174D01*
X13201134Y-14966174D02*
X13191610Y-14975698D01*
X13401134Y-15089984D02*
X13382087Y-15080460D01*
X13382087Y-15080460D02*
X13372563Y-15070936D01*
X13372563Y-15070936D02*
X13363039Y-15051888D01*
X13363039Y-15051888D02*
X13363039Y-14994746D01*
X13363039Y-14994746D02*
X13372563Y-14975698D01*
X13372563Y-14975698D02*
X13382087Y-14966174D01*
X13382087Y-14966174D02*
X13401134Y-14956650D01*
X13401134Y-14956650D02*
X13429706Y-14956650D01*
X13429706Y-14956650D02*
X13448753Y-14966174D01*
X13448753Y-14966174D02*
X13458277Y-14975698D01*
X13458277Y-14975698D02*
X13467801Y-14994746D01*
X13467801Y-14994746D02*
X13467801Y-15051888D01*
X13467801Y-15051888D02*
X13458277Y-15070936D01*
X13458277Y-15070936D02*
X13448753Y-15080460D01*
X13448753Y-15080460D02*
X13429706Y-15089984D01*
X13429706Y-15089984D02*
X13401134Y-15089984D01*
X13582087Y-15089984D02*
X13563039Y-15080460D01*
X13563039Y-15080460D02*
X13553515Y-15061412D01*
X13553515Y-15061412D02*
X13553515Y-14889984D01*
X13734468Y-15080460D02*
X13715420Y-15089984D01*
X13715420Y-15089984D02*
X13677325Y-15089984D01*
X13677325Y-15089984D02*
X13658277Y-15080460D01*
X13658277Y-15080460D02*
X13648753Y-15061412D01*
X13648753Y-15061412D02*
X13648753Y-14985222D01*
X13648753Y-14985222D02*
X13658277Y-14966174D01*
X13658277Y-14966174D02*
X13677325Y-14956650D01*
X13677325Y-14956650D02*
X13715420Y-14956650D01*
X13715420Y-14956650D02*
X13734468Y-14966174D01*
X13734468Y-14966174D02*
X13743991Y-14985222D01*
X13743991Y-14985222D02*
X13743991Y-15004269D01*
X13743991Y-15004269D02*
X13648753Y-15023317D01*
X13820182Y-15080460D02*
X13839230Y-15089984D01*
X13839230Y-15089984D02*
X13877325Y-15089984D01*
X13877325Y-15089984D02*
X13896372Y-15080460D01*
X13896372Y-15080460D02*
X13905896Y-15061412D01*
X13905896Y-15061412D02*
X13905896Y-15051888D01*
X13905896Y-15051888D02*
X13896372Y-15032841D01*
X13896372Y-15032841D02*
X13877325Y-15023317D01*
X13877325Y-15023317D02*
X13848753Y-15023317D01*
X13848753Y-15023317D02*
X13829706Y-15013793D01*
X13829706Y-15013793D02*
X13820182Y-14994746D01*
X13820182Y-14994746D02*
X13820182Y-14985222D01*
X13820182Y-14985222D02*
X13829706Y-14966174D01*
X13829706Y-14966174D02*
X13848753Y-14956650D01*
X13848753Y-14956650D02*
X13877325Y-14956650D01*
X13877325Y-14956650D02*
X13896372Y-14966174D01*
X13972563Y-15166174D02*
X13982087Y-15156650D01*
X13982087Y-15156650D02*
X14001134Y-15128079D01*
X14001134Y-15128079D02*
X14010658Y-15109031D01*
X14010658Y-15109031D02*
X14020182Y-15080460D01*
X14020182Y-15080460D02*
X14029706Y-15032841D01*
X14029706Y-15032841D02*
X14029706Y-14994746D01*
X14029706Y-14994746D02*
X14020182Y-14947127D01*
X14020182Y-14947127D02*
X14010658Y-14918555D01*
X14010658Y-14918555D02*
X14001134Y-14899508D01*
X14001134Y-14899508D02*
X13982087Y-14870936D01*
X13982087Y-14870936D02*
X13972563Y-14861412D01*
M02*
