%TF.GenerationSoftware,KiCad,Pcbnew,8.0.5-8.0.5-0~ubuntu24.04.1*%
%TF.CreationDate,2024-10-16T00:37:47+08:00*%
%TF.ProjectId,EL6170_Pro_Max_Plus,454c3631-3730-45f5-9072-6f5f4d61785f,rev?*%
%TF.SameCoordinates,Original*%
%TF.FileFunction,Soldermask,Top*%
%TF.FilePolarity,Negative*%
%FSLAX46Y46*%
G04 Gerber Fmt 4.6, Leading zero omitted, Abs format (unit mm)*
G04 Created by KiCad (PCBNEW 8.0.5-8.0.5-0~ubuntu24.04.1) date 2024-10-16 00:37:47*
%MOMM*%
%LPD*%
G01*
G04 APERTURE LIST*
G04 Aperture macros list*
%AMRoundRect*
0 Rectangle with rounded corners*
0 $1 Rounding radius*
0 $2 $3 $4 $5 $6 $7 $8 $9 X,Y pos of 4 corners*
0 Add a 4 corners polygon primitive as box body*
4,1,4,$2,$3,$4,$5,$6,$7,$8,$9,$2,$3,0*
0 Add four circle primitives for the rounded corners*
1,1,$1+$1,$2,$3*
1,1,$1+$1,$4,$5*
1,1,$1+$1,$6,$7*
1,1,$1+$1,$8,$9*
0 Add four rect primitives between the rounded corners*
20,1,$1+$1,$2,$3,$4,$5,0*
20,1,$1+$1,$4,$5,$6,$7,0*
20,1,$1+$1,$6,$7,$8,$9,0*
20,1,$1+$1,$8,$9,$2,$3,0*%
G04 Aperture macros list end*
%ADD10C,0.100000*%
%ADD11C,0.150000*%
%ADD12C,0.040000*%
%ADD13C,0.000000*%
%ADD14C,2.550000*%
%ADD15RoundRect,0.140000X0.140000X0.170000X-0.140000X0.170000X-0.140000X-0.170000X0.140000X-0.170000X0*%
%ADD16RoundRect,0.135000X0.135000X0.185000X-0.135000X0.185000X-0.135000X-0.185000X0.135000X-0.185000X0*%
%ADD17RoundRect,0.200000X0.200000X0.275000X-0.200000X0.275000X-0.200000X-0.275000X0.200000X-0.275000X0*%
%ADD18RoundRect,0.140000X0.219203X0.021213X0.021213X0.219203X-0.219203X-0.021213X-0.021213X-0.219203X0*%
%ADD19RoundRect,0.150000X0.150000X-0.587500X0.150000X0.587500X-0.150000X0.587500X-0.150000X-0.587500X0*%
%ADD20RoundRect,0.225000X0.225000X0.250000X-0.225000X0.250000X-0.225000X-0.250000X0.225000X-0.250000X0*%
%ADD21RoundRect,0.140000X-0.170000X0.140000X-0.170000X-0.140000X0.170000X-0.140000X0.170000X0.140000X0*%
%ADD22RoundRect,0.200000X-0.275000X0.200000X-0.275000X-0.200000X0.275000X-0.200000X0.275000X0.200000X0*%
%ADD23RoundRect,0.100000X-0.637500X-0.100000X0.637500X-0.100000X0.637500X0.100000X-0.637500X0.100000X0*%
%ADD24RoundRect,0.225000X-0.225000X-0.250000X0.225000X-0.250000X0.225000X0.250000X-0.225000X0.250000X0*%
%ADD25RoundRect,0.135000X-0.185000X0.135000X-0.185000X-0.135000X0.185000X-0.135000X0.185000X0.135000X0*%
%ADD26RoundRect,0.225000X0.250000X-0.225000X0.250000X0.225000X-0.250000X0.225000X-0.250000X-0.225000X0*%
%ADD27RoundRect,0.140000X-0.140000X-0.170000X0.140000X-0.170000X0.140000X0.170000X-0.140000X0.170000X0*%
%ADD28RoundRect,0.225000X-0.250000X0.225000X-0.250000X-0.225000X0.250000X-0.225000X0.250000X0.225000X0*%
%ADD29C,1.000000*%
%ADD30RoundRect,0.101600X0.800000X0.350000X-0.800000X0.350000X-0.800000X-0.350000X0.800000X-0.350000X0*%
%ADD31RoundRect,0.101600X0.800000X-0.600000X0.800000X0.600000X-0.800000X0.600000X-0.800000X-0.600000X0*%
%ADD32RoundRect,0.101600X1.100000X-0.600000X1.100000X0.600000X-1.100000X0.600000X-1.100000X-0.600000X0*%
%ADD33RoundRect,0.101600X0.700000X-0.800000X0.700000X0.800000X-0.700000X0.800000X-0.700000X-0.800000X0*%
%ADD34RoundRect,0.200000X-0.200000X-0.275000X0.200000X-0.275000X0.200000X0.275000X-0.200000X0.275000X0*%
%ADD35RoundRect,0.135000X-0.135000X-0.185000X0.135000X-0.185000X0.135000X0.185000X-0.135000X0.185000X0*%
%ADD36RoundRect,0.050000X0.300000X-0.150000X0.300000X0.150000X-0.300000X0.150000X-0.300000X-0.150000X0*%
%ADD37RoundRect,0.150000X0.150000X-0.512500X0.150000X0.512500X-0.150000X0.512500X-0.150000X-0.512500X0*%
%ADD38RoundRect,0.135000X0.226274X0.035355X0.035355X0.226274X-0.226274X-0.035355X-0.035355X-0.226274X0*%
%ADD39RoundRect,0.150000X-0.512500X-0.150000X0.512500X-0.150000X0.512500X0.150000X-0.512500X0.150000X0*%
%ADD40R,4.300000X2.400000*%
%ADD41RoundRect,0.050000X-0.300000X0.150000X-0.300000X-0.150000X0.300000X-0.150000X0.300000X0.150000X0*%
%ADD42C,1.300000*%
%ADD43R,1.500000X3.000000*%
%ADD44RoundRect,0.250000X-0.650000X1.000000X-0.650000X-1.000000X0.650000X-1.000000X0.650000X1.000000X0*%
%ADD45RoundRect,0.150000X-0.150000X0.587500X-0.150000X-0.587500X0.150000X-0.587500X0.150000X0.587500X0*%
%ADD46RoundRect,0.150000X-0.587500X-0.150000X0.587500X-0.150000X0.587500X0.150000X-0.587500X0.150000X0*%
%ADD47RoundRect,0.140000X0.170000X-0.140000X0.170000X0.140000X-0.170000X0.140000X-0.170000X-0.140000X0*%
%ADD48R,2.000000X2.000000*%
%ADD49R,1.600000X0.400000*%
%ADD50O,1.600000X1.000000*%
%ADD51R,1.000000X0.900000*%
%ADD52RoundRect,0.150000X0.687500X0.150000X-0.687500X0.150000X-0.687500X-0.150000X0.687500X-0.150000X0*%
%ADD53R,2.100000X3.300000*%
%ADD54RoundRect,0.100000X-0.712500X-0.100000X0.712500X-0.100000X0.712500X0.100000X-0.712500X0.100000X0*%
%ADD55RoundRect,0.200000X0.275000X-0.200000X0.275000X0.200000X-0.275000X0.200000X-0.275000X-0.200000X0*%
%ADD56RoundRect,0.250000X-1.000000X-0.650000X1.000000X-0.650000X1.000000X0.650000X-1.000000X0.650000X0*%
%ADD57RoundRect,0.101600X0.950000X-2.650000X0.950000X2.650000X-0.950000X2.650000X-0.950000X-2.650000X0*%
%ADD58R,1.750000X0.450000*%
%ADD59RoundRect,0.218750X-0.218750X-0.256250X0.218750X-0.256250X0.218750X0.256250X-0.218750X0.256250X0*%
%ADD60R,1.500000X0.900000*%
%ADD61R,0.900000X1.500000*%
%ADD62C,0.600000*%
%ADD63R,3.900000X3.900000*%
%ADD64RoundRect,0.135000X0.185000X-0.135000X0.185000X0.135000X-0.185000X0.135000X-0.185000X-0.135000X0*%
%ADD65R,1.800000X0.400000*%
%ADD66R,1.200000X0.600000*%
%ADD67R,2.400000X3.300000*%
%ADD68RoundRect,0.150000X0.512500X0.150000X-0.512500X0.150000X-0.512500X-0.150000X0.512500X-0.150000X0*%
%ADD69RoundRect,0.250000X-0.250000X-0.475000X0.250000X-0.475000X0.250000X0.475000X-0.250000X0.475000X0*%
%ADD70RoundRect,0.101600X0.900000X-0.500000X0.900000X0.500000X-0.900000X0.500000X-0.900000X-0.500000X0*%
G04 APERTURE END LIST*
D10*
X138403884Y-70072419D02*
X138403884Y-69072419D01*
X138403884Y-69072419D02*
X138784836Y-69072419D01*
X138784836Y-69072419D02*
X138880074Y-69120038D01*
X138880074Y-69120038D02*
X138927693Y-69167657D01*
X138927693Y-69167657D02*
X138975312Y-69262895D01*
X138975312Y-69262895D02*
X138975312Y-69405752D01*
X138975312Y-69405752D02*
X138927693Y-69500990D01*
X138927693Y-69500990D02*
X138880074Y-69548609D01*
X138880074Y-69548609D02*
X138784836Y-69596228D01*
X138784836Y-69596228D02*
X138403884Y-69596228D01*
X139403884Y-70072419D02*
X139403884Y-69405752D01*
X139403884Y-69596228D02*
X139451503Y-69500990D01*
X139451503Y-69500990D02*
X139499122Y-69453371D01*
X139499122Y-69453371D02*
X139594360Y-69405752D01*
X139594360Y-69405752D02*
X139689598Y-69405752D01*
X140165789Y-70072419D02*
X140070551Y-70024800D01*
X140070551Y-70024800D02*
X140022932Y-69977180D01*
X140022932Y-69977180D02*
X139975313Y-69881942D01*
X139975313Y-69881942D02*
X139975313Y-69596228D01*
X139975313Y-69596228D02*
X140022932Y-69500990D01*
X140022932Y-69500990D02*
X140070551Y-69453371D01*
X140070551Y-69453371D02*
X140165789Y-69405752D01*
X140165789Y-69405752D02*
X140308646Y-69405752D01*
X140308646Y-69405752D02*
X140403884Y-69453371D01*
X140403884Y-69453371D02*
X140451503Y-69500990D01*
X140451503Y-69500990D02*
X140499122Y-69596228D01*
X140499122Y-69596228D02*
X140499122Y-69881942D01*
X140499122Y-69881942D02*
X140451503Y-69977180D01*
X140451503Y-69977180D02*
X140403884Y-70024800D01*
X140403884Y-70024800D02*
X140308646Y-70072419D01*
X140308646Y-70072419D02*
X140165789Y-70072419D01*
X140927694Y-69405752D02*
X140927694Y-70262895D01*
X140927694Y-70262895D02*
X140880075Y-70358133D01*
X140880075Y-70358133D02*
X140784837Y-70405752D01*
X140784837Y-70405752D02*
X140737218Y-70405752D01*
X140927694Y-69072419D02*
X140880075Y-69120038D01*
X140880075Y-69120038D02*
X140927694Y-69167657D01*
X140927694Y-69167657D02*
X140975313Y-69120038D01*
X140975313Y-69120038D02*
X140927694Y-69072419D01*
X140927694Y-69072419D02*
X140927694Y-69167657D01*
X141784836Y-70024800D02*
X141689598Y-70072419D01*
X141689598Y-70072419D02*
X141499122Y-70072419D01*
X141499122Y-70072419D02*
X141403884Y-70024800D01*
X141403884Y-70024800D02*
X141356265Y-69929561D01*
X141356265Y-69929561D02*
X141356265Y-69548609D01*
X141356265Y-69548609D02*
X141403884Y-69453371D01*
X141403884Y-69453371D02*
X141499122Y-69405752D01*
X141499122Y-69405752D02*
X141689598Y-69405752D01*
X141689598Y-69405752D02*
X141784836Y-69453371D01*
X141784836Y-69453371D02*
X141832455Y-69548609D01*
X141832455Y-69548609D02*
X141832455Y-69643847D01*
X141832455Y-69643847D02*
X141356265Y-69739085D01*
X142689598Y-70024800D02*
X142594360Y-70072419D01*
X142594360Y-70072419D02*
X142403884Y-70072419D01*
X142403884Y-70072419D02*
X142308646Y-70024800D01*
X142308646Y-70024800D02*
X142261027Y-69977180D01*
X142261027Y-69977180D02*
X142213408Y-69881942D01*
X142213408Y-69881942D02*
X142213408Y-69596228D01*
X142213408Y-69596228D02*
X142261027Y-69500990D01*
X142261027Y-69500990D02*
X142308646Y-69453371D01*
X142308646Y-69453371D02*
X142403884Y-69405752D01*
X142403884Y-69405752D02*
X142594360Y-69405752D01*
X142594360Y-69405752D02*
X142689598Y-69453371D01*
X142975313Y-69405752D02*
X143356265Y-69405752D01*
X143118170Y-69072419D02*
X143118170Y-69929561D01*
X143118170Y-69929561D02*
X143165789Y-70024800D01*
X143165789Y-70024800D02*
X143261027Y-70072419D01*
X143261027Y-70072419D02*
X143356265Y-70072419D01*
D11*
G36*
X102113684Y-63401999D02*
G01*
X102164886Y-63413044D01*
X102210830Y-63431451D01*
X102256896Y-63461505D01*
X102272400Y-63475254D01*
X102307556Y-63516882D01*
X102332667Y-63564830D01*
X102346400Y-63611969D01*
X102352442Y-63663946D01*
X102352756Y-63679685D01*
X102348876Y-63733045D01*
X102337235Y-63781566D01*
X102314429Y-63831094D01*
X102281487Y-63874302D01*
X102271667Y-63884117D01*
X102227948Y-63917776D01*
X102177634Y-63941819D01*
X102128199Y-63954967D01*
X102073716Y-63960753D01*
X102057222Y-63961053D01*
X101825191Y-63961053D01*
X101825191Y-64430000D01*
X101754849Y-64430000D01*
X101754849Y-63898527D01*
X101825191Y-63898527D01*
X102057222Y-63898527D01*
X102105933Y-63894833D01*
X102154566Y-63881846D01*
X102200944Y-63856448D01*
X102221109Y-63839420D01*
X102253438Y-63798319D01*
X102273793Y-63749203D01*
X102281875Y-63698147D01*
X102282414Y-63679685D01*
X102277623Y-63625834D01*
X102263249Y-63578861D01*
X102236038Y-63534735D01*
X102221842Y-63519462D01*
X102179739Y-63488550D01*
X102129144Y-63469087D01*
X102076349Y-63461359D01*
X102057222Y-63460844D01*
X101825191Y-63460844D01*
X101825191Y-63898527D01*
X101754849Y-63898527D01*
X101754849Y-63398318D01*
X102057222Y-63398318D01*
X102113684Y-63401999D01*
G37*
G36*
X102624842Y-64430000D02*
G01*
X102624842Y-63648422D01*
X102695184Y-63648422D01*
X102695184Y-63773475D01*
X102716296Y-63728034D01*
X102748780Y-63687876D01*
X102770411Y-63670160D01*
X102817347Y-63645965D01*
X102867900Y-63634579D01*
X102900593Y-63632791D01*
X102953453Y-63636274D01*
X103006194Y-63648784D01*
X103050753Y-63670391D01*
X103091102Y-63705575D01*
X103121445Y-63751269D01*
X103140080Y-63799866D01*
X103149949Y-63848549D01*
X103153811Y-63902982D01*
X103153872Y-63911228D01*
X103153872Y-63982547D01*
X103083531Y-63982547D01*
X103083531Y-63911472D01*
X103080447Y-63861952D01*
X103069606Y-63813686D01*
X103048407Y-63769303D01*
X103034193Y-63750760D01*
X102994930Y-63719194D01*
X102944641Y-63700731D01*
X102895296Y-63695371D01*
X102889357Y-63695317D01*
X102839823Y-63699934D01*
X102792988Y-63715896D01*
X102751441Y-63746622D01*
X102745010Y-63753691D01*
X102716642Y-63799370D01*
X102701072Y-63850813D01*
X102695379Y-63905188D01*
X102695184Y-63918311D01*
X102695184Y-64430000D01*
X102624842Y-64430000D01*
G37*
G36*
X103752874Y-63636507D02*
G01*
X103806791Y-63649857D01*
X103854357Y-63672915D01*
X103895573Y-63705682D01*
X103900279Y-63710460D01*
X103932870Y-63752561D01*
X103956149Y-63801196D01*
X103968880Y-63849111D01*
X103974482Y-63902029D01*
X103974773Y-63918066D01*
X103974773Y-64160355D01*
X103971208Y-64214702D01*
X103960514Y-64264046D01*
X103939563Y-64314314D01*
X103909299Y-64358049D01*
X103900279Y-64367962D01*
X103859856Y-64401942D01*
X103813084Y-64426214D01*
X103759961Y-64440777D01*
X103708269Y-64445555D01*
X103700488Y-64445631D01*
X103648638Y-64441914D01*
X103595076Y-64428565D01*
X103547590Y-64405507D01*
X103506179Y-64372740D01*
X103501430Y-64367962D01*
X103468518Y-64325860D01*
X103445010Y-64277226D01*
X103432154Y-64229311D01*
X103426497Y-64176393D01*
X103426203Y-64160355D01*
X103426203Y-63918066D01*
X103426219Y-63917822D01*
X103496545Y-63917822D01*
X103496545Y-64160600D01*
X103499888Y-64210425D01*
X103511641Y-64259472D01*
X103534625Y-64305268D01*
X103550034Y-64324731D01*
X103591945Y-64357965D01*
X103638962Y-64376207D01*
X103688537Y-64382877D01*
X103700488Y-64383105D01*
X103751592Y-64378487D01*
X103800307Y-64362526D01*
X103844086Y-64331800D01*
X103850942Y-64324731D01*
X103879149Y-64283515D01*
X103896909Y-64233140D01*
X103903961Y-64179971D01*
X103904431Y-64160600D01*
X103904431Y-63917822D01*
X103901042Y-63868012D01*
X103889128Y-63819019D01*
X103865829Y-63773328D01*
X103850209Y-63753935D01*
X103808164Y-63720562D01*
X103761376Y-63702244D01*
X103712293Y-63695546D01*
X103700488Y-63695317D01*
X103649917Y-63699954D01*
X103601431Y-63715982D01*
X103557463Y-63746837D01*
X103550523Y-63753935D01*
X103522058Y-63795022D01*
X103504136Y-63845316D01*
X103497020Y-63898453D01*
X103496545Y-63917822D01*
X103426219Y-63917822D01*
X103429803Y-63863720D01*
X103440602Y-63814376D01*
X103461760Y-63764108D01*
X103492321Y-63720373D01*
X103501430Y-63710460D01*
X103542081Y-63676480D01*
X103588808Y-63652208D01*
X103641610Y-63637645D01*
X103692796Y-63632867D01*
X103700488Y-63632791D01*
X103752874Y-63636507D01*
G37*
G36*
X104272505Y-64680104D02*
G01*
X104272505Y-64617578D01*
X104435659Y-64617578D01*
X104488005Y-64613366D01*
X104537150Y-64598807D01*
X104580244Y-64570781D01*
X104586845Y-64564333D01*
X104616047Y-64522440D01*
X104632076Y-64474889D01*
X104637936Y-64424385D01*
X104638136Y-64412170D01*
X104638136Y-63710949D01*
X104265422Y-63710949D01*
X104265422Y-63648422D01*
X104708478Y-63648422D01*
X104708478Y-64411681D01*
X104705042Y-64464106D01*
X104692700Y-64517637D01*
X104671382Y-64564360D01*
X104641089Y-64604275D01*
X104636671Y-64608785D01*
X104597271Y-64639987D01*
X104550636Y-64662274D01*
X104496765Y-64675647D01*
X104443693Y-64680035D01*
X104435659Y-64680104D01*
X104272505Y-64680104D01*
G37*
G36*
X104652302Y-63492107D02*
G01*
X104603704Y-63479138D01*
X104593196Y-63470858D01*
X104571515Y-63426741D01*
X104570725Y-63413949D01*
X104585559Y-63365751D01*
X104593196Y-63357285D01*
X104639062Y-63336547D01*
X104652302Y-63335792D01*
X104700900Y-63348910D01*
X104711409Y-63357285D01*
X104733089Y-63401167D01*
X104733879Y-63413949D01*
X104719046Y-63462308D01*
X104711409Y-63470858D01*
X104665543Y-63491360D01*
X104652302Y-63492107D01*
G37*
G36*
X105433718Y-63636519D02*
G01*
X105481717Y-63647704D01*
X105530046Y-63669617D01*
X105571415Y-63701269D01*
X105580669Y-63710704D01*
X105612406Y-63752943D01*
X105635075Y-63801746D01*
X105647472Y-63849833D01*
X105652926Y-63902945D01*
X105653210Y-63919043D01*
X105653210Y-64054842D01*
X105174982Y-64054842D01*
X105174982Y-64161332D01*
X105179213Y-64215536D01*
X105191906Y-64263016D01*
X105215935Y-64307886D01*
X105228471Y-64323510D01*
X105266291Y-64354937D01*
X105312888Y-64374724D01*
X105362330Y-64382581D01*
X105380390Y-64383105D01*
X105431487Y-64378574D01*
X105480448Y-64363295D01*
X105512526Y-64344759D01*
X105549012Y-64308728D01*
X105571551Y-64263346D01*
X105577250Y-64239246D01*
X105647592Y-64239246D01*
X105633823Y-64289697D01*
X105611476Y-64333888D01*
X105580552Y-64371820D01*
X105559665Y-64390188D01*
X105516748Y-64416989D01*
X105467959Y-64435019D01*
X105419660Y-64443682D01*
X105380390Y-64445631D01*
X105326445Y-64441914D01*
X105277875Y-64430765D01*
X105228950Y-64408920D01*
X105187047Y-64377367D01*
X105177669Y-64367962D01*
X105145719Y-64325860D01*
X105122897Y-64277226D01*
X105110417Y-64229311D01*
X105104925Y-64176393D01*
X105104640Y-64160355D01*
X105104640Y-63918066D01*
X105174982Y-63918066D01*
X105174982Y-63992316D01*
X105582868Y-63992316D01*
X105582868Y-63918066D01*
X105578694Y-63863627D01*
X105566175Y-63815988D01*
X105542476Y-63771032D01*
X105530111Y-63755401D01*
X105492821Y-63723716D01*
X105446897Y-63703766D01*
X105398183Y-63695845D01*
X105380390Y-63695317D01*
X105328578Y-63700012D01*
X105279348Y-63716241D01*
X105238895Y-63744061D01*
X105228471Y-63754668D01*
X105200264Y-63796022D01*
X105182504Y-63846202D01*
X105175452Y-63898909D01*
X105174982Y-63918066D01*
X105104640Y-63918066D01*
X105108170Y-63863720D01*
X105118758Y-63814376D01*
X105139504Y-63764108D01*
X105169469Y-63720373D01*
X105178401Y-63710460D01*
X105218778Y-63676480D01*
X105265901Y-63652208D01*
X105319772Y-63637645D01*
X105372444Y-63632867D01*
X105380390Y-63632791D01*
X105433718Y-63636519D01*
G37*
G36*
X106230844Y-64445631D02*
G01*
X106177399Y-64441914D01*
X106129050Y-64430765D01*
X106080033Y-64408920D01*
X106037673Y-64377367D01*
X106028122Y-64367962D01*
X105995531Y-64325860D01*
X105972252Y-64277226D01*
X105959521Y-64229311D01*
X105953919Y-64176393D01*
X105953628Y-64160355D01*
X105953628Y-63918066D01*
X105957228Y-63863720D01*
X105968027Y-63814376D01*
X105989185Y-63764108D01*
X106019746Y-63720373D01*
X106028855Y-63710460D01*
X106069689Y-63676480D01*
X106116966Y-63652208D01*
X106170684Y-63637645D01*
X106222972Y-63632867D01*
X106230844Y-63632791D01*
X106284312Y-63636297D01*
X106332731Y-63646816D01*
X106381885Y-63667424D01*
X106424445Y-63697191D01*
X106434054Y-63706064D01*
X106466966Y-63745845D01*
X106490474Y-63791915D01*
X106504579Y-63844275D01*
X106509207Y-63895248D01*
X106509281Y-63902923D01*
X106438939Y-63902923D01*
X106434534Y-63851251D01*
X106419307Y-63801859D01*
X106389995Y-63757279D01*
X106383251Y-63750272D01*
X106340228Y-63718984D01*
X106292601Y-63701811D01*
X106242802Y-63695532D01*
X106230844Y-63695317D01*
X106180157Y-63699934D01*
X106131270Y-63715896D01*
X106090207Y-63743259D01*
X106079413Y-63753691D01*
X106050176Y-63794602D01*
X106031767Y-63844672D01*
X106024457Y-63897565D01*
X106023970Y-63916845D01*
X106023970Y-64161577D01*
X106027435Y-64210578D01*
X106039618Y-64259062D01*
X106063441Y-64304686D01*
X106079413Y-64324242D01*
X106118130Y-64355283D01*
X106164669Y-64374827D01*
X106213244Y-64382588D01*
X106230844Y-64383105D01*
X106282102Y-64378739D01*
X106331351Y-64363645D01*
X106376159Y-64334590D01*
X106383251Y-64327906D01*
X106414956Y-64284940D01*
X106432359Y-64237466D01*
X106438721Y-64187886D01*
X106438939Y-64175987D01*
X106509281Y-64175987D01*
X106505681Y-64227637D01*
X106492751Y-64280741D01*
X106470418Y-64327525D01*
X106438682Y-64367989D01*
X106434054Y-64372602D01*
X106393143Y-64404552D01*
X106345638Y-64427374D01*
X106291538Y-64441067D01*
X106238791Y-64445560D01*
X106230844Y-64445631D01*
G37*
G36*
X107134787Y-64430000D02*
G01*
X107083429Y-64425563D01*
X107036302Y-64410435D01*
X106998988Y-64384570D01*
X106970262Y-64344511D01*
X106955578Y-64297591D01*
X106951849Y-64251946D01*
X106951849Y-63710949D01*
X106722505Y-63710949D01*
X106722505Y-63648422D01*
X106951849Y-63648422D01*
X106951849Y-63429581D01*
X107022191Y-63429581D01*
X107022191Y-63648422D01*
X107345812Y-63648422D01*
X107345812Y-63710949D01*
X107022191Y-63710949D01*
X107022191Y-64253412D01*
X107029228Y-64303314D01*
X107057817Y-64345641D01*
X107108397Y-64365691D01*
X107134787Y-64367473D01*
X107338729Y-64367473D01*
X107338729Y-64430000D01*
X107134787Y-64430000D01*
G37*
G36*
X108482519Y-64430000D02*
G01*
X108482519Y-63398318D01*
X109031332Y-63398318D01*
X109031332Y-63460844D01*
X108552861Y-63460844D01*
X108552861Y-63851632D01*
X108981995Y-63851632D01*
X108981995Y-63914159D01*
X108552861Y-63914159D01*
X108552861Y-64367473D01*
X109031332Y-64367473D01*
X109031332Y-64430000D01*
X108482519Y-64430000D01*
G37*
G36*
X109349825Y-64430000D02*
G01*
X109349825Y-63398318D01*
X109420167Y-63398318D01*
X109420167Y-64367473D01*
X109919644Y-64367473D01*
X109919644Y-64430000D01*
X109349825Y-64430000D01*
G37*
G36*
X110242533Y-63882163D02*
G01*
X110248150Y-63886315D01*
X110286447Y-63852216D01*
X110320690Y-63831849D01*
X110369216Y-63813316D01*
X110420807Y-63805400D01*
X110442323Y-63804738D01*
X110493137Y-63808673D01*
X110544404Y-63822094D01*
X110590823Y-63845038D01*
X110631498Y-63876357D01*
X110665535Y-63915238D01*
X110690718Y-63957145D01*
X110709652Y-64004267D01*
X110721573Y-64055873D01*
X110726306Y-64106152D01*
X110726622Y-64123719D01*
X110723492Y-64175286D01*
X110714103Y-64223376D01*
X110696328Y-64272730D01*
X110687055Y-64291270D01*
X110659449Y-64333530D01*
X110625784Y-64369637D01*
X110586061Y-64399590D01*
X110577390Y-64404842D01*
X110531232Y-64426352D01*
X110480685Y-64439895D01*
X110431440Y-64445273D01*
X110414235Y-64445631D01*
X110363806Y-64442385D01*
X110311942Y-64431165D01*
X110264468Y-64411931D01*
X110251081Y-64404598D01*
X110210123Y-64375780D01*
X110175175Y-64340618D01*
X110146238Y-64299111D01*
X110141172Y-64290048D01*
X110120435Y-64241753D01*
X110107379Y-64189069D01*
X110102194Y-64137901D01*
X110101948Y-64125184D01*
X110172191Y-64125184D01*
X110174959Y-64175386D01*
X110186207Y-64225544D01*
X110200279Y-64260006D01*
X110228564Y-64303280D01*
X110265394Y-64337847D01*
X110285275Y-64350865D01*
X110333423Y-64371739D01*
X110383020Y-64381562D01*
X110414235Y-64383105D01*
X110465687Y-64378571D01*
X110515999Y-64363427D01*
X110540753Y-64350865D01*
X110581333Y-64320316D01*
X110613769Y-64281061D01*
X110625994Y-64260006D01*
X110644450Y-64213455D01*
X110654387Y-64162096D01*
X110656280Y-64125184D01*
X110652701Y-64074264D01*
X110640634Y-64023980D01*
X110625994Y-63989874D01*
X110597315Y-63946916D01*
X110560494Y-63912504D01*
X110540753Y-63899504D01*
X110493479Y-63878630D01*
X110444833Y-63868807D01*
X110414235Y-63867264D01*
X110362853Y-63871798D01*
X110312770Y-63886942D01*
X110288206Y-63899504D01*
X110248259Y-63929972D01*
X110216132Y-63968985D01*
X110203942Y-63989874D01*
X110185281Y-64036036D01*
X110174725Y-64087693D01*
X110172191Y-64125184D01*
X110101948Y-64125184D01*
X110101849Y-64120055D01*
X110105318Y-64070333D01*
X110115725Y-64020816D01*
X110126517Y-63987920D01*
X110146702Y-63938564D01*
X110168161Y-63893502D01*
X110187822Y-63856762D01*
X110450872Y-63398318D01*
X110530983Y-63398318D01*
X110242533Y-63882163D01*
G37*
G36*
X110972086Y-64430000D02*
G01*
X110972086Y-64367473D01*
X111263224Y-64367473D01*
X111263224Y-63470369D01*
X110983321Y-63675045D01*
X110983321Y-63596643D01*
X111240753Y-63398318D01*
X111333565Y-63398318D01*
X111333565Y-64367473D01*
X111577076Y-64367473D01*
X111577076Y-64430000D01*
X110972086Y-64430000D01*
G37*
G36*
X111961758Y-64430000D02*
G01*
X112351570Y-63460844D01*
X111867480Y-63460844D01*
X111867480Y-63680174D01*
X111797138Y-63680174D01*
X111797138Y-63398318D01*
X112423377Y-63398318D01*
X112423377Y-63468415D01*
X112039183Y-64430000D01*
X111961758Y-64430000D01*
G37*
G36*
X112979494Y-63864470D02*
G01*
X112983182Y-63867264D01*
X113002233Y-63913426D01*
X112983182Y-63959832D01*
X112935869Y-63976619D01*
X112931891Y-63976685D01*
X112884896Y-63962844D01*
X112881088Y-63959832D01*
X112861549Y-63913426D01*
X112881088Y-63867264D01*
X112928057Y-63851693D01*
X112931891Y-63851632D01*
X112979494Y-63864470D01*
G37*
G36*
X112988547Y-63386625D02*
G01*
X113038503Y-63398441D01*
X113083222Y-63418134D01*
X113127918Y-63450286D01*
X113142916Y-63464996D01*
X113173085Y-63503693D01*
X113195844Y-63547977D01*
X113211193Y-63597847D01*
X113219132Y-63653303D01*
X113220341Y-63687501D01*
X113220341Y-64140816D01*
X113217619Y-64191437D01*
X113207563Y-64245329D01*
X113190097Y-64293659D01*
X113165222Y-64336424D01*
X113142916Y-64363565D01*
X113100785Y-64399469D01*
X113051814Y-64425115D01*
X113003355Y-64439140D01*
X112949659Y-64445310D01*
X112933356Y-64445631D01*
X112877559Y-64441704D01*
X112827068Y-64429923D01*
X112781882Y-64410288D01*
X112736739Y-64378231D01*
X112721598Y-64363565D01*
X112691144Y-64324773D01*
X112668169Y-64280418D01*
X112652675Y-64230499D01*
X112644661Y-64175018D01*
X112643440Y-64140816D01*
X112643440Y-63687501D01*
X112713782Y-63687501D01*
X112713782Y-64140816D01*
X112717476Y-64193832D01*
X112730463Y-64246505D01*
X112752801Y-64291797D01*
X112772889Y-64317892D01*
X112813957Y-64352282D01*
X112863277Y-64373934D01*
X112914722Y-64382532D01*
X112933356Y-64383105D01*
X112986263Y-64377946D01*
X113032601Y-64362471D01*
X113076383Y-64333176D01*
X113091625Y-64317892D01*
X113119843Y-64277520D01*
X113138826Y-64229767D01*
X113147947Y-64181125D01*
X113150000Y-64140816D01*
X113150000Y-63687501D01*
X113146351Y-63634485D01*
X113133525Y-63581813D01*
X113111464Y-63536520D01*
X113091625Y-63510425D01*
X113051087Y-63476036D01*
X113002439Y-63454383D01*
X112951722Y-63445785D01*
X112933356Y-63445212D01*
X112879683Y-63450371D01*
X112832695Y-63465846D01*
X112788325Y-63495141D01*
X112772889Y-63510425D01*
X112744316Y-63550798D01*
X112725095Y-63598550D01*
X112715860Y-63647193D01*
X112713782Y-63687501D01*
X112643440Y-63687501D01*
X112646188Y-63636889D01*
X112656339Y-63583028D01*
X112673970Y-63534754D01*
X112699081Y-63492067D01*
X112721598Y-63464996D01*
X112758445Y-63432924D01*
X112807053Y-63405916D01*
X112855270Y-63390724D01*
X112908793Y-63383410D01*
X112933356Y-63382686D01*
X112988547Y-63386625D01*
G37*
G36*
X113862742Y-63401999D02*
G01*
X113913944Y-63413044D01*
X113959888Y-63431451D01*
X114005954Y-63461505D01*
X114021458Y-63475254D01*
X114056614Y-63516882D01*
X114081725Y-63564830D01*
X114095458Y-63611969D01*
X114101500Y-63663946D01*
X114101814Y-63679685D01*
X114097934Y-63733045D01*
X114086293Y-63781566D01*
X114063487Y-63831094D01*
X114030545Y-63874302D01*
X114020725Y-63884117D01*
X113977006Y-63917776D01*
X113926692Y-63941819D01*
X113877257Y-63954967D01*
X113822774Y-63960753D01*
X113806280Y-63961053D01*
X113574249Y-63961053D01*
X113574249Y-64430000D01*
X113503907Y-64430000D01*
X113503907Y-63898527D01*
X113574249Y-63898527D01*
X113806280Y-63898527D01*
X113854991Y-63894833D01*
X113903624Y-63881846D01*
X113950001Y-63856448D01*
X113970167Y-63839420D01*
X114002496Y-63798319D01*
X114022851Y-63749203D01*
X114030933Y-63698147D01*
X114031472Y-63679685D01*
X114026681Y-63625834D01*
X114012307Y-63578861D01*
X113985096Y-63534735D01*
X113970900Y-63519462D01*
X113928796Y-63488550D01*
X113878202Y-63469087D01*
X113825407Y-63461359D01*
X113806280Y-63460844D01*
X113574249Y-63460844D01*
X113574249Y-63898527D01*
X113503907Y-63898527D01*
X113503907Y-63398318D01*
X113806280Y-63398318D01*
X113862742Y-63401999D01*
G37*
G36*
X114373900Y-64430000D02*
G01*
X114373900Y-63648422D01*
X114444242Y-63648422D01*
X114444242Y-63773475D01*
X114465354Y-63728034D01*
X114497837Y-63687876D01*
X114519469Y-63670160D01*
X114566405Y-63645965D01*
X114616958Y-63634579D01*
X114649651Y-63632791D01*
X114702511Y-63636274D01*
X114755252Y-63648784D01*
X114799811Y-63670391D01*
X114840160Y-63705575D01*
X114870503Y-63751269D01*
X114889138Y-63799866D01*
X114899007Y-63848549D01*
X114902869Y-63902982D01*
X114902930Y-63911228D01*
X114902930Y-63982547D01*
X114832588Y-63982547D01*
X114832588Y-63911472D01*
X114829505Y-63861952D01*
X114818664Y-63813686D01*
X114797465Y-63769303D01*
X114783251Y-63750760D01*
X114743988Y-63719194D01*
X114693699Y-63700731D01*
X114644354Y-63695371D01*
X114638415Y-63695317D01*
X114588881Y-63699934D01*
X114542046Y-63715896D01*
X114500499Y-63746622D01*
X114494068Y-63753691D01*
X114465700Y-63799370D01*
X114450130Y-63850813D01*
X114444437Y-63905188D01*
X114444242Y-63918311D01*
X114444242Y-64430000D01*
X114373900Y-64430000D01*
G37*
G36*
X115501932Y-63636507D02*
G01*
X115555849Y-63649857D01*
X115603415Y-63672915D01*
X115644631Y-63705682D01*
X115649337Y-63710460D01*
X115681928Y-63752561D01*
X115705207Y-63801196D01*
X115717938Y-63849111D01*
X115723540Y-63902029D01*
X115723831Y-63918066D01*
X115723831Y-64160355D01*
X115720266Y-64214702D01*
X115709572Y-64264046D01*
X115688621Y-64314314D01*
X115658357Y-64358049D01*
X115649337Y-64367962D01*
X115608914Y-64401942D01*
X115562142Y-64426214D01*
X115509019Y-64440777D01*
X115457327Y-64445555D01*
X115449546Y-64445631D01*
X115397696Y-64441914D01*
X115344134Y-64428565D01*
X115296648Y-64405507D01*
X115255237Y-64372740D01*
X115250488Y-64367962D01*
X115217576Y-64325860D01*
X115194068Y-64277226D01*
X115181212Y-64229311D01*
X115175555Y-64176393D01*
X115175261Y-64160355D01*
X115175261Y-63918066D01*
X115175277Y-63917822D01*
X115245603Y-63917822D01*
X115245603Y-64160600D01*
X115248946Y-64210425D01*
X115260699Y-64259472D01*
X115283683Y-64305268D01*
X115299092Y-64324731D01*
X115341003Y-64357965D01*
X115388020Y-64376207D01*
X115437595Y-64382877D01*
X115449546Y-64383105D01*
X115500649Y-64378487D01*
X115549364Y-64362526D01*
X115593144Y-64331800D01*
X115600000Y-64324731D01*
X115628207Y-64283515D01*
X115645967Y-64233140D01*
X115653019Y-64179971D01*
X115653489Y-64160600D01*
X115653489Y-63917822D01*
X115650100Y-63868012D01*
X115638186Y-63819019D01*
X115614887Y-63773328D01*
X115599267Y-63753935D01*
X115557222Y-63720562D01*
X115510434Y-63702244D01*
X115461351Y-63695546D01*
X115449546Y-63695317D01*
X115398975Y-63699954D01*
X115350489Y-63715982D01*
X115306521Y-63746837D01*
X115299581Y-63753935D01*
X115271116Y-63795022D01*
X115253194Y-63845316D01*
X115246078Y-63898453D01*
X115245603Y-63917822D01*
X115175277Y-63917822D01*
X115178861Y-63863720D01*
X115189660Y-63814376D01*
X115210818Y-63764108D01*
X115241378Y-63720373D01*
X115250488Y-63710460D01*
X115291139Y-63676480D01*
X115337866Y-63652208D01*
X115390668Y-63637645D01*
X115441854Y-63632867D01*
X115449546Y-63632791D01*
X115501932Y-63636507D01*
G37*
D10*
X142503884Y-81448609D02*
X142837217Y-81448609D01*
X142980074Y-81972419D02*
X142503884Y-81972419D01*
X142503884Y-81972419D02*
X142503884Y-80972419D01*
X142503884Y-80972419D02*
X142980074Y-80972419D01*
X143884836Y-81972419D02*
X143408646Y-81972419D01*
X143408646Y-81972419D02*
X143408646Y-80972419D01*
X144646741Y-80972419D02*
X144456265Y-80972419D01*
X144456265Y-80972419D02*
X144361027Y-81020038D01*
X144361027Y-81020038D02*
X144313408Y-81067657D01*
X144313408Y-81067657D02*
X144218170Y-81210514D01*
X144218170Y-81210514D02*
X144170551Y-81400990D01*
X144170551Y-81400990D02*
X144170551Y-81781942D01*
X144170551Y-81781942D02*
X144218170Y-81877180D01*
X144218170Y-81877180D02*
X144265789Y-81924800D01*
X144265789Y-81924800D02*
X144361027Y-81972419D01*
X144361027Y-81972419D02*
X144551503Y-81972419D01*
X144551503Y-81972419D02*
X144646741Y-81924800D01*
X144646741Y-81924800D02*
X144694360Y-81877180D01*
X144694360Y-81877180D02*
X144741979Y-81781942D01*
X144741979Y-81781942D02*
X144741979Y-81543847D01*
X144741979Y-81543847D02*
X144694360Y-81448609D01*
X144694360Y-81448609D02*
X144646741Y-81400990D01*
X144646741Y-81400990D02*
X144551503Y-81353371D01*
X144551503Y-81353371D02*
X144361027Y-81353371D01*
X144361027Y-81353371D02*
X144265789Y-81400990D01*
X144265789Y-81400990D02*
X144218170Y-81448609D01*
X144218170Y-81448609D02*
X144170551Y-81543847D01*
X145694360Y-81972419D02*
X145122932Y-81972419D01*
X145408646Y-81972419D02*
X145408646Y-80972419D01*
X145408646Y-80972419D02*
X145313408Y-81115276D01*
X145313408Y-81115276D02*
X145218170Y-81210514D01*
X145218170Y-81210514D02*
X145122932Y-81258133D01*
X146027694Y-80972419D02*
X146694360Y-80972419D01*
X146694360Y-80972419D02*
X146265789Y-81972419D01*
X147265789Y-80972419D02*
X147361027Y-80972419D01*
X147361027Y-80972419D02*
X147456265Y-81020038D01*
X147456265Y-81020038D02*
X147503884Y-81067657D01*
X147503884Y-81067657D02*
X147551503Y-81162895D01*
X147551503Y-81162895D02*
X147599122Y-81353371D01*
X147599122Y-81353371D02*
X147599122Y-81591466D01*
X147599122Y-81591466D02*
X147551503Y-81781942D01*
X147551503Y-81781942D02*
X147503884Y-81877180D01*
X147503884Y-81877180D02*
X147456265Y-81924800D01*
X147456265Y-81924800D02*
X147361027Y-81972419D01*
X147361027Y-81972419D02*
X147265789Y-81972419D01*
X147265789Y-81972419D02*
X147170551Y-81924800D01*
X147170551Y-81924800D02*
X147122932Y-81877180D01*
X147122932Y-81877180D02*
X147075313Y-81781942D01*
X147075313Y-81781942D02*
X147027694Y-81591466D01*
X147027694Y-81591466D02*
X147027694Y-81353371D01*
X147027694Y-81353371D02*
X147075313Y-81162895D01*
X147075313Y-81162895D02*
X147122932Y-81067657D01*
X147122932Y-81067657D02*
X147170551Y-81020038D01*
X147170551Y-81020038D02*
X147265789Y-80972419D01*
X148789599Y-81972419D02*
X148789599Y-80972419D01*
X148789599Y-80972419D02*
X149170551Y-80972419D01*
X149170551Y-80972419D02*
X149265789Y-81020038D01*
X149265789Y-81020038D02*
X149313408Y-81067657D01*
X149313408Y-81067657D02*
X149361027Y-81162895D01*
X149361027Y-81162895D02*
X149361027Y-81305752D01*
X149361027Y-81305752D02*
X149313408Y-81400990D01*
X149313408Y-81400990D02*
X149265789Y-81448609D01*
X149265789Y-81448609D02*
X149170551Y-81496228D01*
X149170551Y-81496228D02*
X148789599Y-81496228D01*
X149789599Y-81972419D02*
X149789599Y-81305752D01*
X149789599Y-81496228D02*
X149837218Y-81400990D01*
X149837218Y-81400990D02*
X149884837Y-81353371D01*
X149884837Y-81353371D02*
X149980075Y-81305752D01*
X149980075Y-81305752D02*
X150075313Y-81305752D01*
X150551504Y-81972419D02*
X150456266Y-81924800D01*
X150456266Y-81924800D02*
X150408647Y-81877180D01*
X150408647Y-81877180D02*
X150361028Y-81781942D01*
X150361028Y-81781942D02*
X150361028Y-81496228D01*
X150361028Y-81496228D02*
X150408647Y-81400990D01*
X150408647Y-81400990D02*
X150456266Y-81353371D01*
X150456266Y-81353371D02*
X150551504Y-81305752D01*
X150551504Y-81305752D02*
X150694361Y-81305752D01*
X150694361Y-81305752D02*
X150789599Y-81353371D01*
X150789599Y-81353371D02*
X150837218Y-81400990D01*
X150837218Y-81400990D02*
X150884837Y-81496228D01*
X150884837Y-81496228D02*
X150884837Y-81781942D01*
X150884837Y-81781942D02*
X150837218Y-81877180D01*
X150837218Y-81877180D02*
X150789599Y-81924800D01*
X150789599Y-81924800D02*
X150694361Y-81972419D01*
X150694361Y-81972419D02*
X150551504Y-81972419D01*
D11*
G36*
X101394940Y-129017473D02*
G01*
X101393475Y-129080000D01*
X100797034Y-129080000D01*
X100797034Y-128079581D01*
X101393475Y-128079581D01*
X101393475Y-128142107D01*
X100869574Y-128142107D01*
X100869574Y-128532896D01*
X101305547Y-128532896D01*
X101305547Y-128595422D01*
X100869574Y-128595422D01*
X100869574Y-129017473D01*
X101394940Y-129017473D01*
G37*
G36*
X102152581Y-129017473D02*
G01*
X102152581Y-129080000D01*
X101608897Y-129080000D01*
X101608897Y-128079581D01*
X101681437Y-128079581D01*
X101681437Y-129017473D01*
X102152581Y-129017473D01*
G37*
G36*
X102462037Y-128471591D02*
G01*
X102432556Y-128511605D01*
X102421981Y-128526301D01*
X102394633Y-128567491D01*
X102389009Y-128576859D01*
X102428285Y-128543059D01*
X102473452Y-128516459D01*
X102487438Y-128510181D01*
X102535450Y-128494525D01*
X102587009Y-128486851D01*
X102612002Y-128486001D01*
X102662343Y-128489508D01*
X102712859Y-128501128D01*
X102729972Y-128507250D01*
X102774517Y-128529162D01*
X102815812Y-128560006D01*
X102823272Y-128567090D01*
X102856152Y-128606688D01*
X102880061Y-128650232D01*
X102884333Y-128660390D01*
X102899527Y-128710786D01*
X102906017Y-128762104D01*
X102906559Y-128783000D01*
X102903159Y-128832448D01*
X102891801Y-128882683D01*
X102882379Y-128908297D01*
X102859548Y-128952194D01*
X102827839Y-128993788D01*
X102814724Y-129007215D01*
X102776737Y-129038126D01*
X102733026Y-129062991D01*
X102710921Y-129072428D01*
X102663957Y-129086567D01*
X102613559Y-129094181D01*
X102578053Y-129095631D01*
X102527529Y-129092437D01*
X102476593Y-129081767D01*
X102450802Y-129072916D01*
X102406669Y-129051196D01*
X102365182Y-129020501D01*
X102351884Y-129007704D01*
X102319533Y-128966751D01*
X102295856Y-128922361D01*
X102288381Y-128903656D01*
X102274688Y-128855262D01*
X102267315Y-128802402D01*
X102266629Y-128783977D01*
X102331367Y-128783977D01*
X102335124Y-128835909D01*
X102346394Y-128884083D01*
X102348464Y-128890223D01*
X102369347Y-128935530D01*
X102397313Y-128974242D01*
X102434978Y-129007269D01*
X102474738Y-129029197D01*
X102523281Y-129043852D01*
X102574003Y-129048717D01*
X102577564Y-129048736D01*
X102628107Y-129044996D01*
X102677280Y-129032689D01*
X102686496Y-129029197D01*
X102731437Y-129005750D01*
X102769050Y-128974975D01*
X102800901Y-128934472D01*
X102821563Y-128892665D01*
X102835301Y-128842962D01*
X102839863Y-128792594D01*
X102839881Y-128789106D01*
X102836421Y-128739585D01*
X102825037Y-128691403D01*
X102821807Y-128682372D01*
X102800252Y-128638408D01*
X102771249Y-128601772D01*
X102732959Y-128570822D01*
X102693335Y-128550725D01*
X102645952Y-128537353D01*
X102597094Y-128532913D01*
X102593684Y-128532896D01*
X102541926Y-128537150D01*
X102492073Y-128551150D01*
X102482798Y-128555122D01*
X102437735Y-128580645D01*
X102400244Y-128612763D01*
X102368981Y-128652958D01*
X102348953Y-128693119D01*
X102335231Y-128741144D01*
X102331367Y-128783977D01*
X102266629Y-128783977D01*
X102265910Y-128764682D01*
X102270788Y-128714317D01*
X102283948Y-128663318D01*
X102295464Y-128631570D01*
X102317631Y-128583422D01*
X102343905Y-128537112D01*
X102372286Y-128493580D01*
X102392428Y-128465240D01*
X102664026Y-128095945D01*
X102699930Y-128079581D01*
X102759036Y-128079581D01*
X102462037Y-128471591D01*
G37*
G36*
X103683251Y-129033105D02*
G01*
X103683251Y-129080000D01*
X103169853Y-129080000D01*
X103169853Y-129033105D01*
X103398464Y-129033105D01*
X103398464Y-128229302D01*
X103400662Y-128178988D01*
X103181088Y-128373161D01*
X103161304Y-128379511D01*
X103145917Y-128370963D01*
X103125645Y-128342875D01*
X103413119Y-128079581D01*
X103465875Y-128079581D01*
X103465875Y-129033105D01*
X103683251Y-129033105D01*
G37*
G36*
X104544452Y-128079581D02*
G01*
X104544452Y-128110111D01*
X104541521Y-128131116D01*
X104535415Y-128146259D01*
X104079413Y-129054598D01*
X104064270Y-129072916D01*
X104039357Y-129080000D01*
X103992951Y-129080000D01*
X104453105Y-128175324D01*
X104474842Y-128142107D01*
X103900872Y-128142107D01*
X103887438Y-128136489D01*
X103881821Y-128122812D01*
X103881821Y-128079581D01*
X104544452Y-128079581D01*
G37*
G36*
X105062826Y-128067615D02*
G01*
X105114643Y-128079974D01*
X105151884Y-128094968D01*
X105194726Y-128120132D01*
X105233586Y-128152973D01*
X105265457Y-128189490D01*
X105293831Y-128232471D01*
X105315941Y-128276783D01*
X105334806Y-128326426D01*
X105342149Y-128350202D01*
X105354544Y-128400913D01*
X105363398Y-128456081D01*
X105368240Y-128508010D01*
X105370370Y-128563351D01*
X105370481Y-128579790D01*
X105369125Y-128636118D01*
X105365058Y-128689057D01*
X105358279Y-128738607D01*
X105347212Y-128791085D01*
X105342149Y-128809623D01*
X105326823Y-128856014D01*
X105306515Y-128903204D01*
X105280145Y-128949429D01*
X105265457Y-128970090D01*
X105230218Y-129009910D01*
X105190996Y-129042053D01*
X105151884Y-129064612D01*
X105106179Y-129082272D01*
X105058396Y-129092602D01*
X105013154Y-129095631D01*
X104963372Y-129091966D01*
X104911565Y-129079607D01*
X104874424Y-129064612D01*
X104831831Y-129039448D01*
X104793047Y-129006607D01*
X104761095Y-128970090D01*
X104732874Y-128927133D01*
X104710900Y-128882884D01*
X104692173Y-128833341D01*
X104684891Y-128809623D01*
X104672710Y-128758805D01*
X104664009Y-128703560D01*
X104659250Y-128651590D01*
X104657156Y-128596230D01*
X104657050Y-128580034D01*
X104725924Y-128580034D01*
X104727034Y-128633491D01*
X104730365Y-128683371D01*
X104736891Y-128735998D01*
X104746317Y-128783953D01*
X104749127Y-128795212D01*
X104763572Y-128842553D01*
X104782568Y-128889216D01*
X104807044Y-128933329D01*
X104811898Y-128940537D01*
X104843176Y-128978559D01*
X104881092Y-129010059D01*
X104903244Y-129022847D01*
X104949887Y-129040545D01*
X104998774Y-129048332D01*
X105013154Y-129048736D01*
X105062561Y-129043781D01*
X105109912Y-129028915D01*
X105123063Y-129022847D01*
X105166393Y-128994349D01*
X105201940Y-128957423D01*
X105214410Y-128940537D01*
X105239401Y-128897799D01*
X105258864Y-128852385D01*
X105275226Y-128800722D01*
X105276692Y-128795212D01*
X105288026Y-128742248D01*
X105294987Y-128690205D01*
X105298674Y-128640836D01*
X105300116Y-128587890D01*
X105300139Y-128580034D01*
X105299017Y-128526947D01*
X105295651Y-128477319D01*
X105289057Y-128424837D01*
X105279531Y-128376874D01*
X105276692Y-128365589D01*
X105262384Y-128318032D01*
X105243541Y-128271263D01*
X105219233Y-128227201D01*
X105214410Y-128220020D01*
X105183360Y-128181816D01*
X105145383Y-128150117D01*
X105123063Y-128137222D01*
X105076300Y-128119190D01*
X105027480Y-128111256D01*
X105013154Y-128110844D01*
X104963626Y-128115893D01*
X104916342Y-128131040D01*
X104903244Y-128137222D01*
X104860155Y-128165933D01*
X104824496Y-128203058D01*
X104811898Y-128220020D01*
X104786739Y-128262677D01*
X104767123Y-128308167D01*
X104750608Y-128360049D01*
X104749127Y-128365589D01*
X104737911Y-128418595D01*
X104731022Y-128470512D01*
X104727374Y-128519645D01*
X104725947Y-128572239D01*
X104725924Y-128580034D01*
X104657050Y-128580034D01*
X104657048Y-128579790D01*
X104658380Y-128523474D01*
X104662377Y-128470570D01*
X104669039Y-128421079D01*
X104679915Y-128368696D01*
X104684891Y-128350202D01*
X104700095Y-128303704D01*
X104720266Y-128256430D01*
X104746483Y-128210158D01*
X104761095Y-128189490D01*
X104796415Y-128149670D01*
X104835545Y-128117527D01*
X104874424Y-128094968D01*
X104920018Y-128077308D01*
X104967807Y-128066978D01*
X105013154Y-128063949D01*
X105062826Y-128067615D01*
G37*
G36*
X106254749Y-128081453D02*
G01*
X106312337Y-128088643D01*
X106363862Y-128101225D01*
X106409326Y-128119200D01*
X106454705Y-128146986D01*
X106466154Y-128156273D01*
X106500891Y-128192863D01*
X106527096Y-128235741D01*
X106544769Y-128284906D01*
X106553910Y-128340360D01*
X106555303Y-128374870D01*
X106551232Y-128426163D01*
X106539018Y-128474069D01*
X106530635Y-128495038D01*
X106505029Y-128540058D01*
X106471383Y-128579374D01*
X106460293Y-128589560D01*
X106419918Y-128619004D01*
X106373013Y-128642645D01*
X106349162Y-128651598D01*
X106297802Y-128664993D01*
X106246740Y-128671841D01*
X106202128Y-128673579D01*
X106017236Y-128673579D01*
X106017236Y-129080000D01*
X105944696Y-129080000D01*
X105944696Y-128626685D01*
X106017236Y-128626685D01*
X106202128Y-128626685D01*
X106253095Y-128623541D01*
X106303023Y-128613122D01*
X106319609Y-128607634D01*
X106364893Y-128586554D01*
X106405506Y-128556970D01*
X106407780Y-128554877D01*
X106441622Y-128515619D01*
X106463468Y-128475254D01*
X106477939Y-128427260D01*
X106482744Y-128378495D01*
X106482763Y-128375115D01*
X106479397Y-128325492D01*
X106467307Y-128275220D01*
X106443196Y-128226875D01*
X106412421Y-128191200D01*
X106367347Y-128159912D01*
X106318037Y-128140697D01*
X106267753Y-128130521D01*
X106210807Y-128126539D01*
X106202128Y-128126475D01*
X106017236Y-128126475D01*
X106017236Y-128626685D01*
X105944696Y-128626685D01*
X105944696Y-128079581D01*
X106202128Y-128079581D01*
X106254749Y-128081453D01*
G37*
G36*
X106770237Y-128543398D02*
G01*
X106790038Y-128497777D01*
X106807362Y-128466461D01*
X106837240Y-128426641D01*
X106854989Y-128409309D01*
X106897242Y-128381281D01*
X106915561Y-128373405D01*
X106965034Y-128362165D01*
X106989811Y-128360949D01*
X107032554Y-128365589D01*
X107069923Y-128381953D01*
X107064305Y-128423719D01*
X107051116Y-128433977D01*
X107025226Y-128428848D01*
X106980041Y-128423475D01*
X106930503Y-128428944D01*
X106907745Y-128436175D01*
X106864423Y-128462141D01*
X106851570Y-128474033D01*
X106820201Y-128514396D01*
X106807850Y-128536559D01*
X106787972Y-128581880D01*
X106773900Y-128622044D01*
X106773900Y-129080000D01*
X106706245Y-129080000D01*
X106706245Y-128376580D01*
X106742149Y-128376580D01*
X106759002Y-128380976D01*
X106765352Y-128396120D01*
X106770237Y-128543398D01*
G37*
G36*
X107488572Y-128364037D02*
G01*
X107538667Y-128374449D01*
X107573307Y-128387083D01*
X107618625Y-128411944D01*
X107657734Y-128444062D01*
X107673691Y-128461332D01*
X107703647Y-128503692D01*
X107725646Y-128548588D01*
X107735973Y-128577348D01*
X107748210Y-128625794D01*
X107755367Y-128678108D01*
X107757466Y-128729023D01*
X107755367Y-128779913D01*
X107748210Y-128832145D01*
X107735973Y-128880453D01*
X107717140Y-128928298D01*
X107692879Y-128970716D01*
X107673691Y-128995980D01*
X107637447Y-129031248D01*
X107594994Y-129059260D01*
X107573307Y-129069741D01*
X107526561Y-129085518D01*
X107475351Y-129094013D01*
X107438729Y-129095631D01*
X107388858Y-129092572D01*
X107338666Y-129082256D01*
X107303907Y-129069741D01*
X107258668Y-129045078D01*
X107219394Y-129013159D01*
X107203279Y-128995980D01*
X107173165Y-128953701D01*
X107151092Y-128909022D01*
X107140753Y-128880453D01*
X107128655Y-128832145D01*
X107121579Y-128779913D01*
X107119504Y-128729023D01*
X107188381Y-128729023D01*
X107190579Y-128781985D01*
X107197173Y-128830963D01*
X107204012Y-128861402D01*
X107220849Y-128909801D01*
X107245424Y-128954291D01*
X107251151Y-128962274D01*
X107286444Y-128999216D01*
X107329309Y-129026510D01*
X107376707Y-129042464D01*
X107427143Y-129048541D01*
X107438729Y-129048736D01*
X107490401Y-129044482D01*
X107539020Y-129030482D01*
X107547906Y-129026510D01*
X107590893Y-128999216D01*
X107626064Y-128962274D01*
X107652060Y-128919309D01*
X107669932Y-128872332D01*
X107672958Y-128861402D01*
X107682921Y-128811040D01*
X107687609Y-128760402D01*
X107688346Y-128729023D01*
X107686182Y-128676472D01*
X107679690Y-128627631D01*
X107672958Y-128597131D01*
X107656409Y-128548352D01*
X107631830Y-128503558D01*
X107626064Y-128495526D01*
X107590893Y-128458157D01*
X107547906Y-128430558D01*
X107500683Y-128414254D01*
X107450314Y-128408043D01*
X107438729Y-128407843D01*
X107387011Y-128412191D01*
X107338239Y-128426498D01*
X107329309Y-128430558D01*
X107286444Y-128458157D01*
X107251151Y-128495526D01*
X107225223Y-128538775D01*
X107207124Y-128586112D01*
X107204012Y-128597131D01*
X107193891Y-128647531D01*
X107189129Y-128697917D01*
X107188381Y-128729023D01*
X107119504Y-128729023D01*
X107121579Y-128678108D01*
X107128655Y-128625794D01*
X107140753Y-128577348D01*
X107159621Y-128529205D01*
X107183984Y-128486627D01*
X107203279Y-128461332D01*
X107239800Y-128425866D01*
X107282286Y-128397656D01*
X107303907Y-128387083D01*
X107350802Y-128371157D01*
X107402093Y-128362582D01*
X107438729Y-128360949D01*
X107488572Y-128364037D01*
G37*
D12*
X132516791Y-64031757D02*
X132469172Y-64007948D01*
X132469172Y-64007948D02*
X132445362Y-63960328D01*
X132445362Y-63960328D02*
X132445362Y-63531757D01*
X132707267Y-64031757D02*
X132707267Y-63698424D01*
X132707267Y-63531757D02*
X132683458Y-63555567D01*
X132683458Y-63555567D02*
X132707267Y-63579376D01*
X132707267Y-63579376D02*
X132731077Y-63555567D01*
X132731077Y-63555567D02*
X132707267Y-63531757D01*
X132707267Y-63531757D02*
X132707267Y-63579376D01*
X132945362Y-64031757D02*
X132945362Y-63531757D01*
X132945362Y-63722233D02*
X132992981Y-63698424D01*
X132992981Y-63698424D02*
X133088219Y-63698424D01*
X133088219Y-63698424D02*
X133135838Y-63722233D01*
X133135838Y-63722233D02*
X133159648Y-63746043D01*
X133159648Y-63746043D02*
X133183457Y-63793662D01*
X133183457Y-63793662D02*
X133183457Y-63936519D01*
X133183457Y-63936519D02*
X133159648Y-63984138D01*
X133159648Y-63984138D02*
X133135838Y-64007948D01*
X133135838Y-64007948D02*
X133088219Y-64031757D01*
X133088219Y-64031757D02*
X132992981Y-64031757D01*
X132992981Y-64031757D02*
X132945362Y-64007948D01*
X133612029Y-64007948D02*
X133564410Y-64031757D01*
X133564410Y-64031757D02*
X133469172Y-64031757D01*
X133469172Y-64031757D02*
X133421553Y-64007948D01*
X133421553Y-64007948D02*
X133397743Y-63984138D01*
X133397743Y-63984138D02*
X133373934Y-63936519D01*
X133373934Y-63936519D02*
X133373934Y-63793662D01*
X133373934Y-63793662D02*
X133397743Y-63746043D01*
X133397743Y-63746043D02*
X133421553Y-63722233D01*
X133421553Y-63722233D02*
X133469172Y-63698424D01*
X133469172Y-63698424D02*
X133564410Y-63698424D01*
X133564410Y-63698424D02*
X133612029Y-63722233D01*
X133826314Y-64031757D02*
X133826314Y-63531757D01*
X134040600Y-64031757D02*
X134040600Y-63769852D01*
X134040600Y-63769852D02*
X134016790Y-63722233D01*
X134016790Y-63722233D02*
X133969171Y-63698424D01*
X133969171Y-63698424D02*
X133897743Y-63698424D01*
X133897743Y-63698424D02*
X133850124Y-63722233D01*
X133850124Y-63722233D02*
X133826314Y-63746043D01*
X134492981Y-64031757D02*
X134492981Y-63769852D01*
X134492981Y-63769852D02*
X134469171Y-63722233D01*
X134469171Y-63722233D02*
X134421552Y-63698424D01*
X134421552Y-63698424D02*
X134326314Y-63698424D01*
X134326314Y-63698424D02*
X134278695Y-63722233D01*
X134492981Y-64007948D02*
X134445362Y-64031757D01*
X134445362Y-64031757D02*
X134326314Y-64031757D01*
X134326314Y-64031757D02*
X134278695Y-64007948D01*
X134278695Y-64007948D02*
X134254886Y-63960328D01*
X134254886Y-63960328D02*
X134254886Y-63912709D01*
X134254886Y-63912709D02*
X134278695Y-63865090D01*
X134278695Y-63865090D02*
X134326314Y-63841281D01*
X134326314Y-63841281D02*
X134445362Y-63841281D01*
X134445362Y-63841281D02*
X134492981Y-63817471D01*
X134731076Y-64031757D02*
X134731076Y-63698424D01*
X134731076Y-63793662D02*
X134754886Y-63746043D01*
X134754886Y-63746043D02*
X134778695Y-63722233D01*
X134778695Y-63722233D02*
X134826314Y-63698424D01*
X134826314Y-63698424D02*
X134873933Y-63698424D01*
X135254886Y-64031757D02*
X135254886Y-63769852D01*
X135254886Y-63769852D02*
X135231076Y-63722233D01*
X135231076Y-63722233D02*
X135183457Y-63698424D01*
X135183457Y-63698424D02*
X135088219Y-63698424D01*
X135088219Y-63698424D02*
X135040600Y-63722233D01*
X135254886Y-64007948D02*
X135207267Y-64031757D01*
X135207267Y-64031757D02*
X135088219Y-64031757D01*
X135088219Y-64031757D02*
X135040600Y-64007948D01*
X135040600Y-64007948D02*
X135016791Y-63960328D01*
X135016791Y-63960328D02*
X135016791Y-63912709D01*
X135016791Y-63912709D02*
X135040600Y-63865090D01*
X135040600Y-63865090D02*
X135088219Y-63841281D01*
X135088219Y-63841281D02*
X135207267Y-63841281D01*
X135207267Y-63841281D02*
X135254886Y-63817471D01*
X135492981Y-63841281D02*
X135873934Y-63841281D01*
X136326315Y-64031757D02*
X136326315Y-63531757D01*
X136326315Y-64007948D02*
X136278696Y-64031757D01*
X136278696Y-64031757D02*
X136183458Y-64031757D01*
X136183458Y-64031757D02*
X136135839Y-64007948D01*
X136135839Y-64007948D02*
X136112029Y-63984138D01*
X136112029Y-63984138D02*
X136088220Y-63936519D01*
X136088220Y-63936519D02*
X136088220Y-63793662D01*
X136088220Y-63793662D02*
X136112029Y-63746043D01*
X136112029Y-63746043D02*
X136135839Y-63722233D01*
X136135839Y-63722233D02*
X136183458Y-63698424D01*
X136183458Y-63698424D02*
X136278696Y-63698424D01*
X136278696Y-63698424D02*
X136326315Y-63722233D01*
X136754886Y-64007948D02*
X136707267Y-64031757D01*
X136707267Y-64031757D02*
X136612029Y-64031757D01*
X136612029Y-64031757D02*
X136564410Y-64007948D01*
X136564410Y-64007948D02*
X136540601Y-63960328D01*
X136540601Y-63960328D02*
X136540601Y-63769852D01*
X136540601Y-63769852D02*
X136564410Y-63722233D01*
X136564410Y-63722233D02*
X136612029Y-63698424D01*
X136612029Y-63698424D02*
X136707267Y-63698424D01*
X136707267Y-63698424D02*
X136754886Y-63722233D01*
X136754886Y-63722233D02*
X136778696Y-63769852D01*
X136778696Y-63769852D02*
X136778696Y-63817471D01*
X136778696Y-63817471D02*
X136540601Y-63865090D01*
X136945362Y-63698424D02*
X137064410Y-64031757D01*
X137064410Y-64031757D02*
X137183457Y-63698424D01*
X132421553Y-64384348D02*
X132445362Y-64360539D01*
X132445362Y-64360539D02*
X132492981Y-64336729D01*
X132492981Y-64336729D02*
X132612029Y-64336729D01*
X132612029Y-64336729D02*
X132659648Y-64360539D01*
X132659648Y-64360539D02*
X132683457Y-64384348D01*
X132683457Y-64384348D02*
X132707267Y-64431967D01*
X132707267Y-64431967D02*
X132707267Y-64479586D01*
X132707267Y-64479586D02*
X132683457Y-64551015D01*
X132683457Y-64551015D02*
X132397743Y-64836729D01*
X132397743Y-64836729D02*
X132707267Y-64836729D01*
X133016790Y-64336729D02*
X133064409Y-64336729D01*
X133064409Y-64336729D02*
X133112028Y-64360539D01*
X133112028Y-64360539D02*
X133135838Y-64384348D01*
X133135838Y-64384348D02*
X133159647Y-64431967D01*
X133159647Y-64431967D02*
X133183457Y-64527205D01*
X133183457Y-64527205D02*
X133183457Y-64646253D01*
X133183457Y-64646253D02*
X133159647Y-64741491D01*
X133159647Y-64741491D02*
X133135838Y-64789110D01*
X133135838Y-64789110D02*
X133112028Y-64812920D01*
X133112028Y-64812920D02*
X133064409Y-64836729D01*
X133064409Y-64836729D02*
X133016790Y-64836729D01*
X133016790Y-64836729D02*
X132969171Y-64812920D01*
X132969171Y-64812920D02*
X132945362Y-64789110D01*
X132945362Y-64789110D02*
X132921552Y-64741491D01*
X132921552Y-64741491D02*
X132897743Y-64646253D01*
X132897743Y-64646253D02*
X132897743Y-64527205D01*
X132897743Y-64527205D02*
X132921552Y-64431967D01*
X132921552Y-64431967D02*
X132945362Y-64384348D01*
X132945362Y-64384348D02*
X132969171Y-64360539D01*
X132969171Y-64360539D02*
X133016790Y-64336729D01*
X133373933Y-64384348D02*
X133397742Y-64360539D01*
X133397742Y-64360539D02*
X133445361Y-64336729D01*
X133445361Y-64336729D02*
X133564409Y-64336729D01*
X133564409Y-64336729D02*
X133612028Y-64360539D01*
X133612028Y-64360539D02*
X133635837Y-64384348D01*
X133635837Y-64384348D02*
X133659647Y-64431967D01*
X133659647Y-64431967D02*
X133659647Y-64479586D01*
X133659647Y-64479586D02*
X133635837Y-64551015D01*
X133635837Y-64551015D02*
X133350123Y-64836729D01*
X133350123Y-64836729D02*
X133659647Y-64836729D01*
X134088218Y-64503396D02*
X134088218Y-64836729D01*
X133969170Y-64312920D02*
X133850123Y-64670062D01*
X133850123Y-64670062D02*
X134159646Y-64670062D01*
X134707265Y-64312920D02*
X134278694Y-64955777D01*
X135135837Y-64836729D02*
X134850123Y-64836729D01*
X134992980Y-64836729D02*
X134992980Y-64336729D01*
X134992980Y-64336729D02*
X134945361Y-64408158D01*
X134945361Y-64408158D02*
X134897742Y-64455777D01*
X134897742Y-64455777D02*
X134850123Y-64479586D01*
X135445360Y-64336729D02*
X135492979Y-64336729D01*
X135492979Y-64336729D02*
X135540598Y-64360539D01*
X135540598Y-64360539D02*
X135564408Y-64384348D01*
X135564408Y-64384348D02*
X135588217Y-64431967D01*
X135588217Y-64431967D02*
X135612027Y-64527205D01*
X135612027Y-64527205D02*
X135612027Y-64646253D01*
X135612027Y-64646253D02*
X135588217Y-64741491D01*
X135588217Y-64741491D02*
X135564408Y-64789110D01*
X135564408Y-64789110D02*
X135540598Y-64812920D01*
X135540598Y-64812920D02*
X135492979Y-64836729D01*
X135492979Y-64836729D02*
X135445360Y-64836729D01*
X135445360Y-64836729D02*
X135397741Y-64812920D01*
X135397741Y-64812920D02*
X135373932Y-64789110D01*
X135373932Y-64789110D02*
X135350122Y-64741491D01*
X135350122Y-64741491D02*
X135326313Y-64646253D01*
X135326313Y-64646253D02*
X135326313Y-64527205D01*
X135326313Y-64527205D02*
X135350122Y-64431967D01*
X135350122Y-64431967D02*
X135373932Y-64384348D01*
X135373932Y-64384348D02*
X135397741Y-64360539D01*
X135397741Y-64360539D02*
X135445360Y-64336729D01*
X136183455Y-64312920D02*
X135754884Y-64955777D01*
X136612027Y-64836729D02*
X136326313Y-64836729D01*
X136469170Y-64836729D02*
X136469170Y-64336729D01*
X136469170Y-64336729D02*
X136421551Y-64408158D01*
X136421551Y-64408158D02*
X136373932Y-64455777D01*
X136373932Y-64455777D02*
X136326313Y-64479586D01*
X137064407Y-64336729D02*
X136826312Y-64336729D01*
X136826312Y-64336729D02*
X136802503Y-64574824D01*
X136802503Y-64574824D02*
X136826312Y-64551015D01*
X136826312Y-64551015D02*
X136873931Y-64527205D01*
X136873931Y-64527205D02*
X136992979Y-64527205D01*
X136992979Y-64527205D02*
X137040598Y-64551015D01*
X137040598Y-64551015D02*
X137064407Y-64574824D01*
X137064407Y-64574824D02*
X137088217Y-64622443D01*
X137088217Y-64622443D02*
X137088217Y-64741491D01*
X137088217Y-64741491D02*
X137064407Y-64789110D01*
X137064407Y-64789110D02*
X137040598Y-64812920D01*
X137040598Y-64812920D02*
X136992979Y-64836729D01*
X136992979Y-64836729D02*
X136873931Y-64836729D01*
X136873931Y-64836729D02*
X136826312Y-64812920D01*
X136826312Y-64812920D02*
X136802503Y-64789110D01*
X137612026Y-64336729D02*
X137778692Y-64836729D01*
X137778692Y-64836729D02*
X137945359Y-64336729D01*
X138064406Y-64336729D02*
X138373930Y-64336729D01*
X138373930Y-64336729D02*
X138207263Y-64527205D01*
X138207263Y-64527205D02*
X138278692Y-64527205D01*
X138278692Y-64527205D02*
X138326311Y-64551015D01*
X138326311Y-64551015D02*
X138350120Y-64574824D01*
X138350120Y-64574824D02*
X138373930Y-64622443D01*
X138373930Y-64622443D02*
X138373930Y-64741491D01*
X138373930Y-64741491D02*
X138350120Y-64789110D01*
X138350120Y-64789110D02*
X138326311Y-64812920D01*
X138326311Y-64812920D02*
X138278692Y-64836729D01*
X138278692Y-64836729D02*
X138135835Y-64836729D01*
X138135835Y-64836729D02*
X138088216Y-64812920D01*
X138088216Y-64812920D02*
X138064406Y-64789110D01*
D13*
%TO.C,mC_LOGO*%
G36*
X100697983Y-125992553D02*
G01*
X101107512Y-125994130D01*
X101109089Y-126403659D01*
X101110667Y-126813188D01*
X100699560Y-126813188D01*
X100288454Y-126813188D01*
X100288454Y-126402082D01*
X100288454Y-125990976D01*
X100697983Y-125992553D01*
G37*
G36*
X101109089Y-127308611D02*
G01*
X101107512Y-127718140D01*
X100697983Y-127719717D01*
X100288454Y-127721295D01*
X100288454Y-127310188D01*
X100288454Y-126899082D01*
X100699560Y-126899082D01*
X101110667Y-126899082D01*
X101109089Y-127308611D01*
G37*
G36*
X102006328Y-127307077D02*
G01*
X102006328Y-127715072D01*
X101601401Y-127715072D01*
X101196473Y-127715072D01*
X101196473Y-127307077D01*
X101196473Y-126899082D01*
X101601401Y-126899082D01*
X102006328Y-126899082D01*
X102006328Y-127307077D01*
G37*
G36*
X102012464Y-126405193D02*
G01*
X102012464Y-126813188D01*
X101604469Y-126813188D01*
X101196473Y-126813188D01*
X101196473Y-126405193D01*
X101196473Y-125997198D01*
X101604469Y-125997198D01*
X102012464Y-125997198D01*
X102012464Y-126405193D01*
G37*
G36*
X103988019Y-127000314D02*
G01*
X103988019Y-127371497D01*
X103902126Y-127371497D01*
X103816232Y-127371497D01*
X103816232Y-127000314D01*
X103816232Y-126629130D01*
X103902126Y-126629130D01*
X103988019Y-126629130D01*
X103988019Y-127000314D01*
G37*
G36*
X103950793Y-126327088D02*
G01*
X103976393Y-126343514D01*
X103995969Y-126366279D01*
X104007784Y-126394076D01*
X104010102Y-126425596D01*
X104006918Y-126443240D01*
X103993482Y-126471101D01*
X103971227Y-126493682D01*
X103942964Y-126509623D01*
X103911503Y-126517562D01*
X103879653Y-126516138D01*
X103865314Y-126511834D01*
X103844267Y-126498975D01*
X103823747Y-126479210D01*
X103808102Y-126457123D01*
X103803469Y-126446648D01*
X103799298Y-126415662D01*
X103805678Y-126384679D01*
X103821273Y-126356743D01*
X103844746Y-126334895D01*
X103855212Y-126328938D01*
X103888465Y-126318492D01*
X103920905Y-126318312D01*
X103950793Y-126327088D01*
G37*
G36*
X105202064Y-126620808D02*
G01*
X105223274Y-126622576D01*
X105235012Y-126624646D01*
X105251884Y-126629364D01*
X105251884Y-126717439D01*
X105251884Y-126805513D01*
X105226019Y-126792716D01*
X105195109Y-126782729D01*
X105159164Y-126779221D01*
X105123098Y-126782160D01*
X105091827Y-126791518D01*
X105087683Y-126793563D01*
X105058485Y-126815651D01*
X105032865Y-126848847D01*
X105011559Y-126892058D01*
X105007958Y-126901623D01*
X105005027Y-126911211D01*
X105002682Y-126922193D01*
X105000836Y-126935940D01*
X104999404Y-126953822D01*
X104998300Y-126977210D01*
X104997438Y-127007473D01*
X104996734Y-127045983D01*
X104996100Y-127094110D01*
X104995496Y-127149094D01*
X104993152Y-127371497D01*
X104907784Y-127371497D01*
X104822415Y-127371497D01*
X104822415Y-127000314D01*
X104822415Y-126629130D01*
X104908309Y-126629130D01*
X104994203Y-126629130D01*
X104994314Y-126695084D01*
X104994425Y-126761038D01*
X105013003Y-126727294D01*
X105042218Y-126684077D01*
X105076199Y-126652104D01*
X105115202Y-126631210D01*
X105159488Y-126621227D01*
X105178261Y-126620254D01*
X105202064Y-126620808D01*
G37*
G36*
X102658011Y-126342185D02*
G01*
X102788197Y-126343840D01*
X102831769Y-126454275D01*
X102875454Y-126564971D01*
X102914745Y-126664470D01*
X102949730Y-126753001D01*
X102980499Y-126830788D01*
X103007143Y-126898057D01*
X103029750Y-126955035D01*
X103048410Y-127001948D01*
X103063213Y-127039021D01*
X103074250Y-127066481D01*
X103081609Y-127084554D01*
X103085380Y-127093466D01*
X103085810Y-127094360D01*
X103088905Y-127090375D01*
X103096263Y-127075637D01*
X103107606Y-127050794D01*
X103122658Y-127016491D01*
X103141140Y-126973377D01*
X103162775Y-126922098D01*
X103187288Y-126863302D01*
X103214399Y-126797634D01*
X103243832Y-126725743D01*
X103245505Y-126721642D01*
X103400778Y-126340773D01*
X103525679Y-126340773D01*
X103650580Y-126340773D01*
X103650580Y-126856135D01*
X103650580Y-127371497D01*
X103561618Y-127371497D01*
X103472657Y-127371497D01*
X103472657Y-126975773D01*
X103472588Y-126907334D01*
X103472387Y-126842646D01*
X103472068Y-126782731D01*
X103471642Y-126728611D01*
X103471121Y-126681309D01*
X103470517Y-126641847D01*
X103469841Y-126611250D01*
X103469106Y-126590538D01*
X103468323Y-126580735D01*
X103468056Y-126580069D01*
X103465089Y-126585629D01*
X103458009Y-126601692D01*
X103447190Y-126627338D01*
X103433005Y-126661649D01*
X103415828Y-126703706D01*
X103396035Y-126752590D01*
X103373997Y-126807384D01*
X103350090Y-126867168D01*
X103324687Y-126931023D01*
X103307005Y-126975658D01*
X103150556Y-127371227D01*
X103086135Y-127371329D01*
X103021715Y-127371431D01*
X102862198Y-126975121D01*
X102702681Y-126578812D01*
X102701103Y-126975155D01*
X102699524Y-127371497D01*
X102613675Y-127371497D01*
X102527826Y-127371497D01*
X102527826Y-126856013D01*
X102527826Y-126340529D01*
X102658011Y-126342185D01*
G37*
G36*
X104542848Y-126616748D02*
G01*
X104573929Y-126618916D01*
X104602192Y-126623493D01*
X104632340Y-126631176D01*
X104658297Y-126639165D01*
X104687440Y-126648522D01*
X104687440Y-126734341D01*
X104687440Y-126820159D01*
X104668994Y-126807025D01*
X104653424Y-126797632D01*
X104631607Y-126786497D01*
X104612243Y-126777755D01*
X104590631Y-126769571D01*
X104570535Y-126764630D01*
X104547416Y-126762161D01*
X104516735Y-126761396D01*
X104515652Y-126761392D01*
X104485947Y-126761756D01*
X104464343Y-126763596D01*
X104446697Y-126767619D01*
X104428864Y-126774537D01*
X104422887Y-126777269D01*
X104378400Y-126804342D01*
X104342924Y-126839668D01*
X104316658Y-126882957D01*
X104299804Y-126933920D01*
X104295054Y-126961504D01*
X104292184Y-127021425D01*
X104298987Y-127075949D01*
X104314949Y-127124273D01*
X104339554Y-127165593D01*
X104372285Y-127199107D01*
X104412627Y-127224011D01*
X104460064Y-127239503D01*
X104475342Y-127242158D01*
X104521993Y-127243514D01*
X104571569Y-127235865D01*
X104619944Y-127220248D01*
X104662993Y-127197701D01*
X104669304Y-127193383D01*
X104687440Y-127180469D01*
X104687440Y-127260984D01*
X104687440Y-127341500D01*
X104654216Y-127356710D01*
X104599756Y-127375657D01*
X104537545Y-127386495D01*
X104478841Y-127389085D01*
X104451988Y-127388558D01*
X104428753Y-127387651D01*
X104412601Y-127386521D01*
X104408285Y-127385924D01*
X104350131Y-127370703D01*
X104300743Y-127350514D01*
X104257125Y-127323877D01*
X104220021Y-127292881D01*
X104177731Y-127244829D01*
X104145852Y-127190302D01*
X104124401Y-127129348D01*
X104113395Y-127062014D01*
X104112493Y-126994813D01*
X104118774Y-126929365D01*
X104131174Y-126872784D01*
X104150601Y-126822822D01*
X104177965Y-126777236D01*
X104214174Y-126733781D01*
X104221126Y-126726595D01*
X104267200Y-126685910D01*
X104316073Y-126655220D01*
X104369480Y-126633848D01*
X104429159Y-126621118D01*
X104496846Y-126616353D01*
X104504243Y-126616288D01*
X104542848Y-126616748D01*
G37*
G36*
X105721002Y-126619035D02*
G01*
X105762540Y-126625464D01*
X105763800Y-126625753D01*
X105823157Y-126645577D01*
X105876557Y-126675692D01*
X105923151Y-126715230D01*
X105962093Y-126763326D01*
X105992532Y-126819111D01*
X106013364Y-126880676D01*
X106017986Y-126908602D01*
X106020726Y-126945013D01*
X106021634Y-126986276D01*
X106020757Y-127028757D01*
X106018144Y-127068825D01*
X106013843Y-127102845D01*
X106010177Y-127119952D01*
X105990050Y-127175563D01*
X105961477Y-127227982D01*
X105926196Y-127274779D01*
X105885944Y-127313524D01*
X105857366Y-127333585D01*
X105815822Y-127355730D01*
X105774444Y-127371286D01*
X105729739Y-127381174D01*
X105678214Y-127386315D01*
X105653744Y-127387279D01*
X105621194Y-127387655D01*
X105590820Y-127387189D01*
X105565934Y-127385984D01*
X105549847Y-127384142D01*
X105549382Y-127384046D01*
X105484185Y-127364461D01*
X105426260Y-127335462D01*
X105376211Y-127297577D01*
X105334644Y-127251332D01*
X105302164Y-127197254D01*
X105284722Y-127153695D01*
X105274159Y-127110900D01*
X105267293Y-127060859D01*
X105265421Y-127026618D01*
X105444989Y-127026618D01*
X105447903Y-127052880D01*
X105460478Y-127109028D01*
X105480401Y-127155387D01*
X105507760Y-127192062D01*
X105542644Y-127219158D01*
X105585142Y-127236778D01*
X105608433Y-127241928D01*
X105627843Y-127244780D01*
X105644111Y-127245710D01*
X105661737Y-127244592D01*
X105685225Y-127241301D01*
X105696405Y-127239490D01*
X105737238Y-127226766D01*
X105772847Y-127203568D01*
X105801493Y-127171187D01*
X105811746Y-127153776D01*
X105826170Y-127119359D01*
X105835370Y-127081449D01*
X105839945Y-127036935D01*
X105840724Y-127003381D01*
X105837484Y-126943296D01*
X105827461Y-126892698D01*
X105810205Y-126850565D01*
X105785262Y-126815871D01*
X105752179Y-126787593D01*
X105742705Y-126781480D01*
X105711337Y-126768198D01*
X105673198Y-126761054D01*
X105632216Y-126760179D01*
X105592321Y-126765704D01*
X105562366Y-126775457D01*
X105525323Y-126798345D01*
X105494490Y-126830719D01*
X105470454Y-126871154D01*
X105453800Y-126918231D01*
X105445117Y-126970526D01*
X105444989Y-127026618D01*
X105265421Y-127026618D01*
X105264409Y-127008114D01*
X105265793Y-126957206D01*
X105270118Y-126921119D01*
X105287380Y-126853306D01*
X105314012Y-126793066D01*
X105349642Y-126740815D01*
X105393894Y-126696973D01*
X105446394Y-126661956D01*
X105506768Y-126636183D01*
X105532180Y-126628774D01*
X105573505Y-126621142D01*
X105621844Y-126616934D01*
X105672556Y-126616211D01*
X105721002Y-126619035D01*
G37*
G36*
X107118644Y-126617826D02*
G01*
X107157192Y-126621868D01*
X107179224Y-126626205D01*
X107241040Y-126647709D01*
X107294731Y-126678388D01*
X107340396Y-126718308D01*
X107371186Y-126756901D01*
X107400346Y-126808269D01*
X107420509Y-126864038D01*
X107432033Y-126925714D01*
X107435277Y-126994804D01*
X107434441Y-127022752D01*
X107428843Y-127082462D01*
X107417662Y-127134320D01*
X107399931Y-127181842D01*
X107380592Y-127218745D01*
X107345833Y-127266380D01*
X107301758Y-127308214D01*
X107250557Y-127342705D01*
X107194423Y-127368306D01*
X107150749Y-127380673D01*
X107108962Y-127386590D01*
X107060648Y-127388907D01*
X107011003Y-127387648D01*
X106965225Y-127382837D01*
X106948285Y-127379739D01*
X106887039Y-127360665D01*
X106831862Y-127331252D01*
X106783522Y-127292227D01*
X106742784Y-127244314D01*
X106710417Y-127188242D01*
X106690234Y-127135290D01*
X106684940Y-127109842D01*
X106681167Y-127075620D01*
X106678966Y-127036030D01*
X106678789Y-127023390D01*
X106859776Y-127023390D01*
X106859964Y-127048409D01*
X106861713Y-127068237D01*
X106865347Y-127086398D01*
X106871189Y-127106416D01*
X106871716Y-127108061D01*
X106892175Y-127154282D01*
X106920439Y-127191381D01*
X106955700Y-127218977D01*
X106997152Y-127236691D01*
X107043987Y-127244141D01*
X107095399Y-127240946D01*
X107134395Y-127231961D01*
X107168705Y-127215796D01*
X107199130Y-127190033D01*
X107222977Y-127157291D01*
X107232513Y-127136720D01*
X107244536Y-127095343D01*
X107252614Y-127048500D01*
X107255995Y-127001908D01*
X107254728Y-126967839D01*
X107246794Y-126917339D01*
X107234045Y-126875965D01*
X107215502Y-126841188D01*
X107196388Y-126817014D01*
X107170535Y-126792292D01*
X107144184Y-126775651D01*
X107114126Y-126765817D01*
X107077152Y-126761521D01*
X107055194Y-126761051D01*
X107027366Y-126761590D01*
X107007125Y-126763840D01*
X106989811Y-126768773D01*
X106970765Y-126777360D01*
X106966408Y-126779566D01*
X106929307Y-126804532D01*
X106908452Y-126826882D01*
X106890742Y-126852832D01*
X106878040Y-126878437D01*
X106869455Y-126906738D01*
X106864098Y-126940776D01*
X106861080Y-126983593D01*
X106860825Y-126989658D01*
X106859776Y-127023390D01*
X106678789Y-127023390D01*
X106678385Y-126994481D01*
X106679475Y-126954378D01*
X106682287Y-126919130D01*
X106686670Y-126892947D01*
X106708170Y-126829258D01*
X106739442Y-126772269D01*
X106779652Y-126722812D01*
X106827968Y-126681720D01*
X106883555Y-126649826D01*
X106945581Y-126627964D01*
X106953778Y-126625970D01*
X106988504Y-126620279D01*
X107030254Y-126617027D01*
X107074982Y-126616211D01*
X107118644Y-126617826D01*
G37*
G36*
X106452088Y-126619695D02*
G01*
X106493104Y-126625966D01*
X106505993Y-126628940D01*
X106528653Y-126634697D01*
X106546220Y-126639046D01*
X106555751Y-126641261D01*
X106556609Y-126641401D01*
X106557377Y-126647161D01*
X106558017Y-126662940D01*
X106558473Y-126686489D01*
X106558687Y-126715555D01*
X106558696Y-126723106D01*
X106558696Y-126804811D01*
X106517283Y-126784537D01*
X106478161Y-126769038D01*
X106435723Y-126758337D01*
X106394398Y-126753273D01*
X106359344Y-126754576D01*
X106330334Y-126763559D01*
X106308085Y-126779438D01*
X106294056Y-126793963D01*
X106287472Y-126807169D01*
X106285692Y-126824733D01*
X106285676Y-126827605D01*
X106286278Y-126843111D01*
X106288888Y-126856283D01*
X106294711Y-126868092D01*
X106304953Y-126879506D01*
X106320819Y-126891494D01*
X106343516Y-126905025D01*
X106374248Y-126921069D01*
X106414222Y-126940593D01*
X106443809Y-126954697D01*
X106492451Y-126980359D01*
X106530213Y-127006600D01*
X106558449Y-127034936D01*
X106578514Y-127066880D01*
X106591764Y-127103948D01*
X106596312Y-127125195D01*
X106599294Y-127174969D01*
X106590806Y-127222059D01*
X106571533Y-127265471D01*
X106542157Y-127304207D01*
X106503363Y-127337271D01*
X106455835Y-127363666D01*
X106424447Y-127375556D01*
X106399064Y-127381143D01*
X106365131Y-127385035D01*
X106326259Y-127387155D01*
X106286061Y-127387423D01*
X106248149Y-127385760D01*
X106216137Y-127382087D01*
X106206983Y-127380309D01*
X106180312Y-127373689D01*
X106153668Y-127366038D01*
X106136428Y-127360295D01*
X106107754Y-127349657D01*
X106106047Y-127265481D01*
X106105643Y-127234947D01*
X106105716Y-127209356D01*
X106106226Y-127190922D01*
X106107137Y-127181863D01*
X106107488Y-127181304D01*
X106114000Y-127184269D01*
X106127621Y-127191947D01*
X106141171Y-127200092D01*
X106186279Y-127223626D01*
X106232695Y-127238635D01*
X106284585Y-127246346D01*
X106301478Y-127247403D01*
X106330628Y-127248363D01*
X106351049Y-127247743D01*
X106366225Y-127245131D01*
X106379643Y-127240115D01*
X106384960Y-127237516D01*
X106406943Y-127220181D01*
X106419790Y-127197043D01*
X106422995Y-127171018D01*
X106416052Y-127145025D01*
X106404023Y-127127458D01*
X106393829Y-127119668D01*
X106374720Y-127107993D01*
X106348924Y-127093685D01*
X106318669Y-127077999D01*
X106297947Y-127067792D01*
X106264841Y-127051419D01*
X106233618Y-127035245D01*
X106206861Y-127020661D01*
X106187157Y-127009060D01*
X106180017Y-127004276D01*
X106151069Y-126975723D01*
X106128650Y-126939006D01*
X106113726Y-126896899D01*
X106107265Y-126852178D01*
X106110235Y-126807616D01*
X106110657Y-126805401D01*
X106125928Y-126755682D01*
X106150849Y-126713227D01*
X106185604Y-126677850D01*
X106230380Y-126649366D01*
X106285362Y-126627588D01*
X106288744Y-126626564D01*
X106321646Y-126619968D01*
X106362446Y-126616653D01*
X106407231Y-126616576D01*
X106452088Y-126619695D01*
G37*
G36*
X107906418Y-126267779D02*
G01*
X107945266Y-126274544D01*
X107945266Y-126350233D01*
X107945266Y-126425922D01*
X107917268Y-126416382D01*
X107888693Y-126410232D01*
X107857489Y-126409182D01*
X107827973Y-126412941D01*
X107804462Y-126421216D01*
X107799471Y-126424355D01*
X107786375Y-126437426D01*
X107773194Y-126455912D01*
X107768877Y-126463603D01*
X107762633Y-126477454D01*
X107758581Y-126491780D01*
X107756271Y-126509708D01*
X107755255Y-126534365D01*
X107755072Y-126559875D01*
X107755072Y-126629130D01*
X107883913Y-126629130D01*
X108012754Y-126629130D01*
X108012754Y-126546675D01*
X108012754Y-126464221D01*
X108066437Y-126447801D01*
X108094364Y-126439261D01*
X108121444Y-126430984D01*
X108142958Y-126424412D01*
X108147729Y-126422955D01*
X108162976Y-126418245D01*
X108174119Y-126415787D01*
X108181798Y-126417052D01*
X108186655Y-126423513D01*
X108189331Y-126436641D01*
X108190467Y-126457910D01*
X108190704Y-126488790D01*
X108190676Y-126521595D01*
X108190676Y-126628793D01*
X108278104Y-126630496D01*
X108365531Y-126632198D01*
X108365531Y-126702753D01*
X108365531Y-126773309D01*
X108277798Y-126775013D01*
X108190064Y-126776717D01*
X108191904Y-126980545D01*
X108192470Y-127036826D01*
X108193095Y-127082175D01*
X108193856Y-127117927D01*
X108194827Y-127145420D01*
X108196084Y-127165990D01*
X108197703Y-127180975D01*
X108199760Y-127191712D01*
X108202330Y-127199538D01*
X108204544Y-127204130D01*
X108218536Y-127222792D01*
X108238193Y-127235317D01*
X108264155Y-127243317D01*
X108282838Y-127244732D01*
X108305585Y-127242747D01*
X108327487Y-127238180D01*
X108343636Y-127231847D01*
X108346819Y-127229552D01*
X108358083Y-127224476D01*
X108360623Y-127224251D01*
X108364258Y-127227296D01*
X108366675Y-127237482D01*
X108368056Y-127256390D01*
X108368581Y-127285597D01*
X108368599Y-127294230D01*
X108368599Y-127364209D01*
X108339456Y-127374486D01*
X108311304Y-127381477D01*
X108276031Y-127385984D01*
X108237663Y-127387907D01*
X108200223Y-127387145D01*
X108167738Y-127383598D01*
X108149501Y-127379206D01*
X108105601Y-127358521D01*
X108070151Y-127328972D01*
X108043259Y-127290698D01*
X108025036Y-127243836D01*
X108018846Y-127215048D01*
X108017369Y-127199888D01*
X108016022Y-127174265D01*
X108014850Y-127139986D01*
X108013898Y-127098860D01*
X108013214Y-127052693D01*
X108012843Y-127003293D01*
X108012789Y-126977307D01*
X108012754Y-126776377D01*
X107883913Y-126776377D01*
X107755072Y-126776377D01*
X107755072Y-127073937D01*
X107755072Y-127371497D01*
X107666111Y-127371497D01*
X107577150Y-127371497D01*
X107577150Y-127073937D01*
X107577150Y-126776377D01*
X107515797Y-126776377D01*
X107454444Y-126776377D01*
X107454444Y-126702753D01*
X107454444Y-126629130D01*
X107515797Y-126629130D01*
X107577150Y-126629130D01*
X107577223Y-126557041D01*
X107580047Y-126496905D01*
X107588796Y-126446128D01*
X107604083Y-126403005D01*
X107626524Y-126365833D01*
X107656730Y-126332910D01*
X107658566Y-126331244D01*
X107704532Y-126297914D01*
X107755968Y-126275398D01*
X107812264Y-126263853D01*
X107872812Y-126263436D01*
X107906418Y-126267779D01*
G37*
%TO.C,SWRST1*%
D14*
X127275000Y-128000000D02*
G75*
G02*
X124725000Y-128000000I-1275000J0D01*
G01*
X124725000Y-128000000D02*
G75*
G02*
X127275000Y-128000000I1275000J0D01*
G01*
%TO.C,SWBOOT1*%
X142275000Y-128000000D02*
G75*
G02*
X139725000Y-128000000I-1275000J0D01*
G01*
X139725000Y-128000000D02*
G75*
G02*
X142275000Y-128000000I1275000J0D01*
G01*
%TD*%
D15*
%TO.C,C48*%
X158780000Y-101700000D03*
X157820000Y-101700000D03*
%TD*%
D16*
%TO.C,R24*%
X161310000Y-115550000D03*
X160290000Y-115550000D03*
%TD*%
D17*
%TO.C,R23*%
X200825000Y-117400000D03*
X199175000Y-117400000D03*
%TD*%
D15*
%TO.C,C47*%
X158780000Y-104300000D03*
X157820000Y-104300000D03*
%TD*%
D18*
%TO.C,C25*%
X194589411Y-101189411D03*
X193910589Y-100510589D03*
%TD*%
D16*
%TO.C,R30*%
X161710000Y-106750000D03*
X160690000Y-106750000D03*
%TD*%
D19*
%TO.C,Q3*%
X204100000Y-105237500D03*
X206000000Y-105237500D03*
X205050000Y-103362500D03*
%TD*%
D20*
%TO.C,C7*%
X124975000Y-78850000D03*
X123425000Y-78850000D03*
%TD*%
D21*
%TO.C,C44*%
X152500000Y-114320000D03*
X152500000Y-115280000D03*
%TD*%
D22*
%TO.C,R18*%
X103300000Y-114000000D03*
X103300000Y-115650000D03*
%TD*%
D23*
%TO.C,U9*%
X107137500Y-103775000D03*
X107137500Y-104425000D03*
X107137500Y-105075000D03*
X107137500Y-105725000D03*
X107137500Y-106375000D03*
X107137500Y-107025000D03*
X107137500Y-107675000D03*
X107137500Y-108325000D03*
X107137500Y-108975000D03*
X107137500Y-109625000D03*
X112862500Y-109625000D03*
X112862500Y-108975000D03*
X112862500Y-108325000D03*
X112862500Y-107675000D03*
X112862500Y-107025000D03*
X112862500Y-106375000D03*
X112862500Y-105725000D03*
X112862500Y-105075000D03*
X112862500Y-104425000D03*
X112862500Y-103775000D03*
%TD*%
D24*
%TO.C,C4*%
X134625000Y-87100000D03*
X136175000Y-87100000D03*
%TD*%
D25*
%TO.C,R25*%
X120000000Y-72990000D03*
X120000000Y-74010000D03*
%TD*%
D24*
%TO.C,C3*%
X136175000Y-85425000D03*
X134625000Y-85425000D03*
%TD*%
D26*
%TO.C,C34*%
X100062500Y-112150000D03*
X100062500Y-110600000D03*
%TD*%
D27*
%TO.C,C20*%
X125720000Y-111900000D03*
X126680000Y-111900000D03*
%TD*%
D28*
%TO.C,C40*%
X214400000Y-118825000D03*
X214400000Y-120375000D03*
%TD*%
D29*
%TO.C,J2*%
X174700000Y-114000000D03*
X174700000Y-106000000D03*
D30*
X164200000Y-106800000D03*
X164200000Y-107900000D03*
X164200000Y-109000000D03*
X164200000Y-110100000D03*
X164200000Y-111200000D03*
X164200000Y-112300000D03*
X164200000Y-113400000D03*
X164200000Y-114500000D03*
X164200000Y-115600000D03*
D31*
X164800000Y-116800000D03*
D32*
X174300000Y-116800000D03*
X174300000Y-101300000D03*
D33*
X164700000Y-102200000D03*
%TD*%
D28*
%TO.C,C46*%
X196150000Y-103200000D03*
X196150000Y-104750000D03*
%TD*%
D34*
%TO.C,R17*%
X120975000Y-109380000D03*
X122625000Y-109380000D03*
%TD*%
D35*
%TO.C,R9*%
X126090000Y-115400000D03*
X127110000Y-115400000D03*
%TD*%
D15*
%TO.C,C16*%
X150380000Y-124700000D03*
X149420000Y-124700000D03*
%TD*%
D17*
%TO.C,R12*%
X129625000Y-83900000D03*
X127975000Y-83900000D03*
%TD*%
D28*
%TO.C,C35*%
X97500000Y-110600000D03*
X97500000Y-112150000D03*
%TD*%
%TO.C,C41*%
X212600000Y-118825000D03*
X212600000Y-120375000D03*
%TD*%
D36*
%TO.C,D8*%
X158600000Y-112900000D03*
X158600000Y-112200000D03*
%TD*%
D37*
%TO.C,U5*%
X148950000Y-121187500D03*
X149900000Y-121187500D03*
X150850000Y-121187500D03*
X150850000Y-118912500D03*
X148950000Y-118912500D03*
%TD*%
D25*
%TO.C,R6*%
X138100000Y-123390000D03*
X138100000Y-124410000D03*
%TD*%
D28*
%TO.C,C29*%
X98300000Y-104225000D03*
X98300000Y-105775000D03*
%TD*%
D38*
%TO.C,R7*%
X133960624Y-119160624D03*
X133239376Y-118439376D03*
%TD*%
D25*
%TO.C,R32*%
X118900000Y-72990000D03*
X118900000Y-74010000D03*
%TD*%
D39*
%TO.C,U10*%
X96114545Y-118773345D03*
X96114545Y-119723345D03*
X96114545Y-120673345D03*
X98389545Y-120673345D03*
X98389545Y-118773345D03*
%TD*%
D16*
%TO.C,R8*%
X131000000Y-121000000D03*
X129980000Y-121000000D03*
%TD*%
D28*
%TO.C,C42*%
X210800000Y-118825000D03*
X210800000Y-120375000D03*
%TD*%
D40*
%TO.C,L6*%
X212200000Y-113200000D03*
X212200000Y-116600000D03*
%TD*%
D41*
%TO.C,D10*%
X162200000Y-104450000D03*
X162200000Y-105150000D03*
%TD*%
D36*
%TO.C,D7*%
X158600000Y-111000000D03*
X158600000Y-110300000D03*
%TD*%
D25*
%TO.C,R5*%
X136100000Y-123390000D03*
X136100000Y-124410000D03*
%TD*%
D42*
%TO.C,Audio1*%
X94000000Y-87600000D03*
X100000000Y-87600000D03*
D43*
X94100000Y-91600000D03*
X96100000Y-83600000D03*
X101100000Y-91600000D03*
%TD*%
D44*
%TO.C,D3*%
X132100000Y-86325000D03*
X132100000Y-90325000D03*
%TD*%
D34*
%TO.C,R13*%
X104475000Y-91800000D03*
X106125000Y-91800000D03*
%TD*%
D18*
%TO.C,C24*%
X193639411Y-102139411D03*
X192960589Y-101460589D03*
%TD*%
D45*
%TO.C,Q4*%
X200550000Y-108062500D03*
X198650000Y-108062500D03*
X199600000Y-109937500D03*
%TD*%
D22*
%TO.C,R34*%
X213300000Y-105775000D03*
X213300000Y-107425000D03*
%TD*%
D16*
%TO.C,R26*%
X161710000Y-109550000D03*
X160690000Y-109550000D03*
%TD*%
D35*
%TO.C,R1*%
X124190000Y-77300000D03*
X125210000Y-77300000D03*
%TD*%
D46*
%TO.C,Q5*%
X198962500Y-104050000D03*
X198962500Y-105950000D03*
X200837500Y-105000000D03*
%TD*%
D47*
%TO.C,C18*%
X147800000Y-116900000D03*
X147800000Y-115940000D03*
%TD*%
D24*
%TO.C,C28*%
X96825000Y-93700000D03*
X98375000Y-93700000D03*
%TD*%
D48*
%TO.C,BAT-*%
X204500000Y-120800000D03*
%TD*%
D17*
%TO.C,R21*%
X200825000Y-115600000D03*
X199175000Y-115600000D03*
%TD*%
D21*
%TO.C,C45*%
X153700000Y-114320000D03*
X153700000Y-115280000D03*
%TD*%
D20*
%TO.C,C1*%
X125075000Y-71950000D03*
X123525000Y-71950000D03*
%TD*%
D49*
%TO.C,USB1*%
X215400000Y-101630000D03*
X215400000Y-100980000D03*
X215400000Y-100330000D03*
X215400000Y-99680000D03*
X215400000Y-99030000D03*
D50*
X218180000Y-96700000D03*
D29*
X215530000Y-97910000D03*
X215530000Y-102750000D03*
D50*
X218180000Y-103960000D03*
%TD*%
D29*
%TO.C,SWRST1*%
X124300000Y-129700000D03*
X127700000Y-126300000D03*
%TD*%
D24*
%TO.C,C27*%
X104525000Y-90100000D03*
X106075000Y-90100000D03*
%TD*%
D16*
%TO.C,R28*%
X161310000Y-113050000D03*
X160290000Y-113050000D03*
%TD*%
D24*
%TO.C,C31*%
X94725000Y-103300000D03*
X96275000Y-103300000D03*
%TD*%
D51*
%TO.C,X2*%
X209680000Y-95980000D03*
X211520000Y-95980000D03*
X211520000Y-94420000D03*
X209680000Y-94420000D03*
%TD*%
D34*
%TO.C,R16*%
X120975000Y-107680000D03*
X122625000Y-107680000D03*
%TD*%
D20*
%TO.C,C6*%
X124975000Y-80500000D03*
X123425000Y-80500000D03*
%TD*%
D52*
%TO.C,U6*%
X141437500Y-120700000D03*
X141437500Y-119700000D03*
X141437500Y-118700000D03*
X141437500Y-117700000D03*
X141437500Y-116700000D03*
X136162500Y-116700000D03*
X136162500Y-117700000D03*
X136162500Y-118700000D03*
X136162500Y-119700000D03*
X136162500Y-120700000D03*
D53*
X138800000Y-118700000D03*
%TD*%
D54*
%TO.C,U8*%
X197050000Y-95577500D03*
X197050000Y-96212500D03*
X197050000Y-96847500D03*
X197050000Y-97482500D03*
X197050000Y-98117500D03*
X197050000Y-98752500D03*
X197050000Y-99387500D03*
X197050000Y-100022500D03*
X202325000Y-100022500D03*
X202325000Y-99387500D03*
X202325000Y-98752500D03*
X202325000Y-98117500D03*
X202325000Y-97482500D03*
X202325000Y-96847500D03*
X202325000Y-96212500D03*
X202325000Y-95577500D03*
%TD*%
D55*
%TO.C,R19*%
X105200000Y-117325000D03*
X105200000Y-115675000D03*
%TD*%
D15*
%TO.C,C17*%
X150380000Y-123200000D03*
X149420000Y-123200000D03*
%TD*%
D55*
%TO.C,R10*%
X155700568Y-92163495D03*
X155700568Y-90513495D03*
%TD*%
D56*
%TO.C,D5*%
X204050000Y-108200000D03*
X208050000Y-108200000D03*
%TD*%
D20*
%TO.C,C2*%
X125075000Y-73600000D03*
X123525000Y-73600000D03*
%TD*%
D16*
%TO.C,R33*%
X119110000Y-71900000D03*
X118090000Y-71900000D03*
%TD*%
D57*
%TO.C,L5*%
X124000000Y-90100000D03*
X127400000Y-90100000D03*
%TD*%
D34*
%TO.C,R15*%
X120975000Y-105980000D03*
X122625000Y-105980000D03*
%TD*%
D58*
%TO.C,U12*%
X108400000Y-72925000D03*
X108400000Y-73575000D03*
X108400000Y-74225000D03*
X108400000Y-74875000D03*
X108400000Y-75525000D03*
X108400000Y-76175000D03*
X108400000Y-76825000D03*
X108400000Y-77475000D03*
X108400000Y-78125000D03*
X108400000Y-78775000D03*
X108400000Y-79425000D03*
X108400000Y-80075000D03*
X115600000Y-80075000D03*
X115600000Y-79425000D03*
X115600000Y-78775000D03*
X115600000Y-78125000D03*
X115600000Y-77475000D03*
X115600000Y-76825000D03*
X115600000Y-76175000D03*
X115600000Y-75525000D03*
X115600000Y-74875000D03*
X115600000Y-74225000D03*
X115600000Y-73575000D03*
X115600000Y-72925000D03*
%TD*%
D34*
%TO.C,R22*%
X200325000Y-102400000D03*
X201975000Y-102400000D03*
%TD*%
D24*
%TO.C,C32*%
X115225000Y-103900000D03*
X116775000Y-103900000D03*
%TD*%
%TO.C,C33*%
X115225000Y-105600000D03*
X116775000Y-105600000D03*
%TD*%
D41*
%TO.C,D11*%
X160500000Y-104450000D03*
X160500000Y-105150000D03*
%TD*%
D59*
%TO.C,D2*%
X155712500Y-88100000D03*
X157287500Y-88100000D03*
%TD*%
D60*
%TO.C,U13*%
X147745606Y-112520000D03*
X147745606Y-111250000D03*
X147745606Y-109980000D03*
X147745606Y-108710000D03*
X147745606Y-107440000D03*
X147745606Y-106170000D03*
X147745606Y-104900000D03*
X147745606Y-103630000D03*
X147745606Y-102360000D03*
X147745606Y-101090000D03*
X147745606Y-99820000D03*
X147745606Y-98550000D03*
X147745606Y-97280000D03*
X147745606Y-96010000D03*
D61*
X145980606Y-94760000D03*
X144710606Y-94760000D03*
X143440606Y-94760000D03*
X142170606Y-94760000D03*
X140900606Y-94760000D03*
X139630606Y-94760000D03*
X138360606Y-94760000D03*
X137090606Y-94760000D03*
X135820606Y-94760000D03*
X134550606Y-94760000D03*
X133280606Y-94760000D03*
X132010606Y-94760000D03*
D60*
X130245606Y-96010000D03*
X130245606Y-97280000D03*
X130245606Y-98550000D03*
X130245606Y-99820000D03*
X130245606Y-101090000D03*
X130245606Y-102360000D03*
X130245606Y-103630000D03*
X130245606Y-104900000D03*
X130245606Y-106170000D03*
X130245606Y-107440000D03*
X130245606Y-108710000D03*
X130245606Y-109980000D03*
X130245606Y-111250000D03*
X130245606Y-112520000D03*
D62*
X141895606Y-105500000D03*
X141895606Y-104100000D03*
X141195606Y-106200000D03*
X141195606Y-104800000D03*
X141195606Y-103400000D03*
X140495606Y-105500000D03*
D63*
X140495606Y-104800000D03*
D62*
X140495606Y-104100000D03*
X139795606Y-106200000D03*
X139795606Y-104800000D03*
X139795606Y-103400000D03*
X139095606Y-105500000D03*
X139095606Y-104100000D03*
%TD*%
D47*
%TO.C,C19*%
X148900000Y-116900000D03*
X148900000Y-115940000D03*
%TD*%
D64*
%TO.C,R4*%
X151500000Y-103510000D03*
X151500000Y-102490000D03*
%TD*%
D65*
%TO.C,SH1*%
X132400000Y-83800000D03*
X132400000Y-83100000D03*
X132400000Y-82400000D03*
X132400000Y-81700000D03*
X132400000Y-81000000D03*
X132400000Y-80300000D03*
X132400000Y-79600000D03*
X132400000Y-78900000D03*
X132400000Y-78200000D03*
X132400000Y-77500000D03*
X132400000Y-76800000D03*
X132400000Y-76100000D03*
X132400000Y-75400000D03*
X132400000Y-74700000D03*
X132400000Y-74000000D03*
X132400000Y-73300000D03*
X132400000Y-72600000D03*
X132400000Y-71900000D03*
X132400000Y-71200000D03*
X132400000Y-70500000D03*
X132400000Y-69800000D03*
X132400000Y-69100000D03*
X132400000Y-68400000D03*
X132400000Y-67700000D03*
%TD*%
D20*
%TO.C,C43*%
X208612990Y-119992532D03*
X207062990Y-119992532D03*
%TD*%
D66*
%TO.C,U11*%
X202790000Y-114440000D03*
X202790000Y-115710000D03*
X202790000Y-116990000D03*
X202790000Y-118260000D03*
X208610000Y-118260000D03*
X208610000Y-116990000D03*
X208610000Y-115710000D03*
X208610000Y-114440000D03*
D67*
X205700000Y-116350000D03*
%TD*%
D19*
%TO.C,Q1*%
X123750000Y-118837500D03*
X125650000Y-118837500D03*
X124700000Y-116962500D03*
%TD*%
D28*
%TO.C,C49*%
X154210000Y-111200000D03*
X154210000Y-112750000D03*
%TD*%
D34*
%TO.C,R14*%
X96775000Y-95400000D03*
X98425000Y-95400000D03*
%TD*%
D55*
%TO.C,R35*%
X209500000Y-103525000D03*
X209500000Y-101875000D03*
%TD*%
D20*
%TO.C,C5*%
X124975000Y-82150000D03*
X123425000Y-82150000D03*
%TD*%
D68*
%TO.C,U2*%
X124837500Y-86350000D03*
X124837500Y-85400000D03*
X124837500Y-84450000D03*
X122562500Y-84450000D03*
X122562500Y-86350000D03*
%TD*%
D29*
%TO.C,SWBOOT1*%
X139300000Y-129700000D03*
X142700000Y-126300000D03*
%TD*%
D27*
%TO.C,C26*%
X128570000Y-85200000D03*
X129530000Y-85200000D03*
%TD*%
D16*
%TO.C,R31*%
X161710000Y-108250000D03*
X160690000Y-108250000D03*
%TD*%
D19*
%TO.C,Q2*%
X127750000Y-118837500D03*
X129650000Y-118837500D03*
X128700000Y-116962500D03*
%TD*%
D69*
%TO.C,C39*%
X203450000Y-112600000D03*
X205350000Y-112600000D03*
%TD*%
D36*
%TO.C,D6*%
X158600000Y-109150000D03*
X158600000Y-108450000D03*
%TD*%
D24*
%TO.C,C36*%
X96152045Y-126823345D03*
X97702045Y-126823345D03*
%TD*%
%TO.C,C38*%
X203725000Y-110800000D03*
X205275000Y-110800000D03*
%TD*%
D28*
%TO.C,C50*%
X151700000Y-111200000D03*
X151700000Y-112750000D03*
%TD*%
D22*
%TO.C,R11*%
X126500000Y-84275000D03*
X126500000Y-85925000D03*
%TD*%
D27*
%TO.C,C21*%
X133420000Y-121400000D03*
X134380000Y-121400000D03*
%TD*%
D20*
%TO.C,C30*%
X96275000Y-105200000D03*
X94725000Y-105200000D03*
%TD*%
D28*
%TO.C,C37*%
X101752045Y-118748345D03*
X101752045Y-120298345D03*
%TD*%
D70*
%TO.C,Y1*%
X154600000Y-104250000D03*
X154600000Y-101750000D03*
%TD*%
D16*
%TO.C,R27*%
X161310000Y-111250000D03*
X160290000Y-111250000D03*
%TD*%
D48*
%TO.C,BAT+*%
X216750000Y-116500000D03*
%TD*%
D36*
%TO.C,D9*%
X157700000Y-114800000D03*
X157700000Y-114100000D03*
%TD*%
D16*
%TO.C,R29*%
X161310000Y-114450000D03*
X160290000Y-114450000D03*
%TD*%
D25*
%TO.C,R36*%
X195450000Y-117140000D03*
X195450000Y-118160000D03*
%TD*%
M02*
