M48
; DRILL file {KiCad 8.0.5-unknown-202409261835~48b9027842~ubuntu24.04.1} date 2024-10-03T20:43:24+0800
; FORMAT={-:-/ absolute / inch / decimal}
; #@! TF.CreationDate,2024-10-03T20:43:24+08:00
; #@! TF.GenerationSoftware,Kicad,Pcbnew,8.0.5-unknown-202409261835~48b9027842~ubuntu24.04.1
; #@! TF.FileFunction,Plated,1,4,PTH
FMAT,2
INCH
; #@! TA.AperFunction,Plated,PTH,ViaDrill
T1C0.0118
; #@! TA.AperFunction,Plated,PTH,ViaDrill
T2C0.0157
; #@! TA.AperFunction,Plated,PTH,ComponentDrill
T3C0.0236
; #@! TA.AperFunction,Plated,PTH,ComponentDrill
T4C0.0433
%
G90
G05
T1
X3.7598Y-2.6811
X3.8346Y-2.9134
X3.8346Y-4.0354
X3.8898Y-3.7835
X4.0197Y-4.248
X4.126Y-3.9055
X4.1378Y-3.0236
X4.2161Y-3.5394
X4.2283Y-3.6142
X4.2362Y-2.8425
X4.2559Y-3.8937
X4.3031Y-3.0984
X4.311Y-3.2598
X4.3543Y-4.4764
X4.378Y-4.3701
X4.3858Y-3.7244
X4.3858Y-5.0827
X4.3898Y-3.4094
X4.4291Y-4.4567
X4.4646Y-3.1614
X4.4685Y-3.2756
X4.5591Y-4.252
X4.6024Y-2.8031
X4.6063Y-4.1339
X4.6142Y-3.5984
X4.6575Y-2.9685
X4.6575Y-4.0039
X4.752Y-2.874
X4.7559Y-2.937
X4.7953Y-4.0591
X4.8031Y-3.1969
X4.8268Y-4.5315
X4.8346Y-3.7362
X4.8425Y-5.2008
X4.878Y-4.1339
X5.0118Y-4.4567
X5.0472Y-4.1929
X5.0512Y-5.1012
X5.063Y-2.6811
X5.063Y-3.4213
X5.0866Y-3.3386
X5.1102Y-2.7913
X5.1142Y-2.7323
X5.1142Y-2.9488
X5.1339Y-2.9094
X5.2087Y-3.8937
X5.2087Y-4.0551
X5.252Y-3.9409
X5.2638Y-3.0276
X5.2795Y-2.6575
X5.2835Y-3.3701
X5.2874Y-4.126
X5.3346Y-5.0906
X5.3937Y-4.1417
X5.4661Y-3.0339
X5.4764Y-4.2205
X5.6063Y-4.1496
X5.626Y-3.878
X5.6339Y-4.0433
X5.6575Y-4.6535
X5.7126Y-4.1102
X5.7756Y-4.8071
X5.9055Y-3.4882
X6.0354Y-4.9016
X6.1417Y-3.5787
X6.1575Y-3.9213
X6.193Y-4.1672
X6.2008Y-3.7795
X6.2244Y-4.1693
X6.2283Y-3.9961
X6.2362Y-4.8465
X6.2402Y-5.0
X6.252Y-4.122
X6.2638Y-3.8898
X6.3187Y-4.207
X6.3198Y-4.1747
X6.3382Y-4.2819
X6.3622Y-4.4961
X6.3701Y-3.7205
X6.3819Y-4.5207
X6.3828Y-4.126
X6.3828Y-4.1582
X6.3955Y-4.0972
X6.4134Y-3.7283
X6.4173Y-4.315
X6.4301Y-4.1149
X6.4614Y-4.1117
X6.5472Y-4.4449
X6.5669Y-4.4252
X6.5827Y-3.9843
X6.5866Y-3.4911
X6.5866Y-4.1339
X6.6378Y-5.0039
X6.6398Y-4.5886
X6.6654Y-4.8189
X6.6969Y-4.6299
X6.7047Y-4.1339
X6.7283Y-3.7559
X6.7323Y-4.0632
X6.7745Y-4.7348
X6.7789Y-5.0
X6.7795Y-4.7717
X6.7933Y-4.8112
X6.811Y-4.2746
X6.9134Y-4.3898
X6.9366Y-4.3312
X6.938Y-4.4478
X6.9409Y-4.4803
X6.9567Y-4.2746
X6.9573Y-4.3075
X6.9882Y-4.2274
X7.0315Y-4.0866
X7.0433Y-4.626
X7.0906Y-4.0866
X7.1181Y-3.5945
X7.1535Y-4.1732
X7.2008Y-4.1811
X7.2323Y-5.0906
X7.248Y-4.3819
X7.248Y-4.4685
X7.2587Y-4.7094
X7.2756Y-4.9646
X7.4528Y-4.2559
X7.5394Y-3.8583
X7.5787Y-4.1654
X7.5906Y-4.9055
X7.6181Y-4.9291
X7.6378Y-4.1575
X7.6405Y-4.9929
X7.7008Y-4.0709
X7.752Y-4.0709
X7.8307Y-4.1339
X7.8661Y-3.7953
X7.8661Y-4.3189
X7.8741Y-3.4754
X7.9134Y-4.3189
X7.9173Y-4.8701
X7.9646Y-4.8701
X8.0Y-4.563
X8.0118Y-4.2323
X8.0945Y-3.9961
X8.1284Y-4.0
X8.1693Y-4.0669
X8.2205Y-3.9055
X8.2244Y-3.9449
X8.2323Y-3.8346
X8.3251Y-3.6402
X8.4724Y-3.7205
X8.5157Y-4.1811
X8.5551Y-4.2087
X8.563Y-3.9409
T2
X5.4094Y-5.1299
X5.5118Y-4.8465
T4
X3.739Y-3.4587
X3.9752Y-3.4587
T3
G00X8.3839Y-3.7946
M15
G01X8.4272Y-3.7946
M16
G05
G00X8.3839Y-4.1346
M15
G01X8.4272Y-4.1346
M16
G05
G00X8.5583Y-3.7946
M15
G01X8.5819Y-3.7946
M16
G05
G00X8.5583Y-4.1346
M15
G01X8.5819Y-4.1346
M16
G05
M30
