%TF.GenerationSoftware,KiCad,Pcbnew,8.0.5-8.0.5-0~ubuntu24.04.1*%
%TF.CreationDate,2024-10-16T00:53:39+08:00*%
%TF.ProjectId,EL6170_Pro_Max_Plus,454c3631-3730-45f5-9072-6f5f4d61785f,rev?*%
%TF.SameCoordinates,Original*%
%TF.FileFunction,Paste,Bot*%
%TF.FilePolarity,Positive*%
%FSLAX46Y46*%
G04 Gerber Fmt 4.6, Leading zero omitted, Abs format (unit mm)*
G04 Created by KiCad (PCBNEW 8.0.5-8.0.5-0~ubuntu24.04.1) date 2024-10-16 00:53:39*
%MOMM*%
%LPD*%
G01*
G04 APERTURE LIST*
%ADD10C,1.000000*%
%ADD11O,2.000000X1.000000*%
%ADD12O,1.000000X2.000000*%
G04 APERTURE END LIST*
D10*
%TO.C,SW35*%
X108250000Y-111450000D03*
X104200000Y-107500000D03*
%TD*%
%TO.C,SW18*%
X202050000Y-101950000D03*
X198000000Y-98000000D03*
%TD*%
%TO.C,SW52*%
X133550000Y-130450000D03*
X129500000Y-126500000D03*
%TD*%
%TO.C,SW51*%
X146050000Y-130450000D03*
X142000000Y-126500000D03*
%TD*%
D11*
%TO.C,SW50*%
X159500000Y-131000000D03*
X159500000Y-126000000D03*
%TD*%
D10*
%TO.C,SW5*%
X115550000Y-78150000D03*
X110650000Y-73650000D03*
%TD*%
%TO.C,SW42*%
X127050000Y-120950000D03*
X123000000Y-117000000D03*
%TD*%
D12*
%TO.C,SW4*%
X128500000Y-76000000D03*
X122500000Y-76000000D03*
%TD*%
D10*
%TO.C,SW53*%
X121050000Y-130450000D03*
X117000000Y-126500000D03*
%TD*%
D11*
%TO.C,SW11*%
X162500000Y-93000000D03*
D10*
X162500000Y-88600000D03*
%TD*%
%TO.C,SW32*%
X145750000Y-111450000D03*
X141700000Y-107500000D03*
%TD*%
%TO.C,SW29*%
X183250000Y-111450000D03*
X179200000Y-107500000D03*
%TD*%
%TO.C,SW46*%
X214550000Y-130450000D03*
X210500000Y-126500000D03*
%TD*%
D11*
%TO.C,SW12*%
X150000000Y-93000000D03*
D10*
X150000000Y-88600000D03*
%TD*%
D11*
%TO.C,SW8*%
X200000000Y-93000000D03*
D10*
X200000000Y-88600000D03*
%TD*%
%TO.C,SW26*%
X102050000Y-101950000D03*
X98000000Y-98000000D03*
%TD*%
%TO.C,SW33*%
X133250000Y-111450000D03*
X129200000Y-107500000D03*
%TD*%
%TO.C,SW44*%
X102050000Y-120950000D03*
X98000000Y-117000000D03*
%TD*%
%TO.C,SW28*%
X195750000Y-111450000D03*
X191700000Y-107500000D03*
%TD*%
%TO.C,SW43*%
X114550000Y-120950000D03*
X110500000Y-117000000D03*
%TD*%
%TO.C,SW22*%
X152050000Y-101950000D03*
X148000000Y-98000000D03*
%TD*%
%TO.C,SW49*%
X177050000Y-130450000D03*
X173000000Y-126500000D03*
%TD*%
%TO.C,SW36*%
X202050000Y-120950000D03*
X198000000Y-117000000D03*
%TD*%
%TO.C,SW2*%
X139050000Y-73150000D03*
X134150000Y-68650000D03*
%TD*%
D11*
%TO.C,SW13*%
X137500000Y-93000000D03*
D10*
X137500000Y-88600000D03*
%TD*%
D11*
%TO.C,SW7*%
X212500000Y-93000000D03*
D10*
X212500000Y-88600000D03*
%TD*%
D11*
%TO.C,SW54*%
X103500000Y-131000000D03*
X103500000Y-126000000D03*
%TD*%
D10*
%TO.C,SW37*%
X189550000Y-120950000D03*
X185500000Y-117000000D03*
%TD*%
D12*
%TO.C,SW1*%
X150500000Y-76000000D03*
X144500000Y-76000000D03*
%TD*%
D11*
%TO.C,SW16*%
X100000000Y-93100000D03*
D10*
X101570000Y-87780000D03*
%TD*%
%TO.C,SW39*%
X164550000Y-120950000D03*
X160500000Y-117000000D03*
%TD*%
%TO.C,SW6*%
X103050000Y-78150000D03*
X98150000Y-73650000D03*
%TD*%
%TO.C,SW24*%
X127050000Y-101950000D03*
X123000000Y-98000000D03*
%TD*%
%TO.C,SW31*%
X158250000Y-111450000D03*
X154200000Y-107500000D03*
%TD*%
%TO.C,SW20*%
X177050000Y-101950000D03*
X173000000Y-98000000D03*
%TD*%
%TO.C,SW17*%
X214450000Y-101950000D03*
X210400000Y-98000000D03*
%TD*%
%TO.C,SW23*%
X139550000Y-101950000D03*
X135500000Y-98000000D03*
%TD*%
%TO.C,SW41*%
X139550000Y-120950000D03*
X135500000Y-117000000D03*
%TD*%
%TO.C,SW38*%
X177050000Y-120950000D03*
X173000000Y-117000000D03*
%TD*%
%TO.C,SW45*%
X214550000Y-120950000D03*
X210500000Y-117000000D03*
%TD*%
%TO.C,SW19*%
X189550000Y-101950000D03*
X185500000Y-98000000D03*
%TD*%
D11*
%TO.C,SW14*%
X125000000Y-93000000D03*
D10*
X125000000Y-88600000D03*
%TD*%
%TO.C,SW21*%
X164550000Y-101950000D03*
X160500000Y-98000000D03*
%TD*%
%TO.C,SW47*%
X202050000Y-130450000D03*
X198000000Y-126500000D03*
%TD*%
%TO.C,SW30*%
X170750000Y-111450000D03*
X166700000Y-107500000D03*
%TD*%
D11*
%TO.C,SW9*%
X187500000Y-93000000D03*
D10*
X187500000Y-88600000D03*
%TD*%
D11*
%TO.C,SW10*%
X175000000Y-93000000D03*
D10*
X175000000Y-88600000D03*
%TD*%
%TO.C,SW25*%
X114550000Y-101950000D03*
X110500000Y-98000000D03*
%TD*%
%TO.C,SW3*%
X139050000Y-82650000D03*
X134150000Y-78150000D03*
%TD*%
%TO.C,SW34*%
X120750000Y-111450000D03*
X116700000Y-107500000D03*
%TD*%
%TO.C,SW40*%
X152050000Y-120950000D03*
X148000000Y-117000000D03*
%TD*%
D11*
%TO.C,SW15*%
X112500000Y-93000000D03*
D10*
X112500000Y-88600000D03*
%TD*%
%TO.C,SW48*%
X189550000Y-130450000D03*
X185500000Y-126500000D03*
%TD*%
%TO.C,SW27*%
X208250000Y-111450000D03*
X204200000Y-107500000D03*
%TD*%
M02*
