M48
; DRILL file {KiCad 8.0.5-unknown-202409261835~48b9027842~ubuntu24.04.1} date 2024-10-03T20:36:13+0800
; FORMAT={-:-/ absolute / inch / decimal}
; #@! TF.CreationDate,2024-10-03T20:36:13+08:00
; #@! TF.GenerationSoftware,Kicad,Pcbnew,8.0.5-unknown-202409261835~48b9027842~ubuntu24.04.1
; #@! TF.FileFunction,Plated,3,4,Blind
FMAT,2
INCH
; #@! TA.AperFunction,Plated,Buried,ViaDrill
T1C0.0118
%
G90
G05
T1
X3.937Y-3.4252
X3.9685Y-3.7244
X4.0236Y-3.7795
X4.0787Y-3.1024
X4.3189Y-3.8386
X4.3189Y-4.6063
X4.563Y-3.7795
X4.5866Y-3.7087
X4.6063Y-3.1102
X4.8425Y-4.815
X4.9961Y-3.7717
X5.0748Y-4.9606
X5.0929Y-4.0181
X5.3307Y-5.1732
X5.4134Y-3.4528
X5.4134Y-3.6929
X5.4567Y-3.689
X5.5827Y-4.7244
X5.5865Y-4.9647
X5.6417Y-3.7756
X5.7283Y-2.9921
X5.7717Y-4.4213
X5.8386Y-3.7992
X5.8425Y-4.815
X5.9409Y-3.689
X6.0668Y-4.2166
X6.1614Y-4.7795
X6.1654Y-4.5945
X6.1693Y-3.685
X6.2126Y-4.4213
X6.2638Y-4.6811
X6.2795Y-4.4882
X6.4724Y-4.2441
X6.4763Y-4.0472
X6.483Y-4.7771
X6.5433Y-4.2205
X6.5827Y-3.8701
X6.7501Y-4.3898
X6.7953Y-5.2047
X6.8504Y-4.4213
X6.8622Y-3.7047
X6.9331Y-4.0945
X6.9409Y-3.6866
X7.0Y-5.1339
X7.0079Y-4.7598
X7.2795Y-4.4052
X7.3268Y-4.5157
X7.382Y-3.4754
X7.4727Y-4.4052
X7.4843Y-5.1614
X7.4961Y-4.3307
X7.5709Y-4.563
X7.7362Y-4.3976
X7.7677Y-4.4567
X7.874Y-3.6969
X7.9449Y-4.0433
X7.9449Y-4.0984
X8.2402Y-4.6063
X8.2598Y-4.9764
X8.3661Y-3.4409
M30
