%TF.GenerationSoftware,KiCad,Pcbnew,8.0.5-8.0.5-0~ubuntu24.04.1*%
%TF.CreationDate,2024-10-12T02:18:59+08:00*%
%TF.ProjectId,EL6170_Pro_Max_Plus,454c3631-3730-45f5-9072-6f5f4d61785f,rev?*%
%TF.SameCoordinates,Original*%
%TF.FileFunction,Drillmap*%
%TF.FilePolarity,Positive*%
%FSLAX45Y45*%
G04 Gerber Fmt 4.5, Leading zero omitted, Abs format (unit mm)*
G04 Created by KiCad (PCBNEW 8.0.5-8.0.5-0~ubuntu24.04.1) date 2024-10-12 02:18:59*
%MOMM*%
%LPD*%
G01*
G04 APERTURE LIST*
%ADD10C,0.050000*%
%ADD11C,0.200000*%
%ADD12C,0.100000*%
G04 APERTURE END LIST*
D10*
X9380000Y-12460000D02*
X9290000Y-12460000D01*
X21550000Y-13300000D02*
X9490000Y-13300000D01*
X9200000Y-12710000D02*
X9200000Y-13010000D01*
X15220000Y-8650000D02*
X21920000Y-8650000D01*
X20100000Y-11300000D02*
G75*
G02*
X19900000Y-11300000I-100000J0D01*
G01*
X19900000Y-11300000D02*
G75*
G02*
X20100000Y-11300000I100000J0D01*
G01*
X15140000Y-6330000D02*
X15160000Y-6350000D01*
X15000000Y-6250000D02*
X15000000Y-6330000D01*
X9290000Y-11610000D02*
X9200000Y-11610000D01*
X18200000Y-12380000D02*
G75*
G02*
X18000000Y-12380000I-100000J0D01*
G01*
X18000000Y-12380000D02*
G75*
G02*
X18200000Y-12380000I100000J0D01*
G01*
X9600000Y-6550000D02*
G75*
G02*
X9400000Y-6550000I-100000J0D01*
G01*
X9400000Y-6550000D02*
G75*
G02*
X9600000Y-6550000I100000J0D01*
G01*
X21900000Y-12500000D02*
X21900000Y-12950000D01*
X15220000Y-8650000D02*
G75*
G02*
X15160000Y-8590000I0J60000D01*
G01*
X14520000Y-6530000D02*
G75*
G02*
X14320000Y-6530000I-100000J0D01*
G01*
X14320000Y-6530000D02*
G75*
G02*
X14520000Y-6530000I100000J0D01*
G01*
X9290000Y-12260000D02*
X9290000Y-11610000D01*
X11800000Y-6250000D02*
X9300000Y-6250000D01*
X22000000Y-9250000D02*
X21900000Y-9250000D01*
X20690000Y-13150000D02*
G75*
G02*
X20510000Y-13150000I-90000J0D01*
G01*
X20510000Y-13150000D02*
G75*
G02*
X20690000Y-13150000I90000J0D01*
G01*
X21900000Y-9250000D02*
X21900000Y-12200000D01*
X10000000Y-6650000D02*
G75*
G02*
X9800000Y-6650000I-100000J0D01*
G01*
X9800000Y-6650000D02*
G75*
G02*
X10000000Y-6650000I100000J0D01*
G01*
X12550000Y-11410000D02*
G75*
G02*
X12350000Y-11410000I-100000J0D01*
G01*
X12350000Y-11410000D02*
G75*
G02*
X12550000Y-11410000I100000J0D01*
G01*
X9380000Y-12260000D02*
G75*
G02*
X9380000Y-12460000I0J-100000D01*
G01*
X11290000Y-12560000D02*
G75*
G02*
X11110000Y-12560000I-90000J0D01*
G01*
X11110000Y-12560000D02*
G75*
G02*
X11290000Y-12560000I90000J0D01*
G01*
X9490000Y-13300000D02*
X9200000Y-13010000D01*
X9200000Y-6350000D02*
X9200000Y-6950000D01*
X20900000Y-12600000D02*
G75*
G02*
X20700000Y-12600000I-100000J0D01*
G01*
X20700000Y-12600000D02*
G75*
G02*
X20900000Y-12600000I100000J0D01*
G01*
X13200000Y-12360000D02*
G75*
G02*
X13000000Y-12360000I-100000J0D01*
G01*
X13000000Y-12360000D02*
G75*
G02*
X13200000Y-12360000I100000J0D01*
G01*
X9380000Y-12260000D02*
X9290000Y-12260000D01*
X9290000Y-12460000D02*
X9290000Y-12710000D01*
X20800000Y-9450000D02*
G75*
G02*
X20400000Y-9450000I-200000J0D01*
G01*
X20400000Y-9450000D02*
G75*
G02*
X20800000Y-9450000I200000J0D01*
G01*
X21900000Y-12500000D02*
G75*
G02*
X21900000Y-12200000I0J150000D01*
G01*
X13020000Y-6530000D02*
G75*
G02*
X12820000Y-6530000I-100000J0D01*
G01*
X12820000Y-6530000D02*
G75*
G02*
X13020000Y-6530000I100000J0D01*
G01*
X9200000Y-6950000D02*
X9290000Y-6950000D01*
X9200000Y-11610000D02*
X9200000Y-8050000D01*
X18140000Y-12080000D02*
G75*
G02*
X17960000Y-12080000I-90000J0D01*
G01*
X17960000Y-12080000D02*
G75*
G02*
X18140000Y-12080000I90000J0D01*
G01*
X9480000Y-11000000D02*
G75*
G02*
X9280000Y-11000000I-100000J0D01*
G01*
X9280000Y-11000000D02*
G75*
G02*
X9480000Y-11000000I100000J0D01*
G01*
X9290000Y-6950000D02*
X9290000Y-8050000D01*
X9480000Y-9500000D02*
G75*
G02*
X9280000Y-9500000I-100000J0D01*
G01*
X9280000Y-9500000D02*
G75*
G02*
X9480000Y-9500000I100000J0D01*
G01*
X15000000Y-6330000D02*
X15140000Y-6330000D01*
X9290000Y-8050000D02*
X9200000Y-8050000D01*
X21900000Y-12950000D02*
X21550000Y-13300000D01*
X15000000Y-6250000D02*
X12200000Y-6250000D01*
X10700000Y-12360000D02*
G75*
G02*
X10500000Y-12360000I-100000J0D01*
G01*
X10500000Y-12360000D02*
G75*
G02*
X10700000Y-12360000I100000J0D01*
G01*
X12200000Y-6490000D02*
G75*
G02*
X11800000Y-6490000I-200000J0D01*
G01*
X9200000Y-12710000D02*
X9290000Y-12710000D01*
X9200000Y-6350000D02*
X9300000Y-6250000D01*
X15700000Y-12360000D02*
G75*
G02*
X15500000Y-12360000I-100000J0D01*
G01*
X15500000Y-12360000D02*
G75*
G02*
X15700000Y-12360000I100000J0D01*
G01*
X16840000Y-12080000D02*
G75*
G02*
X16660000Y-12080000I-90000J0D01*
G01*
X16660000Y-12080000D02*
G75*
G02*
X16840000Y-12080000I90000J0D01*
G01*
X19640000Y-12590000D02*
G75*
G02*
X19460000Y-12590000I-90000J0D01*
G01*
X19460000Y-12590000D02*
G75*
G02*
X19640000Y-12590000I90000J0D01*
G01*
X15160000Y-6610000D02*
X15160000Y-8590000D01*
X15160000Y-6350000D02*
X15160000Y-6450000D01*
X11800000Y-6490000D02*
X11800000Y-6250000D01*
X21920000Y-8650000D02*
X22000000Y-8730000D01*
X12200000Y-6490000D02*
X12200000Y-6250000D01*
X21820000Y-11000000D02*
G75*
G02*
X21420000Y-11000000I-200000J0D01*
G01*
X21420000Y-11000000D02*
G75*
G02*
X21820000Y-11000000I200000J0D01*
G01*
X22000000Y-8730000D02*
X22000000Y-9250000D01*
X15160000Y-6610000D02*
G75*
G02*
X15160000Y-6450000I60000J80000D01*
G01*
D11*
D12*
X17420000Y-10550000D02*
X17520000Y-10650000D01*
X17520000Y-10550000D02*
X17420000Y-10650000D01*
X17420000Y-11350000D02*
X17520000Y-11450000D01*
X17520000Y-11350000D02*
X17420000Y-11450000D01*
D11*
X9458277Y-13613984D02*
X9458277Y-13413984D01*
X9458277Y-13413984D02*
X9505896Y-13413984D01*
X9505896Y-13413984D02*
X9534467Y-13423508D01*
X9534467Y-13423508D02*
X9553515Y-13442555D01*
X9553515Y-13442555D02*
X9563039Y-13461603D01*
X9563039Y-13461603D02*
X9572563Y-13499698D01*
X9572563Y-13499698D02*
X9572563Y-13528269D01*
X9572563Y-13528269D02*
X9563039Y-13566365D01*
X9563039Y-13566365D02*
X9553515Y-13585412D01*
X9553515Y-13585412D02*
X9534467Y-13604460D01*
X9534467Y-13604460D02*
X9505896Y-13613984D01*
X9505896Y-13613984D02*
X9458277Y-13613984D01*
X9658277Y-13613984D02*
X9658277Y-13480650D01*
X9658277Y-13518746D02*
X9667801Y-13499698D01*
X9667801Y-13499698D02*
X9677324Y-13490174D01*
X9677324Y-13490174D02*
X9696372Y-13480650D01*
X9696372Y-13480650D02*
X9715420Y-13480650D01*
X9782086Y-13613984D02*
X9782086Y-13480650D01*
X9782086Y-13413984D02*
X9772563Y-13423508D01*
X9772563Y-13423508D02*
X9782086Y-13433031D01*
X9782086Y-13433031D02*
X9791610Y-13423508D01*
X9791610Y-13423508D02*
X9782086Y-13413984D01*
X9782086Y-13413984D02*
X9782086Y-13433031D01*
X9905896Y-13613984D02*
X9886848Y-13604460D01*
X9886848Y-13604460D02*
X9877324Y-13585412D01*
X9877324Y-13585412D02*
X9877324Y-13413984D01*
X10010658Y-13613984D02*
X9991610Y-13604460D01*
X9991610Y-13604460D02*
X9982086Y-13585412D01*
X9982086Y-13585412D02*
X9982086Y-13413984D01*
X10239229Y-13613984D02*
X10239229Y-13413984D01*
X10239229Y-13413984D02*
X10305896Y-13556841D01*
X10305896Y-13556841D02*
X10372563Y-13413984D01*
X10372563Y-13413984D02*
X10372563Y-13613984D01*
X10553515Y-13613984D02*
X10553515Y-13509222D01*
X10553515Y-13509222D02*
X10543991Y-13490174D01*
X10543991Y-13490174D02*
X10524944Y-13480650D01*
X10524944Y-13480650D02*
X10486848Y-13480650D01*
X10486848Y-13480650D02*
X10467801Y-13490174D01*
X10553515Y-13604460D02*
X10534467Y-13613984D01*
X10534467Y-13613984D02*
X10486848Y-13613984D01*
X10486848Y-13613984D02*
X10467801Y-13604460D01*
X10467801Y-13604460D02*
X10458277Y-13585412D01*
X10458277Y-13585412D02*
X10458277Y-13566365D01*
X10458277Y-13566365D02*
X10467801Y-13547317D01*
X10467801Y-13547317D02*
X10486848Y-13537793D01*
X10486848Y-13537793D02*
X10534467Y-13537793D01*
X10534467Y-13537793D02*
X10553515Y-13528269D01*
X10648753Y-13480650D02*
X10648753Y-13680650D01*
X10648753Y-13490174D02*
X10667801Y-13480650D01*
X10667801Y-13480650D02*
X10705896Y-13480650D01*
X10705896Y-13480650D02*
X10724944Y-13490174D01*
X10724944Y-13490174D02*
X10734467Y-13499698D01*
X10734467Y-13499698D02*
X10743991Y-13518746D01*
X10743991Y-13518746D02*
X10743991Y-13575888D01*
X10743991Y-13575888D02*
X10734467Y-13594936D01*
X10734467Y-13594936D02*
X10724944Y-13604460D01*
X10724944Y-13604460D02*
X10705896Y-13613984D01*
X10705896Y-13613984D02*
X10667801Y-13613984D01*
X10667801Y-13613984D02*
X10648753Y-13604460D01*
X10829705Y-13594936D02*
X10839229Y-13604460D01*
X10839229Y-13604460D02*
X10829705Y-13613984D01*
X10829705Y-13613984D02*
X10820182Y-13604460D01*
X10820182Y-13604460D02*
X10829705Y-13594936D01*
X10829705Y-13594936D02*
X10829705Y-13613984D01*
X10829705Y-13490174D02*
X10839229Y-13499698D01*
X10839229Y-13499698D02*
X10829705Y-13509222D01*
X10829705Y-13509222D02*
X10820182Y-13499698D01*
X10820182Y-13499698D02*
X10829705Y-13490174D01*
X10829705Y-13490174D02*
X10829705Y-13509222D01*
D12*
X9097500Y-13892500D02*
X9197500Y-13992500D01*
X9197500Y-13892500D02*
X9097500Y-13992500D01*
D11*
X9563039Y-14033984D02*
X9448753Y-14033984D01*
X9505896Y-14033984D02*
X9505896Y-13833984D01*
X9505896Y-13833984D02*
X9486848Y-13862555D01*
X9486848Y-13862555D02*
X9467801Y-13881603D01*
X9467801Y-13881603D02*
X9448753Y-13891127D01*
X9648753Y-14014936D02*
X9658277Y-14024460D01*
X9658277Y-14024460D02*
X9648753Y-14033984D01*
X9648753Y-14033984D02*
X9639229Y-14024460D01*
X9639229Y-14024460D02*
X9648753Y-14014936D01*
X9648753Y-14014936D02*
X9648753Y-14033984D01*
X9782086Y-13833984D02*
X9801134Y-13833984D01*
X9801134Y-13833984D02*
X9820182Y-13843508D01*
X9820182Y-13843508D02*
X9829705Y-13853031D01*
X9829705Y-13853031D02*
X9839229Y-13872079D01*
X9839229Y-13872079D02*
X9848753Y-13910174D01*
X9848753Y-13910174D02*
X9848753Y-13957793D01*
X9848753Y-13957793D02*
X9839229Y-13995888D01*
X9839229Y-13995888D02*
X9829705Y-14014936D01*
X9829705Y-14014936D02*
X9820182Y-14024460D01*
X9820182Y-14024460D02*
X9801134Y-14033984D01*
X9801134Y-14033984D02*
X9782086Y-14033984D01*
X9782086Y-14033984D02*
X9763039Y-14024460D01*
X9763039Y-14024460D02*
X9753515Y-14014936D01*
X9753515Y-14014936D02*
X9743991Y-13995888D01*
X9743991Y-13995888D02*
X9734467Y-13957793D01*
X9734467Y-13957793D02*
X9734467Y-13910174D01*
X9734467Y-13910174D02*
X9743991Y-13872079D01*
X9743991Y-13872079D02*
X9753515Y-13853031D01*
X9753515Y-13853031D02*
X9763039Y-13843508D01*
X9763039Y-13843508D02*
X9782086Y-13833984D01*
X9972563Y-13833984D02*
X9991610Y-13833984D01*
X9991610Y-13833984D02*
X10010658Y-13843508D01*
X10010658Y-13843508D02*
X10020182Y-13853031D01*
X10020182Y-13853031D02*
X10029705Y-13872079D01*
X10029705Y-13872079D02*
X10039229Y-13910174D01*
X10039229Y-13910174D02*
X10039229Y-13957793D01*
X10039229Y-13957793D02*
X10029705Y-13995888D01*
X10029705Y-13995888D02*
X10020182Y-14014936D01*
X10020182Y-14014936D02*
X10010658Y-14024460D01*
X10010658Y-14024460D02*
X9991610Y-14033984D01*
X9991610Y-14033984D02*
X9972563Y-14033984D01*
X9972563Y-14033984D02*
X9953515Y-14024460D01*
X9953515Y-14024460D02*
X9943991Y-14014936D01*
X9943991Y-14014936D02*
X9934467Y-13995888D01*
X9934467Y-13995888D02*
X9924944Y-13957793D01*
X9924944Y-13957793D02*
X9924944Y-13910174D01*
X9924944Y-13910174D02*
X9934467Y-13872079D01*
X9934467Y-13872079D02*
X9943991Y-13853031D01*
X9943991Y-13853031D02*
X9953515Y-13843508D01*
X9953515Y-13843508D02*
X9972563Y-13833984D01*
X10163039Y-13833984D02*
X10182086Y-13833984D01*
X10182086Y-13833984D02*
X10201134Y-13843508D01*
X10201134Y-13843508D02*
X10210658Y-13853031D01*
X10210658Y-13853031D02*
X10220182Y-13872079D01*
X10220182Y-13872079D02*
X10229705Y-13910174D01*
X10229705Y-13910174D02*
X10229705Y-13957793D01*
X10229705Y-13957793D02*
X10220182Y-13995888D01*
X10220182Y-13995888D02*
X10210658Y-14014936D01*
X10210658Y-14014936D02*
X10201134Y-14024460D01*
X10201134Y-14024460D02*
X10182086Y-14033984D01*
X10182086Y-14033984D02*
X10163039Y-14033984D01*
X10163039Y-14033984D02*
X10143991Y-14024460D01*
X10143991Y-14024460D02*
X10134467Y-14014936D01*
X10134467Y-14014936D02*
X10124944Y-13995888D01*
X10124944Y-13995888D02*
X10115420Y-13957793D01*
X10115420Y-13957793D02*
X10115420Y-13910174D01*
X10115420Y-13910174D02*
X10124944Y-13872079D01*
X10124944Y-13872079D02*
X10134467Y-13853031D01*
X10134467Y-13853031D02*
X10143991Y-13843508D01*
X10143991Y-13843508D02*
X10163039Y-13833984D01*
X10315420Y-14033984D02*
X10315420Y-13900650D01*
X10315420Y-13919698D02*
X10324944Y-13910174D01*
X10324944Y-13910174D02*
X10343991Y-13900650D01*
X10343991Y-13900650D02*
X10372563Y-13900650D01*
X10372563Y-13900650D02*
X10391610Y-13910174D01*
X10391610Y-13910174D02*
X10401134Y-13929222D01*
X10401134Y-13929222D02*
X10401134Y-14033984D01*
X10401134Y-13929222D02*
X10410658Y-13910174D01*
X10410658Y-13910174D02*
X10429705Y-13900650D01*
X10429705Y-13900650D02*
X10458277Y-13900650D01*
X10458277Y-13900650D02*
X10477325Y-13910174D01*
X10477325Y-13910174D02*
X10486848Y-13929222D01*
X10486848Y-13929222D02*
X10486848Y-14033984D01*
X10582086Y-14033984D02*
X10582086Y-13900650D01*
X10582086Y-13919698D02*
X10591610Y-13910174D01*
X10591610Y-13910174D02*
X10610658Y-13900650D01*
X10610658Y-13900650D02*
X10639229Y-13900650D01*
X10639229Y-13900650D02*
X10658277Y-13910174D01*
X10658277Y-13910174D02*
X10667801Y-13929222D01*
X10667801Y-13929222D02*
X10667801Y-14033984D01*
X10667801Y-13929222D02*
X10677325Y-13910174D01*
X10677325Y-13910174D02*
X10696372Y-13900650D01*
X10696372Y-13900650D02*
X10724944Y-13900650D01*
X10724944Y-13900650D02*
X10743991Y-13910174D01*
X10743991Y-13910174D02*
X10753515Y-13929222D01*
X10753515Y-13929222D02*
X10753515Y-14033984D01*
X11143991Y-13824460D02*
X10972563Y-14081603D01*
X11401134Y-13833984D02*
X11420182Y-13833984D01*
X11420182Y-13833984D02*
X11439229Y-13843508D01*
X11439229Y-13843508D02*
X11448753Y-13853031D01*
X11448753Y-13853031D02*
X11458277Y-13872079D01*
X11458277Y-13872079D02*
X11467801Y-13910174D01*
X11467801Y-13910174D02*
X11467801Y-13957793D01*
X11467801Y-13957793D02*
X11458277Y-13995888D01*
X11458277Y-13995888D02*
X11448753Y-14014936D01*
X11448753Y-14014936D02*
X11439229Y-14024460D01*
X11439229Y-14024460D02*
X11420182Y-14033984D01*
X11420182Y-14033984D02*
X11401134Y-14033984D01*
X11401134Y-14033984D02*
X11382086Y-14024460D01*
X11382086Y-14024460D02*
X11372563Y-14014936D01*
X11372563Y-14014936D02*
X11363039Y-13995888D01*
X11363039Y-13995888D02*
X11353515Y-13957793D01*
X11353515Y-13957793D02*
X11353515Y-13910174D01*
X11353515Y-13910174D02*
X11363039Y-13872079D01*
X11363039Y-13872079D02*
X11372563Y-13853031D01*
X11372563Y-13853031D02*
X11382086Y-13843508D01*
X11382086Y-13843508D02*
X11401134Y-13833984D01*
X11553515Y-14014936D02*
X11563039Y-14024460D01*
X11563039Y-14024460D02*
X11553515Y-14033984D01*
X11553515Y-14033984D02*
X11543991Y-14024460D01*
X11543991Y-14024460D02*
X11553515Y-14014936D01*
X11553515Y-14014936D02*
X11553515Y-14033984D01*
X11686848Y-13833984D02*
X11705896Y-13833984D01*
X11705896Y-13833984D02*
X11724944Y-13843508D01*
X11724944Y-13843508D02*
X11734467Y-13853031D01*
X11734467Y-13853031D02*
X11743991Y-13872079D01*
X11743991Y-13872079D02*
X11753515Y-13910174D01*
X11753515Y-13910174D02*
X11753515Y-13957793D01*
X11753515Y-13957793D02*
X11743991Y-13995888D01*
X11743991Y-13995888D02*
X11734467Y-14014936D01*
X11734467Y-14014936D02*
X11724944Y-14024460D01*
X11724944Y-14024460D02*
X11705896Y-14033984D01*
X11705896Y-14033984D02*
X11686848Y-14033984D01*
X11686848Y-14033984D02*
X11667801Y-14024460D01*
X11667801Y-14024460D02*
X11658277Y-14014936D01*
X11658277Y-14014936D02*
X11648753Y-13995888D01*
X11648753Y-13995888D02*
X11639229Y-13957793D01*
X11639229Y-13957793D02*
X11639229Y-13910174D01*
X11639229Y-13910174D02*
X11648753Y-13872079D01*
X11648753Y-13872079D02*
X11658277Y-13853031D01*
X11658277Y-13853031D02*
X11667801Y-13843508D01*
X11667801Y-13843508D02*
X11686848Y-13833984D01*
X11820182Y-13833984D02*
X11943991Y-13833984D01*
X11943991Y-13833984D02*
X11877325Y-13910174D01*
X11877325Y-13910174D02*
X11905896Y-13910174D01*
X11905896Y-13910174D02*
X11924944Y-13919698D01*
X11924944Y-13919698D02*
X11934467Y-13929222D01*
X11934467Y-13929222D02*
X11943991Y-13948269D01*
X11943991Y-13948269D02*
X11943991Y-13995888D01*
X11943991Y-13995888D02*
X11934467Y-14014936D01*
X11934467Y-14014936D02*
X11924944Y-14024460D01*
X11924944Y-14024460D02*
X11905896Y-14033984D01*
X11905896Y-14033984D02*
X11848753Y-14033984D01*
X11848753Y-14033984D02*
X11829706Y-14024460D01*
X11829706Y-14024460D02*
X11820182Y-14014936D01*
X12039229Y-14033984D02*
X12077325Y-14033984D01*
X12077325Y-14033984D02*
X12096372Y-14024460D01*
X12096372Y-14024460D02*
X12105896Y-14014936D01*
X12105896Y-14014936D02*
X12124944Y-13986365D01*
X12124944Y-13986365D02*
X12134467Y-13948269D01*
X12134467Y-13948269D02*
X12134467Y-13872079D01*
X12134467Y-13872079D02*
X12124944Y-13853031D01*
X12124944Y-13853031D02*
X12115420Y-13843508D01*
X12115420Y-13843508D02*
X12096372Y-13833984D01*
X12096372Y-13833984D02*
X12058277Y-13833984D01*
X12058277Y-13833984D02*
X12039229Y-13843508D01*
X12039229Y-13843508D02*
X12029706Y-13853031D01*
X12029706Y-13853031D02*
X12020182Y-13872079D01*
X12020182Y-13872079D02*
X12020182Y-13919698D01*
X12020182Y-13919698D02*
X12029706Y-13938746D01*
X12029706Y-13938746D02*
X12039229Y-13948269D01*
X12039229Y-13948269D02*
X12058277Y-13957793D01*
X12058277Y-13957793D02*
X12096372Y-13957793D01*
X12096372Y-13957793D02*
X12115420Y-13948269D01*
X12115420Y-13948269D02*
X12124944Y-13938746D01*
X12124944Y-13938746D02*
X12134467Y-13919698D01*
X12305896Y-13900650D02*
X12305896Y-14033984D01*
X12258277Y-13824460D02*
X12210658Y-13967317D01*
X12210658Y-13967317D02*
X12334467Y-13967317D01*
X12401134Y-13833984D02*
X12401134Y-13872079D01*
X12477325Y-13833984D02*
X12477325Y-13872079D01*
X12772563Y-14110174D02*
X12763039Y-14100650D01*
X12763039Y-14100650D02*
X12743991Y-14072079D01*
X12743991Y-14072079D02*
X12734468Y-14053031D01*
X12734468Y-14053031D02*
X12724944Y-14024460D01*
X12724944Y-14024460D02*
X12715420Y-13976841D01*
X12715420Y-13976841D02*
X12715420Y-13938746D01*
X12715420Y-13938746D02*
X12724944Y-13891127D01*
X12724944Y-13891127D02*
X12734468Y-13862555D01*
X12734468Y-13862555D02*
X12743991Y-13843508D01*
X12743991Y-13843508D02*
X12763039Y-13814936D01*
X12763039Y-13814936D02*
X12772563Y-13805412D01*
X12839229Y-13853031D02*
X12848753Y-13843508D01*
X12848753Y-13843508D02*
X12867801Y-13833984D01*
X12867801Y-13833984D02*
X12915420Y-13833984D01*
X12915420Y-13833984D02*
X12934468Y-13843508D01*
X12934468Y-13843508D02*
X12943991Y-13853031D01*
X12943991Y-13853031D02*
X12953515Y-13872079D01*
X12953515Y-13872079D02*
X12953515Y-13891127D01*
X12953515Y-13891127D02*
X12943991Y-13919698D01*
X12943991Y-13919698D02*
X12829706Y-14033984D01*
X12829706Y-14033984D02*
X12953515Y-14033984D01*
X13191610Y-14033984D02*
X13191610Y-13833984D01*
X13277325Y-14033984D02*
X13277325Y-13929222D01*
X13277325Y-13929222D02*
X13267801Y-13910174D01*
X13267801Y-13910174D02*
X13248753Y-13900650D01*
X13248753Y-13900650D02*
X13220182Y-13900650D01*
X13220182Y-13900650D02*
X13201134Y-13910174D01*
X13201134Y-13910174D02*
X13191610Y-13919698D01*
X13401134Y-14033984D02*
X13382087Y-14024460D01*
X13382087Y-14024460D02*
X13372563Y-14014936D01*
X13372563Y-14014936D02*
X13363039Y-13995888D01*
X13363039Y-13995888D02*
X13363039Y-13938746D01*
X13363039Y-13938746D02*
X13372563Y-13919698D01*
X13372563Y-13919698D02*
X13382087Y-13910174D01*
X13382087Y-13910174D02*
X13401134Y-13900650D01*
X13401134Y-13900650D02*
X13429706Y-13900650D01*
X13429706Y-13900650D02*
X13448753Y-13910174D01*
X13448753Y-13910174D02*
X13458277Y-13919698D01*
X13458277Y-13919698D02*
X13467801Y-13938746D01*
X13467801Y-13938746D02*
X13467801Y-13995888D01*
X13467801Y-13995888D02*
X13458277Y-14014936D01*
X13458277Y-14014936D02*
X13448753Y-14024460D01*
X13448753Y-14024460D02*
X13429706Y-14033984D01*
X13429706Y-14033984D02*
X13401134Y-14033984D01*
X13582087Y-14033984D02*
X13563039Y-14024460D01*
X13563039Y-14024460D02*
X13553515Y-14005412D01*
X13553515Y-14005412D02*
X13553515Y-13833984D01*
X13734468Y-14024460D02*
X13715420Y-14033984D01*
X13715420Y-14033984D02*
X13677325Y-14033984D01*
X13677325Y-14033984D02*
X13658277Y-14024460D01*
X13658277Y-14024460D02*
X13648753Y-14005412D01*
X13648753Y-14005412D02*
X13648753Y-13929222D01*
X13648753Y-13929222D02*
X13658277Y-13910174D01*
X13658277Y-13910174D02*
X13677325Y-13900650D01*
X13677325Y-13900650D02*
X13715420Y-13900650D01*
X13715420Y-13900650D02*
X13734468Y-13910174D01*
X13734468Y-13910174D02*
X13743991Y-13929222D01*
X13743991Y-13929222D02*
X13743991Y-13948269D01*
X13743991Y-13948269D02*
X13648753Y-13967317D01*
X13820182Y-14024460D02*
X13839230Y-14033984D01*
X13839230Y-14033984D02*
X13877325Y-14033984D01*
X13877325Y-14033984D02*
X13896372Y-14024460D01*
X13896372Y-14024460D02*
X13905896Y-14005412D01*
X13905896Y-14005412D02*
X13905896Y-13995888D01*
X13905896Y-13995888D02*
X13896372Y-13976841D01*
X13896372Y-13976841D02*
X13877325Y-13967317D01*
X13877325Y-13967317D02*
X13848753Y-13967317D01*
X13848753Y-13967317D02*
X13829706Y-13957793D01*
X13829706Y-13957793D02*
X13820182Y-13938746D01*
X13820182Y-13938746D02*
X13820182Y-13929222D01*
X13820182Y-13929222D02*
X13829706Y-13910174D01*
X13829706Y-13910174D02*
X13848753Y-13900650D01*
X13848753Y-13900650D02*
X13877325Y-13900650D01*
X13877325Y-13900650D02*
X13896372Y-13910174D01*
X13972563Y-14110174D02*
X13982087Y-14100650D01*
X13982087Y-14100650D02*
X14001134Y-14072079D01*
X14001134Y-14072079D02*
X14010658Y-14053031D01*
X14010658Y-14053031D02*
X14020182Y-14024460D01*
X14020182Y-14024460D02*
X14029706Y-13976841D01*
X14029706Y-13976841D02*
X14029706Y-13938746D01*
X14029706Y-13938746D02*
X14020182Y-13891127D01*
X14020182Y-13891127D02*
X14010658Y-13862555D01*
X14010658Y-13862555D02*
X14001134Y-13843508D01*
X14001134Y-13843508D02*
X13982087Y-13814936D01*
X13982087Y-13814936D02*
X13972563Y-13805412D01*
X14334468Y-14110174D02*
X14324944Y-14100650D01*
X14324944Y-14100650D02*
X14305896Y-14072079D01*
X14305896Y-14072079D02*
X14296372Y-14053031D01*
X14296372Y-14053031D02*
X14286849Y-14024460D01*
X14286849Y-14024460D02*
X14277325Y-13976841D01*
X14277325Y-13976841D02*
X14277325Y-13938746D01*
X14277325Y-13938746D02*
X14286849Y-13891127D01*
X14286849Y-13891127D02*
X14296372Y-13862555D01*
X14296372Y-13862555D02*
X14305896Y-13843508D01*
X14305896Y-13843508D02*
X14324944Y-13814936D01*
X14324944Y-13814936D02*
X14334468Y-13805412D01*
X14410658Y-13900650D02*
X14410658Y-14033984D01*
X14410658Y-13919698D02*
X14420182Y-13910174D01*
X14420182Y-13910174D02*
X14439230Y-13900650D01*
X14439230Y-13900650D02*
X14467801Y-13900650D01*
X14467801Y-13900650D02*
X14486849Y-13910174D01*
X14486849Y-13910174D02*
X14496372Y-13929222D01*
X14496372Y-13929222D02*
X14496372Y-14033984D01*
X14620182Y-14033984D02*
X14601134Y-14024460D01*
X14601134Y-14024460D02*
X14591611Y-14014936D01*
X14591611Y-14014936D02*
X14582087Y-13995888D01*
X14582087Y-13995888D02*
X14582087Y-13938746D01*
X14582087Y-13938746D02*
X14591611Y-13919698D01*
X14591611Y-13919698D02*
X14601134Y-13910174D01*
X14601134Y-13910174D02*
X14620182Y-13900650D01*
X14620182Y-13900650D02*
X14648753Y-13900650D01*
X14648753Y-13900650D02*
X14667801Y-13910174D01*
X14667801Y-13910174D02*
X14677325Y-13919698D01*
X14677325Y-13919698D02*
X14686849Y-13938746D01*
X14686849Y-13938746D02*
X14686849Y-13995888D01*
X14686849Y-13995888D02*
X14677325Y-14014936D01*
X14677325Y-14014936D02*
X14667801Y-14024460D01*
X14667801Y-14024460D02*
X14648753Y-14033984D01*
X14648753Y-14033984D02*
X14620182Y-14033984D01*
X14743992Y-13900650D02*
X14820182Y-13900650D01*
X14772563Y-13833984D02*
X14772563Y-14005412D01*
X14772563Y-14005412D02*
X14782087Y-14024460D01*
X14782087Y-14024460D02*
X14801134Y-14033984D01*
X14801134Y-14033984D02*
X14820182Y-14033984D01*
X15039230Y-13900650D02*
X15039230Y-14100650D01*
X15039230Y-13910174D02*
X15058277Y-13900650D01*
X15058277Y-13900650D02*
X15096373Y-13900650D01*
X15096373Y-13900650D02*
X15115420Y-13910174D01*
X15115420Y-13910174D02*
X15124944Y-13919698D01*
X15124944Y-13919698D02*
X15134468Y-13938746D01*
X15134468Y-13938746D02*
X15134468Y-13995888D01*
X15134468Y-13995888D02*
X15124944Y-14014936D01*
X15124944Y-14014936D02*
X15115420Y-14024460D01*
X15115420Y-14024460D02*
X15096373Y-14033984D01*
X15096373Y-14033984D02*
X15058277Y-14033984D01*
X15058277Y-14033984D02*
X15039230Y-14024460D01*
X15248753Y-14033984D02*
X15229706Y-14024460D01*
X15229706Y-14024460D02*
X15220182Y-14005412D01*
X15220182Y-14005412D02*
X15220182Y-13833984D01*
X15410658Y-14033984D02*
X15410658Y-13929222D01*
X15410658Y-13929222D02*
X15401134Y-13910174D01*
X15401134Y-13910174D02*
X15382087Y-13900650D01*
X15382087Y-13900650D02*
X15343992Y-13900650D01*
X15343992Y-13900650D02*
X15324944Y-13910174D01*
X15410658Y-14024460D02*
X15391611Y-14033984D01*
X15391611Y-14033984D02*
X15343992Y-14033984D01*
X15343992Y-14033984D02*
X15324944Y-14024460D01*
X15324944Y-14024460D02*
X15315420Y-14005412D01*
X15315420Y-14005412D02*
X15315420Y-13986365D01*
X15315420Y-13986365D02*
X15324944Y-13967317D01*
X15324944Y-13967317D02*
X15343992Y-13957793D01*
X15343992Y-13957793D02*
X15391611Y-13957793D01*
X15391611Y-13957793D02*
X15410658Y-13948269D01*
X15477325Y-13900650D02*
X15553515Y-13900650D01*
X15505896Y-13833984D02*
X15505896Y-14005412D01*
X15505896Y-14005412D02*
X15515420Y-14024460D01*
X15515420Y-14024460D02*
X15534468Y-14033984D01*
X15534468Y-14033984D02*
X15553515Y-14033984D01*
X15696373Y-14024460D02*
X15677325Y-14033984D01*
X15677325Y-14033984D02*
X15639230Y-14033984D01*
X15639230Y-14033984D02*
X15620182Y-14024460D01*
X15620182Y-14024460D02*
X15610658Y-14005412D01*
X15610658Y-14005412D02*
X15610658Y-13929222D01*
X15610658Y-13929222D02*
X15620182Y-13910174D01*
X15620182Y-13910174D02*
X15639230Y-13900650D01*
X15639230Y-13900650D02*
X15677325Y-13900650D01*
X15677325Y-13900650D02*
X15696373Y-13910174D01*
X15696373Y-13910174D02*
X15705896Y-13929222D01*
X15705896Y-13929222D02*
X15705896Y-13948269D01*
X15705896Y-13948269D02*
X15610658Y-13967317D01*
X15877325Y-14033984D02*
X15877325Y-13833984D01*
X15877325Y-14024460D02*
X15858277Y-14033984D01*
X15858277Y-14033984D02*
X15820182Y-14033984D01*
X15820182Y-14033984D02*
X15801134Y-14024460D01*
X15801134Y-14024460D02*
X15791611Y-14014936D01*
X15791611Y-14014936D02*
X15782087Y-13995888D01*
X15782087Y-13995888D02*
X15782087Y-13938746D01*
X15782087Y-13938746D02*
X15791611Y-13919698D01*
X15791611Y-13919698D02*
X15801134Y-13910174D01*
X15801134Y-13910174D02*
X15820182Y-13900650D01*
X15820182Y-13900650D02*
X15858277Y-13900650D01*
X15858277Y-13900650D02*
X15877325Y-13910174D01*
X15953515Y-14110174D02*
X15963039Y-14100650D01*
X15963039Y-14100650D02*
X15982087Y-14072079D01*
X15982087Y-14072079D02*
X15991611Y-14053031D01*
X15991611Y-14053031D02*
X16001134Y-14024460D01*
X16001134Y-14024460D02*
X16010658Y-13976841D01*
X16010658Y-13976841D02*
X16010658Y-13938746D01*
X16010658Y-13938746D02*
X16001134Y-13891127D01*
X16001134Y-13891127D02*
X15991611Y-13862555D01*
X15991611Y-13862555D02*
X15982087Y-13843508D01*
X15982087Y-13843508D02*
X15963039Y-13814936D01*
X15963039Y-13814936D02*
X15953515Y-13805412D01*
M02*
