%TF.GenerationSoftware,KiCad,Pcbnew,8.0.5-8.0.5-0~ubuntu24.04.1*%
%TF.CreationDate,2024-10-16T00:53:39+08:00*%
%TF.ProjectId,EL6170_Pro_Max_Plus,454c3631-3730-45f5-9072-6f5f4d61785f,rev?*%
%TF.SameCoordinates,Original*%
%TF.FileFunction,Soldermask,Top*%
%TF.FilePolarity,Negative*%
%FSLAX46Y46*%
G04 Gerber Fmt 4.6, Leading zero omitted, Abs format (unit mm)*
G04 Created by KiCad (PCBNEW 8.0.5-8.0.5-0~ubuntu24.04.1) date 2024-10-16 00:53:39*
%MOMM*%
%LPD*%
G01*
G04 APERTURE LIST*
G04 Aperture macros list*
%AMRoundRect*
0 Rectangle with rounded corners*
0 $1 Rounding radius*
0 $2 $3 $4 $5 $6 $7 $8 $9 X,Y pos of 4 corners*
0 Add a 4 corners polygon primitive as box body*
4,1,4,$2,$3,$4,$5,$6,$7,$8,$9,$2,$3,0*
0 Add four circle primitives for the rounded corners*
1,1,$1+$1,$2,$3*
1,1,$1+$1,$4,$5*
1,1,$1+$1,$6,$7*
1,1,$1+$1,$8,$9*
0 Add four rect primitives between the rounded corners*
20,1,$1+$1,$2,$3,$4,$5,0*
20,1,$1+$1,$4,$5,$6,$7,0*
20,1,$1+$1,$6,$7,$8,$9,0*
20,1,$1+$1,$8,$9,$2,$3,0*%
G04 Aperture macros list end*
%ADD10C,0.100000*%
%ADD11C,0.150000*%
%ADD12C,0.040000*%
%ADD13C,0.000000*%
%ADD14C,2.550000*%
%ADD15RoundRect,0.140000X0.140000X0.170000X-0.140000X0.170000X-0.140000X-0.170000X0.140000X-0.170000X0*%
%ADD16RoundRect,0.135000X0.135000X0.185000X-0.135000X0.185000X-0.135000X-0.185000X0.135000X-0.185000X0*%
%ADD17RoundRect,0.200000X0.200000X0.275000X-0.200000X0.275000X-0.200000X-0.275000X0.200000X-0.275000X0*%
%ADD18RoundRect,0.140000X0.219203X0.021213X0.021213X0.219203X-0.219203X-0.021213X-0.021213X-0.219203X0*%
%ADD19RoundRect,0.150000X0.150000X-0.587500X0.150000X0.587500X-0.150000X0.587500X-0.150000X-0.587500X0*%
%ADD20RoundRect,0.225000X0.225000X0.250000X-0.225000X0.250000X-0.225000X-0.250000X0.225000X-0.250000X0*%
%ADD21RoundRect,0.140000X-0.170000X0.140000X-0.170000X-0.140000X0.170000X-0.140000X0.170000X0.140000X0*%
%ADD22RoundRect,0.200000X-0.275000X0.200000X-0.275000X-0.200000X0.275000X-0.200000X0.275000X0.200000X0*%
%ADD23RoundRect,0.100000X-0.637500X-0.100000X0.637500X-0.100000X0.637500X0.100000X-0.637500X0.100000X0*%
%ADD24RoundRect,0.225000X-0.225000X-0.250000X0.225000X-0.250000X0.225000X0.250000X-0.225000X0.250000X0*%
%ADD25RoundRect,0.135000X-0.185000X0.135000X-0.185000X-0.135000X0.185000X-0.135000X0.185000X0.135000X0*%
%ADD26RoundRect,0.225000X0.250000X-0.225000X0.250000X0.225000X-0.250000X0.225000X-0.250000X-0.225000X0*%
%ADD27RoundRect,0.140000X-0.140000X-0.170000X0.140000X-0.170000X0.140000X0.170000X-0.140000X0.170000X0*%
%ADD28RoundRect,0.225000X-0.250000X0.225000X-0.250000X-0.225000X0.250000X-0.225000X0.250000X0.225000X0*%
%ADD29C,1.000000*%
%ADD30RoundRect,0.101600X0.800000X0.350000X-0.800000X0.350000X-0.800000X-0.350000X0.800000X-0.350000X0*%
%ADD31RoundRect,0.101600X0.800000X-0.600000X0.800000X0.600000X-0.800000X0.600000X-0.800000X-0.600000X0*%
%ADD32RoundRect,0.101600X1.100000X-0.600000X1.100000X0.600000X-1.100000X0.600000X-1.100000X-0.600000X0*%
%ADD33RoundRect,0.101600X0.700000X-0.800000X0.700000X0.800000X-0.700000X0.800000X-0.700000X-0.800000X0*%
%ADD34RoundRect,0.200000X-0.200000X-0.275000X0.200000X-0.275000X0.200000X0.275000X-0.200000X0.275000X0*%
%ADD35RoundRect,0.135000X-0.135000X-0.185000X0.135000X-0.185000X0.135000X0.185000X-0.135000X0.185000X0*%
%ADD36RoundRect,0.050000X0.300000X-0.150000X0.300000X0.150000X-0.300000X0.150000X-0.300000X-0.150000X0*%
%ADD37RoundRect,0.150000X0.150000X-0.512500X0.150000X0.512500X-0.150000X0.512500X-0.150000X-0.512500X0*%
%ADD38RoundRect,0.135000X0.226274X0.035355X0.035355X0.226274X-0.226274X-0.035355X-0.035355X-0.226274X0*%
%ADD39RoundRect,0.150000X-0.512500X-0.150000X0.512500X-0.150000X0.512500X0.150000X-0.512500X0.150000X0*%
%ADD40R,4.300000X2.400000*%
%ADD41RoundRect,0.050000X-0.300000X0.150000X-0.300000X-0.150000X0.300000X-0.150000X0.300000X0.150000X0*%
%ADD42C,1.300000*%
%ADD43R,1.500000X3.000000*%
%ADD44RoundRect,0.250000X-0.650000X1.000000X-0.650000X-1.000000X0.650000X-1.000000X0.650000X1.000000X0*%
%ADD45RoundRect,0.150000X-0.150000X0.587500X-0.150000X-0.587500X0.150000X-0.587500X0.150000X0.587500X0*%
%ADD46RoundRect,0.150000X-0.587500X-0.150000X0.587500X-0.150000X0.587500X0.150000X-0.587500X0.150000X0*%
%ADD47RoundRect,0.140000X0.170000X-0.140000X0.170000X0.140000X-0.170000X0.140000X-0.170000X-0.140000X0*%
%ADD48R,2.000000X2.000000*%
%ADD49R,1.600000X0.400000*%
%ADD50O,1.600000X1.000000*%
%ADD51R,1.000000X0.900000*%
%ADD52RoundRect,0.150000X0.687500X0.150000X-0.687500X0.150000X-0.687500X-0.150000X0.687500X-0.150000X0*%
%ADD53R,2.100000X3.300000*%
%ADD54RoundRect,0.100000X-0.712500X-0.100000X0.712500X-0.100000X0.712500X0.100000X-0.712500X0.100000X0*%
%ADD55RoundRect,0.200000X0.275000X-0.200000X0.275000X0.200000X-0.275000X0.200000X-0.275000X-0.200000X0*%
%ADD56RoundRect,0.250000X-1.000000X-0.650000X1.000000X-0.650000X1.000000X0.650000X-1.000000X0.650000X0*%
%ADD57RoundRect,0.101600X0.950000X-2.650000X0.950000X2.650000X-0.950000X2.650000X-0.950000X-2.650000X0*%
%ADD58R,1.750000X0.450000*%
%ADD59RoundRect,0.218750X-0.218750X-0.256250X0.218750X-0.256250X0.218750X0.256250X-0.218750X0.256250X0*%
%ADD60R,1.500000X0.900000*%
%ADD61R,0.900000X1.500000*%
%ADD62C,0.600000*%
%ADD63R,3.900000X3.900000*%
%ADD64RoundRect,0.135000X0.185000X-0.135000X0.185000X0.135000X-0.185000X0.135000X-0.185000X-0.135000X0*%
%ADD65R,1.800000X0.400000*%
%ADD66R,1.200000X0.600000*%
%ADD67R,2.400000X3.300000*%
%ADD68RoundRect,0.150000X0.512500X0.150000X-0.512500X0.150000X-0.512500X-0.150000X0.512500X-0.150000X0*%
%ADD69RoundRect,0.250000X-0.250000X-0.475000X0.250000X-0.475000X0.250000X0.475000X-0.250000X0.475000X0*%
%ADD70RoundRect,0.101600X0.900000X-0.500000X0.900000X0.500000X-0.900000X0.500000X-0.900000X-0.500000X0*%
G04 APERTURE END LIST*
D10*
X138403884Y-70072419D02*
X138403884Y-69072419D01*
X138403884Y-69072419D02*
X138784836Y-69072419D01*
X138784836Y-69072419D02*
X138880074Y-69120038D01*
X138880074Y-69120038D02*
X138927693Y-69167657D01*
X138927693Y-69167657D02*
X138975312Y-69262895D01*
X138975312Y-69262895D02*
X138975312Y-69405752D01*
X138975312Y-69405752D02*
X138927693Y-69500990D01*
X138927693Y-69500990D02*
X138880074Y-69548609D01*
X138880074Y-69548609D02*
X138784836Y-69596228D01*
X138784836Y-69596228D02*
X138403884Y-69596228D01*
X139403884Y-70072419D02*
X139403884Y-69405752D01*
X139403884Y-69596228D02*
X139451503Y-69500990D01*
X139451503Y-69500990D02*
X139499122Y-69453371D01*
X139499122Y-69453371D02*
X139594360Y-69405752D01*
X139594360Y-69405752D02*
X139689598Y-69405752D01*
X140165789Y-70072419D02*
X140070551Y-70024800D01*
X140070551Y-70024800D02*
X140022932Y-69977180D01*
X140022932Y-69977180D02*
X139975313Y-69881942D01*
X139975313Y-69881942D02*
X139975313Y-69596228D01*
X139975313Y-69596228D02*
X140022932Y-69500990D01*
X140022932Y-69500990D02*
X140070551Y-69453371D01*
X140070551Y-69453371D02*
X140165789Y-69405752D01*
X140165789Y-69405752D02*
X140308646Y-69405752D01*
X140308646Y-69405752D02*
X140403884Y-69453371D01*
X140403884Y-69453371D02*
X140451503Y-69500990D01*
X140451503Y-69500990D02*
X140499122Y-69596228D01*
X140499122Y-69596228D02*
X140499122Y-69881942D01*
X140499122Y-69881942D02*
X140451503Y-69977180D01*
X140451503Y-69977180D02*
X140403884Y-70024800D01*
X140403884Y-70024800D02*
X140308646Y-70072419D01*
X140308646Y-70072419D02*
X140165789Y-70072419D01*
X140927694Y-69405752D02*
X140927694Y-70262895D01*
X140927694Y-70262895D02*
X140880075Y-70358133D01*
X140880075Y-70358133D02*
X140784837Y-70405752D01*
X140784837Y-70405752D02*
X140737218Y-70405752D01*
X140927694Y-69072419D02*
X140880075Y-69120038D01*
X140880075Y-69120038D02*
X140927694Y-69167657D01*
X140927694Y-69167657D02*
X140975313Y-69120038D01*
X140975313Y-69120038D02*
X140927694Y-69072419D01*
X140927694Y-69072419D02*
X140927694Y-69167657D01*
X141784836Y-70024800D02*
X141689598Y-70072419D01*
X141689598Y-70072419D02*
X141499122Y-70072419D01*
X141499122Y-70072419D02*
X141403884Y-70024800D01*
X141403884Y-70024800D02*
X141356265Y-69929561D01*
X141356265Y-69929561D02*
X141356265Y-69548609D01*
X141356265Y-69548609D02*
X141403884Y-69453371D01*
X141403884Y-69453371D02*
X141499122Y-69405752D01*
X141499122Y-69405752D02*
X141689598Y-69405752D01*
X141689598Y-69405752D02*
X141784836Y-69453371D01*
X141784836Y-69453371D02*
X141832455Y-69548609D01*
X141832455Y-69548609D02*
X141832455Y-69643847D01*
X141832455Y-69643847D02*
X141356265Y-69739085D01*
X142689598Y-70024800D02*
X142594360Y-70072419D01*
X142594360Y-70072419D02*
X142403884Y-70072419D01*
X142403884Y-70072419D02*
X142308646Y-70024800D01*
X142308646Y-70024800D02*
X142261027Y-69977180D01*
X142261027Y-69977180D02*
X142213408Y-69881942D01*
X142213408Y-69881942D02*
X142213408Y-69596228D01*
X142213408Y-69596228D02*
X142261027Y-69500990D01*
X142261027Y-69500990D02*
X142308646Y-69453371D01*
X142308646Y-69453371D02*
X142403884Y-69405752D01*
X142403884Y-69405752D02*
X142594360Y-69405752D01*
X142594360Y-69405752D02*
X142689598Y-69453371D01*
X142975313Y-69405752D02*
X143356265Y-69405752D01*
X143118170Y-69072419D02*
X143118170Y-69929561D01*
X143118170Y-69929561D02*
X143165789Y-70024800D01*
X143165789Y-70024800D02*
X143261027Y-70072419D01*
X143261027Y-70072419D02*
X143356265Y-70072419D01*
D11*
G36*
X102113684Y-63401999D02*
G01*
X102164886Y-63413044D01*
X102210830Y-63431451D01*
X102256896Y-63461505D01*
X102272400Y-63475254D01*
X102307556Y-63516882D01*
X102332667Y-63564830D01*
X102346400Y-63611969D01*
X102352442Y-63663946D01*
X102352756Y-63679685D01*
X102348876Y-63733045D01*
X102337235Y-63781566D01*
X102314429Y-63831094D01*
X102281487Y-63874302D01*
X102271667Y-63884117D01*
X102227948Y-63917776D01*
X102177634Y-63941819D01*
X102128199Y-63954967D01*
X102073716Y-63960753D01*
X102057222Y-63961053D01*
X101825191Y-63961053D01*
X101825191Y-64430000D01*
X101754849Y-64430000D01*
X101754849Y-63898527D01*
X101825191Y-63898527D01*
X102057222Y-63898527D01*
X102105933Y-63894833D01*
X102154566Y-63881846D01*
X102200944Y-63856448D01*
X102221109Y-63839420D01*
X102253438Y-63798319D01*
X102273793Y-63749203D01*
X102281875Y-63698147D01*
X102282414Y-63679685D01*
X102277623Y-63625834D01*
X102263249Y-63578861D01*
X102236038Y-63534735D01*
X102221842Y-63519462D01*
X102179739Y-63488550D01*
X102129144Y-63469087D01*
X102076349Y-63461359D01*
X102057222Y-63460844D01*
X101825191Y-63460844D01*
X101825191Y-63898527D01*
X101754849Y-63898527D01*
X101754849Y-63398318D01*
X102057222Y-63398318D01*
X102113684Y-63401999D01*
G37*
G36*
X102624842Y-64430000D02*
G01*
X102624842Y-63648422D01*
X102695184Y-63648422D01*
X102695184Y-63773475D01*
X102716296Y-63728034D01*
X102748780Y-63687876D01*
X102770411Y-63670160D01*
X102817347Y-63645965D01*
X102867900Y-63634579D01*
X102900593Y-63632791D01*
X102953453Y-63636274D01*
X103006194Y-63648784D01*
X103050753Y-63670391D01*
X103091102Y-63705575D01*
X103121445Y-63751269D01*
X103140080Y-63799866D01*
X103149949Y-63848549D01*
X103153811Y-63902982D01*
X103153872Y-63911228D01*
X103153872Y-63982547D01*
X103083531Y-63982547D01*
X103083531Y-63911472D01*
X103080447Y-63861952D01*
X103069606Y-63813686D01*
X103048407Y-63769303D01*
X103034193Y-63750760D01*
X102994930Y-63719194D01*
X102944641Y-63700731D01*
X102895296Y-63695371D01*
X102889357Y-63695317D01*
X102839823Y-63699934D01*
X102792988Y-63715896D01*
X102751441Y-63746622D01*
X102745010Y-63753691D01*
X102716642Y-63799370D01*
X102701072Y-63850813D01*
X102695379Y-63905188D01*
X102695184Y-63918311D01*
X102695184Y-64430000D01*
X102624842Y-64430000D01*
G37*
G36*
X103752874Y-63636507D02*
G01*
X103806791Y-63649857D01*
X103854357Y-63672915D01*
X103895573Y-63705682D01*
X103900279Y-63710460D01*
X103932870Y-63752561D01*
X103956149Y-63801196D01*
X103968880Y-63849111D01*
X103974482Y-63902029D01*
X103974773Y-63918066D01*
X103974773Y-64160355D01*
X103971208Y-64214702D01*
X103960514Y-64264046D01*
X103939563Y-64314314D01*
X103909299Y-64358049D01*
X103900279Y-64367962D01*
X103859856Y-64401942D01*
X103813084Y-64426214D01*
X103759961Y-64440777D01*
X103708269Y-64445555D01*
X103700488Y-64445631D01*
X103648638Y-64441914D01*
X103595076Y-64428565D01*
X103547590Y-64405507D01*
X103506179Y-64372740D01*
X103501430Y-64367962D01*
X103468518Y-64325860D01*
X103445010Y-64277226D01*
X103432154Y-64229311D01*
X103426497Y-64176393D01*
X103426203Y-64160355D01*
X103426203Y-63918066D01*
X103426219Y-63917822D01*
X103496545Y-63917822D01*
X103496545Y-64160600D01*
X103499888Y-64210425D01*
X103511641Y-64259472D01*
X103534625Y-64305268D01*
X103550034Y-64324731D01*
X103591945Y-64357965D01*
X103638962Y-64376207D01*
X103688537Y-64382877D01*
X103700488Y-64383105D01*
X103751592Y-64378487D01*
X103800307Y-64362526D01*
X103844086Y-64331800D01*
X103850942Y-64324731D01*
X103879149Y-64283515D01*
X103896909Y-64233140D01*
X103903961Y-64179971D01*
X103904431Y-64160600D01*
X103904431Y-63917822D01*
X103901042Y-63868012D01*
X103889128Y-63819019D01*
X103865829Y-63773328D01*
X103850209Y-63753935D01*
X103808164Y-63720562D01*
X103761376Y-63702244D01*
X103712293Y-63695546D01*
X103700488Y-63695317D01*
X103649917Y-63699954D01*
X103601431Y-63715982D01*
X103557463Y-63746837D01*
X103550523Y-63753935D01*
X103522058Y-63795022D01*
X103504136Y-63845316D01*
X103497020Y-63898453D01*
X103496545Y-63917822D01*
X103426219Y-63917822D01*
X103429803Y-63863720D01*
X103440602Y-63814376D01*
X103461760Y-63764108D01*
X103492321Y-63720373D01*
X103501430Y-63710460D01*
X103542081Y-63676480D01*
X103588808Y-63652208D01*
X103641610Y-63637645D01*
X103692796Y-63632867D01*
X103700488Y-63632791D01*
X103752874Y-63636507D01*
G37*
G36*
X104272505Y-64680104D02*
G01*
X104272505Y-64617578D01*
X104435659Y-64617578D01*
X104488005Y-64613366D01*
X104537150Y-64598807D01*
X104580244Y-64570781D01*
X104586845Y-64564333D01*
X104616047Y-64522440D01*
X104632076Y-64474889D01*
X104637936Y-64424385D01*
X104638136Y-64412170D01*
X104638136Y-63710949D01*
X104265422Y-63710949D01*
X104265422Y-63648422D01*
X104708478Y-63648422D01*
X104708478Y-64411681D01*
X104705042Y-64464106D01*
X104692700Y-64517637D01*
X104671382Y-64564360D01*
X104641089Y-64604275D01*
X104636671Y-64608785D01*
X104597271Y-64639987D01*
X104550636Y-64662274D01*
X104496765Y-64675647D01*
X104443693Y-64680035D01*
X104435659Y-64680104D01*
X104272505Y-64680104D01*
G37*
G36*
X104652302Y-63492107D02*
G01*
X104603704Y-63479138D01*
X104593196Y-63470858D01*
X104571515Y-63426741D01*
X104570725Y-63413949D01*
X104585559Y-63365751D01*
X104593196Y-63357285D01*
X104639062Y-63336547D01*
X104652302Y-63335792D01*
X104700900Y-63348910D01*
X104711409Y-63357285D01*
X104733089Y-63401167D01*
X104733879Y-63413949D01*
X104719046Y-63462308D01*
X104711409Y-63470858D01*
X104665543Y-63491360D01*
X104652302Y-63492107D01*
G37*
G36*
X105433718Y-63636519D02*
G01*
X105481717Y-63647704D01*
X105530046Y-63669617D01*
X105571415Y-63701269D01*
X105580669Y-63710704D01*
X105612406Y-63752943D01*
X105635075Y-63801746D01*
X105647472Y-63849833D01*
X105652926Y-63902945D01*
X105653210Y-63919043D01*
X105653210Y-64054842D01*
X105174982Y-64054842D01*
X105174982Y-64161332D01*
X105179213Y-64215536D01*
X105191906Y-64263016D01*
X105215935Y-64307886D01*
X105228471Y-64323510D01*
X105266291Y-64354937D01*
X105312888Y-64374724D01*
X105362330Y-64382581D01*
X105380390Y-64383105D01*
X105431487Y-64378574D01*
X105480448Y-64363295D01*
X105512526Y-64344759D01*
X105549012Y-64308728D01*
X105571551Y-64263346D01*
X105577250Y-64239246D01*
X105647592Y-64239246D01*
X105633823Y-64289697D01*
X105611476Y-64333888D01*
X105580552Y-64371820D01*
X105559665Y-64390188D01*
X105516748Y-64416989D01*
X105467959Y-64435019D01*
X105419660Y-64443682D01*
X105380390Y-64445631D01*
X105326445Y-64441914D01*
X105277875Y-64430765D01*
X105228950Y-64408920D01*
X105187047Y-64377367D01*
X105177669Y-64367962D01*
X105145719Y-64325860D01*
X105122897Y-64277226D01*
X105110417Y-64229311D01*
X105104925Y-64176393D01*
X105104640Y-64160355D01*
X105104640Y-63918066D01*
X105174982Y-63918066D01*
X105174982Y-63992316D01*
X105582868Y-63992316D01*
X105582868Y-63918066D01*
X105578694Y-63863627D01*
X105566175Y-63815988D01*
X105542476Y-63771032D01*
X105530111Y-63755401D01*
X105492821Y-63723716D01*
X105446897Y-63703766D01*
X105398183Y-63695845D01*
X105380390Y-63695317D01*
X105328578Y-63700012D01*
X105279348Y-63716241D01*
X105238895Y-63744061D01*
X105228471Y-63754668D01*
X105200264Y-63796022D01*
X105182504Y-63846202D01*
X105175452Y-63898909D01*
X105174982Y-63918066D01*
X105104640Y-63918066D01*
X105108170Y-63863720D01*
X105118758Y-63814376D01*
X105139504Y-63764108D01*
X105169469Y-63720373D01*
X105178401Y-63710460D01*
X105218778Y-63676480D01*
X105265901Y-63652208D01*
X105319772Y-63637645D01*
X105372444Y-63632867D01*
X105380390Y-63632791D01*
X105433718Y-63636519D01*
G37*
G36*
X106230844Y-64445631D02*
G01*
X106177399Y-64441914D01*
X106129050Y-64430765D01*
X106080033Y-64408920D01*
X106037673Y-64377367D01*
X106028122Y-64367962D01*
X105995531Y-64325860D01*
X105972252Y-64277226D01*
X105959521Y-64229311D01*
X105953919Y-64176393D01*
X105953628Y-64160355D01*
X105953628Y-63918066D01*
X105957228Y-63863720D01*
X105968027Y-63814376D01*
X105989185Y-63764108D01*
X106019746Y-63720373D01*
X106028855Y-63710460D01*
X106069689Y-63676480D01*
X106116966Y-63652208D01*
X106170684Y-63637645D01*
X106222972Y-63632867D01*
X106230844Y-63632791D01*
X106284312Y-63636297D01*
X106332731Y-63646816D01*
X106381885Y-63667424D01*
X106424445Y-63697191D01*
X106434054Y-63706064D01*
X106466966Y-63745845D01*
X106490474Y-63791915D01*
X106504579Y-63844275D01*
X106509207Y-63895248D01*
X106509281Y-63902923D01*
X106438939Y-63902923D01*
X106434534Y-63851251D01*
X106419307Y-63801859D01*
X106389995Y-63757279D01*
X106383251Y-63750272D01*
X106340228Y-63718984D01*
X106292601Y-63701811D01*
X106242802Y-63695532D01*
X106230844Y-63695317D01*
X106180157Y-63699934D01*
X106131270Y-63715896D01*
X106090207Y-63743259D01*
X106079413Y-63753691D01*
X106050176Y-63794602D01*
X106031767Y-63844672D01*
X106024457Y-63897565D01*
X106023970Y-63916845D01*
X106023970Y-64161577D01*
X106027435Y-64210578D01*
X106039618Y-64259062D01*
X106063441Y-64304686D01*
X106079413Y-64324242D01*
X106118130Y-64355283D01*
X106164669Y-64374827D01*
X106213244Y-64382588D01*
X106230844Y-64383105D01*
X106282102Y-64378739D01*
X106331351Y-64363645D01*
X106376159Y-64334590D01*
X106383251Y-64327906D01*
X106414956Y-64284940D01*
X106432359Y-64237466D01*
X106438721Y-64187886D01*
X106438939Y-64175987D01*
X106509281Y-64175987D01*
X106505681Y-64227637D01*
X106492751Y-64280741D01*
X106470418Y-64327525D01*
X106438682Y-64367989D01*
X106434054Y-64372602D01*
X106393143Y-64404552D01*
X106345638Y-64427374D01*
X106291538Y-64441067D01*
X106238791Y-64445560D01*
X106230844Y-64445631D01*
G37*
G36*
X107134787Y-64430000D02*
G01*
X107083429Y-64425563D01*
X107036302Y-64410435D01*
X106998988Y-64384570D01*
X106970262Y-64344511D01*
X106955578Y-64297591D01*
X106951849Y-64251946D01*
X106951849Y-63710949D01*
X106722505Y-63710949D01*
X106722505Y-63648422D01*
X106951849Y-63648422D01*
X106951849Y-63429581D01*
X107022191Y-63429581D01*
X107022191Y-63648422D01*
X107345812Y-63648422D01*
X107345812Y-63710949D01*
X107022191Y-63710949D01*
X107022191Y-64253412D01*
X107029228Y-64303314D01*
X107057817Y-64345641D01*
X107108397Y-64365691D01*
X107134787Y-64367473D01*
X107338729Y-64367473D01*
X107338729Y-64430000D01*
X107134787Y-64430000D01*
G37*
G36*
X108482519Y-64430000D02*
G01*
X108482519Y-63398318D01*
X109031332Y-63398318D01*
X109031332Y-63460844D01*
X108552861Y-63460844D01*
X108552861Y-63851632D01*
X108981995Y-63851632D01*
X108981995Y-63914159D01*
X108552861Y-63914159D01*
X108552861Y-64367473D01*
X109031332Y-64367473D01*
X109031332Y-64430000D01*
X108482519Y-64430000D01*
G37*
G36*
X109349825Y-64430000D02*
G01*
X109349825Y-63398318D01*
X109420167Y-63398318D01*
X109420167Y-64367473D01*
X109919644Y-64367473D01*
X109919644Y-64430000D01*
X109349825Y-64430000D01*
G37*
G36*
X110242533Y-63882163D02*
G01*
X110248150Y-63886315D01*
X110286447Y-63852216D01*
X110320690Y-63831849D01*
X110369216Y-63813316D01*
X110420807Y-63805400D01*
X110442323Y-63804738D01*
X110493137Y-63808673D01*
X110544404Y-63822094D01*
X110590823Y-63845038D01*
X110631498Y-63876357D01*
X110665535Y-63915238D01*
X110690718Y-63957145D01*
X110709652Y-64004267D01*
X110721573Y-64055873D01*
X110726306Y-64106152D01*
X110726622Y-64123719D01*
X110723492Y-64175286D01*
X110714103Y-64223376D01*
X110696328Y-64272730D01*
X110687055Y-64291270D01*
X110659449Y-64333530D01*
X110625784Y-64369637D01*
X110586061Y-64399590D01*
X110577390Y-64404842D01*
X110531232Y-64426352D01*
X110480685Y-64439895D01*
X110431440Y-64445273D01*
X110414235Y-64445631D01*
X110363806Y-64442385D01*
X110311942Y-64431165D01*
X110264468Y-64411931D01*
X110251081Y-64404598D01*
X110210123Y-64375780D01*
X110175175Y-64340618D01*
X110146238Y-64299111D01*
X110141172Y-64290048D01*
X110120435Y-64241753D01*
X110107379Y-64189069D01*
X110102194Y-64137901D01*
X110101948Y-64125184D01*
X110172191Y-64125184D01*
X110174959Y-64175386D01*
X110186207Y-64225544D01*
X110200279Y-64260006D01*
X110228564Y-64303280D01*
X110265394Y-64337847D01*
X110285275Y-64350865D01*
X110333423Y-64371739D01*
X110383020Y-64381562D01*
X110414235Y-64383105D01*
X110465687Y-64378571D01*
X110515999Y-64363427D01*
X110540753Y-64350865D01*
X110581333Y-64320316D01*
X110613769Y-64281061D01*
X110625994Y-64260006D01*
X110644450Y-64213455D01*
X110654387Y-64162096D01*
X110656280Y-64125184D01*
X110652701Y-64074264D01*
X110640634Y-64023980D01*
X110625994Y-63989874D01*
X110597315Y-63946916D01*
X110560494Y-63912504D01*
X110540753Y-63899504D01*
X110493479Y-63878630D01*
X110444833Y-63868807D01*
X110414235Y-63867264D01*
X110362853Y-63871798D01*
X110312770Y-63886942D01*
X110288206Y-63899504D01*
X110248259Y-63929972D01*
X110216132Y-63968985D01*
X110203942Y-63989874D01*
X110185281Y-64036036D01*
X110174725Y-64087693D01*
X110172191Y-64125184D01*
X110101948Y-64125184D01*
X110101849Y-64120055D01*
X110105318Y-64070333D01*
X110115725Y-64020816D01*
X110126517Y-63987920D01*
X110146702Y-63938564D01*
X110168161Y-63893502D01*
X110187822Y-63856762D01*
X110450872Y-63398318D01*
X110530983Y-63398318D01*
X110242533Y-63882163D01*
G37*
G36*
X110972086Y-64430000D02*
G01*
X110972086Y-64367473D01*
X111263224Y-64367473D01*
X111263224Y-63470369D01*
X110983321Y-63675045D01*
X110983321Y-63596643D01*
X111240753Y-63398318D01*
X111333565Y-63398318D01*
X111333565Y-64367473D01*
X111577076Y-64367473D01*
X111577076Y-64430000D01*
X110972086Y-64430000D01*
G37*
G36*
X111961758Y-64430000D02*
G01*
X112351570Y-63460844D01*
X111867480Y-63460844D01*
X111867480Y-63680174D01*
X111797138Y-63680174D01*
X111797138Y-63398318D01*
X112423377Y-63398318D01*
X112423377Y-63468415D01*
X112039183Y-64430000D01*
X111961758Y-64430000D01*
G37*
G36*
X112979494Y-63864470D02*
G01*
X112983182Y-63867264D01*
X113002233Y-63913426D01*
X112983182Y-63959832D01*
X112935869Y-63976619D01*
X112931891Y-63976685D01*
X112884896Y-63962844D01*
X112881088Y-63959832D01*
X112861549Y-63913426D01*
X112881088Y-63867264D01*
X112928057Y-63851693D01*
X112931891Y-63851632D01*
X112979494Y-63864470D01*
G37*
G36*
X112988547Y-63386625D02*
G01*
X113038503Y-63398441D01*
X113083222Y-63418134D01*
X113127918Y-63450286D01*
X113142916Y-63464996D01*
X113173085Y-63503693D01*
X113195844Y-63547977D01*
X113211193Y-63597847D01*
X113219132Y-63653303D01*
X113220341Y-63687501D01*
X113220341Y-64140816D01*
X113217619Y-64191437D01*
X113207563Y-64245329D01*
X113190097Y-64293659D01*
X113165222Y-64336424D01*
X113142916Y-64363565D01*
X113100785Y-64399469D01*
X113051814Y-64425115D01*
X113003355Y-64439140D01*
X112949659Y-64445310D01*
X112933356Y-64445631D01*
X112877559Y-64441704D01*
X112827068Y-64429923D01*
X112781882Y-64410288D01*
X112736739Y-64378231D01*
X112721598Y-64363565D01*
X112691144Y-64324773D01*
X112668169Y-64280418D01*
X112652675Y-64230499D01*
X112644661Y-64175018D01*
X112643440Y-64140816D01*
X112643440Y-63687501D01*
X112713782Y-63687501D01*
X112713782Y-64140816D01*
X112717476Y-64193832D01*
X112730463Y-64246505D01*
X112752801Y-64291797D01*
X112772889Y-64317892D01*
X112813957Y-64352282D01*
X112863277Y-64373934D01*
X112914722Y-64382532D01*
X112933356Y-64383105D01*
X112986263Y-64377946D01*
X113032601Y-64362471D01*
X113076383Y-64333176D01*
X113091625Y-64317892D01*
X113119843Y-64277520D01*
X113138826Y-64229767D01*
X113147947Y-64181125D01*
X113150000Y-64140816D01*
X113150000Y-63687501D01*
X113146351Y-63634485D01*
X113133525Y-63581813D01*
X113111464Y-63536520D01*
X113091625Y-63510425D01*
X113051087Y-63476036D01*
X113002439Y-63454383D01*
X112951722Y-63445785D01*
X112933356Y-63445212D01*
X112879683Y-63450371D01*
X112832695Y-63465846D01*
X112788325Y-63495141D01*
X112772889Y-63510425D01*
X112744316Y-63550798D01*
X112725095Y-63598550D01*
X112715860Y-63647193D01*
X112713782Y-63687501D01*
X112643440Y-63687501D01*
X112646188Y-63636889D01*
X112656339Y-63583028D01*
X112673970Y-63534754D01*
X112699081Y-63492067D01*
X112721598Y-63464996D01*
X112758445Y-63432924D01*
X112807053Y-63405916D01*
X112855270Y-63390724D01*
X112908793Y-63383410D01*
X112933356Y-63382686D01*
X112988547Y-63386625D01*
G37*
G36*
X113862742Y-63401999D02*
G01*
X113913944Y-63413044D01*
X113959888Y-63431451D01*
X114005954Y-63461505D01*
X114021458Y-63475254D01*
X114056614Y-63516882D01*
X114081725Y-63564830D01*
X114095458Y-63611969D01*
X114101500Y-63663946D01*
X114101814Y-63679685D01*
X114097934Y-63733045D01*
X114086293Y-63781566D01*
X114063487Y-63831094D01*
X114030545Y-63874302D01*
X114020725Y-63884117D01*
X113977006Y-63917776D01*
X113926692Y-63941819D01*
X113877257Y-63954967D01*
X113822774Y-63960753D01*
X113806280Y-63961053D01*
X113574249Y-63961053D01*
X113574249Y-64430000D01*
X113503907Y-64430000D01*
X113503907Y-63898527D01*
X113574249Y-63898527D01*
X113806280Y-63898527D01*
X113854991Y-63894833D01*
X113903624Y-63881846D01*
X113950001Y-63856448D01*
X113970167Y-63839420D01*
X114002496Y-63798319D01*
X114022851Y-63749203D01*
X114030933Y-63698147D01*
X114031472Y-63679685D01*
X114026681Y-63625834D01*
X114012307Y-63578861D01*
X113985096Y-63534735D01*
X113970900Y-63519462D01*
X113928796Y-63488550D01*
X113878202Y-63469087D01*
X113825407Y-63461359D01*
X113806280Y-63460844D01*
X113574249Y-63460844D01*
X113574249Y-63898527D01*
X113503907Y-63898527D01*
X113503907Y-63398318D01*
X113806280Y-63398318D01*
X113862742Y-63401999D01*
G37*
G36*
X114373900Y-64430000D02*
G01*
X114373900Y-63648422D01*
X114444242Y-63648422D01*
X114444242Y-63773475D01*
X114465354Y-63728034D01*
X114497837Y-63687876D01*
X114519469Y-63670160D01*
X114566405Y-63645965D01*
X114616958Y-63634579D01*
X114649651Y-63632791D01*
X114702511Y-63636274D01*
X114755252Y-63648784D01*
X114799811Y-63670391D01*
X114840160Y-63705575D01*
X114870503Y-63751269D01*
X114889138Y-63799866D01*
X114899007Y-63848549D01*
X114902869Y-63902982D01*
X114902930Y-63911228D01*
X114902930Y-63982547D01*
X114832588Y-63982547D01*
X114832588Y-63911472D01*
X114829505Y-63861952D01*
X114818664Y-63813686D01*
X114797465Y-63769303D01*
X114783251Y-63750760D01*
X114743988Y-63719194D01*
X114693699Y-63700731D01*
X114644354Y-63695371D01*
X114638415Y-63695317D01*
X114588881Y-63699934D01*
X114542046Y-63715896D01*
X114500499Y-63746622D01*
X114494068Y-63753691D01*
X114465700Y-63799370D01*
X114450130Y-63850813D01*
X114444437Y-63905188D01*
X114444242Y-63918311D01*
X114444242Y-64430000D01*
X114373900Y-64430000D01*
G37*
G36*
X115501932Y-63636507D02*
G01*
X115555849Y-63649857D01*
X115603415Y-63672915D01*
X115644631Y-63705682D01*
X115649337Y-63710460D01*
X115681928Y-63752561D01*
X115705207Y-63801196D01*
X115717938Y-63849111D01*
X115723540Y-63902029D01*
X115723831Y-63918066D01*
X115723831Y-64160355D01*
X115720266Y-64214702D01*
X115709572Y-64264046D01*
X115688621Y-64314314D01*
X115658357Y-64358049D01*
X115649337Y-64367962D01*
X115608914Y-64401942D01*
X115562142Y-64426214D01*
X115509019Y-64440777D01*
X115457327Y-64445555D01*
X115449546Y-64445631D01*
X115397696Y-64441914D01*
X115344134Y-64428565D01*
X115296648Y-64405507D01*
X115255237Y-64372740D01*
X115250488Y-64367962D01*
X115217576Y-64325860D01*
X115194068Y-64277226D01*
X115181212Y-64229311D01*
X115175555Y-64176393D01*
X115175261Y-64160355D01*
X115175261Y-63918066D01*
X115175277Y-63917822D01*
X115245603Y-63917822D01*
X115245603Y-64160600D01*
X115248946Y-64210425D01*
X115260699Y-64259472D01*
X115283683Y-64305268D01*
X115299092Y-64324731D01*
X115341003Y-64357965D01*
X115388020Y-64376207D01*
X115437595Y-64382877D01*
X115449546Y-64383105D01*
X115500649Y-64378487D01*
X115549364Y-64362526D01*
X115593144Y-64331800D01*
X115600000Y-64324731D01*
X115628207Y-64283515D01*
X115645967Y-64233140D01*
X115653019Y-64179971D01*
X115653489Y-64160600D01*
X115653489Y-63917822D01*
X115650100Y-63868012D01*
X115638186Y-63819019D01*
X115614887Y-63773328D01*
X115599267Y-63753935D01*
X115557222Y-63720562D01*
X115510434Y-63702244D01*
X115461351Y-63695546D01*
X115449546Y-63695317D01*
X115398975Y-63699954D01*
X115350489Y-63715982D01*
X115306521Y-63746837D01*
X115299581Y-63753935D01*
X115271116Y-63795022D01*
X115253194Y-63845316D01*
X115246078Y-63898453D01*
X115245603Y-63917822D01*
X115175277Y-63917822D01*
X115178861Y-63863720D01*
X115189660Y-63814376D01*
X115210818Y-63764108D01*
X115241378Y-63720373D01*
X115250488Y-63710460D01*
X115291139Y-63676480D01*
X115337866Y-63652208D01*
X115390668Y-63637645D01*
X115441854Y-63632867D01*
X115449546Y-63632791D01*
X115501932Y-63636507D01*
G37*
D10*
X142503884Y-81448609D02*
X142837217Y-81448609D01*
X142980074Y-81972419D02*
X142503884Y-81972419D01*
X142503884Y-81972419D02*
X142503884Y-80972419D01*
X142503884Y-80972419D02*
X142980074Y-80972419D01*
X143884836Y-81972419D02*
X143408646Y-81972419D01*
X143408646Y-81972419D02*
X143408646Y-80972419D01*
X144646741Y-80972419D02*
X144456265Y-80972419D01*
X144456265Y-80972419D02*
X144361027Y-81020038D01*
X144361027Y-81020038D02*
X144313408Y-81067657D01*
X144313408Y-81067657D02*
X144218170Y-81210514D01*
X144218170Y-81210514D02*
X144170551Y-81400990D01*
X144170551Y-81400990D02*
X144170551Y-81781942D01*
X144170551Y-81781942D02*
X144218170Y-81877180D01*
X144218170Y-81877180D02*
X144265789Y-81924800D01*
X144265789Y-81924800D02*
X144361027Y-81972419D01*
X144361027Y-81972419D02*
X144551503Y-81972419D01*
X144551503Y-81972419D02*
X144646741Y-81924800D01*
X144646741Y-81924800D02*
X144694360Y-81877180D01*
X144694360Y-81877180D02*
X144741979Y-81781942D01*
X144741979Y-81781942D02*
X144741979Y-81543847D01*
X144741979Y-81543847D02*
X144694360Y-81448609D01*
X144694360Y-81448609D02*
X144646741Y-81400990D01*
X144646741Y-81400990D02*
X144551503Y-81353371D01*
X144551503Y-81353371D02*
X144361027Y-81353371D01*
X144361027Y-81353371D02*
X144265789Y-81400990D01*
X144265789Y-81400990D02*
X144218170Y-81448609D01*
X144218170Y-81448609D02*
X144170551Y-81543847D01*
X145694360Y-81972419D02*
X145122932Y-81972419D01*
X145408646Y-81972419D02*
X145408646Y-80972419D01*
X145408646Y-80972419D02*
X145313408Y-81115276D01*
X145313408Y-81115276D02*
X145218170Y-81210514D01*
X145218170Y-81210514D02*
X145122932Y-81258133D01*
X146027694Y-80972419D02*
X146694360Y-80972419D01*
X146694360Y-80972419D02*
X146265789Y-81972419D01*
X147265789Y-80972419D02*
X147361027Y-80972419D01*
X147361027Y-80972419D02*
X147456265Y-81020038D01*
X147456265Y-81020038D02*
X147503884Y-81067657D01*
X147503884Y-81067657D02*
X147551503Y-81162895D01*
X147551503Y-81162895D02*
X147599122Y-81353371D01*
X147599122Y-81353371D02*
X147599122Y-81591466D01*
X147599122Y-81591466D02*
X147551503Y-81781942D01*
X147551503Y-81781942D02*
X147503884Y-81877180D01*
X147503884Y-81877180D02*
X147456265Y-81924800D01*
X147456265Y-81924800D02*
X147361027Y-81972419D01*
X147361027Y-81972419D02*
X147265789Y-81972419D01*
X147265789Y-81972419D02*
X147170551Y-81924800D01*
X147170551Y-81924800D02*
X147122932Y-81877180D01*
X147122932Y-81877180D02*
X147075313Y-81781942D01*
X147075313Y-81781942D02*
X147027694Y-81591466D01*
X147027694Y-81591466D02*
X147027694Y-81353371D01*
X147027694Y-81353371D02*
X147075313Y-81162895D01*
X147075313Y-81162895D02*
X147122932Y-81067657D01*
X147122932Y-81067657D02*
X147170551Y-81020038D01*
X147170551Y-81020038D02*
X147265789Y-80972419D01*
X148789599Y-81972419D02*
X148789599Y-80972419D01*
X148789599Y-80972419D02*
X149170551Y-80972419D01*
X149170551Y-80972419D02*
X149265789Y-81020038D01*
X149265789Y-81020038D02*
X149313408Y-81067657D01*
X149313408Y-81067657D02*
X149361027Y-81162895D01*
X149361027Y-81162895D02*
X149361027Y-81305752D01*
X149361027Y-81305752D02*
X149313408Y-81400990D01*
X149313408Y-81400990D02*
X149265789Y-81448609D01*
X149265789Y-81448609D02*
X149170551Y-81496228D01*
X149170551Y-81496228D02*
X148789599Y-81496228D01*
X149789599Y-81972419D02*
X149789599Y-81305752D01*
X149789599Y-81496228D02*
X149837218Y-81400990D01*
X149837218Y-81400990D02*
X149884837Y-81353371D01*
X149884837Y-81353371D02*
X149980075Y-81305752D01*
X149980075Y-81305752D02*
X150075313Y-81305752D01*
X150551504Y-81972419D02*
X150456266Y-81924800D01*
X150456266Y-81924800D02*
X150408647Y-81877180D01*
X150408647Y-81877180D02*
X150361028Y-81781942D01*
X150361028Y-81781942D02*
X150361028Y-81496228D01*
X150361028Y-81496228D02*
X150408647Y-81400990D01*
X150408647Y-81400990D02*
X150456266Y-81353371D01*
X150456266Y-81353371D02*
X150551504Y-81305752D01*
X150551504Y-81305752D02*
X150694361Y-81305752D01*
X150694361Y-81305752D02*
X150789599Y-81353371D01*
X150789599Y-81353371D02*
X150837218Y-81400990D01*
X150837218Y-81400990D02*
X150884837Y-81496228D01*
X150884837Y-81496228D02*
X150884837Y-81781942D01*
X150884837Y-81781942D02*
X150837218Y-81877180D01*
X150837218Y-81877180D02*
X150789599Y-81924800D01*
X150789599Y-81924800D02*
X150694361Y-81972419D01*
X150694361Y-81972419D02*
X150551504Y-81972419D01*
D11*
G36*
X101394940Y-129017473D02*
G01*
X101393475Y-129080000D01*
X100797034Y-129080000D01*
X100797034Y-128079581D01*
X101393475Y-128079581D01*
X101393475Y-128142107D01*
X100869574Y-128142107D01*
X100869574Y-128532896D01*
X101305547Y-128532896D01*
X101305547Y-128595422D01*
X100869574Y-128595422D01*
X100869574Y-129017473D01*
X101394940Y-129017473D01*
G37*
G36*
X102152581Y-129017473D02*
G01*
X102152581Y-129080000D01*
X101608897Y-129080000D01*
X101608897Y-128079581D01*
X101681437Y-128079581D01*
X101681437Y-129017473D01*
X102152581Y-129017473D01*
G37*
G36*
X102462037Y-128471591D02*
G01*
X102432556Y-128511605D01*
X102421981Y-128526301D01*
X102394633Y-128567491D01*
X102389009Y-128576859D01*
X102428285Y-128543059D01*
X102473452Y-128516459D01*
X102487438Y-128510181D01*
X102535450Y-128494525D01*
X102587009Y-128486851D01*
X102612002Y-128486001D01*
X102662343Y-128489508D01*
X102712859Y-128501128D01*
X102729972Y-128507250D01*
X102774517Y-128529162D01*
X102815812Y-128560006D01*
X102823272Y-128567090D01*
X102856152Y-128606688D01*
X102880061Y-128650232D01*
X102884333Y-128660390D01*
X102899527Y-128710786D01*
X102906017Y-128762104D01*
X102906559Y-128783000D01*
X102903159Y-128832448D01*
X102891801Y-128882683D01*
X102882379Y-128908297D01*
X102859548Y-128952194D01*
X102827839Y-128993788D01*
X102814724Y-129007215D01*
X102776737Y-129038126D01*
X102733026Y-129062991D01*
X102710921Y-129072428D01*
X102663957Y-129086567D01*
X102613559Y-129094181D01*
X102578053Y-129095631D01*
X102527529Y-129092437D01*
X102476593Y-129081767D01*
X102450802Y-129072916D01*
X102406669Y-129051196D01*
X102365182Y-129020501D01*
X102351884Y-129007704D01*
X102319533Y-128966751D01*
X102295856Y-128922361D01*
X102288381Y-128903656D01*
X102274688Y-128855262D01*
X102267315Y-128802402D01*
X102266629Y-128783977D01*
X102331367Y-128783977D01*
X102335124Y-128835909D01*
X102346394Y-128884083D01*
X102348464Y-128890223D01*
X102369347Y-128935530D01*
X102397313Y-128974242D01*
X102434978Y-129007269D01*
X102474738Y-129029197D01*
X102523281Y-129043852D01*
X102574003Y-129048717D01*
X102577564Y-129048736D01*
X102628107Y-129044996D01*
X102677280Y-129032689D01*
X102686496Y-129029197D01*
X102731437Y-129005750D01*
X102769050Y-128974975D01*
X102800901Y-128934472D01*
X102821563Y-128892665D01*
X102835301Y-128842962D01*
X102839863Y-128792594D01*
X102839881Y-128789106D01*
X102836421Y-128739585D01*
X102825037Y-128691403D01*
X102821807Y-128682372D01*
X102800252Y-128638408D01*
X102771249Y-128601772D01*
X102732959Y-128570822D01*
X102693335Y-128550725D01*
X102645952Y-128537353D01*
X102597094Y-128532913D01*
X102593684Y-128532896D01*
X102541926Y-128537150D01*
X102492073Y-128551150D01*
X102482798Y-128555122D01*
X102437735Y-128580645D01*
X102400244Y-128612763D01*
X102368981Y-128652958D01*
X102348953Y-128693119D01*
X102335231Y-128741144D01*
X102331367Y-128783977D01*
X102266629Y-128783977D01*
X102265910Y-128764682D01*
X102270788Y-128714317D01*
X102283948Y-128663318D01*
X102295464Y-128631570D01*
X102317631Y-128583422D01*
X102343905Y-128537112D01*
X102372286Y-128493580D01*
X102392428Y-128465240D01*
X102664026Y-128095945D01*
X102699930Y-128079581D01*
X102759036Y-128079581D01*
X102462037Y-128471591D01*
G37*
G36*
X103683251Y-129033105D02*
G01*
X103683251Y-129080000D01*
X103169853Y-129080000D01*
X103169853Y-129033105D01*
X103398464Y-129033105D01*
X103398464Y-128229302D01*
X103400662Y-128178988D01*
X103181088Y-128373161D01*
X103161304Y-128379511D01*
X103145917Y-128370963D01*
X103125645Y-128342875D01*
X103413119Y-128079581D01*
X103465875Y-128079581D01*
X103465875Y-129033105D01*
X103683251Y-129033105D01*
G37*
G36*
X104544452Y-128079581D02*
G01*
X104544452Y-128110111D01*
X104541521Y-128131116D01*
X104535415Y-128146259D01*
X104079413Y-129054598D01*
X104064270Y-129072916D01*
X104039357Y-129080000D01*
X103992951Y-129080000D01*
X104453105Y-128175324D01*
X104474842Y-128142107D01*
X103900872Y-128142107D01*
X103887438Y-128136489D01*
X103881821Y-128122812D01*
X103881821Y-128079581D01*
X104544452Y-128079581D01*
G37*
G36*
X105062826Y-128067615D02*
G01*
X105114643Y-128079974D01*
X105151884Y-128094968D01*
X105194726Y-128120132D01*
X105233586Y-128152973D01*
X105265457Y-128189490D01*
X105293831Y-128232471D01*
X105315941Y-128276783D01*
X105334806Y-128326426D01*
X105342149Y-128350202D01*
X105354544Y-128400913D01*
X105363398Y-128456081D01*
X105368240Y-128508010D01*
X105370370Y-128563351D01*
X105370481Y-128579790D01*
X105369125Y-128636118D01*
X105365058Y-128689057D01*
X105358279Y-128738607D01*
X105347212Y-128791085D01*
X105342149Y-128809623D01*
X105326823Y-128856014D01*
X105306515Y-128903204D01*
X105280145Y-128949429D01*
X105265457Y-128970090D01*
X105230218Y-129009910D01*
X105190996Y-129042053D01*
X105151884Y-129064612D01*
X105106179Y-129082272D01*
X105058396Y-129092602D01*
X105013154Y-129095631D01*
X104963372Y-129091966D01*
X104911565Y-129079607D01*
X104874424Y-129064612D01*
X104831831Y-129039448D01*
X104793047Y-129006607D01*
X104761095Y-128970090D01*
X104732874Y-128927133D01*
X104710900Y-128882884D01*
X104692173Y-128833341D01*
X104684891Y-128809623D01*
X104672710Y-128758805D01*
X104664009Y-128703560D01*
X104659250Y-128651590D01*
X104657156Y-128596230D01*
X104657050Y-128580034D01*
X104725924Y-128580034D01*
X104727034Y-128633491D01*
X104730365Y-128683371D01*
X104736891Y-128735998D01*
X104746317Y-128783953D01*
X104749127Y-128795212D01*
X104763572Y-128842553D01*
X104782568Y-128889216D01*
X104807044Y-128933329D01*
X104811898Y-128940537D01*
X104843176Y-128978559D01*
X104881092Y-129010059D01*
X104903244Y-129022847D01*
X104949887Y-129040545D01*
X104998774Y-129048332D01*
X105013154Y-129048736D01*
X105062561Y-129043781D01*
X105109912Y-129028915D01*
X105123063Y-129022847D01*
X105166393Y-128994349D01*
X105201940Y-128957423D01*
X105214410Y-128940537D01*
X105239401Y-128897799D01*
X105258864Y-128852385D01*
X105275226Y-128800722D01*
X105276692Y-128795212D01*
X105288026Y-128742248D01*
X105294987Y-128690205D01*
X105298674Y-128640836D01*
X105300116Y-128587890D01*
X105300139Y-128580034D01*
X105299017Y-128526947D01*
X105295651Y-128477319D01*
X105289057Y-128424837D01*
X105279531Y-128376874D01*
X105276692Y-128365589D01*
X105262384Y-128318032D01*
X105243541Y-128271263D01*
X105219233Y-128227201D01*
X105214410Y-128220020D01*
X105183360Y-128181816D01*
X105145383Y-128150117D01*
X105123063Y-128137222D01*
X105076300Y-128119190D01*
X105027480Y-128111256D01*
X105013154Y-128110844D01*
X104963626Y-128115893D01*
X104916342Y-128131040D01*
X104903244Y-128137222D01*
X104860155Y-128165933D01*
X104824496Y-128203058D01*
X104811898Y-128220020D01*
X104786739Y-128262677D01*
X104767123Y-128308167D01*
X104750608Y-128360049D01*
X104749127Y-128365589D01*
X104737911Y-128418595D01*
X104731022Y-128470512D01*
X104727374Y-128519645D01*
X104725947Y-128572239D01*
X104725924Y-128580034D01*
X104657050Y-128580034D01*
X104657048Y-128579790D01*
X104658380Y-128523474D01*
X104662377Y-128470570D01*
X104669039Y-128421079D01*
X104679915Y-128368696D01*
X104684891Y-128350202D01*
X104700095Y-128303704D01*
X104720266Y-128256430D01*
X104746483Y-128210158D01*
X104761095Y-128189490D01*
X104796415Y-128149670D01*
X104835545Y-128117527D01*
X104874424Y-128094968D01*
X104920018Y-128077308D01*
X104967807Y-128066978D01*
X105013154Y-128063949D01*
X105062826Y-128067615D01*
G37*
G36*
X106254749Y-128081453D02*
G01*
X106312337Y-128088643D01*
X106363862Y-128101225D01*
X106409326Y-128119200D01*
X106454705Y-128146986D01*
X106466154Y-128156273D01*
X106500891Y-128192863D01*
X106527096Y-128235741D01*
X106544769Y-128284906D01*
X106553910Y-128340360D01*
X106555303Y-128374870D01*
X106551232Y-128426163D01*
X106539018Y-128474069D01*
X106530635Y-128495038D01*
X106505029Y-128540058D01*
X106471383Y-128579374D01*
X106460293Y-128589560D01*
X106419918Y-128619004D01*
X106373013Y-128642645D01*
X106349162Y-128651598D01*
X106297802Y-128664993D01*
X106246740Y-128671841D01*
X106202128Y-128673579D01*
X106017236Y-128673579D01*
X106017236Y-129080000D01*
X105944696Y-129080000D01*
X105944696Y-128626685D01*
X106017236Y-128626685D01*
X106202128Y-128626685D01*
X106253095Y-128623541D01*
X106303023Y-128613122D01*
X106319609Y-128607634D01*
X106364893Y-128586554D01*
X106405506Y-128556970D01*
X106407780Y-128554877D01*
X106441622Y-128515619D01*
X106463468Y-128475254D01*
X106477939Y-128427260D01*
X106482744Y-128378495D01*
X106482763Y-128375115D01*
X106479397Y-128325492D01*
X106467307Y-128275220D01*
X106443196Y-128226875D01*
X106412421Y-128191200D01*
X106367347Y-128159912D01*
X106318037Y-128140697D01*
X106267753Y-128130521D01*
X106210807Y-128126539D01*
X106202128Y-128126475D01*
X106017236Y-128126475D01*
X106017236Y-128626685D01*
X105944696Y-128626685D01*
X105944696Y-128079581D01*
X106202128Y-128079581D01*
X106254749Y-128081453D01*
G37*
G36*
X106770237Y-128543398D02*
G01*
X106790038Y-128497777D01*
X106807362Y-128466461D01*
X106837240Y-128426641D01*
X106854989Y-128409309D01*
X106897242Y-128381281D01*
X106915561Y-128373405D01*
X106965034Y-128362165D01*
X106989811Y-128360949D01*
X107032554Y-128365589D01*
X107069923Y-128381953D01*
X107064305Y-128423719D01*
X107051116Y-128433977D01*
X107025226Y-128428848D01*
X106980041Y-128423475D01*
X106930503Y-128428944D01*
X106907745Y-128436175D01*
X106864423Y-128462141D01*
X106851570Y-128474033D01*
X106820201Y-128514396D01*
X106807850Y-128536559D01*
X106787972Y-128581880D01*
X106773900Y-128622044D01*
X106773900Y-129080000D01*
X106706245Y-129080000D01*
X106706245Y-128376580D01*
X106742149Y-128376580D01*
X106759002Y-128380976D01*
X106765352Y-128396120D01*
X106770237Y-128543398D01*
G37*
G36*
X107488572Y-128364037D02*
G01*
X107538667Y-128374449D01*
X107573307Y-128387083D01*
X107618625Y-128411944D01*
X107657734Y-128444062D01*
X107673691Y-128461332D01*
X107703647Y-128503692D01*
X107725646Y-128548588D01*
X107735973Y-128577348D01*
X107748210Y-128625794D01*
X107755367Y-128678108D01*
X107757466Y-128729023D01*
X107755367Y-128779913D01*
X107748210Y-128832145D01*
X107735973Y-128880453D01*
X107717140Y-128928298D01*
X107692879Y-128970716D01*
X107673691Y-128995980D01*
X107637447Y-129031248D01*
X107594994Y-129059260D01*
X107573307Y-129069741D01*
X107526561Y-129085518D01*
X107475351Y-129094013D01*
X107438729Y-129095631D01*
X107388858Y-129092572D01*
X107338666Y-129082256D01*
X107303907Y-129069741D01*
X107258668Y-129045078D01*
X107219394Y-129013159D01*
X107203279Y-128995980D01*
X107173165Y-128953701D01*
X107151092Y-128909022D01*
X107140753Y-128880453D01*
X107128655Y-128832145D01*
X107121579Y-128779913D01*
X107119504Y-128729023D01*
X107188381Y-128729023D01*
X107190579Y-128781985D01*
X107197173Y-128830963D01*
X107204012Y-128861402D01*
X107220849Y-128909801D01*
X107245424Y-128954291D01*
X107251151Y-128962274D01*
X107286444Y-128999216D01*
X107329309Y-129026510D01*
X107376707Y-129042464D01*
X107427143Y-129048541D01*
X107438729Y-129048736D01*
X107490401Y-129044482D01*
X107539020Y-129030482D01*
X107547906Y-129026510D01*
X107590893Y-128999216D01*
X107626064Y-128962274D01*
X107652060Y-128919309D01*
X107669932Y-128872332D01*
X107672958Y-128861402D01*
X107682921Y-128811040D01*
X107687609Y-128760402D01*
X107688346Y-128729023D01*
X107686182Y-128676472D01*
X107679690Y-128627631D01*
X107672958Y-128597131D01*
X107656409Y-128548352D01*
X107631830Y-128503558D01*
X107626064Y-128495526D01*
X107590893Y-128458157D01*
X107547906Y-128430558D01*
X107500683Y-128414254D01*
X107450314Y-128408043D01*
X107438729Y-128407843D01*
X107387011Y-128412191D01*
X107338239Y-128426498D01*
X107329309Y-128430558D01*
X107286444Y-128458157D01*
X107251151Y-128495526D01*
X107225223Y-128538775D01*
X107207124Y-128586112D01*
X107204012Y-128597131D01*
X107193891Y-128647531D01*
X107189129Y-128697917D01*
X107188381Y-128729023D01*
X107119504Y-128729023D01*
X107121579Y-128678108D01*
X107128655Y-128625794D01*
X107140753Y-128577348D01*
X107159621Y-128529205D01*
X107183984Y-128486627D01*
X107203279Y-128461332D01*
X107239800Y-128425866D01*
X107282286Y-128397656D01*
X107303907Y-128387083D01*
X107350802Y-128371157D01*
X107402093Y-128362582D01*
X107438729Y-128360949D01*
X107488572Y-128364037D01*
G37*
D12*
X132516791Y-64031757D02*
X132469172Y-64007948D01*
X132469172Y-64007948D02*
X132445362Y-63960328D01*
X132445362Y-63960328D02*
X132445362Y-63531757D01*
X132707267Y-64031757D02*
X132707267Y-63698424D01*
X132707267Y-63531757D02*
X132683458Y-63555567D01*
X132683458Y-63555567D02*
X132707267Y-63579376D01*
X132707267Y-63579376D02*
X132731077Y-63555567D01*
X132731077Y-63555567D02*
X132707267Y-63531757D01*
X132707267Y-63531757D02*
X132707267Y-63579376D01*
X132945362Y-64031757D02*
X132945362Y-63531757D01*
X132945362Y-63722233D02*
X132992981Y-63698424D01*
X132992981Y-63698424D02*
X133088219Y-63698424D01*
X133088219Y-63698424D02*
X133135838Y-63722233D01*
X133135838Y-63722233D02*
X133159648Y-63746043D01*
X133159648Y-63746043D02*
X133183457Y-63793662D01*
X133183457Y-63793662D02*
X133183457Y-63936519D01*
X133183457Y-63936519D02*
X133159648Y-63984138D01*
X133159648Y-63984138D02*
X133135838Y-64007948D01*
X133135838Y-64007948D02*
X133088219Y-64031757D01*
X133088219Y-64031757D02*
X132992981Y-64031757D01*
X132992981Y-64031757D02*
X132945362Y-64007948D01*
X133612029Y-64007948D02*
X133564410Y-64031757D01*
X133564410Y-64031757D02*
X133469172Y-64031757D01*
X133469172Y-64031757D02*
X133421553Y-64007948D01*
X133421553Y-64007948D02*
X133397743Y-63984138D01*
X133397743Y-63984138D02*
X133373934Y-63936519D01*
X133373934Y-63936519D02*
X133373934Y-63793662D01*
X133373934Y-63793662D02*
X133397743Y-63746043D01*
X133397743Y-63746043D02*
X133421553Y-63722233D01*
X133421553Y-63722233D02*
X133469172Y-63698424D01*
X133469172Y-63698424D02*
X133564410Y-63698424D01*
X133564410Y-63698424D02*
X133612029Y-63722233D01*
X133826314Y-64031757D02*
X133826314Y-63531757D01*
X134040600Y-64031757D02*
X134040600Y-63769852D01*
X134040600Y-63769852D02*
X134016790Y-63722233D01*
X134016790Y-63722233D02*
X133969171Y-63698424D01*
X133969171Y-63698424D02*
X133897743Y-63698424D01*
X133897743Y-63698424D02*
X133850124Y-63722233D01*
X133850124Y-63722233D02*
X133826314Y-63746043D01*
X134492981Y-64031757D02*
X134492981Y-63769852D01*
X134492981Y-63769852D02*
X134469171Y-63722233D01*
X134469171Y-63722233D02*
X134421552Y-63698424D01*
X134421552Y-63698424D02*
X134326314Y-63698424D01*
X134326314Y-63698424D02*
X134278695Y-63722233D01*
X134492981Y-64007948D02*
X134445362Y-64031757D01*
X134445362Y-64031757D02*
X134326314Y-64031757D01*
X134326314Y-64031757D02*
X134278695Y-64007948D01*
X134278695Y-64007948D02*
X134254886Y-63960328D01*
X134254886Y-63960328D02*
X134254886Y-63912709D01*
X134254886Y-63912709D02*
X134278695Y-63865090D01*
X134278695Y-63865090D02*
X134326314Y-63841281D01*
X134326314Y-63841281D02*
X134445362Y-63841281D01*
X134445362Y-63841281D02*
X134492981Y-63817471D01*
X134731076Y-64031757D02*
X134731076Y-63698424D01*
X134731076Y-63793662D02*
X134754886Y-63746043D01*
X134754886Y-63746043D02*
X134778695Y-63722233D01*
X134778695Y-63722233D02*
X134826314Y-63698424D01*
X134826314Y-63698424D02*
X134873933Y-63698424D01*
X135254886Y-64031757D02*
X135254886Y-63769852D01*
X135254886Y-63769852D02*
X135231076Y-63722233D01*
X135231076Y-63722233D02*
X135183457Y-63698424D01*
X135183457Y-63698424D02*
X135088219Y-63698424D01*
X135088219Y-63698424D02*
X135040600Y-63722233D01*
X135254886Y-64007948D02*
X135207267Y-64031757D01*
X135207267Y-64031757D02*
X135088219Y-64031757D01*
X135088219Y-64031757D02*
X135040600Y-64007948D01*
X135040600Y-64007948D02*
X135016791Y-63960328D01*
X135016791Y-63960328D02*
X135016791Y-63912709D01*
X135016791Y-63912709D02*
X135040600Y-63865090D01*
X135040600Y-63865090D02*
X135088219Y-63841281D01*
X135088219Y-63841281D02*
X135207267Y-63841281D01*
X135207267Y-63841281D02*
X135254886Y-63817471D01*
X135492981Y-63841281D02*
X135873934Y-63841281D01*
X136326315Y-64031757D02*
X136326315Y-63531757D01*
X136326315Y-64007948D02*
X136278696Y-64031757D01*
X136278696Y-64031757D02*
X136183458Y-64031757D01*
X136183458Y-64031757D02*
X136135839Y-64007948D01*
X136135839Y-64007948D02*
X136112029Y-63984138D01*
X136112029Y-63984138D02*
X136088220Y-63936519D01*
X136088220Y-63936519D02*
X136088220Y-63793662D01*
X136088220Y-63793662D02*
X136112029Y-63746043D01*
X136112029Y-63746043D02*
X136135839Y-63722233D01*
X136135839Y-63722233D02*
X136183458Y-63698424D01*
X136183458Y-63698424D02*
X136278696Y-63698424D01*
X136278696Y-63698424D02*
X136326315Y-63722233D01*
X136754886Y-64007948D02*
X136707267Y-64031757D01*
X136707267Y-64031757D02*
X136612029Y-64031757D01*
X136612029Y-64031757D02*
X136564410Y-64007948D01*
X136564410Y-64007948D02*
X136540601Y-63960328D01*
X136540601Y-63960328D02*
X136540601Y-63769852D01*
X136540601Y-63769852D02*
X136564410Y-63722233D01*
X136564410Y-63722233D02*
X136612029Y-63698424D01*
X136612029Y-63698424D02*
X136707267Y-63698424D01*
X136707267Y-63698424D02*
X136754886Y-63722233D01*
X136754886Y-63722233D02*
X136778696Y-63769852D01*
X136778696Y-63769852D02*
X136778696Y-63817471D01*
X136778696Y-63817471D02*
X136540601Y-63865090D01*
X136945362Y-63698424D02*
X137064410Y-64031757D01*
X137064410Y-64031757D02*
X137183457Y-63698424D01*
X132421553Y-64384348D02*
X132445362Y-64360539D01*
X132445362Y-64360539D02*
X132492981Y-64336729D01*
X132492981Y-64336729D02*
X132612029Y-64336729D01*
X132612029Y-64336729D02*
X132659648Y-64360539D01*
X132659648Y-64360539D02*
X132683457Y-64384348D01*
X132683457Y-64384348D02*
X132707267Y-64431967D01*
X132707267Y-64431967D02*
X132707267Y-64479586D01*
X132707267Y-64479586D02*
X132683457Y-64551015D01*
X132683457Y-64551015D02*
X132397743Y-64836729D01*
X132397743Y-64836729D02*
X132707267Y-64836729D01*
X133016790Y-64336729D02*
X133064409Y-64336729D01*
X133064409Y-64336729D02*
X133112028Y-64360539D01*
X133112028Y-64360539D02*
X133135838Y-64384348D01*
X133135838Y-64384348D02*
X133159647Y-64431967D01*
X133159647Y-64431967D02*
X133183457Y-64527205D01*
X133183457Y-64527205D02*
X133183457Y-64646253D01*
X133183457Y-64646253D02*
X133159647Y-64741491D01*
X133159647Y-64741491D02*
X133135838Y-64789110D01*
X133135838Y-64789110D02*
X133112028Y-64812920D01*
X133112028Y-64812920D02*
X133064409Y-64836729D01*
X133064409Y-64836729D02*
X133016790Y-64836729D01*
X133016790Y-64836729D02*
X132969171Y-64812920D01*
X132969171Y-64812920D02*
X132945362Y-64789110D01*
X132945362Y-64789110D02*
X132921552Y-64741491D01*
X132921552Y-64741491D02*
X132897743Y-64646253D01*
X132897743Y-64646253D02*
X132897743Y-64527205D01*
X132897743Y-64527205D02*
X132921552Y-64431967D01*
X132921552Y-64431967D02*
X132945362Y-64384348D01*
X132945362Y-64384348D02*
X132969171Y-64360539D01*
X132969171Y-64360539D02*
X133016790Y-64336729D01*
X133373933Y-64384348D02*
X133397742Y-64360539D01*
X133397742Y-64360539D02*
X133445361Y-64336729D01*
X133445361Y-64336729D02*
X133564409Y-64336729D01*
X133564409Y-64336729D02*
X133612028Y-64360539D01*
X133612028Y-64360539D02*
X133635837Y-64384348D01*
X133635837Y-64384348D02*
X133659647Y-64431967D01*
X133659647Y-64431967D02*
X133659647Y-64479586D01*
X133659647Y-64479586D02*
X133635837Y-64551015D01*
X133635837Y-64551015D02*
X133350123Y-64836729D01*
X133350123Y-64836729D02*
X133659647Y-64836729D01*
X134088218Y-64503396D02*
X134088218Y-64836729D01*
X133969170Y-64312920D02*
X133850123Y-64670062D01*
X133850123Y-64670062D02*
X134159646Y-64670062D01*
X134707265Y-64312920D02*
X134278694Y-64955777D01*
X135135837Y-64836729D02*
X134850123Y-64836729D01*
X134992980Y-64836729D02*
X134992980Y-64336729D01*
X134992980Y-64336729D02*
X134945361Y-64408158D01*
X134945361Y-64408158D02*
X134897742Y-64455777D01*
X134897742Y-64455777D02*
X134850123Y-64479586D01*
X135445360Y-64336729D02*
X135492979Y-64336729D01*
X135492979Y-64336729D02*
X135540598Y-64360539D01*
X135540598Y-64360539D02*
X135564408Y-64384348D01*
X135564408Y-64384348D02*
X135588217Y-64431967D01*
X135588217Y-64431967D02*
X135612027Y-64527205D01*
X135612027Y-64527205D02*
X135612027Y-64646253D01*
X135612027Y-64646253D02*
X135588217Y-64741491D01*
X135588217Y-64741491D02*
X135564408Y-64789110D01*
X135564408Y-64789110D02*
X135540598Y-64812920D01*
X135540598Y-64812920D02*
X135492979Y-64836729D01*
X135492979Y-64836729D02*
X135445360Y-64836729D01*
X135445360Y-64836729D02*
X135397741Y-64812920D01*
X135397741Y-64812920D02*
X135373932Y-64789110D01*
X135373932Y-64789110D02*
X135350122Y-64741491D01*
X135350122Y-64741491D02*
X135326313Y-64646253D01*
X135326313Y-64646253D02*
X135326313Y-64527205D01*
X135326313Y-64527205D02*
X135350122Y-64431967D01*
X135350122Y-64431967D02*
X135373932Y-64384348D01*
X135373932Y-64384348D02*
X135397741Y-64360539D01*
X135397741Y-64360539D02*
X135445360Y-64336729D01*
X136183455Y-64312920D02*
X135754884Y-64955777D01*
X136612027Y-64836729D02*
X136326313Y-64836729D01*
X136469170Y-64836729D02*
X136469170Y-64336729D01*
X136469170Y-64336729D02*
X136421551Y-64408158D01*
X136421551Y-64408158D02*
X136373932Y-64455777D01*
X136373932Y-64455777D02*
X136326313Y-64479586D01*
X137064407Y-64336729D02*
X136826312Y-64336729D01*
X136826312Y-64336729D02*
X136802503Y-64574824D01*
X136802503Y-64574824D02*
X136826312Y-64551015D01*
X136826312Y-64551015D02*
X136873931Y-64527205D01*
X136873931Y-64527205D02*
X136992979Y-64527205D01*
X136992979Y-64527205D02*
X137040598Y-64551015D01*
X137040598Y-64551015D02*
X137064407Y-64574824D01*
X137064407Y-64574824D02*
X137088217Y-64622443D01*
X137088217Y-64622443D02*
X137088217Y-64741491D01*
X137088217Y-64741491D02*
X137064407Y-64789110D01*
X137064407Y-64789110D02*
X137040598Y-64812920D01*
X137040598Y-64812920D02*
X136992979Y-64836729D01*
X136992979Y-64836729D02*
X136873931Y-64836729D01*
X136873931Y-64836729D02*
X136826312Y-64812920D01*
X136826312Y-64812920D02*
X136802503Y-64789110D01*
X137612026Y-64336729D02*
X137778692Y-64836729D01*
X137778692Y-64836729D02*
X137945359Y-64336729D01*
X138064406Y-64336729D02*
X138373930Y-64336729D01*
X138373930Y-64336729D02*
X138207263Y-64527205D01*
X138207263Y-64527205D02*
X138278692Y-64527205D01*
X138278692Y-64527205D02*
X138326311Y-64551015D01*
X138326311Y-64551015D02*
X138350120Y-64574824D01*
X138350120Y-64574824D02*
X138373930Y-64622443D01*
X138373930Y-64622443D02*
X138373930Y-64741491D01*
X138373930Y-64741491D02*
X138350120Y-64789110D01*
X138350120Y-64789110D02*
X138326311Y-64812920D01*
X138326311Y-64812920D02*
X138278692Y-64836729D01*
X138278692Y-64836729D02*
X138135835Y-64836729D01*
X138135835Y-64836729D02*
X138088216Y-64812920D01*
X138088216Y-64812920D02*
X138064406Y-64789110D01*
D13*
%TO.C,GIntel*%
G36*
X105486111Y-126492220D02*
G01*
X105529918Y-126494580D01*
X105571800Y-126498771D01*
X105611963Y-126504842D01*
X105650612Y-126512841D01*
X105687953Y-126522816D01*
X105724190Y-126534815D01*
X105759529Y-126548886D01*
X105791667Y-126563824D01*
X105828405Y-126583289D01*
X105862821Y-126604031D01*
X105895145Y-126626232D01*
X105925607Y-126650072D01*
X105954438Y-126675730D01*
X105981866Y-126703387D01*
X106008122Y-126733223D01*
X106008668Y-126733880D01*
X106033571Y-126765841D01*
X106056947Y-126799707D01*
X106078566Y-126835070D01*
X106098199Y-126871520D01*
X106115615Y-126908647D01*
X106130584Y-126946042D01*
X106135536Y-126960096D01*
X106146423Y-126995257D01*
X106155665Y-127031454D01*
X106163005Y-127067631D01*
X106165786Y-127084732D01*
X106167573Y-127097049D01*
X106169116Y-127108498D01*
X106170435Y-127119395D01*
X106171544Y-127130059D01*
X106172462Y-127140809D01*
X106173206Y-127151963D01*
X106173793Y-127163840D01*
X106174239Y-127176759D01*
X106174563Y-127191036D01*
X106174782Y-127206992D01*
X106174912Y-127224945D01*
X106174971Y-127245213D01*
X106174979Y-127255227D01*
X106175000Y-127333357D01*
X105635417Y-127333357D01*
X105583863Y-127333360D01*
X105535060Y-127333369D01*
X105488983Y-127333384D01*
X105445606Y-127333405D01*
X105404901Y-127333433D01*
X105366844Y-127333467D01*
X105331408Y-127333507D01*
X105298566Y-127333554D01*
X105268293Y-127333607D01*
X105240563Y-127333667D01*
X105215349Y-127333733D01*
X105192626Y-127333807D01*
X105172366Y-127333887D01*
X105154545Y-127333974D01*
X105139135Y-127334068D01*
X105126111Y-127334169D01*
X105115447Y-127334277D01*
X105107117Y-127334392D01*
X105101093Y-127334514D01*
X105097351Y-127334644D01*
X105095864Y-127334781D01*
X105095834Y-127334805D01*
X105096279Y-127336955D01*
X105097505Y-127341214D01*
X105099342Y-127347079D01*
X105101622Y-127354048D01*
X105104177Y-127361617D01*
X105106838Y-127369285D01*
X105109438Y-127376548D01*
X105111807Y-127382905D01*
X105112795Y-127385443D01*
X105119485Y-127400916D01*
X105127470Y-127417093D01*
X105136366Y-127433315D01*
X105145793Y-127448925D01*
X105155369Y-127463265D01*
X105164713Y-127475677D01*
X105166208Y-127477497D01*
X105186826Y-127500299D01*
X105208814Y-127520836D01*
X105232221Y-127539128D01*
X105257098Y-127555197D01*
X105283493Y-127569063D01*
X105311456Y-127580746D01*
X105341036Y-127590268D01*
X105372283Y-127597648D01*
X105405247Y-127602908D01*
X105439976Y-127606068D01*
X105476520Y-127607149D01*
X105477053Y-127607149D01*
X105506897Y-127606367D01*
X105535328Y-127603910D01*
X105563149Y-127599656D01*
X105591160Y-127593484D01*
X105618750Y-127585711D01*
X105644980Y-127576648D01*
X105671245Y-127565727D01*
X105697168Y-127553176D01*
X105722373Y-127539224D01*
X105746485Y-127524099D01*
X105769128Y-127508029D01*
X105789925Y-127491242D01*
X105808501Y-127473967D01*
X105816330Y-127465773D01*
X105827084Y-127454044D01*
X105838889Y-127463125D01*
X105842949Y-127466237D01*
X105848843Y-127470738D01*
X105856193Y-127476341D01*
X105864618Y-127482755D01*
X105873740Y-127489694D01*
X105883180Y-127496867D01*
X105887500Y-127500147D01*
X105896506Y-127506986D01*
X105904967Y-127513417D01*
X105912586Y-127519213D01*
X105919067Y-127524149D01*
X105924112Y-127527997D01*
X105927424Y-127530532D01*
X105928472Y-127531342D01*
X105930304Y-127532750D01*
X105934193Y-127535720D01*
X105939987Y-127540136D01*
X105947531Y-127545880D01*
X105956670Y-127552837D01*
X105967252Y-127560887D01*
X105979121Y-127569915D01*
X105992125Y-127579802D01*
X106006108Y-127590433D01*
X106020916Y-127601689D01*
X106036397Y-127613454D01*
X106052395Y-127625610D01*
X106068757Y-127638040D01*
X106075000Y-127642783D01*
X106079883Y-127646499D01*
X106083890Y-127649564D01*
X106086539Y-127651606D01*
X106087351Y-127652251D01*
X106086795Y-127653544D01*
X106084495Y-127656525D01*
X106080692Y-127660942D01*
X106075629Y-127666541D01*
X106069549Y-127673070D01*
X106062695Y-127680275D01*
X106055307Y-127687903D01*
X106047630Y-127695703D01*
X106039905Y-127703420D01*
X106032375Y-127710803D01*
X106025282Y-127717597D01*
X106019899Y-127722610D01*
X105992920Y-127746003D01*
X105963810Y-127768788D01*
X105933216Y-127790520D01*
X105901779Y-127810755D01*
X105870143Y-127829046D01*
X105852778Y-127838175D01*
X105811235Y-127857672D01*
X105768635Y-127874633D01*
X105724955Y-127889063D01*
X105680177Y-127900967D01*
X105634278Y-127910350D01*
X105587240Y-127917217D01*
X105539041Y-127921571D01*
X105489662Y-127923417D01*
X105473611Y-127923479D01*
X105461892Y-127923367D01*
X105449894Y-127923136D01*
X105438236Y-127922807D01*
X105427536Y-127922401D01*
X105418413Y-127921937D01*
X105411806Y-127921464D01*
X105374640Y-127917507D01*
X105339470Y-127912343D01*
X105305729Y-127905823D01*
X105272852Y-127897801D01*
X105240273Y-127888131D01*
X105207427Y-127876665D01*
X105173747Y-127863258D01*
X105153472Y-127854473D01*
X105140729Y-127848505D01*
X105126542Y-127841351D01*
X105111503Y-127833347D01*
X105096205Y-127824829D01*
X105081239Y-127816131D01*
X105067198Y-127807589D01*
X105054673Y-127799537D01*
X105046528Y-127793948D01*
X105030512Y-127782368D01*
X105016336Y-127771687D01*
X105003429Y-127761428D01*
X104991217Y-127751113D01*
X104979128Y-127740264D01*
X104966590Y-127728404D01*
X104958475Y-127720467D01*
X104928574Y-127689032D01*
X104900984Y-127656092D01*
X104875634Y-127621549D01*
X104852452Y-127585304D01*
X104831369Y-127547261D01*
X104828607Y-127541838D01*
X104810222Y-127502590D01*
X104794381Y-127462784D01*
X104781034Y-127422240D01*
X104770132Y-127380775D01*
X104761628Y-127338207D01*
X104755471Y-127294353D01*
X104752129Y-127257146D01*
X104751932Y-127252921D01*
X104751763Y-127246685D01*
X104751622Y-127238834D01*
X104751511Y-127229762D01*
X104751430Y-127219864D01*
X104751379Y-127209533D01*
X104751359Y-127199166D01*
X104751371Y-127189155D01*
X104751416Y-127179896D01*
X104751494Y-127171783D01*
X104751606Y-127165211D01*
X104751752Y-127160574D01*
X104751934Y-127158267D01*
X104751961Y-127158156D01*
X104752291Y-127156041D01*
X104752704Y-127151827D01*
X104753139Y-127146191D01*
X104753430Y-127141679D01*
X104755168Y-127121294D01*
X104758011Y-127099123D01*
X104761828Y-127075870D01*
X104763414Y-127067832D01*
X105098332Y-127067832D01*
X105098502Y-127076915D01*
X105099880Y-127077064D01*
X105103889Y-127077194D01*
X105110382Y-127077306D01*
X105119210Y-127077399D01*
X105130226Y-127077472D01*
X105143284Y-127077526D01*
X105158236Y-127077560D01*
X105174934Y-127077573D01*
X105193232Y-127077565D01*
X105212982Y-127077537D01*
X105234036Y-127077487D01*
X105256249Y-127077415D01*
X105279471Y-127077321D01*
X105280209Y-127077318D01*
X105307011Y-127077206D01*
X105336121Y-127077098D01*
X105367066Y-127076994D01*
X105399377Y-127076896D01*
X105432582Y-127076805D01*
X105466211Y-127076721D01*
X105499793Y-127076647D01*
X105532857Y-127076583D01*
X105564931Y-127076531D01*
X105595547Y-127076491D01*
X105624231Y-127076464D01*
X105644298Y-127076454D01*
X105826790Y-127076398D01*
X105825948Y-127066328D01*
X105825429Y-127060578D01*
X105824866Y-127055855D01*
X105824110Y-127051315D01*
X105823013Y-127046112D01*
X105821426Y-127039401D01*
X105820623Y-127036118D01*
X105814077Y-127014770D01*
X105804976Y-126993285D01*
X105793513Y-126971936D01*
X105779878Y-126950998D01*
X105764265Y-126930743D01*
X105746865Y-126911446D01*
X105727870Y-126893380D01*
X105710333Y-126878981D01*
X105685679Y-126861850D01*
X105659212Y-126846731D01*
X105631090Y-126833682D01*
X105601471Y-126822759D01*
X105570516Y-126814018D01*
X105538382Y-126807518D01*
X105505229Y-126803313D01*
X105496058Y-126802574D01*
X105483106Y-126801936D01*
X105468512Y-126801688D01*
X105453070Y-126801811D01*
X105437577Y-126802283D01*
X105422829Y-126803086D01*
X105409624Y-126804199D01*
X105403472Y-126804914D01*
X105370311Y-126810465D01*
X105338472Y-126818244D01*
X105308046Y-126828195D01*
X105279126Y-126840263D01*
X105251803Y-126854395D01*
X105226170Y-126870534D01*
X105202318Y-126888627D01*
X105180340Y-126908618D01*
X105160326Y-126930452D01*
X105142370Y-126954075D01*
X105135118Y-126965063D01*
X105126603Y-126979664D01*
X105118947Y-126994988D01*
X105112287Y-127010616D01*
X105106759Y-127026132D01*
X105102499Y-127041118D01*
X105099645Y-127055157D01*
X105098332Y-127067832D01*
X104763414Y-127067832D01*
X104766490Y-127052237D01*
X104771867Y-127028929D01*
X104777830Y-127006647D01*
X104779200Y-127001979D01*
X104792596Y-126961725D01*
X104808597Y-126921848D01*
X104827026Y-126882686D01*
X104847711Y-126844577D01*
X104870476Y-126807859D01*
X104895149Y-126772868D01*
X104901937Y-126763989D01*
X104913504Y-126749726D01*
X104926776Y-126734413D01*
X104941208Y-126718623D01*
X104956253Y-126702934D01*
X104971365Y-126687921D01*
X104985999Y-126674160D01*
X104993056Y-126667850D01*
X105011339Y-126652573D01*
X105031611Y-126636967D01*
X105053198Y-126621495D01*
X105075426Y-126606620D01*
X105097622Y-126592804D01*
X105119111Y-126580510D01*
X105124306Y-126577722D01*
X105129620Y-126574888D01*
X105134260Y-126572370D01*
X105137480Y-126570575D01*
X105138195Y-126570156D01*
X105141119Y-126568580D01*
X105146095Y-126566114D01*
X105152632Y-126562983D01*
X105160237Y-126559416D01*
X105168419Y-126555637D01*
X105176688Y-126551874D01*
X105184551Y-126548352D01*
X105191516Y-126545299D01*
X105197093Y-126542942D01*
X105198401Y-126542412D01*
X105236459Y-126528598D01*
X105276014Y-126516873D01*
X105316655Y-126507308D01*
X105357969Y-126499976D01*
X105399544Y-126494949D01*
X105440967Y-126492298D01*
X105481826Y-126492095D01*
X105486111Y-126492220D01*
G37*
G36*
X104387500Y-126249959D02*
G01*
X104387500Y-126518034D01*
X104518756Y-126518034D01*
X104650012Y-126518034D01*
X104649659Y-126673945D01*
X104649306Y-126829857D01*
X104520139Y-126830064D01*
X104501412Y-126830096D01*
X104483462Y-126830129D01*
X104466484Y-126830163D01*
X104450677Y-126830197D01*
X104436236Y-126830232D01*
X104423357Y-126830265D01*
X104412237Y-126830298D01*
X104403072Y-126830329D01*
X104396059Y-126830358D01*
X104391394Y-126830384D01*
X104389274Y-126830408D01*
X104389176Y-126830412D01*
X104388959Y-126830852D01*
X104388761Y-126832205D01*
X104388581Y-126834573D01*
X104388420Y-126838057D01*
X104388277Y-126842758D01*
X104388150Y-126848778D01*
X104388041Y-126856217D01*
X104387947Y-126865179D01*
X104387870Y-126875762D01*
X104387807Y-126888071D01*
X104387759Y-126902204D01*
X104387726Y-126918265D01*
X104387707Y-126936354D01*
X104387700Y-126956573D01*
X104387707Y-126979024D01*
X104387726Y-127003806D01*
X104387757Y-127031023D01*
X104387800Y-127060775D01*
X104387853Y-127093164D01*
X104387877Y-127106608D01*
X104387937Y-127140024D01*
X104387994Y-127170788D01*
X104388051Y-127199027D01*
X104388111Y-127224868D01*
X104388176Y-127248437D01*
X104388249Y-127269860D01*
X104388332Y-127289264D01*
X104388430Y-127306775D01*
X104388544Y-127322520D01*
X104388678Y-127336625D01*
X104388833Y-127349217D01*
X104389013Y-127360422D01*
X104389221Y-127370366D01*
X104389460Y-127379177D01*
X104389732Y-127386980D01*
X104390040Y-127393902D01*
X104390386Y-127400070D01*
X104390775Y-127405609D01*
X104391208Y-127410647D01*
X104391688Y-127415309D01*
X104392218Y-127419723D01*
X104392801Y-127424014D01*
X104393440Y-127428310D01*
X104394137Y-127432736D01*
X104394895Y-127437420D01*
X104395235Y-127439512D01*
X104399700Y-127460739D01*
X104405857Y-127479995D01*
X104413668Y-127497196D01*
X104423093Y-127512259D01*
X104434093Y-127525099D01*
X104435563Y-127526530D01*
X104444017Y-127533873D01*
X104453228Y-127540401D01*
X104463384Y-127546160D01*
X104474672Y-127551196D01*
X104487281Y-127555553D01*
X104501400Y-127559279D01*
X104517216Y-127562417D01*
X104534919Y-127565014D01*
X104554695Y-127567115D01*
X104576734Y-127568765D01*
X104601223Y-127570011D01*
X104618056Y-127570609D01*
X104649306Y-127571564D01*
X104649658Y-127739976D01*
X104649708Y-127766003D01*
X104649741Y-127789377D01*
X104649756Y-127810222D01*
X104649752Y-127828662D01*
X104649729Y-127844823D01*
X104649684Y-127858829D01*
X104649619Y-127870804D01*
X104649530Y-127880872D01*
X104649417Y-127889159D01*
X104649280Y-127895789D01*
X104649116Y-127900886D01*
X104648926Y-127904575D01*
X104648708Y-127906981D01*
X104648461Y-127908227D01*
X104648270Y-127908477D01*
X104641047Y-127908790D01*
X104635524Y-127908920D01*
X104632186Y-127908855D01*
X104631815Y-127908816D01*
X104630042Y-127908742D01*
X104625795Y-127908642D01*
X104619378Y-127908521D01*
X104611095Y-127908384D01*
X104601249Y-127908235D01*
X104590145Y-127908080D01*
X104578086Y-127907924D01*
X104572917Y-127907860D01*
X104560347Y-127907693D01*
X104548431Y-127907508D01*
X104537505Y-127907311D01*
X104527902Y-127907109D01*
X104519957Y-127906910D01*
X104514004Y-127906722D01*
X104510378Y-127906550D01*
X104509722Y-127906496D01*
X104505546Y-127906107D01*
X104499593Y-127905632D01*
X104492858Y-127905147D01*
X104489584Y-127904929D01*
X104480513Y-127904252D01*
X104469840Y-127903301D01*
X104458092Y-127902137D01*
X104445798Y-127900822D01*
X104433485Y-127899414D01*
X104421681Y-127897977D01*
X104410913Y-127896570D01*
X104401711Y-127895254D01*
X104394601Y-127894091D01*
X104393056Y-127893800D01*
X104389794Y-127893184D01*
X104385013Y-127892304D01*
X104381250Y-127891623D01*
X104362246Y-127887771D01*
X104342098Y-127882899D01*
X104321601Y-127877238D01*
X104301549Y-127871019D01*
X104282735Y-127864476D01*
X104266953Y-127858262D01*
X104245981Y-127848603D01*
X104225028Y-127837417D01*
X104204871Y-127825163D01*
X104186287Y-127812300D01*
X104177084Y-127805185D01*
X104168152Y-127797509D01*
X104158365Y-127788307D01*
X104148362Y-127778238D01*
X104138779Y-127767961D01*
X104130254Y-127758134D01*
X104124399Y-127750740D01*
X104120155Y-127745059D01*
X104116290Y-127739886D01*
X104113234Y-127735796D01*
X104111427Y-127733378D01*
X104107432Y-127727513D01*
X104102635Y-127719643D01*
X104097327Y-127710316D01*
X104091800Y-127700081D01*
X104086343Y-127689488D01*
X104081247Y-127679085D01*
X104076801Y-127669422D01*
X104073671Y-127661998D01*
X104064073Y-127635696D01*
X104055560Y-127607798D01*
X104048109Y-127578168D01*
X104041697Y-127546667D01*
X104036299Y-127513158D01*
X104031892Y-127477502D01*
X104028453Y-127439562D01*
X104025957Y-127399201D01*
X104025097Y-127379192D01*
X104025026Y-127375897D01*
X104024957Y-127369912D01*
X104024890Y-127361328D01*
X104024825Y-127350231D01*
X104024762Y-127336712D01*
X104024702Y-127320859D01*
X104024643Y-127302760D01*
X104024588Y-127282505D01*
X104024534Y-127260183D01*
X104024484Y-127235882D01*
X104024436Y-127209690D01*
X104024392Y-127181698D01*
X104024351Y-127151993D01*
X104024312Y-127120664D01*
X104024277Y-127087801D01*
X104024246Y-127053491D01*
X104024218Y-127017824D01*
X104024194Y-126980888D01*
X104024174Y-126942773D01*
X104024157Y-126903567D01*
X104024145Y-126863359D01*
X104024137Y-126822237D01*
X104024133Y-126780291D01*
X104024134Y-126737609D01*
X104024139Y-126694280D01*
X104024144Y-126665959D01*
X104024306Y-125982588D01*
X104205903Y-125982236D01*
X104387500Y-125981883D01*
X104387500Y-126249959D01*
G37*
G36*
X106724654Y-126885763D02*
G01*
X106724306Y-127895193D01*
X106543361Y-127895266D01*
X106521170Y-127895270D01*
X106499751Y-127895265D01*
X106479267Y-127895250D01*
X106459883Y-127895226D01*
X106441760Y-127895194D01*
X106425064Y-127895155D01*
X106409958Y-127895108D01*
X106396605Y-127895055D01*
X106385170Y-127894996D01*
X106375815Y-127894931D01*
X106368706Y-127894861D01*
X106364004Y-127894787D01*
X106361875Y-127894708D01*
X106361763Y-127894687D01*
X106361729Y-127893276D01*
X106361695Y-127889155D01*
X106361662Y-127882394D01*
X106361630Y-127873063D01*
X106361597Y-127861230D01*
X106361566Y-127846965D01*
X106361535Y-127830335D01*
X106361505Y-127811412D01*
X106361476Y-127790263D01*
X106361447Y-127766957D01*
X106361419Y-127741564D01*
X106361393Y-127714153D01*
X106361367Y-127684793D01*
X106361342Y-127653552D01*
X106361318Y-127620500D01*
X106361295Y-127585706D01*
X106361273Y-127549240D01*
X106361253Y-127511169D01*
X106361233Y-127471563D01*
X106361215Y-127430492D01*
X106361199Y-127388024D01*
X106361183Y-127344228D01*
X106361169Y-127299174D01*
X106361156Y-127252929D01*
X106361145Y-127205565D01*
X106361135Y-127157149D01*
X106361127Y-127107750D01*
X106361121Y-127057438D01*
X106361116Y-127006282D01*
X106361113Y-126954351D01*
X106361111Y-126901713D01*
X106361111Y-126885184D01*
X106361111Y-125876332D01*
X106543057Y-125876332D01*
X106725002Y-125876332D01*
X106724654Y-126885763D01*
G37*
G36*
X102247222Y-127206266D02*
G01*
X102247222Y-127894498D01*
X102065972Y-127894498D01*
X101884722Y-127894498D01*
X101884722Y-127206266D01*
X101884722Y-126518034D01*
X102065972Y-126518034D01*
X102247222Y-126518034D01*
X102247222Y-127206266D01*
G37*
G36*
X103260417Y-126490446D02*
G01*
X103304219Y-126492087D01*
X103346327Y-126495922D01*
X103386763Y-126501956D01*
X103425545Y-126510195D01*
X103462692Y-126520645D01*
X103498225Y-126533314D01*
X103532163Y-126548205D01*
X103564526Y-126565327D01*
X103595334Y-126584684D01*
X103618318Y-126601356D01*
X103626503Y-126608030D01*
X103636004Y-126616385D01*
X103646362Y-126625965D01*
X103657115Y-126636315D01*
X103667802Y-126646980D01*
X103677965Y-126657506D01*
X103687141Y-126667437D01*
X103694871Y-126676318D01*
X103697754Y-126679849D01*
X103720051Y-126710055D01*
X103740194Y-126741893D01*
X103758194Y-126775393D01*
X103774066Y-126810588D01*
X103787820Y-126847508D01*
X103799471Y-126886186D01*
X103809030Y-126926653D01*
X103816510Y-126968940D01*
X103818066Y-126979865D01*
X103818768Y-126984984D01*
X103819425Y-126989710D01*
X103820038Y-126994144D01*
X103820608Y-126998385D01*
X103821138Y-127002536D01*
X103821628Y-127006696D01*
X103822081Y-127010965D01*
X103822498Y-127015445D01*
X103822881Y-127020236D01*
X103823231Y-127025439D01*
X103823550Y-127031153D01*
X103823839Y-127037480D01*
X103824101Y-127044520D01*
X103824337Y-127052374D01*
X103824548Y-127061142D01*
X103824737Y-127070925D01*
X103824904Y-127081824D01*
X103825051Y-127093938D01*
X103825181Y-127107369D01*
X103825294Y-127122216D01*
X103825392Y-127138582D01*
X103825478Y-127156565D01*
X103825551Y-127176267D01*
X103825615Y-127197789D01*
X103825671Y-127221230D01*
X103825720Y-127246691D01*
X103825764Y-127274274D01*
X103825804Y-127304078D01*
X103825843Y-127336204D01*
X103825882Y-127370752D01*
X103825922Y-127407824D01*
X103825966Y-127447519D01*
X103825991Y-127469827D01*
X103826474Y-127894509D01*
X103643445Y-127894156D01*
X103460417Y-127893804D01*
X103459647Y-127501421D01*
X103459571Y-127461881D01*
X103459502Y-127425015D01*
X103459437Y-127390722D01*
X103459375Y-127358899D01*
X103459313Y-127329444D01*
X103459250Y-127302252D01*
X103459184Y-127277222D01*
X103459111Y-127254252D01*
X103459031Y-127233238D01*
X103458941Y-127214077D01*
X103458839Y-127196667D01*
X103458724Y-127180906D01*
X103458592Y-127166690D01*
X103458441Y-127153917D01*
X103458271Y-127142484D01*
X103458078Y-127132289D01*
X103457861Y-127123229D01*
X103457617Y-127115200D01*
X103457345Y-127108102D01*
X103457042Y-127101829D01*
X103456707Y-127096281D01*
X103456336Y-127091354D01*
X103455929Y-127086946D01*
X103455483Y-127082954D01*
X103454995Y-127079275D01*
X103454465Y-127075806D01*
X103453889Y-127072446D01*
X103453266Y-127069090D01*
X103452594Y-127065637D01*
X103451870Y-127061984D01*
X103451093Y-127058028D01*
X103450619Y-127055564D01*
X103443528Y-127024365D01*
X103434488Y-126995063D01*
X103423447Y-126967522D01*
X103410353Y-126941609D01*
X103398811Y-126922641D01*
X103383461Y-126901741D01*
X103366164Y-126882784D01*
X103346988Y-126865801D01*
X103326000Y-126850822D01*
X103303267Y-126837877D01*
X103278858Y-126826997D01*
X103252840Y-126818213D01*
X103225280Y-126811554D01*
X103196247Y-126807051D01*
X103165807Y-126804735D01*
X103136806Y-126804557D01*
X103116986Y-126805448D01*
X103099025Y-126807139D01*
X103082086Y-126809772D01*
X103065330Y-126813490D01*
X103047917Y-126818434D01*
X103040125Y-126820937D01*
X103029866Y-126824756D01*
X103018103Y-126829840D01*
X103005574Y-126835817D01*
X102993020Y-126842317D01*
X102981181Y-126848969D01*
X102970797Y-126855402D01*
X102969243Y-126856439D01*
X102959224Y-126863551D01*
X102948594Y-126871708D01*
X102937930Y-126880420D01*
X102927807Y-126889202D01*
X102918803Y-126897565D01*
X102911495Y-126905021D01*
X102910580Y-126906032D01*
X102894173Y-126926093D01*
X102879489Y-126947661D01*
X102866494Y-126970844D01*
X102855150Y-126995744D01*
X102845421Y-127022467D01*
X102837271Y-127051119D01*
X102830663Y-127081804D01*
X102825560Y-127114627D01*
X102821926Y-127149692D01*
X102820905Y-127163903D01*
X102820730Y-127168131D01*
X102820565Y-127175115D01*
X102820412Y-127184831D01*
X102820269Y-127197256D01*
X102820138Y-127212369D01*
X102820017Y-127230146D01*
X102819908Y-127250564D01*
X102819811Y-127273601D01*
X102819724Y-127299234D01*
X102819649Y-127327440D01*
X102819586Y-127358196D01*
X102819535Y-127391480D01*
X102819495Y-127427269D01*
X102819467Y-127465541D01*
X102819451Y-127506271D01*
X102819447Y-127540660D01*
X102819445Y-127894498D01*
X102639665Y-127894498D01*
X102617551Y-127894490D01*
X102596209Y-127894467D01*
X102575806Y-127894430D01*
X102556504Y-127894380D01*
X102538469Y-127894317D01*
X102521863Y-127894243D01*
X102506852Y-127894158D01*
X102493598Y-127894064D01*
X102482267Y-127893961D01*
X102473022Y-127893851D01*
X102466027Y-127893734D01*
X102461447Y-127893612D01*
X102459445Y-127893484D01*
X102459367Y-127893457D01*
X102459334Y-127892015D01*
X102459302Y-127887879D01*
X102459272Y-127881133D01*
X102459242Y-127871861D01*
X102459213Y-127860145D01*
X102459185Y-127846071D01*
X102459158Y-127829722D01*
X102459133Y-127811181D01*
X102459109Y-127790532D01*
X102459086Y-127767860D01*
X102459064Y-127743248D01*
X102459044Y-127716779D01*
X102459025Y-127688539D01*
X102459008Y-127658609D01*
X102458992Y-127627075D01*
X102458978Y-127594019D01*
X102458966Y-127559527D01*
X102458956Y-127523681D01*
X102458947Y-127486565D01*
X102458940Y-127448263D01*
X102458935Y-127408859D01*
X102458931Y-127368437D01*
X102458930Y-127327081D01*
X102458931Y-127284874D01*
X102458934Y-127241900D01*
X102458938Y-127205572D01*
X102459028Y-126518729D01*
X102637838Y-126518376D01*
X102816648Y-126518024D01*
X102817005Y-126616474D01*
X102817361Y-126714924D01*
X102831926Y-126695583D01*
X102854868Y-126667365D01*
X102880027Y-126640623D01*
X102907125Y-126615603D01*
X102935887Y-126592553D01*
X102966040Y-126571718D01*
X102980059Y-126563088D01*
X102987906Y-126558642D01*
X102997611Y-126553459D01*
X103008471Y-126547887D01*
X103019787Y-126542273D01*
X103030858Y-126536964D01*
X103040982Y-126532308D01*
X103049459Y-126528652D01*
X103049858Y-126528489D01*
X103079856Y-126517546D01*
X103111634Y-126508334D01*
X103144737Y-126500936D01*
X103178709Y-126495433D01*
X103213094Y-126491909D01*
X103247439Y-126490445D01*
X103260417Y-126490446D01*
G37*
G36*
X102256250Y-126096483D02*
G01*
X102256250Y-126286772D01*
X102066923Y-126286797D01*
X102044210Y-126286795D01*
X102022260Y-126286783D01*
X102001234Y-126286762D01*
X101981292Y-126286731D01*
X101962595Y-126286692D01*
X101945303Y-126286645D01*
X101929576Y-126286592D01*
X101915576Y-126286531D01*
X101903462Y-126286465D01*
X101893394Y-126286393D01*
X101885534Y-126286317D01*
X101880041Y-126286236D01*
X101877076Y-126286151D01*
X101876580Y-126286103D01*
X101876459Y-126284653D01*
X101876343Y-126280585D01*
X101876233Y-126274059D01*
X101876129Y-126265236D01*
X101876033Y-126254274D01*
X101875945Y-126241334D01*
X101875866Y-126226576D01*
X101875797Y-126210159D01*
X101875738Y-126192245D01*
X101875691Y-126172992D01*
X101875657Y-126152562D01*
X101875635Y-126131113D01*
X101875627Y-126108805D01*
X101875629Y-126095789D01*
X101875695Y-125906195D01*
X102065972Y-125906195D01*
X102256250Y-125906195D01*
X102256250Y-126096483D01*
G37*
%TO.C,SWRST1*%
D14*
X127275000Y-128000000D02*
G75*
G02*
X124725000Y-128000000I-1275000J0D01*
G01*
X124725000Y-128000000D02*
G75*
G02*
X127275000Y-128000000I1275000J0D01*
G01*
%TO.C,SWBOOT1*%
X142275000Y-128000000D02*
G75*
G02*
X139725000Y-128000000I-1275000J0D01*
G01*
X139725000Y-128000000D02*
G75*
G02*
X142275000Y-128000000I1275000J0D01*
G01*
%TD*%
D15*
%TO.C,C48*%
X158780000Y-101700000D03*
X157820000Y-101700000D03*
%TD*%
D16*
%TO.C,R24*%
X161310000Y-115550000D03*
X160290000Y-115550000D03*
%TD*%
D17*
%TO.C,R23*%
X200825000Y-117400000D03*
X199175000Y-117400000D03*
%TD*%
D15*
%TO.C,C47*%
X158780000Y-104300000D03*
X157820000Y-104300000D03*
%TD*%
D18*
%TO.C,C25*%
X194589411Y-101189411D03*
X193910589Y-100510589D03*
%TD*%
D16*
%TO.C,R30*%
X161710000Y-106750000D03*
X160690000Y-106750000D03*
%TD*%
D19*
%TO.C,Q3*%
X204100000Y-105237500D03*
X206000000Y-105237500D03*
X205050000Y-103362500D03*
%TD*%
D20*
%TO.C,C7*%
X124975000Y-78850000D03*
X123425000Y-78850000D03*
%TD*%
D21*
%TO.C,C44*%
X152500000Y-114320000D03*
X152500000Y-115280000D03*
%TD*%
D22*
%TO.C,R18*%
X103300000Y-114000000D03*
X103300000Y-115650000D03*
%TD*%
D23*
%TO.C,U9*%
X107137500Y-103775000D03*
X107137500Y-104425000D03*
X107137500Y-105075000D03*
X107137500Y-105725000D03*
X107137500Y-106375000D03*
X107137500Y-107025000D03*
X107137500Y-107675000D03*
X107137500Y-108325000D03*
X107137500Y-108975000D03*
X107137500Y-109625000D03*
X112862500Y-109625000D03*
X112862500Y-108975000D03*
X112862500Y-108325000D03*
X112862500Y-107675000D03*
X112862500Y-107025000D03*
X112862500Y-106375000D03*
X112862500Y-105725000D03*
X112862500Y-105075000D03*
X112862500Y-104425000D03*
X112862500Y-103775000D03*
%TD*%
D24*
%TO.C,C4*%
X134625000Y-87100000D03*
X136175000Y-87100000D03*
%TD*%
D25*
%TO.C,R25*%
X120000000Y-72990000D03*
X120000000Y-74010000D03*
%TD*%
D24*
%TO.C,C3*%
X136175000Y-85425000D03*
X134625000Y-85425000D03*
%TD*%
D26*
%TO.C,C34*%
X100062500Y-112150000D03*
X100062500Y-110600000D03*
%TD*%
D27*
%TO.C,C20*%
X125720000Y-111900000D03*
X126680000Y-111900000D03*
%TD*%
D28*
%TO.C,C40*%
X214400000Y-118825000D03*
X214400000Y-120375000D03*
%TD*%
D29*
%TO.C,J2*%
X174700000Y-114000000D03*
X174700000Y-106000000D03*
D30*
X164200000Y-106800000D03*
X164200000Y-107900000D03*
X164200000Y-109000000D03*
X164200000Y-110100000D03*
X164200000Y-111200000D03*
X164200000Y-112300000D03*
X164200000Y-113400000D03*
X164200000Y-114500000D03*
X164200000Y-115600000D03*
D31*
X164800000Y-116800000D03*
D32*
X174300000Y-116800000D03*
X174300000Y-101300000D03*
D33*
X164700000Y-102200000D03*
%TD*%
D28*
%TO.C,C46*%
X196150000Y-103200000D03*
X196150000Y-104750000D03*
%TD*%
D34*
%TO.C,R17*%
X120975000Y-109380000D03*
X122625000Y-109380000D03*
%TD*%
D35*
%TO.C,R9*%
X126090000Y-115400000D03*
X127110000Y-115400000D03*
%TD*%
D15*
%TO.C,C16*%
X150380000Y-124700000D03*
X149420000Y-124700000D03*
%TD*%
D17*
%TO.C,R12*%
X129625000Y-83900000D03*
X127975000Y-83900000D03*
%TD*%
D28*
%TO.C,C35*%
X97500000Y-110600000D03*
X97500000Y-112150000D03*
%TD*%
%TO.C,C41*%
X212600000Y-118825000D03*
X212600000Y-120375000D03*
%TD*%
D36*
%TO.C,D8*%
X158600000Y-112900000D03*
X158600000Y-112200000D03*
%TD*%
D37*
%TO.C,U5*%
X148950000Y-121187500D03*
X149900000Y-121187500D03*
X150850000Y-121187500D03*
X150850000Y-118912500D03*
X148950000Y-118912500D03*
%TD*%
D25*
%TO.C,R6*%
X138100000Y-123390000D03*
X138100000Y-124410000D03*
%TD*%
D28*
%TO.C,C29*%
X98300000Y-104225000D03*
X98300000Y-105775000D03*
%TD*%
D38*
%TO.C,R7*%
X133960624Y-119160624D03*
X133239376Y-118439376D03*
%TD*%
D25*
%TO.C,R32*%
X118900000Y-72990000D03*
X118900000Y-74010000D03*
%TD*%
D39*
%TO.C,U10*%
X96114545Y-118773345D03*
X96114545Y-119723345D03*
X96114545Y-120673345D03*
X98389545Y-120673345D03*
X98389545Y-118773345D03*
%TD*%
D16*
%TO.C,R8*%
X131000000Y-121000000D03*
X129980000Y-121000000D03*
%TD*%
D28*
%TO.C,C42*%
X210800000Y-118825000D03*
X210800000Y-120375000D03*
%TD*%
D40*
%TO.C,L6*%
X212200000Y-113200000D03*
X212200000Y-116600000D03*
%TD*%
D41*
%TO.C,D10*%
X162200000Y-104450000D03*
X162200000Y-105150000D03*
%TD*%
D36*
%TO.C,D7*%
X158600000Y-111000000D03*
X158600000Y-110300000D03*
%TD*%
D25*
%TO.C,R5*%
X136100000Y-123390000D03*
X136100000Y-124410000D03*
%TD*%
D42*
%TO.C,Audio1*%
X94000000Y-87600000D03*
X100000000Y-87600000D03*
D43*
X94100000Y-91600000D03*
X96100000Y-83600000D03*
X101100000Y-91600000D03*
%TD*%
D44*
%TO.C,D3*%
X132100000Y-86325000D03*
X132100000Y-90325000D03*
%TD*%
D34*
%TO.C,R13*%
X104475000Y-91800000D03*
X106125000Y-91800000D03*
%TD*%
D18*
%TO.C,C24*%
X193639411Y-102139411D03*
X192960589Y-101460589D03*
%TD*%
D45*
%TO.C,Q4*%
X200550000Y-108062500D03*
X198650000Y-108062500D03*
X199600000Y-109937500D03*
%TD*%
D22*
%TO.C,R34*%
X213300000Y-105775000D03*
X213300000Y-107425000D03*
%TD*%
D16*
%TO.C,R26*%
X161710000Y-109550000D03*
X160690000Y-109550000D03*
%TD*%
D35*
%TO.C,R1*%
X124190000Y-77300000D03*
X125210000Y-77300000D03*
%TD*%
D46*
%TO.C,Q5*%
X198962500Y-104050000D03*
X198962500Y-105950000D03*
X200837500Y-105000000D03*
%TD*%
D47*
%TO.C,C18*%
X147800000Y-116900000D03*
X147800000Y-115940000D03*
%TD*%
D24*
%TO.C,C28*%
X96825000Y-93700000D03*
X98375000Y-93700000D03*
%TD*%
D48*
%TO.C,BAT-*%
X204500000Y-120800000D03*
%TD*%
D17*
%TO.C,R21*%
X200825000Y-115600000D03*
X199175000Y-115600000D03*
%TD*%
D21*
%TO.C,C45*%
X153700000Y-114320000D03*
X153700000Y-115280000D03*
%TD*%
D20*
%TO.C,C1*%
X125075000Y-71950000D03*
X123525000Y-71950000D03*
%TD*%
D49*
%TO.C,USB1*%
X215400000Y-101630000D03*
X215400000Y-100980000D03*
X215400000Y-100330000D03*
X215400000Y-99680000D03*
X215400000Y-99030000D03*
D50*
X218180000Y-96700000D03*
D29*
X215530000Y-97910000D03*
X215530000Y-102750000D03*
D50*
X218180000Y-103960000D03*
%TD*%
D29*
%TO.C,SWRST1*%
X124300000Y-129700000D03*
X127700000Y-126300000D03*
%TD*%
D24*
%TO.C,C27*%
X104525000Y-90100000D03*
X106075000Y-90100000D03*
%TD*%
D16*
%TO.C,R28*%
X161310000Y-113050000D03*
X160290000Y-113050000D03*
%TD*%
D24*
%TO.C,C31*%
X94725000Y-103300000D03*
X96275000Y-103300000D03*
%TD*%
D51*
%TO.C,X2*%
X209680000Y-95980000D03*
X211520000Y-95980000D03*
X211520000Y-94420000D03*
X209680000Y-94420000D03*
%TD*%
D34*
%TO.C,R16*%
X120975000Y-107680000D03*
X122625000Y-107680000D03*
%TD*%
D20*
%TO.C,C6*%
X124975000Y-80500000D03*
X123425000Y-80500000D03*
%TD*%
D52*
%TO.C,U6*%
X141437500Y-120700000D03*
X141437500Y-119700000D03*
X141437500Y-118700000D03*
X141437500Y-117700000D03*
X141437500Y-116700000D03*
X136162500Y-116700000D03*
X136162500Y-117700000D03*
X136162500Y-118700000D03*
X136162500Y-119700000D03*
X136162500Y-120700000D03*
D53*
X138800000Y-118700000D03*
%TD*%
D54*
%TO.C,U8*%
X197050000Y-95577500D03*
X197050000Y-96212500D03*
X197050000Y-96847500D03*
X197050000Y-97482500D03*
X197050000Y-98117500D03*
X197050000Y-98752500D03*
X197050000Y-99387500D03*
X197050000Y-100022500D03*
X202325000Y-100022500D03*
X202325000Y-99387500D03*
X202325000Y-98752500D03*
X202325000Y-98117500D03*
X202325000Y-97482500D03*
X202325000Y-96847500D03*
X202325000Y-96212500D03*
X202325000Y-95577500D03*
%TD*%
D55*
%TO.C,R19*%
X105200000Y-117325000D03*
X105200000Y-115675000D03*
%TD*%
D15*
%TO.C,C17*%
X150380000Y-123200000D03*
X149420000Y-123200000D03*
%TD*%
D55*
%TO.C,R10*%
X155700568Y-92163495D03*
X155700568Y-90513495D03*
%TD*%
D56*
%TO.C,D5*%
X204050000Y-108200000D03*
X208050000Y-108200000D03*
%TD*%
D20*
%TO.C,C2*%
X125075000Y-73600000D03*
X123525000Y-73600000D03*
%TD*%
D16*
%TO.C,R33*%
X119110000Y-71900000D03*
X118090000Y-71900000D03*
%TD*%
D57*
%TO.C,L5*%
X124000000Y-90100000D03*
X127400000Y-90100000D03*
%TD*%
D34*
%TO.C,R15*%
X120975000Y-105980000D03*
X122625000Y-105980000D03*
%TD*%
D58*
%TO.C,U12*%
X108400000Y-72925000D03*
X108400000Y-73575000D03*
X108400000Y-74225000D03*
X108400000Y-74875000D03*
X108400000Y-75525000D03*
X108400000Y-76175000D03*
X108400000Y-76825000D03*
X108400000Y-77475000D03*
X108400000Y-78125000D03*
X108400000Y-78775000D03*
X108400000Y-79425000D03*
X108400000Y-80075000D03*
X115600000Y-80075000D03*
X115600000Y-79425000D03*
X115600000Y-78775000D03*
X115600000Y-78125000D03*
X115600000Y-77475000D03*
X115600000Y-76825000D03*
X115600000Y-76175000D03*
X115600000Y-75525000D03*
X115600000Y-74875000D03*
X115600000Y-74225000D03*
X115600000Y-73575000D03*
X115600000Y-72925000D03*
%TD*%
D34*
%TO.C,R22*%
X200325000Y-102400000D03*
X201975000Y-102400000D03*
%TD*%
D24*
%TO.C,C32*%
X115225000Y-103900000D03*
X116775000Y-103900000D03*
%TD*%
%TO.C,C33*%
X115225000Y-105600000D03*
X116775000Y-105600000D03*
%TD*%
D41*
%TO.C,D11*%
X160500000Y-104450000D03*
X160500000Y-105150000D03*
%TD*%
D59*
%TO.C,D2*%
X155712500Y-88100000D03*
X157287500Y-88100000D03*
%TD*%
D60*
%TO.C,U13*%
X147745606Y-112520000D03*
X147745606Y-111250000D03*
X147745606Y-109980000D03*
X147745606Y-108710000D03*
X147745606Y-107440000D03*
X147745606Y-106170000D03*
X147745606Y-104900000D03*
X147745606Y-103630000D03*
X147745606Y-102360000D03*
X147745606Y-101090000D03*
X147745606Y-99820000D03*
X147745606Y-98550000D03*
X147745606Y-97280000D03*
X147745606Y-96010000D03*
D61*
X145980606Y-94760000D03*
X144710606Y-94760000D03*
X143440606Y-94760000D03*
X142170606Y-94760000D03*
X140900606Y-94760000D03*
X139630606Y-94760000D03*
X138360606Y-94760000D03*
X137090606Y-94760000D03*
X135820606Y-94760000D03*
X134550606Y-94760000D03*
X133280606Y-94760000D03*
X132010606Y-94760000D03*
D60*
X130245606Y-96010000D03*
X130245606Y-97280000D03*
X130245606Y-98550000D03*
X130245606Y-99820000D03*
X130245606Y-101090000D03*
X130245606Y-102360000D03*
X130245606Y-103630000D03*
X130245606Y-104900000D03*
X130245606Y-106170000D03*
X130245606Y-107440000D03*
X130245606Y-108710000D03*
X130245606Y-109980000D03*
X130245606Y-111250000D03*
X130245606Y-112520000D03*
D62*
X141895606Y-105500000D03*
X141895606Y-104100000D03*
X141195606Y-106200000D03*
X141195606Y-104800000D03*
X141195606Y-103400000D03*
X140495606Y-105500000D03*
D63*
X140495606Y-104800000D03*
D62*
X140495606Y-104100000D03*
X139795606Y-106200000D03*
X139795606Y-104800000D03*
X139795606Y-103400000D03*
X139095606Y-105500000D03*
X139095606Y-104100000D03*
%TD*%
D47*
%TO.C,C19*%
X148900000Y-116900000D03*
X148900000Y-115940000D03*
%TD*%
D64*
%TO.C,R4*%
X151500000Y-103510000D03*
X151500000Y-102490000D03*
%TD*%
D65*
%TO.C,SH1*%
X132400000Y-83800000D03*
X132400000Y-83100000D03*
X132400000Y-82400000D03*
X132400000Y-81700000D03*
X132400000Y-81000000D03*
X132400000Y-80300000D03*
X132400000Y-79600000D03*
X132400000Y-78900000D03*
X132400000Y-78200000D03*
X132400000Y-77500000D03*
X132400000Y-76800000D03*
X132400000Y-76100000D03*
X132400000Y-75400000D03*
X132400000Y-74700000D03*
X132400000Y-74000000D03*
X132400000Y-73300000D03*
X132400000Y-72600000D03*
X132400000Y-71900000D03*
X132400000Y-71200000D03*
X132400000Y-70500000D03*
X132400000Y-69800000D03*
X132400000Y-69100000D03*
X132400000Y-68400000D03*
X132400000Y-67700000D03*
%TD*%
D20*
%TO.C,C43*%
X208612990Y-119992532D03*
X207062990Y-119992532D03*
%TD*%
D66*
%TO.C,U11*%
X202790000Y-114440000D03*
X202790000Y-115710000D03*
X202790000Y-116990000D03*
X202790000Y-118260000D03*
X208610000Y-118260000D03*
X208610000Y-116990000D03*
X208610000Y-115710000D03*
X208610000Y-114440000D03*
D67*
X205700000Y-116350000D03*
%TD*%
D19*
%TO.C,Q1*%
X123750000Y-118837500D03*
X125650000Y-118837500D03*
X124700000Y-116962500D03*
%TD*%
D28*
%TO.C,C49*%
X154210000Y-111200000D03*
X154210000Y-112750000D03*
%TD*%
D34*
%TO.C,R14*%
X96775000Y-95400000D03*
X98425000Y-95400000D03*
%TD*%
D55*
%TO.C,R35*%
X209500000Y-103525000D03*
X209500000Y-101875000D03*
%TD*%
D20*
%TO.C,C5*%
X124975000Y-82150000D03*
X123425000Y-82150000D03*
%TD*%
D68*
%TO.C,U2*%
X124837500Y-86350000D03*
X124837500Y-85400000D03*
X124837500Y-84450000D03*
X122562500Y-84450000D03*
X122562500Y-86350000D03*
%TD*%
D29*
%TO.C,SWBOOT1*%
X139300000Y-129700000D03*
X142700000Y-126300000D03*
%TD*%
D27*
%TO.C,C26*%
X128570000Y-85200000D03*
X129530000Y-85200000D03*
%TD*%
D16*
%TO.C,R31*%
X161710000Y-108250000D03*
X160690000Y-108250000D03*
%TD*%
D19*
%TO.C,Q2*%
X127750000Y-118837500D03*
X129650000Y-118837500D03*
X128700000Y-116962500D03*
%TD*%
D69*
%TO.C,C39*%
X203450000Y-112600000D03*
X205350000Y-112600000D03*
%TD*%
D36*
%TO.C,D6*%
X158600000Y-109150000D03*
X158600000Y-108450000D03*
%TD*%
D24*
%TO.C,C36*%
X96152045Y-126823345D03*
X97702045Y-126823345D03*
%TD*%
%TO.C,C38*%
X203725000Y-110800000D03*
X205275000Y-110800000D03*
%TD*%
D28*
%TO.C,C50*%
X151700000Y-111200000D03*
X151700000Y-112750000D03*
%TD*%
D22*
%TO.C,R11*%
X126500000Y-84275000D03*
X126500000Y-85925000D03*
%TD*%
D27*
%TO.C,C21*%
X133420000Y-121400000D03*
X134380000Y-121400000D03*
%TD*%
D20*
%TO.C,C30*%
X96275000Y-105200000D03*
X94725000Y-105200000D03*
%TD*%
D28*
%TO.C,C37*%
X101752045Y-118748345D03*
X101752045Y-120298345D03*
%TD*%
D70*
%TO.C,Y1*%
X154600000Y-104250000D03*
X154600000Y-101750000D03*
%TD*%
D16*
%TO.C,R27*%
X161310000Y-111250000D03*
X160290000Y-111250000D03*
%TD*%
D48*
%TO.C,BAT+*%
X216750000Y-116500000D03*
%TD*%
D36*
%TO.C,D9*%
X157700000Y-114800000D03*
X157700000Y-114100000D03*
%TD*%
D16*
%TO.C,R29*%
X161310000Y-114450000D03*
X160290000Y-114450000D03*
%TD*%
D25*
%TO.C,R36*%
X195450000Y-117140000D03*
X195450000Y-118160000D03*
%TD*%
M02*
