M48
; DRILL file {KiCad 8.0.5-unknown-202409261835~48b9027842~ubuntu24.04.1} date 2024-10-03T20:43:24+0800
; FORMAT={-:-/ absolute / inch / decimal}
; #@! TF.CreationDate,2024-10-03T20:43:24+08:00
; #@! TF.GenerationSoftware,Kicad,Pcbnew,8.0.5-unknown-202409261835~48b9027842~ubuntu24.04.1
; #@! TF.FileFunction,Plated,1,2,Blind
FMAT,2
INCH
; #@! TA.AperFunction,Plated,Buried,ViaDrill
T1C0.0118
; #@! TA.AperFunction,Plated,Buried,ViaDrill
T2C0.0157
%
G90
G05
T1
X3.8634Y-3.6941
X3.9409Y-4.752
X4.0079Y-3.6941
X4.0472Y-4.6693
X4.2717Y-2.9567
X4.3465Y-3.2953
X4.4409Y-3.3691
X4.4803Y-4.2441
X4.5354Y-3.4213
X4.5915Y-3.6487
X4.7205Y-3.5157
X4.7835Y-3.5433
X4.8583Y-3.4134
X4.9085Y-3.3986
X4.9213Y-3.5709
X4.9488Y-3.4055
X5.1496Y-3.1063
X5.4291Y-4.7795
X5.7059Y-4.9161
X5.8031Y-4.1929
X5.8189Y-4.2638
X5.8189Y-4.3228
X5.8268Y-4.8701
X5.8307Y-4.0197
X5.8307Y-4.0748
X5.8583Y-4.9094
X5.9334Y-5.0472
X5.9449Y-4.8386
X5.9567Y-4.9173
X6.0562Y-4.8701
X6.1142Y-3.8189
X6.126Y-4.0
X6.1575Y-4.685
X6.2205Y-4.311
X6.2717Y-4.3543
X6.3071Y-5.0189
X6.3268Y-4.0669
X6.3386Y-4.3268
X6.343Y-4.4659
X6.374Y-4.8189
X6.3898Y-5.0866
X6.4095Y-4.5358
X6.439Y-4.7165
X6.4606Y-4.6575
X6.5827Y-4.9488
X6.6004Y-4.2507
X6.626Y-4.9528
X6.6378Y-3.8031
X6.6811Y-4.5197
X6.7441Y-3.8504
X6.7913Y-4.2217
X6.7943Y-4.0679
X6.8425Y-3.5709
X6.8504Y-4.5315
X6.8661Y-4.8504
X6.878Y-4.8858
X6.8976Y-3.7087
X6.9025Y-4.9204
X6.9055Y-3.622
X6.9173Y-5.0512
X7.1378Y-4.4961
X7.2362Y-4.3346
X7.3583Y-4.1378
X7.371Y-4.0915
X7.3937Y-3.8858
X7.3937Y-4.2717
X7.4213Y-4.248
X7.4882Y-4.2559
X7.4921Y-4.0039
X7.5787Y-3.9921
X7.6811Y-4.7362
X7.685Y-3.8583
X7.7795Y-5.0118
X7.7953Y-4.0354
X7.9528Y-3.8583
X7.9793Y-5.0148
X8.2598Y-5.0354
X8.2756Y-4.8661
X8.2874Y-4.0827
X8.3937Y-4.6457
X8.4724Y-4.6102
T2
X3.752Y-2.8228
X4.4331Y-5.1299
X4.5433Y-5.1299
X6.3701Y-4.8583
X7.1811Y-5.0827
X7.2638Y-5.0039
X7.2717Y-5.1299
X7.6693Y-3.9921
X7.815Y-4.9134
X7.8307Y-5.0512
X8.1614Y-4.8228
X8.4016Y-5.1496
M30
