M48
; DRILL file {KiCad 8.0.5-unknown-202409261835~48b9027842~ubuntu24.04.1} date 2024-10-03T20:43:24+0800
; FORMAT={-:-/ absolute / inch / decimal}
; #@! TF.CreationDate,2024-10-03T20:43:24+08:00
; #@! TF.GenerationSoftware,Kicad,Pcbnew,8.0.5-unknown-202409261835~48b9027842~ubuntu24.04.1
; #@! TF.FileFunction,Plated,2,3,Buried
FMAT,2
INCH
; #@! TA.AperFunction,Plated,Buried,ViaDrill
T1C0.0118
; #@! TA.AperFunction,Plated,Buried,ViaDrill
T2C0.0157
%
G90
G05
T1
X4.1457Y-3.1693
X4.3416Y-3.6487
X5.1575Y-5.0394
X5.5079Y-4.5945
X5.7441Y-4.563
X5.8701Y-4.8386
X6.1024Y-4.4291
X6.1378Y-4.4921
X6.2165Y-4.748
X6.247Y-3.6407
X6.3937Y-3.8071
X6.4291Y-4.685
X6.4573Y-4.9049
X6.5197Y-3.7008
X6.5315Y-4.9764
X6.5512Y-4.6299
X6.5827Y-5.0276
X6.8031Y-4.689
X6.8622Y-4.6299
X6.9724Y-5.0157
X7.0394Y-4.9764
X7.1772Y-4.6299
X7.2283Y-4.6299
X7.5354Y-4.252
X7.6299Y-3.9921
X7.8071Y-4.626
X7.8071Y-4.6929
T2
X7.7559Y-4.6181
X8.0984Y-4.9528
M30
