%TF.GenerationSoftware,KiCad,Pcbnew,8.0.5-8.0.5-0~ubuntu24.04.1*%
%TF.CreationDate,2024-10-28T12:21:11+08:00*%
%TF.ProjectId,EL6170_Pro_Max_Plus,454c3631-3730-45f5-9072-6f5f4d61785f,rev?*%
%TF.SameCoordinates,Original*%
%TF.FileFunction,Paste,Top*%
%TF.FilePolarity,Positive*%
%FSLAX46Y46*%
G04 Gerber Fmt 4.6, Leading zero omitted, Abs format (unit mm)*
G04 Created by KiCad (PCBNEW 8.0.5-8.0.5-0~ubuntu24.04.1) date 2024-10-28 12:21:11*
%MOMM*%
%LPD*%
G01*
G04 APERTURE LIST*
G04 Aperture macros list*
%AMRoundRect*
0 Rectangle with rounded corners*
0 $1 Rounding radius*
0 $2 $3 $4 $5 $6 $7 $8 $9 X,Y pos of 4 corners*
0 Add a 4 corners polygon primitive as box body*
4,1,4,$2,$3,$4,$5,$6,$7,$8,$9,$2,$3,0*
0 Add four circle primitives for the rounded corners*
1,1,$1+$1,$2,$3*
1,1,$1+$1,$4,$5*
1,1,$1+$1,$6,$7*
1,1,$1+$1,$8,$9*
0 Add four rect primitives between the rounded corners*
20,1,$1+$1,$2,$3,$4,$5,0*
20,1,$1+$1,$4,$5,$6,$7,0*
20,1,$1+$1,$6,$7,$8,$9,0*
20,1,$1+$1,$8,$9,$2,$3,0*%
G04 Aperture macros list end*
%ADD10RoundRect,0.140000X0.140000X0.170000X-0.140000X0.170000X-0.140000X-0.170000X0.140000X-0.170000X0*%
%ADD11RoundRect,0.135000X0.135000X0.185000X-0.135000X0.185000X-0.135000X-0.185000X0.135000X-0.185000X0*%
%ADD12RoundRect,0.200000X0.200000X0.275000X-0.200000X0.275000X-0.200000X-0.275000X0.200000X-0.275000X0*%
%ADD13RoundRect,0.140000X0.219203X0.021213X0.021213X0.219203X-0.219203X-0.021213X-0.021213X-0.219203X0*%
%ADD14RoundRect,0.150000X0.150000X-0.587500X0.150000X0.587500X-0.150000X0.587500X-0.150000X-0.587500X0*%
%ADD15RoundRect,0.225000X0.225000X0.250000X-0.225000X0.250000X-0.225000X-0.250000X0.225000X-0.250000X0*%
%ADD16RoundRect,0.140000X-0.170000X0.140000X-0.170000X-0.140000X0.170000X-0.140000X0.170000X0.140000X0*%
%ADD17RoundRect,0.100000X-0.637500X-0.100000X0.637500X-0.100000X0.637500X0.100000X-0.637500X0.100000X0*%
%ADD18RoundRect,0.225000X-0.225000X-0.250000X0.225000X-0.250000X0.225000X0.250000X-0.225000X0.250000X0*%
%ADD19RoundRect,0.135000X-0.185000X0.135000X-0.185000X-0.135000X0.185000X-0.135000X0.185000X0.135000X0*%
%ADD20RoundRect,0.225000X0.250000X-0.225000X0.250000X0.225000X-0.250000X0.225000X-0.250000X-0.225000X0*%
%ADD21RoundRect,0.140000X-0.140000X-0.170000X0.140000X-0.170000X0.140000X0.170000X-0.140000X0.170000X0*%
%ADD22RoundRect,0.225000X-0.250000X0.225000X-0.250000X-0.225000X0.250000X-0.225000X0.250000X0.225000X0*%
%ADD23R,1.600000X0.700000*%
%ADD24R,1.600000X1.200000*%
%ADD25R,2.200000X1.200000*%
%ADD26R,1.400000X1.600000*%
%ADD27RoundRect,0.200000X-0.200000X-0.275000X0.200000X-0.275000X0.200000X0.275000X-0.200000X0.275000X0*%
%ADD28RoundRect,0.135000X-0.135000X-0.185000X0.135000X-0.185000X0.135000X0.185000X-0.135000X0.185000X0*%
%ADD29RoundRect,0.050000X0.250000X-0.100000X0.250000X0.100000X-0.250000X0.100000X-0.250000X-0.100000X0*%
%ADD30RoundRect,0.150000X0.150000X-0.512500X0.150000X0.512500X-0.150000X0.512500X-0.150000X-0.512500X0*%
%ADD31RoundRect,0.135000X0.226274X0.035355X0.035355X0.226274X-0.226274X-0.035355X-0.035355X-0.226274X0*%
%ADD32RoundRect,0.150000X-0.512500X-0.150000X0.512500X-0.150000X0.512500X0.150000X-0.512500X0.150000X0*%
%ADD33R,4.300000X2.400000*%
%ADD34RoundRect,0.050000X-0.250000X0.100000X-0.250000X-0.100000X0.250000X-0.100000X0.250000X0.100000X0*%
%ADD35R,1.500000X3.000000*%
%ADD36RoundRect,0.250000X-0.650000X1.000000X-0.650000X-1.000000X0.650000X-1.000000X0.650000X1.000000X0*%
%ADD37RoundRect,0.150000X-0.150000X0.587500X-0.150000X-0.587500X0.150000X-0.587500X0.150000X0.587500X0*%
%ADD38RoundRect,0.200000X-0.275000X0.200000X-0.275000X-0.200000X0.275000X-0.200000X0.275000X0.200000X0*%
%ADD39RoundRect,0.150000X-0.587500X-0.150000X0.587500X-0.150000X0.587500X0.150000X-0.587500X0.150000X0*%
%ADD40RoundRect,0.140000X0.170000X-0.140000X0.170000X0.140000X-0.170000X0.140000X-0.170000X-0.140000X0*%
%ADD41R,1.850000X0.400000*%
%ADD42R,1.300000X1.720000*%
%ADD43R,0.900000X1.620000*%
%ADD44R,1.000000X0.900000*%
%ADD45RoundRect,0.250000X0.595000X1.080000X-0.595000X1.080000X-0.595000X-1.080000X0.595000X-1.080000X0*%
%ADD46RoundRect,0.150000X0.687500X0.150000X-0.687500X0.150000X-0.687500X-0.150000X0.687500X-0.150000X0*%
%ADD47RoundRect,0.100000X-0.712500X-0.100000X0.712500X-0.100000X0.712500X0.100000X-0.712500X0.100000X0*%
%ADD48RoundRect,0.200000X0.275000X-0.200000X0.275000X0.200000X-0.275000X0.200000X-0.275000X-0.200000X0*%
%ADD49RoundRect,0.250000X-1.000000X-0.650000X1.000000X-0.650000X1.000000X0.650000X-1.000000X0.650000X0*%
%ADD50R,1.900000X5.300000*%
%ADD51R,1.750000X0.450000*%
%ADD52RoundRect,0.218750X-0.218750X-0.256250X0.218750X-0.256250X0.218750X0.256250X-0.218750X0.256250X0*%
%ADD53R,0.900000X0.900000*%
%ADD54R,1.500000X0.900000*%
%ADD55R,0.900000X1.500000*%
%ADD56RoundRect,0.135000X0.185000X-0.135000X0.185000X0.135000X-0.185000X0.135000X-0.185000X-0.135000X0*%
%ADD57R,1.800000X0.400000*%
%ADD58R,1.200000X0.600000*%
%ADD59R,2.400000X3.300000*%
%ADD60RoundRect,0.150000X0.512500X0.150000X-0.512500X0.150000X-0.512500X-0.150000X0.512500X-0.150000X0*%
%ADD61RoundRect,0.250000X-0.250000X-0.475000X0.250000X-0.475000X0.250000X0.475000X-0.250000X0.475000X0*%
%ADD62R,1.800000X1.000000*%
G04 APERTURE END LIST*
D10*
%TO.C,C48*%
X158780000Y-101700000D03*
X157820000Y-101700000D03*
%TD*%
D11*
%TO.C,R24*%
X161310000Y-115550000D03*
X160290000Y-115550000D03*
%TD*%
D12*
%TO.C,R23*%
X200325000Y-117500000D03*
X198675000Y-117500000D03*
%TD*%
D10*
%TO.C,C47*%
X158780000Y-104300000D03*
X157820000Y-104300000D03*
%TD*%
D13*
%TO.C,C25*%
X194589411Y-101189411D03*
X193910589Y-100510589D03*
%TD*%
D11*
%TO.C,R30*%
X161710000Y-106750000D03*
X160690000Y-106750000D03*
%TD*%
D14*
%TO.C,Q3*%
X204100000Y-105237500D03*
X206000000Y-105237500D03*
X205050000Y-103362500D03*
%TD*%
D15*
%TO.C,C7*%
X124975000Y-78850000D03*
X123425000Y-78850000D03*
%TD*%
D16*
%TO.C,C44*%
X152500000Y-114320000D03*
X152500000Y-115280000D03*
%TD*%
D17*
%TO.C,U9*%
X107137500Y-103775000D03*
X107137500Y-104425000D03*
X107137500Y-105075000D03*
X107137500Y-105725000D03*
X107137500Y-106375000D03*
X107137500Y-107025000D03*
X107137500Y-107675000D03*
X107137500Y-108325000D03*
X107137500Y-108975000D03*
X107137500Y-109625000D03*
X112862500Y-109625000D03*
X112862500Y-108975000D03*
X112862500Y-108325000D03*
X112862500Y-107675000D03*
X112862500Y-107025000D03*
X112862500Y-106375000D03*
X112862500Y-105725000D03*
X112862500Y-105075000D03*
X112862500Y-104425000D03*
X112862500Y-103775000D03*
%TD*%
D18*
%TO.C,C4*%
X134625000Y-87100000D03*
X136175000Y-87100000D03*
%TD*%
D19*
%TO.C,R25*%
X120000000Y-72990000D03*
X120000000Y-74010000D03*
%TD*%
D18*
%TO.C,C3*%
X134625000Y-85425000D03*
X136175000Y-85425000D03*
%TD*%
D20*
%TO.C,C34*%
X100062500Y-112150000D03*
X100062500Y-110600000D03*
%TD*%
D21*
%TO.C,C20*%
X125820000Y-111800000D03*
X126780000Y-111800000D03*
%TD*%
D22*
%TO.C,C40*%
X213900000Y-118925000D03*
X213900000Y-120475000D03*
%TD*%
D23*
%TO.C,J2*%
X164200000Y-106800000D03*
X164200000Y-107900000D03*
X164200000Y-109000000D03*
X164200000Y-110100000D03*
X164200000Y-111200000D03*
X164200000Y-112300000D03*
X164200000Y-113400000D03*
X164200000Y-114500000D03*
X164200000Y-115600000D03*
D24*
X164800000Y-116800000D03*
D25*
X174300000Y-116800000D03*
X174300000Y-101300000D03*
D26*
X164700000Y-102200000D03*
%TD*%
D22*
%TO.C,C46*%
X196150000Y-103200000D03*
X196150000Y-104750000D03*
%TD*%
D27*
%TO.C,R17*%
X120975000Y-109380000D03*
X122625000Y-109380000D03*
%TD*%
D28*
%TO.C,R9*%
X126090000Y-115400000D03*
X127110000Y-115400000D03*
%TD*%
D10*
%TO.C,C16*%
X150380000Y-124700000D03*
X149420000Y-124700000D03*
%TD*%
D12*
%TO.C,R12*%
X129625000Y-83900000D03*
X127975000Y-83900000D03*
%TD*%
D22*
%TO.C,C35*%
X97500000Y-110600000D03*
X97500000Y-112150000D03*
%TD*%
%TO.C,C41*%
X212100000Y-118925000D03*
X212100000Y-120475000D03*
%TD*%
D29*
%TO.C,D8*%
X158600000Y-112900000D03*
X158600000Y-112200000D03*
%TD*%
D30*
%TO.C,U5*%
X148950000Y-121187500D03*
X149900000Y-121187500D03*
X150850000Y-121187500D03*
X150850000Y-118912500D03*
X148950000Y-118912500D03*
%TD*%
D19*
%TO.C,R6*%
X138100000Y-123390000D03*
X138100000Y-124410000D03*
%TD*%
D22*
%TO.C,C29*%
X98200000Y-104225000D03*
X98200000Y-105775000D03*
%TD*%
D31*
%TO.C,R7*%
X133960624Y-119160624D03*
X133239376Y-118439376D03*
%TD*%
D19*
%TO.C,R32*%
X118900000Y-72990000D03*
X118900000Y-74010000D03*
%TD*%
D32*
%TO.C,U10*%
X96114545Y-118773345D03*
X96114545Y-119723345D03*
X96114545Y-120673345D03*
X98389545Y-120673345D03*
X98389545Y-118773345D03*
%TD*%
D11*
%TO.C,R8*%
X131000000Y-121000000D03*
X129980000Y-121000000D03*
%TD*%
D22*
%TO.C,C42*%
X210300000Y-118925000D03*
X210300000Y-120475000D03*
%TD*%
D33*
%TO.C,L6*%
X211700000Y-113300000D03*
X211700000Y-116700000D03*
%TD*%
D34*
%TO.C,D10*%
X162200000Y-104450000D03*
X162200000Y-105150000D03*
%TD*%
D29*
%TO.C,D7*%
X158600000Y-111000000D03*
X158600000Y-110300000D03*
%TD*%
D19*
%TO.C,R5*%
X136100000Y-123390000D03*
X136100000Y-124410000D03*
%TD*%
D35*
%TO.C,Audio1*%
X94100000Y-91600000D03*
X96100000Y-83600000D03*
X101100000Y-91600000D03*
%TD*%
D36*
%TO.C,D3*%
X132100000Y-86325000D03*
X132100000Y-90325000D03*
%TD*%
D27*
%TO.C,R13*%
X104475000Y-91800000D03*
X106125000Y-91800000D03*
%TD*%
D13*
%TO.C,C24*%
X193639411Y-102139411D03*
X192960589Y-101460589D03*
%TD*%
D37*
%TO.C,Q4*%
X200550000Y-108062500D03*
X198650000Y-108062500D03*
X199600000Y-109937500D03*
%TD*%
D38*
%TO.C,R34*%
X213300000Y-105775000D03*
X213300000Y-107425000D03*
%TD*%
D11*
%TO.C,R26*%
X161710000Y-109550000D03*
X160690000Y-109550000D03*
%TD*%
D28*
%TO.C,R1*%
X124190000Y-77300000D03*
X125210000Y-77300000D03*
%TD*%
D39*
%TO.C,Q5*%
X198962500Y-104050000D03*
X198962500Y-105950000D03*
X200837500Y-105000000D03*
%TD*%
D40*
%TO.C,C18*%
X147800000Y-116900000D03*
X147800000Y-115940000D03*
%TD*%
D18*
%TO.C,C28*%
X96825000Y-93700000D03*
X98375000Y-93700000D03*
%TD*%
D12*
%TO.C,R21*%
X200300000Y-115800000D03*
X198650000Y-115800000D03*
%TD*%
D16*
%TO.C,C45*%
X153700000Y-114320000D03*
X153700000Y-115280000D03*
%TD*%
D15*
%TO.C,C1*%
X125075000Y-71950000D03*
X123525000Y-71950000D03*
%TD*%
D41*
%TO.C,USB1*%
X215280000Y-101630000D03*
X215280000Y-100980000D03*
X215280000Y-100330000D03*
X215280000Y-99680000D03*
X215280000Y-99030000D03*
D42*
X218120000Y-103570000D03*
D43*
X215760000Y-103520000D03*
X215760000Y-97140000D03*
D42*
X218120000Y-97090000D03*
%TD*%
D18*
%TO.C,C27*%
X104525000Y-90100000D03*
X106075000Y-90100000D03*
%TD*%
D11*
%TO.C,R28*%
X161310000Y-113050000D03*
X160290000Y-113050000D03*
%TD*%
D18*
%TO.C,C31*%
X94725000Y-103300000D03*
X96275000Y-103300000D03*
%TD*%
D44*
%TO.C,X2*%
X209680000Y-95980000D03*
X211520000Y-95980000D03*
X211520000Y-94420000D03*
X209680000Y-94420000D03*
%TD*%
D27*
%TO.C,R16*%
X120975000Y-107680000D03*
X122625000Y-107680000D03*
%TD*%
D15*
%TO.C,C6*%
X124975000Y-80500000D03*
X123425000Y-80500000D03*
%TD*%
D45*
%TO.C,U6*%
X138800000Y-118700000D03*
D46*
X141437500Y-120700000D03*
X141437500Y-119700000D03*
X141437500Y-118700000D03*
X141437500Y-117700000D03*
X141437500Y-116700000D03*
X136162500Y-116700000D03*
X136162500Y-117700000D03*
X136162500Y-118700000D03*
X136162500Y-119700000D03*
X136162500Y-120700000D03*
%TD*%
D47*
%TO.C,U8*%
X197050000Y-95577500D03*
X197050000Y-96212500D03*
X197050000Y-96847500D03*
X197050000Y-97482500D03*
X197050000Y-98117500D03*
X197050000Y-98752500D03*
X197050000Y-99387500D03*
X197050000Y-100022500D03*
X202325000Y-100022500D03*
X202325000Y-99387500D03*
X202325000Y-98752500D03*
X202325000Y-98117500D03*
X202325000Y-97482500D03*
X202325000Y-96847500D03*
X202325000Y-96212500D03*
X202325000Y-95577500D03*
%TD*%
D48*
%TO.C,R19*%
X105200000Y-117425000D03*
X105200000Y-115775000D03*
%TD*%
D10*
%TO.C,C17*%
X150380000Y-123200000D03*
X149420000Y-123200000D03*
%TD*%
D48*
%TO.C,R10*%
X155700568Y-92163495D03*
X155700568Y-90513495D03*
%TD*%
D49*
%TO.C,D5*%
X203550000Y-108300000D03*
X207550000Y-108300000D03*
%TD*%
D15*
%TO.C,C2*%
X125075000Y-73600000D03*
X123525000Y-73600000D03*
%TD*%
D11*
%TO.C,R33*%
X119110000Y-71900000D03*
X118090000Y-71900000D03*
%TD*%
D50*
%TO.C,L5*%
X124000000Y-90100000D03*
X127400000Y-90100000D03*
%TD*%
D27*
%TO.C,R15*%
X120975000Y-105980000D03*
X122625000Y-105980000D03*
%TD*%
D51*
%TO.C,U12*%
X108400000Y-72925000D03*
X108400000Y-73575000D03*
X108400000Y-74225000D03*
X108400000Y-74875000D03*
X108400000Y-75525000D03*
X108400000Y-76175000D03*
X108400000Y-76825000D03*
X108400000Y-77475000D03*
X108400000Y-78125000D03*
X108400000Y-78775000D03*
X108400000Y-79425000D03*
X108400000Y-80075000D03*
X115600000Y-80075000D03*
X115600000Y-79425000D03*
X115600000Y-78775000D03*
X115600000Y-78125000D03*
X115600000Y-77475000D03*
X115600000Y-76825000D03*
X115600000Y-76175000D03*
X115600000Y-75525000D03*
X115600000Y-74875000D03*
X115600000Y-74225000D03*
X115600000Y-73575000D03*
X115600000Y-72925000D03*
%TD*%
D27*
%TO.C,R22*%
X200325000Y-102400000D03*
X201975000Y-102400000D03*
%TD*%
D18*
%TO.C,C32*%
X115225000Y-103900000D03*
X116775000Y-103900000D03*
%TD*%
%TO.C,C33*%
X115225000Y-105600000D03*
X116775000Y-105600000D03*
%TD*%
D34*
%TO.C,D11*%
X160500000Y-104450000D03*
X160500000Y-105150000D03*
%TD*%
D52*
%TO.C,D2*%
X155712500Y-88100000D03*
X157287500Y-88100000D03*
%TD*%
D53*
%TO.C,U13*%
X141900000Y-103400000D03*
X141895606Y-106200000D03*
X141895606Y-104800000D03*
X140500000Y-103400000D03*
X140495606Y-106200000D03*
X140495606Y-104800000D03*
X139100000Y-103400000D03*
X139095606Y-106200000D03*
X139095606Y-104800000D03*
D54*
X147745606Y-112520000D03*
X147745606Y-111250000D03*
X147745606Y-109980000D03*
X147745606Y-108710000D03*
X147745606Y-107440000D03*
X147745606Y-106170000D03*
X147745606Y-104900000D03*
X147745606Y-103630000D03*
X147745606Y-102360000D03*
X147745606Y-101090000D03*
X147745606Y-99820000D03*
X147745606Y-98550000D03*
X147745606Y-97280000D03*
X147745606Y-96010000D03*
D55*
X145980606Y-94760000D03*
X144710606Y-94760000D03*
X143440606Y-94760000D03*
X142170606Y-94760000D03*
X140900606Y-94760000D03*
X139630606Y-94760000D03*
X138360606Y-94760000D03*
X137090606Y-94760000D03*
X135820606Y-94760000D03*
X134550606Y-94760000D03*
X133280606Y-94760000D03*
X132010606Y-94760000D03*
D54*
X130245606Y-96010000D03*
X130245606Y-97280000D03*
X130245606Y-98550000D03*
X130245606Y-99820000D03*
X130245606Y-101090000D03*
X130245606Y-102360000D03*
X130245606Y-103630000D03*
X130245606Y-104900000D03*
X130245606Y-106170000D03*
X130245606Y-107440000D03*
X130245606Y-108710000D03*
X130245606Y-109980000D03*
X130245606Y-111250000D03*
X130245606Y-112520000D03*
%TD*%
D40*
%TO.C,C19*%
X148900000Y-116900000D03*
X148900000Y-115940000D03*
%TD*%
D56*
%TO.C,R4*%
X151500000Y-103510000D03*
X151500000Y-102490000D03*
%TD*%
D57*
%TO.C,SH1*%
X132400000Y-83600000D03*
X132400000Y-82900000D03*
X132400000Y-82200000D03*
X132400000Y-81500000D03*
X132400000Y-80800000D03*
X132400000Y-80100000D03*
X132400000Y-79400000D03*
X132400000Y-78700000D03*
X132400000Y-78000000D03*
X132400000Y-77300000D03*
X132400000Y-76600000D03*
X132400000Y-75900000D03*
X132400000Y-75200000D03*
X132400000Y-74500000D03*
X132400000Y-73800000D03*
X132400000Y-73100000D03*
X132400000Y-72400000D03*
X132400000Y-71700000D03*
X132400000Y-71000000D03*
X132400000Y-70300000D03*
X132400000Y-69600000D03*
X132400000Y-68900000D03*
X132400000Y-68200000D03*
X132400000Y-67500000D03*
%TD*%
D15*
%TO.C,C43*%
X208112990Y-120092532D03*
X206562990Y-120092532D03*
%TD*%
D58*
%TO.C,U11*%
X202290000Y-114540000D03*
X202290000Y-115810000D03*
X202290000Y-117090000D03*
X202290000Y-118360000D03*
X208110000Y-118360000D03*
X208110000Y-117090000D03*
X208110000Y-115810000D03*
X208110000Y-114540000D03*
D59*
X205200000Y-116450000D03*
%TD*%
D14*
%TO.C,Q1*%
X123750000Y-118837500D03*
X125650000Y-118837500D03*
X124700000Y-116962500D03*
%TD*%
D22*
%TO.C,C49*%
X154210000Y-111200000D03*
X154210000Y-112750000D03*
%TD*%
D27*
%TO.C,R14*%
X96775000Y-95400000D03*
X98425000Y-95400000D03*
%TD*%
D48*
%TO.C,R35*%
X209500000Y-103525000D03*
X209500000Y-101875000D03*
%TD*%
D15*
%TO.C,C5*%
X124975000Y-82150000D03*
X123425000Y-82150000D03*
%TD*%
D60*
%TO.C,U2*%
X124837500Y-86350000D03*
X124837500Y-85400000D03*
X124837500Y-84450000D03*
X122562500Y-84450000D03*
X122562500Y-86350000D03*
%TD*%
D21*
%TO.C,C26*%
X128570000Y-85200000D03*
X129530000Y-85200000D03*
%TD*%
D11*
%TO.C,R31*%
X161710000Y-108250000D03*
X160690000Y-108250000D03*
%TD*%
D14*
%TO.C,Q2*%
X127750000Y-118837500D03*
X129650000Y-118837500D03*
X128700000Y-116962500D03*
%TD*%
D61*
%TO.C,C39*%
X202950000Y-112700000D03*
X204850000Y-112700000D03*
%TD*%
D29*
%TO.C,D6*%
X158600000Y-109150000D03*
X158600000Y-108450000D03*
%TD*%
D18*
%TO.C,C36*%
X96152045Y-126823345D03*
X97702045Y-126823345D03*
%TD*%
%TO.C,C38*%
X203225000Y-110900000D03*
X204775000Y-110900000D03*
%TD*%
D22*
%TO.C,C50*%
X151700000Y-111200000D03*
X151700000Y-112750000D03*
%TD*%
D38*
%TO.C,R11*%
X126500000Y-84275000D03*
X126500000Y-85925000D03*
%TD*%
D21*
%TO.C,C21*%
X133420000Y-121400000D03*
X134380000Y-121400000D03*
%TD*%
D15*
%TO.C,C30*%
X96275000Y-105200000D03*
X94725000Y-105200000D03*
%TD*%
D22*
%TO.C,C37*%
X101752045Y-118748345D03*
X101752045Y-120298345D03*
%TD*%
D62*
%TO.C,Y1*%
X154600000Y-104250000D03*
X154600000Y-101750000D03*
%TD*%
D11*
%TO.C,R27*%
X161310000Y-111250000D03*
X160290000Y-111250000D03*
%TD*%
D29*
%TO.C,D9*%
X157700000Y-114800000D03*
X157700000Y-114100000D03*
%TD*%
D11*
%TO.C,R29*%
X161310000Y-114450000D03*
X160290000Y-114450000D03*
%TD*%
D19*
%TO.C,R36*%
X195450000Y-117140000D03*
X195450000Y-118160000D03*
%TD*%
M02*
