%TF.GenerationSoftware,KiCad,Pcbnew,8.0.5-8.0.5-0~ubuntu24.04.1*%
%TF.CreationDate,2024-10-16T00:37:47+08:00*%
%TF.ProjectId,EL6170_Pro_Max_Plus,454c3631-3730-45f5-9072-6f5f4d61785f,rev?*%
%TF.SameCoordinates,Original*%
%TF.FileFunction,Profile,NP*%
%FSLAX46Y46*%
G04 Gerber Fmt 4.6, Leading zero omitted, Abs format (unit mm)*
G04 Created by KiCad (PCBNEW 8.0.5-8.0.5-0~ubuntu24.04.1) date 2024-10-16 00:37:47*
%MOMM*%
%LPD*%
G01*
G04 APERTURE LIST*
%TA.AperFunction,Profile*%
%ADD10C,0.050000*%
%TD*%
G04 APERTURE END LIST*
D10*
X93800000Y-123600000D02*
X92900000Y-123600000D01*
X215500000Y-133000000D02*
X94900000Y-133000000D01*
X92000000Y-126100000D02*
X92000000Y-130100000D01*
X152200000Y-86500000D02*
X219200000Y-86500000D01*
X200900000Y-113500000D02*
G75*
G02*
X198900000Y-113500000I-1000000J0D01*
G01*
X198900000Y-113500000D02*
G75*
G02*
X200900000Y-113500000I1000000J0D01*
G01*
X151400000Y-63300000D02*
X151600000Y-63500000D01*
X150000000Y-62500000D02*
X150000000Y-63300000D01*
X92900000Y-115100000D02*
X92000000Y-115100000D01*
X120000000Y-94500000D02*
G75*
G02*
X116000000Y-94500000I-2000000J0D01*
G01*
X116000000Y-94500000D02*
G75*
G02*
X120000000Y-94500000I2000000J0D01*
G01*
X182000000Y-123800000D02*
G75*
G02*
X180000000Y-123800000I-1000000J0D01*
G01*
X180000000Y-123800000D02*
G75*
G02*
X182000000Y-123800000I1000000J0D01*
G01*
X96000000Y-65500000D02*
G75*
G02*
X94000000Y-65500000I-1000000J0D01*
G01*
X94000000Y-65500000D02*
G75*
G02*
X96000000Y-65500000I1000000J0D01*
G01*
X219000000Y-125000000D02*
X219000000Y-129500000D01*
X152200000Y-86500000D02*
G75*
G02*
X151600000Y-85900000I0J600000D01*
G01*
X145200000Y-65300000D02*
G75*
G02*
X143200000Y-65300000I-1000000J0D01*
G01*
X143200000Y-65300000D02*
G75*
G02*
X145200000Y-65300000I1000000J0D01*
G01*
X92900000Y-121600000D02*
X92900000Y-115100000D01*
X118000000Y-62500000D02*
X93000000Y-62500000D01*
X220000000Y-92500000D02*
X219000000Y-92500000D01*
X206900000Y-132000000D02*
G75*
G02*
X205100000Y-132000000I-900000J0D01*
G01*
X205100000Y-132000000D02*
G75*
G02*
X206900000Y-132000000I900000J0D01*
G01*
X219000000Y-92500000D02*
X219000000Y-122000000D01*
X100000000Y-66500000D02*
G75*
G02*
X98000000Y-66500000I-1000000J0D01*
G01*
X98000000Y-66500000D02*
G75*
G02*
X100000000Y-66500000I1000000J0D01*
G01*
X125600000Y-113600000D02*
G75*
G02*
X123600000Y-113600000I-1000000J0D01*
G01*
X123600000Y-113600000D02*
G75*
G02*
X125600000Y-113600000I1000000J0D01*
G01*
X93800000Y-121600000D02*
G75*
G02*
X93800000Y-123600000I0J-1000000D01*
G01*
X113100000Y-124800000D02*
G75*
G02*
X111300000Y-124800000I-900000J0D01*
G01*
X111300000Y-124800000D02*
G75*
G02*
X113100000Y-124800000I900000J0D01*
G01*
X94900000Y-133000000D02*
X92000000Y-130100000D01*
X92000000Y-63500000D02*
X92000000Y-69500000D01*
X209000000Y-126400000D02*
G75*
G02*
X207000000Y-126400000I-1000000J0D01*
G01*
X207000000Y-126400000D02*
G75*
G02*
X209000000Y-126400000I1000000J0D01*
G01*
X132000000Y-123400000D02*
G75*
G02*
X130000000Y-123400000I-1000000J0D01*
G01*
X130000000Y-123400000D02*
G75*
G02*
X132000000Y-123400000I1000000J0D01*
G01*
X93800000Y-121600000D02*
X92900000Y-121600000D01*
X92900000Y-123600000D02*
X92900000Y-126100000D01*
X208000000Y-94500000D02*
G75*
G02*
X204000000Y-94500000I-2000000J0D01*
G01*
X204000000Y-94500000D02*
G75*
G02*
X208000000Y-94500000I2000000J0D01*
G01*
X219000000Y-125000000D02*
G75*
G02*
X219000000Y-122000000I0J1500000D01*
G01*
X130200000Y-65300000D02*
G75*
G02*
X128200000Y-65300000I-1000000J0D01*
G01*
X128200000Y-65300000D02*
G75*
G02*
X130200000Y-65300000I1000000J0D01*
G01*
X92000000Y-69500000D02*
X92900000Y-69500000D01*
X92000000Y-115100000D02*
X92000000Y-80500000D01*
X181400000Y-120700000D02*
G75*
G02*
X179600000Y-120700000I-900000J0D01*
G01*
X179600000Y-120700000D02*
G75*
G02*
X181400000Y-120700000I900000J0D01*
G01*
X94800000Y-109500000D02*
G75*
G02*
X92800000Y-109500000I-1000000J0D01*
G01*
X92800000Y-109500000D02*
G75*
G02*
X94800000Y-109500000I1000000J0D01*
G01*
X92900000Y-69500000D02*
X92900000Y-80500000D01*
X94800000Y-94800000D02*
G75*
G02*
X92800000Y-94800000I-1000000J0D01*
G01*
X92800000Y-94800000D02*
G75*
G02*
X94800000Y-94800000I1000000J0D01*
G01*
X150000000Y-63300000D02*
X151400000Y-63300000D01*
X92900000Y-80500000D02*
X92000000Y-80500000D01*
X219000000Y-129500000D02*
X215500000Y-133000000D01*
X150000000Y-62500000D02*
X122000000Y-62500000D01*
X107000000Y-123200000D02*
G75*
G02*
X105000000Y-123200000I-1000000J0D01*
G01*
X105000000Y-123200000D02*
G75*
G02*
X107000000Y-123200000I1000000J0D01*
G01*
X122000000Y-64900000D02*
G75*
G02*
X118000000Y-64900000I-2000000J0D01*
G01*
X92000000Y-126100000D02*
X92900000Y-126100000D01*
X92000000Y-63500000D02*
X93000000Y-62500000D01*
X157000000Y-123400000D02*
G75*
G02*
X155000000Y-123400000I-1000000J0D01*
G01*
X155000000Y-123400000D02*
G75*
G02*
X157000000Y-123400000I1000000J0D01*
G01*
X168400000Y-120700000D02*
G75*
G02*
X166600000Y-120700000I-900000J0D01*
G01*
X166600000Y-120700000D02*
G75*
G02*
X168400000Y-120700000I900000J0D01*
G01*
X196400000Y-126300000D02*
G75*
G02*
X194600000Y-126300000I-900000J0D01*
G01*
X194600000Y-126300000D02*
G75*
G02*
X196400000Y-126300000I900000J0D01*
G01*
X151600000Y-66100000D02*
X151600000Y-85900000D01*
X151600000Y-63500000D02*
X151600000Y-64500000D01*
X118000000Y-64900000D02*
X118000000Y-62500000D01*
X219200000Y-86500000D02*
X220000000Y-87300000D01*
X122000000Y-64900000D02*
X122000000Y-62500000D01*
X218200000Y-111000000D02*
G75*
G02*
X214200000Y-111000000I-2000000J0D01*
G01*
X214200000Y-111000000D02*
G75*
G02*
X218200000Y-111000000I2000000J0D01*
G01*
X220000000Y-87300000D02*
X220000000Y-92500000D01*
X151600000Y-66100000D02*
G75*
G02*
X151600000Y-64500000I600000J800000D01*
G01*
M02*
