M48
; DRILL file {KiCad 8.0.5-unknown-202409261835~48b9027842~ubuntu24.04.1} date 2024-10-03T20:43:24+0800
; FORMAT={-:-/ absolute / inch / decimal}
; #@! TF.CreationDate,2024-10-03T20:43:24+08:00
; #@! TF.GenerationSoftware,Kicad,Pcbnew,8.0.5-unknown-202409261835~48b9027842~ubuntu24.04.1
; #@! TF.FileFunction,Plated,1,3,Blind
FMAT,2
INCH
; #@! TA.AperFunction,Plated,Buried,ViaDrill
T1C0.0118
; #@! TA.AperFunction,Plated,Buried,ViaDrill
T2C0.0157
%
G90
G05
T1
X3.8189Y-5.126
X3.9449Y-5.1457
X3.9646Y-3.0906
X4.0512Y-5.1732
X4.185Y-4.0118
X4.2756Y-3.0669
X4.3189Y-3.3189
X4.3189Y-3.5236
X4.3504Y-4.248
X4.4488Y-3.5748
X4.5039Y-5.0984
X4.5079Y-3.622
X4.5354Y-3.5197
X4.5354Y-3.5512
X4.5748Y-3.4921
X4.5787Y-4.5945
X4.5906Y-4.563
X4.6457Y-4.7205
X4.689Y-3.0669
X4.7283Y-3.6811
X4.7953Y-3.6811
X4.9016Y-2.9646
X4.9213Y-3.4803
X4.9291Y-3.2402
X4.9663Y-3.0135
X4.9764Y-2.9449
X5.0039Y-4.7087
X5.0236Y-3.811
X5.0276Y-3.3819
X5.1181Y-3.4882
X5.2874Y-5.1614
X5.3071Y-4.878
X5.4449Y-4.6575
X5.4921Y-3.6417
X5.5591Y-2.9961
X5.5866Y-2.9685
X5.6142Y-2.9409
X5.6417Y-2.8583
X5.6693Y-2.8307
X5.7835Y-5.0
X5.7894Y-4.9016
X5.874Y-4.6929
X5.9213Y-4.1811
X5.9252Y-4.7057
X5.9449Y-4.6811
X5.9528Y-4.0866
X5.9685Y-4.3346
X5.9685Y-4.5748
X5.9724Y-5.0
X5.9961Y-4.815
X5.9971Y-4.4423
X5.9971Y-4.6368
X6.0236Y-4.2598
X6.0236Y-4.7581
X6.0315Y-3.9843
X6.0709Y-4.685
X6.1024Y-4.5039
X6.1644Y-4.3337
X6.2047Y-4.378
X6.2745Y-4.4423
X6.2874Y-5.0866
X6.2992Y-5.2008
X6.3226Y-4.4898
X6.3346Y-3.5906
X6.3392Y-3.8661
X6.3427Y-3.9591
X6.3701Y-3.6142
X6.4449Y-3.9016
X6.4934Y-4.4358
X6.5Y-3.6417
X6.5354Y-3.6378
X6.5748Y-4.8228
X6.5885Y-4.5906
X6.6129Y-4.5669
X6.6142Y-3.8268
X6.6181Y-4.1378
X6.626Y-4.0002
X6.6339Y-3.9331
X6.6419Y-4.1614
X6.6445Y-4.5464
X6.6493Y-4.5153
X6.6722Y-4.1702
X6.6893Y-4.1999
X6.6962Y-4.4731
X6.7244Y-3.9016
X6.7244Y-3.9685
X6.7523Y-4.2274
X6.7598Y-4.2953
X6.7874Y-4.3583
X6.8583Y-4.689
X6.8622Y-4.0512
X6.8701Y-4.5039
X6.8898Y-4.5315
X6.9173Y-4.3583
X6.9882Y-4.689
X7.1102Y-4.0158
X7.1181Y-4.374
X7.126Y-4.2835
X7.1339Y-4.6313
X7.1339Y-3.9921
X7.1575Y-4.374
X7.1811Y-4.2835
X7.2008Y-4.689
X7.2008Y-4.8425
X7.2047Y-4.4252
X7.2598Y-4.2795
X7.2819Y-4.1807
X7.3819Y-3.689
X7.5039Y-4.4016
X7.5079Y-4.9843
X7.5512Y-4.8335
X7.5984Y-4.252
X7.5984Y-4.4961
X7.5984Y-4.6969
X7.8504Y-4.252
X7.9291Y-4.689
X7.9724Y-4.689
X7.9809Y-4.075
X7.9816Y-4.0074
X8.095Y-4.0401
X8.095Y-4.0735
X8.122Y-4.9252
X8.1378Y-4.1171
X8.1378Y-4.1506
X8.1929Y-4.0197
X8.3112Y-3.953
X8.315Y-4.2598
X8.3226Y-3.9193
X8.3348Y-3.9767
T2
X7.7598Y-4.6929
X8.0079Y-4.7598
M30
