M48
; DRILL file {KiCad 8.0.5-8.0.5-0~ubuntu24.04.1} date 2024-10-22T00:13:05+0800
; FORMAT={-:-/ absolute / inch / decimal}
; #@! TF.CreationDate,2024-10-22T00:13:05+08:00
; #@! TF.GenerationSoftware,Kicad,Pcbnew,8.0.5-8.0.5-0~ubuntu24.04.1
; #@! TF.FileFunction,Plated,1,2,PTH
FMAT,2
INCH
; #@! TA.AperFunction,Plated,PTH,ComponentDrill
T1C0.0079
; #@! TA.AperFunction,Plated,PTH,ViaDrill
T2C0.0118
; #@! TA.AperFunction,Plated,PTH,ViaDrill
T3C0.0157
; #@! TA.AperFunction,Plated,PTH,ComponentDrill
T4C0.0197
; #@! TA.AperFunction,Plated,PTH,ComponentDrill
T5C0.0512
%
G90
G05
T1
X5.4762Y-4.0984
X5.4762Y-4.1535
X5.5038Y-4.0709
X5.5038Y-4.126
X5.5038Y-4.1811
X5.5313Y-4.0984
X5.5313Y-4.1535
X5.5589Y-4.0709
X5.5589Y-4.126
X5.5589Y-4.1811
X5.5864Y-4.0984
X5.5864Y-4.1535
T2
X3.6713Y-2.5177
X3.689Y-5.0512
X3.7008Y-4.5669
X3.7047Y-4.6575
X3.7087Y-4.9567
X3.7165Y-4.7165
X3.7205Y-5.1378
X3.75Y-2.7028
X3.7756Y-2.9724
X3.7756Y-3.0512
X3.7756Y-4.7953
X3.7795Y-4.9055
X3.8169Y-2.5965
X3.8189Y-4.6063
X3.8524Y-4.9114
X3.8543Y-4.2992
X3.9094Y-4.8917
X3.9331Y-2.7165
X3.937Y-4.8425
X3.9488Y-4.2992
X3.9488Y-4.4606
X3.9705Y-4.9094
X3.9843Y-3.2283
X4.0118Y-4.4606
X4.0276Y-2.7165
X4.0354Y-2.8543
X4.0394Y-3.189
X4.0394Y-3.2283
X4.0394Y-3.2913
X4.063Y-2.8701
X4.1063Y-3.4646
X4.1063Y-4.689
X4.1142Y-3.0433
X4.1417Y-4.6575
X4.1457Y-2.8031
X4.1535Y-2.9734
X4.1538Y-3.0279
X4.1575Y-4.7323
X4.1654Y-2.7618
X4.1693Y-2.8661
X4.1732Y-3.2283
X4.1811Y-2.9449
X4.185Y-3.4843
X4.189Y-4.6772
X4.1969Y-3.2559
X4.2008Y-2.779
X4.2087Y-3.4567
X4.2126Y-3.0787
X4.2165Y-4.7638
X4.2199Y-2.9455
X4.2205Y-2.9016
X4.2244Y-3.1811
X4.2244Y-3.2165
X4.2244Y-3.2835
X4.2362Y-2.7244
X4.2441Y-3.311
X4.252Y-3.7835
X4.252Y-4.685
X4.2598Y-4.0866
X4.2638Y-3.2165
X4.2677Y-3.3386
X4.2736Y-2.8051
X4.2835Y-3.1811
X4.2913Y-4.6063
X4.3031Y-2.7205
X4.3091Y-4.2382
X4.3228Y-4.8268
X4.3307Y-3.2244
X4.3307Y-4.5276
X4.3386Y-3.7874
X4.3543Y-2.8071
X4.374Y-3.1299
X4.378Y-5.1339
X4.3819Y-3.1811
X4.3819Y-3.2283
X4.3858Y-4.1614
X4.4016Y-4.0866
X4.4094Y-3.7795
X4.4173Y-3.2559
X4.4291Y-4.3583
X4.4291Y-5.0394
X4.4331Y-2.8051
X4.4488Y-5.1496
X4.4567Y-4.3583
X4.4606Y-4.4646
X4.4724Y-4.4921
X4.4961Y-3.1811
X4.4961Y-4.9921
X4.5157Y-3.3346
X4.5276Y-4.3307
X4.5472Y-3.3543
X4.5472Y-3.4252
X4.563Y-4.0433
X4.5669Y-3.7992
X4.5748Y-4.4882
X4.5787Y-3.9331
X4.5827Y-4.0118
X4.5827Y-4.7008
X4.5827Y-4.7638
X4.6024Y-3.3858
X4.6033Y-3.2116
X4.6063Y-3.0
X4.6063Y-3.248
X4.6063Y-3.2835
X4.6063Y-3.3386
X4.6063Y-3.9843
X4.6122Y-4.5492
X4.6269Y-3.8849
X4.6339Y-3.4291
X4.6339Y-3.5236
X4.6378Y-3.5709
X4.6417Y-4.0906
X4.6417Y-4.1575
X4.6427Y-2.8711
X4.6535Y-2.7244
X4.6575Y-4.6772
X4.6772Y-3.0246
X4.6772Y-3.2835
X4.685Y-2.9724
X4.685Y-3.1339
X4.685Y-3.3189
X4.6929Y-3.874
X4.6969Y-3.1024
X4.6969Y-3.3583
X4.6969Y-3.4291
X4.7006Y-3.0472
X4.7008Y-4.122
X4.7126Y-3.2559
X4.7205Y-4.0118
X4.7244Y-2.8031
X4.7244Y-4.5039
X4.7244Y-4.6063
X4.7339Y-3.0441
X4.7441Y-2.7402
X4.7486Y-2.783
X4.7638Y-4.9016
X4.7677Y-4.4508
X4.7756Y-2.7559
X4.7795Y-2.7244
X4.789Y-3.0319
X4.7913Y-3.8189
X4.7953Y-3.063
X4.7953Y-3.1969
X4.7953Y-3.2795
X4.7972Y-4.4114
X4.7983Y-4.0521
X4.8228Y-3.7835
X4.8248Y-4.3484
X4.8268Y-4.5221
X4.8492Y-3.7024
X4.8504Y-4.0709
X4.8583Y-4.3504
X4.8701Y-2.9921
X4.8819Y-4.9016
X4.8898Y-2.6535
X4.9055Y-3.7205
X4.9094Y-4.2992
X4.9187Y-4.8608
X4.9371Y-3.7913
X4.9488Y-2.626
X4.9607Y-3.7677
X4.9705Y-4.2874
X4.9764Y-2.5748
X4.9764Y-4.3504
X4.9803Y-3.7205
X4.9803Y-4.2362
X5.0Y-4.311
X5.0118Y-2.6457
X5.0118Y-2.9843
X5.0118Y-4.437
X5.0197Y-4.8228
X5.063Y-4.4882
X5.0709Y-3.7402
X5.0748Y-3.9528
X5.0787Y-3.2638
X5.0787Y-4.7402
X5.1063Y-2.9882
X5.1063Y-3.7165
X5.1181Y-3.6496
X5.126Y-3.4055
X5.1299Y-4.5984
X5.1339Y-3.0315
X5.1811Y-4.5591
X5.2008Y-3.4764
X5.2008Y-4.4724
X5.2047Y-3.6417
X5.2087Y-3.8071
X5.2087Y-4.126
X5.2165Y-4.4409
X5.2441Y-3.8622
X5.2559Y-2.6181
X5.2588Y-3.9341
X5.2677Y-3.8346
X5.2756Y-2.5433
X5.2795Y-2.6496
X5.2835Y-4.8622
X5.2913Y-2.9803
X5.2913Y-3.0157
X5.2913Y-4.5531
X5.2913Y-4.5531
X5.311Y-3.8425
X5.3268Y-3.7874
X5.3268Y-4.7913
X5.3307Y-4.8976
X5.3386Y-5.1142
X5.3425Y-4.2244
X5.3622Y-4.1024
X5.3661Y-2.5433
X5.4094Y-2.9803
X5.4134Y-4.1614
X5.4134Y-5.0197
X5.4213Y-3.3386
X5.437Y-2.9528
X5.437Y-4.9331
X5.4528Y-3.0157
X5.4606Y-4.8106
X5.4685Y-3.3386
X5.4705Y-4.3524
X5.4803Y-4.5571
X5.4921Y-4.4134
X5.5118Y-4.5236
X5.5118Y-4.7835
X5.5138Y-4.563
X5.535Y-3.8093
X5.5354Y-4.4213
X5.5435Y-3.1931
X5.5512Y-4.5551
X5.558Y-3.9242
X5.5709Y-2.75
X5.5748Y-3.3622
X5.5827Y-2.5591
X5.5945Y-4.4724
X5.5973Y-3.7992
X5.6063Y-3.437
X5.6063Y-3.9646
X5.6142Y-4.5236
X5.622Y-4.6339
X5.6299Y-4.8031
X5.6339Y-4.6909
X5.6378Y-4.0945
X5.6575Y-3.815
X5.6614Y-4.6713
X5.6654Y-2.6811
X5.6654Y-4.5748
X5.6693Y-3.3622
X5.6693Y-3.8976
X5.6693Y-4.1328
X5.6693Y-4.7156
X5.6693Y-4.749
X5.6772Y-3.437
X5.7087Y-4.6181
X5.7087Y-4.8622
X5.7205Y-4.1654
X5.7283Y-3.8583
X5.7372Y-4.0856
X5.7441Y-3.8976
X5.748Y-3.3465
X5.7559Y-2.6496
X5.7559Y-4.8583
X5.7677Y-4.9606
X5.7835Y-4.5512
X5.7953Y-4.5157
X5.7953Y-4.8898
X5.8268Y-4.4764
X5.8268Y-4.9803
X5.8307Y-3.3858
X5.8701Y-4.3776
X5.8819Y-4.5433
X5.8858Y-5.0787
X5.9055Y-3.3898
X5.9252Y-2.9921
X5.9291Y-4.3465
X5.9291Y-5.1457
X5.9331Y-3.437
X5.9567Y-4.8937
X5.9567Y-5.0315
X5.9843Y-4.1378
X5.9843Y-4.1914
X5.9843Y-4.8937
X5.9882Y-3.6929
X6.0079Y-4.3465
X6.0118Y-4.1614
X6.0197Y-4.437
X6.0315Y-4.2362
X6.0394Y-4.7362
X6.0512Y-4.5787
X6.0516Y-3.7838
X6.0551Y-4.689
X6.063Y-3.7402
X6.0748Y-4.6142
X6.0752Y-3.8075
X6.0827Y-3.4528
X6.0827Y-4.1929
X6.0866Y-4.689
X6.0945Y-3.937
X6.1024Y-3.6614
X6.1142Y-4.4882
X6.1142Y-4.5984
X6.1373Y-4.6806
X6.1575Y-4.5866
X6.1614Y-3.7402
X6.1614Y-4.5079
X6.1772Y-3.937
X6.1811Y-4.7047
X6.2146Y-3.7303
X6.2283Y-3.9606
X6.2323Y-4.7047
X6.237Y-4.4669
X6.2402Y-3.7913
X6.2441Y-4.5197
X6.248Y-4.8976
X6.2539Y-3.7323
X6.2638Y-4.2008
X6.2677Y-4.4646
X6.2697Y-3.8209
X6.2717Y-4.5433
X6.2756Y-4.7638
X6.2795Y-5.1378
X6.2835Y-4.0236
X6.2912Y-3.8527
X6.2913Y-4.248
X6.2953Y-4.3268
X6.2992Y-3.7921
X6.2992Y-4.7913
X6.311Y-4.4134
X6.3189Y-4.0787
X6.3425Y-3.689
X6.3425Y-4.8976
X6.3819Y-4.0787
X6.3858Y-4.3819
X6.3858Y-4.4528
X6.3858Y-4.5118
X6.3976Y-3.4646
X6.4016Y-4.2047
X6.4016Y-4.2638
X6.4016Y-4.315
X6.4449Y-4.8976
X6.4803Y-4.0787
X6.483Y-4.7771
X6.4921Y-5.1772
X6.5157Y-4.4213
X6.5472Y-4.0787
X6.5492Y-3.9094
X6.563Y-4.0039
X6.563Y-4.6181
X6.5709Y-4.4685
X6.5728Y-5.1398
X6.5748Y-4.9016
X6.5945Y-3.811
X6.6142Y-4.1732
X6.6181Y-4.0039
X6.6181Y-4.0787
X6.6299Y-3.876
X6.6378Y-3.7362
X6.6476Y-3.811
X6.6732Y-4.622
X6.6772Y-3.8937
X6.685Y-4.7244
X6.6929Y-3.6811
X6.6929Y-4.0709
X6.6929Y-4.1417
X6.7087Y-3.9409
X6.7126Y-5.0394
X6.7165Y-4.622
X6.7323Y-3.8386
X6.7323Y-4.5866
X6.7323Y-4.7677
X6.752Y-4.678
X6.7559Y-4.0709
X6.7638Y-4.4685
X6.7717Y-4.1417
X6.815Y-4.4094
X6.874Y-4.3189
X6.8898Y-3.4646
X6.9449Y-4.1496
X6.9488Y-4.2126
X6.9646Y-4.2717
X6.9685Y-4.4843
X6.9685Y-4.5748
X6.9764Y-4.8976
X7.0157Y-4.5866
X7.0551Y-4.5866
X7.063Y-3.9882
X7.0787Y-3.8543
X7.0866Y-3.937
X7.0945Y-5.0039
X7.0945Y-5.1102
X7.1201Y-4.4862
X7.1417Y-3.6496
X7.1654Y-4.7016
X7.1673Y-4.4941
X7.1693Y-4.9961
X7.185Y-3.7402
X7.1929Y-3.9409
X7.1969Y-4.748
X7.2343Y-4.7815
X7.2441Y-4.7244
X7.2539Y-4.8366
X7.2717Y-4.5354
X7.2894Y-4.4272
X7.3012Y-3.6969
X7.3071Y-4.2874
X7.3248Y-4.3839
X7.3307Y-4.4764
X7.3583Y-4.187
X7.3622Y-4.252
X7.3819Y-3.4646
X7.3819Y-3.6614
X7.4114Y-4.1594
X7.4331Y-4.4764
X7.4606Y-4.0748
X7.4606Y-4.252
X7.4606Y-4.8425
X7.4803Y-4.0315
X7.4882Y-4.4173
X7.5197Y-3.8268
X7.5217Y-4.4803
X7.5315Y-4.1654
X7.5413Y-4.7008
X7.5591Y-3.7382
X7.563Y-4.498
X7.5827Y-3.7126
X7.5827Y-5.0984
X7.6181Y-3.7244
X7.6181Y-3.9035
X7.6299Y-4.9921
X7.6398Y-3.6457
X7.6496Y-3.9193
X7.6496Y-4.626
X7.6634Y-3.6142
X7.6732Y-4.063
X7.6732Y-4.5906
X7.6772Y-3.4843
X7.6789Y-4.0219
X7.6811Y-4.8228
X7.6811Y-5.0984
X7.685Y-3.7382
X7.6941Y-4.441
X7.7165Y-3.7008
X7.7402Y-4.0079
X7.7453Y-4.744
X7.7559Y-4.5
X7.7835Y-4.9252
X7.7864Y-4.4567
X7.815Y-3.7992
X7.8307Y-3.7441
X7.8573Y-4.3907
X7.8976Y-4.3898
X7.9764Y-4.8051
X8.0157Y-4.9488
X8.0197Y-3.8406
X8.0354Y-3.8622
X8.0394Y-4.6811
X8.0551Y-3.9429
X8.0551Y-4.5433
X8.0551Y-4.626
X8.0787Y-4.1299
X8.0787Y-4.5846
X8.0827Y-4.6811
X8.0827Y-5.0472
X8.1024Y-4.4724
X8.1024Y-4.5433
X8.1024Y-4.626
X8.1161Y-3.9429
X8.122Y-4.063
X8.126Y-4.6811
X8.1339Y-4.4606
X8.1378Y-4.1181
X8.1417Y-4.8386
X8.1575Y-4.0906
X8.1732Y-4.811
X8.1772Y-4.063
X8.1811Y-5.1496
X8.189Y-5.1063
X8.1929Y-4.1181
X8.2008Y-3.9724
X8.2205Y-3.6969
X8.2244Y-5.1732
X8.2283Y-4.1535
X8.2402Y-4.7835
X8.2953Y-3.811
X8.2953Y-4.9173
X8.4055Y-4.8858
X8.4213Y-3.7638
X8.4606Y-4.8228
X8.4803Y-3.7717
X8.4882Y-4.1299
X8.4882Y-4.2323
X8.4921Y-4.7559
X8.5236Y-4.1732
X8.5315Y-4.9449
X8.5551Y-4.7047
X8.5551Y-4.7402
X8.5591Y-4.2244
X8.563Y-5.0236
X8.5787Y-3.874
X8.5787Y-4.0276
X8.5787Y-4.7717
T3
X4.4035Y-4.5276
X7.6181Y-4.748
X7.6654Y-4.5079
X7.815Y-4.3701
X8.1929Y-4.7638
X8.3346Y-4.0906
X8.3976Y-4.2835
X8.4882Y-4.4843
T4
X8.5028Y-3.8713
X8.5028Y-4.0287
T5
X3.7008Y-3.4488
X3.937Y-3.4488
M30
