%TF.GenerationSoftware,KiCad,Pcbnew,8.0.5-unknown-202409261835~48b9027842~ubuntu24.04.1*%
%TF.CreationDate,2024-10-03T20:43:23+08:00*%
%TF.ProjectId,EL6170_Pro_Max_Plus,454c3631-3730-45f5-9072-6f5f4d61785f,rev?*%
%TF.SameCoordinates,Original*%
%TF.FileFunction,Drillmap*%
%TF.FilePolarity,Positive*%
%FSLAX45Y45*%
G04 Gerber Fmt 4.5, Leading zero omitted, Abs format (unit mm)*
G04 Created by KiCad (PCBNEW 8.0.5-unknown-202409261835~48b9027842~ubuntu24.04.1) date 2024-10-03 20:43:23*
%MOMM*%
%LPD*%
G01*
G04 APERTURE LIST*
%ADD10C,0.050000*%
%ADD11C,0.200000*%
%ADD12C,0.100000*%
%ADD13C,0.110000*%
G04 APERTURE END LIST*
D10*
X9380000Y-12460000D02*
X9290000Y-12460000D01*
X21550000Y-13300000D02*
X9490000Y-13300000D01*
X9200000Y-12710000D02*
X9200000Y-13010000D01*
X15220000Y-8650000D02*
X21920000Y-8650000D01*
X20100000Y-11300000D02*
G75*
G02*
X19900000Y-11300000I-100000J0D01*
G01*
X19900000Y-11300000D02*
G75*
G02*
X20100000Y-11300000I100000J0D01*
G01*
X15140000Y-6330000D02*
X15160000Y-6350000D01*
X15000000Y-6250000D02*
X15000000Y-6330000D01*
X9290000Y-11610000D02*
X9200000Y-11610000D01*
X18200000Y-12380000D02*
G75*
G02*
X18000000Y-12380000I-100000J0D01*
G01*
X18000000Y-12380000D02*
G75*
G02*
X18200000Y-12380000I100000J0D01*
G01*
X9600000Y-6550000D02*
G75*
G02*
X9400000Y-6550000I-100000J0D01*
G01*
X9400000Y-6550000D02*
G75*
G02*
X9600000Y-6550000I100000J0D01*
G01*
X21900000Y-12500000D02*
X21900000Y-12950000D01*
X15220000Y-8650000D02*
G75*
G02*
X15160000Y-8590000I0J60000D01*
G01*
X14520000Y-6530000D02*
G75*
G02*
X14320000Y-6530000I-100000J0D01*
G01*
X14320000Y-6530000D02*
G75*
G02*
X14520000Y-6530000I100000J0D01*
G01*
X9290000Y-12260000D02*
X9290000Y-11610000D01*
X11800000Y-6250000D02*
X9300000Y-6250000D01*
X22000000Y-9250000D02*
X21900000Y-9250000D01*
X20690000Y-13150000D02*
G75*
G02*
X20510000Y-13150000I-90000J0D01*
G01*
X20510000Y-13150000D02*
G75*
G02*
X20690000Y-13150000I90000J0D01*
G01*
X21900000Y-9250000D02*
X21900000Y-12200000D01*
X10000000Y-6650000D02*
G75*
G02*
X9800000Y-6650000I-100000J0D01*
G01*
X9800000Y-6650000D02*
G75*
G02*
X10000000Y-6650000I100000J0D01*
G01*
X12550000Y-11410000D02*
G75*
G02*
X12350000Y-11410000I-100000J0D01*
G01*
X12350000Y-11410000D02*
G75*
G02*
X12550000Y-11410000I100000J0D01*
G01*
X9380000Y-12260000D02*
G75*
G02*
X9380000Y-12460000I0J-100000D01*
G01*
X11290000Y-12560000D02*
G75*
G02*
X11110000Y-12560000I-90000J0D01*
G01*
X11110000Y-12560000D02*
G75*
G02*
X11290000Y-12560000I90000J0D01*
G01*
X9490000Y-13300000D02*
X9200000Y-13010000D01*
X9200000Y-6350000D02*
X9200000Y-6950000D01*
X20900000Y-12600000D02*
G75*
G02*
X20700000Y-12600000I-100000J0D01*
G01*
X20700000Y-12600000D02*
G75*
G02*
X20900000Y-12600000I100000J0D01*
G01*
X13200000Y-12360000D02*
G75*
G02*
X13000000Y-12360000I-100000J0D01*
G01*
X13000000Y-12360000D02*
G75*
G02*
X13200000Y-12360000I100000J0D01*
G01*
X9380000Y-12260000D02*
X9290000Y-12260000D01*
X9290000Y-12460000D02*
X9290000Y-12710000D01*
X20800000Y-9450000D02*
G75*
G02*
X20400000Y-9450000I-200000J0D01*
G01*
X20400000Y-9450000D02*
G75*
G02*
X20800000Y-9450000I200000J0D01*
G01*
X21900000Y-12500000D02*
G75*
G02*
X21900000Y-12200000I0J150000D01*
G01*
X13020000Y-6530000D02*
G75*
G02*
X12820000Y-6530000I-100000J0D01*
G01*
X12820000Y-6530000D02*
G75*
G02*
X13020000Y-6530000I100000J0D01*
G01*
X9200000Y-6950000D02*
X9290000Y-6950000D01*
X9200000Y-11610000D02*
X9200000Y-8050000D01*
X18140000Y-12080000D02*
G75*
G02*
X17960000Y-12080000I-90000J0D01*
G01*
X17960000Y-12080000D02*
G75*
G02*
X18140000Y-12080000I90000J0D01*
G01*
X9480000Y-11000000D02*
G75*
G02*
X9280000Y-11000000I-100000J0D01*
G01*
X9280000Y-11000000D02*
G75*
G02*
X9480000Y-11000000I100000J0D01*
G01*
X9290000Y-6950000D02*
X9290000Y-8050000D01*
X9480000Y-9500000D02*
G75*
G02*
X9280000Y-9500000I-100000J0D01*
G01*
X9280000Y-9500000D02*
G75*
G02*
X9480000Y-9500000I100000J0D01*
G01*
X15000000Y-6330000D02*
X15140000Y-6330000D01*
X9290000Y-8050000D02*
X9200000Y-8050000D01*
X21900000Y-12950000D02*
X21550000Y-13300000D01*
X15000000Y-6250000D02*
X12200000Y-6250000D01*
X10700000Y-12360000D02*
G75*
G02*
X10500000Y-12360000I-100000J0D01*
G01*
X10500000Y-12360000D02*
G75*
G02*
X10700000Y-12360000I100000J0D01*
G01*
X12200000Y-6490000D02*
G75*
G02*
X11800000Y-6490000I-200000J0D01*
G01*
X9200000Y-12710000D02*
X9290000Y-12710000D01*
X9200000Y-6350000D02*
X9300000Y-6250000D01*
X15700000Y-12360000D02*
G75*
G02*
X15500000Y-12360000I-100000J0D01*
G01*
X15500000Y-12360000D02*
G75*
G02*
X15700000Y-12360000I100000J0D01*
G01*
X16840000Y-12080000D02*
G75*
G02*
X16660000Y-12080000I-90000J0D01*
G01*
X16660000Y-12080000D02*
G75*
G02*
X16840000Y-12080000I90000J0D01*
G01*
X19640000Y-12590000D02*
G75*
G02*
X19460000Y-12590000I-90000J0D01*
G01*
X19460000Y-12590000D02*
G75*
G02*
X19640000Y-12590000I90000J0D01*
G01*
X15160000Y-6610000D02*
X15160000Y-8590000D01*
X15160000Y-6350000D02*
X15160000Y-6450000D01*
X11800000Y-6490000D02*
X11800000Y-6250000D01*
X21920000Y-8650000D02*
X22000000Y-8730000D01*
X12200000Y-6490000D02*
X12200000Y-6250000D01*
X21820000Y-11000000D02*
G75*
G02*
X21420000Y-11000000I-200000J0D01*
G01*
X21420000Y-11000000D02*
G75*
G02*
X21820000Y-11000000I200000J0D01*
G01*
X22000000Y-8730000D02*
X22000000Y-9250000D01*
X15160000Y-6610000D02*
G75*
G02*
X15160000Y-6450000I60000J80000D01*
G01*
D11*
D12*
X9535000Y-6795000D02*
X9565000Y-6825000D01*
X9565000Y-6795000D02*
X9535000Y-6825000D01*
X9725000Y-7385000D02*
X9755000Y-7415000D01*
X9755000Y-7385000D02*
X9725000Y-7415000D01*
X9725000Y-10235000D02*
X9755000Y-10265000D01*
X9755000Y-10235000D02*
X9725000Y-10265000D01*
X9865000Y-9595000D02*
X9895000Y-9625000D01*
X9895000Y-9595000D02*
X9865000Y-9625000D01*
X10195000Y-10775000D02*
X10225000Y-10805000D01*
X10225000Y-10775000D02*
X10195000Y-10805000D01*
X10465000Y-9905000D02*
X10495000Y-9935000D01*
X10495000Y-9905000D02*
X10465000Y-9935000D01*
X10495000Y-7665000D02*
X10525000Y-7695000D01*
X10525000Y-7665000D02*
X10495000Y-7695000D01*
X10694007Y-8975000D02*
X10724007Y-9005000D01*
X10724007Y-8975000D02*
X10694007Y-9005000D01*
X10725000Y-9165000D02*
X10755000Y-9195000D01*
X10755000Y-9165000D02*
X10725000Y-9195000D01*
X10745000Y-7205000D02*
X10775000Y-7235000D01*
X10775000Y-7205000D02*
X10745000Y-7235000D01*
X10795000Y-9875000D02*
X10825000Y-9905000D01*
X10825000Y-9875000D02*
X10795000Y-9905000D01*
X10915000Y-7855000D02*
X10945000Y-7885000D01*
X10945000Y-7855000D02*
X10915000Y-7885000D01*
X10935000Y-8265000D02*
X10965000Y-8295000D01*
X10965000Y-8265000D02*
X10935000Y-8295000D01*
X11045000Y-11355000D02*
X11075000Y-11385000D01*
X11075000Y-11355000D02*
X11045000Y-11385000D01*
X11105000Y-11085000D02*
X11135000Y-11115000D01*
X11135000Y-11085000D02*
X11105000Y-11115000D01*
X11125000Y-9445000D02*
X11155000Y-9475000D01*
X11155000Y-9445000D02*
X11125000Y-9475000D01*
X11125000Y-12895000D02*
X11155000Y-12925000D01*
X11155000Y-12895000D02*
X11125000Y-12925000D01*
X11135000Y-8645000D02*
X11165000Y-8675000D01*
X11165000Y-8645000D02*
X11135000Y-8675000D01*
X11235000Y-11305000D02*
X11265000Y-11335000D01*
X11265000Y-11305000D02*
X11235000Y-11335000D01*
X11325000Y-8015000D02*
X11355000Y-8045000D01*
X11355000Y-8015000D02*
X11325000Y-8045000D01*
X11335000Y-8305000D02*
X11365000Y-8335000D01*
X11365000Y-8305000D02*
X11335000Y-8335000D01*
X11565000Y-10785000D02*
X11595000Y-10815000D01*
X11595000Y-10785000D02*
X11565000Y-10815000D01*
X11675000Y-7105000D02*
X11705000Y-7135000D01*
X11705000Y-7105000D02*
X11675000Y-7135000D01*
X11685000Y-10485000D02*
X11715000Y-10515000D01*
X11715000Y-10485000D02*
X11685000Y-10515000D01*
X11705000Y-9125000D02*
X11735000Y-9155000D01*
X11735000Y-9125000D02*
X11705000Y-9155000D01*
X11815000Y-7525000D02*
X11845000Y-7555000D01*
X11845000Y-7525000D02*
X11815000Y-7555000D01*
X11815000Y-10155000D02*
X11845000Y-10185000D01*
X11845000Y-10155000D02*
X11815000Y-10185000D01*
X12055000Y-7285000D02*
X12085000Y-7315000D01*
X12085000Y-7285000D02*
X12055000Y-7315000D01*
X12065000Y-7445000D02*
X12095000Y-7475000D01*
X12095000Y-7445000D02*
X12065000Y-7475000D01*
X12165000Y-10295000D02*
X12195000Y-10325000D01*
X12195000Y-10295000D02*
X12165000Y-10325000D01*
X12185000Y-8105000D02*
X12215000Y-8135000D01*
X12215000Y-8105000D02*
X12185000Y-8135000D01*
X12245000Y-11495000D02*
X12275000Y-11525000D01*
X12275000Y-11495000D02*
X12245000Y-11525000D01*
X12265000Y-9475000D02*
X12295000Y-9505000D01*
X12295000Y-9475000D02*
X12265000Y-9505000D01*
X12285000Y-13195000D02*
X12315000Y-13225000D01*
X12315000Y-13195000D02*
X12285000Y-13225000D01*
X12375000Y-10485000D02*
X12405000Y-10515000D01*
X12405000Y-10485000D02*
X12375000Y-10515000D01*
X12715000Y-11305000D02*
X12745000Y-11335000D01*
X12745000Y-11305000D02*
X12715000Y-11335000D01*
X12805000Y-10635000D02*
X12835000Y-10665000D01*
X12835000Y-10635000D02*
X12805000Y-10665000D01*
X12815000Y-12942000D02*
X12845000Y-12972000D01*
X12845000Y-12942000D02*
X12815000Y-12972000D01*
X12845000Y-6795000D02*
X12875000Y-6825000D01*
X12875000Y-6795000D02*
X12845000Y-6825000D01*
X12845000Y-8675000D02*
X12875000Y-8705000D01*
X12875000Y-8675000D02*
X12845000Y-8705000D01*
X12905000Y-8465000D02*
X12935000Y-8495000D01*
X12935000Y-8465000D02*
X12905000Y-8495000D01*
X12965000Y-7075000D02*
X12995000Y-7105000D01*
X12995000Y-7075000D02*
X12965000Y-7105000D01*
X12975000Y-6925000D02*
X13005000Y-6955000D01*
X13005000Y-6925000D02*
X12975000Y-6955000D01*
X12975000Y-7475000D02*
X13005000Y-7505000D01*
X13005000Y-7475000D02*
X12975000Y-7505000D01*
X13025000Y-7375000D02*
X13055000Y-7405000D01*
X13055000Y-7375000D02*
X13025000Y-7405000D01*
X13215000Y-9875000D02*
X13245000Y-9905000D01*
X13245000Y-9875000D02*
X13215000Y-9905000D01*
X13215000Y-10285000D02*
X13245000Y-10315000D01*
X13245000Y-10285000D02*
X13215000Y-10315000D01*
X13325000Y-9995000D02*
X13355000Y-10025000D01*
X13355000Y-9995000D02*
X13325000Y-10025000D01*
X13355000Y-7675000D02*
X13385000Y-7705000D01*
X13385000Y-7675000D02*
X13355000Y-7705000D01*
X13395000Y-6735000D02*
X13425000Y-6765000D01*
X13425000Y-6735000D02*
X13395000Y-6765000D01*
X13405000Y-8545000D02*
X13435000Y-8575000D01*
X13435000Y-8545000D02*
X13405000Y-8575000D01*
X13415000Y-10465000D02*
X13445000Y-10495000D01*
X13445000Y-10465000D02*
X13415000Y-10495000D01*
X13535000Y-12915000D02*
X13565000Y-12945000D01*
X13565000Y-12915000D02*
X13535000Y-12945000D01*
X13685000Y-10505000D02*
X13715000Y-10535000D01*
X13715000Y-10505000D02*
X13685000Y-10535000D01*
X13868981Y-7691019D02*
X13898981Y-7721019D01*
X13898981Y-7691019D02*
X13868981Y-7721019D01*
X13895000Y-10705000D02*
X13925000Y-10735000D01*
X13925000Y-10705000D02*
X13895000Y-10735000D01*
X14225000Y-10525000D02*
X14255000Y-10555000D01*
X14255000Y-10525000D02*
X14225000Y-10555000D01*
X14275000Y-9835000D02*
X14305000Y-9865000D01*
X14305000Y-9835000D02*
X14275000Y-9865000D01*
X14295000Y-10255000D02*
X14325000Y-10285000D01*
X14325000Y-10255000D02*
X14295000Y-10285000D01*
X14355000Y-11805000D02*
X14385000Y-11835000D01*
X14385000Y-11805000D02*
X14355000Y-11835000D01*
X14495000Y-10425000D02*
X14525000Y-10455000D01*
X14525000Y-10425000D02*
X14495000Y-10455000D01*
X14655000Y-12195000D02*
X14685000Y-12225000D01*
X14685000Y-12195000D02*
X14655000Y-12225000D01*
X14985000Y-8845000D02*
X15015000Y-8875000D01*
X15015000Y-8845000D02*
X14985000Y-8875000D01*
X15315000Y-12435000D02*
X15345000Y-12465000D01*
X15345000Y-12435000D02*
X15315000Y-12465000D01*
X15585000Y-9075000D02*
X15615000Y-9105000D01*
X15615000Y-9075000D02*
X15585000Y-9105000D01*
X15625000Y-9945000D02*
X15655000Y-9975000D01*
X15655000Y-9945000D02*
X15625000Y-9975000D01*
X15715185Y-10569563D02*
X15745185Y-10599563D01*
X15745185Y-10569563D02*
X15715185Y-10599563D01*
X15735000Y-9585000D02*
X15765000Y-9615000D01*
X15765000Y-9585000D02*
X15735000Y-9615000D01*
X15795000Y-10575000D02*
X15825000Y-10605000D01*
X15825000Y-10575000D02*
X15795000Y-10605000D01*
X15805000Y-10135000D02*
X15835000Y-10165000D01*
X15835000Y-10135000D02*
X15805000Y-10165000D01*
X15825000Y-12295000D02*
X15855000Y-12325000D01*
X15855000Y-12295000D02*
X15825000Y-12325000D01*
X15835000Y-12685000D02*
X15865000Y-12715000D01*
X15865000Y-12685000D02*
X15835000Y-12715000D01*
X15865000Y-10455000D02*
X15895000Y-10485000D01*
X15895000Y-10455000D02*
X15865000Y-10485000D01*
X15895000Y-9865000D02*
X15925000Y-9895000D01*
X15925000Y-9865000D02*
X15895000Y-9895000D01*
X16034584Y-10670858D02*
X16064584Y-10700858D01*
X16064584Y-10670858D02*
X16034584Y-10700858D01*
X16037375Y-10588796D02*
X16067375Y-10618796D01*
X16067375Y-10588796D02*
X16037375Y-10618796D01*
X16084078Y-10861067D02*
X16114078Y-10891067D01*
X16114078Y-10861067D02*
X16084078Y-10891067D01*
X16145000Y-11405000D02*
X16175000Y-11435000D01*
X16175000Y-11405000D02*
X16145000Y-11435000D01*
X16165000Y-9435000D02*
X16195000Y-9465000D01*
X16195000Y-9435000D02*
X16165000Y-9465000D01*
X16194976Y-11467470D02*
X16224976Y-11497470D01*
X16224976Y-11467470D02*
X16194976Y-11497470D01*
X16197375Y-10465000D02*
X16227375Y-10495000D01*
X16227375Y-10465000D02*
X16197375Y-10495000D01*
X16197375Y-10546716D02*
X16227375Y-10576716D01*
X16227375Y-10546716D02*
X16197375Y-10576716D01*
X16229631Y-10391791D02*
X16259631Y-10421791D01*
X16259631Y-10391791D02*
X16229631Y-10421791D01*
X16275000Y-9455000D02*
X16305000Y-9485000D01*
X16305000Y-9455000D02*
X16275000Y-9485000D01*
X16285000Y-10945000D02*
X16315000Y-10975000D01*
X16315000Y-10945000D02*
X16285000Y-10975000D01*
X16317375Y-10436936D02*
X16347375Y-10466936D01*
X16347375Y-10436936D02*
X16317375Y-10466936D01*
X16396964Y-10428835D02*
X16426964Y-10458835D01*
X16426964Y-10428835D02*
X16396964Y-10458835D01*
X16615000Y-11275000D02*
X16645000Y-11305000D01*
X16645000Y-11275000D02*
X16615000Y-11305000D01*
X16665000Y-11225000D02*
X16695000Y-11255000D01*
X16695000Y-11225000D02*
X16665000Y-11255000D01*
X16705000Y-10105000D02*
X16735000Y-10135000D01*
X16735000Y-10105000D02*
X16705000Y-10135000D01*
X16715000Y-8852500D02*
X16745000Y-8882500D01*
X16745000Y-8852500D02*
X16715000Y-8882500D01*
X16715000Y-10485000D02*
X16745000Y-10515000D01*
X16745000Y-10485000D02*
X16715000Y-10515000D01*
X16845000Y-12695000D02*
X16875000Y-12725000D01*
X16875000Y-12695000D02*
X16845000Y-12725000D01*
X16850000Y-11640000D02*
X16880000Y-11670000D01*
X16880000Y-11640000D02*
X16850000Y-11670000D01*
X16915000Y-12225000D02*
X16945000Y-12255000D01*
X16945000Y-12225000D02*
X16915000Y-12255000D01*
X16995000Y-11745000D02*
X17025000Y-11775000D01*
X17025000Y-11745000D02*
X16995000Y-11775000D01*
X17015000Y-10485000D02*
X17045000Y-10515000D01*
X17045000Y-10485000D02*
X17015000Y-10515000D01*
X17075000Y-9525000D02*
X17105000Y-9555000D01*
X17105000Y-9525000D02*
X17075000Y-9555000D01*
X17085000Y-10305500D02*
X17115000Y-10335500D01*
X17115000Y-10305500D02*
X17085000Y-10335500D01*
X17192348Y-12011428D02*
X17222348Y-12041428D01*
X17222348Y-12011428D02*
X17192348Y-12041428D01*
X17203475Y-12685000D02*
X17233475Y-12715000D01*
X17233475Y-12685000D02*
X17203475Y-12715000D01*
X17205000Y-12105000D02*
X17235000Y-12135000D01*
X17235000Y-12105000D02*
X17205000Y-12135000D01*
X17239909Y-12205421D02*
X17269909Y-12235421D01*
X17269909Y-12205421D02*
X17239909Y-12235421D01*
X17285000Y-10842604D02*
X17315000Y-10872604D01*
X17315000Y-10842604D02*
X17285000Y-10872604D01*
X17545000Y-11135000D02*
X17575000Y-11165000D01*
X17575000Y-11135000D02*
X17545000Y-11165000D01*
X17603900Y-10986261D02*
X17633900Y-11016261D01*
X17633900Y-10986261D02*
X17603900Y-11016261D01*
X17607574Y-11282426D02*
X17637574Y-11312426D01*
X17637574Y-11282426D02*
X17607574Y-11312426D01*
X17615000Y-11365000D02*
X17645000Y-11395000D01*
X17645000Y-11365000D02*
X17615000Y-11395000D01*
X17655000Y-10842604D02*
X17685000Y-10872604D01*
X17685000Y-10842604D02*
X17655000Y-10872604D01*
X17656486Y-10925971D02*
X17686486Y-10955971D01*
X17686486Y-10925971D02*
X17656486Y-10955971D01*
X17735000Y-10722604D02*
X17765000Y-10752604D01*
X17765000Y-10722604D02*
X17735000Y-10752604D01*
X17845000Y-10365000D02*
X17875000Y-10395000D01*
X17875000Y-10365000D02*
X17845000Y-10395000D01*
X17875000Y-11735000D02*
X17905000Y-11765000D01*
X17905000Y-11735000D02*
X17875000Y-11765000D01*
X17995000Y-10365000D02*
X18025000Y-10395000D01*
X18025000Y-10365000D02*
X17995000Y-10395000D01*
X18065000Y-9115000D02*
X18095000Y-9145000D01*
X18095000Y-9115000D02*
X18065000Y-9145000D01*
X18155000Y-10585000D02*
X18185000Y-10615000D01*
X18185000Y-10585000D02*
X18155000Y-10615000D01*
X18275000Y-10605000D02*
X18305000Y-10635000D01*
X18305000Y-10605000D02*
X18275000Y-10635000D01*
X18355000Y-12915000D02*
X18385000Y-12945000D01*
X18385000Y-12915000D02*
X18355000Y-12945000D01*
X18395000Y-11115000D02*
X18425000Y-11145000D01*
X18425000Y-11115000D02*
X18395000Y-11145000D01*
X18395000Y-11335000D02*
X18425000Y-11365000D01*
X18425000Y-11335000D02*
X18395000Y-11365000D01*
X18422166Y-11946955D02*
X18452166Y-11976955D01*
X18452166Y-11946955D02*
X18422166Y-11976955D01*
X18465000Y-12595000D02*
X18495000Y-12625000D01*
X18495000Y-12595000D02*
X18465000Y-12625000D01*
X18915000Y-10795000D02*
X18945000Y-10825000D01*
X18945000Y-10795000D02*
X18915000Y-10825000D01*
X19135000Y-9785000D02*
X19165000Y-9815000D01*
X19165000Y-9785000D02*
X19135000Y-9815000D01*
X19235000Y-10565000D02*
X19265000Y-10595000D01*
X19265000Y-10565000D02*
X19235000Y-10595000D01*
X19265000Y-12445000D02*
X19295000Y-12475000D01*
X19295000Y-12445000D02*
X19265000Y-12475000D01*
X19335000Y-12505000D02*
X19365000Y-12535000D01*
X19365000Y-12505000D02*
X19335000Y-12535000D01*
X19385000Y-10545000D02*
X19415000Y-10575000D01*
X19415000Y-10545000D02*
X19385000Y-10575000D01*
X19391908Y-12666852D02*
X19421908Y-12696852D01*
X19421908Y-12666852D02*
X19391908Y-12696852D01*
X19545000Y-10325000D02*
X19575000Y-10355000D01*
X19575000Y-10325000D02*
X19545000Y-10355000D01*
X19675000Y-10325000D02*
X19705000Y-10355000D01*
X19705000Y-10325000D02*
X19675000Y-10355000D01*
X19875000Y-10485000D02*
X19905000Y-10515000D01*
X19905000Y-10485000D02*
X19875000Y-10515000D01*
X19965000Y-9625000D02*
X19995000Y-9655000D01*
X19995000Y-9625000D02*
X19965000Y-9655000D01*
X19965000Y-10955000D02*
X19995000Y-10985000D01*
X19995000Y-10955000D02*
X19965000Y-10985000D01*
X19985207Y-8812556D02*
X20015207Y-8842556D01*
X20015207Y-8812556D02*
X19985207Y-8842556D01*
X20085000Y-10955000D02*
X20115000Y-10985000D01*
X20115000Y-10955000D02*
X20085000Y-10985000D01*
X20095000Y-12355000D02*
X20125000Y-12385000D01*
X20125000Y-12355000D02*
X20095000Y-12385000D01*
X20215000Y-12355000D02*
X20245000Y-12385000D01*
X20245000Y-12355000D02*
X20215000Y-12385000D01*
X20305000Y-11575000D02*
X20335000Y-11605000D01*
X20335000Y-11575000D02*
X20305000Y-11605000D01*
X20335000Y-10735000D02*
X20365000Y-10765000D01*
X20365000Y-10735000D02*
X20335000Y-10765000D01*
X20545000Y-10135000D02*
X20575000Y-10165000D01*
X20575000Y-10135000D02*
X20545000Y-10165000D01*
X20631012Y-10144991D02*
X20661012Y-10174991D01*
X20661012Y-10144991D02*
X20631012Y-10174991D01*
X20735000Y-10315000D02*
X20765000Y-10345000D01*
X20765000Y-10315000D02*
X20735000Y-10345000D01*
X20865000Y-9905000D02*
X20895000Y-9935000D01*
X20895000Y-9905000D02*
X20865000Y-9935000D01*
X20875000Y-10005000D02*
X20905000Y-10035000D01*
X20905000Y-10005000D02*
X20875000Y-10035000D01*
X20895000Y-9725000D02*
X20925000Y-9755000D01*
X20925000Y-9725000D02*
X20895000Y-9755000D01*
X21130875Y-9230993D02*
X21160875Y-9260993D01*
X21160875Y-9230993D02*
X21130875Y-9260993D01*
X21505000Y-9435000D02*
X21535000Y-9465000D01*
X21535000Y-9435000D02*
X21505000Y-9465000D01*
X21615000Y-10605000D02*
X21645000Y-10635000D01*
X21645000Y-10605000D02*
X21615000Y-10635000D01*
X21715000Y-10675000D02*
X21745000Y-10705000D01*
X21745000Y-10675000D02*
X21715000Y-10705000D01*
X21735000Y-9995000D02*
X21765000Y-10025000D01*
X21765000Y-9995000D02*
X21735000Y-10025000D01*
X13760000Y-13030000D02*
G75*
G02*
X13720000Y-13030000I-20000J0D01*
G01*
X13720000Y-13030000D02*
G75*
G02*
X13760000Y-13030000I20000J0D01*
G01*
X14020000Y-12310000D02*
G75*
G02*
X13980000Y-12310000I-20000J0D01*
G01*
X13980000Y-12310000D02*
G75*
G02*
X14020000Y-12310000I20000J0D01*
G01*
X21350000Y-9608200D02*
X21350000Y-9668200D01*
X21320000Y-9638200D02*
X21380000Y-9638200D01*
X21295000Y-9668200D02*
X21405000Y-9668200D01*
X21405000Y-9608200D02*
G75*
G02*
X21405000Y-9668200I0J-30000D01*
G01*
X21405000Y-9608200D02*
X21295000Y-9608200D01*
X21295000Y-9608200D02*
G75*
G03*
X21295000Y-9668200I0J-30000D01*
G01*
X21350000Y-10471800D02*
X21350000Y-10531800D01*
X21320000Y-10501800D02*
X21380000Y-10501800D01*
X21295000Y-10531800D02*
X21405000Y-10531800D01*
X21405000Y-10471800D02*
G75*
G02*
X21405000Y-10531800I0J-30000D01*
G01*
X21405000Y-10471800D02*
X21295000Y-10471800D01*
X21295000Y-10471800D02*
G75*
G03*
X21295000Y-10531800I0J-30000D01*
G01*
X21768000Y-9608200D02*
X21768000Y-9668200D01*
X21738000Y-9638200D02*
X21798000Y-9638200D01*
X21738000Y-9668200D02*
X21798000Y-9668200D01*
X21798000Y-9608200D02*
G75*
G02*
X21798000Y-9668200I0J-30000D01*
G01*
X21798000Y-9608200D02*
X21738000Y-9608200D01*
X21738000Y-9608200D02*
G75*
G03*
X21738000Y-9668200I0J-30000D01*
G01*
X21768000Y-10471800D02*
X21768000Y-10531800D01*
X21738000Y-10501800D02*
X21798000Y-10501800D01*
X21738000Y-10531800D02*
X21798000Y-10531800D01*
X21798000Y-10471800D02*
G75*
G02*
X21798000Y-10531800I0J-30000D01*
G01*
X21798000Y-10471800D02*
X21738000Y-10471800D01*
X21738000Y-10471800D02*
G75*
G03*
X21738000Y-10531800I0J-30000D01*
G01*
D13*
X9535891Y-8823891D02*
X9535891Y-8746109D01*
X9458109Y-8746109D01*
X9458109Y-8823891D01*
X9535891Y-8823891D01*
X10135891Y-8823891D02*
X10135891Y-8746109D01*
X10058109Y-8746109D01*
X10058109Y-8823891D01*
X10135891Y-8823891D01*
D11*
X9458277Y-13613984D02*
X9458277Y-13413984D01*
X9458277Y-13413984D02*
X9505896Y-13413984D01*
X9505896Y-13413984D02*
X9534467Y-13423508D01*
X9534467Y-13423508D02*
X9553515Y-13442555D01*
X9553515Y-13442555D02*
X9563039Y-13461603D01*
X9563039Y-13461603D02*
X9572563Y-13499698D01*
X9572563Y-13499698D02*
X9572563Y-13528269D01*
X9572563Y-13528269D02*
X9563039Y-13566365D01*
X9563039Y-13566365D02*
X9553515Y-13585412D01*
X9553515Y-13585412D02*
X9534467Y-13604460D01*
X9534467Y-13604460D02*
X9505896Y-13613984D01*
X9505896Y-13613984D02*
X9458277Y-13613984D01*
X9658277Y-13613984D02*
X9658277Y-13480650D01*
X9658277Y-13518746D02*
X9667801Y-13499698D01*
X9667801Y-13499698D02*
X9677324Y-13490174D01*
X9677324Y-13490174D02*
X9696372Y-13480650D01*
X9696372Y-13480650D02*
X9715420Y-13480650D01*
X9782086Y-13613984D02*
X9782086Y-13480650D01*
X9782086Y-13413984D02*
X9772563Y-13423508D01*
X9772563Y-13423508D02*
X9782086Y-13433031D01*
X9782086Y-13433031D02*
X9791610Y-13423508D01*
X9791610Y-13423508D02*
X9782086Y-13413984D01*
X9782086Y-13413984D02*
X9782086Y-13433031D01*
X9905896Y-13613984D02*
X9886848Y-13604460D01*
X9886848Y-13604460D02*
X9877324Y-13585412D01*
X9877324Y-13585412D02*
X9877324Y-13413984D01*
X10010658Y-13613984D02*
X9991610Y-13604460D01*
X9991610Y-13604460D02*
X9982086Y-13585412D01*
X9982086Y-13585412D02*
X9982086Y-13413984D01*
X10239229Y-13613984D02*
X10239229Y-13413984D01*
X10239229Y-13413984D02*
X10305896Y-13556841D01*
X10305896Y-13556841D02*
X10372563Y-13413984D01*
X10372563Y-13413984D02*
X10372563Y-13613984D01*
X10553515Y-13613984D02*
X10553515Y-13509222D01*
X10553515Y-13509222D02*
X10543991Y-13490174D01*
X10543991Y-13490174D02*
X10524944Y-13480650D01*
X10524944Y-13480650D02*
X10486848Y-13480650D01*
X10486848Y-13480650D02*
X10467801Y-13490174D01*
X10553515Y-13604460D02*
X10534467Y-13613984D01*
X10534467Y-13613984D02*
X10486848Y-13613984D01*
X10486848Y-13613984D02*
X10467801Y-13604460D01*
X10467801Y-13604460D02*
X10458277Y-13585412D01*
X10458277Y-13585412D02*
X10458277Y-13566365D01*
X10458277Y-13566365D02*
X10467801Y-13547317D01*
X10467801Y-13547317D02*
X10486848Y-13537793D01*
X10486848Y-13537793D02*
X10534467Y-13537793D01*
X10534467Y-13537793D02*
X10553515Y-13528269D01*
X10648753Y-13480650D02*
X10648753Y-13680650D01*
X10648753Y-13490174D02*
X10667801Y-13480650D01*
X10667801Y-13480650D02*
X10705896Y-13480650D01*
X10705896Y-13480650D02*
X10724944Y-13490174D01*
X10724944Y-13490174D02*
X10734467Y-13499698D01*
X10734467Y-13499698D02*
X10743991Y-13518746D01*
X10743991Y-13518746D02*
X10743991Y-13575888D01*
X10743991Y-13575888D02*
X10734467Y-13594936D01*
X10734467Y-13594936D02*
X10724944Y-13604460D01*
X10724944Y-13604460D02*
X10705896Y-13613984D01*
X10705896Y-13613984D02*
X10667801Y-13613984D01*
X10667801Y-13613984D02*
X10648753Y-13604460D01*
X10829705Y-13594936D02*
X10839229Y-13604460D01*
X10839229Y-13604460D02*
X10829705Y-13613984D01*
X10829705Y-13613984D02*
X10820182Y-13604460D01*
X10820182Y-13604460D02*
X10829705Y-13594936D01*
X10829705Y-13594936D02*
X10829705Y-13613984D01*
X10829705Y-13490174D02*
X10839229Y-13499698D01*
X10839229Y-13499698D02*
X10829705Y-13509222D01*
X10829705Y-13509222D02*
X10820182Y-13499698D01*
X10820182Y-13499698D02*
X10829705Y-13490174D01*
X10829705Y-13490174D02*
X10829705Y-13509222D01*
D12*
X9167500Y-13927500D02*
X9197500Y-13957500D01*
X9197500Y-13927500D02*
X9167500Y-13957500D01*
D11*
X9496372Y-13833984D02*
X9515420Y-13833984D01*
X9515420Y-13833984D02*
X9534467Y-13843508D01*
X9534467Y-13843508D02*
X9543991Y-13853031D01*
X9543991Y-13853031D02*
X9553515Y-13872079D01*
X9553515Y-13872079D02*
X9563039Y-13910174D01*
X9563039Y-13910174D02*
X9563039Y-13957793D01*
X9563039Y-13957793D02*
X9553515Y-13995888D01*
X9553515Y-13995888D02*
X9543991Y-14014936D01*
X9543991Y-14014936D02*
X9534467Y-14024460D01*
X9534467Y-14024460D02*
X9515420Y-14033984D01*
X9515420Y-14033984D02*
X9496372Y-14033984D01*
X9496372Y-14033984D02*
X9477324Y-14024460D01*
X9477324Y-14024460D02*
X9467801Y-14014936D01*
X9467801Y-14014936D02*
X9458277Y-13995888D01*
X9458277Y-13995888D02*
X9448753Y-13957793D01*
X9448753Y-13957793D02*
X9448753Y-13910174D01*
X9448753Y-13910174D02*
X9458277Y-13872079D01*
X9458277Y-13872079D02*
X9467801Y-13853031D01*
X9467801Y-13853031D02*
X9477324Y-13843508D01*
X9477324Y-13843508D02*
X9496372Y-13833984D01*
X9648753Y-14014936D02*
X9658277Y-14024460D01*
X9658277Y-14024460D02*
X9648753Y-14033984D01*
X9648753Y-14033984D02*
X9639229Y-14024460D01*
X9639229Y-14024460D02*
X9648753Y-14014936D01*
X9648753Y-14014936D02*
X9648753Y-14033984D01*
X9724944Y-13833984D02*
X9848753Y-13833984D01*
X9848753Y-13833984D02*
X9782086Y-13910174D01*
X9782086Y-13910174D02*
X9810658Y-13910174D01*
X9810658Y-13910174D02*
X9829705Y-13919698D01*
X9829705Y-13919698D02*
X9839229Y-13929222D01*
X9839229Y-13929222D02*
X9848753Y-13948269D01*
X9848753Y-13948269D02*
X9848753Y-13995888D01*
X9848753Y-13995888D02*
X9839229Y-14014936D01*
X9839229Y-14014936D02*
X9829705Y-14024460D01*
X9829705Y-14024460D02*
X9810658Y-14033984D01*
X9810658Y-14033984D02*
X9753515Y-14033984D01*
X9753515Y-14033984D02*
X9734467Y-14024460D01*
X9734467Y-14024460D02*
X9724944Y-14014936D01*
X9972563Y-13833984D02*
X9991610Y-13833984D01*
X9991610Y-13833984D02*
X10010658Y-13843508D01*
X10010658Y-13843508D02*
X10020182Y-13853031D01*
X10020182Y-13853031D02*
X10029705Y-13872079D01*
X10029705Y-13872079D02*
X10039229Y-13910174D01*
X10039229Y-13910174D02*
X10039229Y-13957793D01*
X10039229Y-13957793D02*
X10029705Y-13995888D01*
X10029705Y-13995888D02*
X10020182Y-14014936D01*
X10020182Y-14014936D02*
X10010658Y-14024460D01*
X10010658Y-14024460D02*
X9991610Y-14033984D01*
X9991610Y-14033984D02*
X9972563Y-14033984D01*
X9972563Y-14033984D02*
X9953515Y-14024460D01*
X9953515Y-14024460D02*
X9943991Y-14014936D01*
X9943991Y-14014936D02*
X9934467Y-13995888D01*
X9934467Y-13995888D02*
X9924944Y-13957793D01*
X9924944Y-13957793D02*
X9924944Y-13910174D01*
X9924944Y-13910174D02*
X9934467Y-13872079D01*
X9934467Y-13872079D02*
X9943991Y-13853031D01*
X9943991Y-13853031D02*
X9953515Y-13843508D01*
X9953515Y-13843508D02*
X9972563Y-13833984D01*
X10163039Y-13833984D02*
X10182086Y-13833984D01*
X10182086Y-13833984D02*
X10201134Y-13843508D01*
X10201134Y-13843508D02*
X10210658Y-13853031D01*
X10210658Y-13853031D02*
X10220182Y-13872079D01*
X10220182Y-13872079D02*
X10229705Y-13910174D01*
X10229705Y-13910174D02*
X10229705Y-13957793D01*
X10229705Y-13957793D02*
X10220182Y-13995888D01*
X10220182Y-13995888D02*
X10210658Y-14014936D01*
X10210658Y-14014936D02*
X10201134Y-14024460D01*
X10201134Y-14024460D02*
X10182086Y-14033984D01*
X10182086Y-14033984D02*
X10163039Y-14033984D01*
X10163039Y-14033984D02*
X10143991Y-14024460D01*
X10143991Y-14024460D02*
X10134467Y-14014936D01*
X10134467Y-14014936D02*
X10124944Y-13995888D01*
X10124944Y-13995888D02*
X10115420Y-13957793D01*
X10115420Y-13957793D02*
X10115420Y-13910174D01*
X10115420Y-13910174D02*
X10124944Y-13872079D01*
X10124944Y-13872079D02*
X10134467Y-13853031D01*
X10134467Y-13853031D02*
X10143991Y-13843508D01*
X10143991Y-13843508D02*
X10163039Y-13833984D01*
X10315420Y-14033984D02*
X10315420Y-13900650D01*
X10315420Y-13919698D02*
X10324944Y-13910174D01*
X10324944Y-13910174D02*
X10343991Y-13900650D01*
X10343991Y-13900650D02*
X10372563Y-13900650D01*
X10372563Y-13900650D02*
X10391610Y-13910174D01*
X10391610Y-13910174D02*
X10401134Y-13929222D01*
X10401134Y-13929222D02*
X10401134Y-14033984D01*
X10401134Y-13929222D02*
X10410658Y-13910174D01*
X10410658Y-13910174D02*
X10429705Y-13900650D01*
X10429705Y-13900650D02*
X10458277Y-13900650D01*
X10458277Y-13900650D02*
X10477325Y-13910174D01*
X10477325Y-13910174D02*
X10486848Y-13929222D01*
X10486848Y-13929222D02*
X10486848Y-14033984D01*
X10582086Y-14033984D02*
X10582086Y-13900650D01*
X10582086Y-13919698D02*
X10591610Y-13910174D01*
X10591610Y-13910174D02*
X10610658Y-13900650D01*
X10610658Y-13900650D02*
X10639229Y-13900650D01*
X10639229Y-13900650D02*
X10658277Y-13910174D01*
X10658277Y-13910174D02*
X10667801Y-13929222D01*
X10667801Y-13929222D02*
X10667801Y-14033984D01*
X10667801Y-13929222D02*
X10677325Y-13910174D01*
X10677325Y-13910174D02*
X10696372Y-13900650D01*
X10696372Y-13900650D02*
X10724944Y-13900650D01*
X10724944Y-13900650D02*
X10743991Y-13910174D01*
X10743991Y-13910174D02*
X10753515Y-13929222D01*
X10753515Y-13929222D02*
X10753515Y-14033984D01*
X11143991Y-13824460D02*
X10972563Y-14081603D01*
X11401134Y-13833984D02*
X11420182Y-13833984D01*
X11420182Y-13833984D02*
X11439229Y-13843508D01*
X11439229Y-13843508D02*
X11448753Y-13853031D01*
X11448753Y-13853031D02*
X11458277Y-13872079D01*
X11458277Y-13872079D02*
X11467801Y-13910174D01*
X11467801Y-13910174D02*
X11467801Y-13957793D01*
X11467801Y-13957793D02*
X11458277Y-13995888D01*
X11458277Y-13995888D02*
X11448753Y-14014936D01*
X11448753Y-14014936D02*
X11439229Y-14024460D01*
X11439229Y-14024460D02*
X11420182Y-14033984D01*
X11420182Y-14033984D02*
X11401134Y-14033984D01*
X11401134Y-14033984D02*
X11382086Y-14024460D01*
X11382086Y-14024460D02*
X11372563Y-14014936D01*
X11372563Y-14014936D02*
X11363039Y-13995888D01*
X11363039Y-13995888D02*
X11353515Y-13957793D01*
X11353515Y-13957793D02*
X11353515Y-13910174D01*
X11353515Y-13910174D02*
X11363039Y-13872079D01*
X11363039Y-13872079D02*
X11372563Y-13853031D01*
X11372563Y-13853031D02*
X11382086Y-13843508D01*
X11382086Y-13843508D02*
X11401134Y-13833984D01*
X11553515Y-14014936D02*
X11563039Y-14024460D01*
X11563039Y-14024460D02*
X11553515Y-14033984D01*
X11553515Y-14033984D02*
X11543991Y-14024460D01*
X11543991Y-14024460D02*
X11553515Y-14014936D01*
X11553515Y-14014936D02*
X11553515Y-14033984D01*
X11686848Y-13833984D02*
X11705896Y-13833984D01*
X11705896Y-13833984D02*
X11724944Y-13843508D01*
X11724944Y-13843508D02*
X11734467Y-13853031D01*
X11734467Y-13853031D02*
X11743991Y-13872079D01*
X11743991Y-13872079D02*
X11753515Y-13910174D01*
X11753515Y-13910174D02*
X11753515Y-13957793D01*
X11753515Y-13957793D02*
X11743991Y-13995888D01*
X11743991Y-13995888D02*
X11734467Y-14014936D01*
X11734467Y-14014936D02*
X11724944Y-14024460D01*
X11724944Y-14024460D02*
X11705896Y-14033984D01*
X11705896Y-14033984D02*
X11686848Y-14033984D01*
X11686848Y-14033984D02*
X11667801Y-14024460D01*
X11667801Y-14024460D02*
X11658277Y-14014936D01*
X11658277Y-14014936D02*
X11648753Y-13995888D01*
X11648753Y-13995888D02*
X11639229Y-13957793D01*
X11639229Y-13957793D02*
X11639229Y-13910174D01*
X11639229Y-13910174D02*
X11648753Y-13872079D01*
X11648753Y-13872079D02*
X11658277Y-13853031D01*
X11658277Y-13853031D02*
X11667801Y-13843508D01*
X11667801Y-13843508D02*
X11686848Y-13833984D01*
X11943991Y-14033984D02*
X11829706Y-14033984D01*
X11886848Y-14033984D02*
X11886848Y-13833984D01*
X11886848Y-13833984D02*
X11867801Y-13862555D01*
X11867801Y-13862555D02*
X11848753Y-13881603D01*
X11848753Y-13881603D02*
X11829706Y-13891127D01*
X12134467Y-14033984D02*
X12020182Y-14033984D01*
X12077325Y-14033984D02*
X12077325Y-13833984D01*
X12077325Y-13833984D02*
X12058277Y-13862555D01*
X12058277Y-13862555D02*
X12039229Y-13881603D01*
X12039229Y-13881603D02*
X12020182Y-13891127D01*
X12248753Y-13919698D02*
X12229706Y-13910174D01*
X12229706Y-13910174D02*
X12220182Y-13900650D01*
X12220182Y-13900650D02*
X12210658Y-13881603D01*
X12210658Y-13881603D02*
X12210658Y-13872079D01*
X12210658Y-13872079D02*
X12220182Y-13853031D01*
X12220182Y-13853031D02*
X12229706Y-13843508D01*
X12229706Y-13843508D02*
X12248753Y-13833984D01*
X12248753Y-13833984D02*
X12286848Y-13833984D01*
X12286848Y-13833984D02*
X12305896Y-13843508D01*
X12305896Y-13843508D02*
X12315420Y-13853031D01*
X12315420Y-13853031D02*
X12324944Y-13872079D01*
X12324944Y-13872079D02*
X12324944Y-13881603D01*
X12324944Y-13881603D02*
X12315420Y-13900650D01*
X12315420Y-13900650D02*
X12305896Y-13910174D01*
X12305896Y-13910174D02*
X12286848Y-13919698D01*
X12286848Y-13919698D02*
X12248753Y-13919698D01*
X12248753Y-13919698D02*
X12229706Y-13929222D01*
X12229706Y-13929222D02*
X12220182Y-13938746D01*
X12220182Y-13938746D02*
X12210658Y-13957793D01*
X12210658Y-13957793D02*
X12210658Y-13995888D01*
X12210658Y-13995888D02*
X12220182Y-14014936D01*
X12220182Y-14014936D02*
X12229706Y-14024460D01*
X12229706Y-14024460D02*
X12248753Y-14033984D01*
X12248753Y-14033984D02*
X12286848Y-14033984D01*
X12286848Y-14033984D02*
X12305896Y-14024460D01*
X12305896Y-14024460D02*
X12315420Y-14014936D01*
X12315420Y-14014936D02*
X12324944Y-13995888D01*
X12324944Y-13995888D02*
X12324944Y-13957793D01*
X12324944Y-13957793D02*
X12315420Y-13938746D01*
X12315420Y-13938746D02*
X12305896Y-13929222D01*
X12305896Y-13929222D02*
X12286848Y-13919698D01*
X12401134Y-13833984D02*
X12401134Y-13872079D01*
X12477325Y-13833984D02*
X12477325Y-13872079D01*
X12772563Y-14110174D02*
X12763039Y-14100650D01*
X12763039Y-14100650D02*
X12743991Y-14072079D01*
X12743991Y-14072079D02*
X12734468Y-14053031D01*
X12734468Y-14053031D02*
X12724944Y-14024460D01*
X12724944Y-14024460D02*
X12715420Y-13976841D01*
X12715420Y-13976841D02*
X12715420Y-13938746D01*
X12715420Y-13938746D02*
X12724944Y-13891127D01*
X12724944Y-13891127D02*
X12734468Y-13862555D01*
X12734468Y-13862555D02*
X12743991Y-13843508D01*
X12743991Y-13843508D02*
X12763039Y-13814936D01*
X12763039Y-13814936D02*
X12772563Y-13805412D01*
X12953515Y-14033984D02*
X12839229Y-14033984D01*
X12896372Y-14033984D02*
X12896372Y-13833984D01*
X12896372Y-13833984D02*
X12877325Y-13862555D01*
X12877325Y-13862555D02*
X12858277Y-13881603D01*
X12858277Y-13881603D02*
X12839229Y-13891127D01*
X13134468Y-13833984D02*
X13039229Y-13833984D01*
X13039229Y-13833984D02*
X13029706Y-13929222D01*
X13029706Y-13929222D02*
X13039229Y-13919698D01*
X13039229Y-13919698D02*
X13058277Y-13910174D01*
X13058277Y-13910174D02*
X13105896Y-13910174D01*
X13105896Y-13910174D02*
X13124944Y-13919698D01*
X13124944Y-13919698D02*
X13134468Y-13929222D01*
X13134468Y-13929222D02*
X13143991Y-13948269D01*
X13143991Y-13948269D02*
X13143991Y-13995888D01*
X13143991Y-13995888D02*
X13134468Y-14014936D01*
X13134468Y-14014936D02*
X13124944Y-14024460D01*
X13124944Y-14024460D02*
X13105896Y-14033984D01*
X13105896Y-14033984D02*
X13058277Y-14033984D01*
X13058277Y-14033984D02*
X13039229Y-14024460D01*
X13039229Y-14024460D02*
X13029706Y-14014936D01*
X13334468Y-14033984D02*
X13220182Y-14033984D01*
X13277325Y-14033984D02*
X13277325Y-13833984D01*
X13277325Y-13833984D02*
X13258277Y-13862555D01*
X13258277Y-13862555D02*
X13239229Y-13881603D01*
X13239229Y-13881603D02*
X13220182Y-13891127D01*
X13572563Y-14033984D02*
X13572563Y-13833984D01*
X13658277Y-14033984D02*
X13658277Y-13929222D01*
X13658277Y-13929222D02*
X13648753Y-13910174D01*
X13648753Y-13910174D02*
X13629706Y-13900650D01*
X13629706Y-13900650D02*
X13601134Y-13900650D01*
X13601134Y-13900650D02*
X13582087Y-13910174D01*
X13582087Y-13910174D02*
X13572563Y-13919698D01*
X13782087Y-14033984D02*
X13763039Y-14024460D01*
X13763039Y-14024460D02*
X13753515Y-14014936D01*
X13753515Y-14014936D02*
X13743991Y-13995888D01*
X13743991Y-13995888D02*
X13743991Y-13938746D01*
X13743991Y-13938746D02*
X13753515Y-13919698D01*
X13753515Y-13919698D02*
X13763039Y-13910174D01*
X13763039Y-13910174D02*
X13782087Y-13900650D01*
X13782087Y-13900650D02*
X13810658Y-13900650D01*
X13810658Y-13900650D02*
X13829706Y-13910174D01*
X13829706Y-13910174D02*
X13839230Y-13919698D01*
X13839230Y-13919698D02*
X13848753Y-13938746D01*
X13848753Y-13938746D02*
X13848753Y-13995888D01*
X13848753Y-13995888D02*
X13839230Y-14014936D01*
X13839230Y-14014936D02*
X13829706Y-14024460D01*
X13829706Y-14024460D02*
X13810658Y-14033984D01*
X13810658Y-14033984D02*
X13782087Y-14033984D01*
X13963039Y-14033984D02*
X13943991Y-14024460D01*
X13943991Y-14024460D02*
X13934468Y-14005412D01*
X13934468Y-14005412D02*
X13934468Y-13833984D01*
X14115420Y-14024460D02*
X14096372Y-14033984D01*
X14096372Y-14033984D02*
X14058277Y-14033984D01*
X14058277Y-14033984D02*
X14039230Y-14024460D01*
X14039230Y-14024460D02*
X14029706Y-14005412D01*
X14029706Y-14005412D02*
X14029706Y-13929222D01*
X14029706Y-13929222D02*
X14039230Y-13910174D01*
X14039230Y-13910174D02*
X14058277Y-13900650D01*
X14058277Y-13900650D02*
X14096372Y-13900650D01*
X14096372Y-13900650D02*
X14115420Y-13910174D01*
X14115420Y-13910174D02*
X14124944Y-13929222D01*
X14124944Y-13929222D02*
X14124944Y-13948269D01*
X14124944Y-13948269D02*
X14029706Y-13967317D01*
X14201134Y-14024460D02*
X14220182Y-14033984D01*
X14220182Y-14033984D02*
X14258277Y-14033984D01*
X14258277Y-14033984D02*
X14277325Y-14024460D01*
X14277325Y-14024460D02*
X14286849Y-14005412D01*
X14286849Y-14005412D02*
X14286849Y-13995888D01*
X14286849Y-13995888D02*
X14277325Y-13976841D01*
X14277325Y-13976841D02*
X14258277Y-13967317D01*
X14258277Y-13967317D02*
X14229706Y-13967317D01*
X14229706Y-13967317D02*
X14210658Y-13957793D01*
X14210658Y-13957793D02*
X14201134Y-13938746D01*
X14201134Y-13938746D02*
X14201134Y-13929222D01*
X14201134Y-13929222D02*
X14210658Y-13910174D01*
X14210658Y-13910174D02*
X14229706Y-13900650D01*
X14229706Y-13900650D02*
X14258277Y-13900650D01*
X14258277Y-13900650D02*
X14277325Y-13910174D01*
X14353515Y-14110174D02*
X14363039Y-14100650D01*
X14363039Y-14100650D02*
X14382087Y-14072079D01*
X14382087Y-14072079D02*
X14391611Y-14053031D01*
X14391611Y-14053031D02*
X14401134Y-14024460D01*
X14401134Y-14024460D02*
X14410658Y-13976841D01*
X14410658Y-13976841D02*
X14410658Y-13938746D01*
X14410658Y-13938746D02*
X14401134Y-13891127D01*
X14401134Y-13891127D02*
X14391611Y-13862555D01*
X14391611Y-13862555D02*
X14382087Y-13843508D01*
X14382087Y-13843508D02*
X14363039Y-13814936D01*
X14363039Y-13814936D02*
X14353515Y-13805412D01*
D12*
X9197500Y-14206500D02*
G75*
G02*
X9157500Y-14206500I-20000J0D01*
G01*
X9157500Y-14206500D02*
G75*
G02*
X9197500Y-14206500I20000J0D01*
G01*
D11*
X9496372Y-14097984D02*
X9515420Y-14097984D01*
X9515420Y-14097984D02*
X9534467Y-14107508D01*
X9534467Y-14107508D02*
X9543991Y-14117031D01*
X9543991Y-14117031D02*
X9553515Y-14136079D01*
X9553515Y-14136079D02*
X9563039Y-14174174D01*
X9563039Y-14174174D02*
X9563039Y-14221793D01*
X9563039Y-14221793D02*
X9553515Y-14259888D01*
X9553515Y-14259888D02*
X9543991Y-14278936D01*
X9543991Y-14278936D02*
X9534467Y-14288460D01*
X9534467Y-14288460D02*
X9515420Y-14297984D01*
X9515420Y-14297984D02*
X9496372Y-14297984D01*
X9496372Y-14297984D02*
X9477324Y-14288460D01*
X9477324Y-14288460D02*
X9467801Y-14278936D01*
X9467801Y-14278936D02*
X9458277Y-14259888D01*
X9458277Y-14259888D02*
X9448753Y-14221793D01*
X9448753Y-14221793D02*
X9448753Y-14174174D01*
X9448753Y-14174174D02*
X9458277Y-14136079D01*
X9458277Y-14136079D02*
X9467801Y-14117031D01*
X9467801Y-14117031D02*
X9477324Y-14107508D01*
X9477324Y-14107508D02*
X9496372Y-14097984D01*
X9648753Y-14278936D02*
X9658277Y-14288460D01*
X9658277Y-14288460D02*
X9648753Y-14297984D01*
X9648753Y-14297984D02*
X9639229Y-14288460D01*
X9639229Y-14288460D02*
X9648753Y-14278936D01*
X9648753Y-14278936D02*
X9648753Y-14297984D01*
X9829705Y-14164650D02*
X9829705Y-14297984D01*
X9782086Y-14088460D02*
X9734467Y-14231317D01*
X9734467Y-14231317D02*
X9858277Y-14231317D01*
X9972563Y-14097984D02*
X9991610Y-14097984D01*
X9991610Y-14097984D02*
X10010658Y-14107508D01*
X10010658Y-14107508D02*
X10020182Y-14117031D01*
X10020182Y-14117031D02*
X10029705Y-14136079D01*
X10029705Y-14136079D02*
X10039229Y-14174174D01*
X10039229Y-14174174D02*
X10039229Y-14221793D01*
X10039229Y-14221793D02*
X10029705Y-14259888D01*
X10029705Y-14259888D02*
X10020182Y-14278936D01*
X10020182Y-14278936D02*
X10010658Y-14288460D01*
X10010658Y-14288460D02*
X9991610Y-14297984D01*
X9991610Y-14297984D02*
X9972563Y-14297984D01*
X9972563Y-14297984D02*
X9953515Y-14288460D01*
X9953515Y-14288460D02*
X9943991Y-14278936D01*
X9943991Y-14278936D02*
X9934467Y-14259888D01*
X9934467Y-14259888D02*
X9924944Y-14221793D01*
X9924944Y-14221793D02*
X9924944Y-14174174D01*
X9924944Y-14174174D02*
X9934467Y-14136079D01*
X9934467Y-14136079D02*
X9943991Y-14117031D01*
X9943991Y-14117031D02*
X9953515Y-14107508D01*
X9953515Y-14107508D02*
X9972563Y-14097984D01*
X10163039Y-14097984D02*
X10182086Y-14097984D01*
X10182086Y-14097984D02*
X10201134Y-14107508D01*
X10201134Y-14107508D02*
X10210658Y-14117031D01*
X10210658Y-14117031D02*
X10220182Y-14136079D01*
X10220182Y-14136079D02*
X10229705Y-14174174D01*
X10229705Y-14174174D02*
X10229705Y-14221793D01*
X10229705Y-14221793D02*
X10220182Y-14259888D01*
X10220182Y-14259888D02*
X10210658Y-14278936D01*
X10210658Y-14278936D02*
X10201134Y-14288460D01*
X10201134Y-14288460D02*
X10182086Y-14297984D01*
X10182086Y-14297984D02*
X10163039Y-14297984D01*
X10163039Y-14297984D02*
X10143991Y-14288460D01*
X10143991Y-14288460D02*
X10134467Y-14278936D01*
X10134467Y-14278936D02*
X10124944Y-14259888D01*
X10124944Y-14259888D02*
X10115420Y-14221793D01*
X10115420Y-14221793D02*
X10115420Y-14174174D01*
X10115420Y-14174174D02*
X10124944Y-14136079D01*
X10124944Y-14136079D02*
X10134467Y-14117031D01*
X10134467Y-14117031D02*
X10143991Y-14107508D01*
X10143991Y-14107508D02*
X10163039Y-14097984D01*
X10315420Y-14297984D02*
X10315420Y-14164650D01*
X10315420Y-14183698D02*
X10324944Y-14174174D01*
X10324944Y-14174174D02*
X10343991Y-14164650D01*
X10343991Y-14164650D02*
X10372563Y-14164650D01*
X10372563Y-14164650D02*
X10391610Y-14174174D01*
X10391610Y-14174174D02*
X10401134Y-14193222D01*
X10401134Y-14193222D02*
X10401134Y-14297984D01*
X10401134Y-14193222D02*
X10410658Y-14174174D01*
X10410658Y-14174174D02*
X10429705Y-14164650D01*
X10429705Y-14164650D02*
X10458277Y-14164650D01*
X10458277Y-14164650D02*
X10477325Y-14174174D01*
X10477325Y-14174174D02*
X10486848Y-14193222D01*
X10486848Y-14193222D02*
X10486848Y-14297984D01*
X10582086Y-14297984D02*
X10582086Y-14164650D01*
X10582086Y-14183698D02*
X10591610Y-14174174D01*
X10591610Y-14174174D02*
X10610658Y-14164650D01*
X10610658Y-14164650D02*
X10639229Y-14164650D01*
X10639229Y-14164650D02*
X10658277Y-14174174D01*
X10658277Y-14174174D02*
X10667801Y-14193222D01*
X10667801Y-14193222D02*
X10667801Y-14297984D01*
X10667801Y-14193222D02*
X10677325Y-14174174D01*
X10677325Y-14174174D02*
X10696372Y-14164650D01*
X10696372Y-14164650D02*
X10724944Y-14164650D01*
X10724944Y-14164650D02*
X10743991Y-14174174D01*
X10743991Y-14174174D02*
X10753515Y-14193222D01*
X10753515Y-14193222D02*
X10753515Y-14297984D01*
X11143991Y-14088460D02*
X10972563Y-14345603D01*
X11401134Y-14097984D02*
X11420182Y-14097984D01*
X11420182Y-14097984D02*
X11439229Y-14107508D01*
X11439229Y-14107508D02*
X11448753Y-14117031D01*
X11448753Y-14117031D02*
X11458277Y-14136079D01*
X11458277Y-14136079D02*
X11467801Y-14174174D01*
X11467801Y-14174174D02*
X11467801Y-14221793D01*
X11467801Y-14221793D02*
X11458277Y-14259888D01*
X11458277Y-14259888D02*
X11448753Y-14278936D01*
X11448753Y-14278936D02*
X11439229Y-14288460D01*
X11439229Y-14288460D02*
X11420182Y-14297984D01*
X11420182Y-14297984D02*
X11401134Y-14297984D01*
X11401134Y-14297984D02*
X11382086Y-14288460D01*
X11382086Y-14288460D02*
X11372563Y-14278936D01*
X11372563Y-14278936D02*
X11363039Y-14259888D01*
X11363039Y-14259888D02*
X11353515Y-14221793D01*
X11353515Y-14221793D02*
X11353515Y-14174174D01*
X11353515Y-14174174D02*
X11363039Y-14136079D01*
X11363039Y-14136079D02*
X11372563Y-14117031D01*
X11372563Y-14117031D02*
X11382086Y-14107508D01*
X11382086Y-14107508D02*
X11401134Y-14097984D01*
X11553515Y-14278936D02*
X11563039Y-14288460D01*
X11563039Y-14288460D02*
X11553515Y-14297984D01*
X11553515Y-14297984D02*
X11543991Y-14288460D01*
X11543991Y-14288460D02*
X11553515Y-14278936D01*
X11553515Y-14278936D02*
X11553515Y-14297984D01*
X11686848Y-14097984D02*
X11705896Y-14097984D01*
X11705896Y-14097984D02*
X11724944Y-14107508D01*
X11724944Y-14107508D02*
X11734467Y-14117031D01*
X11734467Y-14117031D02*
X11743991Y-14136079D01*
X11743991Y-14136079D02*
X11753515Y-14174174D01*
X11753515Y-14174174D02*
X11753515Y-14221793D01*
X11753515Y-14221793D02*
X11743991Y-14259888D01*
X11743991Y-14259888D02*
X11734467Y-14278936D01*
X11734467Y-14278936D02*
X11724944Y-14288460D01*
X11724944Y-14288460D02*
X11705896Y-14297984D01*
X11705896Y-14297984D02*
X11686848Y-14297984D01*
X11686848Y-14297984D02*
X11667801Y-14288460D01*
X11667801Y-14288460D02*
X11658277Y-14278936D01*
X11658277Y-14278936D02*
X11648753Y-14259888D01*
X11648753Y-14259888D02*
X11639229Y-14221793D01*
X11639229Y-14221793D02*
X11639229Y-14174174D01*
X11639229Y-14174174D02*
X11648753Y-14136079D01*
X11648753Y-14136079D02*
X11658277Y-14117031D01*
X11658277Y-14117031D02*
X11667801Y-14107508D01*
X11667801Y-14107508D02*
X11686848Y-14097984D01*
X11943991Y-14297984D02*
X11829706Y-14297984D01*
X11886848Y-14297984D02*
X11886848Y-14097984D01*
X11886848Y-14097984D02*
X11867801Y-14126555D01*
X11867801Y-14126555D02*
X11848753Y-14145603D01*
X11848753Y-14145603D02*
X11829706Y-14155127D01*
X12124944Y-14097984D02*
X12029706Y-14097984D01*
X12029706Y-14097984D02*
X12020182Y-14193222D01*
X12020182Y-14193222D02*
X12029706Y-14183698D01*
X12029706Y-14183698D02*
X12048753Y-14174174D01*
X12048753Y-14174174D02*
X12096372Y-14174174D01*
X12096372Y-14174174D02*
X12115420Y-14183698D01*
X12115420Y-14183698D02*
X12124944Y-14193222D01*
X12124944Y-14193222D02*
X12134467Y-14212269D01*
X12134467Y-14212269D02*
X12134467Y-14259888D01*
X12134467Y-14259888D02*
X12124944Y-14278936D01*
X12124944Y-14278936D02*
X12115420Y-14288460D01*
X12115420Y-14288460D02*
X12096372Y-14297984D01*
X12096372Y-14297984D02*
X12048753Y-14297984D01*
X12048753Y-14297984D02*
X12029706Y-14288460D01*
X12029706Y-14288460D02*
X12020182Y-14278936D01*
X12201134Y-14097984D02*
X12334467Y-14097984D01*
X12334467Y-14097984D02*
X12248753Y-14297984D01*
X12401134Y-14097984D02*
X12401134Y-14136079D01*
X12477325Y-14097984D02*
X12477325Y-14136079D01*
X12772563Y-14374174D02*
X12763039Y-14364650D01*
X12763039Y-14364650D02*
X12743991Y-14336079D01*
X12743991Y-14336079D02*
X12734468Y-14317031D01*
X12734468Y-14317031D02*
X12724944Y-14288460D01*
X12724944Y-14288460D02*
X12715420Y-14240841D01*
X12715420Y-14240841D02*
X12715420Y-14202746D01*
X12715420Y-14202746D02*
X12724944Y-14155127D01*
X12724944Y-14155127D02*
X12734468Y-14126555D01*
X12734468Y-14126555D02*
X12743991Y-14107508D01*
X12743991Y-14107508D02*
X12763039Y-14078936D01*
X12763039Y-14078936D02*
X12772563Y-14069412D01*
X12839229Y-14117031D02*
X12848753Y-14107508D01*
X12848753Y-14107508D02*
X12867801Y-14097984D01*
X12867801Y-14097984D02*
X12915420Y-14097984D01*
X12915420Y-14097984D02*
X12934468Y-14107508D01*
X12934468Y-14107508D02*
X12943991Y-14117031D01*
X12943991Y-14117031D02*
X12953515Y-14136079D01*
X12953515Y-14136079D02*
X12953515Y-14155127D01*
X12953515Y-14155127D02*
X12943991Y-14183698D01*
X12943991Y-14183698D02*
X12829706Y-14297984D01*
X12829706Y-14297984D02*
X12953515Y-14297984D01*
X13191610Y-14297984D02*
X13191610Y-14097984D01*
X13277325Y-14297984D02*
X13277325Y-14193222D01*
X13277325Y-14193222D02*
X13267801Y-14174174D01*
X13267801Y-14174174D02*
X13248753Y-14164650D01*
X13248753Y-14164650D02*
X13220182Y-14164650D01*
X13220182Y-14164650D02*
X13201134Y-14174174D01*
X13201134Y-14174174D02*
X13191610Y-14183698D01*
X13401134Y-14297984D02*
X13382087Y-14288460D01*
X13382087Y-14288460D02*
X13372563Y-14278936D01*
X13372563Y-14278936D02*
X13363039Y-14259888D01*
X13363039Y-14259888D02*
X13363039Y-14202746D01*
X13363039Y-14202746D02*
X13372563Y-14183698D01*
X13372563Y-14183698D02*
X13382087Y-14174174D01*
X13382087Y-14174174D02*
X13401134Y-14164650D01*
X13401134Y-14164650D02*
X13429706Y-14164650D01*
X13429706Y-14164650D02*
X13448753Y-14174174D01*
X13448753Y-14174174D02*
X13458277Y-14183698D01*
X13458277Y-14183698D02*
X13467801Y-14202746D01*
X13467801Y-14202746D02*
X13467801Y-14259888D01*
X13467801Y-14259888D02*
X13458277Y-14278936D01*
X13458277Y-14278936D02*
X13448753Y-14288460D01*
X13448753Y-14288460D02*
X13429706Y-14297984D01*
X13429706Y-14297984D02*
X13401134Y-14297984D01*
X13582087Y-14297984D02*
X13563039Y-14288460D01*
X13563039Y-14288460D02*
X13553515Y-14269412D01*
X13553515Y-14269412D02*
X13553515Y-14097984D01*
X13734468Y-14288460D02*
X13715420Y-14297984D01*
X13715420Y-14297984D02*
X13677325Y-14297984D01*
X13677325Y-14297984D02*
X13658277Y-14288460D01*
X13658277Y-14288460D02*
X13648753Y-14269412D01*
X13648753Y-14269412D02*
X13648753Y-14193222D01*
X13648753Y-14193222D02*
X13658277Y-14174174D01*
X13658277Y-14174174D02*
X13677325Y-14164650D01*
X13677325Y-14164650D02*
X13715420Y-14164650D01*
X13715420Y-14164650D02*
X13734468Y-14174174D01*
X13734468Y-14174174D02*
X13743991Y-14193222D01*
X13743991Y-14193222D02*
X13743991Y-14212269D01*
X13743991Y-14212269D02*
X13648753Y-14231317D01*
X13820182Y-14288460D02*
X13839230Y-14297984D01*
X13839230Y-14297984D02*
X13877325Y-14297984D01*
X13877325Y-14297984D02*
X13896372Y-14288460D01*
X13896372Y-14288460D02*
X13905896Y-14269412D01*
X13905896Y-14269412D02*
X13905896Y-14259888D01*
X13905896Y-14259888D02*
X13896372Y-14240841D01*
X13896372Y-14240841D02*
X13877325Y-14231317D01*
X13877325Y-14231317D02*
X13848753Y-14231317D01*
X13848753Y-14231317D02*
X13829706Y-14221793D01*
X13829706Y-14221793D02*
X13820182Y-14202746D01*
X13820182Y-14202746D02*
X13820182Y-14193222D01*
X13820182Y-14193222D02*
X13829706Y-14174174D01*
X13829706Y-14174174D02*
X13848753Y-14164650D01*
X13848753Y-14164650D02*
X13877325Y-14164650D01*
X13877325Y-14164650D02*
X13896372Y-14174174D01*
X13972563Y-14374174D02*
X13982087Y-14364650D01*
X13982087Y-14364650D02*
X14001134Y-14336079D01*
X14001134Y-14336079D02*
X14010658Y-14317031D01*
X14010658Y-14317031D02*
X14020182Y-14288460D01*
X14020182Y-14288460D02*
X14029706Y-14240841D01*
X14029706Y-14240841D02*
X14029706Y-14202746D01*
X14029706Y-14202746D02*
X14020182Y-14155127D01*
X14020182Y-14155127D02*
X14010658Y-14126555D01*
X14010658Y-14126555D02*
X14001134Y-14107508D01*
X14001134Y-14107508D02*
X13982087Y-14078936D01*
X13982087Y-14078936D02*
X13972563Y-14069412D01*
D12*
X9167500Y-14440500D02*
X9167500Y-14500500D01*
X9137500Y-14470500D02*
X9197500Y-14470500D01*
D11*
X9496372Y-14361984D02*
X9515420Y-14361984D01*
X9515420Y-14361984D02*
X9534467Y-14371508D01*
X9534467Y-14371508D02*
X9543991Y-14381031D01*
X9543991Y-14381031D02*
X9553515Y-14400079D01*
X9553515Y-14400079D02*
X9563039Y-14438174D01*
X9563039Y-14438174D02*
X9563039Y-14485793D01*
X9563039Y-14485793D02*
X9553515Y-14523888D01*
X9553515Y-14523888D02*
X9543991Y-14542936D01*
X9543991Y-14542936D02*
X9534467Y-14552460D01*
X9534467Y-14552460D02*
X9515420Y-14561984D01*
X9515420Y-14561984D02*
X9496372Y-14561984D01*
X9496372Y-14561984D02*
X9477324Y-14552460D01*
X9477324Y-14552460D02*
X9467801Y-14542936D01*
X9467801Y-14542936D02*
X9458277Y-14523888D01*
X9458277Y-14523888D02*
X9448753Y-14485793D01*
X9448753Y-14485793D02*
X9448753Y-14438174D01*
X9448753Y-14438174D02*
X9458277Y-14400079D01*
X9458277Y-14400079D02*
X9467801Y-14381031D01*
X9467801Y-14381031D02*
X9477324Y-14371508D01*
X9477324Y-14371508D02*
X9496372Y-14361984D01*
X9648753Y-14542936D02*
X9658277Y-14552460D01*
X9658277Y-14552460D02*
X9648753Y-14561984D01*
X9648753Y-14561984D02*
X9639229Y-14552460D01*
X9639229Y-14552460D02*
X9648753Y-14542936D01*
X9648753Y-14542936D02*
X9648753Y-14561984D01*
X9829705Y-14361984D02*
X9791610Y-14361984D01*
X9791610Y-14361984D02*
X9772563Y-14371508D01*
X9772563Y-14371508D02*
X9763039Y-14381031D01*
X9763039Y-14381031D02*
X9743991Y-14409603D01*
X9743991Y-14409603D02*
X9734467Y-14447698D01*
X9734467Y-14447698D02*
X9734467Y-14523888D01*
X9734467Y-14523888D02*
X9743991Y-14542936D01*
X9743991Y-14542936D02*
X9753515Y-14552460D01*
X9753515Y-14552460D02*
X9772563Y-14561984D01*
X9772563Y-14561984D02*
X9810658Y-14561984D01*
X9810658Y-14561984D02*
X9829705Y-14552460D01*
X9829705Y-14552460D02*
X9839229Y-14542936D01*
X9839229Y-14542936D02*
X9848753Y-14523888D01*
X9848753Y-14523888D02*
X9848753Y-14476269D01*
X9848753Y-14476269D02*
X9839229Y-14457222D01*
X9839229Y-14457222D02*
X9829705Y-14447698D01*
X9829705Y-14447698D02*
X9810658Y-14438174D01*
X9810658Y-14438174D02*
X9772563Y-14438174D01*
X9772563Y-14438174D02*
X9753515Y-14447698D01*
X9753515Y-14447698D02*
X9743991Y-14457222D01*
X9743991Y-14457222D02*
X9734467Y-14476269D01*
X9972563Y-14361984D02*
X9991610Y-14361984D01*
X9991610Y-14361984D02*
X10010658Y-14371508D01*
X10010658Y-14371508D02*
X10020182Y-14381031D01*
X10020182Y-14381031D02*
X10029705Y-14400079D01*
X10029705Y-14400079D02*
X10039229Y-14438174D01*
X10039229Y-14438174D02*
X10039229Y-14485793D01*
X10039229Y-14485793D02*
X10029705Y-14523888D01*
X10029705Y-14523888D02*
X10020182Y-14542936D01*
X10020182Y-14542936D02*
X10010658Y-14552460D01*
X10010658Y-14552460D02*
X9991610Y-14561984D01*
X9991610Y-14561984D02*
X9972563Y-14561984D01*
X9972563Y-14561984D02*
X9953515Y-14552460D01*
X9953515Y-14552460D02*
X9943991Y-14542936D01*
X9943991Y-14542936D02*
X9934467Y-14523888D01*
X9934467Y-14523888D02*
X9924944Y-14485793D01*
X9924944Y-14485793D02*
X9924944Y-14438174D01*
X9924944Y-14438174D02*
X9934467Y-14400079D01*
X9934467Y-14400079D02*
X9943991Y-14381031D01*
X9943991Y-14381031D02*
X9953515Y-14371508D01*
X9953515Y-14371508D02*
X9972563Y-14361984D01*
X10163039Y-14361984D02*
X10182086Y-14361984D01*
X10182086Y-14361984D02*
X10201134Y-14371508D01*
X10201134Y-14371508D02*
X10210658Y-14381031D01*
X10210658Y-14381031D02*
X10220182Y-14400079D01*
X10220182Y-14400079D02*
X10229705Y-14438174D01*
X10229705Y-14438174D02*
X10229705Y-14485793D01*
X10229705Y-14485793D02*
X10220182Y-14523888D01*
X10220182Y-14523888D02*
X10210658Y-14542936D01*
X10210658Y-14542936D02*
X10201134Y-14552460D01*
X10201134Y-14552460D02*
X10182086Y-14561984D01*
X10182086Y-14561984D02*
X10163039Y-14561984D01*
X10163039Y-14561984D02*
X10143991Y-14552460D01*
X10143991Y-14552460D02*
X10134467Y-14542936D01*
X10134467Y-14542936D02*
X10124944Y-14523888D01*
X10124944Y-14523888D02*
X10115420Y-14485793D01*
X10115420Y-14485793D02*
X10115420Y-14438174D01*
X10115420Y-14438174D02*
X10124944Y-14400079D01*
X10124944Y-14400079D02*
X10134467Y-14381031D01*
X10134467Y-14381031D02*
X10143991Y-14371508D01*
X10143991Y-14371508D02*
X10163039Y-14361984D01*
X10315420Y-14561984D02*
X10315420Y-14428650D01*
X10315420Y-14447698D02*
X10324944Y-14438174D01*
X10324944Y-14438174D02*
X10343991Y-14428650D01*
X10343991Y-14428650D02*
X10372563Y-14428650D01*
X10372563Y-14428650D02*
X10391610Y-14438174D01*
X10391610Y-14438174D02*
X10401134Y-14457222D01*
X10401134Y-14457222D02*
X10401134Y-14561984D01*
X10401134Y-14457222D02*
X10410658Y-14438174D01*
X10410658Y-14438174D02*
X10429705Y-14428650D01*
X10429705Y-14428650D02*
X10458277Y-14428650D01*
X10458277Y-14428650D02*
X10477325Y-14438174D01*
X10477325Y-14438174D02*
X10486848Y-14457222D01*
X10486848Y-14457222D02*
X10486848Y-14561984D01*
X10582086Y-14561984D02*
X10582086Y-14428650D01*
X10582086Y-14447698D02*
X10591610Y-14438174D01*
X10591610Y-14438174D02*
X10610658Y-14428650D01*
X10610658Y-14428650D02*
X10639229Y-14428650D01*
X10639229Y-14428650D02*
X10658277Y-14438174D01*
X10658277Y-14438174D02*
X10667801Y-14457222D01*
X10667801Y-14457222D02*
X10667801Y-14561984D01*
X10667801Y-14457222D02*
X10677325Y-14438174D01*
X10677325Y-14438174D02*
X10696372Y-14428650D01*
X10696372Y-14428650D02*
X10724944Y-14428650D01*
X10724944Y-14428650D02*
X10743991Y-14438174D01*
X10743991Y-14438174D02*
X10753515Y-14457222D01*
X10753515Y-14457222D02*
X10753515Y-14561984D01*
X11143991Y-14352460D02*
X10972563Y-14609603D01*
X11401134Y-14361984D02*
X11420182Y-14361984D01*
X11420182Y-14361984D02*
X11439229Y-14371508D01*
X11439229Y-14371508D02*
X11448753Y-14381031D01*
X11448753Y-14381031D02*
X11458277Y-14400079D01*
X11458277Y-14400079D02*
X11467801Y-14438174D01*
X11467801Y-14438174D02*
X11467801Y-14485793D01*
X11467801Y-14485793D02*
X11458277Y-14523888D01*
X11458277Y-14523888D02*
X11448753Y-14542936D01*
X11448753Y-14542936D02*
X11439229Y-14552460D01*
X11439229Y-14552460D02*
X11420182Y-14561984D01*
X11420182Y-14561984D02*
X11401134Y-14561984D01*
X11401134Y-14561984D02*
X11382086Y-14552460D01*
X11382086Y-14552460D02*
X11372563Y-14542936D01*
X11372563Y-14542936D02*
X11363039Y-14523888D01*
X11363039Y-14523888D02*
X11353515Y-14485793D01*
X11353515Y-14485793D02*
X11353515Y-14438174D01*
X11353515Y-14438174D02*
X11363039Y-14400079D01*
X11363039Y-14400079D02*
X11372563Y-14381031D01*
X11372563Y-14381031D02*
X11382086Y-14371508D01*
X11382086Y-14371508D02*
X11401134Y-14361984D01*
X11553515Y-14542936D02*
X11563039Y-14552460D01*
X11563039Y-14552460D02*
X11553515Y-14561984D01*
X11553515Y-14561984D02*
X11543991Y-14552460D01*
X11543991Y-14552460D02*
X11553515Y-14542936D01*
X11553515Y-14542936D02*
X11553515Y-14561984D01*
X11686848Y-14361984D02*
X11705896Y-14361984D01*
X11705896Y-14361984D02*
X11724944Y-14371508D01*
X11724944Y-14371508D02*
X11734467Y-14381031D01*
X11734467Y-14381031D02*
X11743991Y-14400079D01*
X11743991Y-14400079D02*
X11753515Y-14438174D01*
X11753515Y-14438174D02*
X11753515Y-14485793D01*
X11753515Y-14485793D02*
X11743991Y-14523888D01*
X11743991Y-14523888D02*
X11734467Y-14542936D01*
X11734467Y-14542936D02*
X11724944Y-14552460D01*
X11724944Y-14552460D02*
X11705896Y-14561984D01*
X11705896Y-14561984D02*
X11686848Y-14561984D01*
X11686848Y-14561984D02*
X11667801Y-14552460D01*
X11667801Y-14552460D02*
X11658277Y-14542936D01*
X11658277Y-14542936D02*
X11648753Y-14523888D01*
X11648753Y-14523888D02*
X11639229Y-14485793D01*
X11639229Y-14485793D02*
X11639229Y-14438174D01*
X11639229Y-14438174D02*
X11648753Y-14400079D01*
X11648753Y-14400079D02*
X11658277Y-14381031D01*
X11658277Y-14381031D02*
X11667801Y-14371508D01*
X11667801Y-14371508D02*
X11686848Y-14361984D01*
X11829706Y-14381031D02*
X11839229Y-14371508D01*
X11839229Y-14371508D02*
X11858277Y-14361984D01*
X11858277Y-14361984D02*
X11905896Y-14361984D01*
X11905896Y-14361984D02*
X11924944Y-14371508D01*
X11924944Y-14371508D02*
X11934467Y-14381031D01*
X11934467Y-14381031D02*
X11943991Y-14400079D01*
X11943991Y-14400079D02*
X11943991Y-14419127D01*
X11943991Y-14419127D02*
X11934467Y-14447698D01*
X11934467Y-14447698D02*
X11820182Y-14561984D01*
X11820182Y-14561984D02*
X11943991Y-14561984D01*
X12010658Y-14361984D02*
X12134467Y-14361984D01*
X12134467Y-14361984D02*
X12067801Y-14438174D01*
X12067801Y-14438174D02*
X12096372Y-14438174D01*
X12096372Y-14438174D02*
X12115420Y-14447698D01*
X12115420Y-14447698D02*
X12124944Y-14457222D01*
X12124944Y-14457222D02*
X12134467Y-14476269D01*
X12134467Y-14476269D02*
X12134467Y-14523888D01*
X12134467Y-14523888D02*
X12124944Y-14542936D01*
X12124944Y-14542936D02*
X12115420Y-14552460D01*
X12115420Y-14552460D02*
X12096372Y-14561984D01*
X12096372Y-14561984D02*
X12039229Y-14561984D01*
X12039229Y-14561984D02*
X12020182Y-14552460D01*
X12020182Y-14552460D02*
X12010658Y-14542936D01*
X12305896Y-14361984D02*
X12267801Y-14361984D01*
X12267801Y-14361984D02*
X12248753Y-14371508D01*
X12248753Y-14371508D02*
X12239229Y-14381031D01*
X12239229Y-14381031D02*
X12220182Y-14409603D01*
X12220182Y-14409603D02*
X12210658Y-14447698D01*
X12210658Y-14447698D02*
X12210658Y-14523888D01*
X12210658Y-14523888D02*
X12220182Y-14542936D01*
X12220182Y-14542936D02*
X12229706Y-14552460D01*
X12229706Y-14552460D02*
X12248753Y-14561984D01*
X12248753Y-14561984D02*
X12286848Y-14561984D01*
X12286848Y-14561984D02*
X12305896Y-14552460D01*
X12305896Y-14552460D02*
X12315420Y-14542936D01*
X12315420Y-14542936D02*
X12324944Y-14523888D01*
X12324944Y-14523888D02*
X12324944Y-14476269D01*
X12324944Y-14476269D02*
X12315420Y-14457222D01*
X12315420Y-14457222D02*
X12305896Y-14447698D01*
X12305896Y-14447698D02*
X12286848Y-14438174D01*
X12286848Y-14438174D02*
X12248753Y-14438174D01*
X12248753Y-14438174D02*
X12229706Y-14447698D01*
X12229706Y-14447698D02*
X12220182Y-14457222D01*
X12220182Y-14457222D02*
X12210658Y-14476269D01*
X12401134Y-14361984D02*
X12401134Y-14400079D01*
X12477325Y-14361984D02*
X12477325Y-14400079D01*
X12772563Y-14638174D02*
X12763039Y-14628650D01*
X12763039Y-14628650D02*
X12743991Y-14600079D01*
X12743991Y-14600079D02*
X12734468Y-14581031D01*
X12734468Y-14581031D02*
X12724944Y-14552460D01*
X12724944Y-14552460D02*
X12715420Y-14504841D01*
X12715420Y-14504841D02*
X12715420Y-14466746D01*
X12715420Y-14466746D02*
X12724944Y-14419127D01*
X12724944Y-14419127D02*
X12734468Y-14390555D01*
X12734468Y-14390555D02*
X12743991Y-14371508D01*
X12743991Y-14371508D02*
X12763039Y-14342936D01*
X12763039Y-14342936D02*
X12772563Y-14333412D01*
X12886848Y-14361984D02*
X12905896Y-14361984D01*
X12905896Y-14361984D02*
X12924944Y-14371508D01*
X12924944Y-14371508D02*
X12934468Y-14381031D01*
X12934468Y-14381031D02*
X12943991Y-14400079D01*
X12943991Y-14400079D02*
X12953515Y-14438174D01*
X12953515Y-14438174D02*
X12953515Y-14485793D01*
X12953515Y-14485793D02*
X12943991Y-14523888D01*
X12943991Y-14523888D02*
X12934468Y-14542936D01*
X12934468Y-14542936D02*
X12924944Y-14552460D01*
X12924944Y-14552460D02*
X12905896Y-14561984D01*
X12905896Y-14561984D02*
X12886848Y-14561984D01*
X12886848Y-14561984D02*
X12867801Y-14552460D01*
X12867801Y-14552460D02*
X12858277Y-14542936D01*
X12858277Y-14542936D02*
X12848753Y-14523888D01*
X12848753Y-14523888D02*
X12839229Y-14485793D01*
X12839229Y-14485793D02*
X12839229Y-14438174D01*
X12839229Y-14438174D02*
X12848753Y-14400079D01*
X12848753Y-14400079D02*
X12858277Y-14381031D01*
X12858277Y-14381031D02*
X12867801Y-14371508D01*
X12867801Y-14371508D02*
X12886848Y-14361984D01*
X13191610Y-14561984D02*
X13191610Y-14361984D01*
X13277325Y-14561984D02*
X13277325Y-14457222D01*
X13277325Y-14457222D02*
X13267801Y-14438174D01*
X13267801Y-14438174D02*
X13248753Y-14428650D01*
X13248753Y-14428650D02*
X13220182Y-14428650D01*
X13220182Y-14428650D02*
X13201134Y-14438174D01*
X13201134Y-14438174D02*
X13191610Y-14447698D01*
X13401134Y-14561984D02*
X13382087Y-14552460D01*
X13382087Y-14552460D02*
X13372563Y-14542936D01*
X13372563Y-14542936D02*
X13363039Y-14523888D01*
X13363039Y-14523888D02*
X13363039Y-14466746D01*
X13363039Y-14466746D02*
X13372563Y-14447698D01*
X13372563Y-14447698D02*
X13382087Y-14438174D01*
X13382087Y-14438174D02*
X13401134Y-14428650D01*
X13401134Y-14428650D02*
X13429706Y-14428650D01*
X13429706Y-14428650D02*
X13448753Y-14438174D01*
X13448753Y-14438174D02*
X13458277Y-14447698D01*
X13458277Y-14447698D02*
X13467801Y-14466746D01*
X13467801Y-14466746D02*
X13467801Y-14523888D01*
X13467801Y-14523888D02*
X13458277Y-14542936D01*
X13458277Y-14542936D02*
X13448753Y-14552460D01*
X13448753Y-14552460D02*
X13429706Y-14561984D01*
X13429706Y-14561984D02*
X13401134Y-14561984D01*
X13582087Y-14561984D02*
X13563039Y-14552460D01*
X13563039Y-14552460D02*
X13553515Y-14533412D01*
X13553515Y-14533412D02*
X13553515Y-14361984D01*
X13734468Y-14552460D02*
X13715420Y-14561984D01*
X13715420Y-14561984D02*
X13677325Y-14561984D01*
X13677325Y-14561984D02*
X13658277Y-14552460D01*
X13658277Y-14552460D02*
X13648753Y-14533412D01*
X13648753Y-14533412D02*
X13648753Y-14457222D01*
X13648753Y-14457222D02*
X13658277Y-14438174D01*
X13658277Y-14438174D02*
X13677325Y-14428650D01*
X13677325Y-14428650D02*
X13715420Y-14428650D01*
X13715420Y-14428650D02*
X13734468Y-14438174D01*
X13734468Y-14438174D02*
X13743991Y-14457222D01*
X13743991Y-14457222D02*
X13743991Y-14476269D01*
X13743991Y-14476269D02*
X13648753Y-14495317D01*
X13820182Y-14552460D02*
X13839230Y-14561984D01*
X13839230Y-14561984D02*
X13877325Y-14561984D01*
X13877325Y-14561984D02*
X13896372Y-14552460D01*
X13896372Y-14552460D02*
X13905896Y-14533412D01*
X13905896Y-14533412D02*
X13905896Y-14523888D01*
X13905896Y-14523888D02*
X13896372Y-14504841D01*
X13896372Y-14504841D02*
X13877325Y-14495317D01*
X13877325Y-14495317D02*
X13848753Y-14495317D01*
X13848753Y-14495317D02*
X13829706Y-14485793D01*
X13829706Y-14485793D02*
X13820182Y-14466746D01*
X13820182Y-14466746D02*
X13820182Y-14457222D01*
X13820182Y-14457222D02*
X13829706Y-14438174D01*
X13829706Y-14438174D02*
X13848753Y-14428650D01*
X13848753Y-14428650D02*
X13877325Y-14428650D01*
X13877325Y-14428650D02*
X13896372Y-14438174D01*
X14143992Y-14485793D02*
X14296373Y-14485793D01*
X14220182Y-14561984D02*
X14220182Y-14409603D01*
X14629706Y-14428650D02*
X14629706Y-14561984D01*
X14582087Y-14352460D02*
X14534468Y-14495317D01*
X14534468Y-14495317D02*
X14658277Y-14495317D01*
X14877325Y-14552460D02*
X14896373Y-14561984D01*
X14896373Y-14561984D02*
X14934468Y-14561984D01*
X14934468Y-14561984D02*
X14953515Y-14552460D01*
X14953515Y-14552460D02*
X14963039Y-14533412D01*
X14963039Y-14533412D02*
X14963039Y-14523888D01*
X14963039Y-14523888D02*
X14953515Y-14504841D01*
X14953515Y-14504841D02*
X14934468Y-14495317D01*
X14934468Y-14495317D02*
X14905896Y-14495317D01*
X14905896Y-14495317D02*
X14886849Y-14485793D01*
X14886849Y-14485793D02*
X14877325Y-14466746D01*
X14877325Y-14466746D02*
X14877325Y-14457222D01*
X14877325Y-14457222D02*
X14886849Y-14438174D01*
X14886849Y-14438174D02*
X14905896Y-14428650D01*
X14905896Y-14428650D02*
X14934468Y-14428650D01*
X14934468Y-14428650D02*
X14953515Y-14438174D01*
X15077325Y-14561984D02*
X15058277Y-14552460D01*
X15058277Y-14552460D02*
X15048754Y-14533412D01*
X15048754Y-14533412D02*
X15048754Y-14361984D01*
X15182087Y-14561984D02*
X15163039Y-14552460D01*
X15163039Y-14552460D02*
X15153515Y-14542936D01*
X15153515Y-14542936D02*
X15143992Y-14523888D01*
X15143992Y-14523888D02*
X15143992Y-14466746D01*
X15143992Y-14466746D02*
X15153515Y-14447698D01*
X15153515Y-14447698D02*
X15163039Y-14438174D01*
X15163039Y-14438174D02*
X15182087Y-14428650D01*
X15182087Y-14428650D02*
X15210658Y-14428650D01*
X15210658Y-14428650D02*
X15229706Y-14438174D01*
X15229706Y-14438174D02*
X15239230Y-14447698D01*
X15239230Y-14447698D02*
X15248754Y-14466746D01*
X15248754Y-14466746D02*
X15248754Y-14523888D01*
X15248754Y-14523888D02*
X15239230Y-14542936D01*
X15239230Y-14542936D02*
X15229706Y-14552460D01*
X15229706Y-14552460D02*
X15210658Y-14561984D01*
X15210658Y-14561984D02*
X15182087Y-14561984D01*
X15305896Y-14428650D02*
X15382087Y-14428650D01*
X15334468Y-14361984D02*
X15334468Y-14533412D01*
X15334468Y-14533412D02*
X15343992Y-14552460D01*
X15343992Y-14552460D02*
X15363039Y-14561984D01*
X15363039Y-14561984D02*
X15382087Y-14561984D01*
X15439230Y-14552460D02*
X15458277Y-14561984D01*
X15458277Y-14561984D02*
X15496373Y-14561984D01*
X15496373Y-14561984D02*
X15515420Y-14552460D01*
X15515420Y-14552460D02*
X15524944Y-14533412D01*
X15524944Y-14533412D02*
X15524944Y-14523888D01*
X15524944Y-14523888D02*
X15515420Y-14504841D01*
X15515420Y-14504841D02*
X15496373Y-14495317D01*
X15496373Y-14495317D02*
X15467801Y-14495317D01*
X15467801Y-14495317D02*
X15448754Y-14485793D01*
X15448754Y-14485793D02*
X15439230Y-14466746D01*
X15439230Y-14466746D02*
X15439230Y-14457222D01*
X15439230Y-14457222D02*
X15448754Y-14438174D01*
X15448754Y-14438174D02*
X15467801Y-14428650D01*
X15467801Y-14428650D02*
X15496373Y-14428650D01*
X15496373Y-14428650D02*
X15515420Y-14438174D01*
X15591611Y-14638174D02*
X15601135Y-14628650D01*
X15601135Y-14628650D02*
X15620182Y-14600079D01*
X15620182Y-14600079D02*
X15629706Y-14581031D01*
X15629706Y-14581031D02*
X15639230Y-14552460D01*
X15639230Y-14552460D02*
X15648754Y-14504841D01*
X15648754Y-14504841D02*
X15648754Y-14466746D01*
X15648754Y-14466746D02*
X15639230Y-14419127D01*
X15639230Y-14419127D02*
X15629706Y-14390555D01*
X15629706Y-14390555D02*
X15620182Y-14371508D01*
X15620182Y-14371508D02*
X15601135Y-14342936D01*
X15601135Y-14342936D02*
X15591611Y-14333412D01*
D13*
X9181391Y-14773391D02*
X9181391Y-14695609D01*
X9103609Y-14695609D01*
X9103609Y-14773391D01*
X9181391Y-14773391D01*
D11*
X9563039Y-14825984D02*
X9448753Y-14825984D01*
X9505896Y-14825984D02*
X9505896Y-14625984D01*
X9505896Y-14625984D02*
X9486848Y-14654555D01*
X9486848Y-14654555D02*
X9467801Y-14673603D01*
X9467801Y-14673603D02*
X9448753Y-14683127D01*
X9648753Y-14806936D02*
X9658277Y-14816460D01*
X9658277Y-14816460D02*
X9648753Y-14825984D01*
X9648753Y-14825984D02*
X9639229Y-14816460D01*
X9639229Y-14816460D02*
X9648753Y-14806936D01*
X9648753Y-14806936D02*
X9648753Y-14825984D01*
X9848753Y-14825984D02*
X9734467Y-14825984D01*
X9791610Y-14825984D02*
X9791610Y-14625984D01*
X9791610Y-14625984D02*
X9772563Y-14654555D01*
X9772563Y-14654555D02*
X9753515Y-14673603D01*
X9753515Y-14673603D02*
X9734467Y-14683127D01*
X9972563Y-14625984D02*
X9991610Y-14625984D01*
X9991610Y-14625984D02*
X10010658Y-14635508D01*
X10010658Y-14635508D02*
X10020182Y-14645031D01*
X10020182Y-14645031D02*
X10029705Y-14664079D01*
X10029705Y-14664079D02*
X10039229Y-14702174D01*
X10039229Y-14702174D02*
X10039229Y-14749793D01*
X10039229Y-14749793D02*
X10029705Y-14787888D01*
X10029705Y-14787888D02*
X10020182Y-14806936D01*
X10020182Y-14806936D02*
X10010658Y-14816460D01*
X10010658Y-14816460D02*
X9991610Y-14825984D01*
X9991610Y-14825984D02*
X9972563Y-14825984D01*
X9972563Y-14825984D02*
X9953515Y-14816460D01*
X9953515Y-14816460D02*
X9943991Y-14806936D01*
X9943991Y-14806936D02*
X9934467Y-14787888D01*
X9934467Y-14787888D02*
X9924944Y-14749793D01*
X9924944Y-14749793D02*
X9924944Y-14702174D01*
X9924944Y-14702174D02*
X9934467Y-14664079D01*
X9934467Y-14664079D02*
X9943991Y-14645031D01*
X9943991Y-14645031D02*
X9953515Y-14635508D01*
X9953515Y-14635508D02*
X9972563Y-14625984D01*
X10163039Y-14625984D02*
X10182086Y-14625984D01*
X10182086Y-14625984D02*
X10201134Y-14635508D01*
X10201134Y-14635508D02*
X10210658Y-14645031D01*
X10210658Y-14645031D02*
X10220182Y-14664079D01*
X10220182Y-14664079D02*
X10229705Y-14702174D01*
X10229705Y-14702174D02*
X10229705Y-14749793D01*
X10229705Y-14749793D02*
X10220182Y-14787888D01*
X10220182Y-14787888D02*
X10210658Y-14806936D01*
X10210658Y-14806936D02*
X10201134Y-14816460D01*
X10201134Y-14816460D02*
X10182086Y-14825984D01*
X10182086Y-14825984D02*
X10163039Y-14825984D01*
X10163039Y-14825984D02*
X10143991Y-14816460D01*
X10143991Y-14816460D02*
X10134467Y-14806936D01*
X10134467Y-14806936D02*
X10124944Y-14787888D01*
X10124944Y-14787888D02*
X10115420Y-14749793D01*
X10115420Y-14749793D02*
X10115420Y-14702174D01*
X10115420Y-14702174D02*
X10124944Y-14664079D01*
X10124944Y-14664079D02*
X10134467Y-14645031D01*
X10134467Y-14645031D02*
X10143991Y-14635508D01*
X10143991Y-14635508D02*
X10163039Y-14625984D01*
X10315420Y-14825984D02*
X10315420Y-14692650D01*
X10315420Y-14711698D02*
X10324944Y-14702174D01*
X10324944Y-14702174D02*
X10343991Y-14692650D01*
X10343991Y-14692650D02*
X10372563Y-14692650D01*
X10372563Y-14692650D02*
X10391610Y-14702174D01*
X10391610Y-14702174D02*
X10401134Y-14721222D01*
X10401134Y-14721222D02*
X10401134Y-14825984D01*
X10401134Y-14721222D02*
X10410658Y-14702174D01*
X10410658Y-14702174D02*
X10429705Y-14692650D01*
X10429705Y-14692650D02*
X10458277Y-14692650D01*
X10458277Y-14692650D02*
X10477325Y-14702174D01*
X10477325Y-14702174D02*
X10486848Y-14721222D01*
X10486848Y-14721222D02*
X10486848Y-14825984D01*
X10582086Y-14825984D02*
X10582086Y-14692650D01*
X10582086Y-14711698D02*
X10591610Y-14702174D01*
X10591610Y-14702174D02*
X10610658Y-14692650D01*
X10610658Y-14692650D02*
X10639229Y-14692650D01*
X10639229Y-14692650D02*
X10658277Y-14702174D01*
X10658277Y-14702174D02*
X10667801Y-14721222D01*
X10667801Y-14721222D02*
X10667801Y-14825984D01*
X10667801Y-14721222D02*
X10677325Y-14702174D01*
X10677325Y-14702174D02*
X10696372Y-14692650D01*
X10696372Y-14692650D02*
X10724944Y-14692650D01*
X10724944Y-14692650D02*
X10743991Y-14702174D01*
X10743991Y-14702174D02*
X10753515Y-14721222D01*
X10753515Y-14721222D02*
X10753515Y-14825984D01*
X11143991Y-14616460D02*
X10972563Y-14873603D01*
X11401134Y-14625984D02*
X11420182Y-14625984D01*
X11420182Y-14625984D02*
X11439229Y-14635508D01*
X11439229Y-14635508D02*
X11448753Y-14645031D01*
X11448753Y-14645031D02*
X11458277Y-14664079D01*
X11458277Y-14664079D02*
X11467801Y-14702174D01*
X11467801Y-14702174D02*
X11467801Y-14749793D01*
X11467801Y-14749793D02*
X11458277Y-14787888D01*
X11458277Y-14787888D02*
X11448753Y-14806936D01*
X11448753Y-14806936D02*
X11439229Y-14816460D01*
X11439229Y-14816460D02*
X11420182Y-14825984D01*
X11420182Y-14825984D02*
X11401134Y-14825984D01*
X11401134Y-14825984D02*
X11382086Y-14816460D01*
X11382086Y-14816460D02*
X11372563Y-14806936D01*
X11372563Y-14806936D02*
X11363039Y-14787888D01*
X11363039Y-14787888D02*
X11353515Y-14749793D01*
X11353515Y-14749793D02*
X11353515Y-14702174D01*
X11353515Y-14702174D02*
X11363039Y-14664079D01*
X11363039Y-14664079D02*
X11372563Y-14645031D01*
X11372563Y-14645031D02*
X11382086Y-14635508D01*
X11382086Y-14635508D02*
X11401134Y-14625984D01*
X11553515Y-14806936D02*
X11563039Y-14816460D01*
X11563039Y-14816460D02*
X11553515Y-14825984D01*
X11553515Y-14825984D02*
X11543991Y-14816460D01*
X11543991Y-14816460D02*
X11553515Y-14806936D01*
X11553515Y-14806936D02*
X11553515Y-14825984D01*
X11686848Y-14625984D02*
X11705896Y-14625984D01*
X11705896Y-14625984D02*
X11724944Y-14635508D01*
X11724944Y-14635508D02*
X11734467Y-14645031D01*
X11734467Y-14645031D02*
X11743991Y-14664079D01*
X11743991Y-14664079D02*
X11753515Y-14702174D01*
X11753515Y-14702174D02*
X11753515Y-14749793D01*
X11753515Y-14749793D02*
X11743991Y-14787888D01*
X11743991Y-14787888D02*
X11734467Y-14806936D01*
X11734467Y-14806936D02*
X11724944Y-14816460D01*
X11724944Y-14816460D02*
X11705896Y-14825984D01*
X11705896Y-14825984D02*
X11686848Y-14825984D01*
X11686848Y-14825984D02*
X11667801Y-14816460D01*
X11667801Y-14816460D02*
X11658277Y-14806936D01*
X11658277Y-14806936D02*
X11648753Y-14787888D01*
X11648753Y-14787888D02*
X11639229Y-14749793D01*
X11639229Y-14749793D02*
X11639229Y-14702174D01*
X11639229Y-14702174D02*
X11648753Y-14664079D01*
X11648753Y-14664079D02*
X11658277Y-14645031D01*
X11658277Y-14645031D02*
X11667801Y-14635508D01*
X11667801Y-14635508D02*
X11686848Y-14625984D01*
X11924944Y-14692650D02*
X11924944Y-14825984D01*
X11877325Y-14616460D02*
X11829706Y-14759317D01*
X11829706Y-14759317D02*
X11953515Y-14759317D01*
X12010658Y-14625984D02*
X12134467Y-14625984D01*
X12134467Y-14625984D02*
X12067801Y-14702174D01*
X12067801Y-14702174D02*
X12096372Y-14702174D01*
X12096372Y-14702174D02*
X12115420Y-14711698D01*
X12115420Y-14711698D02*
X12124944Y-14721222D01*
X12124944Y-14721222D02*
X12134467Y-14740269D01*
X12134467Y-14740269D02*
X12134467Y-14787888D01*
X12134467Y-14787888D02*
X12124944Y-14806936D01*
X12124944Y-14806936D02*
X12115420Y-14816460D01*
X12115420Y-14816460D02*
X12096372Y-14825984D01*
X12096372Y-14825984D02*
X12039229Y-14825984D01*
X12039229Y-14825984D02*
X12020182Y-14816460D01*
X12020182Y-14816460D02*
X12010658Y-14806936D01*
X12201134Y-14625984D02*
X12324944Y-14625984D01*
X12324944Y-14625984D02*
X12258277Y-14702174D01*
X12258277Y-14702174D02*
X12286848Y-14702174D01*
X12286848Y-14702174D02*
X12305896Y-14711698D01*
X12305896Y-14711698D02*
X12315420Y-14721222D01*
X12315420Y-14721222D02*
X12324944Y-14740269D01*
X12324944Y-14740269D02*
X12324944Y-14787888D01*
X12324944Y-14787888D02*
X12315420Y-14806936D01*
X12315420Y-14806936D02*
X12305896Y-14816460D01*
X12305896Y-14816460D02*
X12286848Y-14825984D01*
X12286848Y-14825984D02*
X12229706Y-14825984D01*
X12229706Y-14825984D02*
X12210658Y-14816460D01*
X12210658Y-14816460D02*
X12201134Y-14806936D01*
X12401134Y-14625984D02*
X12401134Y-14664079D01*
X12477325Y-14625984D02*
X12477325Y-14664079D01*
X12772563Y-14902174D02*
X12763039Y-14892650D01*
X12763039Y-14892650D02*
X12743991Y-14864079D01*
X12743991Y-14864079D02*
X12734468Y-14845031D01*
X12734468Y-14845031D02*
X12724944Y-14816460D01*
X12724944Y-14816460D02*
X12715420Y-14768841D01*
X12715420Y-14768841D02*
X12715420Y-14730746D01*
X12715420Y-14730746D02*
X12724944Y-14683127D01*
X12724944Y-14683127D02*
X12734468Y-14654555D01*
X12734468Y-14654555D02*
X12743991Y-14635508D01*
X12743991Y-14635508D02*
X12763039Y-14606936D01*
X12763039Y-14606936D02*
X12772563Y-14597412D01*
X12839229Y-14645031D02*
X12848753Y-14635508D01*
X12848753Y-14635508D02*
X12867801Y-14625984D01*
X12867801Y-14625984D02*
X12915420Y-14625984D01*
X12915420Y-14625984D02*
X12934468Y-14635508D01*
X12934468Y-14635508D02*
X12943991Y-14645031D01*
X12943991Y-14645031D02*
X12953515Y-14664079D01*
X12953515Y-14664079D02*
X12953515Y-14683127D01*
X12953515Y-14683127D02*
X12943991Y-14711698D01*
X12943991Y-14711698D02*
X12829706Y-14825984D01*
X12829706Y-14825984D02*
X12953515Y-14825984D01*
X13191610Y-14825984D02*
X13191610Y-14625984D01*
X13277325Y-14825984D02*
X13277325Y-14721222D01*
X13277325Y-14721222D02*
X13267801Y-14702174D01*
X13267801Y-14702174D02*
X13248753Y-14692650D01*
X13248753Y-14692650D02*
X13220182Y-14692650D01*
X13220182Y-14692650D02*
X13201134Y-14702174D01*
X13201134Y-14702174D02*
X13191610Y-14711698D01*
X13401134Y-14825984D02*
X13382087Y-14816460D01*
X13382087Y-14816460D02*
X13372563Y-14806936D01*
X13372563Y-14806936D02*
X13363039Y-14787888D01*
X13363039Y-14787888D02*
X13363039Y-14730746D01*
X13363039Y-14730746D02*
X13372563Y-14711698D01*
X13372563Y-14711698D02*
X13382087Y-14702174D01*
X13382087Y-14702174D02*
X13401134Y-14692650D01*
X13401134Y-14692650D02*
X13429706Y-14692650D01*
X13429706Y-14692650D02*
X13448753Y-14702174D01*
X13448753Y-14702174D02*
X13458277Y-14711698D01*
X13458277Y-14711698D02*
X13467801Y-14730746D01*
X13467801Y-14730746D02*
X13467801Y-14787888D01*
X13467801Y-14787888D02*
X13458277Y-14806936D01*
X13458277Y-14806936D02*
X13448753Y-14816460D01*
X13448753Y-14816460D02*
X13429706Y-14825984D01*
X13429706Y-14825984D02*
X13401134Y-14825984D01*
X13582087Y-14825984D02*
X13563039Y-14816460D01*
X13563039Y-14816460D02*
X13553515Y-14797412D01*
X13553515Y-14797412D02*
X13553515Y-14625984D01*
X13734468Y-14816460D02*
X13715420Y-14825984D01*
X13715420Y-14825984D02*
X13677325Y-14825984D01*
X13677325Y-14825984D02*
X13658277Y-14816460D01*
X13658277Y-14816460D02*
X13648753Y-14797412D01*
X13648753Y-14797412D02*
X13648753Y-14721222D01*
X13648753Y-14721222D02*
X13658277Y-14702174D01*
X13658277Y-14702174D02*
X13677325Y-14692650D01*
X13677325Y-14692650D02*
X13715420Y-14692650D01*
X13715420Y-14692650D02*
X13734468Y-14702174D01*
X13734468Y-14702174D02*
X13743991Y-14721222D01*
X13743991Y-14721222D02*
X13743991Y-14740269D01*
X13743991Y-14740269D02*
X13648753Y-14759317D01*
X13820182Y-14816460D02*
X13839230Y-14825984D01*
X13839230Y-14825984D02*
X13877325Y-14825984D01*
X13877325Y-14825984D02*
X13896372Y-14816460D01*
X13896372Y-14816460D02*
X13905896Y-14797412D01*
X13905896Y-14797412D02*
X13905896Y-14787888D01*
X13905896Y-14787888D02*
X13896372Y-14768841D01*
X13896372Y-14768841D02*
X13877325Y-14759317D01*
X13877325Y-14759317D02*
X13848753Y-14759317D01*
X13848753Y-14759317D02*
X13829706Y-14749793D01*
X13829706Y-14749793D02*
X13820182Y-14730746D01*
X13820182Y-14730746D02*
X13820182Y-14721222D01*
X13820182Y-14721222D02*
X13829706Y-14702174D01*
X13829706Y-14702174D02*
X13848753Y-14692650D01*
X13848753Y-14692650D02*
X13877325Y-14692650D01*
X13877325Y-14692650D02*
X13896372Y-14702174D01*
X13972563Y-14902174D02*
X13982087Y-14892650D01*
X13982087Y-14892650D02*
X14001134Y-14864079D01*
X14001134Y-14864079D02*
X14010658Y-14845031D01*
X14010658Y-14845031D02*
X14020182Y-14816460D01*
X14020182Y-14816460D02*
X14029706Y-14768841D01*
X14029706Y-14768841D02*
X14029706Y-14730746D01*
X14029706Y-14730746D02*
X14020182Y-14683127D01*
X14020182Y-14683127D02*
X14010658Y-14654555D01*
X14010658Y-14654555D02*
X14001134Y-14635508D01*
X14001134Y-14635508D02*
X13982087Y-14606936D01*
X13982087Y-14606936D02*
X13972563Y-14597412D01*
M02*
