%TF.GenerationSoftware,KiCad,Pcbnew,8.0.5-8.0.5-0~ubuntu24.04.1*%
%TF.CreationDate,2024-10-12T04:07:31+08:00*%
%TF.ProjectId,EL6170_Pro_Max_Plus,454c3631-3730-45f5-9072-6f5f4d61785f,rev?*%
%TF.SameCoordinates,Original*%
%TF.FileFunction,Paste,Top*%
%TF.FilePolarity,Positive*%
%FSLAX46Y46*%
G04 Gerber Fmt 4.6, Leading zero omitted, Abs format (unit mm)*
G04 Created by KiCad (PCBNEW 8.0.5-8.0.5-0~ubuntu24.04.1) date 2024-10-12 04:07:31*
%MOMM*%
%LPD*%
G01*
G04 APERTURE LIST*
G04 Aperture macros list*
%AMRoundRect*
0 Rectangle with rounded corners*
0 $1 Rounding radius*
0 $2 $3 $4 $5 $6 $7 $8 $9 X,Y pos of 4 corners*
0 Add a 4 corners polygon primitive as box body*
4,1,4,$2,$3,$4,$5,$6,$7,$8,$9,$2,$3,0*
0 Add four circle primitives for the rounded corners*
1,1,$1+$1,$2,$3*
1,1,$1+$1,$4,$5*
1,1,$1+$1,$6,$7*
1,1,$1+$1,$8,$9*
0 Add four rect primitives between the rounded corners*
20,1,$1+$1,$2,$3,$4,$5,0*
20,1,$1+$1,$4,$5,$6,$7,0*
20,1,$1+$1,$6,$7,$8,$9,0*
20,1,$1+$1,$8,$9,$2,$3,0*%
G04 Aperture macros list end*
%ADD10C,0.100000*%
%ADD11C,0.150000*%
%ADD12C,0.040000*%
%ADD13RoundRect,0.140000X0.140000X0.170000X-0.140000X0.170000X-0.140000X-0.170000X0.140000X-0.170000X0*%
%ADD14RoundRect,0.135000X0.135000X0.185000X-0.135000X0.185000X-0.135000X-0.185000X0.135000X-0.185000X0*%
%ADD15RoundRect,0.200000X0.200000X0.275000X-0.200000X0.275000X-0.200000X-0.275000X0.200000X-0.275000X0*%
%ADD16RoundRect,0.140000X0.219203X0.021213X0.021213X0.219203X-0.219203X-0.021213X-0.021213X-0.219203X0*%
%ADD17RoundRect,0.150000X0.150000X-0.587500X0.150000X0.587500X-0.150000X0.587500X-0.150000X-0.587500X0*%
%ADD18RoundRect,0.225000X0.225000X0.250000X-0.225000X0.250000X-0.225000X-0.250000X0.225000X-0.250000X0*%
%ADD19RoundRect,0.140000X-0.170000X0.140000X-0.170000X-0.140000X0.170000X-0.140000X0.170000X0.140000X0*%
%ADD20RoundRect,0.200000X-0.275000X0.200000X-0.275000X-0.200000X0.275000X-0.200000X0.275000X0.200000X0*%
%ADD21RoundRect,0.100000X-0.637500X-0.100000X0.637500X-0.100000X0.637500X0.100000X-0.637500X0.100000X0*%
%ADD22RoundRect,0.225000X-0.225000X-0.250000X0.225000X-0.250000X0.225000X0.250000X-0.225000X0.250000X0*%
%ADD23RoundRect,0.135000X-0.185000X0.135000X-0.185000X-0.135000X0.185000X-0.135000X0.185000X0.135000X0*%
%ADD24RoundRect,0.225000X0.250000X-0.225000X0.250000X0.225000X-0.250000X0.225000X-0.250000X-0.225000X0*%
%ADD25RoundRect,0.140000X-0.140000X-0.170000X0.140000X-0.170000X0.140000X0.170000X-0.140000X0.170000X0*%
%ADD26RoundRect,0.225000X-0.250000X0.225000X-0.250000X-0.225000X0.250000X-0.225000X0.250000X0.225000X0*%
%ADD27R,1.600000X0.700000*%
%ADD28R,1.600000X1.200000*%
%ADD29R,2.200000X1.200000*%
%ADD30R,1.400000X1.600000*%
%ADD31RoundRect,0.200000X-0.200000X-0.275000X0.200000X-0.275000X0.200000X0.275000X-0.200000X0.275000X0*%
%ADD32RoundRect,0.135000X-0.135000X-0.185000X0.135000X-0.185000X0.135000X0.185000X-0.135000X0.185000X0*%
%ADD33RoundRect,0.050000X0.250000X-0.100000X0.250000X0.100000X-0.250000X0.100000X-0.250000X-0.100000X0*%
%ADD34RoundRect,0.150000X0.150000X-0.512500X0.150000X0.512500X-0.150000X0.512500X-0.150000X-0.512500X0*%
%ADD35RoundRect,0.135000X0.226274X0.035355X0.035355X0.226274X-0.226274X-0.035355X-0.035355X-0.226274X0*%
%ADD36RoundRect,0.150000X-0.512500X-0.150000X0.512500X-0.150000X0.512500X0.150000X-0.512500X0.150000X0*%
%ADD37R,4.300000X2.400000*%
%ADD38RoundRect,0.050000X-0.250000X0.100000X-0.250000X-0.100000X0.250000X-0.100000X0.250000X0.100000X0*%
%ADD39R,1.500000X3.000000*%
%ADD40RoundRect,0.250000X1.000000X0.650000X-1.000000X0.650000X-1.000000X-0.650000X1.000000X-0.650000X0*%
%ADD41RoundRect,0.150000X-0.150000X0.587500X-0.150000X-0.587500X0.150000X-0.587500X0.150000X0.587500X0*%
%ADD42RoundRect,0.150000X-0.587500X-0.150000X0.587500X-0.150000X0.587500X0.150000X-0.587500X0.150000X0*%
%ADD43RoundRect,0.140000X0.170000X-0.140000X0.170000X0.140000X-0.170000X0.140000X-0.170000X-0.140000X0*%
%ADD44R,1.600000X0.400000*%
%ADD45C,1.000000*%
%ADD46R,1.000000X0.900000*%
%ADD47RoundRect,0.250000X0.595000X1.080000X-0.595000X1.080000X-0.595000X-1.080000X0.595000X-1.080000X0*%
%ADD48RoundRect,0.150000X0.687500X0.150000X-0.687500X0.150000X-0.687500X-0.150000X0.687500X-0.150000X0*%
%ADD49RoundRect,0.100000X-0.712500X-0.100000X0.712500X-0.100000X0.712500X0.100000X-0.712500X0.100000X0*%
%ADD50RoundRect,0.200000X0.275000X-0.200000X0.275000X0.200000X-0.275000X0.200000X-0.275000X-0.200000X0*%
%ADD51RoundRect,0.250000X-1.000000X-0.650000X1.000000X-0.650000X1.000000X0.650000X-1.000000X0.650000X0*%
%ADD52R,1.900000X5.300000*%
%ADD53R,1.750000X0.450000*%
%ADD54RoundRect,0.218750X-0.218750X-0.256250X0.218750X-0.256250X0.218750X0.256250X-0.218750X0.256250X0*%
%ADD55R,0.900000X0.900000*%
%ADD56R,1.500000X0.900000*%
%ADD57R,0.900000X1.500000*%
%ADD58RoundRect,0.135000X0.185000X-0.135000X0.185000X0.135000X-0.185000X0.135000X-0.185000X-0.135000X0*%
%ADD59R,1.800000X0.400000*%
%ADD60R,1.200000X0.600000*%
%ADD61R,2.400000X3.300000*%
%ADD62RoundRect,0.150000X0.512500X0.150000X-0.512500X0.150000X-0.512500X-0.150000X0.512500X-0.150000X0*%
%ADD63RoundRect,0.250000X-0.250000X-0.475000X0.250000X-0.475000X0.250000X0.475000X-0.250000X0.475000X0*%
%ADD64R,1.800000X1.000000*%
G04 APERTURE END LIST*
D10*
X138403884Y-70072419D02*
X138403884Y-69072419D01*
X138403884Y-69072419D02*
X138784836Y-69072419D01*
X138784836Y-69072419D02*
X138880074Y-69120038D01*
X138880074Y-69120038D02*
X138927693Y-69167657D01*
X138927693Y-69167657D02*
X138975312Y-69262895D01*
X138975312Y-69262895D02*
X138975312Y-69405752D01*
X138975312Y-69405752D02*
X138927693Y-69500990D01*
X138927693Y-69500990D02*
X138880074Y-69548609D01*
X138880074Y-69548609D02*
X138784836Y-69596228D01*
X138784836Y-69596228D02*
X138403884Y-69596228D01*
X139403884Y-70072419D02*
X139403884Y-69405752D01*
X139403884Y-69596228D02*
X139451503Y-69500990D01*
X139451503Y-69500990D02*
X139499122Y-69453371D01*
X139499122Y-69453371D02*
X139594360Y-69405752D01*
X139594360Y-69405752D02*
X139689598Y-69405752D01*
X140165789Y-70072419D02*
X140070551Y-70024800D01*
X140070551Y-70024800D02*
X140022932Y-69977180D01*
X140022932Y-69977180D02*
X139975313Y-69881942D01*
X139975313Y-69881942D02*
X139975313Y-69596228D01*
X139975313Y-69596228D02*
X140022932Y-69500990D01*
X140022932Y-69500990D02*
X140070551Y-69453371D01*
X140070551Y-69453371D02*
X140165789Y-69405752D01*
X140165789Y-69405752D02*
X140308646Y-69405752D01*
X140308646Y-69405752D02*
X140403884Y-69453371D01*
X140403884Y-69453371D02*
X140451503Y-69500990D01*
X140451503Y-69500990D02*
X140499122Y-69596228D01*
X140499122Y-69596228D02*
X140499122Y-69881942D01*
X140499122Y-69881942D02*
X140451503Y-69977180D01*
X140451503Y-69977180D02*
X140403884Y-70024800D01*
X140403884Y-70024800D02*
X140308646Y-70072419D01*
X140308646Y-70072419D02*
X140165789Y-70072419D01*
X140927694Y-69405752D02*
X140927694Y-70262895D01*
X140927694Y-70262895D02*
X140880075Y-70358133D01*
X140880075Y-70358133D02*
X140784837Y-70405752D01*
X140784837Y-70405752D02*
X140737218Y-70405752D01*
X140927694Y-69072419D02*
X140880075Y-69120038D01*
X140880075Y-69120038D02*
X140927694Y-69167657D01*
X140927694Y-69167657D02*
X140975313Y-69120038D01*
X140975313Y-69120038D02*
X140927694Y-69072419D01*
X140927694Y-69072419D02*
X140927694Y-69167657D01*
X141784836Y-70024800D02*
X141689598Y-70072419D01*
X141689598Y-70072419D02*
X141499122Y-70072419D01*
X141499122Y-70072419D02*
X141403884Y-70024800D01*
X141403884Y-70024800D02*
X141356265Y-69929561D01*
X141356265Y-69929561D02*
X141356265Y-69548609D01*
X141356265Y-69548609D02*
X141403884Y-69453371D01*
X141403884Y-69453371D02*
X141499122Y-69405752D01*
X141499122Y-69405752D02*
X141689598Y-69405752D01*
X141689598Y-69405752D02*
X141784836Y-69453371D01*
X141784836Y-69453371D02*
X141832455Y-69548609D01*
X141832455Y-69548609D02*
X141832455Y-69643847D01*
X141832455Y-69643847D02*
X141356265Y-69739085D01*
X142689598Y-70024800D02*
X142594360Y-70072419D01*
X142594360Y-70072419D02*
X142403884Y-70072419D01*
X142403884Y-70072419D02*
X142308646Y-70024800D01*
X142308646Y-70024800D02*
X142261027Y-69977180D01*
X142261027Y-69977180D02*
X142213408Y-69881942D01*
X142213408Y-69881942D02*
X142213408Y-69596228D01*
X142213408Y-69596228D02*
X142261027Y-69500990D01*
X142261027Y-69500990D02*
X142308646Y-69453371D01*
X142308646Y-69453371D02*
X142403884Y-69405752D01*
X142403884Y-69405752D02*
X142594360Y-69405752D01*
X142594360Y-69405752D02*
X142689598Y-69453371D01*
X142975313Y-69405752D02*
X143356265Y-69405752D01*
X143118170Y-69072419D02*
X143118170Y-69929561D01*
X143118170Y-69929561D02*
X143165789Y-70024800D01*
X143165789Y-70024800D02*
X143261027Y-70072419D01*
X143261027Y-70072419D02*
X143356265Y-70072419D01*
D11*
G36*
X101394940Y-129017473D02*
G01*
X101393475Y-129080000D01*
X100797034Y-129080000D01*
X100797034Y-128079581D01*
X101393475Y-128079581D01*
X101393475Y-128142107D01*
X100869574Y-128142107D01*
X100869574Y-128532896D01*
X101305547Y-128532896D01*
X101305547Y-128595422D01*
X100869574Y-128595422D01*
X100869574Y-129017473D01*
X101394940Y-129017473D01*
G37*
G36*
X102152581Y-129017473D02*
G01*
X102152581Y-129080000D01*
X101608897Y-129080000D01*
X101608897Y-128079581D01*
X101681437Y-128079581D01*
X101681437Y-129017473D01*
X102152581Y-129017473D01*
G37*
G36*
X102462037Y-128471591D02*
G01*
X102432556Y-128511605D01*
X102421981Y-128526301D01*
X102394633Y-128567491D01*
X102389009Y-128576859D01*
X102428285Y-128543059D01*
X102473452Y-128516459D01*
X102487438Y-128510181D01*
X102535450Y-128494525D01*
X102587009Y-128486851D01*
X102612002Y-128486001D01*
X102662343Y-128489508D01*
X102712859Y-128501128D01*
X102729972Y-128507250D01*
X102774517Y-128529162D01*
X102815812Y-128560006D01*
X102823272Y-128567090D01*
X102856152Y-128606688D01*
X102880061Y-128650232D01*
X102884333Y-128660390D01*
X102899527Y-128710786D01*
X102906017Y-128762104D01*
X102906559Y-128783000D01*
X102903159Y-128832448D01*
X102891801Y-128882683D01*
X102882379Y-128908297D01*
X102859548Y-128952194D01*
X102827839Y-128993788D01*
X102814724Y-129007215D01*
X102776737Y-129038126D01*
X102733026Y-129062991D01*
X102710921Y-129072428D01*
X102663957Y-129086567D01*
X102613559Y-129094181D01*
X102578053Y-129095631D01*
X102527529Y-129092437D01*
X102476593Y-129081767D01*
X102450802Y-129072916D01*
X102406669Y-129051196D01*
X102365182Y-129020501D01*
X102351884Y-129007704D01*
X102319533Y-128966751D01*
X102295856Y-128922361D01*
X102288381Y-128903656D01*
X102274688Y-128855262D01*
X102267315Y-128802402D01*
X102266629Y-128783977D01*
X102331367Y-128783977D01*
X102335124Y-128835909D01*
X102346394Y-128884083D01*
X102348464Y-128890223D01*
X102369347Y-128935530D01*
X102397313Y-128974242D01*
X102434978Y-129007269D01*
X102474738Y-129029197D01*
X102523281Y-129043852D01*
X102574003Y-129048717D01*
X102577564Y-129048736D01*
X102628107Y-129044996D01*
X102677280Y-129032689D01*
X102686496Y-129029197D01*
X102731437Y-129005750D01*
X102769050Y-128974975D01*
X102800901Y-128934472D01*
X102821563Y-128892665D01*
X102835301Y-128842962D01*
X102839863Y-128792594D01*
X102839881Y-128789106D01*
X102836421Y-128739585D01*
X102825037Y-128691403D01*
X102821807Y-128682372D01*
X102800252Y-128638408D01*
X102771249Y-128601772D01*
X102732959Y-128570822D01*
X102693335Y-128550725D01*
X102645952Y-128537353D01*
X102597094Y-128532913D01*
X102593684Y-128532896D01*
X102541926Y-128537150D01*
X102492073Y-128551150D01*
X102482798Y-128555122D01*
X102437735Y-128580645D01*
X102400244Y-128612763D01*
X102368981Y-128652958D01*
X102348953Y-128693119D01*
X102335231Y-128741144D01*
X102331367Y-128783977D01*
X102266629Y-128783977D01*
X102265910Y-128764682D01*
X102270788Y-128714317D01*
X102283948Y-128663318D01*
X102295464Y-128631570D01*
X102317631Y-128583422D01*
X102343905Y-128537112D01*
X102372286Y-128493580D01*
X102392428Y-128465240D01*
X102664026Y-128095945D01*
X102699930Y-128079581D01*
X102759036Y-128079581D01*
X102462037Y-128471591D01*
G37*
G36*
X103683251Y-129033105D02*
G01*
X103683251Y-129080000D01*
X103169853Y-129080000D01*
X103169853Y-129033105D01*
X103398464Y-129033105D01*
X103398464Y-128229302D01*
X103400662Y-128178988D01*
X103181088Y-128373161D01*
X103161304Y-128379511D01*
X103145917Y-128370963D01*
X103125645Y-128342875D01*
X103413119Y-128079581D01*
X103465875Y-128079581D01*
X103465875Y-129033105D01*
X103683251Y-129033105D01*
G37*
G36*
X104544452Y-128079581D02*
G01*
X104544452Y-128110111D01*
X104541521Y-128131116D01*
X104535415Y-128146259D01*
X104079413Y-129054598D01*
X104064270Y-129072916D01*
X104039357Y-129080000D01*
X103992951Y-129080000D01*
X104453105Y-128175324D01*
X104474842Y-128142107D01*
X103900872Y-128142107D01*
X103887438Y-128136489D01*
X103881821Y-128122812D01*
X103881821Y-128079581D01*
X104544452Y-128079581D01*
G37*
G36*
X105062826Y-128067615D02*
G01*
X105114643Y-128079974D01*
X105151884Y-128094968D01*
X105194726Y-128120132D01*
X105233586Y-128152973D01*
X105265457Y-128189490D01*
X105293831Y-128232471D01*
X105315941Y-128276783D01*
X105334806Y-128326426D01*
X105342149Y-128350202D01*
X105354544Y-128400913D01*
X105363398Y-128456081D01*
X105368240Y-128508010D01*
X105370370Y-128563351D01*
X105370481Y-128579790D01*
X105369125Y-128636118D01*
X105365058Y-128689057D01*
X105358279Y-128738607D01*
X105347212Y-128791085D01*
X105342149Y-128809623D01*
X105326823Y-128856014D01*
X105306515Y-128903204D01*
X105280145Y-128949429D01*
X105265457Y-128970090D01*
X105230218Y-129009910D01*
X105190996Y-129042053D01*
X105151884Y-129064612D01*
X105106179Y-129082272D01*
X105058396Y-129092602D01*
X105013154Y-129095631D01*
X104963372Y-129091966D01*
X104911565Y-129079607D01*
X104874424Y-129064612D01*
X104831831Y-129039448D01*
X104793047Y-129006607D01*
X104761095Y-128970090D01*
X104732874Y-128927133D01*
X104710900Y-128882884D01*
X104692173Y-128833341D01*
X104684891Y-128809623D01*
X104672710Y-128758805D01*
X104664009Y-128703560D01*
X104659250Y-128651590D01*
X104657156Y-128596230D01*
X104657050Y-128580034D01*
X104725924Y-128580034D01*
X104727034Y-128633491D01*
X104730365Y-128683371D01*
X104736891Y-128735998D01*
X104746317Y-128783953D01*
X104749127Y-128795212D01*
X104763572Y-128842553D01*
X104782568Y-128889216D01*
X104807044Y-128933329D01*
X104811898Y-128940537D01*
X104843176Y-128978559D01*
X104881092Y-129010059D01*
X104903244Y-129022847D01*
X104949887Y-129040545D01*
X104998774Y-129048332D01*
X105013154Y-129048736D01*
X105062561Y-129043781D01*
X105109912Y-129028915D01*
X105123063Y-129022847D01*
X105166393Y-128994349D01*
X105201940Y-128957423D01*
X105214410Y-128940537D01*
X105239401Y-128897799D01*
X105258864Y-128852385D01*
X105275226Y-128800722D01*
X105276692Y-128795212D01*
X105288026Y-128742248D01*
X105294987Y-128690205D01*
X105298674Y-128640836D01*
X105300116Y-128587890D01*
X105300139Y-128580034D01*
X105299017Y-128526947D01*
X105295651Y-128477319D01*
X105289057Y-128424837D01*
X105279531Y-128376874D01*
X105276692Y-128365589D01*
X105262384Y-128318032D01*
X105243541Y-128271263D01*
X105219233Y-128227201D01*
X105214410Y-128220020D01*
X105183360Y-128181816D01*
X105145383Y-128150117D01*
X105123063Y-128137222D01*
X105076300Y-128119190D01*
X105027480Y-128111256D01*
X105013154Y-128110844D01*
X104963626Y-128115893D01*
X104916342Y-128131040D01*
X104903244Y-128137222D01*
X104860155Y-128165933D01*
X104824496Y-128203058D01*
X104811898Y-128220020D01*
X104786739Y-128262677D01*
X104767123Y-128308167D01*
X104750608Y-128360049D01*
X104749127Y-128365589D01*
X104737911Y-128418595D01*
X104731022Y-128470512D01*
X104727374Y-128519645D01*
X104725947Y-128572239D01*
X104725924Y-128580034D01*
X104657050Y-128580034D01*
X104657048Y-128579790D01*
X104658380Y-128523474D01*
X104662377Y-128470570D01*
X104669039Y-128421079D01*
X104679915Y-128368696D01*
X104684891Y-128350202D01*
X104700095Y-128303704D01*
X104720266Y-128256430D01*
X104746483Y-128210158D01*
X104761095Y-128189490D01*
X104796415Y-128149670D01*
X104835545Y-128117527D01*
X104874424Y-128094968D01*
X104920018Y-128077308D01*
X104967807Y-128066978D01*
X105013154Y-128063949D01*
X105062826Y-128067615D01*
G37*
G36*
X106254749Y-128081453D02*
G01*
X106312337Y-128088643D01*
X106363862Y-128101225D01*
X106409326Y-128119200D01*
X106454705Y-128146986D01*
X106466154Y-128156273D01*
X106500891Y-128192863D01*
X106527096Y-128235741D01*
X106544769Y-128284906D01*
X106553910Y-128340360D01*
X106555303Y-128374870D01*
X106551232Y-128426163D01*
X106539018Y-128474069D01*
X106530635Y-128495038D01*
X106505029Y-128540058D01*
X106471383Y-128579374D01*
X106460293Y-128589560D01*
X106419918Y-128619004D01*
X106373013Y-128642645D01*
X106349162Y-128651598D01*
X106297802Y-128664993D01*
X106246740Y-128671841D01*
X106202128Y-128673579D01*
X106017236Y-128673579D01*
X106017236Y-129080000D01*
X105944696Y-129080000D01*
X105944696Y-128626685D01*
X106017236Y-128626685D01*
X106202128Y-128626685D01*
X106253095Y-128623541D01*
X106303023Y-128613122D01*
X106319609Y-128607634D01*
X106364893Y-128586554D01*
X106405506Y-128556970D01*
X106407780Y-128554877D01*
X106441622Y-128515619D01*
X106463468Y-128475254D01*
X106477939Y-128427260D01*
X106482744Y-128378495D01*
X106482763Y-128375115D01*
X106479397Y-128325492D01*
X106467307Y-128275220D01*
X106443196Y-128226875D01*
X106412421Y-128191200D01*
X106367347Y-128159912D01*
X106318037Y-128140697D01*
X106267753Y-128130521D01*
X106210807Y-128126539D01*
X106202128Y-128126475D01*
X106017236Y-128126475D01*
X106017236Y-128626685D01*
X105944696Y-128626685D01*
X105944696Y-128079581D01*
X106202128Y-128079581D01*
X106254749Y-128081453D01*
G37*
G36*
X106770237Y-128543398D02*
G01*
X106790038Y-128497777D01*
X106807362Y-128466461D01*
X106837240Y-128426641D01*
X106854989Y-128409309D01*
X106897242Y-128381281D01*
X106915561Y-128373405D01*
X106965034Y-128362165D01*
X106989811Y-128360949D01*
X107032554Y-128365589D01*
X107069923Y-128381953D01*
X107064305Y-128423719D01*
X107051116Y-128433977D01*
X107025226Y-128428848D01*
X106980041Y-128423475D01*
X106930503Y-128428944D01*
X106907745Y-128436175D01*
X106864423Y-128462141D01*
X106851570Y-128474033D01*
X106820201Y-128514396D01*
X106807850Y-128536559D01*
X106787972Y-128581880D01*
X106773900Y-128622044D01*
X106773900Y-129080000D01*
X106706245Y-129080000D01*
X106706245Y-128376580D01*
X106742149Y-128376580D01*
X106759002Y-128380976D01*
X106765352Y-128396120D01*
X106770237Y-128543398D01*
G37*
G36*
X107488572Y-128364037D02*
G01*
X107538667Y-128374449D01*
X107573307Y-128387083D01*
X107618625Y-128411944D01*
X107657734Y-128444062D01*
X107673691Y-128461332D01*
X107703647Y-128503692D01*
X107725646Y-128548588D01*
X107735973Y-128577348D01*
X107748210Y-128625794D01*
X107755367Y-128678108D01*
X107757466Y-128729023D01*
X107755367Y-128779913D01*
X107748210Y-128832145D01*
X107735973Y-128880453D01*
X107717140Y-128928298D01*
X107692879Y-128970716D01*
X107673691Y-128995980D01*
X107637447Y-129031248D01*
X107594994Y-129059260D01*
X107573307Y-129069741D01*
X107526561Y-129085518D01*
X107475351Y-129094013D01*
X107438729Y-129095631D01*
X107388858Y-129092572D01*
X107338666Y-129082256D01*
X107303907Y-129069741D01*
X107258668Y-129045078D01*
X107219394Y-129013159D01*
X107203279Y-128995980D01*
X107173165Y-128953701D01*
X107151092Y-128909022D01*
X107140753Y-128880453D01*
X107128655Y-128832145D01*
X107121579Y-128779913D01*
X107119504Y-128729023D01*
X107188381Y-128729023D01*
X107190579Y-128781985D01*
X107197173Y-128830963D01*
X107204012Y-128861402D01*
X107220849Y-128909801D01*
X107245424Y-128954291D01*
X107251151Y-128962274D01*
X107286444Y-128999216D01*
X107329309Y-129026510D01*
X107376707Y-129042464D01*
X107427143Y-129048541D01*
X107438729Y-129048736D01*
X107490401Y-129044482D01*
X107539020Y-129030482D01*
X107547906Y-129026510D01*
X107590893Y-128999216D01*
X107626064Y-128962274D01*
X107652060Y-128919309D01*
X107669932Y-128872332D01*
X107672958Y-128861402D01*
X107682921Y-128811040D01*
X107687609Y-128760402D01*
X107688346Y-128729023D01*
X107686182Y-128676472D01*
X107679690Y-128627631D01*
X107672958Y-128597131D01*
X107656409Y-128548352D01*
X107631830Y-128503558D01*
X107626064Y-128495526D01*
X107590893Y-128458157D01*
X107547906Y-128430558D01*
X107500683Y-128414254D01*
X107450314Y-128408043D01*
X107438729Y-128407843D01*
X107387011Y-128412191D01*
X107338239Y-128426498D01*
X107329309Y-128430558D01*
X107286444Y-128458157D01*
X107251151Y-128495526D01*
X107225223Y-128538775D01*
X107207124Y-128586112D01*
X107204012Y-128597131D01*
X107193891Y-128647531D01*
X107189129Y-128697917D01*
X107188381Y-128729023D01*
X107119504Y-128729023D01*
X107121579Y-128678108D01*
X107128655Y-128625794D01*
X107140753Y-128577348D01*
X107159621Y-128529205D01*
X107183984Y-128486627D01*
X107203279Y-128461332D01*
X107239800Y-128425866D01*
X107282286Y-128397656D01*
X107303907Y-128387083D01*
X107350802Y-128371157D01*
X107402093Y-128362582D01*
X107438729Y-128360949D01*
X107488572Y-128364037D01*
G37*
D10*
X142503884Y-81448609D02*
X142837217Y-81448609D01*
X142980074Y-81972419D02*
X142503884Y-81972419D01*
X142503884Y-81972419D02*
X142503884Y-80972419D01*
X142503884Y-80972419D02*
X142980074Y-80972419D01*
X143884836Y-81972419D02*
X143408646Y-81972419D01*
X143408646Y-81972419D02*
X143408646Y-80972419D01*
X144646741Y-80972419D02*
X144456265Y-80972419D01*
X144456265Y-80972419D02*
X144361027Y-81020038D01*
X144361027Y-81020038D02*
X144313408Y-81067657D01*
X144313408Y-81067657D02*
X144218170Y-81210514D01*
X144218170Y-81210514D02*
X144170551Y-81400990D01*
X144170551Y-81400990D02*
X144170551Y-81781942D01*
X144170551Y-81781942D02*
X144218170Y-81877180D01*
X144218170Y-81877180D02*
X144265789Y-81924800D01*
X144265789Y-81924800D02*
X144361027Y-81972419D01*
X144361027Y-81972419D02*
X144551503Y-81972419D01*
X144551503Y-81972419D02*
X144646741Y-81924800D01*
X144646741Y-81924800D02*
X144694360Y-81877180D01*
X144694360Y-81877180D02*
X144741979Y-81781942D01*
X144741979Y-81781942D02*
X144741979Y-81543847D01*
X144741979Y-81543847D02*
X144694360Y-81448609D01*
X144694360Y-81448609D02*
X144646741Y-81400990D01*
X144646741Y-81400990D02*
X144551503Y-81353371D01*
X144551503Y-81353371D02*
X144361027Y-81353371D01*
X144361027Y-81353371D02*
X144265789Y-81400990D01*
X144265789Y-81400990D02*
X144218170Y-81448609D01*
X144218170Y-81448609D02*
X144170551Y-81543847D01*
X145694360Y-81972419D02*
X145122932Y-81972419D01*
X145408646Y-81972419D02*
X145408646Y-80972419D01*
X145408646Y-80972419D02*
X145313408Y-81115276D01*
X145313408Y-81115276D02*
X145218170Y-81210514D01*
X145218170Y-81210514D02*
X145122932Y-81258133D01*
X146027694Y-80972419D02*
X146694360Y-80972419D01*
X146694360Y-80972419D02*
X146265789Y-81972419D01*
X147265789Y-80972419D02*
X147361027Y-80972419D01*
X147361027Y-80972419D02*
X147456265Y-81020038D01*
X147456265Y-81020038D02*
X147503884Y-81067657D01*
X147503884Y-81067657D02*
X147551503Y-81162895D01*
X147551503Y-81162895D02*
X147599122Y-81353371D01*
X147599122Y-81353371D02*
X147599122Y-81591466D01*
X147599122Y-81591466D02*
X147551503Y-81781942D01*
X147551503Y-81781942D02*
X147503884Y-81877180D01*
X147503884Y-81877180D02*
X147456265Y-81924800D01*
X147456265Y-81924800D02*
X147361027Y-81972419D01*
X147361027Y-81972419D02*
X147265789Y-81972419D01*
X147265789Y-81972419D02*
X147170551Y-81924800D01*
X147170551Y-81924800D02*
X147122932Y-81877180D01*
X147122932Y-81877180D02*
X147075313Y-81781942D01*
X147075313Y-81781942D02*
X147027694Y-81591466D01*
X147027694Y-81591466D02*
X147027694Y-81353371D01*
X147027694Y-81353371D02*
X147075313Y-81162895D01*
X147075313Y-81162895D02*
X147122932Y-81067657D01*
X147122932Y-81067657D02*
X147170551Y-81020038D01*
X147170551Y-81020038D02*
X147265789Y-80972419D01*
X148789599Y-81972419D02*
X148789599Y-80972419D01*
X148789599Y-80972419D02*
X149170551Y-80972419D01*
X149170551Y-80972419D02*
X149265789Y-81020038D01*
X149265789Y-81020038D02*
X149313408Y-81067657D01*
X149313408Y-81067657D02*
X149361027Y-81162895D01*
X149361027Y-81162895D02*
X149361027Y-81305752D01*
X149361027Y-81305752D02*
X149313408Y-81400990D01*
X149313408Y-81400990D02*
X149265789Y-81448609D01*
X149265789Y-81448609D02*
X149170551Y-81496228D01*
X149170551Y-81496228D02*
X148789599Y-81496228D01*
X149789599Y-81972419D02*
X149789599Y-81305752D01*
X149789599Y-81496228D02*
X149837218Y-81400990D01*
X149837218Y-81400990D02*
X149884837Y-81353371D01*
X149884837Y-81353371D02*
X149980075Y-81305752D01*
X149980075Y-81305752D02*
X150075313Y-81305752D01*
X150551504Y-81972419D02*
X150456266Y-81924800D01*
X150456266Y-81924800D02*
X150408647Y-81877180D01*
X150408647Y-81877180D02*
X150361028Y-81781942D01*
X150361028Y-81781942D02*
X150361028Y-81496228D01*
X150361028Y-81496228D02*
X150408647Y-81400990D01*
X150408647Y-81400990D02*
X150456266Y-81353371D01*
X150456266Y-81353371D02*
X150551504Y-81305752D01*
X150551504Y-81305752D02*
X150694361Y-81305752D01*
X150694361Y-81305752D02*
X150789599Y-81353371D01*
X150789599Y-81353371D02*
X150837218Y-81400990D01*
X150837218Y-81400990D02*
X150884837Y-81496228D01*
X150884837Y-81496228D02*
X150884837Y-81781942D01*
X150884837Y-81781942D02*
X150837218Y-81877180D01*
X150837218Y-81877180D02*
X150789599Y-81924800D01*
X150789599Y-81924800D02*
X150694361Y-81972419D01*
X150694361Y-81972419D02*
X150551504Y-81972419D01*
D12*
X132516791Y-64031757D02*
X132469172Y-64007948D01*
X132469172Y-64007948D02*
X132445362Y-63960328D01*
X132445362Y-63960328D02*
X132445362Y-63531757D01*
X132707267Y-64031757D02*
X132707267Y-63698424D01*
X132707267Y-63531757D02*
X132683458Y-63555567D01*
X132683458Y-63555567D02*
X132707267Y-63579376D01*
X132707267Y-63579376D02*
X132731077Y-63555567D01*
X132731077Y-63555567D02*
X132707267Y-63531757D01*
X132707267Y-63531757D02*
X132707267Y-63579376D01*
X132945362Y-64031757D02*
X132945362Y-63531757D01*
X132945362Y-63722233D02*
X132992981Y-63698424D01*
X132992981Y-63698424D02*
X133088219Y-63698424D01*
X133088219Y-63698424D02*
X133135838Y-63722233D01*
X133135838Y-63722233D02*
X133159648Y-63746043D01*
X133159648Y-63746043D02*
X133183457Y-63793662D01*
X133183457Y-63793662D02*
X133183457Y-63936519D01*
X133183457Y-63936519D02*
X133159648Y-63984138D01*
X133159648Y-63984138D02*
X133135838Y-64007948D01*
X133135838Y-64007948D02*
X133088219Y-64031757D01*
X133088219Y-64031757D02*
X132992981Y-64031757D01*
X132992981Y-64031757D02*
X132945362Y-64007948D01*
X133612029Y-64007948D02*
X133564410Y-64031757D01*
X133564410Y-64031757D02*
X133469172Y-64031757D01*
X133469172Y-64031757D02*
X133421553Y-64007948D01*
X133421553Y-64007948D02*
X133397743Y-63984138D01*
X133397743Y-63984138D02*
X133373934Y-63936519D01*
X133373934Y-63936519D02*
X133373934Y-63793662D01*
X133373934Y-63793662D02*
X133397743Y-63746043D01*
X133397743Y-63746043D02*
X133421553Y-63722233D01*
X133421553Y-63722233D02*
X133469172Y-63698424D01*
X133469172Y-63698424D02*
X133564410Y-63698424D01*
X133564410Y-63698424D02*
X133612029Y-63722233D01*
X133826314Y-64031757D02*
X133826314Y-63531757D01*
X134040600Y-64031757D02*
X134040600Y-63769852D01*
X134040600Y-63769852D02*
X134016790Y-63722233D01*
X134016790Y-63722233D02*
X133969171Y-63698424D01*
X133969171Y-63698424D02*
X133897743Y-63698424D01*
X133897743Y-63698424D02*
X133850124Y-63722233D01*
X133850124Y-63722233D02*
X133826314Y-63746043D01*
X134492981Y-64031757D02*
X134492981Y-63769852D01*
X134492981Y-63769852D02*
X134469171Y-63722233D01*
X134469171Y-63722233D02*
X134421552Y-63698424D01*
X134421552Y-63698424D02*
X134326314Y-63698424D01*
X134326314Y-63698424D02*
X134278695Y-63722233D01*
X134492981Y-64007948D02*
X134445362Y-64031757D01*
X134445362Y-64031757D02*
X134326314Y-64031757D01*
X134326314Y-64031757D02*
X134278695Y-64007948D01*
X134278695Y-64007948D02*
X134254886Y-63960328D01*
X134254886Y-63960328D02*
X134254886Y-63912709D01*
X134254886Y-63912709D02*
X134278695Y-63865090D01*
X134278695Y-63865090D02*
X134326314Y-63841281D01*
X134326314Y-63841281D02*
X134445362Y-63841281D01*
X134445362Y-63841281D02*
X134492981Y-63817471D01*
X134731076Y-64031757D02*
X134731076Y-63698424D01*
X134731076Y-63793662D02*
X134754886Y-63746043D01*
X134754886Y-63746043D02*
X134778695Y-63722233D01*
X134778695Y-63722233D02*
X134826314Y-63698424D01*
X134826314Y-63698424D02*
X134873933Y-63698424D01*
X135254886Y-64031757D02*
X135254886Y-63769852D01*
X135254886Y-63769852D02*
X135231076Y-63722233D01*
X135231076Y-63722233D02*
X135183457Y-63698424D01*
X135183457Y-63698424D02*
X135088219Y-63698424D01*
X135088219Y-63698424D02*
X135040600Y-63722233D01*
X135254886Y-64007948D02*
X135207267Y-64031757D01*
X135207267Y-64031757D02*
X135088219Y-64031757D01*
X135088219Y-64031757D02*
X135040600Y-64007948D01*
X135040600Y-64007948D02*
X135016791Y-63960328D01*
X135016791Y-63960328D02*
X135016791Y-63912709D01*
X135016791Y-63912709D02*
X135040600Y-63865090D01*
X135040600Y-63865090D02*
X135088219Y-63841281D01*
X135088219Y-63841281D02*
X135207267Y-63841281D01*
X135207267Y-63841281D02*
X135254886Y-63817471D01*
X135492981Y-63841281D02*
X135873934Y-63841281D01*
X136326315Y-64031757D02*
X136326315Y-63531757D01*
X136326315Y-64007948D02*
X136278696Y-64031757D01*
X136278696Y-64031757D02*
X136183458Y-64031757D01*
X136183458Y-64031757D02*
X136135839Y-64007948D01*
X136135839Y-64007948D02*
X136112029Y-63984138D01*
X136112029Y-63984138D02*
X136088220Y-63936519D01*
X136088220Y-63936519D02*
X136088220Y-63793662D01*
X136088220Y-63793662D02*
X136112029Y-63746043D01*
X136112029Y-63746043D02*
X136135839Y-63722233D01*
X136135839Y-63722233D02*
X136183458Y-63698424D01*
X136183458Y-63698424D02*
X136278696Y-63698424D01*
X136278696Y-63698424D02*
X136326315Y-63722233D01*
X136754886Y-64007948D02*
X136707267Y-64031757D01*
X136707267Y-64031757D02*
X136612029Y-64031757D01*
X136612029Y-64031757D02*
X136564410Y-64007948D01*
X136564410Y-64007948D02*
X136540601Y-63960328D01*
X136540601Y-63960328D02*
X136540601Y-63769852D01*
X136540601Y-63769852D02*
X136564410Y-63722233D01*
X136564410Y-63722233D02*
X136612029Y-63698424D01*
X136612029Y-63698424D02*
X136707267Y-63698424D01*
X136707267Y-63698424D02*
X136754886Y-63722233D01*
X136754886Y-63722233D02*
X136778696Y-63769852D01*
X136778696Y-63769852D02*
X136778696Y-63817471D01*
X136778696Y-63817471D02*
X136540601Y-63865090D01*
X136945362Y-63698424D02*
X137064410Y-64031757D01*
X137064410Y-64031757D02*
X137183457Y-63698424D01*
X132421553Y-64384348D02*
X132445362Y-64360539D01*
X132445362Y-64360539D02*
X132492981Y-64336729D01*
X132492981Y-64336729D02*
X132612029Y-64336729D01*
X132612029Y-64336729D02*
X132659648Y-64360539D01*
X132659648Y-64360539D02*
X132683457Y-64384348D01*
X132683457Y-64384348D02*
X132707267Y-64431967D01*
X132707267Y-64431967D02*
X132707267Y-64479586D01*
X132707267Y-64479586D02*
X132683457Y-64551015D01*
X132683457Y-64551015D02*
X132397743Y-64836729D01*
X132397743Y-64836729D02*
X132707267Y-64836729D01*
X133016790Y-64336729D02*
X133064409Y-64336729D01*
X133064409Y-64336729D02*
X133112028Y-64360539D01*
X133112028Y-64360539D02*
X133135838Y-64384348D01*
X133135838Y-64384348D02*
X133159647Y-64431967D01*
X133159647Y-64431967D02*
X133183457Y-64527205D01*
X133183457Y-64527205D02*
X133183457Y-64646253D01*
X133183457Y-64646253D02*
X133159647Y-64741491D01*
X133159647Y-64741491D02*
X133135838Y-64789110D01*
X133135838Y-64789110D02*
X133112028Y-64812920D01*
X133112028Y-64812920D02*
X133064409Y-64836729D01*
X133064409Y-64836729D02*
X133016790Y-64836729D01*
X133016790Y-64836729D02*
X132969171Y-64812920D01*
X132969171Y-64812920D02*
X132945362Y-64789110D01*
X132945362Y-64789110D02*
X132921552Y-64741491D01*
X132921552Y-64741491D02*
X132897743Y-64646253D01*
X132897743Y-64646253D02*
X132897743Y-64527205D01*
X132897743Y-64527205D02*
X132921552Y-64431967D01*
X132921552Y-64431967D02*
X132945362Y-64384348D01*
X132945362Y-64384348D02*
X132969171Y-64360539D01*
X132969171Y-64360539D02*
X133016790Y-64336729D01*
X133373933Y-64384348D02*
X133397742Y-64360539D01*
X133397742Y-64360539D02*
X133445361Y-64336729D01*
X133445361Y-64336729D02*
X133564409Y-64336729D01*
X133564409Y-64336729D02*
X133612028Y-64360539D01*
X133612028Y-64360539D02*
X133635837Y-64384348D01*
X133635837Y-64384348D02*
X133659647Y-64431967D01*
X133659647Y-64431967D02*
X133659647Y-64479586D01*
X133659647Y-64479586D02*
X133635837Y-64551015D01*
X133635837Y-64551015D02*
X133350123Y-64836729D01*
X133350123Y-64836729D02*
X133659647Y-64836729D01*
X134088218Y-64503396D02*
X134088218Y-64836729D01*
X133969170Y-64312920D02*
X133850123Y-64670062D01*
X133850123Y-64670062D02*
X134159646Y-64670062D01*
X134707265Y-64312920D02*
X134278694Y-64955777D01*
X135135837Y-64836729D02*
X134850123Y-64836729D01*
X134992980Y-64836729D02*
X134992980Y-64336729D01*
X134992980Y-64336729D02*
X134945361Y-64408158D01*
X134945361Y-64408158D02*
X134897742Y-64455777D01*
X134897742Y-64455777D02*
X134850123Y-64479586D01*
X135445360Y-64336729D02*
X135492979Y-64336729D01*
X135492979Y-64336729D02*
X135540598Y-64360539D01*
X135540598Y-64360539D02*
X135564408Y-64384348D01*
X135564408Y-64384348D02*
X135588217Y-64431967D01*
X135588217Y-64431967D02*
X135612027Y-64527205D01*
X135612027Y-64527205D02*
X135612027Y-64646253D01*
X135612027Y-64646253D02*
X135588217Y-64741491D01*
X135588217Y-64741491D02*
X135564408Y-64789110D01*
X135564408Y-64789110D02*
X135540598Y-64812920D01*
X135540598Y-64812920D02*
X135492979Y-64836729D01*
X135492979Y-64836729D02*
X135445360Y-64836729D01*
X135445360Y-64836729D02*
X135397741Y-64812920D01*
X135397741Y-64812920D02*
X135373932Y-64789110D01*
X135373932Y-64789110D02*
X135350122Y-64741491D01*
X135350122Y-64741491D02*
X135326313Y-64646253D01*
X135326313Y-64646253D02*
X135326313Y-64527205D01*
X135326313Y-64527205D02*
X135350122Y-64431967D01*
X135350122Y-64431967D02*
X135373932Y-64384348D01*
X135373932Y-64384348D02*
X135397741Y-64360539D01*
X135397741Y-64360539D02*
X135445360Y-64336729D01*
X136183455Y-64312920D02*
X135754884Y-64955777D01*
X136612027Y-64836729D02*
X136326313Y-64836729D01*
X136469170Y-64836729D02*
X136469170Y-64336729D01*
X136469170Y-64336729D02*
X136421551Y-64408158D01*
X136421551Y-64408158D02*
X136373932Y-64455777D01*
X136373932Y-64455777D02*
X136326313Y-64479586D01*
X136802503Y-64384348D02*
X136826312Y-64360539D01*
X136826312Y-64360539D02*
X136873931Y-64336729D01*
X136873931Y-64336729D02*
X136992979Y-64336729D01*
X136992979Y-64336729D02*
X137040598Y-64360539D01*
X137040598Y-64360539D02*
X137064407Y-64384348D01*
X137064407Y-64384348D02*
X137088217Y-64431967D01*
X137088217Y-64431967D02*
X137088217Y-64479586D01*
X137088217Y-64479586D02*
X137064407Y-64551015D01*
X137064407Y-64551015D02*
X136778693Y-64836729D01*
X136778693Y-64836729D02*
X137088217Y-64836729D01*
X137612026Y-64336729D02*
X137778692Y-64836729D01*
X137778692Y-64836729D02*
X137945359Y-64336729D01*
X138088216Y-64384348D02*
X138112025Y-64360539D01*
X138112025Y-64360539D02*
X138159644Y-64336729D01*
X138159644Y-64336729D02*
X138278692Y-64336729D01*
X138278692Y-64336729D02*
X138326311Y-64360539D01*
X138326311Y-64360539D02*
X138350120Y-64384348D01*
X138350120Y-64384348D02*
X138373930Y-64431967D01*
X138373930Y-64431967D02*
X138373930Y-64479586D01*
X138373930Y-64479586D02*
X138350120Y-64551015D01*
X138350120Y-64551015D02*
X138064406Y-64836729D01*
X138064406Y-64836729D02*
X138373930Y-64836729D01*
D13*
%TO.C,C48*%
X158780000Y-101700000D03*
X157820000Y-101700000D03*
%TD*%
D14*
%TO.C,R24*%
X161310000Y-115550000D03*
X160290000Y-115550000D03*
%TD*%
D15*
%TO.C,R23*%
X200825000Y-117000000D03*
X199175000Y-117000000D03*
%TD*%
D13*
%TO.C,C47*%
X158780000Y-104300000D03*
X157820000Y-104300000D03*
%TD*%
D16*
%TO.C,C25*%
X194589411Y-101189411D03*
X193910589Y-100510589D03*
%TD*%
D14*
%TO.C,R30*%
X161710000Y-106750000D03*
X160690000Y-106750000D03*
%TD*%
D17*
%TO.C,Q3*%
X204100000Y-105237500D03*
X206000000Y-105237500D03*
X205050000Y-103362500D03*
%TD*%
D18*
%TO.C,C7*%
X124975000Y-78850000D03*
X123425000Y-78850000D03*
%TD*%
D19*
%TO.C,C44*%
X152500000Y-114320000D03*
X152500000Y-115280000D03*
%TD*%
D20*
%TO.C,R18*%
X103300000Y-114000000D03*
X103300000Y-115650000D03*
%TD*%
D21*
%TO.C,U9*%
X107137500Y-103775000D03*
X107137500Y-104425000D03*
X107137500Y-105075000D03*
X107137500Y-105725000D03*
X107137500Y-106375000D03*
X107137500Y-107025000D03*
X107137500Y-107675000D03*
X107137500Y-108325000D03*
X107137500Y-108975000D03*
X107137500Y-109625000D03*
X112862500Y-109625000D03*
X112862500Y-108975000D03*
X112862500Y-108325000D03*
X112862500Y-107675000D03*
X112862500Y-107025000D03*
X112862500Y-106375000D03*
X112862500Y-105725000D03*
X112862500Y-105075000D03*
X112862500Y-104425000D03*
X112862500Y-103775000D03*
%TD*%
D22*
%TO.C,C4*%
X133450000Y-87275000D03*
X135000000Y-87275000D03*
%TD*%
D23*
%TO.C,R25*%
X120000000Y-72990000D03*
X120000000Y-74010000D03*
%TD*%
D22*
%TO.C,C3*%
X133450000Y-85600000D03*
X135000000Y-85600000D03*
%TD*%
D24*
%TO.C,C34*%
X100062500Y-112150000D03*
X100062500Y-110600000D03*
%TD*%
D25*
%TO.C,C20*%
X125200000Y-112000000D03*
X126160000Y-112000000D03*
%TD*%
D26*
%TO.C,C40*%
X214400000Y-118625000D03*
X214400000Y-120175000D03*
%TD*%
D27*
%TO.C,J2*%
X164200000Y-106800000D03*
X164200000Y-107900000D03*
X164200000Y-109000000D03*
X164200000Y-110100000D03*
X164200000Y-111200000D03*
X164200000Y-112300000D03*
X164200000Y-113400000D03*
X164200000Y-114500000D03*
X164200000Y-115600000D03*
D28*
X164800000Y-116800000D03*
D29*
X174300000Y-116800000D03*
X174300000Y-101300000D03*
D30*
X164700000Y-102200000D03*
%TD*%
D26*
%TO.C,C46*%
X196150000Y-103200000D03*
X196150000Y-104750000D03*
%TD*%
D31*
%TO.C,R17*%
X120975000Y-109380000D03*
X122625000Y-109380000D03*
%TD*%
D32*
%TO.C,R9*%
X126090000Y-115400000D03*
X127110000Y-115400000D03*
%TD*%
D13*
%TO.C,C16*%
X150380000Y-124700000D03*
X149420000Y-124700000D03*
%TD*%
D15*
%TO.C,R12*%
X129587500Y-83800000D03*
X127937500Y-83800000D03*
%TD*%
D26*
%TO.C,C35*%
X97500000Y-110600000D03*
X97500000Y-112150000D03*
%TD*%
%TO.C,C41*%
X212600000Y-118625000D03*
X212600000Y-120175000D03*
%TD*%
D33*
%TO.C,D8*%
X158600000Y-112900000D03*
X158600000Y-112200000D03*
%TD*%
D34*
%TO.C,U5*%
X148950000Y-121187500D03*
X149900000Y-121187500D03*
X150850000Y-121187500D03*
X150850000Y-118912500D03*
X148950000Y-118912500D03*
%TD*%
D23*
%TO.C,R6*%
X138100000Y-123390000D03*
X138100000Y-124410000D03*
%TD*%
D26*
%TO.C,C29*%
X98300000Y-104225000D03*
X98300000Y-105775000D03*
%TD*%
D35*
%TO.C,R7*%
X133960624Y-119160624D03*
X133239376Y-118439376D03*
%TD*%
D23*
%TO.C,R32*%
X118900000Y-72990000D03*
X118900000Y-74010000D03*
%TD*%
D36*
%TO.C,U10*%
X96114545Y-118773345D03*
X96114545Y-119723345D03*
X96114545Y-120673345D03*
X98389545Y-120673345D03*
X98389545Y-118773345D03*
%TD*%
D14*
%TO.C,R8*%
X131000000Y-121100000D03*
X129980000Y-121100000D03*
%TD*%
D26*
%TO.C,C42*%
X210800000Y-118625000D03*
X210800000Y-120175000D03*
%TD*%
D37*
%TO.C,L6*%
X212200000Y-113000000D03*
X212200000Y-116400000D03*
%TD*%
D38*
%TO.C,D10*%
X162200000Y-104450000D03*
X162200000Y-105150000D03*
%TD*%
D33*
%TO.C,D7*%
X158600000Y-111000000D03*
X158600000Y-110300000D03*
%TD*%
D23*
%TO.C,R5*%
X136100000Y-123390000D03*
X136100000Y-124410000D03*
%TD*%
D39*
%TO.C,Audio1*%
X94100000Y-91800000D03*
X96100000Y-83800000D03*
X101100000Y-91800000D03*
%TD*%
D40*
%TO.C,D3*%
X131200000Y-88000000D03*
X127200000Y-88000000D03*
%TD*%
D31*
%TO.C,R13*%
X104475000Y-91800000D03*
X106125000Y-91800000D03*
%TD*%
D16*
%TO.C,C24*%
X193639411Y-102139411D03*
X192960589Y-101460589D03*
%TD*%
D41*
%TO.C,Q4*%
X200550000Y-108062500D03*
X198650000Y-108062500D03*
X199600000Y-109937500D03*
%TD*%
D20*
%TO.C,R34*%
X213300000Y-105775000D03*
X213300000Y-107425000D03*
%TD*%
D14*
%TO.C,R26*%
X161710000Y-109550000D03*
X160690000Y-109550000D03*
%TD*%
D32*
%TO.C,R1*%
X124190000Y-77300000D03*
X125210000Y-77300000D03*
%TD*%
D42*
%TO.C,Q5*%
X198962500Y-104050000D03*
X198962500Y-105950000D03*
X200837500Y-105000000D03*
%TD*%
D43*
%TO.C,C18*%
X147800000Y-116900000D03*
X147800000Y-115940000D03*
%TD*%
D22*
%TO.C,C28*%
X96825000Y-93700000D03*
X98375000Y-93700000D03*
%TD*%
D15*
%TO.C,R21*%
X200825000Y-115200000D03*
X199175000Y-115200000D03*
%TD*%
D19*
%TO.C,C45*%
X153700000Y-114320000D03*
X153700000Y-115280000D03*
%TD*%
D18*
%TO.C,C1*%
X125075000Y-71950000D03*
X123525000Y-71950000D03*
%TD*%
D44*
%TO.C,USB1*%
X215400000Y-101880000D03*
X215400000Y-101230000D03*
X215400000Y-100580000D03*
X215400000Y-99930000D03*
X215400000Y-99280000D03*
%TD*%
D45*
%TO.C,SWRST1*%
X124300000Y-129700000D03*
X127700000Y-126300000D03*
%TD*%
D22*
%TO.C,C27*%
X104525000Y-90100000D03*
X106075000Y-90100000D03*
%TD*%
D14*
%TO.C,R28*%
X161310000Y-113050000D03*
X160290000Y-113050000D03*
%TD*%
D22*
%TO.C,C31*%
X94725000Y-103300000D03*
X96275000Y-103300000D03*
%TD*%
D46*
%TO.C,X2*%
X209680000Y-95980000D03*
X211520000Y-95980000D03*
X211520000Y-94420000D03*
X209680000Y-94420000D03*
%TD*%
D31*
%TO.C,R16*%
X120975000Y-107680000D03*
X122625000Y-107680000D03*
%TD*%
D18*
%TO.C,C6*%
X124975000Y-80500000D03*
X123425000Y-80500000D03*
%TD*%
D47*
%TO.C,U6*%
X138800000Y-118700000D03*
D48*
X141437500Y-120700000D03*
X141437500Y-119700000D03*
X141437500Y-118700000D03*
X141437500Y-117700000D03*
X141437500Y-116700000D03*
X136162500Y-116700000D03*
X136162500Y-117700000D03*
X136162500Y-118700000D03*
X136162500Y-119700000D03*
X136162500Y-120700000D03*
%TD*%
D49*
%TO.C,U8*%
X197050000Y-95577500D03*
X197050000Y-96212500D03*
X197050000Y-96847500D03*
X197050000Y-97482500D03*
X197050000Y-98117500D03*
X197050000Y-98752500D03*
X197050000Y-99387500D03*
X197050000Y-100022500D03*
X202325000Y-100022500D03*
X202325000Y-99387500D03*
X202325000Y-98752500D03*
X202325000Y-98117500D03*
X202325000Y-97482500D03*
X202325000Y-96847500D03*
X202325000Y-96212500D03*
X202325000Y-95577500D03*
%TD*%
D50*
%TO.C,R19*%
X105200000Y-117325000D03*
X105200000Y-115675000D03*
%TD*%
D13*
%TO.C,C17*%
X150380000Y-123200000D03*
X149420000Y-123200000D03*
%TD*%
D50*
%TO.C,R10*%
X155700568Y-92163495D03*
X155700568Y-90513495D03*
%TD*%
D51*
%TO.C,D5*%
X204050000Y-108200000D03*
X208050000Y-108200000D03*
%TD*%
D18*
%TO.C,C2*%
X125075000Y-73600000D03*
X123525000Y-73600000D03*
%TD*%
D14*
%TO.C,R33*%
X119110000Y-71900000D03*
X118090000Y-71900000D03*
%TD*%
D52*
%TO.C,L5*%
X121000000Y-90200000D03*
X124400000Y-90200000D03*
%TD*%
D31*
%TO.C,R15*%
X120975000Y-105980000D03*
X122625000Y-105980000D03*
%TD*%
D53*
%TO.C,U12*%
X108400000Y-72925000D03*
X108400000Y-73575000D03*
X108400000Y-74225000D03*
X108400000Y-74875000D03*
X108400000Y-75525000D03*
X108400000Y-76175000D03*
X108400000Y-76825000D03*
X108400000Y-77475000D03*
X108400000Y-78125000D03*
X108400000Y-78775000D03*
X108400000Y-79425000D03*
X108400000Y-80075000D03*
X115600000Y-80075000D03*
X115600000Y-79425000D03*
X115600000Y-78775000D03*
X115600000Y-78125000D03*
X115600000Y-77475000D03*
X115600000Y-76825000D03*
X115600000Y-76175000D03*
X115600000Y-75525000D03*
X115600000Y-74875000D03*
X115600000Y-74225000D03*
X115600000Y-73575000D03*
X115600000Y-72925000D03*
%TD*%
D31*
%TO.C,R22*%
X200325000Y-102400000D03*
X201975000Y-102400000D03*
%TD*%
D22*
%TO.C,C32*%
X115225000Y-103900000D03*
X116775000Y-103900000D03*
%TD*%
%TO.C,C33*%
X115225000Y-105600000D03*
X116775000Y-105600000D03*
%TD*%
D38*
%TO.C,D11*%
X160500000Y-104450000D03*
X160500000Y-105150000D03*
%TD*%
D54*
%TO.C,D2*%
X155712500Y-88100000D03*
X157287500Y-88100000D03*
%TD*%
D55*
%TO.C,U13*%
X141900000Y-103400000D03*
X141895606Y-106200000D03*
X141895606Y-104800000D03*
X140500000Y-103400000D03*
X140495606Y-106200000D03*
X140495606Y-104800000D03*
X139100000Y-103400000D03*
X139095606Y-106200000D03*
X139095606Y-104800000D03*
D56*
X147745606Y-112520000D03*
X147745606Y-111250000D03*
X147745606Y-109980000D03*
X147745606Y-108710000D03*
X147745606Y-107440000D03*
X147745606Y-106170000D03*
X147745606Y-104900000D03*
X147745606Y-103630000D03*
X147745606Y-102360000D03*
X147745606Y-101090000D03*
X147745606Y-99820000D03*
X147745606Y-98550000D03*
X147745606Y-97280000D03*
X147745606Y-96010000D03*
D57*
X145980606Y-94760000D03*
X144710606Y-94760000D03*
X143440606Y-94760000D03*
X142170606Y-94760000D03*
X140900606Y-94760000D03*
X139630606Y-94760000D03*
X138360606Y-94760000D03*
X137090606Y-94760000D03*
X135820606Y-94760000D03*
X134550606Y-94760000D03*
X133280606Y-94760000D03*
X132010606Y-94760000D03*
D56*
X130245606Y-96010000D03*
X130245606Y-97280000D03*
X130245606Y-98550000D03*
X130245606Y-99820000D03*
X130245606Y-101090000D03*
X130245606Y-102360000D03*
X130245606Y-103630000D03*
X130245606Y-104900000D03*
X130245606Y-106170000D03*
X130245606Y-107440000D03*
X130245606Y-108710000D03*
X130245606Y-109980000D03*
X130245606Y-111250000D03*
X130245606Y-112520000D03*
%TD*%
D43*
%TO.C,C19*%
X148900000Y-116900000D03*
X148900000Y-115940000D03*
%TD*%
D58*
%TO.C,R4*%
X151500000Y-103510000D03*
X151500000Y-102490000D03*
%TD*%
D59*
%TO.C,SH1*%
X132150000Y-83800000D03*
X132150000Y-83100000D03*
X132150000Y-82400000D03*
X132150000Y-81700000D03*
X132150000Y-81000000D03*
X132150000Y-80300000D03*
X132150000Y-79600000D03*
X132150000Y-78900000D03*
X132150000Y-78200000D03*
X132150000Y-77500000D03*
X132150000Y-76800000D03*
X132150000Y-76100000D03*
X132150000Y-75400000D03*
X132150000Y-74700000D03*
X132150000Y-74000000D03*
X132150000Y-73300000D03*
X132150000Y-72600000D03*
X132150000Y-71900000D03*
X132150000Y-71200000D03*
X132150000Y-70500000D03*
X132150000Y-69800000D03*
X132150000Y-69100000D03*
X132150000Y-68400000D03*
X132150000Y-67700000D03*
%TD*%
D18*
%TO.C,C43*%
X208612990Y-119992532D03*
X207062990Y-119992532D03*
%TD*%
D60*
%TO.C,U11*%
X202790000Y-114440000D03*
X202790000Y-115710000D03*
X202790000Y-116990000D03*
X202790000Y-118260000D03*
X208610000Y-118260000D03*
X208610000Y-116990000D03*
X208610000Y-115710000D03*
X208610000Y-114440000D03*
D61*
X205700000Y-116350000D03*
%TD*%
D17*
%TO.C,Q1*%
X123750000Y-118837500D03*
X125650000Y-118837500D03*
X124700000Y-116962500D03*
%TD*%
D26*
%TO.C,C49*%
X154210000Y-111200000D03*
X154210000Y-112750000D03*
%TD*%
D31*
%TO.C,R14*%
X96775000Y-95400000D03*
X98425000Y-95400000D03*
%TD*%
D50*
%TO.C,R35*%
X209500000Y-103525000D03*
X209500000Y-101875000D03*
%TD*%
D18*
%TO.C,C5*%
X124975000Y-82150000D03*
X123425000Y-82150000D03*
%TD*%
D62*
%TO.C,U2*%
X124600000Y-86450000D03*
X124600000Y-85500000D03*
X124600000Y-84550000D03*
X122325000Y-84550000D03*
X122325000Y-86450000D03*
%TD*%
D45*
%TO.C,SWBOOT1*%
X139300000Y-129700000D03*
X142700000Y-126300000D03*
%TD*%
D25*
%TO.C,C26*%
X128320000Y-85300000D03*
X129280000Y-85300000D03*
%TD*%
D14*
%TO.C,R31*%
X161710000Y-108250000D03*
X160690000Y-108250000D03*
%TD*%
D17*
%TO.C,Q2*%
X127750000Y-118837500D03*
X129650000Y-118837500D03*
X128700000Y-116962500D03*
%TD*%
D63*
%TO.C,C39*%
X203450000Y-112600000D03*
X205350000Y-112600000D03*
%TD*%
D33*
%TO.C,D6*%
X158600000Y-109150000D03*
X158600000Y-108450000D03*
%TD*%
D22*
%TO.C,C36*%
X96152045Y-126823345D03*
X97702045Y-126823345D03*
%TD*%
%TO.C,C38*%
X203725000Y-110800000D03*
X205275000Y-110800000D03*
%TD*%
D26*
%TO.C,C50*%
X151700000Y-111200000D03*
X151700000Y-112750000D03*
%TD*%
D20*
%TO.C,R11*%
X126400000Y-83775000D03*
X126400000Y-85425000D03*
%TD*%
D25*
%TO.C,C21*%
X133420000Y-121400000D03*
X134380000Y-121400000D03*
%TD*%
D18*
%TO.C,C30*%
X96275000Y-106500000D03*
X94725000Y-106500000D03*
%TD*%
D26*
%TO.C,C37*%
X101752045Y-118748345D03*
X101752045Y-120298345D03*
%TD*%
D64*
%TO.C,Y1*%
X154600000Y-104250000D03*
X154600000Y-101750000D03*
%TD*%
D14*
%TO.C,R27*%
X161310000Y-111250000D03*
X160290000Y-111250000D03*
%TD*%
D33*
%TO.C,D9*%
X157700000Y-114800000D03*
X157700000Y-114100000D03*
%TD*%
D14*
%TO.C,R29*%
X161310000Y-114450000D03*
X160290000Y-114450000D03*
%TD*%
D23*
%TO.C,R36*%
X195450000Y-117140000D03*
X195450000Y-118160000D03*
%TD*%
M02*
